<?xml version="1.0" encoding="utf-8"?>
<!-- Generator: Adobe Illustrator 26.3.1, SVG Export Plug-In . SVG Version: 6.00 Build 0)  -->
<svg version="1.1" id="contents" xmlns="http://www.w3.org/2000/svg" xmlns:xlink="http://www.w3.org/1999/xlink" x="0px" y="0px"
	 viewBox="0 0 800 800" style="enable-background:new 0 0 800 800;" xml:space="preserve">
<style type="text/css">
	.st0{fill:#CCCCCC;}
	.st1{fill:#FFFFFF;}
</style>
<rect class="st0" width="800" height="800"/>
<g>
	<rect x="120" y="596.6" class="st1" width="369.7" height="42.9"/>
	<path class="st1" d="M230.7,534.4c0,22.2,18,40.2,40.2,40.2h124.7c22.2,0,40.2-18,40.2-40.2c0-5.2-1-10.1-2.8-14.6
		c-0.2-0.8-12.9-40.2-12.9-40.2l42.3-17.3c10.9-4.4,17.2-16.1,14.6-28c-2.9-13.2-16-21.5-29.2-18.5c0,0-76.7,17.2-77.5,17.4
		c-15,4.8-23.2,20.9-18.3,35.8l8.1,25.2h-73.3v-54.4c0-15.5-12.6-28.1-28.1-28.1s-28.1,12.6-28.1,28.1
		C230.6,439.8,230.7,533.8,230.7,534.4z"/>
	<circle class="st1" cx="169.8" cy="512.3" r="50.4"/>
	<path class="st1" d="M675.8,389.2c-5.6-14-75.5-187.9-76.6-189.9c-15.1-27.7-49.9-38-77.6-22.8c-13.9,7.6-21.1,19.9-27.5,34.3
		l-43.7,89.9l-85.7,54.6c-13.4,8.6-18.6,26.2-11.4,40.8c7.8,15.7,26.8,22.1,42.5,14.3L498,359.6c4.3-2.2,8.3-5.5,11.3-9.8l2.8-4.1
		l20.4-29.9L593,427l4.8,286.6c0.4,19.4,15.9,35.4,35.5,36.1c20.3,0.7,37.2-15.2,37.8-35.5l9.4-295.1
		C680.6,418.4,681.5,403.3,675.8,389.2z"/>
	<ellipse transform="matrix(0.7071 -0.7071 0.7071 0.7071 69.464 383.7009)" class="st1" cx="497.9" cy="108" rx="57.7" ry="57.7"/>
</g>
</svg>
