<?xml version="1.0" encoding="utf-8"?>
<!-- Generator: Adobe Illustrator 26.3.1, SVG Export Plug-In . SVG Version: 6.00 Build 0)  -->
<svg version="1.1" id="contents" xmlns="http://www.w3.org/2000/svg" xmlns:xlink="http://www.w3.org/1999/xlink" x="0px" y="0px"
	 viewBox="0 0 800 800" style="enable-background:new 0 0 800 800;" xml:space="preserve">
<style type="text/css">
	.st0{fill:#3A75B0;}
	.st1{fill:#FFFFFF;}
</style>
<rect x="0" class="st0" width="800" height="800"/>
<g>
	<rect x="120.02" y="596.57" class="st1" width="369.67" height="42.87"/>
	<path class="st1" d="M230.74,534.38c0,22.2,17.99,40.19,40.19,40.19h124.73c22.2,0,40.19-17.99,40.19-40.19
		c0-5.16-0.98-10.08-2.75-14.61c-0.19-0.79-12.87-40.25-12.87-40.25l42.26-17.27c10.85-4.42,17.25-16.15,14.61-27.96
		c-2.94-13.18-16.01-21.47-29.19-18.53c0,0-76.66,17.17-77.48,17.44c-14.95,4.82-23.16,20.85-18.34,35.8l8.13,25.2h-73.29v-54.43
		c0-15.54-12.59-28.13-28.13-28.13s-28.13,12.59-28.13,28.13C230.65,439.77,230.74,533.82,230.74,534.38z"/>
	<circle class="st1" cx="169.82" cy="512.35" r="50.44"/>
	<path class="st1" d="M675.82,389.23c-5.64-14.03-75.55-187.95-76.59-189.85c-15.13-27.74-49.88-37.96-77.62-22.83
		c-13.94,7.6-21.14,19.93-27.55,34.29l-43.74,89.87l-85.71,54.59c-13.42,8.62-18.61,26.22-11.35,40.83
		c7.79,15.67,26.8,22.06,42.48,14.27l102.23-50.8c4.34-2.18,8.33-5.51,11.27-9.81l2.79-4.08l20.4-29.86l60.6,111.1l4.77,286.63
		c0.36,19.42,15.89,35.44,35.52,36.07c20.26,0.65,37.2-15.25,37.85-35.51l9.42-295.11C680.59,418.38,681.46,403.26,675.82,389.23z"
		/>
	
		<ellipse transform="matrix(0.9653 -0.261 0.261 0.9653 -10.9389 133.7169)" class="st1" cx="497.95" cy="108.04" rx="57.71" ry="57.71"/>
</g>
</svg>
