<?xml version="1.0" encoding="utf-8"?>
<!-- Generator: Adobe Illustrator 26.3.1, SVG Export Plug-In . SVG Version: 6.00 Build 0)  -->
<svg version="1.1" id="contents" xmlns="http://www.w3.org/2000/svg" xmlns:xlink="http://www.w3.org/1999/xlink" x="0px" y="0px"
	 viewBox="0 0 800 800" style="enable-background:new 0 0 800 800;" xml:space="preserve">
<style type="text/css">
	.st0{fill:#CCCCCC;}
	.st1{fill:#FFFFFF;}
</style>
<g>
	<rect class="st0" width="800" height="800"/>
</g>
<path class="st1" d="M622.5,232.4v-36.6h75.9c8.5,0,15.4-6.9,15.4-15.4V89.2c0-8.5-6.9-15.4-15.4-15.4H519.6
	c-8.5,0-15.4,6.9-15.4,15.4v91.1c0,8.5,6.9,15.4,15.4,15.4h75.9v36.6H62.6V429h29v297.1h616.8V429h29V232.4H622.5z M606.1,144.9
	l25.1-51.6H654V143h10.5v14.3H654v19h-15.4v-19h-32.5L606.1,144.9L606.1,144.9z M553.4,164.5l8.5-10.2
	c12.7-14.7,20.3-24.3,20.3-34.2c0-6.2-3.4-11.4-10.4-11.4c-4.9,0-9.8,2.8-13.2,5.5l-4.5-13.8c4.5-3.7,12.6-7,21-7
	c16.5,0,24,11.3,24,25c0,21.8-22.5,42.2-22.5,42.2h23.6v15.8h-46.9L553.4,164.5L553.4,164.5z M516.2,696H444V522h72.2V696z M618,696
	h-72.2V522H618V696z M678.8,696.5h-31.2V492.4H414.4v204.1H121.2V429h557.6V696.5L678.8,696.5z M707.8,399.4H92.2v-24h615.6V399.4
	L707.8,399.4z M707.8,286H92.2v-24h615.6V286L707.8,286z"/>
<path class="st1" d="M638.8,112.9c-2,4.8-14.3,30.1-14.3,30.1h14.3V112.9z"/>
</svg>
