<?xml version="1.0" encoding="utf-8"?>
<!-- Generator: Adobe Illustrator 26.3.1, SVG Export Plug-In . SVG Version: 6.00 Build 0)  -->
<svg version="1.1" id="contents" xmlns="http://www.w3.org/2000/svg" xmlns:xlink="http://www.w3.org/1999/xlink" x="0px" y="0px"
	 viewBox="0 0 800 800" style="enable-background:new 0 0 800 800;" xml:space="preserve">
<style type="text/css">
	.st0{fill:#CCCCCC;}
	.st1{fill:#FFFFFF;}
</style>
<rect class="st0" width="800" height="800"/>
<g>
	<g>
		<g>
			<g>
				<polygon class="st1" points="423.4,298.7 392.8,273.5 635.6,66.8 662.3,94.1 				"/>
			</g>
		</g>
	</g>
	<path class="st1" d="M285.6,250.3c-19.2-10.3-64-29.9-101.4,5.6l-41.1,42.6c-2.2,1.8-5,2.8-7.9,2.8l-83.1,15.1
		c-1.7,2.2-2.7,4.9-2.7,7.7v56c0,7,5.6,12.6,12.6,12.6h5.9c4.7,0,8.9,2.6,11.1,6.7l6.5,10.1c2.2,4.1,6.5,6.7,11.1,6.7h66.1
		c2.4,0,4.8,0.7,6.8,2l45.5,35.6l147.3-153.1C362.3,300.7,328.7,273.5,285.6,250.3z M280.2,346.9l-38.3,21.5
		c-4.4,2.5-9.4,3.8-14.4,3.8c-3.1,0-6.2-0.5-9.2-1.5c-7.8-2.6-14.2-8.3-17.7-15.8L175.2,299l17.9-8.1l25.4,55.9
		c1.1,2.5,3.2,4.4,5.9,5.2c2.6,0.9,5.4,0.6,7.8-0.8l38.3-21.5c3.2-1.8,5.2-5.2,5.2-8.9v-44.4h19.7v44.4
		C295.5,331.7,289.6,341.7,280.2,346.9z"/>
	<g>
		<path class="st1" d="M395.6,484.9l81.1-93.2c-31-29.8-59.2-54.9-77.5-68.6l-87,89.9L395.6,484.9z"/>
		<path class="st1" d="M335,554.5l38-43.6l-84.8-73.1l-40.4,41.7l11.9,9.4c5.9,3.8,5.4,16.9-3.1,39.3c0,0-58.2,159.4-61.9,170.6
			s6.6,19,14.8,21.4l15.5,5.7c4.2,1.3,13.1,3.4,20.3-11.2l82.3-168.3C327.4,547.4,330.4,550.5,335,554.5z"/>
		<path class="st1" d="M687.7,580.6c-10.1,6.5-24.9,12.4-39.8,17.2c-7.6-33.5-79.1-114.6-146.6-181.9L362.1,575.8
			c5.8,4.3,10,7.4,10,7.4c-13.9,12.7-32.1,37.4-32.1,79.9c0,11,0.6,19.4,1.8,25.7l-29.5,0.4c-7,0.1-15.5,5.2-18.8,11.3L281.7,722
			c-3.4,6.2-0.4,11.2,6.6,11.2c0,0,261.7,0,313.3,0c20.8,0,42.1-19.2,51.1-50.5c25.9-17.6,57.7-46.3,79.7-90.3
			C775.6,506,734,550.7,687.7,580.6z"/>
	</g>
</g>
</svg>
