<?xml version="1.0" encoding="utf-8"?>
<!-- Generator: Adobe Illustrator 26.3.1, SVG Export Plug-In . SVG Version: 6.00 Build 0)  -->
<svg version="1.1" id="contents" xmlns="http://www.w3.org/2000/svg" xmlns:xlink="http://www.w3.org/1999/xlink" x="0px" y="0px"
	 viewBox="0 0 800 800" style="enable-background:new 0 0 800 800;" xml:space="preserve">
<style type="text/css">
	.st0{fill:#3A75B0;}
	.st1{fill:#FFFFFF;}
</style>
<rect x="0" class="st0" width="800" height="800"/>
<g>
	<path class="st1" d="M335.01,72.53c-13.97,0-25.45,10.5-26.7,24.42c-0.07,0.75,0.06,142.47,0.06,142.47
		c-0.58,7.88-7.66,14.28-15.56,14.28c-8.51,0-15.62-6.9-15.62-15.43l-0.08-138.92c0-13.09-9.37-24.21-22.28-26.43
		c-1.35-0.23-2.72-0.35-4.09-0.36v-0.01c-0.03,0-0.06,0-0.1,0c-0.03,0-0.06,0-0.09,0v0.01c-1.37,0.01-2.74,0.13-4.09,0.36
		c-12.91,2.22-22.28,13.33-22.28,26.43l-0.08,138.92c0,8.52-7.11,15.43-15.62,15.43c-7.9,0-14.98-6.41-15.56-14.28
		c0,0,0.13-141.72,0.06-142.47c-1.25-13.92-12.73-24.42-26.7-24.42c-14.79,0-26.83,12.04-26.83,26.83v185.86
		c0,6.62,0,20.2,12.87,34.84l34.42,41.47c17.04,17.61,26.42,40.8,26.42,65.3v59.92h74.94v-59.92c0-24.5,9.38-47.69,26.42-65.3
		l34.43-41.47c12.87-14.63,12.87-28.22,12.87-34.84V99.36C361.84,84.57,349.8,72.53,335.01,72.53z"/>
	<path class="st1" d="M294.55,507.64h-87.8c-4.75,0-8.61,3.85-8.61,8.61v162.22c0,27.07,21.94,49.01,49.01,49.01h7
		c27.07,0,49.01-21.94,49.01-49.01V516.24C303.16,511.49,299.3,507.64,294.55,507.64z M250.65,673.84
		c-9.26,0-16.76-7.51-16.76-16.76s7.51-16.76,16.76-16.76c9.26,0,16.76,7.51,16.76,16.76S259.91,673.84,250.65,673.84z"/>
	<path class="st1" d="M625.43,116.73c-22.31-28.09-53.21-44.2-84.77-44.2c-31.56,0-62.45,16.11-84.77,44.2
		c-22.64,28.5-35.11,66.4-35.11,106.71c0,32.31,7.99,63.12,23.12,89.1c6.6,11.33,14.31,21.39,22.91,29.87
		c22.99,22.68,35.93,53.64,35.93,85.93v58.39h75.85v-58.39c0-32.3,12.94-63.25,35.93-85.93c8.6-8.49,16.31-18.54,22.91-29.87
		c15.13-25.98,23.12-56.79,23.12-89.1C660.54,183.13,648.07,145.24,625.43,116.73z"/>
	<path class="st1" d="M553.28,727.47h-25.25c-22.03,0-39.88-17.86-39.88-39.88V514.64c0-3.87,3.14-7,7-7h91.01c3.87,0,7,3.14,7,7
		v172.94C593.16,709.61,575.31,727.47,553.28,727.47z"/>
	
		<ellipse transform="matrix(0.2284 -0.9736 0.9736 0.2284 -222.546 1033.3534)" class="st0" cx="540.66" cy="657.08" rx="16.76" ry="16.76"/>
</g>
</svg>
