<?xml version="1.0" encoding="utf-8"?>
<!-- Generator: Adobe Illustrator 26.3.1, SVG Export Plug-In . SVG Version: 6.00 Build 0)  -->
<svg version="1.1" id="contents" xmlns="http://www.w3.org/2000/svg" xmlns:xlink="http://www.w3.org/1999/xlink" x="0px" y="0px"
	 viewBox="0 0 800 800" style="enable-background:new 0 0 800 800;" xml:space="preserve">
<style type="text/css">
	.st0{fill:#3B7BBC;}
	.st1{fill:#FFFFFF;}
</style>
<rect class="st0" width="800" height="800"/>
<g>
	<g>
		<rect x="62.36" y="624.85" class="st1" width="407.42" height="76.32"/>
	</g>
	<path class="st1" d="M643.26,400.24v74.75c0,26.94-21.92,48.86-48.86,48.86c-26.94,0-48.86-21.92-48.86-48.86v-82.46
		c0-44.34-33.01-81.09-75.75-87.03v39.69c21.09,5.41,36.72,24.58,36.72,47.33v82.46c0,48.46,39.43,87.89,87.89,87.89
		c48.46,0,87.89-39.43,87.89-87.89v-74.75H643.26z"/>
	<path class="st1" d="M636.44,376.39h53.42c26.27,0,47.77-21.5,47.77-47.77v-76.49H588.67v76.49
		C588.67,354.89,610.17,376.39,636.44,376.39z"/>
	<rect x="614.64" y="177.49" class="st1" width="31.04" height="56.2"/>
	<rect x="680.63" y="177.49" class="st1" width="31.04" height="56.2"/>
	<path class="st1" d="M417.92,98.84H114.23c-15.05,0-27.37,12.32-27.37,27.37v462.34h358.43V126.2
		C445.29,111.15,432.97,98.84,417.92,98.84z M237.41,417.63l-100.03,0V269.75l98.58,0l0,28.81H170.6l0,29.2l51.11,0l0,28.25h-51.1
		l0,32.8h66.81L237.41,417.63z M350.03,417.63h-37.38L267.9,269.75h37.33l26.11,86.27l26.11-86.27h37.33L350.03,417.63z"/>
</g>
</svg>
