<?xml version="1.0" encoding="utf-8"?>
<!-- Generator: Adobe Illustrator 26.3.1, SVG Export Plug-In . SVG Version: 6.00 Build 0)  -->
<svg version="1.1" id="contents" xmlns="http://www.w3.org/2000/svg" xmlns:xlink="http://www.w3.org/1999/xlink" x="0px" y="0px"
	 viewBox="0 0 800 800" style="enable-background:new 0 0 800 800;" xml:space="preserve">
<style type="text/css">
	.st0{fill:#CCCCCC;}
	.st1{fill:#FCFCFC;}
</style>
<rect class="st0" width="800" height="800"/>
<g>
	<ellipse class="st1" cx="394.6" cy="324.8" rx="88" ry="88"/>
	<path class="st1" d="M209.9,166.5c24.9,10.4,35.6,21.1,45.9,45.9c1.5,3.7,6.8,3.7,8.4,0c10.4-24.9,21.1-35.6,46-45.9
		c3.7-1.6,3.7-6.8,0-8.4c-24.9-10.4-35.5-21.1-46-45.9c-1.5-3.7-6.8-3.7-8.4,0c-10.4,24.9-21.1,35.6-45.9,45.9
		C206.2,159.7,206.2,164.9,209.9,166.5z"/>
	<path class="st1" d="M529.8,278.3c14.6,6.1,20.9,12.4,27,27c0.9,2.2,4,2.2,4.9,0c6.1-14.6,12.4-20.9,27-27c2.2-0.9,2.2-4,0-4.9
		c-14.6-6.1-20.9-12.4-27-27c-0.9-2.2-4-2.2-4.9,0c-6.1,14.6-12.4,20.9-27,27C527.7,274.3,527.7,277.4,529.8,278.3z"/>
	<path class="st1" d="M708.9,345.9c-18.8-10.1-42.3-3.1-52.4,15.8l-72.1,134l-84.6-42c-9.2-3.8-34.1-12.7-55.2-12.7
		c0,0-115.6-0.4-118.9,0l-78.6-92.4l2.4,3.4L135.9,195.8c-10.4-14.3-30-19.1-46-10.6c-17.6,9.3-24.3,31.1-15,48.7L166,405.6l2.7,3.8
		l92.3,135.1l5.9,146.1h255.7l4.1-102.8l64.6,23.7c24.2,8.9,51.2-3.2,60.7-27.3l74.8-190.1C733.7,376.2,726.4,355.3,708.9,345.9z"/>
</g>
</svg>
