<?xml version="1.0" encoding="utf-8"?>
<!-- Generator: Adobe Illustrator 26.3.1, SVG Export Plug-In . SVG Version: 6.00 Build 0)  -->
<svg version="1.1" id="contents" xmlns="http://www.w3.org/2000/svg" xmlns:xlink="http://www.w3.org/1999/xlink" x="0px" y="0px"
	 viewBox="0 0 800 800" style="enable-background:new 0 0 800 800;" xml:space="preserve">
<style type="text/css">
	.st0{fill:#CCCCCC;}
	.st1{fill:#FFFFFF;}
</style>
<rect class="st0" width="800" height="800"/>
<g>
	<rect x="119.2" y="640.8" class="st1" width="436.4" height="81.8"/>
	<path class="st1" d="M702.3,191.6l-23.6-23.6l0,0l-89.5-89.5L561.7,106l58.2,58.3l-13,13c-8.6,8.6-8.6,22.6,0,31.1l30.4,30.4v280.5
		h-36.9v-262c0-11.6-9.4-20.9-20.9-20.9h-50.1V106.7c0-16.1-13.2-29.3-29.3-29.3H174.8c-16.1,0-29.3,13.2-29.3,29.3V602h383.9V278.2
		h29.2v262c0,11.6,9.4,20.9,20.9,20.9h78.7c11.6,0,20.9-9.4,20.9-20.9V245.9l23.1-23.1C710.9,214.2,710.9,200.2,702.3,191.6z
		 M229.9,157.9H445V295H229.9V157.9z M285.6,486.1l-0.1,0.2c-6.5,10.5-18.5,16-34.7,16c-28.2,0-45.8-18.6-45.8-48.6
		c0-28.8,17.4-48.1,43.3-48.1c16.7,0,29.6,6.3,35.4,17.3l0.4,0.8l-18,8.1l-0.4-0.5c-4-4.1-9.2-6.3-15.2-6.3
		c-13.4,0-22.1,11.2-22.1,28.5c0,17.6,9,29.5,22.3,29.5c7.3,0,14.2-2.5,16.5-6.1v-13.3H246v-17.2h39.6L285.6,486.1L285.6,486.1z
		 M365.6,502.3l-7.5-23.4h-29.9l-7.5,23.4h-22.3l31-96.6H357l31,96.6H365.6z M434,502.6c-19.2,0-32.3-9-37.7-23.9l18.5-6.9
		c4.6,7.9,12,12.3,19,12.3c9.3,0,13.5-3.5,13.5-9.2c0-5.1-3.1-8.4-11.8-11.6l-13.6-4.7c-14.4-5.1-21.7-12.2-21.7-25.9
		c0-14.9,12.3-27.4,33.4-27.4c17,0,28.3,6,33.8,18.4l-0.3,0.2l-18,6.7c-3.4-4.8-8.8-7.5-14.7-7.5c-9.3,0-13,3.7-13,8.4
		c0,3.8,3.1,6.5,10.1,8.8l15,4.9c14.2,4.6,23.4,13.1,23.4,27.5C469.9,491.6,457,502.6,434,502.6z"/>
	<polygon class="st1" points="334.2,460.1 352.1,460.1 343.1,432.2 	"/>
</g>
</svg>
