<?xml version="1.0" encoding="utf-8"?>
<!-- Generator: Adobe Illustrator 26.3.1, SVG Export Plug-In . SVG Version: 6.00 Build 0)  -->
<svg version="1.1" id="contents" xmlns="http://www.w3.org/2000/svg" xmlns:xlink="http://www.w3.org/1999/xlink" x="0px" y="0px"
	 viewBox="0 0 800 800" style="enable-background:new 0 0 800 800;" xml:space="preserve">
<style type="text/css">
	.st0{fill:#3A75B0;}
	.st1{fill:#FFFFFF;}
</style>
<rect class="st0" width="800" height="800"/>
<path class="st1" d="M729.08,316.15H496.41V152.19H303.59v163.96H70.92v331.67h658.15V316.15z M181.45,483.88h-65.31v-37.9h65.31
	V483.88z M181.45,405.98h-65.31v-37.9h65.31V405.98z M281.93,483.88h-65.31v-37.9h65.31V483.88z M281.93,405.98h-65.31v-37.9h65.31
	V405.98z M482.9,483.88h-65.31v-37.9h65.31V483.88z M482.9,405.98h-65.31v-37.9h65.31V405.98z M350.35,220.26h30.02v-30.02h39.26
	v30.02h30.02v39.26h-30.02v30.02h-39.26v-30.02h-30.02V220.26z M317.1,368.08h65.31v37.9H317.1V368.08z M317.1,445.99h65.31v37.9
	H317.1V445.99z M326.92,625.99V536.5h62.11v89.49H326.92z M410.97,536.5h62.11v89.49h-62.11V536.5z M583.38,483.88h-65.31v-37.9
	h65.31V483.88z M583.38,405.98h-65.31v-37.9h65.31V405.98z M683.86,483.88h-65.31v-37.9h65.31V483.88z M683.86,405.98h-65.31v-37.9
	h65.31V405.98z"/>
</svg>
