<?xml version="1.0" encoding="utf-8"?>
<!-- Generator: Adobe Illustrator 26.3.1, SVG Export Plug-In . SVG Version: 6.00 Build 0)  -->
<svg version="1.1" id="contents" xmlns="http://www.w3.org/2000/svg" xmlns:xlink="http://www.w3.org/1999/xlink" x="0px" y="0px"
	 viewBox="0 0 800 800" style="enable-background:new 0 0 800 800;" xml:space="preserve">
<style type="text/css">
	.st0{fill:#CCCCCC;}
	.st1{fill:#FFFFFF;}
</style>
<rect class="st0" width="800" height="800"/>
<path class="st1" d="M729.1,316.1H496.4v-164H303.6v164H70.9v331.7h658.2L729.1,316.1L729.1,316.1z M181.4,483.9h-65.3V446h65.3
	V483.9z M181.4,406h-65.3v-37.9h65.3V406z M281.9,483.9h-65.3V446h65.3V483.9z M281.9,406h-65.3v-37.9h65.3V406z M482.9,483.9h-65.3
	V446h65.3V483.9z M482.9,406h-65.3v-37.9h65.3V406z M350.4,220.3h30v-30h39.3v30h30v39.3h-30v30h-39.3v-30h-30V220.3z M317.1,368.1
	h65.3V406h-65.3V368.1z M317.1,446h65.3v37.9h-65.3V446z M326.9,626v-89.5H389V626H326.9z M411,536.5h62.1V626H411L411,536.5
	L411,536.5z M583.4,483.9h-65.3V446h65.3V483.9z M583.4,406h-65.3v-37.9h65.3V406z M683.9,483.9h-65.3V446h65.3V483.9z M683.9,406
	h-65.3v-37.9h65.3V406z"/>
</svg>
