<?xml version="1.0" encoding="utf-8"?>
<!-- Generator: Adobe Illustrator 26.3.1, SVG Export Plug-In . SVG Version: 6.00 Build 0)  -->
<svg version="1.1" id="contents" xmlns="http://www.w3.org/2000/svg" xmlns:xlink="http://www.w3.org/1999/xlink" x="0px" y="0px"
	 viewBox="0 0 800 800" style="enable-background:new 0 0 800 800;" xml:space="preserve">
<style type="text/css">
	.st0{fill:#CCCCCC;}
	.st1{fill:#FFFFFF;}
</style>
<rect class="st0" width="800" height="800"/>
<g>
	<path class="st1" d="M585.8,218.5c9,0,12.2-9.1,12.2-17.5c0-7.9-3.2-17.1-12.1-17.1c-9.1,0-12.4,9.3-12.4,17.3
		C573.5,209.1,576.7,218.5,585.8,218.5z"/>
	<path class="st1" d="M503.4,558.3V416.9h26.2v47.7c0,6.6,5.4,12,12,12h88.3c6.6,0,12-5.4,12-12V87.9c0-6.6-5.4-12-12-12h-88.3
		c-6.6,0-12,5.4-12,12v47.7h-26.2V90.3c0-7.9-6.5-14.4-14.4-14.4H124.8c-7.9,0-14.4,6.5-14.4,14.4v633.8h393V606.4h110v117.8h48.1
		V606.4h28.2v-48.1H503.4z M605.9,452.9h-40.3v-58.3h16.8V437h23.5L605.9,452.9L605.9,452.9z M606.2,377.6h-40.9v-58.3h39.5v12.9
		h-22.8v9h21.5v12.7h-21.5v10.9h24.1V377.6z M610.4,261.4h-16.2v42.2h-16.8v-42.2h-16.2v-16.1h49.2L610.4,261.4L610.4,261.4z
		 M559.8,99.5h16.8v20.2h18.3V99.5h16.8v58.3h-16.8V136h-18.3v21.9h-16.8V99.5z M586.2,171.2c20.2,0,29.2,14.7,29.2,29.4
		c0,18.9-11.5,30.6-30,30.6c-17.5,0-29.3-12-29.3-29.8C556.1,183.6,568.5,171.2,586.2,171.2z M503.4,171.7h26.2v209.1h-26.2
		L503.4,171.7L503.4,171.7z M224.2,629.5h-65.6v-65.5h65.6V629.5z M224.2,521.3h-65.6v-65.5h65.6V521.3z M224.2,413.2h-65.6v-65.6
		h65.6V413.2z M224.2,305h-65.6v-65.6h65.6V305z M224.2,196.2h-65.6v-65.6h65.6V196.2z M339.6,629.5h-65.5v-65.5h65.5V629.5z
		 M339.6,521.3h-65.5v-65.5h65.5V521.3z M339.6,413.2h-65.5v-65.6h65.5V413.2z M339.6,305h-65.5v-65.6h65.5V305z M339.6,196.2h-65.5
		v-65.6h65.5V196.2z M455,629.5h-65.5v-65.5H455V629.5z M455,521.3h-65.5v-65.5H455V521.3z M455,413.2h-65.5v-65.6H455V413.2z
		 M455,305h-65.5v-65.6H455V305z M455,196.2h-65.5v-65.6H455V196.2z"/>
</g>
</svg>
