<?xml version="1.0" encoding="utf-8"?>
<!-- Generator: Adobe Illustrator 26.3.1, SVG Export Plug-In . SVG Version: 6.00 Build 0)  -->
<svg version="1.1" id="contents" xmlns="http://www.w3.org/2000/svg" xmlns:xlink="http://www.w3.org/1999/xlink" x="0px" y="0px"
	 viewBox="0 0 800 800" style="enable-background:new 0 0 800 800;" xml:space="preserve">
<style type="text/css">
	.st0{fill:#CCCCCC;}
	.st1{fill:#FFFFFF;}
</style>
<rect class="st0" width="800" height="800"/>
<g>
	<path class="st1" d="M326.7,245.2c-1.5,0-2.9-0.6-3.9-1.6c-1.5-1.4-2.1-3.5-1.6-5.5l3.3-13.9c1.6-6.8,0.2-13.9-3.9-19.5
		c-11.6-15.7-17.7-34.4-17.7-54.1c0-12.4,2.4-24.4,7.2-35.7c4.6-10.9,11.2-20.7,19.6-29.1s18.2-15,29.1-19.6
		c11.3-4.8,23.3-7.2,35.6-7.2s24.4,2.4,35.6,7.2c10.9,4.6,20.7,11.2,29.1,19.6c8.4,8.4,15,18.2,19.6,29.1
		c4.8,11.3,7.2,23.3,7.2,35.7s-2.4,24.4-7.2,35.7c-4.6,10.9-11.2,20.7-19.6,29.1s-18.2,15-29.1,19.6c-11.3,4.8-23.3,7.2-35.6,7.2
		c-9.6,0-19-1.5-28-4.4c-2.3-0.8-4.8-1.1-7.2-1.1c-2.3,0-4.5,0.3-6.7,1l-24.3,7.2C327.8,245.1,327.3,245.2,326.7,245.2z
		 M359.3,217.4c4.5,0,8.9,0.7,13.1,2.1c7.1,2.3,14.5,3.4,22,3.4c9.8,0,19.2-1.9,28.1-5.7c8.6-3.6,16.3-8.8,23-15.5
		c6.6-6.6,11.8-14.4,15.5-22.9c3.8-8.9,5.7-18.3,5.7-28.1v-0.2c0-9.7-1.9-19.2-5.7-28.1c-3.6-8.6-8.8-16.3-15.5-22.9
		c-6.6-6.6-14.4-11.8-23-15.5c-8.9-3.8-18.3-5.7-28.1-5.7s-19.2,1.9-28.1,5.7c-8.6,3.6-16.3,8.8-23,15.5
		c-6.6,6.6-11.8,14.3-15.5,22.9c-3.8,8.9-5.7,18.3-5.7,28.1v0.2c0,15.5,4.8,30.2,13.9,42.6c5.5,7.4,8.3,16.2,8.4,25.4
		c0,0.3,0,0.6,0,0.9l0.3-0.1l0,0.4l2.3-0.7C351,218,355.2,217.4,359.3,217.4z"/>
	<g>
		<path class="st1" d="M405.7,202.5c0,1.4-1.1,2.5-2.5,2.5h-20.3c-1.4,0-2.5-1.1-2.5-2.5v-63.8c0-1.4,1.1-2.5,2.5-2.5h20.3
			c1.4,0,2.5,1.1,2.5,2.5V202.5z"/>
		<path class="st1" d="M407,111.8c0,7.7-6.2,14-14,14s-14-6.2-14-14s6.2-14,14-14S407,104.1,407,111.8z"/>
	</g>
	<path class="st1" d="M276.9,240.5c0,20.6-16.7,37.3-37.3,37.3s-37.3-16.7-37.3-37.3s16.7-37.3,37.3-37.3
		C260.2,203.3,276.9,219.9,276.9,240.5z"/>
	<path class="st1" d="M166.8,414.1l27.6-30l1.9,13.2l-5.1,16.9h96.1l-5.2-17.1l5-30.4l30.5,20.1l2.8,1.9c5.6,3.7,13.1,4,19.2,0.2
		l53.1-32.9c6.4-4,9.2-12.1,6.2-19.2c-3.3-7.9-12.4-11.7-20.4-8.4l-44.1,18.4c0,0-47.3-44.3-50.3-46.5c-13.2-10-26.8-13.2-44.6-13.2
		c-9.3,0-35.9,2.9-48.3,20.8L122,414.1L166.8,414.1L166.8,414.1z"/>
	<path class="st1" d="M639.2,203.2c0,26.5-21.5,47.9-48,47.9c-26.5,0-48-21.5-48-47.9s21.5-47.9,48-47.9
		C617.8,155.3,639.2,176.8,639.2,203.2z"/>
	<path class="st1" d="M745.3,432.2h-86.9l2.8-129.2c0-15.1-15.7-40.3-44.8-40.3h-54.7c-0.4,0-0.8,0.1-1.2,0.2
		c-9,0-17.8,4.1-23.5,11.9l-63.6,86.8l-52.9,4.5c-8.5,0.7-15.4,7.5-16,16.3c-0.7,9.7,6.6,18.1,16.3,18.8l64.9,4.5
		c5.5,0.4,11.2-1.7,15.2-6.1l2-2.2l31.1-33.8l1.5,68.6H54.7v36.4h481.4l4.2,250.8c0.2,11.4,9.3,20.9,20.8,21.5
		c12,0.6,22.3-8.8,22.8-20.8l10.9-233.6h3l4,233c0.2,11.4,9.3,20.9,20.8,21.5c12,0.6,22.3-8.8,22.8-20.8l11.7-251.4h88.1
		L745.3,432.2L745.3,432.2z"/>
</g>
</svg>
