<?xml version="1.0" encoding="utf-8"?>
<!-- Generator: Adobe Illustrator 26.3.1, SVG Export Plug-In . SVG Version: 6.00 Build 0)  -->
<svg version="1.1" id="contents" xmlns="http://www.w3.org/2000/svg" xmlns:xlink="http://www.w3.org/1999/xlink" x="0px" y="0px"
	 viewBox="0 0 800 800" style="enable-background:new 0 0 800 800;" xml:space="preserve">
<style type="text/css">
	.st0{fill:#CCCCCC;}
	.st1{fill:#FFFFFF;}
</style>
<rect x="-0.9" class="st0" width="800" height="800"/>
<g>
	<g>
		
			<ellipse transform="matrix(0.7071 -0.7071 0.7071 0.7071 -100.2544 249.617)" class="st1" cx="251.2" cy="245.8" rx="47.6" ry="47.6"/>
		<path class="st1" d="M565.3,644.5l-49.2-158.8c-3.7-11.8-14.5-19.8-26.9-19.8H306.8l-5.3-35.1h89.4c15.5,0,28.1-12.6,28.1-28.1
			c0-15.5-12.6-28.1-28.1-28.1H293l-5.7-37.9c-2.3-15.4-16.6-25.9-32-23.6s-25.9,16.6-23.6,32l23.2,153.2
			c2.1,13.8,13.9,23.9,27.8,23.9h185.9l43.1,139c3.7,12.1,14.8,19.8,26.8,19.8c2.8,0,5.6-0.4,8.3-1.3
			C561.6,675.1,569.9,659.3,565.3,644.5z"/>
	</g>
	<path class="st1" d="M485.1,390.9V66.2h119.3c30.2,0,56,10.1,74.4,29.3c18.1,18.8,27.7,44.7,27.7,74.7c0,31.9-9.5,58.5-27.5,76.8
		c-18,18.4-44.2,28.1-75.8,28.1h-50.8v115.7L485.1,390.9L485.1,390.9z M551.2,215.2h36.9c33.3,0,51-15.4,51-44.6
		c0-29.2-17.8-44.6-51.4-44.6h-36.5V215.2z"/>
	<path class="st1" d="M421,610.5c-26.4,40.4-72,67.1-123.7,67.1c-81.4,0-147.6-66.2-147.6-147.6c0-48.5,23.6-91.6,59.8-118.5
		l-9.4-60.6C136.7,385.5,93.5,452.8,93.5,530c0,112.4,91.4,203.8,203.8,203.8c77.2,0,144.6-43.2,179.2-106.7L421,610.5z"/>
</g>
</svg>
