<?xml version="1.0" encoding="utf-8"?>
<!-- Generator: Adobe Illustrator 26.3.1, SVG Export Plug-In . SVG Version: 6.00 Build 0)  -->
<svg version="1.1" id="contents" xmlns="http://www.w3.org/2000/svg" xmlns:xlink="http://www.w3.org/1999/xlink" x="0px" y="0px"
	 viewBox="0 0 800 800" style="enable-background:new 0 0 800 800;" xml:space="preserve">
<style type="text/css">
	.st0{fill:#3A75B0;}
	.st1{fill:#FFFFFF;}
</style>
<rect x="-0.89" y="0" class="st0" width="800" height="800"/>
<g>
	<g>
		
			<ellipse transform="matrix(0.7071 -0.7071 0.7071 0.7071 -100.2557 249.6163)" class="st1" cx="251.19" cy="245.83" rx="47.59" ry="47.59"/>
		<path class="st1" d="M565.32,644.52l-49.2-158.84c-3.65-11.77-14.53-19.8-26.85-19.8H306.82l-5.32-35.14h89.38
			c15.53,0,28.11-12.59,28.11-28.11c0-15.53-12.59-28.11-28.11-28.11h-97.89l-5.74-37.94c-2.32-15.35-16.65-25.91-32-23.59
			c-15.35,2.32-25.91,16.65-23.59,32l23.19,153.22c2.08,13.75,13.9,23.91,27.8,23.91h185.91l43.07,139.04
			c3.74,12.06,14.85,19.8,26.85,19.8c2.75,0,5.56-0.41,8.33-1.26C561.62,675.1,569.92,659.35,565.32,644.52z"/>
	</g>
	<path class="st1" d="M485.11,390.87V66.17h119.34c30.24,0,55.97,10.14,74.39,29.34c18.09,18.84,27.65,44.69,27.65,74.74
		c0,31.92-9.5,58.48-27.47,76.81c-18.03,18.38-44.23,28.09-75.79,28.09h-50.77v115.73H485.11z M551.23,215.22h36.93
		c33.35,0,50.98-15.41,50.98-44.58c0-29.16-17.77-44.57-51.38-44.57h-36.53V215.22z"/>
	<path class="st1" d="M420.99,610.49c-26.36,40.38-71.95,67.12-123.66,67.12c-81.38,0-147.59-66.21-147.59-147.59
		c0-48.52,23.55-91.63,59.8-118.55l-9.36-60.57C136.69,385.47,93.51,452.79,93.51,530.01c0,112.39,91.43,203.82,203.82,203.82
		c77.25,0,144.61-43.2,179.17-106.72L420.99,610.49z"/>
</g>
</svg>
