<?xml version="1.0" encoding="utf-8"?>
<!-- Generator: Adobe Illustrator 26.3.1, SVG Export Plug-In . SVG Version: 6.00 Build 0)  -->
<svg version="1.1" id="contents" xmlns="http://www.w3.org/2000/svg" xmlns:xlink="http://www.w3.org/1999/xlink" x="0px" y="0px"
	 viewBox="0 0 800 800" style="enable-background:new 0 0 800 800;" xml:space="preserve">
<style type="text/css">
	.st0{fill:#CCCCCC;}
	.st1{fill:#FFFFFF;}
</style>
<rect y="0" class="st0" width="800" height="800"/>
<g>
	<g>
		<path class="st1" d="M220.8,471.1c-8.8,0-16-7.2-16-16s7.2-16,16-16s16,7.2,16,16S229.6,471.1,220.8,471.1z"/>
	</g>
	<path class="st1" d="M334.3,538.2v-26c0-2.5,0.2-5,0.6-7.4H299V363.9H166.5v140.9h-17.3V310.5l0.6-0.2c10.8-3.2,20.8-9.3,28.9-17.5
		l0.6-0.6l0.7,0.8c0.4,0.5,0.9,1,1.3,1.5c11,11.9,26.2,18.4,42.8,18.4h11.2c16.7,0,32.6-6.7,44.6-18.8l0.6-0.6l0.6,0.6l0.5,0.6
		c11.3,11.8,26.6,18.2,43.1,18.2H344c16.5,0,31.8-6.5,43.1-18.3l1.1-1.1l0.6,0.6c12.1,12.1,27.9,18.8,44.6,18.8h11.2
		c16.6,0,31.8-6.5,42.8-18.4c0.5-0.5,0.9-1,1.3-1.5l0.7-0.8l0.6,0.6c8,8.3,18,14.3,28.9,17.5l0.6,0.2v52.9
		c9.9-2.1,20.2-3.1,30.5-3.1c0.9,0,1.9,0,2.8,0.1v-47.6l0.7-0.1c14.4-1.4,27.4-8,36.5-18.4c10.5-12.1,15.1-27.9,12.8-44.5
		L580.2,84.2H88.4L65.9,249.7c-2.3,16.6,2.3,32.4,12.8,44.5c9.1,10.5,22.1,17,36.5,18.4l0.7,0.1v225.5H334.3z M199.6,397H266v107.4
		h-66.4L199.6,397L199.6,397z M551,117.5l18.7,136.7c1,6.9-0.8,13.3-4.9,18c-4.1,4.7-10.2,7.3-17.2,7.3h-11.2
		c-15.9,0-30.4-13.4-31.7-29.2l-10.8-132.9C493.9,117.5,551,117.5,551,117.5z M303.6,117.5H365l5.3,134.8c0.3,7.3-2.3,14.2-7.2,19.3
		c-5,5.2-11.7,8-19,8h-19.4c-7.3,0-14.1-2.8-19-8c-5-5.2-7.5-12-7.2-19.3L303.6,117.5z M103.8,272.3c-4.1-4.7-5.8-11.1-4.9-18.1
		l18.7-136.7h57.1l-10.8,132.9c-1.3,15.8-15.8,29.2-31.7,29.2h-11.2C114,279.6,107.9,277,103.8,272.3z"/>
	<path class="st1" d="M407.6,465.2c3.5-11.2,8.3-21.9,14.3-32h-58.9v-66.4h102.3v19.9c10.4-7.2,21.5-13,33.1-17.3v-35.7H329.9v132.6
		h77.4L407.6,465.2z"/>
	<g>
		<path class="st1" d="M721.7,499.2H378.1c-7.1,0-13,5.8-13,13v39.4c0,7.1,5.8,13,13,13h16l20.3,136.6c1.2,8.4,8.5,14.7,17,14.7h237
			c8.5,0,15.8-6.2,17-14.7l20.3-136.6h16c7.1,0,13-5.8,13-13v-39.4C734.7,505.1,728.8,499.2,721.7,499.2z M485.4,676.2
			c0,7.1-5.8,12.9-12.9,12.9c-7.1,0-12.9-5.8-12.9-12.9V583c0-7.1,5.8-12.9,12.9-12.9c7.1,0,12.9,5.8,12.9,12.9V676.2z M562.8,676.2
			c0,7.1-5.8,12.9-12.9,12.9s-12.9-5.8-12.9-12.9V583c0-7.1,5.8-12.9,12.9-12.9s12.9,5.8,12.9,12.9V676.2z M640.1,676.2
			c0,7.1-5.8,12.9-12.9,12.9s-12.9-5.8-12.9-12.9V583c0-7.1,5.8-12.9,12.9-12.9s12.9,5.8,12.9,12.9V676.2z"/>
		<path class="st1" d="M474.7,474.3c13.2-28.3,42-48,75.2-48s62,19.7,75.2,48h37.7c-14.9-48.2-59.9-83.2-112.9-83.2
			s-98,35.1-112.9,83.2H474.7z"/>
	</g>
</g>
</svg>
