<?xml version="1.0" encoding="utf-8"?>
<!-- Generator: Adobe Illustrator 26.3.1, SVG Export Plug-In . SVG Version: 6.00 Build 0)  -->
<svg version="1.1" id="contents" xmlns="http://www.w3.org/2000/svg" xmlns:xlink="http://www.w3.org/1999/xlink" x="0px" y="0px"
	 viewBox="0 0 800 800" style="enable-background:new 0 0 800 800;" xml:space="preserve">
<style type="text/css">
	.st0{fill:#3A75B0;}
	.st1{fill:#FFFFFF;}
</style>
<rect x="0" y="0.02" class="st0" width="800" height="800"/>
<g>
	<g>
		<path class="st1" d="M220.78,471.11c-8.8,0-15.96-7.16-15.96-15.96s7.16-15.96,15.96-15.96c8.8,0,15.96,7.16,15.96,15.96
			S229.58,471.11,220.78,471.11z"/>
	</g>
	<path class="st1" d="M334.3,538.19v-25.98c0-2.5,0.22-4.96,0.63-7.35h-35.9V363.94H166.5v140.93h-17.26V310.49l0.57-0.17
		c10.84-3.2,20.82-9.26,28.88-17.52l0.61-0.62l0.69,0.81c0.42,0.5,0.85,0.99,1.29,1.47c10.99,11.89,26.18,18.44,42.77,18.44h11.17
		c16.71,0,32.57-6.69,44.64-18.83l0.58-0.58l0.56,0.6l0.53,0.58c11.3,11.76,26.59,18.23,43.06,18.23h19.42
		c16.47,0,31.76-6.48,43.09-18.27l1.06-1.14l0.58,0.58c12.07,12.14,27.93,18.83,44.64,18.83h11.17c16.59,0,31.78-6.55,42.77-18.44
		c0.45-0.49,0.88-0.99,1.3-1.48l0.68-0.8l0.61,0.62c8.05,8.26,18.04,14.32,28.88,17.52l0.57,0.17v52.91
		c9.94-2.07,20.15-3.13,30.52-3.13c0.94,0,1.87,0.04,2.8,0.06v-47.65l0.72-0.07c14.41-1.42,27.37-7.96,36.49-18.42
		c10.53-12.06,15.08-27.85,12.81-44.46L580.16,84.17H88.45L65.89,249.73c-2.27,16.61,2.29,32.4,12.81,44.46
		c9.13,10.46,22.09,17,36.5,18.42l0.72,0.07v225.51H334.3z M199.57,397.01h66.39v107.42h-66.39V397.01z M551.05,117.49l18.65,136.74
		c0.95,6.93-0.79,13.34-4.9,18.05c-4.11,4.71-10.23,7.3-17.24,7.3h-11.17c-15.89,0-30.4-13.38-31.69-29.21l-10.76-132.88H551.05z
		 M303.65,117.49h61.31l5.33,134.77c0.29,7.3-2.28,14.16-7.24,19.31c-4.96,5.16-11.72,8-19.03,8h-19.42c-7.31,0-14.07-2.84-19.04-8
		c-4.96-5.16-7.53-12.02-7.24-19.32L303.65,117.49z M103.81,272.28c-4.11-4.71-5.85-11.11-4.9-18.05l18.65-136.74h57.12
		l-10.76,132.88c-1.28,15.83-15.79,29.21-31.69,29.21h-11.17C114.04,279.58,107.92,276.99,103.81,272.28z"/>
	<path class="st1" d="M407.57,465.19c3.46-11.17,8.29-21.91,14.29-31.96h-58.93v-66.43h102.32v19.91
		c10.37-7.19,21.46-12.96,33.07-17.26v-35.72H329.85V466.3h77.38L407.57,465.19z"/>
	<g>
		<path class="st1" d="M721.7,499.24H378.08c-7.14,0-12.98,5.84-12.98,12.98v39.37c0,7.14,5.84,12.98,12.98,12.98h16l20.32,136.61
			c1.25,8.42,8.49,14.66,17,14.66h236.96c8.52,0,15.75-6.24,17-14.66l20.32-136.61h16c7.14,0,12.98-5.84,12.98-12.98v-39.37
			C734.68,505.08,728.84,499.24,721.7,499.24z M485.43,676.15c0,7.12-5.77,12.89-12.89,12.89c-7.12,0-12.89-5.77-12.89-12.89v-93.18
			c0-7.12,5.77-12.89,12.89-12.89c7.12,0,12.89,5.77,12.89,12.89V676.15z M562.78,676.15c0,7.12-5.77,12.89-12.89,12.89
			c-7.12,0-12.89-5.77-12.89-12.89v-93.18c0-7.12,5.77-12.89,12.89-12.89c7.12,0,12.89,5.77,12.89,12.89V676.15z M640.13,676.15
			c0,7.12-5.77,12.89-12.89,12.89c-7.12,0-12.89-5.77-12.89-12.89v-93.18c0-7.12,5.77-12.89,12.89-12.89
			c7.12,0,12.89,5.77,12.89,12.89V676.15z"/>
		<path class="st1" d="M474.68,474.31c13.21-28.32,41.95-48.01,75.21-48.01c33.26,0,62,19.68,75.21,48.01h37.69
			c-14.93-48.16-59.9-83.24-112.91-83.24c-53.01,0-97.97,35.08-112.91,83.24H474.68z"/>
	</g>
</g>
</svg>
