<?xml version="1.0" encoding="utf-8"?>
<!-- Generator: Adobe Illustrator 26.3.1, SVG Export Plug-In . SVG Version: 6.00 Build 0)  -->
<svg version="1.1" id="contents" xmlns="http://www.w3.org/2000/svg" xmlns:xlink="http://www.w3.org/1999/xlink" x="0px" y="0px"
	 viewBox="0 0 800 800" style="enable-background:new 0 0 800 800;" xml:space="preserve">
<style type="text/css">
	.st0{fill:#3A75B0;}
	.st1{fill:#FFFFFF;}
</style>
<rect x="0" y="1.07" class="st0" width="800" height="800"/>
<g>
	<path class="st1" d="M677.66,194.92H359.07c-22.59,0-41.08,18.48-41.08,41.08v328.24c0,22.59,18.48,41.08,41.08,41.08h9.47v34.4
		c0,9.96,8.15,18.11,18.11,18.11h39.23c9.96,0,18.11-8.15,18.11-18.11v-34.4h148.77v34.4c0,9.96,8.15,18.11,18.11,18.11h39.23
		c9.96,0,18.11-8.15,18.11-18.11v-34.4h9.47c22.59,0,41.08-18.48,41.08-41.08V236C718.74,213.41,700.25,194.92,677.66,194.92z
		 M447.98,234.75h140.77v33.8H447.98V234.75z M397.59,551c-16.67,0-30.18-13.51-30.18-30.18c0-16.67,13.51-30.18,30.18-30.18
		s30.18,13.51,30.18,30.18C427.76,537.49,414.25,551,397.59,551z M502.67,454.44H368.09V308.38h134.59V454.44z M534.06,454.44
		V308.38h134.59v146.05H534.06z M639.15,551c-16.67,0-30.18-13.51-30.18-30.18c0-16.67,13.51-30.18,30.18-30.18
		s30.18,13.51,30.18,30.18C669.32,537.49,655.81,551,639.15,551z"/>
	<path class="st1" d="M200.72,607.54c-2.15-4.55-8.03-8.27-13.06-8.27h-21.73v-94.23h53.56V297.36h-53.56v-10.61
		c34.53-5.68,60.88-35.65,60.88-71.79c0-40.19-32.58-72.77-72.77-72.77c-40.19,0-72.77,32.58-72.77,72.77
		c0,36.14,26.35,66.11,60.88,71.79v10.61H88.58v207.68h53.56v94.23h-21.73c-5.03,0-10.91,3.72-13.06,8.27L87.5,649.55
		c-2.15,4.55,0.21,8.27,5.24,8.27h122.59c5.03,0,7.39-3.72,5.24-8.27L200.72,607.54z M154.04,161.53c21.44,0,39.96,12.7,48.45,30.97
		h-96.91C114.08,174.23,132.6,161.53,154.04,161.53z M105.58,237.4h96.91c-8.5,18.27-27.01,30.97-48.45,30.97
		C132.6,268.37,114.08,255.67,105.58,237.4z M111.46,482.16V320.23h85.17v161.94H111.46z"/>
</g>
</svg>
