<?xml version="1.0" encoding="utf-8"?>
<!-- Generator: Adobe Illustrator 26.3.1, SVG Export Plug-In . SVG Version: 6.00 Build 0)  -->
<svg version="1.1" id="contents" xmlns="http://www.w3.org/2000/svg" xmlns:xlink="http://www.w3.org/1999/xlink" x="0px" y="0px"
	 viewBox="0 0 800 800" style="enable-background:new 0 0 800 800;" xml:space="preserve">
<style type="text/css">
	.st0{fill:#CCCCCC;}
	.st1{fill:#FFFFFF;}
</style>
<rect y="1.1" class="st0" width="800" height="800"/>
<g>
	<path class="st1" d="M677.7,194.9H359.1c-22.6,0-41.1,18.5-41.1,41.1v328.2c0,22.6,18.5,41.1,41.1,41.1h9.5v34.4
		c0,10,8.1,18.1,18.1,18.1h39.2c10,0,18.1-8.2,18.1-18.1v-34.4h148.8v34.4c0,10,8.2,18.1,18.1,18.1h39.2c10,0,18.1-8.2,18.1-18.1
		v-34.4h9.5c22.6,0,41.1-18.5,41.1-41.1V236C718.7,213.4,700.2,194.9,677.7,194.9z M448,234.8h140.8v33.8H448V234.8z M397.6,551
		c-16.7,0-30.2-13.5-30.2-30.2c0-16.7,13.5-30.2,30.2-30.2s30.2,13.5,30.2,30.2C427.8,537.5,414.2,551,397.6,551z M502.7,454.4
		H368.1V308.4h134.6L502.7,454.4L502.7,454.4z M534.1,454.4V308.4h134.6v146L534.1,454.4L534.1,454.4z M639.2,551
		c-16.7,0-30.2-13.5-30.2-30.2c0-16.7,13.5-30.2,30.2-30.2s30.2,13.5,30.2,30.2C669.3,537.5,655.8,551,639.2,551z"/>
	<path class="st1" d="M200.7,607.5c-2.1-4.5-8-8.3-13.1-8.3h-21.7V505h53.6V297.4h-53.6v-10.6c34.5-5.7,60.9-35.6,60.9-71.8
		c0-40.2-32.6-72.8-72.8-72.8S81.3,174.8,81.3,215c0,36.1,26.3,66.1,60.9,71.8v10.6H88.6V505h53.6v94.2h-21.7
		c-5,0-10.9,3.7-13.1,8.3l-19.9,42c-2.2,4.5,0.2,8.3,5.2,8.3h122.6c5,0,7.4-3.7,5.2-8.3L200.7,607.5z M154,161.5
		c21.4,0,40,12.7,48.4,31h-96.9C114.1,174.2,132.6,161.5,154,161.5z M105.6,237.4h96.9c-8.5,18.3-27,31-48.4,31
		S114.1,255.7,105.6,237.4z M111.5,482.2V320.2h85.2v161.9L111.5,482.2L111.5,482.2z"/>
</g>
</svg>
