<?xml version="1.0" encoding="utf-8"?>
<!-- Generator: Adobe Illustrator 26.3.1, SVG Export Plug-In . SVG Version: 6.00 Build 0)  -->
<svg version="1.1" id="contents" xmlns="http://www.w3.org/2000/svg" xmlns:xlink="http://www.w3.org/1999/xlink" x="0px" y="0px"
	 viewBox="0 0 800 800" style="enable-background:new 0 0 800 800;" xml:space="preserve">
<style type="text/css">
	.st0{fill:#3A75B0;}
	.st1{fill:#FFFFFF;}
</style>
<rect x="0" class="st0" width="800" height="800"/>
<g>
	<g>
		<path class="st1" d="M534.53,243.19c-23.53,0-43.57-8.23-57.98-23.79c-14.48-15.65-22.18-37.64-22.27-63.61
			c0.08-25.99,7.78-47.99,22.27-63.63c14.4-15.56,34.45-23.79,57.98-23.79c28.11,0,51.51,12.62,62.6,33.76l1.58,3.01l-33.53,16.81
			l-1.7-1.84c-6.58-7.13-16.66-11.73-25.68-11.73c-22.8,0-37.61,18.61-37.73,47.42c0.12,28.78,14.93,47.39,37.73,47.39
			c9.02,0,19.11-4.6,25.68-11.73l1.7-1.84l33.53,16.81l-1.58,3.01C586.04,230.57,562.63,243.19,534.53,243.19z"/>
		<polygon class="st1" points="389.25,68.24 361.83,169.62 334.41,68.24 296.04,68.24 268.62,169.62 241.21,68.24 201.29,68.24 
			248.64,243.33 288.6,243.33 315.23,144.87 341.85,243.33 381.81,243.33 429.16,68.24 		"/>
	</g>
	<g>
		<path class="st1" d="M460.34,641.71c-19.89,31-54.66,51.58-94.15,51.58c-61.63,0-111.77-50.14-111.77-111.77
			c0-46.84,28.96-87.03,69.92-103.63l0-40.67c-62.54,18.17-108.39,75.98-108.39,144.3c0,82.84,67.4,150.24,150.24,150.24
			c56.96,0,106.61-31.86,132.09-78.68L460.34,641.71z"/>
		<path class="st1" d="M423.86,356.25c0,22.11-17.92,40.03-40.03,40.03c-22.11,0-40.03-17.92-40.03-40.03
			c0-22.11,17.92-40.03,40.03-40.03C405.94,316.23,423.86,334.15,423.86,356.25z"/>
		<path class="st1" d="M578.78,632.79l-51.89-70.53c-5.09-6.92-13.18-11.01-21.77-11.01h-85.94V440.7
			c0-18.3-14.97-33.27-33.27-33.27h-4.16c-18.3,0-33.27,14.97-33.27,33.27v131.3c0,9.14,3.74,17.45,9.76,23.48
			c4.96,6.01,12.46,9.84,20.86,9.84h112.35l43.79,59.52c5.3,7.2,13.49,11.01,21.79,11.01c5.56,0,11.18-1.71,16-5.26
			C585.06,661.74,587.63,644.82,578.78,632.79z"/>
	</g>
</g>
</svg>
