<?xml version="1.0" encoding="utf-8"?>
<!-- Generator: Adobe Illustrator 26.3.1, SVG Export Plug-In . SVG Version: 6.00 Build 0)  -->
<svg version="1.1" id="contents" xmlns="http://www.w3.org/2000/svg" xmlns:xlink="http://www.w3.org/1999/xlink" x="0px" y="0px"
	 viewBox="0 0 800 800" style="enable-background:new 0 0 800 800;" xml:space="preserve">
<style type="text/css">
	.st0{fill:#CCCCCC;}
	.st1{fill:#FFFFFF;}
</style>
<rect class="st0" width="800" height="800"/>
<g>
	<g>
		<path class="st1" d="M534.5,243.2c-23.5,0-43.6-8.2-58-23.8c-14.5-15.6-22.2-37.6-22.3-63.6c0.1-26,7.8-48,22.3-63.6
			c14.4-15.6,34.5-23.8,58-23.8c28.1,0,51.5,12.6,62.6,33.8l1.6,3l-33.5,16.8l-1.7-1.8c-6.6-7.1-16.7-11.7-25.7-11.7
			c-22.8,0-37.6,18.6-37.7,47.4c0.1,28.8,14.9,47.4,37.7,47.4c9,0,19.1-4.6,25.7-11.7l1.7-1.8l33.5,16.8l-1.6,3
			C586,230.6,562.6,243.2,534.5,243.2z"/>
		<polygon class="st1" points="389.2,68.2 361.8,169.6 334.4,68.2 296,68.2 268.6,169.6 241.2,68.2 201.3,68.2 248.6,243.3 
			288.6,243.3 315.2,144.9 341.9,243.3 381.8,243.3 429.2,68.2 		"/>
	</g>
	<g>
		<path class="st1" d="M460.3,641.7c-19.9,31-54.7,51.6-94.1,51.6c-61.6,0-111.8-50.1-111.8-111.8c0-46.8,29-87,69.9-103.6v-40.7
			c-62.5,18.2-108.4,76-108.4,144.3c0,82.8,67.4,150.2,150.2,150.2c57,0,106.6-31.9,132.1-78.7L460.3,641.7z"/>
		<path class="st1" d="M423.9,356.2c0,22.1-17.9,40-40,40c-22.1,0-40-17.9-40-40s17.9-40,40-40C405.9,316.2,423.9,334.1,423.9,356.2
			z"/>
		<path class="st1" d="M578.8,632.8l-51.9-70.5c-5.1-6.9-13.2-11-21.8-11h-85.9V440.7c0-18.3-15-33.3-33.3-33.3h-4.2
			c-18.3,0-33.3,15-33.3,33.3V572c0,9.1,3.7,17.5,9.8,23.5c5,6,12.5,9.8,20.9,9.8h112.4l43.8,59.5c5.3,7.2,13.5,11,21.8,11
			c5.6,0,11.2-1.7,16-5.3C585.1,661.7,587.6,644.8,578.8,632.8z"/>
	</g>
</g>
</svg>
