<?xml version="1.0" encoding="utf-8"?>
<!-- Generator: Adobe Illustrator 26.3.1, SVG Export Plug-In . SVG Version: 6.00 Build 0)  -->
<svg version="1.1" id="contents" xmlns="http://www.w3.org/2000/svg" xmlns:xlink="http://www.w3.org/1999/xlink" x="0px" y="0px"
	 viewBox="0 0 800 800" style="enable-background:new 0 0 800 800;" xml:space="preserve">
<style type="text/css">
	.st0{fill:#3A75B0;}
	.st1{fill:#FFFFFF;}
	.st2{fill-rule:evenodd;clip-rule:evenodd;fill:#FFFFFF;}
</style>
<rect x="0" y="1.34" class="st0" width="800" height="800"/>
<g>
	<g>
		<polygon class="st1" points="288.52,589.14 316.03,589.14 316.03,574.68 288.52,574.68 288.52,556.91 320.22,556.91 
			320.22,542.07 269.35,542.07 269.35,618.24 288.52,618.24 		"/>
		<polygon class="st1" points="462.38,603.4 427.82,603.4 427.82,586.5 454.25,586.5 454.26,571.95 427.82,571.95 427.82,556.91 
			461.62,556.91 461.63,542.07 410.63,542.07 410.63,618.24 462.38,618.24 		"/>
		<polygon class="st1" points="530.65,603.4 496.09,603.4 496.09,586.5 522.53,586.5 522.53,571.95 496.09,571.95 496.09,556.91 
			529.9,556.91 529.9,542.07 478.9,542.07 478.9,618.24 530.65,618.24 		"/>
		<path class="st1" d="M374.58,618.24l-13.29-27.96h-7.66v27.96h-18.68l0-76.17h32.49c15,0,25.08,9.18,25.08,22.85
			c0,13.19-3.98,20.94-12.49,24.29l15.94,29.03H374.58z M364.28,574.35c5.63,0,9-3.21,9-8.57c0-4.76-3.49-7.71-9.1-7.71l-10.44,0
			l0,16.29H364.28z"/>
	</g>
	<g>
		<rect x="401.26" y="691.62" class="st1" width="37.69" height="15.43"/>
		<g>
			<rect x="361.76" y="690.84" class="st1" width="18.97" height="45.29"/>
			<rect x="361.76" y="662.55" class="st1" width="18.97" height="18.59"/>
		</g>
		<g>
			<rect x="526.46" y="690.84" class="st1" width="18.97" height="45.29"/>
			<rect x="526.46" y="662.55" class="st1" width="18.97" height="18.59"/>
		</g>
		<polygon class="st1" points="477.72,708.32 505.22,708.32 505.22,693.87 477.72,693.87 477.72,676.1 509.42,676.1 509.42,661.25 
			458.54,661.25 458.54,737.43 477.72,737.43 		"/>
		<polygon class="st1" points="328.27,661.25 316.29,705.36 304.31,661.25 287.54,661.25 275.56,705.36 263.59,661.25 
			246.15,661.25 266.83,737.43 284.29,737.43 295.93,694.59 307.56,737.43 325.02,737.43 345.7,661.25 		"/>
	</g>
	<g>
		<path class="st2" d="M644.64,161.22C507.43,28.46,290.12,30.06,155.36,163.85l39.35,39.8c112.45-111.48,293.9-112.24,408.7-1.21
			L644.64,161.22z"/>
		<path class="st2" d="M236.94,245.45l40.59,41.01c67.55-66.6,175.69-67.23,244.32-1.58l41.22-41.22
			C471.63,155.51,327,156.38,236.94,245.45z"/>
		<path class="st2" d="M360.54,440.96c0-21.78,17.68-39.46,39.46-39.46c21.78,0,39.46,17.68,39.46,39.46
			c0,21.78-17.68,39.46-39.46,39.46C378.22,480.42,360.54,462.74,360.54,440.96z"/>
		<path class="st2" d="M481.19,326.1c-45.82-43.03-117.37-42.51-162.38,1.53l40.85,41.3c22.36-21.39,57.24-21.91,80.26-1.55
			L481.19,326.1z"/>
	</g>
</g>
</svg>
