<?xml version="1.0" encoding="UTF-8"?><svg id="_イヤー_2" xmlns="http://www.w3.org/2000/svg" viewBox="0 0 675 150"><defs><style>.cls-1{fill:#fff;}.cls-2{opacity:.8;}</style></defs><g id="_イヤー_1-2"><g class="cls-2"><path class="cls-1" d="M674.6,4.27v1.3c.11,.37,.25,.72,.4,1.08l-.4-2.38Z"/><path class="cls-1" d="M674.75,42.35c.04-.84-.8-1.14-1.16-1.46,.34,.48,.51,1.1,.57,1.84,.16,.01,.35-.1,.59-.38Z"/><path class="cls-1" d="M673.4,102.6c-.02-.17-.04-.4-.07-.63l.07,.63Z"/><path class="cls-1" d="M382.32,.25h.21c1.25-.06,.54-.05-.21,0Z"/><path class="cls-1" d="M273.94,.88c-.04-.06-.29-.14-1.12-.26,.22,.11,.66,.19,1.12,.26Z"/><path class="cls-1" d="M354.39,1.48l-2.02-.08c.8,.06,1.45,.07,2.02,.08Z"/><path class="cls-1" d="M229.58,1.42c-.56-.03-1.06-.06-2.08,0,.14,.03,.28,.05,.46,.07,.4-.06,.9-.1,1.63-.07Z"/><path class="cls-1" d="M229.58,1.42c.26,.02,.54,.03,.89,.05-.33-.03-.62-.04-.89-.05Z"/><path class="cls-1" d="M186.39,1.47c.23,.05,.54,.08,.81,.12l1.4-.03-2.21-.09Z"/><path class="cls-1" d="M222.98,1.88s-.06,.02-.11,.05c.06-.02,.11-.03,.11-.05Z"/><path class="cls-1" d="M385.2,.49c.62,0,1.22-.02,1.76-.05-.73,.01-1.31,.03-1.76,.05Z"/><path class="cls-1" d="M351.94,1.73c-.48,.07-.97,.11-1.48,.14,.99-.07,2.44-.06,1.48-.14Z"/><path class="cls-1" d="M389.46,148.53c.3-.01,.47-.04,.85-.04-.42-.05-.83-.1-1.24-.14-.25,.07-.51,.13-.73,.19h1.12Z"/><path class="cls-1" d="M674.33,48.05c.15,3.15,.47-.04,.65,.13-.29-2-.37-2.48-.65-.13Z"/><path class="cls-1" d="M194.23,.94l1.01,.68c2.26-.12,2.74-.88-1.01-.68Z"/><path class="cls-1" d="M63,1.63c-1.43-.34-5.12-.56-7.4-.22,2.95,.05,5.89,.31,7.4,.22Z"/><polygon class="cls-1" points="139.7 149.64 144.68 149.45 142.34 149.41 139.7 149.64"/><path class="cls-1" d="M.4,145.73v-1.3c-.11-.37-.25-.72-.4-1.08l.4,2.38Z"/><path class="cls-1" d="M.25,107.65c-.04,.84,.8,1.14,1.16,1.46-.34-.48-.51-1.1-.57-1.84-.16-.01-.35,.1-.59,.38Z"/><path class="cls-1" d="M1.6,47.4l.07,.63c-.03-.23-.05-.46-.07-.63Z"/><path class="cls-1" d="M292.68,149.75h-.21c-1.25,.06-.54,.05,.21,0Z"/><path class="cls-1" d="M401.06,149.12c.04,.06,.29,.14,1.12,.26-.22-.11-.66-.19-1.12-.26Z"/><path class="cls-1" d="M320.61,148.52l2.02,.08c-.8-.06-1.45-.07-2.02-.08Z"/><path class="cls-1" d="M445.42,148.58c.56,.03,1.06,.06,2.08,0-.14-.03-.28-.05-.46-.07-.4,.06-.9,.1-1.63,.07Z"/><path class="cls-1" d="M445.42,148.58c-.26-.02-.54-.03-.89-.05,.33,.03,.62,.04,.89,.05Z"/><path class="cls-1" d="M488.61,148.53c-.23-.05-.54-.08-.81-.12l-1.4,.03,2.21,.09Z"/><path class="cls-1" d="M452.02,148.12s.06-.02,.11-.05c-.06,.02-.11,.03-.11,.05Z"/><path class="cls-1" d="M675,92.08c-.65,.76-.93-1.96-.68-5.17l-.84,4.52c-.07-.58-.12-1.1-.16-1.58,0-.67,.08-1.26,.29-1.77l.08,.49c-.07-1.43-.15-2.38-.23-3.01,.4-2.39,1.19-3.79,.58-8.85l.57,2.51c-.15-1.76-.16-4.79-.25-8,.04,.25,.07,.62,.09,1.16,.57-4.35,.22-3.05-.14-2.81-.12-3.09-.33-6.15-.82-8.23,.03-.03,.06-.08,.1-.1-.07-.15-.13-.22-.18-.25-.07-.28-.15-.54-.24-.78,.21-.72,.71-1.67,.84,.12,.05-2.03,0-4.16-.08-6.33,.05-.24,.12-.56,.2-.96-.11-.18-.19-.38-.26-.59-.06-1.19-.12-2.39-.19-3.59,.19-2.09,.64-4.4,.49-6.13-1.05-.14-.48-6.42-.78-11.58l.42,.71c-.05-.64-.16-1.22-.27-1.8,.08-.7,.16-1.88,.23-3.31,.06,0,.11-.1,.12-.43-.02-.12-.04-.28-.08-.48,.16-3.2,.32-7.24,.53-9.81l.18,.14c-.27-.24-.46-.72-.6-1.38-.05-1.15-.14-2.24-.24-3.3-.04-.4-.08-.78-.13-1.17-.04-1.28-.07-2.6-.14-3.78,.65,.19,.91,.81,1.2,2.8v-3.78c-.26-.82-.43-1.77-.55-3.55-.32,.02-.78,.04-1.32,.05,0-.11-.02-.21-.02-.32,.31-.08,.63-.16,.96-.24h-.98v-.05c-1.15,.04-2.32,.07-3.51,.11l-.81,.02c-.48,.01-.96,.03-1.44,.04h-.37l-2.74,.08c.03-.95-10.26-1.26-15.39-1.41l.18-.13c-15.22-.12-25.86,.79-39.96,1.16-8.75-1.03-29.64-.43-43.71-1.01,2.15,.17-.35,.74-2.85,.83-3.3-.19-9.12,.66-8.6-.21l1.18,.02c-2.49-.85-9.27-.63-14.57-.65l-.87,1.14c-5.74-.69-12.95-.7-19.97-.58-4.2-.14-8.13,.02-11.87,.22-4.27,.05-7.97,.01-10.58-.3l1.39-.04,1.46-.08-2.96,.11c-.48-.06-.92-.12-1.32-.2-3.34,.28-7.48,.28-10.8,.57l.18-.61c-9.26-.16-13.89-.23-25.34-.09L461.76,0c-4.01-.02-6.19,.66-8.69,1.19-2.49-.08-4.48-.18-3.43-.41-3.83,.21-2.5,.37,.04,.49-1.14-.05-2.21-.07-3.23-.09l-.59-.3c-11.27,.01-22.67-.78-33.8,.04l.03-.02c.68-.11,1.59-.21,2.27-.29-.63,.04-1.25,.07-1.87,.09,.32-.1,.86-.2,1.91-.22-3.18-.01-9.9-.23-14.37-.14-1.11-.07-2.14-.13-3.05-.15L400.73,0c-2.24,.12-4.08,.12-5.95,.12l1.85,.44c-.11,.02-.21,.03-.3,.05-1.93-.07-3.48-.09-3.44-.28-.84,.12-.82,.27-.69,.43-2.19,.01-5.11,.14-7.95,.29-.28-.19-1.3-.44,.96-.56-1.13,.01-2.38,0-3.8-.06-.33-.08,.31-.14,.91-.18-8.84-.61-4.06,.77-13.22,.75,1.16-.38-2.12-.72-3.62-.64,3.69,0,1.77,.64-1.62,.93-5.87-.3-6.38,.22-9.46,.19l1.43,.06c-2.71,.04-3.14,.21-5.12,.51-.34,0-.67,.02-1.02,.03-.11-.09,.21-.15,.66-.18-4.26,.23-9.4-.8-15.02-.4-2.94-.26-.28-.72-2.86-.89-5.95,.42-7.35-.23-12.03-.21,.3-.09,.78-.18,1.5-.29-1.24,.1-2.7,.24-4.28,.37-.12,0-.23,0-.36,.02h.05c-1.78,.16-3.72,.32-5.67,.45v-.04c-3.82-.25-7.28-.15-10.9,0-.89,0-1.75,.03-2.56,.1-1.94-.09-3.18-.16-5.05-.17-.72-.46-7.17-.25-10.29-.27,.25,.6-3.72,.51-.11,.99-.09-.03,.96-.06,2.77-.08,.47-.02,1.02-.03,1.33-.06l-.21,.05c.5,0,1.03,0,1.6,0h0c-.4,.13-1.08,.2-1.92,.23-.14-.01-.28-.02-.42-.03-.07,.02-.14,.03-.21,.05-2.37,.04-5.71-.11-8.22,.03,.34-.43-1.97-.58-3.55-.84,.1,.17-2.23,.15-4.61,.22-.67-.1-1.17-.2-1.39-.3-8.83,.31-20.56,.24-27,1.13,.48-.32-1.07-.56,3.64-.82-2.97,0-5.63-.08-5.68,.21-1.73-.27-8.22,.57-10.95,.17-.44,.07-.78,.16-1.18,.26-1.61,.07-2.93,.18-3.73,.34-.03,0-.05,0-.08,0-.22-.05-.17-.12-.09-.16-.34,.09-1.49,.15-2.28,.25-2.8-.31,4.47-.59-3.78-.47l1.27-.24c-10.2-.7-18.29,0-26.94,.48-1.45-.07-2.79-.18-3.94-.34-6.06,.13-13.27,.26-18.99,.3-.19-.01-.36-.02-.55-.04,.19,.01,.36,.03,.53,.04-.37,0-.76,0-1.12,0,.38-.13,.02-.21,1.13-.17-3.28-.16-4.72,0-5.88,.24-1.98-.03-3.96-.04-5.95-.05-.09-.01-.22-.03-.41-.04-1.28-1.4-11.13,.19-17.33-.63l1.5-.08c-4.74-.48-11.57,.53-19.32,.43,0,0,.38-.12,.05-.21-2.24,.3-5.34,.52-8.73,.68-4.05-.06-8.07-.18-12.04-.36l-.05-.02c-.09,0-.17,0-.24,0-.24-.01-.48-.02-.73-.03-5.71-.2-6.97,.16-9.86,.51-1.22-.16-2.22-.35-2.48-.6l6.29-.03c-3.22-.77-8.14,.03-11.46-.11l.42-.34c-8.11,.09-9.5,.7-15.89,.86-4.33-.32-8.97-.59-14.75-.15l-.53-.26c-2.35,.13-6.91,.42-11.64,.66-.2-.04-.27-.09-.17-.15-.21,.04-.53,.13-.98,.21-.53,.03-1.07,.05-1.6,.07-.18-.01-.37-.03-.58-.06l-.11-.28c3.84-.32,8.5-.55,11.79-.8-3.71,0-12.59,.06-14.52,.48,1.49-.08,3.37-.29,4.85-.16-1.74,.26-3.69,.46-5.84,.62l-4.47,.24c-1.21,.05-2.48,.08-3.79,.1-6.24-.31,1.83-1.31-9.74-1.37-1.75,.05-4.06,.21-6.15,.4-1.79-.01-3.6-.03-5.39-.04-.03,.95-.06,1.88-.08,2.79,0,.02,0,.04,0,.06v.27c-.03,.51-.06,1.01-.08,1.49l-.04,.68-.05,.46c-.14,1.19-.34,2.2-.64,2.87,.84,9.48-.36,18.8-.22,29.84,1.5-3.33,.49,1.33,1.26,2.38v1.91c-.18-.14-.33-.58-.4-1.49-.1,.54-.15,.98-.18,1.36-.24-.19-.48,.16-.65,1.73,.34-1.65,.57-.54,.8,.6,.04,.51,.02,1.12-.22,2.14-.11,.32-.17,.17-.21-.12l.37,3.27c-.26-.64-.87,.54-.69-1.46-.07,.55-.11,1.07-.14,1.58h0s0,.09,0,.14c-.02,.31-.03,.61-.03,.9-.19,4.17-.77,1.58-1.22,5.05,.65-.76,.93,1.96,.68,5.17l.84-4.52c.07,.58,.12,1.1,.16,1.58,0,.67-.08,1.26-.29,1.77l-.08-.49c.07,1.43,.15,2.38,.23,3.01-.4,2.39-1.19,3.79-.58,8.85l-.57-2.51c.15,1.76,.16,4.79,.25,8-.04-.25-.07-.62-.09-1.16-.57,4.35-.22,3.05,.14,2.81,.12,3.09,.33,6.15,.82,8.23-.03,.03-.06,.08-.1,.1,.07,.15,.13,.22,.18,.25,.07,.28,.15,.54,.24,.78-.21,.72-.71,1.67-.84-.12-.05,2.03,0,4.16,.08,6.33-.05,.24-.12,.56-.2,.96,.11,.18,.19,.38,.26,.59,.06,1.19,.12,2.39,.19,3.59-.19,2.09-.64,4.4-.49,6.13,1.05,.14,.48,6.42,.78,11.58l-.42-.71c.05,.64,.16,1.22,.27,1.8-.08,.7-.16,1.88-.23,3.31-.06,0-.11,.1-.12,.43,.02,.12,.04,.28,.08,.48-.16,3.2-.32,7.24-.53,9.81l-.18-.14c.27,.24,.46,.72,.6,1.38,.05,1.15,.14,2.24,.24,3.3,.04,.4,.08,.78,.13,1.17,.04,1.28,.07,2.6,.14,3.78-.65-.19-.91-.81-1.2-2.8v3.78c.26,.82,.43,1.77,.55,3.55,.32-.02,.78-.04,1.32-.05l.02,.32c-.31,.08-.63,.16-.96,.24h.98v.05c1.15-.04,2.32-.07,3.51-.11l.81-.02c.48-.01,.96-.03,1.44-.04h.37l2.74-.08c-.03,.95,10.26,1.26,15.39,1.41l-.18,.13c15.22,.12,25.86-.79,39.96-1.16,8.75,1.03,29.64,.43,43.71,1.01-2.15-.17,.35-.74,2.85-.83,3.3,.19,9.12-.66,8.6,.21l-1.18-.02c2.49,.85,9.27,.63,14.57,.65l.87-1.14c5.74,.69,12.95,.7,19.97,.58,4.2,.14,8.13-.02,11.87-.22,4.27-.05,7.97-.01,10.58,.3l-1.39,.04-1.46,.08,2.96-.11c.48,.06,.92,.12,1.32,.2,3.34-.28,7.48-.28,10.8-.57l-.18,.61c9.26,.16,13.89,.23,25.34,.09l-2.33,.44c4.01,.02,6.19-.66,8.69-1.19,2.49,.08,4.48,.18,3.43,.41,3.83-.21,2.5-.37-.04-.49,1.14,.05,2.21,.07,3.23,.09l.59,.3c11.27-.01,22.67,.78,33.8-.04l-.03,.02c-.68,.11-1.59,.21-2.27,.29,.63-.04,1.25-.07,1.87-.09-.32,.1-.86,.2-1.91,.22,3.18,.01,9.9,.23,14.37,.14,1.11,.07,2.14,.13,3.05,.15l-3.75,.21c2.24-.12,4.08-.12,5.95-.12l-1.85-.44c.11-.02,.21-.03,.3-.05,1.93,.07,3.48,.09,3.44,.28,.84-.12,.82-.27,.69-.43,2.19-.01,5.11-.14,7.95-.29,.28,.19,1.3,.44-.96,.56,1.13-.01,2.38,0,3.8,.06,.33,.08-.31,.14-.91,.18,8.84,.61,4.06-.77,13.22-.75-1.16,.38,2.12,.72,3.62,.64-3.69,0-1.77-.64,1.62-.93,5.87,.3,6.38-.22,9.46-.19l-1.43-.06c2.71-.04,3.14-.21,5.12-.51,.34,0,.67-.02,1.02-.03,.11,.09-.21,.15-.66,.18,4.26-.23,9.4,.8,15.02,.4,2.94,.26,.28,.72,2.86,.89,5.95-.42,7.35,.23,12.03,.21-.3,.09-.78,.18-1.5,.29,1.24-.1,2.7-.24,4.28-.37,.12,0,.23,0,.36-.02h-.05c1.78-.16,3.72-.32,5.67-.45v.04c3.82,.25,7.28,.15,10.9,0,.89,0,1.75-.03,2.56-.1,1.94,.09,3.18,.16,5.05,.17,.72,.46,7.17,.25,10.29,.27-.25-.6,3.72-.51,.11-.99,.09,.03-.96,.06-2.77,.08-.47,.02-1.02,.03-1.33,.06l.21-.05c-.5,0-1.03,0-1.6,0h0c.4-.13,1.08-.2,1.92-.23,.14,.01,.28,.02,.42,.03,.07-.02,.14-.03,.21-.05,2.37-.04,5.71,.11,8.22-.03-.34,.43,1.97,.58,3.55,.84-.1-.17,2.23-.15,4.61-.22,.67,.1,1.17,.2,1.39,.3,8.83-.31,20.56-.24,27-1.13-.48,.32,1.07,.56-3.64,.82,2.97,0,5.63,.08,5.68-.21,1.73,.27,8.22-.57,10.95-.17,.44-.07,.78-.16,1.18-.26,1.61-.07,2.93-.18,3.73-.34,.03,0,.05,0,.08,0,.22,.05,.17,.12,.09,.16,.34-.09,1.49-.15,2.28-.25,2.8,.31-4.47,.59,3.78,.47l-1.27,.24c10.2,.7,18.29,0,26.94-.48,1.45,.07,2.79,.18,3.94,.34,6.06-.13,13.27-.26,18.99-.3,.19,.01,.36,.02,.55,.04-.19-.01-.36-.03-.53-.04,.37,0,.76,0,1.12,0-.38,.13-.02,.21-1.13,.17,3.28,.16,4.72,0,5.88-.24,1.98,.03,3.96,.04,5.95,.05,.09,.01,.22,.03,.41,.04,1.28,1.4,11.13-.19,17.33,.63l-1.5,.08c4.74,.48,11.57-.53,19.32-.43,0,0-.38,.12-.05,.21,2.24-.3,5.34-.52,8.73-.68,4.05,.06,8.07,.18,12.04,.36l.05,.02c.09,0,.17,0,.24,0,.24,.01,.48,.02,.73,.03,5.71,.2,6.97-.16,9.86-.51,1.22,.16,2.22,.35,2.48,.6l-6.29,.03c3.22,.77,8.14-.03,11.46,.11l-.42,.34c8.11-.09,9.5-.7,15.89-.86,4.33,.32,8.97,.59,14.75,.15l.53,.26c2.35-.13,6.91-.42,11.64-.66,.2,.04,.27,.09,.17,.15,.21-.04,.53-.13,.98-.21,.53-.03,1.07-.05,1.6-.07,.18,.01,.37,.03,.58,.06l.11,.28c-3.84,.32-8.5,.55-11.79,.8,3.71,0,12.59-.06,14.52-.48-1.49,.08-3.37,.29-4.85,.16,1.74-.26,3.69-.46,5.84-.62l4.47-.24c1.21-.05,2.48-.08,3.79-.1,6.24,.31-1.83,1.31,9.74,1.37,1.75-.05,4.06-.21,6.15-.4,1.79,.01,3.6,.03,5.39,.04,.03-.95,.06-1.88,.08-2.79,0-.02,0-.04,0-.06v-.27c.03-.51,.06-1.01,.08-1.49,.01-.23,.03-.46,.04-.68,.02-.15,.03-.31,.05-.46,.14-1.19,.34-2.2,.64-2.87-.84-9.48,.36-18.8,.22-29.84-1.5,3.33-.49-1.33-1.26-2.38v-1.91c.18,.14,.33,.58,.4,1.49,.1-.54,.15-.98,.18-1.36,.24,.19,.48-.16,.65-1.73-.34,1.65-.57,.54-.8-.6-.04-.51-.02-1.12,.22-2.14,.11-.32,.17-.17,.21,.12l-.37-3.27c.26,.64,.87-.54,.69,1.46,.07-.55,.11-1.07,.14-1.58h0s0-.09,0-.14c.02-.31,.03-.61,.03-.9,.19-4.17,.77-1.58,1.22-5.05Zm-2.44,8.05c-.04,.2-.09,.34-.13,.44v-.91l.06-.41c.03,.28,.05,.57,.07,.88ZM380.75,1.25c-.17,0-.33,.02-.5,.03-.03-.01-.07-.03-.09-.04,.21,0,.4,0,.59,.01Zm-23.1,.43c-.3,.07-.66,.13-1.11,.17l1.11-.17Zm-34.58-.31c-.17-.08-.48-.16-.83-.22l4.61-.14-3.78,.36Zm-1.08,.1l-3.02,.29c3.71,0,7.82-.32,10.04-.24-.18,.02-.34,.04-.51,.06-7.14-.05-11.44,.65-16.95,.24l.06-.4c4.62,.01,8.49,.03,10.38,.05Zm-32.72-.8c2.07-.09,2.77,.03,3.05,.16-.98,.01-2.12,.03-3.63,.07-.06,.02-.18,.05-.24,.07,.2-.12,.42-.22,.82-.3ZM2.52,50.75c-.03-.28-.05-.57-.07-.88,.04-.2,.09-.34,.13-.44v.91l-.06,.41Zm291.74,98c.17,0,.33-.02,.5-.03,.03,.01,.07,.03,.09,.04-.21,0-.4,0-.59-.01Zm23.1-.43c.3-.07,.66-.13,1.11-.17l-1.11,.17Zm34.58,.31c.17,.08,.48,.16,.83,.22l-4.61,.14,3.78-.36Zm1.08-.1l3.02-.29c-3.71,0-7.82,.32-10.04,.24,.18-.02,.34-.04,.51-.06,7.14,.05,11.44-.65,16.95-.24l-.06,.4c-4.62-.01-8.49-.03-10.38-.05Zm32.72,.8c-2.07,.09-2.77-.03-3.05-.16,.98-.01,2.12-.03,3.63-.07,.06-.02,.18-.05,.24-.07-.2,.12-.42,.22-.82,.3Z"/><path class="cls-1" d="M289.8,149.51c-.62,0-1.22,.02-1.76,.05,.73-.01,1.31-.03,1.76-.05Z"/><path class="cls-1" d="M323.06,148.27c.48-.07,.97-.11,1.48-.14-.99,.07-2.44,.06-1.48,.14Z"/><path class="cls-1" d="M285.54,1.47c-.3,.01-.47,.04-.85,.04,.42,.05,.83,.1,1.24,.14,.25-.07,.51-.13,.73-.19h-1.12Z"/><path class="cls-1" d="M.67,101.95c-.15-3.15-.47,.04-.65-.13,.29,2,.37,2.48,.65,.13Z"/><path class="cls-1" d="M480.77,149.06l-1.01-.68c-2.26,.12-2.74,.88,1.01,.68Z"/><path class="cls-1" d="M612,148.37c1.43,.34,5.12,.56,7.4,.22-2.95-.05-5.89-.31-7.4-.22Z"/><polygon class="cls-1" points="535.3 .36 530.32 .55 532.66 .59 535.3 .36"/></g></g></svg>