<?xml version="1.0" encoding="UTF-8"?><svg id="_イヤー_2" xmlns="http://www.w3.org/2000/svg" viewBox="0 0 736.24 92.95"><defs><style>.cls-1{fill:#fff;}.cls-2{fill:#88c1d8;}.cls-3{fill:#95c8dc;}.cls-4{opacity:.8;}.cls-5{fill:#eda184;}</style></defs><g id="_イヤー_1-2"><g><g><g><path class="cls-1" d="M24.34,71.69c-.22,0-.44-.02-.66-.07-2.42-.55-4.9-1.14-7.36-1.76-1.61-.4-2.58-2.03-2.18-3.64,.4-1.61,2.04-2.58,3.64-2.18,2.42,.61,4.85,1.19,7.22,1.72,1.62,.36,2.63,1.97,2.27,3.59-.31,1.39-1.55,2.34-2.92,2.34Z"/><path class="cls-2" d="M24.34,72.69c-.3,0-.6-.03-.89-.1-2.44-.55-4.93-1.14-7.38-1.76-1.04-.26-1.91-.91-2.46-1.82-.55-.92-.71-1.99-.45-3.03,.54-2.14,2.71-3.44,4.85-2.91,2.4,.6,4.82,1.18,7.2,1.72,2.15,.49,3.51,2.63,3.02,4.78-.41,1.84-2.02,3.12-3.9,3.12Zm-7.29-7.74c-.9,0-1.71,.61-1.94,1.51-.13,.52-.05,1.06,.22,1.51s.71,.78,1.23,.91c2.44,.61,4.91,1.2,7.34,1.75,1.04,.24,2.15-.46,2.39-1.51,.24-1.08-.44-2.15-1.51-2.39-2.39-.54-4.83-1.12-7.25-1.73-.16-.04-.33-.06-.49-.06Z"/></g><g><path class="cls-1" d="M383.94,91.95h-.03c-4.99-.05-10.1-.2-15.2-.43-1.66-.08-2.94-1.48-2.86-3.13,.08-1.65,1.45-2.94,3.13-2.86,5.03,.23,10.07,.37,14.99,.42,1.66,.02,2.99,1.37,2.97,3.03-.02,1.65-1.36,2.97-3,2.97Zm30.22-.68c-1.59,0-2.91-1.25-2.99-2.85-.08-1.65,1.19-3.06,2.85-3.15,4.85-.24,9.91-.56,15.03-.93,1.63-.1,3.09,1.12,3.21,2.77,.12,1.65-1.12,3.09-2.77,3.21-5.16,.38-10.26,.69-15.16,.94-.05,0-.1,0-.15,0Zm-75.42-2.07c-.11,0-.21,0-.32-.02-4.87-.52-9.94-1.13-15.07-1.8-1.64-.22-2.8-1.72-2.58-3.37,.22-1.64,1.73-2.8,3.37-2.58,5.08,.67,10.1,1.27,14.93,1.79,1.65,.18,2.84,1.66,2.66,3.3-.17,1.54-1.47,2.68-2.98,2.68Zm120.63-1.62c-1.51,0-2.81-1.14-2.98-2.68-.18-1.65,1.01-3.13,2.66-3.31,4.88-.53,9.91-1.12,14.96-1.74,1.64-.21,3.14,.96,3.35,2.61,.2,1.64-.96,3.14-2.61,3.35-5.08,.63-10.14,1.22-15.05,1.75-.11,.01-.22,.02-.33,.02Zm-165.5-4.68c-.16,0-.33-.01-.5-.04-5.03-.84-10-1.69-14.91-2.55-1.63-.29-2.72-1.84-2.44-3.47,.29-1.63,1.84-2.72,3.47-2.44,4.89,.85,9.85,1.71,14.87,2.54,1.63,.27,2.74,1.82,2.47,3.45-.24,1.47-1.51,2.51-2.96,2.51Zm210.46-1.17c-1.46,0-2.74-1.07-2.96-2.56-.25-1.64,.88-3.17,2.52-3.41,4.84-.72,9.86-1.5,14.91-2.31,1.63-.27,3.17,.85,3.44,2.49,.26,1.64-.85,3.17-2.49,3.44-5.08,.81-10.12,1.59-14.98,2.32-.15,.02-.3,.03-.45,.03Zm-405-3.07c-1.6,0-2.93-1.27-3-2.88-.07-1.66,1.22-3.05,2.88-3.12,4.96-.2,9.98-.53,14.91-.99,1.65-.17,3.11,1.06,3.27,2.71,.15,1.65-1.06,3.11-2.71,3.27-5.04,.47-10.16,.81-15.23,1.02-.04,0-.08,0-.12,0Zm-30.19-.42c-.07,0-.14,0-.2,0-5.05-.34-10.16-.82-15.19-1.42-1.65-.2-2.82-1.69-2.62-3.34,.2-1.64,1.69-2.82,3.34-2.62,4.92,.59,9.93,1.06,14.88,1.39,1.65,.11,2.9,1.54,2.79,3.2-.11,1.58-1.43,2.8-2.99,2.8Zm180.07-3.08c-.17,0-.33-.01-.5-.04-5.46-.92-10.32-1.69-14.86-2.38-1.64-.25-2.77-1.77-2.52-3.41,.25-1.64,1.78-2.77,3.41-2.52,4.58,.69,9.48,1.47,14.97,2.39,1.63,.27,2.74,1.82,2.46,3.46-.25,1.47-1.52,2.5-2.96,2.5Zm299.87-.84c-1.42,0-2.69-1.02-2.95-2.47-.29-1.63,.79-3.19,2.42-3.48,5.03-.91,9.99-1.83,14.85-2.75,1.63-.31,3.2,.76,3.51,2.39,.31,1.63-.76,3.2-2.39,3.51-5.01,.95-10.02,1.88-14.9,2.76-.18,.03-.36,.05-.54,.05Zm-404.81-1.13c-1.39,0-2.64-.98-2.94-2.39-.34-1.62,.71-3.21,2.33-3.55,1.95-.4,3.55-.76,4.75-1.02l1-.22c3-.65,6.1-1.23,9.23-1.7,1.64-.24,3.17,.88,3.42,2.52,.25,1.64-.88,3.17-2.52,3.42-3,.45-5.97,1-8.85,1.63l-.99,.22c-1.22,.27-2.84,.63-4.83,1.04-.21,.04-.41,.06-.61,.06Zm60.03-3.96c-.08,0-.16,0-.23,0-5.18-.4-10.2-.65-14.91-.74-1.66-.03-2.97-1.4-2.94-3.06,.03-1.66,1.37-2.96,3.06-2.94,4.83,.09,9.96,.35,15.26,.76,1.65,.13,2.89,1.57,2.76,3.22-.12,1.57-1.44,2.77-2.99,2.77Zm389.33-3.55c-1.39,0-2.64-.98-2.93-2.39-.34-1.62,.71-3.21,2.33-3.55,5.12-1.06,10.05-2.1,14.78-3.12,1.62-.35,3.22,.68,3.56,2.3s-.68,3.22-2.3,3.56c-4.74,1.02-9.69,2.07-14.82,3.13-.21,.04-.41,.06-.61,.06Zm44.32-9.76c-1.36,0-2.59-.93-2.92-2.32-.38-1.61,.62-3.23,2.24-3.6,5.22-1.22,10.16-2.41,14.68-3.53,1.62-.4,3.24,.59,3.63,2.19,.4,1.61-.58,3.23-2.19,3.63-4.54,1.12-9.5,2.31-14.75,3.54-.23,.05-.46,.08-.69,.08Zm44.06-10.88c-1.41,0-2.66-.99-2.94-2.43-.32-1.63,.74-3.2,2.37-3.52,5.66-1.1,10.72-1.72,15.45-1.89,1.65-.06,3.04,1.24,3.1,2.89s-1.24,3.04-2.89,3.1c-4.41,.15-9.16,.74-14.51,1.78-.19,.04-.39,.06-.58,.06Z"/><path class="cls-2" d="M383.94,92.95h-.03c-5.02-.05-10.15-.2-15.25-.43-1.07-.05-2.05-.51-2.77-1.3-.72-.79-1.09-1.81-1.04-2.88,.05-1.08,.51-2.07,1.3-2.79,.79-.72,1.81-1.08,2.88-1.03,5,.23,10.04,.37,14.95,.42,2.2,.02,3.98,1.84,3.96,4.04-.02,2.18-1.82,3.96-4,3.96Zm-15.11-6.43c-.5,0-.98,.18-1.34,.51-.39,.36-.62,.85-.65,1.4-.02,.53,.16,1.05,.52,1.44,.36,.39,.85,.62,1.39,.65,5.08,.23,10.18,.38,15.17,.43l.02,1v-1c1.09,0,1.99-.89,2-1.98,.01-1.1-.88-2.01-1.98-2.02-4.94-.05-10-.19-15.03-.42-.03,0-.07,0-.1,0Zm45.32,5.75c-2.13,0-3.89-1.67-3.99-3.8-.05-1.07,.31-2.09,1.03-2.88,.72-.79,1.7-1.26,2.77-1.31,4.83-.24,9.88-.56,15-.93,2.17-.16,4.12,1.52,4.28,3.7,.16,2.2-1.5,4.12-3.7,4.28-5.2,.38-10.31,.7-15.18,.94-.06,0-.13,0-.2,0Zm15.07-6.93s-.08,0-.13,0c-5.13,.37-10.19,.69-15.04,.93-.53,.03-1.02,.26-1.38,.66-.36,.4-.54,.91-.51,1.44,.05,1.07,.93,1.9,2,1.9h.09c4.87-.25,9.96-.56,15.15-.94,1.1-.08,1.93-1.04,1.85-2.14-.08-1.04-.97-1.85-2.02-1.85Zm-90.49,4.86c-.14,0-.28,0-.42-.02-4.9-.52-9.98-1.13-15.1-1.81-2.19-.29-3.73-2.3-3.44-4.49,.29-2.18,2.3-3.74,4.49-3.44,5.07,.67,10.08,1.27,14.9,1.78,2.19,.24,3.79,2.21,3.55,4.4-.22,2.04-1.93,3.57-3.97,3.57Zm-15-7.79c-.99,0-1.85,.73-1.98,1.74-.14,1.09,.63,2.1,1.72,2.24,5.11,.67,10.17,1.28,15.05,1.8,.07,0,.14,.01,.22,.01,1.02,0,1.88-.77,1.99-1.79,.12-1.1-.68-2.08-1.78-2.2-4.83-.52-9.86-1.12-14.95-1.79-.09-.01-.17-.02-.26-.02Zm135.63,6.17c-2.04,0-3.75-1.53-3.97-3.57-.12-1.06,.19-2.11,.86-2.94,.67-.83,1.62-1.35,2.69-1.47,4.89-.53,9.92-1.12,14.95-1.74,1.06-.13,2.1,.15,2.94,.81,.85,.66,1.38,1.61,1.52,2.67,.27,2.19-1.29,4.19-3.48,4.46-5.04,.62-10.11,1.21-15.06,1.75-.15,.02-.29,.02-.44,.02Zm15.02-7.75c-.08,0-.17,0-.25,.02-5.04,.62-10.08,1.21-14.98,1.74-.53,.06-1.01,.32-1.34,.74-.33,.42-.49,.94-.43,1.47,.12,1.09,1.08,1.89,2.21,1.77,4.94-.54,10-1.13,15.03-1.75,1.09-.14,1.88-1.14,1.74-2.23-.07-.53-.34-1.01-.76-1.33-.35-.27-.78-.42-1.22-.42Zm-180.52,3.07c-.22,0-.44-.02-.66-.05-5.03-.84-10.01-1.69-14.92-2.55-2.17-.38-3.63-2.46-3.25-4.63,.38-2.17,2.46-3.63,4.63-3.25,4.89,.85,9.84,1.71,14.86,2.54,1.05,.17,1.98,.75,2.6,1.62,.62,.87,.87,1.93,.69,2.98-.32,1.94-1.98,3.34-3.94,3.34Zm-14.89-8.55c-.95,0-1.8,.69-1.97,1.66-.19,1.09,.54,2.12,1.62,2.31,4.91,.86,9.88,1.71,14.91,2.55,1.14,.2,2.12-.57,2.3-1.64,.09-.53-.04-1.06-.35-1.49s-.77-.72-1.3-.81c-5.02-.83-9.98-1.69-14.87-2.54-.11-.02-.23-.03-.34-.03Zm225.35,7.38c-1.96,0-3.66-1.47-3.95-3.41-.16-1.06,.11-2.11,.74-2.97,.64-.86,1.57-1.42,2.62-1.58,4.86-.72,9.87-1.5,14.9-2.31,1.05-.17,2.1,.08,2.97,.7,.87,.63,1.44,1.55,1.61,2.61,.17,1.05-.08,2.11-.71,2.98s-1.55,1.43-2.61,1.6c-5.02,.8-10.06,1.58-14.99,2.32-.2,.03-.4,.04-.59,.04Zm14.96-8.31c-.11,0-.21,0-.32,.03-5.04,.81-10.06,1.58-14.93,2.31-.53,.08-.99,.36-1.31,.79-.32,.43-.45,.96-.37,1.49,.16,1.07,1.17,1.85,2.27,1.68,4.92-.73,9.95-1.51,14.96-2.32,.53-.08,.99-.37,1.3-.8s.44-.96,.35-1.49c-.08-.53-.37-.99-.81-1.31-.34-.25-.75-.38-1.16-.38Zm-419.95,5.25c-2.15,0-3.91-1.69-3.99-3.84-.09-2.2,1.63-4.07,3.84-4.16,4.95-.2,9.94-.53,14.85-.99,1.05-.11,2.08,.2,2.91,.88,.83,.68,1.35,1.65,1.45,2.73,.21,2.2-1.41,4.15-3.61,4.36-5.06,.47-10.2,.82-15.29,1.02h-.16Zm15.1-7c-.07,0-.13,0-.2,.01-4.95,.46-9.99,.8-14.97,1-1.1,.04-1.96,.98-1.92,2.08,.04,1.08,.92,1.92,2,1.92h.1c5.03-.2,10.14-.54,15.16-1.01,1.1-.1,1.91-1.08,1.8-2.18-.05-.54-.31-1.03-.73-1.37-.35-.29-.79-.45-1.24-.45Zm-45.28,6.59c-.09,0-.18,0-.28,0-5.08-.34-10.21-.82-15.24-1.43-1.06-.13-2.01-.66-2.67-1.5-.66-.84-.95-1.89-.83-2.95,.13-1.06,.66-2.01,1.5-2.67,.84-.66,1.89-.95,2.95-.82,4.9,.59,9.89,1.06,14.83,1.39,1.07,.07,2.04,.55,2.74,1.36s1.05,1.83,.98,2.9c-.14,2.09-1.89,3.73-3.99,3.73Zm-15.04-7.41c-.44,0-.87,.15-1.23,.43-.42,.33-.69,.8-.75,1.33-.06,.53,.08,1.05,.41,1.47s.8,.69,1.33,.75c5,.6,10.1,1.08,15.14,1.42h.14c1.05,0,1.92-.81,1.99-1.86,.04-.53-.14-1.05-.49-1.45-.35-.4-.84-.64-1.37-.68-4.97-.34-10-.81-14.93-1.4-.08,0-.16-.01-.24-.01Zm195.11,4.33c-.22,0-.44-.02-.67-.05-5.43-.91-10.28-1.69-14.85-2.37-2.18-.33-3.69-2.37-3.36-4.55,.16-1.06,.72-1.99,1.58-2.63,.86-.63,1.92-.89,2.97-.74,4.58,.69,9.48,1.47,14.98,2.39,1.05,.18,1.97,.75,2.59,1.62,.62,.87,.86,1.93,.69,2.98-.33,1.93-1.98,3.34-3.94,3.34Zm-14.93-8.38c-.42,0-.83,.13-1.18,.39-.43,.32-.71,.78-.79,1.31-.16,1.09,.59,2.11,1.68,2.27,4.58,.69,9.44,1.46,14.88,2.38,1.11,.19,2.12-.57,2.3-1.64,.18-1.09-.55-2.12-1.64-2.3-5.49-.92-10.38-1.7-14.95-2.39-.1-.02-.2-.02-.3-.02Zm314.8,7.55c-1.93,0-3.59-1.38-3.93-3.29-.39-2.17,1.06-4.25,3.23-4.65,4.84-.87,9.83-1.8,14.84-2.74,1.05-.2,2.12,.02,3,.62,.88,.6,1.48,1.51,1.68,2.56,.41,2.17-1.02,4.26-3.18,4.67-4.96,.94-9.98,1.87-14.91,2.76-.24,.04-.48,.06-.71,.06Zm14.88-8.75c-.12,0-.25,.01-.38,.04-5.01,.95-10.01,1.87-14.85,2.75-1.08,.2-1.81,1.24-1.61,2.32,.19,1.07,1.22,1.81,2.32,1.61,4.92-.89,9.93-1.81,14.89-2.75,.53-.1,.98-.4,1.28-.84s.41-.97,.31-1.5-.4-.98-.84-1.28c-.34-.23-.72-.35-1.12-.35Zm-419.69,7.62c-1.89,0-3.53-1.34-3.91-3.19-.22-1.05-.01-2.11,.57-3.01s1.49-1.5,2.53-1.72c1.92-.4,3.48-.74,4.67-1l1.06-.23c3.03-.66,6.15-1.24,9.29-1.71,2.19-.33,4.22,1.18,4.55,3.36,.33,2.18-1.18,4.22-3.36,4.55-2.97,.45-5.92,.99-8.78,1.62l-.99,.22c-1.22,.27-2.85,.63-4.84,1.04-.27,.06-.54,.08-.81,.08Zm14.82-8.91c-.1,0-.2,0-.3,.02-3.1,.47-6.18,1.04-9.16,1.69l-1,.22c-1.26,.28-2.83,.63-4.76,1.02-1.08,.22-1.78,1.28-1.55,2.36,.22,1.06,1.3,1.77,2.36,1.55,1.98-.41,3.6-.77,4.82-1.04l.99-.22c2.91-.63,5.91-1.19,8.91-1.64,1.09-.17,1.84-1.19,1.68-2.28-.15-.99-1.01-1.7-1.98-1.7Zm45.21,4.95c-.1,0-.21,0-.31-.01-5.16-.4-10.16-.65-14.85-.74-2.21-.04-3.96-1.87-3.92-4.08,.04-2.22,1.83-3.9,4.07-3.92,4.85,.09,10,.35,15.32,.76,2.2,.17,3.85,2.1,3.68,4.3-.16,2.07-1.91,3.69-3.98,3.69Zm-15.07-6.75c-1.11,0-2,.86-2.02,1.96-.02,1.1,.86,2.02,1.96,2.04,4.73,.09,9.77,.34,14.97,.74,.05,0,.1,0,.16,0,1.04,0,1.91-.81,1.99-1.85,.09-1.1-.74-2.06-1.84-2.15-5.28-.41-10.39-.66-15.2-.75h-.02Zm404.4,3.2c-1.89,0-3.53-1.34-3.91-3.19-.22-1.05-.01-2.11,.57-3.01,.59-.89,1.49-1.5,2.53-1.72,5.11-1.06,10.04-2.1,14.77-3.12,1.05-.23,2.12-.03,3.01,.55,.9,.58,1.51,1.47,1.74,2.52,.46,2.16-.91,4.29-3.07,4.75-4.75,1.02-9.7,2.07-14.83,3.13-.27,.06-.54,.08-.81,.08Zm14.81-9.13c-.14,0-.28,.02-.43,.05-4.73,1.02-9.67,2.06-14.79,3.12-.52,.11-.97,.41-1.27,.86-.29,.45-.39,.98-.29,1.5,.22,1.06,1.29,1.77,2.36,1.55,5.13-1.06,10.08-2.11,14.82-3.13,1.08-.23,1.77-1.3,1.53-2.38-.11-.52-.42-.97-.87-1.26-.33-.21-.7-.32-1.08-.32Zm29.51-.63c-1.87,0-3.47-1.27-3.89-3.09-.5-2.15,.83-4.3,2.98-4.81,5.17-1.21,10.11-2.4,14.67-3.52,2.13-.53,4.31,.78,4.84,2.92,.53,2.14-.78,4.31-2.92,4.84-4.56,1.13-9.53,2.32-14.76,3.54-.3,.07-.61,.11-.92,.11Zm14.72-9.53c-.16,0-.32,.02-.48,.06-4.57,1.13-9.51,2.31-14.69,3.53-1.07,.25-1.74,1.33-1.49,2.4,.25,1.06,1.33,1.74,2.41,1.49,5.22-1.22,10.18-2.41,14.74-3.54,1.07-.26,1.73-1.35,1.46-2.42-.22-.91-1.04-1.52-1.94-1.52Zm29.35-1.34c-1.91,0-3.56-1.36-3.92-3.23-.21-1.05,.01-2.11,.61-3s1.5-1.49,2.55-1.69c5.71-1.12,10.82-1.74,15.61-1.91,1.07-.03,2.08,.34,2.87,1.07,.78,.73,1.23,1.72,1.27,2.79,.04,1.07-.34,2.09-1.07,2.87-.73,.78-1.72,1.23-2.79,1.27-4.36,.15-9.06,.73-14.35,1.76-.25,.05-.51,.07-.77,.07Zm14.99-7.83s-.05,0-.07,0c-4.68,.16-9.68,.77-15.29,1.87-.52,.1-.98,.4-1.28,.85-.3,.44-.41,.98-.3,1.5,.21,1.06,1.24,1.79,2.34,1.58,5.4-1.05,10.2-1.64,14.67-1.8,.53-.02,1.03-.24,1.39-.63s.55-.9,.54-1.43c-.02-.53-.25-1.03-.64-1.39-.37-.35-.85-.54-1.36-.54Z"/></g><g><path class="cls-1" d="M732.04,53.95c-.63,0-1.26-.2-1.8-.6-1.94-1.46-3.94-2.77-5.94-3.9-1.44-.81-1.95-2.64-1.14-4.09,.81-1.44,2.64-1.96,4.09-1.14,2.23,1.26,4.45,2.71,6.6,4.32,1.33,.99,1.59,2.87,.6,4.2-.59,.79-1.49,1.2-2.4,1.2Z"/><path class="cls-2" d="M732.04,54.95c-.87,0-1.7-.28-2.4-.8-1.9-1.43-3.87-2.71-5.83-3.82-.93-.52-1.6-1.38-1.89-2.41-.29-1.03-.16-2.11,.37-3.04s1.38-1.6,2.41-1.89c1.03-.29,2.11-.16,3.04,.37,2.27,1.28,4.52,2.75,6.71,4.39,.86,.64,1.41,1.58,1.56,2.63,.15,1.06-.12,2.11-.76,2.97-.76,1.02-1.93,1.6-3.2,1.6Zm-6.27-10.11c-.18,0-.36,.02-.54,.07-.52,.14-.94,.48-1.21,.94-.26,.47-.33,1.01-.18,1.52,.14,.51,.48,.94,.94,1.2,2.04,1.15,4.08,2.49,6.05,3.97,.86,.64,2.16,.46,2.8-.4,.32-.43,.46-.95,.38-1.48-.08-.53-.35-1-.78-1.32-2.11-1.59-4.3-3.02-6.49-4.25-.3-.17-.64-.26-.98-.26Z"/></g></g><g><path class="cls-1" d="M617.53,37.96c-1.07-.33-2.05-.59-2.95-.76-.31-1.75-.68-3.59-1.1-5.5-.17-.78-.61-1.42-1.27-1.85-.68-.45-1.46-.59-2.25-.42-.79,.17-1.43,.62-1.85,1.29-.43,.67-.56,1.44-.39,2.23,.3,1.35,.56,2.6,.79,3.75-.78,.02-1.57,.06-2.35,.15-.09-.83-.24-2.2-.49-4.47l-.23-1.09c-.18-.81-.65-1.49-1.36-1.96-.72-.48-1.54-.63-2.38-.45l-8.32,1.84c-.76,.17-1.37,.6-1.77,1.25-.39,.63-.5,1.35-.34,2.09,.16,.74,.57,1.35,1.19,1.75,.63,.42,1.37,.56,2.13,.39l5.4-1.19c.1,.92,.21,1.96,.31,3.11-2.66,.93-4.73,2.23-6.16,3.85-1.74,1.98-2.39,4.07-1.91,6.22,.47,2.14,1.69,3.92,3.63,5.29,1.53,1.08,3.05,1.63,4.54,1.63,.44,0,.88-.05,1.31-.14,.76-.17,1.43-.42,1.97-.76,.59-.37,1.13-.92,1.59-1.65,.44-.69,.78-1.57,.99-2.61,.19-.95,.31-2.12,.36-3.58,.04-1.11,.02-2.39-.05-3.85,.96-.1,1.91-.14,2.87-.11,.21,2.04,.09,3.12-.06,3.69-.23,.86-.8,1.7-1.7,2.51-.57,.53-.89,1.23-.92,2.02-.03,.83,.27,1.56,.81,2.05,.55,.57,1.25,.89,2.03,.93,.78,.04,1.52-.21,2.14-.76,1.6-1.47,2.68-3.05,3.21-4.69,.41-1.25,.55-2.85,.45-4.84,.15,.04,.3,.09,.46,.13,.75,.27,1.53,.21,2.24-.19,.7-.38,1.17-.98,1.37-1.7,.23-.78,.14-1.56-.26-2.25-.38-.65-.95-1.12-1.69-1.36Zm-19.42,8.89c-.03-.15-.14-.61,.66-1.46,.45-.48,1.09-.92,1.9-1.32,.07,3.43-.26,4.68-.44,5.1-.19-.06-.5-.22-.93-.57-.66-.54-1.05-1.11-1.19-1.75Z"/><path class="cls-1" d="M641.77,31.45c-1.9-.95-4.34-1.11-7.26-.47-1.32,.29-2.62,.76-3.9,1.4,.09-.68,.16-1.34,.21-1.97l11.61-2.56c.75-.17,1.36-.59,1.76-1.22,.41-.64,.54-1.37,.37-2.12-.17-.75-.59-1.36-1.23-1.77-.64-.41-1.37-.53-2.12-.37l-10.33,2.27-.02-.46c-.05-.8-.41-1.5-1.04-2.02-.64-.53-1.42-.74-2.16-.61-.8,.1-1.49,.49-1.98,1.12-.49,.62-.72,1.36-.66,2.11,.02,.33,.03,.7,.05,1.14l-3.97,.87c-.75,.17-1.36,.59-1.77,1.22-.41,.64-.54,1.37-.37,2.12,.17,.75,.59,1.36,1.22,1.77,.64,.41,1.37,.54,2.12,.37l2.55-.56c-.19,1.66-.5,3.43-.92,5.29-.15,.75-.02,1.49,.38,2.13,.42,.68,1.05,1.12,1.85,1.28,1.31,.25,2.59-.11,3.72-1.06,1.68-1.45,3.59-2.42,5.67-2.88,1.72-.38,2.64-.21,3.11,0,.36,.16,.8,.46,1.01,1.43,.2,.92-.05,1.67-.83,2.45-.92,.93-2.39,1.62-4.36,2.05-1.54,.34-3.25,.55-5.11,.64-.77,.05-1.45,.37-1.95,.95-.48,.54-.73,1.21-.73,1.94,0,.8,.32,1.5,.91,2.03,.53,.48,1.18,.73,1.87,.73,.06,0,.12,0,.17,0,2.03-.1,4.07-.37,6.05-.81,3.44-.76,6.09-2.12,7.88-4.04,1.93-2.08,2.62-4.47,2.04-7.1-.55-2.51-1.85-4.29-3.86-5.3Z"/><path class="cls-1" d="M669.99,17.76c-2.85-1.75-6.11-2.25-9.68-1.47-4.33,.94-7.63,2.99-9.81,6.08-2.21,3.14-2.88,6.76-2.01,10.78,.6,2.75,1.82,4.99,3.62,6.63,1.58,1.44,3.17,2.16,4.76,2.16,.37,0,.75-.04,1.12-.12,1.21-.26,2.24-.85,3.08-1.74,.78-.84,1.43-2.05,1.96-3.69,.51-1.57,.8-3.67,.87-6.42,.06-2.31-.05-5.08-.31-8.25,1.3,.04,2.46,.42,3.51,1.16,1.36,.95,2.2,2.27,2.59,4.03,.4,1.86,.34,3.46-.18,4.75-.51,1.25-1.41,2.2-2.75,2.89-.65,.33-1.15,.87-1.42,1.55-.3,.73-.29,1.5,.05,2.25,.34,.7,.89,1.23,1.59,1.53,.75,.32,1.54,.31,2.3-.02,2.61-1.18,4.49-3.06,5.6-5.58,1.08-2.47,1.28-5.37,.57-8.62-.76-3.48-2.6-6.14-5.47-7.9Zm-13.25,18.23c-.16-.09-.46-.3-.92-.82-.75-.83-1.27-1.94-1.57-3.28-.45-2.09-.23-3.92,.68-5.58,.65-1.19,1.57-2.15,2.79-2.92,.12,1.58,.18,3.04,.19,4.38,.02,1.84-.04,3.32-.17,4.41-.12,1.06-.29,1.95-.51,2.64-.27,.86-.46,1.12-.5,1.16h0Z"/><path class="cls-1" d="M703.42,28.81c-.65-.32-1.37-.38-2.11-.17-.64,.2-1.3,.34-1.96,.42-.65,.08-.96,.04-1.08,.02-.09-.12-.34-.48-.69-1.39-.61-1.56-1.15-2.57-1.69-3.16-.03-.04-.07-.07-.1-.1l3.2-3.23c1.01-1.03,1.45-2.33,1.28-3.76-.1-.8-.48-1.48-1.12-1.98-.64-.5-1.39-.71-2.19-.62l-.83,.1c.36-.18,.68-.45,.94-.79,.46-.61,.66-1.33,.57-2.08-.09-.76-.46-1.41-1.07-1.89-.58-.46-1.28-.67-2.1-.61-3.39,.35-6.88,.51-10.37,.45h-.05c-.75,.01-1.43,.29-1.95,.8-.55,.54-.84,1.24-.83,2.02,.01,.75,.29,1.43,.82,1.97,.54,.55,1.22,.83,1.95,.83h.05c2.68,.02,5.25-.03,7.68-.17l-10.27,1.24c-.76,.09-1.41,.45-1.88,1.05-.47,.6-.67,1.31-.57,2.07,.09,.76,.46,1.41,1.05,1.88,.59,.47,1.31,.67,2.07,.57l8.49-1.03-10.46,10.29c-.58,.55-.88,1.27-.88,2.06,0,.78,.28,1.48,.82,2.05,.55,.58,1.27,.88,2.08,.88,.79,0,1.5-.28,2.06-.82h.01c3.54-3.47,5.69-5.54,6.39-6.16,.43-.38,.7-.55,.83-.63,.11,.14,.41,.59,.89,1.8,.64,1.68,1.56,2.85,2.73,3.48,1.13,.61,2.64,.79,4.63,.55,.86-.1,1.92-.34,3.24-.73,.77-.22,1.36-.71,1.72-1.42,.34-.69,.39-1.45,.14-2.2-.25-.71-.74-1.26-1.42-1.59Z"/><path class="cls-1" d="M735.87,18.83c-.37-.65-.95-1.09-1.64-1.27l-3.95-1.06c-.24-.06-.47-.13-.7-.19l.07-.34c.17-.77,.04-1.54-.37-2.22-.41-.68-1.04-1.15-1.8-1.36-.78-.21-1.56-.1-2.25,.3-.72,.42-1.19,1.07-1.35,1.83-.01,.05-.03,.1-.04,.16-2.82-.82-5.39-1.6-7.65-2.32-.7-.23-1.43-.15-2.1,.21-.65,.35-1.11,.9-1.33,1.58-.22,.7-.16,1.41,.18,2.07,.34,.66,.89,1.12,1.58,1.35,1.9,.6,4.71,1.45,8.55,2.57,0,.02,0,.05,0,.07-3.74-1.08-6.98-2.06-9.65-2.91-.71-.23-1.44-.17-2.1,.17-.66,.34-1.13,.9-1.35,1.61-.23,.72-.17,1.46,.19,2.11,.34,.63,.9,1.09,1.6,1.31h0c.99,.31,2.04,.64,3.15,.99-.58,.04-1.12,.14-1.63,.28-2.1,.6-3.55,1.96-4.17,3.92-1.05,3.3-.26,7.88,9.49,10.99,1.86,.59,3.85,1.08,5.87,1.43,.18,.04,.37,.05,.54,.05,.56,0,1.1-.18,1.58-.53,.6-.43,.99-1.04,1.13-1.75,.15-.76,0-1.49-.47-2.12-.43-.58-1.03-.96-1.76-1.1-1.81-.32-3.56-.75-5.2-1.27-3.01-.96-4.27-1.77-4.8-2.28-.61-.59-.63-1.04-.47-1.54,.09-.28,.21-.44,.62-.53,.36-.07,1.27-.1,3.28,.54,1.58,.5,3.08,1.34,4.46,2.49,1.25,1.04,2.69,1.37,4.2,.94,.79-.24,1.43-.75,1.85-1.47,.42-.72,.54-1.53,.35-2.35-.12-.49-.23-.99-.33-1.51l2.38,.66c.71,.18,1.43,.09,2.07-.27,.65-.37,1.1-.96,1.29-1.69,.19-.73,.09-1.45-.29-2.08-.38-.63-.96-1.06-1.66-1.24-1.03-.28-2.48-.67-4.31-1.19,0-.03,0-.05,0-.08,1.05,.29,2.34,.64,3.9,1.06,.72,.18,1.43,.09,2.07-.27,.65-.37,1.1-.95,1.29-1.69,.18-.7,.08-1.4-.28-2.04Z"/></g><g><path class="cls-5" d="M601.77,53.53c-1.47,.33-3.02-.09-4.66-1.24s-2.64-2.62-3.03-4.39c-.37-1.66,.16-3.3,1.57-4.91,1.42-1.61,3.55-2.85,6.41-3.72,.13-.03,.2-.12,.2-.28-.19-2.21-.38-4.05-.56-5.52-.04-.17-.13-.24-.28-.21l-6.77,1.49c-.36,.08-.68,.02-.97-.17-.29-.19-.47-.47-.55-.83-.08-.36-.03-.69,.15-.98,.18-.3,.45-.49,.81-.56l8.33-1.84c.43-.1,.84-.02,1.22,.23,.38,.25,.62,.6,.72,1.03l.21,.93c.4,3.59,.6,5.51,.62,5.74,0,.18,.08,.25,.25,.21,1.71-.26,3.39-.35,5.05-.28,.16,0,.22-.07,.19-.22-.28-1.54-.65-3.33-1.1-5.37-.09-.4-.03-.76,.19-1.1,.21-.33,.52-.54,.92-.63,.4-.09,.76-.02,1.1,.2s.55,.53,.64,.93c.48,2.19,.89,4.27,1.23,6.23,.04,.17,.14,.27,.3,.29,1.02,.15,2.2,.43,3.54,.85,.36,.12,.64,.34,.83,.68,.19,.33,.23,.69,.12,1.07-.1,.36-.32,.63-.65,.81-.34,.18-.68,.21-1.02,.09-.91-.27-1.71-.47-2.39-.6-.06,0-.12,.01-.17,.05-.05,.04-.07,.09-.06,.15,.31,2.65,.23,4.67-.22,6.06-.45,1.4-1.39,2.75-2.8,4.05-.3,.26-.65,.39-1.05,.36-.4-.02-.74-.18-1.02-.47-.28-.26-.41-.58-.39-.97,.01-.39,.16-.71,.44-.97,1.11-1,1.82-2.07,2.13-3.22,.31-1.15,.3-2.9-.02-5.27-.04-.17-.14-.26-.29-.26-1.73-.13-3.49-.06-5.27,.21-.17,.04-.25,.12-.24,.26,.12,1.89,.16,3.52,.11,4.88-.05,1.36-.16,2.47-.33,3.33-.18,.86-.44,1.56-.78,2.1-.35,.54-.72,.94-1.12,1.18-.4,.25-.9,.44-1.51,.57Zm.46-11.51c-1.88,.63-3.26,1.42-4.15,2.37-.89,.95-1.23,1.89-1.03,2.81,.21,.96,.78,1.82,1.7,2.58,.92,.76,1.72,1.06,2.4,.91,1.19-.26,1.64-3.1,1.35-8.53,0-.06-.02-.1-.09-.13-.06-.03-.12-.03-.18-.02Z"/><path class="cls-5" d="M622.4,30.86c-.36,.08-.69,.02-.99-.17-.3-.19-.49-.47-.57-.83-.08-.36-.02-.69,.17-.99,.19-.3,.47-.49,.83-.57l4.93-1.08c.17-.04,.25-.12,.24-.26-.02-.89-.04-1.62-.07-2.21-.03-.41,.08-.78,.34-1.1,.25-.32,.58-.51,.99-.56,.38-.06,.72,.03,1.03,.28,.3,.25,.47,.57,.49,.96l.07,1.94c0,.18,.08,.25,.25,.21l11.84-2.61c.36-.08,.69-.02,.99,.17,.3,.19,.49,.47,.57,.83,.08,.36,.02,.69-.17,.99-.19,.3-.47,.49-.83,.57l-12.46,2.74c-.17,.04-.26,.14-.26,.3-.1,1.72-.35,3.67-.76,5.84v.06h.07c2-1.46,4.04-2.42,6.14-2.88,2.59-.57,4.67-.45,6.27,.34,1.59,.8,2.61,2.23,3.07,4.28,.47,2.13-.09,4.05-1.67,5.76-1.58,1.7-3.95,2.9-7.11,3.6-1.91,.42-3.84,.68-5.8,.77-.37,.02-.69-.09-.96-.34-.27-.25-.41-.56-.41-.93,0-.36,.12-.67,.36-.94,.24-.27,.54-.42,.91-.44,1.94-.09,3.72-.31,5.34-.67,2.27-.5,3.97-1.32,5.1-2.46s1.55-2.42,1.23-3.84c-.54-2.45-2.51-3.31-5.91-2.56-2.34,.52-4.45,1.58-6.33,3.21-.77,.64-1.59,.88-2.46,.72-.37-.08-.66-.27-.86-.6-.2-.32-.26-.67-.19-1.04,.6-2.59,.97-5,1.11-7.25,0-.16-.07-.22-.22-.19l-4.3,.95Z"/><path class="cls-5" d="M658.07,40.39c-1.46,.32-2.97-.24-4.55-1.68s-2.63-3.38-3.17-5.84c-.78-3.61-.19-6.81,1.77-9.6,1.97-2.79,4.93-4.62,8.9-5.48,3.19-.69,6.05-.26,8.57,1.28,2.52,1.55,4.12,3.86,4.79,6.94,.64,2.95,.48,5.51-.48,7.7-.96,2.19-2.57,3.79-4.84,4.82-.36,.16-.73,.16-1.1,0-.37-.16-.65-.42-.83-.8-.15-.34-.16-.69-.02-1.04,.14-.35,.38-.61,.72-.78,1.66-.85,2.8-2.07,3.45-3.66,.64-1.58,.73-3.46,.26-5.64-.46-2.13-1.53-3.78-3.2-4.94-1.67-1.16-3.58-1.62-5.74-1.36-.16,0-.24,.09-.23,.29,.34,3.67,.48,6.79,.42,9.36-.06,2.58-.33,4.57-.79,5.99-.46,1.42-1.01,2.46-1.63,3.13-.63,.67-1.39,1.1-2.3,1.3Zm1.15-19.18c-2.38,.97-4.11,2.45-5.2,4.42-1.08,1.98-1.36,4.18-.83,6.62,.35,1.61,.99,2.93,1.91,3.96,.93,1.04,1.71,1.48,2.35,1.34,.3-.07,.59-.26,.85-.59s.52-.88,.77-1.67c.25-.78,.43-1.76,.57-2.91s.19-2.69,.17-4.59c-.02-1.9-.14-4.05-.36-6.44-.01-.06-.04-.1-.09-.14-.05-.04-.1-.04-.15-.01Z"/><path class="cls-5" d="M683.62,34.66c-.28,.27-.62,.4-1.02,.4-.4,0-.73-.14-1-.42-.27-.28-.4-.61-.4-1,0-.39,.14-.72,.42-.99l13.55-13.32v-.03s-.02-.03-.04-.03l-12.75,1.54c-.37,.04-.69-.04-.97-.26-.28-.22-.44-.51-.49-.88-.04-.36,.04-.69,.26-.97,.22-.28,.51-.44,.88-.49l15.46-1.87c.4-.05,.77,.05,1.09,.31,.32,.25,.51,.58,.56,.98,.12,.98-.17,1.82-.86,2.53l-4.74,4.78-.03,.03s.04,.02,.06,.02h.09c.58-.08,1.07,.11,1.47,.56s.87,1.35,1.41,2.71c.45,1.15,.87,1.86,1.26,2.11,.39,.25,1.09,.32,2.08,.2,.75-.09,1.49-.25,2.22-.47,.36-.1,.7-.07,1.02,.08,.32,.16,.54,.4,.66,.74,.12,.36,.1,.7-.07,1.03-.16,.33-.43,.55-.78,.65-1.24,.36-2.25,.59-3.01,.69-1.65,.2-2.9,.07-3.74-.38-.84-.45-1.52-1.35-2.03-2.69-.45-1.13-.85-1.9-1.2-2.29-.35-.4-.75-.57-1.19-.51-.42,.05-1,.4-1.73,1.04-.73,.64-2.88,2.71-6.45,6.2Zm.86-23.12c3.57,.06,7.09-.1,10.55-.46,.39-.03,.72,.07,1.01,.3,.29,.23,.46,.52,.5,.89,.04,.36-.05,.7-.27,1-.23,.3-.52,.46-.89,.49-3.35,.31-6.98,.44-10.88,.41-.37,0-.68-.12-.94-.38-.25-.26-.39-.58-.39-.95s.12-.68,.37-.92c.25-.24,.56-.37,.93-.38Z"/><path class="cls-5" d="M712.61,21.1c-.33-.11-.58-.31-.74-.6s-.19-.61-.08-.94c.11-.33,.31-.58,.61-.73,.3-.16,.62-.18,.95-.08,3.08,.98,6.85,2.11,11.31,3.39,.15,.05,.22,0,.23-.14,.02-.91,.07-1.8,.13-2.7,0-.16-.06-.26-.21-.31-4.27-1.24-7.42-2.18-9.45-2.83-.31-.1-.55-.3-.71-.6-.16-.3-.19-.61-.09-.92s.3-.55,.61-.72,.62-.2,.93-.1c2.62,.83,5.62,1.74,9.02,2.72,.17,.05,.26-.02,.28-.21,.11-.61,.21-1.08,.29-1.4,.09-.4,.3-.7,.65-.9,.35-.2,.72-.25,1.11-.15s.7,.33,.91,.68c.21,.35,.28,.73,.19,1.13l-.28,1.46c-.02,.18,.04,.29,.17,.33,.58,.16,1.18,.33,1.82,.5,.63,.17,1.34,.36,2.13,.57,.79,.21,1.39,.37,1.82,.49,.32,.08,.56,.27,.73,.57,.17,.3,.21,.61,.13,.92-.09,.34-.28,.59-.58,.76-.3,.17-.62,.21-.95,.12-2.39-.64-4.19-1.13-5.38-1.47-.18-.06-.28,0-.29,.15-.1,1-.13,1.91-.1,2.71,.01,.15,.1,.25,.27,.3,2.25,.64,3.97,1.11,5.15,1.43,.34,.09,.59,.27,.76,.56,.17,.29,.21,.6,.13,.94-.09,.34-.28,.59-.58,.76-.3,.17-.62,.21-.95,.12l-4.36-1.21c-.17-.05-.24,0-.21,.18,.18,1.29,.4,2.52,.68,3.69,.1,.44,.04,.86-.19,1.25-.23,.39-.55,.66-.98,.78-1,.29-1.94,.07-2.81-.65-1.54-1.28-3.19-2.2-4.96-2.77-1.79-.57-3.13-.76-4.03-.58-.9,.18-1.48,.69-1.75,1.54-.36,1.14-.08,2.17,.86,3.07,.94,.91,2.73,1.78,5.39,2.63,1.71,.55,3.51,.99,5.39,1.32,.34,.07,.62,.24,.82,.52,.21,.28,.27,.59,.21,.93s-.25,.62-.54,.83c-.29,.21-.61,.28-.95,.21-2-.35-3.9-.82-5.71-1.39-6.91-2.2-9.75-5.23-8.51-9.1,.48-1.49,1.53-2.47,3.16-2.94,1.63-.47,3.77-.28,6.42,.57,1.71,.55,3.33,1.4,4.84,2.58l.05,.02s.04-.03,.05-.05c-.19-1.18-.33-2.27-.42-3.27,0-.17-.1-.28-.29-.34-4.78-1.38-8.82-2.6-12.14-3.65Z"/></g><g><path class="cls-1" d="M99.28,39.02c.02-1.24,.17-10.24-.31-15.85-.27-3.13-2.5-5.79-5.56-6.61C81.03,13.24,38.3,1.62,37.86,1.5c-3.7-1-7.64,.6-9.6,3.89l-6.24,10.47c-.79,1.33-2.19,2.16-3.74,2.23l-3.92,.16c-5.92,.25-11.08,4-13.14,9.55l-.7,1.88c-.83,2.25-.68,4.77,.42,6.9,1.1,2.14,3.06,3.72,5.38,4.35l1.42,.38c.73,5.61,4.81,10.38,10.34,11.88,5.54,1.5,11.46-.56,14.92-5.04l27.25,7.38c.73,5.61,4.81,10.38,10.34,11.88,1.21,.33,2.44,.48,3.65,.48,4.37,0,8.59-2.04,11.3-5.56,1.95,.33,3.93-.03,5.67-1.02,1.99-1.14,3.41-2.98,4.01-5.19l3.79-14.01c.27-1.01,.36-2.05,.25-3.09Z"/><g><path class="cls-3" d="M96.98,23.34c-.2-2.32-1.84-4.25-4.08-4.85-12.53-3.36-55.55-15.06-55.55-15.06-2.84-.77-5.85,.45-7.36,2.98l-6.24,10.47c-1.14,1.91-3.16,3.11-5.37,3.2l-3.92,.16c-5.1,.21-9.57,3.47-11.35,8.25l-.7,1.88c-1.34,3.62,.71,7.62,4.44,8.63l78.39,21.22c3.5,.95,7.11-1.12,8.06-4.63l3.79-14.01c.22-.81,.28-1.65,.18-2.48,0,0,.2-9.9-.3-15.77Z"/><g><path class="cls-1" d="M47.27,26.61l-18.76-5.08,5.91-11.26c.97-1.85,3.09-2.77,5.1-2.23l11.9,3.22-4.15,15.35Z"/><rect class="cls-1" x="52.42" y="14.44" width="19.44" height="15.9" transform="translate(8.01 -15.46) rotate(15.15)"/><path class="cls-1" d="M72.85,33.53l18.76,5.08,.58-12.71c.1-2.08-1.27-3.95-3.28-4.5l-11.9-3.22-4.15,15.35Z"/></g><circle class="cls-1" cx="22.23" cy="38.67" r="8.38"/><circle class="cls-1" cx="74.2" cy="54.39" r="8.38"/><g><path class="cls-3" d="M71.13,65.48c-6.48-1.75-10.32-8.45-8.57-14.93,1.75-6.48,8.45-10.32,14.93-8.57s10.32,8.45,8.57,14.93-8.45,10.32-14.93,8.57Zm4.9-18.1c-3.5-.95-7.13,1.13-8.08,4.64s1.13,7.13,4.64,8.08,7.13-1.13,8.08-4.64-1.13-7.13-4.64-8.08Z"/><path class="cls-3" d="M18.61,51.26c-6.48-1.75-10.32-8.45-8.57-14.93,1.75-6.48,8.45-10.32,14.93-8.57,6.48,1.75,10.32,8.45,8.57,14.93s-8.45,10.32-14.93,8.57Zm4.9-18.1c-3.5-.95-7.13,1.13-8.08,4.64s1.13,7.13,4.64,8.08,7.13-1.13,8.08-4.64-1.13-7.13-4.64-8.08Z"/></g></g></g><g><g><path class="cls-3" d="M111.02,52.83l.04,.02s-.03-.05-.04-.02Z"/><path class="cls-3" d="M115.24,54.51c-.07,.08,0,.1,.02,.15l-.02-.15Z"/><path class="cls-3" d="M116.71,55.63l.02,.02,.12-.07-.14,.04Z"/><polygon class="cls-3" points="117.8 60.33 117.81 60.35 117.97 60.36 117.8 60.33"/><path class="cls-3" d="M109.66,52.62h0s.01-.02,0,0Z"/><path class="cls-3" d="M103.74,61.95c.21-.18,.37,.14,.59-.11-.1,.04-.47-.09-.59,.11Z"/><path class="cls-3" d="M106.24,55s-.07-.02-.07,.04l.03,.02s-.01-.06,.04-.05Z"/><path class="cls-3" d="M105.46,55.86l.06,.02v-.04l-.06,.02Z"/><path class="cls-3" d="M113.03,67.35s-.02,.01-.04,0c.02,.01,.03,.01,.04,0Z"/><path class="cls-3" d="M118.15,60.34s-.1,.12-.26,.12l-.08-.1h-.09v-.02c0-.39-.04-.78-.11-1.15h.08l-.08-.02s-.01-.09-.02-.14c.05,0,.11-.01,.14,0,.18-.15-.17-.06,.03-.21,.03-.02,.05-.02,.07-.01l-.15-.08c.09,0,.28-.09,.24,0,.18-.26-.38-.23-.1-.39h.03c-.16-.16-.25-.04-.45,0-.01-.04-.03-.08-.04-.12l.46-.26-.3,.08s0-.09,.12-.12c-.23-.03-.12,.06-.32,.08,.22-.23-.25-.29,.17-.51-.23,.05-.11,.19-.32,.13,.46-.26-.15-.11,.01-.33,.26-.09,.18,.09,.34-.14-.44,.14-.02-.27-.16-.33-.1,.05-.15,.06-.2,.04,.11-.04,.16-.05,.2-.04,.05-.03,.1-.06,.17-.11,0-.03-.25,.1-.36,.15-.1-.04-.12-.19-.25-.25,.12-.06-.03-.39-.03-.61l.05-.03c-.31,.2-.35,.01-.5-.03,.17-.14,.25-.18,.38-.19l-.08-.09c-.11,.05-.18,.07-.27,.04l.23-.16c-.13-.11-.45-.03-.47-.3-.13,.12-.26,.35-.42,.49-.02-.02-.05-.04-.07-.07,.06-.06,.12-.11,.17-.11-.03,0-.13,.04-.11-.03l.22-.11c0-.14-.17,.11-.21,.04,.14-.14,.06-.14,.17-.25,.03,0,0,.1,.07,.07-.04-.08-.03-.24,.04-.37-.07,.09-.18,.2-.24,.18-.13-.1,.11-.22,.11-.36-.12,.08-.11-.1-.3,.13-.04-.03,.04-.14,.08-.22-.15,.05-.34-.21-.45,.1v.03h-.01c-.37,.08-.37-.44-.67-.48l.05-.09c-.19,.02-.35-.1-.54,.04-.04-.02-.02-.21,.04-.31-.14,.02-.19,.1-.3-.11,.18-.12,.02-.16,.17-.07-.12-.13-.1-.3-.36-.1,.14-.22-.01-.34-.11-.3l.05,.21c-.09,0-.16-.04-.23-.09l.14-.3c-.24-.49-.77,.5-.88-.21-.13,.21,.15,.19,.02,.44-.14-.07-.22-.56-.28-.57-.2-.21-.27,.45-.47,.3,.02,.12,0,.44-.15,.54-.14-.05-.15-.51-.05-.6,.04,0,.05,.03,.05,.07,.05-.04,.12-.09,.07-.22l-.03,.12c-.07-.13-.29-.12-.23-.32-.13,.11-.06,.19,.03,.26-.2-.18-.32-.03-.53-.13,.04,.06,.07,.2,.03,.2-.31-.13-.13,.23-.32,.29-.13-.17,.01-.43-.18-.27-.14-.11-.06-.31-.01-.41-.17,.23-.38-.1-.51-.13l.09-.11c-.06,.07-.11,.07-.16,.08l.1,.23c-.07-.03-.12-.02-.13-.12-.04,.16,.11,.38,.03,.61-.1-.11-.21,.16-.3-.14,.27,.06-.09-.31,.11-.39-.04,.04-.09,.05-.16,.02-.02-.03,0-.07,0-.09-.31-.22-.04,.38-.28,.43-.01-.18-.14-.31-.17-.26,.1-.02,.12,.27,.07,.43-.19-.09-.14,.14-.22,.15l.11,.04c.02,.18-.06,.17-.14,.26-.05-.13,.06-.12,0-.17,0,.34-.36-.21-.45,.04-.12-.08-.13-.31-.23-.36-.1,.28-.29-.14-.41,.12,.16,.19,.14,.13,.11,.41l.23-.3-.05,.41c.09-.04,.12-.23,.2-.21-.02,.22-.03,.16,.09,.32-.26-.27-.14,.3-.38,.14l-.26-.53c-.35-.13-.24,.46-.57,.49l.14,.04c.09,.22-.14,.12-.17,.26-.1-.17-.19-.2-.3-.28,.09,.12-.19,.13,.02,.46l-.26-.13c-.27,.07,.12,.6-.08,.7-.09-.21-.26-.24-.24-.47-.06,.05-.14,.07-.05,.18-.12-.06,.02,.34-.16,.25,.04,.09,.17,.24,.1,.29-.03-.02-.07-.07-.07-.07,.07,.07,0,.19,.21,.29-.6-.25-.4,.48-.92,.32-.05,.18-.12,.37-.19,.51-.04-.04-.08-.06-.05-.07-.27,.08,.41,.42,.12,.5-.34-.06-.08-.2-.22-.19-.57-.3-.08,.29-.48,.25l-.02-.05c-.25,.02,.08,.39-.04,.55,0,0-.05-.03-.09-.04,.23,.26,.26,.54,.28,.74-.22-.14-.1-.13-.35-.18,0,.09,.4,.12,.41,.3-.15,0-.31,.08-.57,.02,0-.06,.03-.11,.04-.16-.37-.03-.06,.21-.14,.28l-.15-.05c-.02,.27,.36,.37,.27,.61h.12c.35,.21-.24,.07,.02,.27l-.4-.02c.08,.12,.32,.39,.38,.56-.29-.12-.4-.34-.55-.5-.02,.1-.02,.34,.17,.41-.03-.04-.12-.1-.05-.13,.28,.16,.44,.31,.42,.49-.76-.07-.22,.48-.79,.63,.29,.34-.07,.72,.05,1.14,.56-.25,.04,.12,.63-.03,.05,.08,.05,.11,.02,.13h0l-.28,.36c-.15,.11-.15-.06-.28-.01,0,.22-.23,.15-.35,.34,.2-.09,.32-.01,.27,.14l.23-.25c.38,.19-.41,.41,0,.6l-.22-.03c.16,.11,.21,.57,.73,.5-.05,.05-.19,.16-.26,.11,.09,.4,.84,.48,.73,.87l-.14,.06c.07,.04,.29-.05,.22,.1-.05,.03-.14,.06-.13,.09,.07,0,.32,0,.31,.12l-.18,.04c.06,.42,.66,.19,.93,.33-.33,.29-.24,.61-.18,.76l-.05,.04c.29,.34,.79,.23,1.2,.3-.09,.54,.56,.62,.79,1.03-.02-.1,.17-.3,.25-.31,.04,.12,.35-.17,.17,.19l-.03-.02c-.1,.39,.12,.38,.25,.44l.22-.48c.03,.42,.3,.45,.55,.44,.25-.02,.46-.06,.48,.3,.12-.1,.23-.08,.34-.2l-.06,.28c.25,.11,.37,.18,.7,.14l-.09,.2c.19,.03,.29-.8,.45-.81l.03,.42c.3,.02,.65,.36,.93-.04,0,.06,0,.18-.05,.2,.15,.02,.62,.22,.48-.35,.06,.37,.33,0,.45-.2l.03,.28c.06-.38,.04-.48,.2-.62,.04,.02,.07,.12,.05,.15,.11,.01,.03-.27,.22-.19l-.02,.19c.16-.02,.12-.1,.13-.33,.05-.14,.29-.03,.4,.2-.03-.15-.03-.37,.08-.33,.05,.08,.04,.15,.03,.18,.32,.09,.21-.45,.49-.27,.04,.08,.07,.12,.1,.14-.19,.08-.35,.14-.34,.12,.1,.24,.28,.2,.29,.59,.06-.24,.08-.72,.28-.68,.02,.02,.04,.04,.06,.07v.03s.07-.03,.07-.08c.07,0,.11,.02,.16,0,.12,.17,.23,0,.31-.04-.15-.24-.04-.25-.25-.4,.02,.01,0,.04-.04,.08,0,.01-.02,.02-.02,.04v-.02c-.05,.04-.11,.08-.18,.12-.01-.16-.02-.3,.14-.21l-.14-.44c.3,.28,.6,.34,.77,.51,.12-.29,.45-.45,.21-.96,0-.1,.16,.06,.23,.1,0,.07-.04,.09,0,.17,.02-.2,.28-.33,.05-.61,.24,0,.17,.31,.3,.1l.06,.1c.38,.02,.35-.3,.32-.58-.04-.3-.09-.56,.38-.56-.06,0-.09,0-.14-.02,.63-.34,.36-1.17,1.03-1.53,.16-.13-.06-.22-.19-.37l.3,.06-.29-.27c-.2-.29,.85-.24,.42-.66h-.21c.06-.1-.07-.36,.16-.31-.04-.02-.2-.06-.09-.09l.16,.02c-.07-.1-.16-.2-.24-.3,.12-.2,.62,.08,.67-.24-.05-.13-.44-.35-.55-.3Zm-3.07,6.54v-.03s.03,.1,.04,.13c-.03,.06-.07,.03-.11-.02,.02-.02,.04-.04,.07-.08Zm2.51-8.05s-.03,.01-.04,.02v-.04s.03,.01,.04,.03Z"/><path class="cls-3" d="M115.02,66.6s0-.02,0-.03l-.06-.04,.03,.09,.02-.02Z"/><path class="cls-3" d="M115.27,54.72s0,.02-.01,.04v-.03h.01Z"/><path class="cls-3" d="M117.65,57.59v.22c.09-.07,.2-.17,.26-.09,.21-.37-.21,.14-.26-.13Z"/><path class="cls-3" d="M117.71,56.85c-.12-.02-.15-.02-.2,.1,.09,.08,.14-.08,.2-.1Z"/><path class="cls-3" d="M114.14,53.81l.12-.23c-.1,0-.04,.09-.12,.23Z"/><polygon class="cls-3" points="112.94 52.85 112.77 52.9 112.9 52.88 112.94 52.85"/><path class="cls-3" d="M105.39,55.54l.26,.18c0-.08-.27-.32-.26-.18Z"/><path class="cls-3" d="M104.16,58.82c-.17,0-.28,.08-.14,.17,.03-.07,.17-.13,.14-.17Z"/><polygon class="cls-3" points="108.44 67.66 108.61 67.63 108.55 67.59 108.44 67.66"/><path class="cls-3" d="M132.43,43.22s.07-.04,.07-.07c-.04,.02-.08,.04-.07,.07Z"/><path class="cls-3" d="M131.42,42.84l.06,.02s-.05-.05-.06-.02Z"/><path class="cls-3" d="M137.73,45.13c-.07,.08,.02,.11,.06,.18l-.06-.18Z"/><path class="cls-3" d="M139.87,46.85l.03,.04s.08-.03,.13-.06l-.16,.02Z"/><polygon class="cls-3" points="141.8 53.83 141.81 53.86 141.97 53.87 141.8 53.83"/><path class="cls-3" d="M129.47,42.69h0s.02-.03,0,0Z"/><path class="cls-3" d="M120.82,56.19c.2-.24,.39,.24,.59-.1-.1,.05-.49-.17-.59,.1Z"/><path class="cls-3" d="M124.36,45.95s-.08,0-.1,.06c.01,0,.02,.01,.04,.01-.01-.04,0-.07,.06-.07Z"/><path class="cls-3" d="M123.2,47.22h.06l.02-.04-.08,.04Z"/><path class="cls-3" d="M142.15,53.84c-.01,.07-.11,.18-.27,.18l-.07-.15s-.06,0-.09,0v-.02c0-.61-.06-1.2-.16-1.77h.08l-.08-.03c-.01-.07-.02-.15-.04-.22,.06,0,.11,0,.14,.04,.17-.21-.18-.11,.01-.31,.03-.02,.05-.02,.07-.01l-.16-.13c.09,.01,.28-.1,.25,.02,.16-.36-.42-.39-.15-.59l.03,.02c-.19-.27-.27-.11-.47-.09-.02-.06-.05-.12-.07-.18l.44-.3-.3,.07s-.01-.13,.11-.16c-.25-.08-.11,.07-.33,.06,.2-.3-.33-.47,.09-.71-.24,.03-.08,.25-.32,.12,.45-.28-.19-.19-.06-.46,.27-.07,.22,.16,.35-.12-.45,.1-.08-.39-.25-.49-.1,.05-.16,.04-.21,.01,.11-.04,.17-.04,.21-.01,.05-.03,.1-.06,.16-.12-.01-.04-.26,.08-.38,.13-.12-.07-.17-.29-.34-.41,.12-.06-.13-.53-.18-.82l.05-.03c-.33,.19-.41-.07-.6-.16,.17-.14,.26-.17,.41-.15l-.12-.14c-.12,.04-.2,.04-.31-.02l.24-.15c-.18-.17-.56-.15-.65-.49-.13,.12-.24,.38-.4,.51-.04-.04-.07-.07-.11-.1,.06-.06,.13-.1,.18-.1-.03,0-.15,.02-.15-.06l.26-.08c-.03-.17-.19,.09-.25,0,.14-.14,.04-.16,.15-.26,.03,0,.02,.13,.1,.1-.07-.11-.1-.3-.04-.45-.07,.09-.18,.2-.26,.16-.19-.15,.09-.23,.05-.41-.13,.06-.17-.14-.35,.09-.06-.04,.02-.16,.05-.24-.18,.03-.5-.32-.57,.01v.04h-.01c-.47-.01-.61-.59-1.02-.71l.05-.09c-.26-.02-.51-.18-.75-.07-.06-.03-.07-.24,0-.33-.2,0-.25,.07-.44-.17,.24-.1,0-.16,.23-.05-.19-.16-.19-.33-.53-.17,.17-.21-.07-.36-.2-.33l.1,.23c-.13,0-.23-.07-.34-.13l.16-.3c-.4-.53-1.05,.42-1.28-.31-.18,.21,.24,.2,.07,.45-.21-.08-.37-.59-.45-.6-.3-.23-.36,.43-.67,.27,.03,.12,.04,.44-.21,.54-.21-.05-.24-.51-.09-.6,.06,0,.08,.03,.08,.07,.08-.04,.18-.08,.1-.22l-.04,.12c-.11-.13-.43-.13-.35-.32-.18,.1-.08,.19,.04,.26-.29-.18-.47-.04-.78-.13,.05,.06,.1,.2,.05,.2-.45-.12-.19,.23-.48,.3-.18-.17,.03-.43-.26-.27-.2-.11-.07-.31,0-.41-.27,.23-.55-.08-.73-.1l.14-.12c-.08,.07-.16,.08-.24,.09l.12,.22c-.09-.03-.17-.02-.18-.11-.07,.17,.13,.38,0,.62-.14-.1-.32,.17-.42-.12,.38,.04-.11-.31,.2-.41-.05,.05-.13,.06-.23,.03-.02-.03,0-.07,.02-.09-.41-.19-.09,.39-.44,.47,0-.18-.17-.3-.22-.25,.15-.03,.14,.27,.05,.43-.26-.07-.22,.16-.34,.18l.15,.03c0,.18-.11,.19-.24,.3-.06-.13,.11-.14,.03-.18-.06,.35-.48-.17-.65,.12-.15-.07-.13-.31-.26-.35-.18,.31-.38-.1-.59,.2,.18,.18,.17,.12,.08,.42l.37-.36-.14,.45c.13-.06,.21-.27,.31-.26-.06,.23-.07,.18,.07,.33-.32-.24-.26,.35-.56,.23l-.25-.53c-.45-.09-.42,.55-.87,.66h.18c.07,.24-.22,.18-.29,.34-.1-.17-.21-.18-.34-.25,.09,.12-.28,.19-.08,.53l-.32-.09c-.36,.14,.01,.68-.27,.86-.06-.23-.27-.23-.2-.51-.09,.08-.19,.12-.1,.23-.13-.04-.06,.41-.27,.35,.02,.1,.16,.26,.05,.33-.04-.02-.07-.07-.07-.07,.06,.07-.05,.23,.18,.31-.67-.16-.63,.72-1.2,.64-.1,.24-.23,.52-.35,.71-.04-.05-.08-.06-.04-.08-.32,.17,.38,.47,.02,.66-.37-.01-.05-.25-.21-.22-.58-.29-.16,.41-.59,.44v-.07c-.29,.07,.01,.53-.16,.77,0,0-.05-.04-.09-.04,.2,.32,.19,.72,.17,1.01-.21-.17-.08-.17-.34-.2,0,.13,.4,.11,.39,.36-.16,.03-.34,.16-.61,.11,.01-.08,.04-.16,.07-.24-.39,0-.09,.31-.18,.41l-.15-.06c-.05,.39,.33,.49,.21,.86l.13-.02c.33,.28-.25,.14,0,.4h-.4c.07,.16,.29,.55,.35,.81-.29-.17-.38-.49-.52-.7-.03,.14-.05,.5,.14,.59-.03-.06-.11-.14-.05-.19,.27,.21,.42,.45,.4,.72-.76-.09-.24,.72-.8,.95,.16,.26,.13,.51,.1,.79-.02,.27-.07,.57,0,.87,.55-.32,.04,.17,.64,.02,.06,.12,.07,.17,.03,.19h0l-.25,.5c-.15,.14-.16-.1-.29-.05,.03,.32-.22,.19-.32,.44,.2-.1,.33,.02,.3,.22l.21-.33c.42,.32-.38,.52,.08,.84l-.23-.07c.18,.18,.29,.82,.85,.81-.05,.07-.17,.18-.26,.11,.16,.55,1.02,.82,.98,1.32l-.15,.05c.09,.06,.32,0,.27,.18-.05,.03-.15,.05-.13,.09,.08,.02,.37,.06,.38,.22h-.2c.16,.56,.81,.41,1.18,.64-.32,.29-.16,.71-.05,.9l-.05,.04c.43,.47,1.03,.45,1.58,.63,0,.61,.87,.83,1.26,1.32-.04-.11,.17-.3,.28-.3,.08,.14,.46-.12,.27,.24l-.04-.03c-.07,.4,.22,.44,.42,.51l.23-.48c.12,.45,.49,.53,.84,.54,.35,0,.65,0,.73,.36,.16-.09,.32-.06,.48-.17l-.06,.28c.36,.12,.55,.21,1.02,.18l-.11,.2c.27,.03,.4-.8,.62-.8l.05,.43c.44,.04,.93,.35,1.36-.04,0,.06,0,.18-.08,.21,.21,.02,.88,.18,.71-.38,.06,.37,.47-.03,.67-.24l.02,.28c.13-.4,.11-.49,.35-.66,.05,.01,.09,.12,.06,.15,.16,0,.08-.29,.34-.22l-.05,.2c.23-.04,.19-.12,.24-.36,.1-.15,.42-.08,.54,.15-.02-.16,.02-.39,.17-.37,.05,.08,.03,.15,.02,.19,.44,.05,.38-.52,.73-.38,.05,.08,.08,.11,.11,.13-.28,.13-.51,.22-.49,.19,.1,.24,.35,.17,.31,.58,.12-.27,.24-.8,.51-.79,.02,.02,.04,.03,.07,.06v.04c.05,0,.09-.04,.11-.11,.09,0,.15,0,.21-.04,.13,.17,.31-.05,.42-.11-.16-.23,0-.28-.25-.4,.03,0,0,.04-.07,.09-.01,.02-.03,.03-.03,.05v-.03l-.26,.17c.01-.17,.04-.33,.23-.26l-.1-.47c.34,.25,.74,.25,.91,.42,.21-.36,.68-.61,.49-1.18,.03-.12,.19,.03,.27,.07-.01,.08-.07,.12-.04,.2,.07-.24,.43-.46,.21-.76,.31-.06,.13,.35,.35,.05l.05,.12c.46-.06,.49-.45,.53-.81,.02-.38,.03-.72,.58-.82-.07,.02-.1,.03-.16,0,.79-.58,.68-1.69,1.45-2.33,.19-.2-.02-.31-.14-.51l.31,.04-.27-.35c-.17-.41,.91-.44,.5-1.02l-.21,.02c.06-.16-.04-.54,.19-.48-.03-.02-.2-.08-.09-.13h.16c-.06-.13-.14-.28-.23-.42,.13-.31,.62,.1,.68-.38-.05-.19-.44-.52-.54-.45Zm-4.8,9.55v-.03c.01,.05,.03,.1,.03,.14-.05,.08-.1,.04-.14,0,.03-.02,.07-.06,.11-.1Zm4.14-11.87s-.03,.01-.04,.02c0-.02-.01-.05-.02-.07,.02,.02,.04,.03,.06,.05Z"/><path class="cls-3" d="M134.4,64.24s-.03,.01-.05,0c.03,.01,.04,0,.05,0Z"/><path class="cls-3" d="M137.33,63.1s0-.02,.02-.03c-.03-.01-.05-.02-.07-.03l.02,.09,.04-.03Z"/><path class="cls-3" d="M137.81,45.38s0,.03,0,.05v-.03h0Z"/><path class="cls-3" d="M141.67,49.95c.16-.49-.2,.16-.3-.23l.03,.32c.08-.09,.19-.21,.27-.09Z"/><path class="cls-3" d="M141.29,48.69c-.14-.05-.17-.06-.2,.1,.12,.13,.14-.08,.2-.1Z"/><path class="cls-3" d="M136.07,44.12l.12-.23c-.13-.02-.04,.09-.12,.23Z"/><polygon class="cls-3" points="134.23 42.94 133.99 42.98 134.16 42.96 134.23 42.94"/><path class="cls-3" d="M123.19,46.82l.27,.17c.02-.1-.24-.35-.27-.17Z"/><path class="cls-3" d="M121.24,51.58c-.17,.02-.29,.15-.15,.26,.04-.11,.18-.2,.15-.26Z"/><polygon class="cls-3" points="127.7 64.43 127.92 64.42 127.84 64.37 127.7 64.43"/></g><g><path class="cls-1" d="M109.02,50.83l.04,.02s-.03-.05-.04-.02Z"/><path class="cls-1" d="M113.24,52.51c-.07,.08,0,.1,.02,.15l-.02-.15Z"/><path class="cls-1" d="M114.71,53.63l.02,.02,.12-.07-.14,.04Z"/><polygon class="cls-1" points="115.8 58.33 115.81 58.35 115.97 58.36 115.8 58.33"/><path class="cls-1" d="M107.66,50.62h0s.01-.02,0,0Z"/><path class="cls-1" d="M101.74,59.95c.21-.18,.37,.14,.59-.11-.1,.04-.47-.09-.59,.11Z"/><path class="cls-1" d="M104.24,53s-.07-.02-.07,.04l.03,.02s-.01-.06,.04-.05Z"/><path class="cls-1" d="M103.46,53.86l.06,.02v-.04l-.06,.02Z"/><path class="cls-1" d="M111.03,65.35s-.02,.01-.04,0c.02,.01,.03,.01,.04,0Z"/><path class="cls-1" d="M116.15,58.34s-.1,.12-.26,.12l-.08-.1h-.09v-.02c0-.39-.04-.78-.11-1.15h.08l-.08-.02s-.01-.09-.02-.14c.05,0,.11-.01,.14,0,.18-.15-.17-.06,.03-.21,.03-.02,.05-.02,.07-.01l-.15-.08c.09,0,.28-.09,.24,0,.18-.26-.38-.23-.1-.39h.03c-.16-.16-.25-.04-.45,0-.01-.04-.03-.08-.04-.12l.46-.26-.3,.08s0-.09,.12-.12c-.23-.03-.12,.06-.32,.08,.22-.23-.25-.29,.17-.51-.23,.05-.11,.19-.32,.13,.46-.26-.15-.11,.01-.33,.26-.09,.18,.09,.34-.14-.44,.14-.02-.27-.16-.33-.1,.05-.15,.06-.2,.04,.11-.04,.16-.05,.2-.04,.05-.03,.1-.06,.17-.11,0-.03-.25,.1-.36,.15-.1-.04-.12-.19-.25-.25,.12-.06-.03-.39-.03-.61l.05-.03c-.31,.2-.35,.01-.5-.03,.17-.14,.25-.18,.38-.19l-.08-.09c-.11,.05-.18,.07-.27,.04l.23-.16c-.13-.11-.45-.03-.47-.3-.13,.12-.26,.35-.42,.49-.02-.02-.05-.04-.07-.07,.06-.06,.12-.11,.17-.11-.03,0-.13,.04-.11-.03l.22-.11c0-.14-.17,.11-.21,.04,.14-.14,.06-.14,.17-.25,.03,0,0,.1,.07,.07-.04-.08-.03-.24,.04-.37-.07,.09-.18,.2-.24,.18-.13-.1,.11-.22,.11-.36-.12,.08-.11-.1-.3,.13-.04-.03,.04-.14,.08-.22-.15,.05-.34-.21-.45,.1v.03h-.01c-.37,.08-.37-.44-.67-.48l.05-.09c-.19,.02-.35-.1-.54,.04-.04-.02-.02-.21,.04-.31-.14,.02-.19,.1-.3-.11,.18-.12,.02-.16,.17-.07-.12-.13-.1-.3-.36-.1,.14-.22-.01-.34-.11-.3l.05,.21c-.09,0-.16-.04-.23-.09l.14-.3c-.24-.49-.77,.5-.88-.21-.13,.21,.15,.19,.02,.44-.14-.07-.22-.56-.28-.57-.2-.21-.27,.45-.47,.3,.02,.12,0,.44-.15,.54-.14-.05-.15-.51-.05-.6,.04,0,.05,.03,.05,.07,.05-.04,.12-.09,.07-.22l-.03,.12c-.07-.13-.29-.12-.23-.32-.13,.11-.06,.19,.03,.26-.2-.18-.32-.03-.53-.13,.04,.06,.07,.2,.03,.2-.31-.13-.13,.23-.32,.29-.13-.17,.01-.43-.18-.27-.14-.11-.06-.31-.01-.41-.17,.23-.38-.1-.51-.13l.09-.11c-.06,.07-.11,.07-.16,.08l.1,.23c-.07-.03-.12-.02-.13-.12-.04,.16,.11,.38,.03,.61-.1-.11-.21,.16-.3-.14,.27,.06-.09-.31,.11-.39-.04,.04-.09,.05-.16,.02-.02-.03,0-.07,0-.09-.31-.22-.04,.38-.28,.43-.01-.18-.14-.31-.17-.26,.1-.02,.12,.27,.07,.43-.19-.09-.14,.14-.22,.15l.11,.04c.02,.18-.06,.17-.14,.26-.05-.13,.06-.12,0-.17,0,.34-.36-.21-.45,.04-.12-.08-.13-.31-.23-.36-.1,.28-.29-.14-.41,.12,.16,.19,.14,.13,.11,.41l.23-.3-.05,.41c.09-.04,.12-.23,.2-.21-.02,.22-.03,.16,.09,.32-.26-.27-.14,.3-.38,.14l-.26-.53c-.35-.13-.24,.46-.57,.49l.14,.04c.09,.22-.14,.12-.17,.26-.1-.17-.19-.2-.3-.28,.09,.12-.19,.13,.02,.46l-.26-.13c-.27,.07,.12,.6-.08,.7-.09-.21-.26-.24-.24-.47-.06,.05-.14,.07-.05,.18-.12-.06,.02,.34-.16,.25,.04,.09,.17,.24,.1,.29-.03-.02-.07-.07-.07-.07,.07,.07,0,.19,.21,.29-.6-.25-.4,.48-.92,.32-.05,.18-.12,.37-.19,.51-.04-.04-.08-.06-.05-.07-.27,.08,.41,.42,.12,.5-.34-.06-.08-.2-.22-.19-.57-.3-.08,.29-.48,.25l-.02-.05c-.25,.02,.08,.39-.04,.55,0,0-.05-.03-.09-.04,.23,.26,.26,.54,.28,.74-.22-.14-.1-.13-.35-.18,0,.09,.4,.12,.41,.3-.15,0-.31,.08-.57,.02,0-.06,.03-.11,.04-.16-.37-.03-.06,.21-.14,.28l-.15-.05c-.02,.27,.36,.37,.27,.61h.12c.35,.21-.24,.07,.02,.27l-.4-.02c.08,.12,.32,.39,.38,.56-.29-.12-.4-.34-.55-.5-.02,.1-.02,.34,.17,.41-.03-.04-.12-.1-.05-.13,.28,.16,.44,.31,.42,.49-.76-.07-.22,.48-.79,.63,.29,.34-.07,.72,.05,1.14,.56-.25,.04,.12,.63-.03,.05,.08,.05,.11,.02,.13h0l-.28,.36c-.15,.11-.15-.06-.28-.01,0,.22-.23,.15-.35,.34,.2-.09,.32-.01,.27,.14l.23-.25c.38,.19-.41,.41,0,.6l-.22-.03c.16,.11,.21,.57,.73,.5-.05,.05-.19,.16-.26,.11,.09,.4,.84,.48,.73,.87l-.14,.06c.07,.04,.29-.05,.22,.1-.05,.03-.14,.06-.13,.09,.07,0,.32,0,.31,.12l-.18,.04c.06,.42,.66,.19,.93,.33-.33,.29-.24,.61-.18,.76l-.05,.04c.29,.34,.79,.23,1.2,.3-.09,.54,.56,.62,.79,1.03-.02-.1,.17-.3,.25-.31,.04,.12,.35-.17,.17,.19l-.03-.02c-.1,.39,.12,.38,.25,.44l.22-.48c.03,.42,.3,.45,.55,.44,.25-.02,.46-.06,.48,.3,.12-.1,.23-.08,.34-.2l-.06,.28c.25,.11,.37,.18,.7,.14l-.09,.2c.19,.03,.29-.8,.45-.81l.03,.42c.3,.02,.65,.36,.93-.04,0,.06,0,.18-.05,.2,.15,.02,.62,.22,.48-.35,.06,.37,.33,0,.45-.2l.03,.28c.06-.38,.04-.48,.2-.62,.04,.02,.07,.12,.05,.15,.11,.01,.03-.27,.22-.19l-.02,.19c.16-.02,.12-.1,.13-.33,.05-.14,.29-.03,.4,.2-.03-.15-.03-.37,.08-.33,.05,.08,.04,.15,.03,.18,.32,.09,.21-.45,.49-.27,.04,.08,.07,.12,.1,.14-.19,.08-.35,.14-.34,.12,.1,.24,.28,.2,.29,.59,.06-.24,.08-.72,.28-.68,.02,.02,.04,.04,.06,.07v.03s.07-.03,.07-.08c.07,0,.11,.02,.16,0,.12,.17,.23,0,.31-.04-.15-.24-.04-.25-.25-.4,.02,.01,0,.04-.04,.08,0,.01-.02,.02-.02,.04v-.02c-.05,.04-.11,.08-.18,.12-.01-.16-.02-.3,.14-.21l-.14-.44c.3,.28,.6,.34,.77,.51,.12-.29,.45-.45,.21-.96,0-.1,.16,.06,.23,.1,0,.07-.04,.09,0,.17,.02-.2,.28-.33,.05-.61,.24,0,.17,.31,.3,.1l.06,.1c.38,.02,.35-.3,.32-.58-.04-.3-.09-.56,.38-.56-.06,0-.09,0-.14-.02,.63-.34,.36-1.17,1.03-1.53,.16-.13-.06-.22-.19-.37l.3,.06-.29-.27c-.2-.29,.85-.24,.42-.66h-.21c.06-.1-.07-.36,.16-.31-.04-.02-.2-.06-.09-.09l.16,.02c-.07-.1-.16-.2-.24-.3,.12-.2,.62,.08,.67-.24-.05-.13-.44-.35-.55-.3Zm-3.07,6.54v-.03s.03,.1,.04,.13c-.03,.06-.07,.03-.11-.02,.02-.02,.04-.04,.07-.08Zm2.51-8.05s-.03,.01-.04,.02v-.04s.03,.01,.04,.03Z"/><path class="cls-1" d="M113.02,64.6s0-.02,0-.03l-.06-.04,.03,.09,.02-.02Z"/><path class="cls-1" d="M113.27,52.72s0,.02-.01,.04v-.03h.01Z"/><path class="cls-1" d="M115.65,55.59v.22c.09-.07,.2-.17,.26-.09,.21-.37-.21,.14-.26-.13Z"/><path class="cls-1" d="M115.71,54.85c-.12-.02-.15-.02-.2,.1,.09,.08,.14-.08,.2-.1Z"/><path class="cls-1" d="M112.14,51.81l.12-.23c-.1,0-.04,.09-.12,.23Z"/><polygon class="cls-1" points="110.94 50.85 110.77 50.9 110.9 50.88 110.94 50.85"/><path class="cls-1" d="M103.39,53.54l.26,.18c0-.08-.27-.32-.26-.18Z"/><path class="cls-1" d="M102.16,56.82c-.17,0-.28,.08-.14,.17,.03-.07,.17-.13,.14-.17Z"/><polygon class="cls-1" points="106.44 65.66 106.61 65.63 106.55 65.59 106.44 65.66"/><path class="cls-1" d="M130.43,41.22s.07-.04,.07-.07c-.04,.02-.08,.04-.07,.07Z"/><path class="cls-1" d="M129.42,40.84l.06,.02s-.05-.05-.06-.02Z"/><path class="cls-1" d="M135.73,43.13c-.07,.08,.02,.11,.06,.18l-.06-.18Z"/><path class="cls-1" d="M137.87,44.85l.03,.04s.08-.03,.13-.06l-.16,.02Z"/><polygon class="cls-1" points="139.8 51.83 139.81 51.86 139.97 51.87 139.8 51.83"/><path class="cls-1" d="M127.47,40.69h0s.02-.03,0,0Z"/><path class="cls-1" d="M118.82,54.19c.2-.24,.39,.24,.59-.1-.1,.05-.49-.17-.59,.1Z"/><path class="cls-1" d="M122.36,43.95s-.08,0-.1,.06c.01,0,.02,.01,.04,.01-.01-.04,0-.07,.06-.07Z"/><path class="cls-1" d="M121.2,45.22h.06l.02-.04-.08,.04Z"/><path class="cls-1" d="M140.15,51.84c-.01,.07-.11,.18-.27,.18l-.07-.15s-.06,0-.09,0v-.02c0-.61-.06-1.2-.16-1.77h.08l-.08-.03c-.01-.07-.02-.15-.04-.22,.06,0,.11,0,.14,.04,.17-.21-.18-.11,.01-.31,.03-.02,.05-.02,.07-.01l-.16-.13c.09,.01,.28-.1,.25,.02,.16-.36-.42-.39-.15-.59l.03,.02c-.19-.27-.27-.11-.47-.09-.02-.06-.05-.12-.07-.18l.44-.3-.3,.07s-.01-.13,.11-.16c-.25-.08-.11,.07-.33,.06,.2-.3-.33-.47,.09-.71-.24,.03-.08,.25-.32,.12,.45-.28-.19-.19-.06-.46,.27-.07,.22,.16,.35-.12-.45,.1-.08-.39-.25-.49-.1,.05-.16,.04-.21,.01,.11-.04,.17-.04,.21-.01,.05-.03,.1-.06,.16-.12-.01-.04-.26,.08-.38,.13-.12-.07-.17-.29-.34-.41,.12-.06-.13-.53-.18-.82l.05-.03c-.33,.19-.41-.07-.6-.16,.17-.14,.26-.17,.41-.15l-.12-.14c-.12,.04-.2,.04-.31-.02l.24-.15c-.18-.17-.56-.15-.65-.49-.13,.12-.24,.38-.4,.51-.04-.04-.07-.07-.11-.1,.06-.06,.13-.1,.18-.1-.03,0-.15,.02-.15-.06l.26-.08c-.03-.17-.19,.09-.25,0,.14-.14,.04-.16,.15-.26,.03,0,.02,.13,.1,.1-.07-.11-.1-.3-.04-.45-.07,.09-.18,.2-.26,.16-.19-.15,.09-.23,.05-.41-.13,.06-.17-.14-.35,.09-.06-.04,.02-.16,.05-.24-.18,.03-.5-.32-.57,.01v.04h-.01c-.47-.01-.61-.59-1.02-.71l.05-.09c-.26-.02-.51-.18-.75-.07-.06-.03-.07-.24,0-.33-.2,0-.25,.07-.44-.17,.24-.1,0-.16,.23-.05-.19-.16-.19-.33-.53-.17,.17-.21-.07-.36-.2-.33l.1,.23c-.13,0-.23-.07-.34-.13l.16-.3c-.4-.53-1.05,.42-1.28-.31-.18,.21,.24,.2,.07,.45-.21-.08-.37-.59-.45-.6-.3-.23-.36,.43-.67,.27,.03,.12,.04,.44-.21,.54-.21-.05-.24-.51-.09-.6,.06,0,.08,.03,.08,.07,.08-.04,.18-.08,.1-.22l-.04,.12c-.11-.13-.43-.13-.35-.32-.18,.1-.08,.19,.04,.26-.29-.18-.47-.04-.78-.13,.05,.06,.1,.2,.05,.2-.45-.12-.19,.23-.48,.3-.18-.17,.03-.43-.26-.27-.2-.11-.07-.31,0-.41-.27,.23-.55-.08-.73-.1l.14-.12c-.08,.07-.16,.08-.24,.09l.12,.22c-.09-.03-.17-.02-.18-.11-.07,.17,.13,.38,0,.62-.14-.1-.32,.17-.42-.12,.38,.04-.11-.31,.2-.41-.05,.05-.13,.06-.23,.03-.02-.03,0-.07,.02-.09-.41-.19-.09,.39-.44,.47,0-.18-.17-.3-.22-.25,.15-.03,.14,.27,.05,.43-.26-.07-.22,.16-.34,.18l.15,.03c0,.18-.11,.19-.24,.3-.06-.13,.11-.14,.03-.18-.06,.35-.48-.17-.65,.12-.15-.07-.13-.31-.26-.35-.18,.31-.38-.1-.59,.2,.18,.18,.17,.12,.08,.42l.37-.36-.14,.45c.13-.06,.21-.27,.31-.26-.06,.23-.07,.18,.07,.33-.32-.24-.26,.35-.56,.23l-.25-.53c-.45-.09-.42,.55-.87,.66h.18c.07,.24-.22,.18-.29,.34-.1-.17-.21-.18-.34-.25,.09,.12-.28,.19-.08,.53l-.32-.09c-.36,.14,.01,.68-.27,.86-.06-.23-.27-.23-.2-.51-.09,.08-.19,.12-.1,.23-.13-.04-.06,.41-.27,.35,.02,.1,.16,.26,.05,.33-.04-.02-.07-.07-.07-.07,.06,.07-.05,.23,.18,.31-.67-.16-.63,.72-1.2,.64-.1,.24-.23,.52-.35,.71-.04-.05-.08-.06-.04-.08-.32,.17,.38,.47,.02,.66-.37-.01-.05-.25-.21-.22-.58-.29-.16,.41-.59,.44v-.07c-.29,.07,.01,.53-.16,.77,0,0-.05-.04-.09-.04,.2,.32,.19,.72,.17,1.01-.21-.17-.08-.17-.34-.2,0,.13,.4,.11,.39,.36-.16,.03-.34,.16-.61,.11,.01-.08,.04-.16,.07-.24-.39,0-.09,.31-.18,.41l-.15-.06c-.05,.39,.33,.49,.21,.86l.13-.02c.33,.28-.25,.14,0,.4h-.4c.07,.16,.29,.55,.35,.81-.29-.17-.38-.49-.52-.7-.03,.14-.05,.5,.14,.59-.03-.06-.11-.14-.05-.19,.27,.21,.42,.45,.4,.72-.76-.09-.24,.72-.8,.95,.16,.26,.13,.51,.1,.79-.02,.27-.07,.57,0,.87,.55-.32,.04,.17,.64,.02,.06,.12,.07,.17,.03,.19h0l-.25,.5c-.15,.14-.16-.1-.29-.05,.03,.32-.22,.19-.32,.44,.2-.1,.33,.02,.3,.22l.21-.33c.42,.32-.38,.52,.08,.84l-.23-.07c.18,.18,.29,.82,.85,.81-.05,.07-.17,.18-.26,.11,.16,.55,1.02,.82,.98,1.32l-.15,.05c.09,.06,.32,0,.27,.18-.05,.03-.15,.05-.13,.09,.08,.02,.37,.06,.38,.22h-.2c.16,.56,.81,.41,1.18,.64-.32,.29-.16,.71-.05,.9l-.05,.04c.43,.47,1.03,.45,1.58,.63,0,.61,.87,.83,1.26,1.32-.04-.11,.17-.3,.28-.3,.08,.14,.46-.12,.27,.24l-.04-.03c-.07,.4,.22,.44,.42,.51l.23-.48c.12,.45,.49,.53,.84,.54,.35,0,.65,0,.73,.36,.16-.09,.32-.06,.48-.17l-.06,.28c.36,.12,.55,.21,1.02,.18l-.11,.2c.27,.03,.4-.8,.62-.8l.05,.43c.44,.04,.93,.35,1.36-.04,0,.06,0,.18-.08,.21,.21,.02,.88,.18,.71-.38,.06,.37,.47-.03,.67-.24l.02,.28c.13-.4,.11-.49,.35-.66,.05,.01,.09,.12,.06,.15,.16,0,.08-.29,.34-.22l-.05,.2c.23-.04,.19-.12,.24-.36,.1-.15,.42-.08,.54,.15-.02-.16,.02-.39,.17-.37,.05,.08,.03,.15,.02,.19,.44,.05,.38-.52,.73-.38,.05,.08,.08,.11,.11,.13-.28,.13-.51,.22-.49,.19,.1,.24,.35,.17,.31,.58,.12-.27,.24-.8,.51-.79,.02,.02,.04,.03,.07,.06v.04c.05,0,.09-.04,.11-.11,.09,0,.15,0,.21-.04,.13,.17,.31-.05,.42-.11-.16-.23,0-.28-.25-.4,.03,0,0,.04-.07,.09-.01,.02-.03,.03-.03,.05v-.03l-.26,.17c.01-.17,.04-.33,.23-.26l-.1-.47c.34,.25,.74,.25,.91,.42,.21-.36,.68-.61,.49-1.18,.03-.12,.19,.03,.27,.07-.01,.08-.07,.12-.04,.2,.07-.24,.43-.46,.21-.76,.31-.06,.13,.35,.35,.05l.05,.12c.46-.06,.49-.45,.53-.81,.02-.38,.03-.72,.58-.82-.07,.02-.1,.03-.16,0,.79-.58,.68-1.69,1.45-2.33,.19-.2-.02-.31-.14-.51l.31,.04-.27-.35c-.17-.41,.91-.44,.5-1.02l-.21,.02c.06-.16-.04-.54,.19-.48-.03-.02-.2-.08-.09-.13h.16c-.06-.13-.14-.28-.23-.42,.13-.31,.62,.1,.68-.38-.05-.19-.44-.52-.54-.45Zm-4.8,9.55v-.03c.01,.05,.03,.1,.03,.14-.05,.08-.1,.04-.14,0,.03-.02,.07-.06,.11-.1Zm4.14-11.87s-.03,.01-.04,.02c0-.02-.01-.05-.02-.07,.02,.02,.04,.03,.06,.05Z"/><path class="cls-1" d="M132.4,62.24s-.03,.01-.05,0c.03,.01,.04,0,.05,0Z"/><path class="cls-1" d="M135.33,61.1s0-.02,.02-.03c-.03-.01-.05-.02-.07-.03l.02,.09,.04-.03Z"/><path class="cls-1" d="M135.81,43.38s0,.03,0,.05v-.03h0Z"/><path class="cls-1" d="M139.67,47.95c.16-.49-.2,.16-.3-.23l.03,.32c.08-.09,.19-.21,.27-.09Z"/><path class="cls-1" d="M139.29,46.69c-.14-.05-.17-.06-.2,.1,.12,.13,.14-.08,.2-.1Z"/><path class="cls-1" d="M134.07,42.12l.12-.23c-.13-.02-.04,.09-.12,.23Z"/><polygon class="cls-1" points="132.23 40.94 131.99 40.98 132.16 40.96 132.23 40.94"/><path class="cls-1" d="M121.19,44.82l.27,.17c.02-.1-.24-.35-.27-.17Z"/><path class="cls-1" d="M119.24,49.58c-.17,.02-.29,.15-.15,.26,.04-.11,.18-.2,.15-.26Z"/><polygon class="cls-1" points="125.7 62.43 125.92 62.42 125.84 62.37 125.7 62.43"/></g></g><g class="cls-4"><path class="cls-1" d="M366.23,.43h.08c.47-.07,.2-.05-.08,0Z"/><path class="cls-1" d="M249.38,58.7c-1.42-1.34,3.01,.9,.78-.94,.13,.34-2.69-.5-.78,.94Z"/><path class="cls-1" d="M325.41,3.72c.09,.09,.27,.15,.44,.2-.02-.06-.12-.12-.44-.2Z"/><path class="cls-1" d="M355.85,2.02l-.76-.03c.3,.03,.54,.04,.76,.03Z"/><path class="cls-1" d="M308.7,6.7c.06,.02,.11,.03,.18,.04,.14-.08,.32-.14,.58-.16-.21,0-.4,0-.76,.12Z"/><path class="cls-1" d="M293.57,9.42c.09,.02,.21,.03,.32,.05,.16-.04,.34-.09,.51-.13l-.83,.08Z"/><path class="cls-1" d="M538.18,41.96c.09-.81,.1-1.64,.07-2.39-.05-1.16-.2-2.15-.13-2.81-1.24-2.63-2.86-4.77-4.69-6.79-1.86-1.97-3.99-3.81-6.53-5.33,1.14,2.11-1.48-.89-1.8,.38-1.19-.61-1.63-.86-1.7-.99l.22,.18-.23-.19h0c-1.07-.86-2.17-1.7-3.29-2.5-.72-.74,1.28,.31,1.29,.02-2.64-1.37-.9-1.02-2.56-2.14,.19,.56-1.2,.14-2.69-.67,.66,.49,1.31,.96,1.96,1.46-2.02-.54-2.74-1.1-3.47-1.67-.73-.58-1.48-1.15-3.54-1.57l1.37,.1c-1.04-.27-2.89-.95-4.77-1.49-1.88-.53-3.8-.94-4.93-.77-.32-.24-.69-.7,.22-.52-4.81-1.64-11.09-2.01-14.75-3.46l.44-.2c-.93-.13-1.72,.19-2.8-.37,.09-.11,.43-.21,.01-.32-.51-.01-2.55-.02-3.73-.44l1.11-.11c-3.82-1.12-6.4-.88-9.38-1.01l.08-.07c-.75-.12-1.52-.18-2.31-.24-.22-.83-3.68-1.69-5.46-2.1l.09-.11c-5.63-.99-9.7-.7-14.97-.99-3.14-1.36-10.97-1.63-16.17-2.61,.79,.23-.19,.67-1.13,.68-1.22-.28-3.45,.33-3.19-.45l.44,.05c-.87-.86-3.41-.85-5.39-1l-.4,1.03c-2.07-.78-4.71-.95-7.3-.99-2.13-.41-4.09-.24-5.93-.07-1.17-.07-2.15-.22-2.86-.52h.18l.55-.06-.77,.04c-.06-.03-.14-.05-.19-.08-.89,.16-1.92,.17-2.9,.25-.01,0-.02,0-.04-.01-.02,0-.03,.01-.05,.02-.37,.03-.73,.07-1.07,.13l.08-.56c-3.46-.24-5.19-.37-9.47-.3l.88-.39c-1.48-.05-2.3,.56-3.22,1.04-1.19-.11-2.44-.19-1.95-.45-.46,.06-.72,.11-.83,.17-4.19-.02-8.45-.73-12.59,.09,.07-.12,.19-.37,.87-.42-1.21,0-3.82-.16-5.49-.02-.62-.09-1.18-.17-1.66-.18L373.1,0c-.84,.13-1.52,.14-2.22,.16l.81,.45c-.83-.06-1.52-.04-1.51-.24-.37,.15-.28,.32-.21,.5-1.32,.12-3.03,.43-4.3,.66-.09-.04-.17-.1-.22-.17,3.46,.09-.4-.62,2.51-.82-.56,.09-1.25,.12-2.08,.06-.13-.07,.11-.13,.34-.18-3.33-.45-1.49,.76-4.91,.89,.42-.37-.82-.64-1.38-.54,1.38-.05,.69,.56-.57,.89-2.2-.17-2.37,.32-3.52,.35l1.23,.06c-.89,.07-1.16,.21-1.66,.44-.39,.04-.82,.09-1.3,.15-.15-.27,1.37-.27,.82-.36-1.66,.71-3.87-.43-6.2,.15-1.11-.17-.15-.66-1.12-.75-1.88,.46-2.56,.11-3.82,.1,.11-.08,.27-.17,.49-.27-.29,.08-.62,.18-.96,.28-.39,.02-.83,.08-1.37,.19,.1,.05,.19,.09,.27,.13-.74,.22-1.54,.44-2.33,.61v-.19c-1.74-.13-3.24,.18-4.88,.52-.48-.01-.88,0-1.41,.04-.31-.4-2.69,.03-3.85,.13,.15,.55-1.37,.62,.1,.93-.19-.02,.21-.09,.98-.19,.1-.02,.21-.04,.31-.06-.01,.01-.03,.02-.05,.03l-.26,.03c-.11,.02-.17,.05-.31,.07,.08,.02,.16,.03,.24,.04-.84,.24-2.41,.17-3.51,.45,.09-.41-.79-.45-1.41-.63,.05,.12-.56,.2-1.28,.33-.16-.05-.28-.1-.34-.16-1.26,.26-2.7,.49-4.11,.75-.76,.07-1.37,.2-1.89,.37-1.78,.38-3.39,.84-4.37,1.48-.14,.02-.28,.04-.43,.05,.93-.57-.6-.63,1.56-1.25-1.1,.15-2.1,.22-2.07,.49-.68-.16-2.96,.98-4.03,.75-.44,.24-.52,.68-1.75,.84-.09-.04-.08-.1-.05-.15-.07,.06-.26,.14-.47,.22-.11-.21,1.35-.61-1.2-.12l.43-.3c-3.93-.02-6.82,1.16-9.95,2.22-.74,.08-1.41,.09-2,.01-2.35,.6-5.18,1.31-7.31,1.85,.11-.15-.04-.19,.38-.24-1.25,.13-1.74,.41-2.11,.72-.7,.15-1.4,.31-2.1,.48,0-.02-.05-.03-.21-.03-.78-1.15-4,1.17-6.43,1.07l.52-.22c-1.84,.04-4.06,1.64-6.85,2.41,0,0,.1-.15-.04-.19-.69,.49-1.69,1.02-2.79,1.54-1.44,.41-2.88,.81-4.32,1.14-2.27,.63-2.46,1.16-3.56,1.98-.12,.01-.23,.02-.34,.03l-.54-.27-.28,.22c-.08-.03-.15-.06-.2-.1l2.19-.93c-1.4-.21-2.84,1.19-4.03,1.58l.02-.35c-2.55,1.25-2.96,1.96-4.61,3.06-.57,.18-1.15,.37-1.74,.63,.03-.02,.07-.04,.1-.06-.62-.01-1.97,.52-2.54,1.25,.46-.27,.95-.49,1.39-.68-.77,.42-1.54,.96-2.29,1.71l.73,.02c-.16,.09-.33,.2-.52,.32l-.78-.24c-.55,.47-1.47,1.36-2.45,2.37-.1,.11-.21,.23-.31,.34-.1,.03-.16,.02-.17-.06-.04,.09-.08,.26-.19,.44-.09,.1-.19,.21-.28,.31-.09,.07-.19,.14-.32,.2l-.21-.17c.85-1.07,1.91-2.17,2.7-2.96-.59,.41-1.57,1.16-2.4,1.96-.84,.79-1.53,1.62-1.65,2.04,.35-.49,.77-1.11,1.28-1.42-.31,.57-.69,1.16-1.11,1.79-.48,.63-.94,1.28-1.35,1.95-1.07,1.21-1.22,.98-1.51,.86-.24-.08-.75-.13-1.9,2.24-.33,.93-.54,2.36-.4,3.43,.01,.11,.03,.22,.04,.32-.09,.81-.1,1.64-.07,2.39,.05,1.16,.2,2.15,.13,2.81,1.24,2.63,2.86,4.77,4.69,6.79,1.86,1.97,3.99,3.81,6.53,5.33-1.14-2.11,1.48,.89,1.8-.38,1.19,.61,1.63,.86,1.7,.99l-.22-.18,.23,.19h0c1.07,.86,2.17,1.7,3.29,2.5,.72,.74-1.28-.31-1.29-.02,2.64,1.37,.9,1.02,2.56,2.14-.19-.56,1.2-.14,2.69,.67-.66-.49-1.31-.96-1.96-1.46,2.02,.54,2.74,1.1,3.47,1.67,.73,.58,1.48,1.15,3.54,1.57l-1.37-.1c1.04,.27,2.89,.95,4.77,1.49,1.88,.53,3.8,.94,4.93,.77,.32,.24,.69,.7-.22,.52,4.81,1.64,11.09,2.01,14.75,3.46l-.44,.2c.93,.13,1.72-.19,2.8,.37-.09,.11-.43,.21-.01,.32,.51,.01,2.55,.02,3.73,.44l-1.11,.11c3.82,1.12,6.4,.88,9.38,1.01l-.08,.07c.75,.12,1.52,.18,2.31,.24,.22,.83,3.68,1.69,5.46,2.1l-.09,.11c5.63,.99,9.7,.7,14.97,.99,3.14,1.36,10.97,1.63,16.17,2.61-.79-.23,.19-.67,1.13-.68,1.22,.28,3.45-.33,3.19,.45l-.44-.05c.87,.86,3.41,.85,5.39,1l.4-1.03c2.07,.78,4.71,.95,7.29,.99,2.13,.41,4.09,.24,5.93,.07,1.17,.07,2.15,.22,2.86,.52h-.18l-.55,.06,.77-.04c.06,.03,.14,.05,.19,.08,.89-.16,1.92-.17,2.9-.25,.01,0,.02,0,.04,.01,.02,0,.03-.01,.05-.02,.37-.03,.73-.07,1.07-.13l-.08,.56c3.46,.24,5.19,.37,9.47,.3l-.88,.39c1.48,.05,2.3-.56,3.22-1.04,1.19,.11,2.44,.19,1.95,.45,.46-.06,.72-.11,.83-.17,4.19,.02,8.45,.73,12.59-.09-.07,.12-.19,.37-.87,.42,1.21,0,3.82,.16,5.49,.02,.62,.09,1.18,.17,1.66,.18l-1.4,.22c.84-.13,1.52-.14,2.22-.16l-.81-.45c.83,.06,1.52,.04,1.51,.24,.37-.15,.28-.32,.21-.5,1.32-.12,3.03-.43,4.3-.66,.09,.04,.17,.1,.22,.17-3.46-.09,.4,.62-2.51,.82,.56-.09,1.25-.12,2.08-.06,.13,.07-.11,.13-.34,.18,3.33,.45,1.49-.76,4.91-.89-.42,.37,.82,.64,1.38,.54-1.38,.05-.69-.56,.57-.89,2.2,.17,2.37-.32,3.52-.35l-1.23-.06c.89-.07,1.16-.21,1.66-.44,.39-.04,.82-.09,1.3-.15,.15,.27-1.37,.27-.82,.36,1.66-.71,3.87,.43,6.2-.15,1.11,.17,.15,.66,1.12,.75,1.88-.46,2.56-.11,3.82-.1-.11,.08-.27,.17-.49,.27,.29-.08,.62-.18,.96-.28,.39-.02,.83-.08,1.37-.19-.1-.05-.19-.09-.27-.13,.74-.22,1.54-.44,2.33-.61v.19c1.74,.13,3.24-.18,4.88-.52,.48,.01,.88,0,1.41-.04,.31,.4,2.69-.03,3.85-.13-.15-.55,1.37-.62-.1-.93,.19,.02-.21,.09-.98,.19-.1,.02-.21,.04-.31,.06,.01-.01,.03-.02,.05-.03l.26-.03c.11-.02,.17-.05,.31-.07-.08-.02-.16-.03-.24-.04,.84-.24,2.41-.17,3.51-.45-.09,.41,.79,.45,1.41,.63-.05-.12,.56-.2,1.28-.33,.16,.05,.28,.1,.34,.16,1.26-.26,2.7-.49,4.11-.75,.77-.07,1.37-.2,1.89-.37,1.78-.38,3.39-.84,4.37-1.48,.14-.02,.28-.04,.43-.05-.93,.57,.6,.63-1.56,1.25,1.1-.15,2.1-.22,2.07-.49,.68,.16,2.96-.98,4.03-.75,.44-.24,.52-.68,1.75-.84,.09,.04,.08,.1,.05,.15,.07-.06,.26-.14,.47-.22,.11,.21-1.35,.61,1.2,.12l-.43,.3c3.93,.02,6.82-1.16,9.95-2.22,.74-.08,1.41-.09,2-.01,2.35-.6,5.18-1.31,7.31-1.85-.11,.15,.04,.19-.38,.24,1.25-.13,1.74-.41,2.11-.72,.7-.15,1.4-.31,2.1-.48,0,.02,.05,.03,.21,.03,.78,1.15,4-1.17,6.43-1.07l-.52,.22c1.84-.04,4.06-1.64,6.85-2.41,0,0-.1,.15,.04,.19,.69-.49,1.69-1.02,2.79-1.54,1.44-.41,2.88-.81,4.32-1.14,2.27-.63,2.46-1.16,3.56-1.98,.12-.01,.23-.02,.34-.03l.54,.27,.28-.22c.08,.03,.15,.06,.2,.1l-2.19,.93c1.4,.21,2.84-1.19,4.03-1.58l-.02,.35c2.55-1.25,2.96-1.96,4.61-3.06,.57-.18,1.15-.37,1.74-.63-.03,.02-.07,.04-.1,.06,.62,.01,1.97-.52,2.54-1.25-.46,.27-.95,.49-1.39,.68,.77-.42,1.54-.96,2.29-1.71l-.73-.02c.16-.09,.33-.2,.52-.32l.78,.24c.55-.47,1.47-1.36,2.45-2.37,.1-.11,.21-.23,.31-.34,.1-.03,.16-.02,.17,.06,.04-.09,.08-.26,.19-.44,.09-.1,.19-.21,.28-.31,.09-.07,.19-.14,.32-.2l.21,.17c-.85,1.07-1.91,2.17-2.7,2.96,.59-.41,1.57-1.16,2.4-1.96,.84-.79,1.53-1.62,1.65-2.04-.35,.49-.77,1.11-1.28,1.42,.31-.57,.69-1.16,1.11-1.79,.48-.63,.94-1.28,1.35-1.95,1.07-1.21,1.22-.98,1.51-.86,.24,.08,.75,.13,1.9-2.24,.33-.93,.54-2.36,.4-3.43-.01-.11-.03-.22-.04-.32ZM391.92,1.1c-.4-.05-.77-.09-1.12-.11l-.05-.06c.26,.06,.69,.12,1.17,.17Zm-47.35,1.44c-.1-.04-.2-.08-.31-.12l1.3-.2-.99,.31Zm-.97,.31l-.92,.29c1.38-.09,2.89-.52,3.72-.5-.18,.06-.33,.12-.46,.16-2.22,.24-3.67,.86-5.62,.6-.06-.17-.22-.24-.4-.28v-.02c1.47-.12,2.78-.21,3.68-.26Zm-11.44,.27c.76-.15,1.03-.07,1.15,.04-.36,.04-.79,.1-1.34,.2-.02,.02-.06,.05-.08,.08,.06-.11,.14-.22,.28-.31Zm49.47,77.54c.4,.05,.77,.09,1.12,.11l.05,.06c-.26-.06-.69-.12-1.17-.17Zm47.35-1.44c.1,.04,.2,.08,.31,.12l-1.3,.2,.99-.31Zm.97-.31l.92-.29c-1.38,.09-2.89,.52-3.72,.5,.18-.06,.33-.12,.46-.16,2.22-.24,3.67-.86,5.62-.6,.06,.17,.22,.24,.4,.28v.02c-1.47,.12-2.78,.21-3.68,.26Zm11.44-.27c-.76,.15-1.03,.07-1.15-.04,.36-.04,.79-.1,1.34-.2,.02-.02,.06-.05,.08-.08-.06,.11-.14,.22-.28,.31Z"/><path class="cls-1" d="M296.35,8.37l.49,.55c.81-.26,.86-1-.49-.55Z"/><polygon class="cls-1" points="349.49 80.33 351.36 80.27 350.49 80.18 349.49 80.33"/><path class="cls-1" d="M407.31,81.33h-.08c-.47,.07-.2,.05,.08,0Z"/><path class="cls-1" d="M524.16,23.07c1.42,1.34-3.01-.9-.78,.94-.13-.34,2.69,.5,.78-.94Z"/><path class="cls-1" d="M448.13,78.04c-.09-.09-.27-.15-.44-.2,.02,.06,.12,.12,.44,.2Z"/><path class="cls-1" d="M417.68,79.74l.76,.03c-.3-.03-.54-.04-.76-.03Z"/><path class="cls-1" d="M464.84,75.06c-.06-.02-.11-.03-.18-.04-.14,.08-.32,.14-.58,.16,.21,0,.4,0,.76-.12Z"/><path class="cls-1" d="M479.97,72.34c-.09-.02-.21-.03-.32-.05-.16,.04-.34,.09-.51,.13l.83-.08Z"/><path class="cls-1" d="M477.18,73.39l-.49-.55c-.81,.26-.86,1,.49,.55Z"/><polygon class="cls-1" points="424.04 1.43 422.18 1.5 423.05 1.58 424.04 1.43"/></g><g><g><path class="cls-5" d="M275.09,36.82c-.61,0-1.15-.23-1.6-.68-.45-.45-.68-.99-.68-1.6v-.28c0-.61,.23-1.14,.68-1.58,.45-.44,.99-.66,1.6-.66h3.92c.24,0,.36-.12,.36-.36v-4.2c0-.61,.22-1.14,.66-1.58,.44-.44,.97-.66,1.58-.66h.68c.61,0,1.15,.22,1.6,.66s.68,.97,.68,1.58v4.2c0,.24,.11,.36,.32,.36h10.52c.24,0,.36-.12,.36-.36v-4.2c0-.61,.22-1.14,.66-1.58,.44-.44,.97-.66,1.58-.66h.96c.61,0,1.14,.22,1.58,.66,.44,.44,.66,.97,.66,1.58v4.2c0,.24,.12,.36,.36,.36h3.92c.61,0,1.15,.22,1.6,.66s.68,.97,.68,1.58v.28c0,.61-.23,1.15-.68,1.6-.45,.45-.99,.68-1.6,.68h-3.92c-.24,0-.36,.11-.36,.32v1.92c0,6.08-1.32,10.59-3.96,13.52-2.64,2.93-7.09,4.8-13.36,5.6-.64,.08-1.22-.07-1.74-.46-.52-.39-.85-.9-.98-1.54l-.08-.36c-.11-.59,.01-1.13,.36-1.62,.35-.49,.83-.78,1.44-.86,4.99-.67,8.38-2.02,10.18-4.06,1.8-2.04,2.7-5.45,2.7-10.22v-1.92c0-.21-.12-.32-.36-.32h-10.52c-.21,0-.32,.11-.32,.32v5.52c0,.61-.23,1.15-.68,1.6-.45,.45-.99,.68-1.6,.68h-.68c-.61,0-1.14-.23-1.58-.68-.44-.45-.66-.99-.66-1.6v-5.52c0-.21-.12-.32-.36-.32h-3.92Z"/><path class="cls-5" d="M283.58,59.7c-.84,0-1.63-.26-2.32-.78-.81-.6-1.35-1.45-1.56-2.44l-.08-.34c-.19-1.04,.02-1.99,.6-2.81,.59-.84,1.44-1.35,2.47-1.49,4.59-.61,7.7-1.81,9.25-3.56,1.54-1.75,2.33-4.85,2.33-9.23v-.74h-8.2v4.34c0,1.01-.39,1.93-1.12,2.66-.73,.73-1.65,1.12-2.66,1.12h-.68c-1.02,0-1.94-.39-2.66-1.14-.71-.73-1.08-1.64-1.08-2.64v-4.34h-2.78c-1.01,0-1.93-.39-2.66-1.12-.73-.73-1.12-1.65-1.12-2.66v-.28c0-1.02,.39-1.94,1.14-2.66,.73-.71,1.64-1.08,2.64-1.08h2.78v-3.06c0-1.01,.38-1.92,1.1-2.64,.72-.72,1.63-1.1,2.64-1.1h.68c1,0,1.91,.37,2.64,1.08,.74,.72,1.14,1.64,1.14,2.66v3.06h8.2v-3.06c0-1.01,.38-1.92,1.1-2.64,.72-.72,1.63-1.1,2.64-1.1h.96c1.01,0,1.92,.38,2.64,1.1,.72,.72,1.1,1.63,1.1,2.64v3.06h2.78c1,0,1.92,.38,2.65,1.08,.74,.72,1.14,1.64,1.14,2.66v.28c0,1.01-.39,1.93-1.12,2.66-.73,.73-1.65,1.12-2.66,1.12h-2.78v.74c0,6.43-1.46,11.32-4.35,14.52-2.87,3.19-7.68,5.24-14.29,6.08-.17,.02-.34,.03-.51,.03Zm1.32-24.38h10.52c1.06,0,1.86,.78,1.86,1.82v1.92c0,5.2-1.01,8.87-3.08,11.21-2.07,2.34-5.7,3.83-11.11,4.55-.23,.03-.32,.11-.41,.24-.12,.17-.15,.3-.11,.49l.07,.3c.06,.3,.18,.49,.41,.66,.21,.16,.4,.21,.66,.17,5.87-.75,10.05-2.47,12.43-5.12,2.37-2.64,3.58-6.85,3.58-12.52v-1.92c0-1.04,.8-1.82,1.86-1.82h3.92c.18,0,.34-.04,.54-.24,.2-.2,.24-.36,.24-.54v-.28c0-.17-.04-.32-.23-.5-.17-.17-.33-.24-.56-.24h-3.92c-1.06,0-1.86-.8-1.86-1.86v-4.2c0-.21-.06-.36-.22-.52-.16-.16-.3-.22-.52-.22h-.96c-.22,0-.36,.06-.52,.22-.16,.16-.22,.3-.22,.52v4.2c0,1.06-.8,1.86-1.86,1.86h-10.52c-1.04,0-1.82-.8-1.82-1.86v-4.2c0-.17-.04-.32-.23-.5-.17-.17-.33-.23-.55-.23h-.68c-.22,0-.36,.06-.52,.22-.16,.16-.22,.3-.22,.52v4.2c0,1.06-.8,1.86-1.86,1.86h-3.92c-.22,0-.38,.07-.55,.24-.19,.18-.23,.33-.23,.5v.28c0,.18,.04,.34,.24,.54,.2,.2,.36,.24,.54,.24h3.92c1.06,0,1.86,.78,1.86,1.82v5.52c0,.22,.07,.38,.24,.55,.18,.19,.33,.23,.5,.23h.68c.18,0,.34-.04,.54-.24,.2-.2,.24-.36,.24-.54v-5.52c0-1.04,.78-1.82,1.82-1.82Z"/></g><g><path class="cls-5" d="M314.21,43.22l-.08-.44c-.11-.59,.02-1.13,.38-1.64,.36-.51,.85-.83,1.46-.96,4.88-.91,9.61-2.43,14.18-4.58,4.57-2.15,8.53-4.71,11.86-7.7,.45-.43,.99-.63,1.6-.6,.61,.03,1.12,.27,1.52,.72l.32,.36c.43,.48,.62,1.04,.58,1.68s-.3,1.17-.78,1.6c-2.8,2.48-6.01,4.72-9.64,6.72-.19,.11-.28,.27-.28,.48,0,.03,0,.06,.02,.1s.02,.07,.02,.1v17.2c0,.61-.23,1.15-.68,1.6-.45,.45-.99,.68-1.6,.68h-1.2c-.61,0-1.15-.23-1.6-.68-.45-.45-.68-.99-.68-1.6v-14.68c0-.19-.09-.25-.28-.2-3.97,1.65-8.15,2.89-12.52,3.72-.61,.11-1.17-.03-1.68-.4-.51-.37-.81-.87-.92-1.48Z"/><path class="cls-5" d="M333.09,60.04h-1.2c-1.01,0-1.93-.39-2.66-1.12-.73-.73-1.12-1.65-1.12-2.66v-12.78c-3.52,1.34-7.22,2.38-11.02,3.09-1.04,.18-2.01-.05-2.85-.67-.81-.6-1.33-1.44-1.51-2.42l-.08-.43c-.18-.98,.04-1.94,.63-2.78,.57-.81,1.39-1.35,2.36-1.56,4.77-.89,9.42-2.39,13.86-4.47,4.42-2.07,8.29-4.58,11.5-7.46,.72-.68,1.64-1.02,2.66-.98,1.02,.05,1.92,.47,2.58,1.23l.32,.35c.69,.78,1.02,1.74,.96,2.77-.06,1.03-.51,1.94-1.28,2.63-2.73,2.42-5.88,4.64-9.38,6.61v16.87c0,1.01-.39,1.93-1.12,2.66-.73,.73-1.65,1.12-2.66,1.12Zm-3.65-20.18c.37,0,.72,.11,1.01,.33,.42,.32,.66,.82,.66,1.38v14.68c0,.18,.04,.34,.24,.54,.2,.2,.36,.24,.54,.24h1.2c.18,0,.34-.04,.54-.24,.2-.2,.24-.36,.24-.54v-17.03c-.03-.12-.04-.25-.04-.37,0-.76,.38-1.41,1.03-1.78,3.54-1.95,6.69-4.15,9.39-6.54,.18-.16,.26-.33,.28-.57,.01-.24-.04-.41-.21-.59l-.32-.36c-.13-.15-.26-.21-.47-.22-.21,0-.35,.04-.51,.19-3.46,3.1-7.57,5.77-12.25,7.97-4.67,2.19-9.56,3.77-14.54,4.7-.2,.04-.37,.15-.51,.35-.14,.2-.15,.35-.13,.5l.08,.45c.04,.23,.14,.38,.33,.53,.18,.13,.32,.17,.53,.13,4.23-.8,8.34-2.02,12.2-3.63l.17-.06c.17-.05,.35-.07,.52-.07Zm4.49-.42h0Zm2.84-.97h0Z"/></g><g><path class="cls-5" d="M361.62,58.66c-.61,0-1.14-.22-1.58-.66-.44-.44-.66-.97-.66-1.58V27.86c0-.61,.22-1.14,.66-1.58,.44-.44,.97-.66,1.58-.66h1.08c.61,0,1.15,.22,1.6,.66,.45,.44,.68,.97,.68,1.58v8.64c0,.24,.09,.37,.28,.4,6.35,1.55,12.8,3.48,19.36,5.8,.59,.21,1.02,.6,1.3,1.16s.31,1.15,.1,1.76l-.24,.76c-.21,.59-.59,1.01-1.14,1.28s-1.11,.31-1.7,.12c-6.32-2.21-12.21-4.01-17.68-5.4-.08-.03-.15,0-.2,.06-.05,.07-.08,.14-.08,.22v13.76c0,.61-.23,1.14-.68,1.58-.45,.44-.99,.66-1.6,.66h-1.08Z"/><path class="cls-5" d="M362.7,60.16h-1.08c-1.01,0-1.92-.38-2.64-1.1-.72-.72-1.1-1.63-1.1-2.64V27.86c0-1.01,.38-1.92,1.1-2.64,.72-.72,1.63-1.1,2.64-1.1h1.08c1,0,1.91,.38,2.64,1.08,.74,.72,1.14,1.64,1.14,2.66v7.8c6.1,1.52,12.37,3.41,18.64,5.63,.96,.35,1.69,1.01,2.14,1.9,.46,.92,.52,1.93,.17,2.92l-.22,.72c-.37,1.01-1.02,1.74-1.91,2.18-.89,.43-1.86,.5-2.81,.2-5.67-1.99-11.04-3.65-16.01-4.96v12.17c0,1.02-.39,1.94-1.14,2.66-.73,.71-1.64,1.08-2.64,1.08Zm-1.08-33.04c-.21,0-.36,.06-.52,.22s-.22,.31-.22,.52v28.56c0,.21,.06,.36,.22,.52s.31,.22,.52,.22h1.08c.22,0,.38-.07,.56-.24,.19-.18,.22-.33,.22-.5v-13.76c0-.43,.14-.83,.41-1.16,.44-.54,1.15-.76,1.82-.55,5.41,1.37,11.4,3.2,17.72,5.41,.18,.06,.35,.04,.55-.05,.2-.09,.31-.22,.39-.45l.22-.7c.11-.31,.07-.47,0-.64-.11-.22-.25-.34-.47-.42-6.45-2.28-12.9-4.21-19.16-5.74-.87-.17-1.47-.92-1.47-1.87v-8.64c0-.17-.04-.32-.23-.5-.17-.17-.33-.24-.55-.24h-1.08Zm3.27,16.71s.08,.02,.11,.03c-.04,0-.08-.02-.11-.03Z"/></g><g><path class="cls-5" d="M396.41,32.42c-.61,0-1.14-.23-1.58-.68-.44-.45-.66-.99-.66-1.6v-.4c0-.61,.22-1.15,.66-1.6,.44-.45,.97-.68,1.58-.68h27.76c.61,0,1.14,.23,1.58,.68,.44,.45,.66,.99,.66,1.6v2.68c-2.27,6.99-7.31,12.63-15.12,16.92-.19,.11-.21,.25-.08,.44,.37,.53,.89,1.3,1.56,2.3,.67,1,1.15,1.71,1.44,2.14,.35,.53,.45,1.09,.32,1.68-.13,.59-.47,1.04-1,1.36l-.88,.56c-.53,.35-1.11,.45-1.72,.32-.61-.13-1.11-.47-1.48-1-3.01-4.45-6.15-8.91-9.4-13.36-.37-.51-.5-1.06-.38-1.66s.43-1.07,.94-1.42l.84-.56c.53-.37,1.11-.5,1.74-.38,.63,.12,1.13,.43,1.5,.94,.29,.4,1.28,1.75,2.96,4.04,.13,.19,.29,.23,.48,.12,2.85-1.52,5.37-3.35,7.54-5.5,2.17-2.15,3.77-4.35,4.78-6.62,.11-.21,.04-.32-.2-.32h-23.84Z"/><path class="cls-5" d="M411.43,59.7c-.27,0-.54-.03-.82-.09-.98-.21-1.81-.77-2.39-1.61-3-4.43-6.15-8.91-9.38-13.34-.62-.84-.84-1.82-.64-2.84,.2-.98,.74-1.8,1.56-2.36l.85-.57c.84-.58,1.83-.8,2.85-.61,.99,.19,1.83,.71,2.42,1.52l2.38,3.25c2.38-1.36,4.5-2.96,6.33-4.77,1.45-1.43,2.63-2.89,3.52-4.37h-21.73c-1.02,0-1.94-.39-2.66-1.14-.71-.73-1.08-1.64-1.08-2.64v-.4c0-1,.38-1.92,1.08-2.65,.72-.74,1.64-1.13,2.66-1.13h27.76c1.02,0,1.93,.39,2.66,1.13,.71,.73,1.08,1.65,1.08,2.65v2.92l-.07,.23c-2.26,6.97-7.19,12.72-14.66,17.11,.25,.37,.53,.79,.84,1.25,.66,.99,1.14,1.7,1.43,2.12,.59,.9,.77,1.88,.55,2.86-.22,.99-.81,1.78-1.69,2.31l-.85,.54c-.62,.4-1.31,.61-2.03,.61Zm-8.69-18.48c-.15,0-.28,.05-.43,.15l-.87,.58c-.17,.12-.26,.25-.3,.47-.03,.16-.02,.29,.12,.47,3.26,4.46,6.43,8.97,9.44,13.41,.14,.2,.31,.32,.56,.38,.22,.05,.38,.02,.58-.11l.89-.57c.24-.15,.31-.27,.34-.43,.04-.16,.03-.31-.12-.53-.27-.4-.76-1.12-1.43-2.13-.66-.99-1.17-1.74-1.54-2.27-.31-.43-.42-.94-.32-1.43,.11-.49,.42-.9,.88-1.17,7.37-4.05,12.2-9.38,14.37-15.86v-2.44c0-.22-.07-.38-.24-.55-.18-.19-.33-.23-.5-.23h-27.76c-.18,0-.32,.04-.5,.23-.17,.17-.24,.33-.24,.55v.4c0,.22,.07,.38,.24,.55,.18,.19,.33,.23,.5,.23h23.84c.92,0,1.36,.55,1.51,.79,.15,.24,.45,.88,.04,1.7-1.06,2.37-2.77,4.75-5.07,7.02-2.27,2.24-4.92,4.17-7.89,5.76-.82,.47-1.83,.24-2.41-.57l-2.95-4.02c-.14-.2-.32-.3-.57-.35-.06-.01-.12-.02-.17-.02Zm9.69,7.69v0Zm-3.58-5.07v0Zm-1.41-.3s-.03,.02-.05,.03c.02,0,.03-.02,.05-.03Zm11.65-11.4s-.01,.03-.02,.05c0-.02,.01-.03,.02-.05Z"/></g><g><path class="cls-5" d="M439.13,43.7c-.64-2.69-1.17-4.79-1.6-6.28-.16-.61-.08-1.19,.24-1.72,.32-.53,.77-.87,1.36-1l.08-.04c.61-.13,1.19-.05,1.74,.26,.55,.31,.91,.77,1.1,1.38,.53,1.87,1.09,3.97,1.68,6.32,.16,.59,.08,1.15-.24,1.7-.32,.55-.79,.89-1.4,1.02l-.2,.04c-.61,.13-1.19,.03-1.74-.3-.55-.33-.89-.79-1.02-1.38Zm22-10.28c.64,.03,1.17,.28,1.6,.76,.43,.48,.63,1.04,.6,1.68-.32,7.07-1.9,12.27-4.74,15.62-2.84,3.35-7.39,5.5-13.66,6.46-.64,.11-1.22-.03-1.74-.42-.52-.39-.85-.9-.98-1.54-.11-.59,.01-1.13,.36-1.64,.35-.51,.83-.81,1.44-.92,5.15-.88,8.79-2.61,10.92-5.2,2.13-2.59,3.33-6.8,3.6-12.64,.03-.61,.27-1.13,.72-1.56,.45-.43,.99-.63,1.6-.6h.28Zm-10.52,11.2c-.61,.13-1.19,.04-1.72-.28-.53-.32-.88-.79-1.04-1.4-.24-.88-.81-3.07-1.72-6.56-.16-.61-.08-1.19,.24-1.72,.32-.53,.77-.87,1.36-1l.2-.04c.61-.13,1.2-.04,1.76,.28,.56,.32,.92,.79,1.08,1.4,.75,2.77,1.32,4.96,1.72,6.56,.16,.59,.07,1.15-.26,1.7-.33,.55-.81,.89-1.42,1.02l-.2,.04Z"/><path class="cls-5" d="M444.53,59.48c-.79,0-1.56-.25-2.23-.75-.81-.6-1.35-1.45-1.55-2.44-.18-1.01,.02-1.96,.59-2.79,.57-.84,1.41-1.37,2.42-1.55,4.76-.81,8.13-2.39,10.02-4.68,1.91-2.32,3.01-6.27,3.26-11.75,.04-1,.45-1.89,1.19-2.58,.74-.7,1.67-1.04,2.69-1.01h.28c1.04,.04,1.96,.48,2.66,1.26,.68,.77,1.02,1.71,.98,2.74-.33,7.38-2.05,12.94-5.1,16.53-3.07,3.61-7.97,5.96-14.58,6.97-.21,.04-.42,.05-.63,.05Zm16.26-24.56c-.23,0-.36,.06-.51,.19-.17,.16-.24,.31-.25,.53-.29,6.24-1.58,10.66-3.94,13.53-2.36,2.86-6.34,4.79-11.82,5.72-.21,.04-.34,.12-.45,.29-.14,.21-.15,.36-.12,.53,.05,.24,.17,.44,.4,.6,.19,.14,.37,.18,.6,.14,5.89-.9,10.18-2.9,12.76-5.95,2.61-3.07,4.08-8.02,4.39-14.72,0-.25-.05-.43-.22-.62-.15-.17-.3-.24-.52-.26h-.24s-.04,0-.06,0Zm-19.41,12.02c-.69,0-1.38-.19-2.01-.58-.89-.54-1.47-1.34-1.7-2.32-.62-2.63-1.16-4.72-1.58-6.21-.27-1.03-.13-2.02,.4-2.9,.49-.82,1.22-1.39,2.12-1.64l.29-.09c.96-.21,1.93-.06,2.79,.42,.88,.5,1.51,1.28,1.8,2.25,.54,1.9,1.11,4.05,1.7,6.39,.26,.95,.12,1.93-.4,2.82-.53,.91-1.35,1.51-2.38,1.73l-.22,.04c-.27,.06-.54,.09-.81,.09Zm-1.73-10.83l-.18,.06c-.16,.04-.28,.1-.41,.31-.11,.19-.13,.35-.08,.57,.43,1.5,.97,3.64,1.61,6.31v.02c.04,.16,.11,.29,.34,.43,.22,.13,.41,.17,.64,.12l.23-.04c.18-.04,.29-.12,.4-.31,.13-.23,.13-.39,.09-.55-.59-2.34-1.15-4.45-1.68-6.3-.07-.22-.18-.37-.39-.49-.19-.11-.37-.14-.57-.12Zm10.44,10.07c-.69,0-1.36-.19-1.97-.55-.87-.52-1.46-1.32-1.72-2.31-.24-.87-.81-3.06-1.72-6.56-.26-1-.12-1.99,.41-2.87,.53-.88,1.33-1.47,2.31-1.69l.24-.05c.95-.2,1.92-.05,2.8,.45,.91,.52,1.53,1.32,1.79,2.32,.75,2.78,1.32,4.97,1.72,6.58,.26,.95,.11,1.95-.43,2.84-.55,.9-1.37,1.49-2.38,1.71l-.21,.04c-.28,.06-.56,.09-.83,.09Zm-1.62-11.12c-.07,0-.14,0-.22,.02l-.22,.04c-.12,.03-.25,.09-.37,.3-.11,.19-.13,.35-.08,.57,.9,3.49,1.48,5.67,1.72,6.55,.06,.25,.17,.39,.36,.51,.21,.12,.39,.16,.63,.1l.22-.04c.19-.04,.32-.13,.44-.33,.14-.22,.14-.37,.09-.52-.41-1.62-.98-3.8-1.72-6.57-.06-.23-.17-.37-.38-.49-.17-.09-.32-.14-.48-.14Z"/></g><g><path class="cls-5" d="M503.89,22.54c1.65,0,3.07,.59,4.24,1.76,1.17,1.17,1.76,2.59,1.76,4.24s-.54,2.94-1.62,4.1c-1.08,1.16-2.41,1.79-3.98,1.9-.21,0-.32,.09-.32,.28v.32c-.83,6.91-3.19,12.23-7.08,15.96-3.89,3.73-9.47,6.08-16.72,7.04-.64,.08-1.21-.07-1.72-.46-.51-.39-.83-.89-.96-1.5l-.12-.48c-.11-.59,.01-1.13,.36-1.62,.35-.49,.83-.78,1.44-.86,6.24-.85,10.89-2.81,13.94-5.88,3.05-3.07,4.85-7.63,5.38-13.68,0-.21-.09-.32-.28-.32h-22.04c-.61,0-1.15-.23-1.6-.68-.45-.45-.68-.99-.68-1.6v-.52c0-.61,.23-1.15,.68-1.6,.45-.45,.99-.68,1.6-.68h21.4c.19,0,.31-.12,.36-.36,.16-1.52,.81-2.79,1.94-3.82,1.13-1.03,2.47-1.54,4.02-1.54Zm-1.84,7.84c.51,.51,1.12,.76,1.84,.76s1.33-.25,1.84-.76,.76-1.12,.76-1.84-.25-1.33-.76-1.84c-.51-.51-1.12-.76-1.84-.76s-1.33,.25-1.84,.76c-.51,.51-.76,1.12-.76,1.84s.25,1.33,.76,1.84Z"/><path class="cls-5" d="M479.86,59.66c-.84,0-1.63-.27-2.31-.79-.79-.6-1.31-1.42-1.52-2.37l-.11-.43c-.2-1.07,.01-2.03,.59-2.85,.59-.84,1.44-1.35,2.47-1.48,5.87-.8,10.27-2.64,13.07-5.45,2.57-2.58,4.18-6.42,4.81-11.44h-20.69c-1.01,0-1.93-.39-2.66-1.12-.73-.73-1.12-1.65-1.12-2.66v-.52c0-1.01,.39-1.93,1.12-2.66,.73-.73,1.65-1.12,2.66-1.12h20.43c.34-1.47,1.1-2.74,2.26-3.79,1.41-1.28,3.1-1.93,5.03-1.93,2.06,0,3.84,.74,5.3,2.2,1.46,1.46,2.2,3.25,2.2,5.3s-.68,3.68-2.02,5.12c-1.11,1.19-2.45,1.95-3.98,2.25-.93,6.95-3.44,12.42-7.46,16.28-4.11,3.94-10.02,6.45-17.56,7.44-.17,.02-.34,.03-.51,.03Zm-3.68-29.9c-.18,0-.34,.04-.54,.24s-.24,.36-.24,.54v.52c0,.18,.04,.34,.24,.54s.36,.24,.54,.24h22.04c1.01,0,1.78,.78,1.78,1.82v.13c-.57,6.39-2.52,11.3-5.82,14.61-3.28,3.29-8.26,5.41-14.8,6.31-.23,.03-.33,.11-.41,.23-.12,.17-.15,.3-.11,.49l.1,.39c.07,.31,.19,.5,.42,.67,.19,.15,.37,.19,.62,.16,6.89-.91,12.23-3.14,15.87-6.63,3.6-3.45,5.83-8.49,6.62-14.97v-.23c0-.99,.75-1.75,1.75-1.78,1.17-.09,2.14-.55,2.95-1.42,.82-.88,1.22-1.89,1.22-3.08,0-1.25-.43-2.29-1.32-3.18s-1.93-1.32-3.18-1.32c-1.17,0-2.16,.38-3.01,1.15-.86,.78-1.33,1.72-1.46,2.87l-.03,.17c-.21,.93-.92,1.53-1.82,1.53h-21.4Zm27.72,2.88c-1.11,0-2.11-.42-2.9-1.2h0c-.79-.78-1.2-1.79-1.2-2.9s.42-2.12,1.2-2.9c.79-.79,1.79-1.2,2.9-1.2s2.12,.41,2.9,1.2c.79,.79,1.2,1.79,1.2,2.9s-.42,2.12-1.2,2.9-1.79,1.2-2.9,1.2Zm0-5.2c-.32,0-.55,.1-.78,.32s-.32,.46-.32,.78,.1,.55,.32,.78h0c.45,.45,1.11,.45,1.56,0,.22-.22,.32-.46,.32-.78s-.1-.55-.32-.78-.46-.32-.78-.32Z"/></g><g><path class="cls-1" d="M275.09,36.82c-.61,0-1.15-.23-1.6-.68-.45-.45-.68-.99-.68-1.6v-.28c0-.61,.23-1.14,.68-1.58,.45-.44,.99-.66,1.6-.66h3.92c.24,0,.36-.12,.36-.36v-4.2c0-.61,.22-1.14,.66-1.58,.44-.44,.97-.66,1.58-.66h.68c.61,0,1.15,.22,1.6,.66s.68,.97,.68,1.58v4.2c0,.24,.11,.36,.32,.36h10.52c.24,0,.36-.12,.36-.36v-4.2c0-.61,.22-1.14,.66-1.58,.44-.44,.97-.66,1.58-.66h.96c.61,0,1.14,.22,1.58,.66,.44,.44,.66,.97,.66,1.58v4.2c0,.24,.12,.36,.36,.36h3.92c.61,0,1.15,.22,1.6,.66s.68,.97,.68,1.58v.28c0,.61-.23,1.15-.68,1.6-.45,.45-.99,.68-1.6,.68h-3.92c-.24,0-.36,.11-.36,.32v1.92c0,6.08-1.32,10.59-3.96,13.52-2.64,2.93-7.09,4.8-13.36,5.6-.64,.08-1.22-.07-1.74-.46-.52-.39-.85-.9-.98-1.54l-.08-.36c-.11-.59,.01-1.13,.36-1.62,.35-.49,.83-.78,1.44-.86,4.99-.67,8.38-2.02,10.18-4.06,1.8-2.04,2.7-5.45,2.7-10.22v-1.92c0-.21-.12-.32-.36-.32h-10.52c-.21,0-.32,.11-.32,.32v5.52c0,.61-.23,1.15-.68,1.6-.45,.45-.99,.68-1.6,.68h-.68c-.61,0-1.14-.23-1.58-.68-.44-.45-.66-.99-.66-1.6v-5.52c0-.21-.12-.32-.36-.32h-3.92Z"/><path class="cls-5" d="M283.57,58.7c-.62,0-1.19-.19-1.71-.58-.62-.46-1.01-1.08-1.17-1.84l-.08-.35c-.13-.74,.01-1.41,.44-2.02,.43-.61,1.03-.97,1.78-1.07,4.84-.65,8.16-1.96,9.87-3.89,1.71-1.94,2.58-5.26,2.58-9.89v-1.74h-10.2v5.34c0,.75-.28,1.41-.83,1.95-.55,.55-1.21,.83-1.95,.83h-.68c-.75,0-1.4-.28-1.94-.83-.53-.55-.8-1.2-.8-1.95v-5.34h-3.78c-.75,0-1.4-.28-1.95-.83-.55-.55-.83-1.21-.83-1.95v-.28c0-.75,.28-1.4,.83-1.94,.55-.53,1.2-.8,1.95-.8h3.78v-4.06c0-.75,.27-1.4,.81-1.93,.53-.53,1.19-.81,1.93-.81h.68c.74,0,1.4,.27,1.95,.8,.55,.54,.83,1.19,.83,1.94v4.06h10.2v-4.06c0-.75,.27-1.4,.81-1.93,.54-.54,1.19-.81,1.93-.81h.96c.75,0,1.4,.27,1.93,.81,.54,.54,.81,1.19,.81,1.93v4.06h3.78c.75,0,1.4,.27,1.95,.8,.55,.54,.83,1.19,.83,1.94v.28c0,.75-.28,1.41-.83,1.95-.55,.55-1.21,.83-1.95,.83h-3.78v1.74c0,6.18-1.38,10.84-4.09,13.85-2.71,3.01-7.31,4.95-13.67,5.76-.13,.02-.26,.02-.39,.02Zm1.32-22.38h10.52c.51,0,.86,.33,.86,.82v1.92c0,4.88-.95,8.43-2.83,10.55-1.87,2.12-5.4,3.54-10.49,4.22-.47,.06-.83,.28-1.1,.65-.27,.38-.36,.79-.28,1.24l.08,.34c.11,.53,.37,.93,.79,1.25,.42,.31,.87,.43,1.38,.37,6.12-.78,10.51-2.61,13.05-5.44,2.54-2.83,3.83-7.26,3.83-13.19v-1.92c0-.49,.35-.82,.86-.82h3.92c.48,0,.89-.17,1.25-.53,.36-.36,.53-.77,.53-1.25v-.28c0-.48-.17-.88-.53-1.22-.36-.35-.77-.52-1.25-.52h-3.92c-.51,0-.86-.35-.86-.86v-4.2c0-.48-.17-.88-.51-1.23-.35-.34-.75-.51-1.23-.51h-.96c-.48,0-.88,.17-1.23,.51-.34,.35-.51,.75-.51,1.23v4.2c0,.51-.35,.86-.86,.86h-10.52c-.49,0-.82-.35-.82-.86v-4.2c0-.48-.17-.88-.53-1.22-.36-.35-.77-.52-1.25-.52h-.68c-.48,0-.88,.17-1.23,.51-.35,.35-.51,.75-.51,1.23v4.2c0,.51-.35,.86-.86,.86h-3.92c-.48,0-.89,.17-1.25,.52-.36,.34-.53,.74-.53,1.22v.28c0,.48,.17,.89,.53,1.25,.36,.36,.77,.53,1.25,.53h3.92c.51,0,.86,.33,.86,.82v5.52c0,.48,.17,.89,.52,1.25,.34,.36,.74,.53,1.22,.53h.68c.48,0,.89-.17,1.25-.53,.36-.36,.53-.77,.53-1.25v-5.52c0-.49,.33-.82,.82-.82Z"/></g><g><path class="cls-1" d="M314.21,43.22l-.08-.44c-.11-.59,.02-1.13,.38-1.64,.36-.51,.85-.83,1.46-.96,4.88-.91,9.61-2.43,14.18-4.58,4.57-2.15,8.53-4.71,11.86-7.7,.45-.43,.99-.63,1.6-.6,.61,.03,1.12,.27,1.52,.72l.32,.36c.43,.48,.62,1.04,.58,1.68s-.3,1.17-.78,1.6c-2.8,2.48-6.01,4.72-9.64,6.72-.19,.11-.28,.27-.28,.48,0,.03,0,.06,.02,.1s.02,.07,.02,.1v17.2c0,.61-.23,1.15-.68,1.6-.45,.45-.99,.68-1.6,.68h-1.2c-.61,0-1.15-.23-1.6-.68-.45-.45-.68-.99-.68-1.6v-14.68c0-.19-.09-.25-.28-.2-3.97,1.65-8.15,2.89-12.52,3.72-.61,.11-1.17-.03-1.68-.4-.51-.37-.81-.87-.92-1.48Z"/><path class="cls-5" d="M333.09,59.04h-1.2c-.75,0-1.4-.28-1.95-.83s-.83-1.21-.83-1.95v-14.25c-3.83,1.57-7.96,2.78-12.21,3.58-.76,.13-1.45-.03-2.07-.49-.61-.45-.99-1.05-1.12-1.79l-.08-.44c-.13-.72,.02-1.4,.46-2.02,.43-.61,1.03-1,1.76-1.16,4.83-.9,9.56-2.42,14.07-4.54,4.51-2.11,8.46-4.68,11.74-7.62,.54-.51,1.21-.75,1.96-.73,.75,.03,1.38,.33,1.87,.89l.32,.36c.52,.58,.75,1.27,.71,2.04-.05,.77-.37,1.43-.95,1.94-2.81,2.49-6.08,4.77-9.73,6.78,0,.07,.02,.16,.02,.24v17.2c0,.75-.28,1.4-.83,1.95-.55,.55-1.21,.83-1.95,.83Zm-3.64-18.17c.19,0,.31,.06,.39,.12,.1,.07,.27,.25,.27,.59v14.68c0,.48,.17,.89,.53,1.25s.77,.53,1.25,.53h1.2c.48,0,.89-.17,1.25-.53,.36-.36,.53-.77,.53-1.25v-17.2s-.04-.12-.04-.2c0-.39,.19-.72,.53-.91,3.59-1.98,6.8-4.22,9.56-6.66,.38-.34,.58-.75,.61-1.26,.03-.51-.12-.94-.46-1.32l-.32-.36c-.31-.35-.69-.53-1.17-.55-.49-.02-.88,.13-1.24,.47-3.36,3.01-7.4,5.63-11.99,7.79-4.59,2.16-9.41,3.71-14.3,4.62-.48,.1-.86,.35-1.14,.76-.28,.4-.38,.81-.3,1.26l.08,.44c.08,.49,.32,.87,.72,1.16,.4,.29,.82,.39,1.3,.31,4.31-.81,8.49-2.06,12.41-3.69,.12-.04,.22-.05,.31-.05Z"/></g><g><path class="cls-1" d="M361.62,58.66c-.61,0-1.14-.22-1.58-.66-.44-.44-.66-.97-.66-1.58V27.86c0-.61,.22-1.14,.66-1.58,.44-.44,.97-.66,1.58-.66h1.08c.61,0,1.15,.22,1.6,.66,.45,.44,.68,.97,.68,1.58v8.64c0,.24,.09,.37,.28,.4,6.35,1.55,12.8,3.48,19.36,5.8,.59,.21,1.02,.6,1.3,1.16s.31,1.15,.1,1.76l-.24,.76c-.21,.59-.59,1.01-1.14,1.28s-1.11,.31-1.7,.12c-6.32-2.21-12.21-4.01-17.68-5.4-.08-.03-.15,0-.2,.06-.05,.07-.08,.14-.08,.22v13.76c0,.61-.23,1.14-.68,1.58-.45,.44-.99,.66-1.6,.66h-1.08Z"/><path class="cls-5" d="M362.7,59.16h-1.08c-.75,0-1.4-.27-1.93-.81-.54-.53-.81-1.18-.81-1.93V27.86c0-.75,.27-1.4,.81-1.93,.53-.54,1.18-.81,1.93-.81h1.08c.74,0,1.4,.27,1.95,.8,.55,.54,.83,1.19,.83,1.94v8.58c6.34,1.55,12.82,3.49,19.31,5.79,.71,.26,1.24,.73,1.58,1.41,.34,.68,.38,1.41,.12,2.15l-.23,.75c-.27,.73-.73,1.26-1.4,1.58-.66,.32-1.36,.37-2.07,.15-6.16-2.16-11.99-3.94-17.34-5.31l.03,13.48c0,.75-.28,1.4-.83,1.94-.55,.53-1.2,.8-1.95,.8Zm-1.08-33.04c-.48,0-.88,.17-1.23,.51-.35,.35-.51,.75-.51,1.23v28.56c0,.48,.17,.88,.51,1.23,.34,.35,.75,.51,1.23,.51h1.08c.48,0,.89-.17,1.25-.52,.35-.34,.53-.74,.53-1.22v-13.76c0-.19,.07-.38,.19-.53,.18-.22,.47-.31,.74-.22,5.43,1.38,11.4,3.2,17.69,5.41,.45,.14,.88,.11,1.32-.1,.43-.21,.72-.54,.89-1l.23-.74c.17-.5,.15-.95-.07-1.39-.22-.44-.56-.74-1.02-.91-6.5-2.3-13-4.25-19.31-5.78-.29-.04-.66-.3-.66-.89v-8.64c0-.48-.17-.88-.53-1.22-.36-.35-.77-.52-1.25-.52h-1.08Zm3.52,16.74h0Zm.19-6.46h.02s-.02,0-.02,0Z"/></g><g><path class="cls-1" d="M396.41,32.42c-.61,0-1.14-.23-1.58-.68-.44-.45-.66-.99-.66-1.6v-.4c0-.61,.22-1.15,.66-1.6,.44-.45,.97-.68,1.58-.68h27.76c.61,0,1.14,.23,1.58,.68,.44,.45,.66,.99,.66,1.6v2.68c-2.27,6.99-7.31,12.63-15.12,16.92-.19,.11-.21,.25-.08,.44,.37,.53,.89,1.3,1.56,2.3,.67,1,1.15,1.71,1.44,2.14,.35,.53,.45,1.09,.32,1.68-.13,.59-.47,1.04-1,1.36l-.88,.56c-.53,.35-1.11,.45-1.72,.32-.61-.13-1.11-.47-1.48-1-3.01-4.45-6.15-8.91-9.4-13.36-.37-.51-.5-1.06-.38-1.66s.43-1.07,.94-1.42l.84-.56c.53-.37,1.11-.5,1.74-.38,.63,.12,1.13,.43,1.5,.94,.29,.4,1.28,1.75,2.96,4.04,.13,.19,.29,.23,.48,.12,2.85-1.52,5.37-3.35,7.54-5.5,2.17-2.15,3.77-4.35,4.78-6.62,.11-.21,.04-.32-.2-.32h-23.84Z"/><path class="cls-5" d="M411.44,58.7c-.2,0-.4-.02-.61-.07-.74-.16-1.34-.57-1.78-1.2-2.99-4.42-6.15-8.91-9.39-13.35-.46-.62-.62-1.31-.47-2.05,.15-.73,.53-1.31,1.15-1.74l.84-.56c.64-.45,1.36-.6,2.11-.46,.75,.14,1.36,.52,1.81,1.13l2.9,3.96c2.77-1.49,5.22-3.29,7.32-5.36,2-1.97,3.51-4.02,4.5-6.08h-23.41c-.75,0-1.4-.28-1.94-.83-.53-.55-.8-1.2-.8-1.95v-.4c0-.75,.27-1.4,.8-1.95,.54-.55,1.19-.83,1.94-.83h27.76c.75,0,1.4,.28,1.94,.83,.53,.55,.8,1.2,.8,1.95l-.02,2.83c-2.28,7.02-7.37,12.77-15.15,17.09,.37,.54,.85,1.24,1.45,2.14,.66,1,1.14,1.71,1.44,2.13,.43,.66,.56,1.35,.4,2.07-.16,.72-.58,1.29-1.23,1.68l-.87,.55c-.47,.3-.96,.45-1.49,.45Zm-8.69-18.48c-.36,0-.69,.11-1,.33l-.85,.57c-.39,.27-.63,.63-.73,1.1-.09,.46,0,.87,.29,1.26,3.25,4.45,6.42,8.95,9.41,13.38,.3,.42,.68,.68,1.17,.79,.48,.11,.92,.02,1.34-.25l.88-.56c.43-.26,.68-.6,.78-1.05,.1-.45,.02-.88-.25-1.3-.29-.42-.77-1.13-1.44-2.14-.66-1-1.18-1.76-1.55-2.29-.19-.26-.19-.5-.16-.65,.03-.15,.13-.36,.4-.51,7.64-4.2,12.64-9.77,14.87-16.57v-2.6c0-.48-.17-.89-.52-1.25-.35-.36-.75-.53-1.22-.53h-27.76c-.48,0-.88,.17-1.22,.53-.35,.36-.52,.77-.52,1.25v.4c0,.48,.17,.89,.52,1.25,.34,.36,.74,.53,1.22,.53h23.84c.38,0,.57,.17,.66,.32,.09,.15,.16,.39,0,.73-1.03,2.29-2.67,4.57-4.88,6.75-2.2,2.17-4.77,4.05-7.66,5.59-.4,.23-.84,.12-1.12-.27l-2.96-4.04c-.3-.4-.69-.65-1.19-.74-.12-.02-.24-.04-.35-.04Z"/></g><g><path class="cls-1" d="M439.13,43.7c-.64-2.69-1.17-4.79-1.6-6.28-.16-.61-.08-1.19,.24-1.72,.32-.53,.77-.87,1.36-1l.08-.04c.61-.13,1.19-.05,1.74,.26,.55,.31,.91,.77,1.1,1.38,.53,1.87,1.09,3.97,1.68,6.32,.16,.59,.08,1.15-.24,1.7-.32,.55-.79,.89-1.4,1.02l-.2,.04c-.61,.13-1.19,.03-1.74-.3-.55-.33-.89-.79-1.02-1.38Zm22-10.28c.64,.03,1.17,.28,1.6,.76,.43,.48,.63,1.04,.6,1.68-.32,7.07-1.9,12.27-4.74,15.62-2.84,3.35-7.39,5.5-13.66,6.46-.64,.11-1.22-.03-1.74-.42-.52-.39-.85-.9-.98-1.54-.11-.59,.01-1.13,.36-1.64,.35-.51,.83-.81,1.44-.92,5.15-.88,8.79-2.61,10.92-5.2,2.13-2.59,3.33-6.8,3.6-12.64,.03-.61,.27-1.13,.72-1.56,.45-.43,.99-.63,1.6-.6h.28Zm-10.52,11.2c-.61,.13-1.19,.04-1.72-.28-.53-.32-.88-.79-1.04-1.4-.24-.88-.81-3.07-1.72-6.56-.16-.61-.08-1.19,.24-1.72,.32-.53,.77-.87,1.36-1l.2-.04c.61-.13,1.2-.04,1.76,.28,.56,.32,.92,.79,1.08,1.4,.75,2.77,1.32,4.96,1.72,6.56,.16,.59,.07,1.15-.26,1.7-.33,.55-.81,.89-1.42,1.02l-.2,.04Z"/><path class="cls-5" d="M444.53,58.48c-.58,0-1.13-.19-1.63-.55-.62-.46-1.01-1.08-1.17-1.84-.13-.73,.01-1.41,.44-2.02,.42-.62,1.02-1,1.77-1.13,5-.86,8.58-2.55,10.62-5.03,2.05-2.49,3.23-6.64,3.49-12.34,.03-.75,.33-1.38,.88-1.9,.55-.52,1.23-.75,1.96-.74h.28c.78,.03,1.43,.35,1.95,.93,.51,.58,.76,1.26,.73,2.03-.32,7.15-1.96,12.51-4.86,15.92-2.91,3.43-7.61,5.66-13.96,6.63-.17,.03-.33,.04-.49,.04Zm16.24-24.56c-.46,0-.83,.15-1.17,.47-.36,.34-.54,.73-.56,1.22-.27,5.93-1.52,10.28-3.71,12.94-2.2,2.67-5.98,4.48-11.22,5.37-.48,.08-.84,.32-1.11,.71-.27,.4-.36,.81-.28,1.27,.11,.51,.36,.91,.79,1.23,.41,.3,.85,.41,1.36,.33,6.12-.94,10.61-3.05,13.36-6.29,2.75-3.25,4.31-8.4,4.62-15.32,.02-.51-.13-.94-.47-1.33-.33-.38-.74-.57-1.24-.59h-.27s-.06,0-.09,0Zm-19.39,12.02c-.51,0-1.01-.14-1.48-.43-.66-.4-1.08-.97-1.25-1.69-.63-2.65-1.17-4.75-1.59-6.26-.2-.75-.1-1.46,.29-2.11,.38-.63,.92-1.04,1.62-1.22l.15-.06c.73-.16,1.44-.05,2.09,.31,.66,.37,1.11,.93,1.33,1.67,.54,1.88,1.1,4.01,1.69,6.34,.19,.71,.09,1.41-.29,2.07-.39,.67-.97,1.09-1.73,1.25l-.21,.04c-.21,.05-.41,.07-.62,.07Zm-2-10.8l-.13,.05c-.45,.1-.79,.36-1.04,.77-.25,.42-.31,.86-.19,1.34,.43,1.51,.97,3.63,1.6,6.29h0c.1,.46,.36,.81,.79,1.07,.44,.27,.88,.34,1.37,.24l.21-.04c.47-.1,.82-.36,1.07-.78,.25-.43,.31-.86,.19-1.32-.58-2.33-1.15-4.46-1.68-6.31-.15-.48-.43-.84-.86-1.08-.42-.24-.86-.31-1.33-.22Zm10.71,10.04c-.51,0-.99-.14-1.45-.41-.65-.39-1.07-.96-1.27-1.7-.24-.88-.81-3.06-1.72-6.56-.19-.74-.09-1.45,.3-2.1,.39-.65,.96-1.07,1.68-1.23l.21-.04c.73-.16,1.44-.04,2.11,.34,.68,.39,1.12,.96,1.32,1.71,.75,2.78,1.32,4.96,1.72,6.57,.19,.71,.09,1.42-.32,2.08s-.99,1.09-1.74,1.25l-.2,.04c-.21,.05-.43,.07-.63,.07Zm-1.61-11.12c-.14,0-.28,.02-.43,.05l-.21,.04c-.44,.1-.78,.35-1.03,.77-.25,.42-.31,.85-.19,1.33,.91,3.49,1.48,5.68,1.72,6.56,.13,.49,.39,.85,.81,1.1,.43,.25,.87,.33,1.36,.22l.21-.04c.47-.1,.83-.36,1.09-.79,.26-.43,.33-.86,.2-1.31-.4-1.61-.97-3.79-1.72-6.56-.13-.49-.4-.84-.85-1.1-.32-.18-.64-.27-.98-.27Z"/></g><g><path class="cls-1" d="M503.89,22.54c1.65,0,3.07,.59,4.24,1.76,1.17,1.17,1.76,2.59,1.76,4.24s-.54,2.94-1.62,4.1c-1.08,1.16-2.41,1.79-3.98,1.9-.21,0-.32,.09-.32,.28v.32c-.83,6.91-3.19,12.23-7.08,15.96-3.89,3.73-9.47,6.08-16.72,7.04-.64,.08-1.21-.07-1.72-.46-.51-.39-.83-.89-.96-1.5l-.12-.48c-.11-.59,.01-1.13,.36-1.62,.35-.49,.83-.78,1.44-.86,6.24-.85,10.89-2.81,13.94-5.88,3.05-3.07,4.85-7.63,5.38-13.68,0-.21-.09-.32-.28-.32h-22.04c-.61,0-1.15-.23-1.6-.68-.45-.45-.68-.99-.68-1.6v-.52c0-.61,.23-1.15,.68-1.6,.45-.45,.99-.68,1.6-.68h21.4c.19,0,.31-.12,.36-.36,.16-1.52,.81-2.79,1.94-3.82,1.13-1.03,2.47-1.54,4.02-1.54Zm-1.84,7.84c.51,.51,1.12,.76,1.84,.76s1.33-.25,1.84-.76,.76-1.12,.76-1.84-.25-1.33-.76-1.84c-.51-.51-1.12-.76-1.84-.76s-1.33,.25-1.84,.76c-.51,.51-.76,1.12-.76,1.84s.25,1.33,.76,1.84Z"/><path class="cls-5" d="M479.85,58.66c-.62,0-1.19-.2-1.7-.58-.6-.46-.99-1.06-1.15-1.79l-.12-.47c-.14-.75,.01-1.42,.44-2.03,.43-.61,1.03-.97,1.79-1.07,6.1-.83,10.69-2.76,13.65-5.74,2.92-2.93,4.67-7.35,5.22-13.15h-21.8c-.75,0-1.41-.28-1.95-.83-.55-.55-.83-1.21-.83-1.95v-.52c0-.75,.28-1.41,.83-1.95,.55-.55,1.21-.83,1.95-.83h21.27c.19-1.6,.9-2.96,2.1-4.05,1.22-1.11,2.69-1.67,4.36-1.67,1.78,0,3.33,.64,4.59,1.91,1.26,1.27,1.91,2.81,1.91,4.59s-.59,3.19-1.75,4.44c-1.13,1.21-2.53,1.9-4.17,2.05v.11c-.84,7.05-3.27,12.52-7.23,16.32-3.95,3.79-9.67,6.21-17,7.17-.13,.02-.26,.02-.39,.02Zm-3.68-29.9c-.48,0-.89,.17-1.25,.53-.36,.36-.53,.77-.53,1.25v.52c0,.48,.17,.89,.53,1.25,.36,.36,.77,.53,1.25,.53h22.04c.47,0,.78,.33,.78,.82-.54,6.19-2.4,10.9-5.53,14.03-3.12,3.13-7.91,5.16-14.23,6.02-.48,.06-.83,.27-1.1,.65-.27,.38-.36,.79-.28,1.24l.11,.45c.11,.51,.36,.91,.78,1.22,.4,.31,.84,.42,1.35,.36,7.11-.94,12.64-3.26,16.44-6.91,3.79-3.63,6.12-8.9,6.93-15.66v-.26c0-.47,.33-.78,.82-.78,1.42-.1,2.61-.67,3.61-1.74,1-1.07,1.49-2.3,1.49-3.76,0-1.53-.53-2.8-1.61-3.89-1.09-1.09-2.36-1.61-3.89-1.61-1.43,0-2.64,.46-3.68,1.41-1.05,.95-1.63,2.1-1.78,3.5-.11,.53-.43,.81-.86,.81h-21.4Zm27.72,2.88c-.85,0-1.59-.3-2.19-.91h0c-.6-.6-.91-1.34-.91-2.19s.3-1.59,.91-2.19c.6-.6,1.34-.91,2.19-.91s1.59,.3,2.19,.91c.6,.6,.91,1.34,.91,2.19s-.3,1.59-.91,2.19-1.34,.91-2.19,.91Zm0-5.2c-.59,0-1.07,.2-1.49,.61-.41,.41-.61,.9-.61,1.49s.2,1.07,.61,1.49h0c.41,.41,.9,.61,1.49,.61s1.07-.2,1.49-.61,.61-.9,.61-1.49-.2-1.07-.61-1.49c-.41-.41-.9-.61-1.49-.61Z"/></g></g></g></g></svg>