<?xml version="1.0" encoding="UTF-8"?><svg id="_イヤー_2" xmlns="http://www.w3.org/2000/svg" viewBox="0 0 127.48 41"><defs><style>.cls-1{fill:#88c1d8;}</style></defs><g id="_イヤー_1-2"><g><path class="cls-1" d="M127.34,7.31v.25c.05,.07,.09,.13,.15,.19l-.15-.44Z"/><path class="cls-1" d="M127.01,16.35c.12,.12,.17,.28,.19,.46,.05,0,.12-.02,.2-.1,.01-.21-.27-.29-.39-.37Z"/><path class="cls-1" d="M126.91,31.59l.04,.26-.04-.26Z"/><path class="cls-1" d="M76.51,.12h.04c.23-.03,.1-.02-.04,0Z"/><path class="cls-1" d="M56.54,.29s.12,.09,.2,.12c0-.03-.05-.06-.2-.12Z"/><path class="cls-1" d="M48.82,.68c-.2-.02-.27-.06-.54-.02,.03,.01,.05,.02,.08,.03,.1-.04,.23-.06,.46-.01Z"/><path class="cls-1" d="M40.78,.68s.1,.04,.15,.06l.25-.02-.4-.04Z"/><path class="cls-1" d="M48.49,2.9l-1.28-.04c.36,.03,.82,.04,1.28,.04Z"/><path class="cls-1" d="M23.52,38.23c.08-.01,.17-.03,.27-.05-.09,.02-.18,.04-.27,.05Z"/><path class="cls-1" d="M68.97,40.32c.05,0,.08-.02,.16-.02l-.23-.06-.13,.09h.2Z"/><polygon class="cls-1" points="30.26 38.2 30.26 38.28 30.47 38.21 30.26 38.2"/><path class="cls-1" d="M48.63,2.9h0Z"/><path class="cls-1" d="M127.26,18.14c.05,.79,.16,0,.22,.03-.1-.5-.12-.62-.22-.03Z"/><path class="cls-1" d="M18.29,.76c-.26-.16-.93-.26-1.35-.1,.54,.02,1.07,.14,1.35,.1Z"/><polygon class="cls-1" points="23.43 40.84 24.34 40.75 23.91 40.73 23.43 40.84"/><path class="cls-1" d="M.15,33.7v-.25c-.05-.07-.09-.13-.15-.19l.15,.44Z"/><path class="cls-1" d="M.48,24.66c-.12-.12-.17-.28-.19-.46-.05,0-.12,.02-.2,.1-.01,.21,.27,.29,.39,.37Z"/><path class="cls-1" d="M.58,9.41l-.04-.26,.04,.26Z"/><path class="cls-1" d="M50.98,40.89h-.04c-.23,.03-.1,.02,.04,0Z"/><path class="cls-1" d="M70.94,40.72s-.12-.09-.2-.12c0,.03,.05,.06,.2,.12Z"/><path class="cls-1" d="M78.66,40.32c.2,.02,.27,.06,.54,.02-.03-.01-.05-.02-.08-.03-.1,.04-.23,.06-.46,.01Z"/><path class="cls-1" d="M86.7,40.32s-.1-.04-.15-.06l-.25,.02,.4,.04Z"/><path class="cls-1" d="M78.99,38.1l1.28,.04c-.36-.03-.82-.04-1.28-.04Z"/><path class="cls-1" d="M103.97,2.77c-.08,.01-.17,.03-.27,.05,.09-.02,.18-.04,.27-.05Z"/><path class="cls-1" d="M127.48,29.22c-.22,.19-.31-.49-.23-1.3l-.28,1.14c-.03-.17-.04-.3-.05-.44,0-.16,.03-.3,.09-.42l.03,.12c-.02-.35-.05-.58-.08-.74,.14-.6,.4-.96,.2-2.23l.19,.63c-.05-.44-.06-1.21-.09-2.02,.01,.06,.03,.15,.03,.29,.19-1.1,.07-.77-.05-.71-.04-.78-.12-1.53-.28-2.05,.02-.01,.02-.04,.04-.04-.03-.05-.06-.06-.08-.06-.02-.06-.04-.13-.06-.18,.07-.18,.24-.42,.28,.03,.02-.51,0-1.05-.03-1.59,.02-.06,.04-.14,.07-.25-.04-.05-.07-.11-.09-.17-.02-.28-.04-.57-.06-.86,.06-.53,.22-1.12,.17-1.56-.35-.04-.17-1.6-.27-2.9l.14,.18c-.02-.16-.05-.31-.09-.46,.03-.17,.05-.47,.08-.83,.02,0,.04-.02,.04-.1,0-.03-.02-.07-.03-.12,.05-.81,.11-1.83,.18-2.47l.06,.04c-.09-.06-.16-.18-.2-.35-.02-.38-.07-.74-.12-1.08-.01-.33-.02-.67-.05-.98,.22,.04,.31,.2,.41,.7v-.86c-.14-.22-.17-.52-.32-1.11l.31,.2c-.16-.99-.63-1.87-1.26-2.8-.25-.54-.6-1.08-.91-1.42h.07c-1.17-1.28-2.62-1.86-4-2.02-.68-.07-1.43-.02-1.97,.05-.59,.06-1.19,.12-1.83,.16-1.6-.48-5.4-.2-7.97-.47,.39,.08-.06,.34-.52,.39-.35-.05-.86,.06-1.2,.08v-.03c-.1,0-.16,.01-.2,.02-.12-.02-.19-.06-.17-.18h.21c-.45-.39-1.69-.28-2.66-.29l-.16,.53c-1-.3-2.24-.32-3.46-.28-.65-.04-1.26,.01-1.84,.09-.94,.04-1.78,.05-2.35-.1l.52-.04,.27-.04-.8,.07c-.12-.03-.23-.07-.33-.12-.61,.13-1.36,.13-1.97,.26l.03-.28c-1.69-.07-2.53-.11-4.62-.04L90.65,0c-.7-.01-1.1,.28-1.53,.52-.29-.03-.48-.08-.33-.16-.77,.11-.39,.19,.16,.25h0c-.41-.05-.76-.06-1.1-.07l-.1-.13c-1.87,0-3.75-.29-5.61-.06,.07-.02,.15-.04,.21-.06-.24,.04-.48,.06-.71,.07,.05-.06,.15-.11,.37-.13-.52,0-1.54-.09-2.34-.07-.18-.03-.35-.05-.5-.06l.68-.1c-.41,.06-.74,.06-1.09,.05l.24,.15c-.09,.01-.17,.03-.23,.06-.21-.02-.36-.04-.35-.11-.17,.06-.15,.14-.12,.22-.33-.04-.89,0-1.48,.08-.08-.1-.19-.22,.52-.24-.27,.04-.61,.04-1.01,0-.06-.04,.06-.07,.17-.08-1.61-.28-.74,.36-2.41,.35,.21-.18-.39-.34-.66-.3,.67,0,.32,.3-.3,.43-1.07-.14-1.16,.1-1.72,.09l.24,.02c-.67,0-.81,.05-1.09,.17-.71,.05-1.54-.31-2.45-.21h-.01c-.05,0-.11,0-.16,.02-.54-.12-.05-.33-.52-.41-1.22,.22-1.4-.18-2.56-.07,.05-.05,.13-.1,.29-.16-.45,.09-1.05,.24-1.68,.36-.7-.09-1.34-.04-2.02,.04l.07-.02c-.26-.03-.49,0-.7,.04-.35-.04-.58-.07-.92-.08-.13-.21-1.31-.11-1.88-.13,.05,.28-.7,.24,0,.47-.09-.02,.11-.03,.49-.05,.09,0,.19-.01,.24-.03l-.04,.02h.64c-.11,.09-.33,.11-.6,.11-.06-.01-.11-.01-.17-.03l-.04,.02c-.38,0-.81-.04-1.15,.01,.06-.2-.36-.27-.65-.39,.02,.09-.6,.06-1.11,.13-.16-.06-.29-.11-.33-.17-1.46,.13-3.34,.12-4.56,.42,0-.1,0-.19,.64-.28-.54,0-1.03-.04-1.04,.1-.23-.09-.93,.09-1.49,.12h-.05c-.18,0-.34,0-.46-.05-.06,.02-.11,.05-.16,.09-.49,.04-.89,.09-1.09,.21-.08,.02-.15,.04-.19,.07-1.06-.16,.73-.33-.93-.27l.23-.11c-1.38-.24-2.55-.12-3.7,.04,.3-.1,.31-.37-.3-.29l.18,.3c-.3,.04-.61,.09-.91,.13-.2-.03-.38-.07-.55-.13-1.18,.07-2.6,.13-3.67,.14,.07-.06,0-.1,.21-.08-.63-.08-.89,.01-1.1,.13-.34-.01-.69-.03-1.03-.03-.01,0-.04-.02-.09-.03-.23-.65-2.03,.09-3.16-.29l.27-.04c-.86-.22-2.11,.25-3.52,.2,0,0,.07-.06,0-.1-.42,.14-1,.24-1.63,.32-.72-.02-1.43-.07-2.13-.14-.01-.02-.01-.02-.03-.04-.07,0-.11,.01-.14,.02-.12-.01-.25-.02-.38-.04-.91-.08-1.2,.04-1.61,.18-.14-.06-.26-.13-.29-.22h1.15c-.59-.37-1.48,0-2.09-.06l.08-.16c-1.59,.05-1.78,.37-3.19,.41-.72-.14-1.5-.25-2.43-.12l-.06-.08c-.47,.07-1.41,.22-2.35,.33-.11-.02-.18-.05-.15-.1-.08,.04-.26,.21-.58,.11v-.05c.74-.19,1.77-.31,2.47-.45-.68,0-2.3,.03-2.65,.22,.27-.04,.62-.13,.88-.07-.22,.08-.47,.15-.73,.21v-.02l-1.77,.24c-.12,0-.25,0-.38,0-.18-.02-.31-.05-.39-.08-.01-.07-.07-.13-.16-.17-.03-.18,.06-.37-1.27-.39-.31,.02-.71,.09-1.07,.17-.29,0-.6-.01-.91-.01-.55,.02-1.03,.05-1.35,0-1.31,.53-2.48,1.27-3.46,2.34C1.25,4.09,.5,5.53,.46,7.2c.33-.56,.32-.31,.31,.03-.02,.37,0,.74,.31,.66,0,.13,.01,.23,.02,.32-.12,.19-.3,.26-.35-.24-.03,.13-.05,.24-.06,.33-.08-.05-.16,.03-.22,.43,.11-.41,.19-.14,.27,.14,.02,.13,.01,.29-.07,.56-.04,.08-.06,.04-.07-.03l.12,.82c-.09-.16-.29,.14-.23-.37-.02,.14-.03,.26-.04,.39h0c0,.05,0,.08,0,.13v.02c-.06,1.17-.26,.48-.41,1.38,.22-.19,.31,.49,.23,1.3l.28-1.14c.03,.17,.04,.3,.05,.44,0,.16-.03,.3-.09,.42l-.03-.12c.02,.35,.05,.58,.08,.74-.14,.6-.4,.96-.2,2.23l-.19-.63c.05,.44,.06,1.21,.09,2.02-.01-.06-.03-.15-.03-.29-.19,1.1-.07,.77,.05,.71,.04,.78,.12,1.53,.28,2.05-.02,.01-.02,.04-.04,.04,.03,.05,.06,.06,.08,.06,.02,.06,.04,.13,.06,.18-.07,.18-.24,.42-.28-.03-.02,.51,0,1.05,.03,1.59-.02,.06-.04,.14-.07,.25,.04,.05,.07,.11,.09,.17,.02,.28,.04,.57,.06,.86-.06,.53-.22,1.12-.17,1.56,.35,.04,.17,1.6,.27,2.9l-.14-.18c.02,.16,.05,.31,.09,.46-.03,.17-.05,.47-.08,.83-.02,0-.04,.02-.04,.1,0,.03,.02,.07,.03,.12-.05,.81-.11,1.83-.18,2.47l-.06-.04c.09,.06,.16,.18,.2,.35,.02,.38,.07,.74,.12,1.08,.01,.33,.02,.67,.05,.98-.22-.04-.31-.2-.41-.7v.86c.14,.22,.17,.52,.32,1.11l-.31-.2c.16,.99,.63,1.87,1.26,2.8,.25,.54,.6,1.08,.91,1.42h-.07c1.17,1.28,2.62,1.86,4,2.02,.68,.07,1.43,.02,1.97-.05,.59-.06,1.19-.12,1.83-.16,1.6,.48,5.4,.2,7.97,.47-.39-.08,.06-.34,.52-.39,.35,.05,.86-.06,1.2-.08v.03c.1,0,.16-.01,.2-.02,.12,.02,.19,.06,.17,.18h-.21c.45,.39,1.69,.28,2.66,.29l.16-.53c1,.3,2.24,.32,3.46,.28,.65,.04,1.26-.01,1.84-.09,.94-.04,1.78-.05,2.35,.1l-.52,.04-.27,.04,.8-.07c.12,.03,.23,.07,.33,.12,.61-.13,1.36-.13,1.97-.26l-.03,.28c1.69,.07,2.53,.11,4.62,.04l-.43,.2c.7,.01,1.1-.28,1.53-.52,.29,.03,.48,.08,.33,.16,.77-.11,.39-.19-.16-.25h0c.41,.05,.76,.06,1.1,.07l.1,.13c1.87,0,3.75,.29,5.61,.06-.07,.02-.15,.04-.21,.06,.24-.04,.48-.06,.71-.07-.05,.06-.15,.11-.37,.13,.52,0,1.54,.09,2.34,.07,.18,.03,.35,.05,.5,.06l-.68,.1c.41-.06,.74-.06,1.09-.05l-.24-.15c.09-.01,.17-.03,.23-.06,.21,.02,.36,.04,.35,.11,.17-.06,.15-.14,.12-.22,.33,.04,.89,0,1.48-.08,.08,.1,.19,.22-.52,.24,.27-.04,.61-.04,1.01,0,.06,.04-.06,.07-.17,.08,1.61,.28,.74-.36,2.41-.35-.21,.18,.39,.34,.66,.3-.67,0-.32-.3,.3-.43,1.07,.14,1.16-.1,1.72-.09l-.24-.02c.67,0,.81-.05,1.09-.17,.71-.05,1.54,.31,2.45,.21h.01c.05,0,.11,0,.16-.02,.54,.12,.05,.33,.52,.41,1.22-.22,1.4,.18,2.56,.07-.05,.05-.13,.1-.29,.16,.45-.09,1.05-.24,1.68-.36,.7,.09,1.34,.04,2.02-.04l-.07,.02c.26,.03,.49,0,.7-.04,.35,.04,.58,.07,.92,.08,.13,.21,1.31,.11,1.88,.13-.05-.28,.7-.24,0-.47,.09,.02-.11,.03-.49,.05-.09,0-.19,.01-.24,.03l.04-.02h-.64c.11-.09,.33-.11,.6-.11,.06,.01,.11,.01,.17,.03l.04-.02c.38,0,.81,.04,1.15-.01-.06,.2,.36,.27,.65,.39-.02-.09,.6-.06,1.11-.13,.16,.06,.29,.11,.33,.17,1.46-.13,3.34-.12,4.56-.42,0,.1,0,.19-.64,.28,.54,0,1.03,.04,1.04-.1,.23,.09,.93-.09,1.49-.12h.05c.18,0,.34,0,.46,.05,.06-.02,.11-.05,.16-.09,.49-.04,.89-.09,1.09-.21,.08-.02,.15-.04,.19-.07,1.06,.16-.73,.33,.93,.27l-.23,.11c1.38,.24,2.55,.12,3.7-.04-.3,.1-.31,.37,.3,.29l-.18-.3c.3-.04,.61-.09,.91-.13,.2,.03,.38,.07,.55,.13,1.18-.07,2.6-.13,3.67-.14-.07,.06,0,.1-.21,.08,.63,.08,.89-.01,1.1-.13,.34,.01,.69,.03,1.03,.03,.01,0,.04,.02,.09,.03,.23,.65,2.03-.09,3.16,.29l-.27,.04c.86,.22,2.11-.25,3.52-.2,0,0-.07,.06,0,.1,.42-.14,1-.24,1.63-.32,.72,.02,1.43,.07,2.13,.14,.01,.02,.01,.02,.03,.04,.07,0,.11-.01,.14-.02,.12,.01,.25,.02,.38,.04,.91,.08,1.2-.04,1.61-.18,.14,.06,.26,.13,.29,.22h-1.15c.59,.37,1.48,0,2.09,.06l-.08,.16c1.59-.05,1.78-.37,3.19-.41,.72,.14,1.5,.25,2.43,.12l.06,.08c.47-.07,1.41-.22,2.35-.33,.11,.02,.18,.05,.15,.1,.08-.04,.26-.21,.58-.11v.05c-.74,.19-1.77,.31-2.47,.45,.68,0,2.3-.03,2.65-.22-.27,.04-.62,.13-.88,.07,.22-.08,.47-.15,.73-.21v.02l1.77-.24c.12,0,.25,0,.38,0,.18,.02,.31,.05,.39,.08,.01,.07,.07,.13,.16,.17,.03,.18-.06,.37,1.27,.39,.31-.02,.71-.09,1.08-.17,.29,0,.6,.01,.91,.01,.55-.02,1.03-.05,1.35,0,1.31-.53,2.48-1.27,3.46-2.34,.95-1.07,1.7-2.52,1.74-4.19-.33,.56-.32,.31-.31-.03,.02-.37,0-.74-.31-.66,0-.13-.01-.23-.02-.32,.12-.19,.3-.26,.35,.24,.03-.13,.05-.24,.06-.33,.08,.05,.16-.03,.22-.43-.11,.41-.19,.14-.27-.14-.02-.13-.01-.29,.07-.56,.04-.08,.06-.04,.07,.03l-.12-.82c.09,.16,.29-.14,.23,.37,.02-.14,.03-.26,.04-.39h0c0-.05,0-.08,0-.13v-.02c.06-1.17,.26-.48,.41-1.38Zm-.82,2.01c-.03,.1-.06,.14-.09,.15l.07-.36c0,.07,.02,.13,.03,.21ZM71.81,.73l.25,.03c-.11,.09-.29,.13-.54,.15-.05,0-.09,0-.14-.01l.43-.16Zm-5.02-.02c-.06,.02-.1,.03-.15,.04-.19-.01-.37-.02-.54-.01,.27-.03,.52-.05,.69-.03Zm-1.76,.11c-.5,.06-.95,.12-1.43,.08v-.23c1.09,0,1.87,.02,1.78,.04,0-.06-.06-.1-.14-.15l1.15-.09-1.44,.35s.05,0,.07,0Zm-.11-.41s-.08-.05-.09-.08c.05,.03,.09,.06,.09,.08Zm-5.72-.09c.38-.04,.5,.02,.56,.07l-.66,.03-.04,.03c.04-.05,.08-.1,.15-.14ZM.82,9.77c.03-.1,.06-.14,.09-.15l-.07,.36c0-.07-.02-.13-.03-.21Zm54.86,30.51l-.25-.03c.11-.09,.29-.13,.54-.15,.05,0,.09,0,.14,.01l-.43,.16Zm5.02,.02c.06-.02,.1-.03,.15-.04,.19,.01,.37,.02,.54,.01-.27,.03-.52,.05-.69,.03Zm1.76-.11c.5-.06,.95-.12,1.43-.08v.23c-1.09,0-1.87-.02-1.78-.04,0,.06,.06,.1,.14,.15l-1.15,.09,1.44-.35s-.05,0-.07,0Zm.11,.41s.08,.05,.09,.08c-.05-.03-.09-.06-.09-.08Zm5.72,.09c-.38,.04-.5-.02-.56-.07l.66-.03,.04-.03c-.04,.05-.08,.1-.15,.14Zm52.09-2.36c-.22,.03-.49,.04-.78,.04-.1-.02-.21-.04-.33-.06l-.28,.06c-.09,0-.18,0-.27,0-.11,0-.22,0-.33-.01h.25c-.41-.15-.73-.1-1.02-.02-.21,0-.42-.01-.64-.02-.09-.04-.2-.08-.34-.1l-.24,.08c-.33-.01-.66-.02-.99-.03-.06-.03-.16-.05-.33-.07-.05,.02-.07,.04-.1,.05-2.39-.11-4.79-.27-7.16-.35-.83-.02-1.1,.18-1.38,.36-.32-.04-.53-.11-.45-.27-.25,.15-.65,.22-1.1,.26l.35-.19c-1.35,.15-2.73,.18-4.11,.19-.22-.05-.41-.11-.66-.15-.01,.06-.06,.11-.12,.15-.57,0-1.13,0-1.7,0,.1-.07,.16-.15,.08-.24,.02,.11-.2,.19-.47,.24-.6,0-1.19,.01-1.78,.03-.05-.03-.1-.07-.16-.13-.02,.06-.04,.1-.07,.14-.57,.02-1.14,.05-1.7,.11h0c.2-.08,.21-.18,.55-.17-.39-.13-1.11-.12-1.72-.06-.14-.13,.64-.26,.64-.26-.73,0-.79,.13-.77,.28-.48,.06-.85,.14-.86,.23-.04,0-.07,0-.1,0-.11-.11,.02-.27-.26-.38-.2,.02-.38,.06-.56,.09-.67,.03-1.45,.28-1.76,.09-.07-.04,.21-.08,.34-.1-.48,.12-2.23-.03-1.77,.25-.84-.09-1.62-.01-2.36,0,.09-.04,0-.05-.68-.04,.02,.01,.04,.02,.06,.03-.18,0-.37-.01-.54-.04-.22,.1-.54,.12-.86,.11,.02-.1,.83,.11,.25-.27,.2,.07,.4,.13,.62,.16,.05-.02,.11-.04,.15-.07l-.81-.11h-.02c-1.74-.11-1.95,.16-3.68,.06-.09,.04-.13,.08-.14,.12-.41,.03-.79,.08-1.04,.15,.27-.14-.71-.14-.39-.33-.51,0-.98,.03-1.3,.09-.27-.08-.6-.09-1.15,.05-.02,.01-.04,.02-.06,.04-.52-.04-1.03,0-1.5,.06l.06-.06c-.61-.01-.9,.06-1.11,.14-.39,0-.74-.05-1.02-.25-.49,.04-.96,.08-1.44,.12-1.78,.06-3.74,.3-5.71,.36,.07-.07,.24-.13,.22-.2,.79-.03,1.79,.01,1.72-.28-.69,.05-1.29,.13-1.86,.2-.03,0-.05-.02-.09-.03-1.15,.08-2.38,.07-3.6,.02h.01s-.03,0-.05,0c-1.42-.05-2.83-.16-4.12-.27l-.92,.29c-.21,0-.4-.13-.17-.19-.94-.11-.05,.18-.5,.3h0c-.22,0-.35-.02-.44-.06,.04,0,.08,0,.12,0,.38-.05,.15-.03-.13,0-.12-.06-.11-.14,.08-.19-.91,.14-2.23,.28-3.53,.33,.04-.05,.1-.1,.2-.16-.2,.03-.45,.09-.53,.18-.13,0-.25,0-.38,0-.05-.05,.01-.11,.23-.19-.65,.05-.91,.12-1.12,.18-.3-.01-.59-.03-.86-.06,.03-.02,.06-.03,.08-.05-.05,.01-.1,.03-.14,.04-.15-.02-.3-.03-.43-.05l.34-.09c-1.14-.1-1.46,.38-2.27,.38,.03-.06-.03-.12,.27-.11-.23,0-.45,.01-.66,.03l.11-.02c-1.85-.08-3.82,0-5.59-.05-.09-.03-.17-.08-.19-.15l-.99,.1c-.61-.04-1.19-.1-1.72-.2-.43,.42-2.93-.19-3.12,.4-1.69-.29-1.21-.4-3.58-.59-.64-.03-.95,.37-1.73,.43l-.02-.31-1.07,.32-.57-.37-.74,.08c.29,.02,.62,.14,.58,.23-1.15,.14-2.8-.21-2.83-.37l-2.72,.26c.05-.09,.32-.14,.6-.19-1.02,.17-.09-.36-1.32-.09,.18,.07-.1,.18-.13,.25-.66-.19-2.17-.19-3.29-.11l.21-.21c-2.02-.05-4.26,.1-6.52,.1,.81,.1,.63,.47-.04,.5l-.27-.33c-.43,.2,.69,.12-.19,.37-.85-.04-.57-.37-.08-.48l-1.03,.11c-.06-.1,.18-.15,.24-.27-.42,.2-1.78-.33-2.39,.02l-.06-.1c-1.23,.01-1.68,.02-2.3-.14-.57-.14-1.09-.36-1.66-.8-.2,.2-.6-.22-1.06-.45-.33-.48-.56-1.05-.68-1.65-.06-.3-.11-.61-.12-.93-.02-.32-.02-.61-.02-1.05-.14-1.15-.24-.34-.41-.85,.26-.08,.23-1.72,.42-.87-.04-1.96-.05-2.5-.26-4.98-.11,.27-.15,.57-.24,.41-.04-.45,.11-1.02,.23-.96l.03,.12c-.38-2.78,.75-6.43,.21-8.64l.03,.12-.28-2.3c.04-1.06,.19,.63,.35-.15-.43-2.48,.06-3.92-.22-5.96,.19-.38,.27-.99,.33-1.53,.04-.49,.13-1.03,.32-1.57,.35-1.08,1.24-2.07,2.08-2.24l-.17-.1c.29-.37,.51-.16,.8-.23-.09-.13-.49,.04-.28-.17,.42-.2,.88-.35,1.36-.41,.22-.03,.49-.04,.78-.04,.1,.02,.21,.04,.33,.06l.28-.06c.09,0,.18,0,.27,0,.11,0,.22,0,.33,.01h-.25c.41,.15,.73,.1,1.02,.02,.21,0,.42,.01,.64,.02,.09,.04,.2,.08,.34,.1l.24-.08c.33,.01,.66,.02,.99,.03,.06,.03,.16,.05,.33,.07,.05-.02,.07-.04,.1-.05,2.39,.11,4.79,.27,7.16,.35,.83,.02,1.1-.18,1.38-.36,.32,.04,.53,.11,.45,.27,.25-.15,.65-.22,1.1-.26l-.35,.19c1.35-.15,2.73-.18,4.11-.19,.22,.05,.41,.11,.66,.15,.01-.06,.06-.11,.12-.15,.57,0,1.13,0,1.7,0-.1,.07-.16,.15-.08,.24-.02-.11,.2-.19,.47-.24,.6,0,1.19-.01,1.78-.03,.05,.03,.1,.07,.16,.13,.02-.06,.04-.1,.07-.14,.57-.02,1.14-.05,1.7-.11h0c-.2,.08-.21,.18-.55,.17,.39,.13,1.11,.12,1.72,.06,.14,.13-.64,.26-.64,.26,.73,0,.79-.13,.77-.28,.48-.06,.85-.14,.86-.23,.04,0,.07,0,.1,0,.11,.11-.02,.27,.26,.38,.2-.02,.38-.06,.56-.09,.67-.03,1.45-.28,1.76-.09,.07,.04-.21,.08-.34,.1,.48-.12,2.23,.03,1.77-.25,.84,.09,1.62,.01,2.36,0-.09,.04,0,.05,.68,.04-.02-.01-.04-.02-.06-.03,.18,0,.37,.01,.54,.04,.22-.1,.54-.12,.86-.11-.02,.1-.83-.11-.25,.27-.2-.07-.4-.13-.62-.16-.05,.02-.11,.04-.15,.07l.81,.11h.02c1.74,.11,1.95-.16,3.68-.06,.09-.04,.13-.08,.14-.12,.41-.03,.79-.08,1.04-.15-.27,.14,.71,.14,.39,.33,.51,0,.98-.03,1.3-.09,.27,.08,.6,.09,1.15-.05,.02-.01,.04-.02,.06-.04,.52,.04,1.03,0,1.5-.06l-.06,.06c.61,.01,.9-.06,1.11-.14,.39,0,.74,.05,1.02,.25,.49-.04,.96-.08,1.44-.12,1.78-.06,3.74-.3,5.71-.36-.07,.07-.24,.13-.22,.2-.79,.03-1.79-.01-1.72,.28,.69-.05,1.29-.13,1.86-.2,.03,0,.05,.02,.09,.03,1.15-.08,2.38-.07,3.6-.02h-.01s.03,0,.05,0c1.42,.05,2.83,.16,4.11,.27l.92-.29c.21,0,.4,.13,.17,.19,.94,.11,.05-.18,.5-.3h0c.22,0,.35,.02,.44,.06-.04,0-.08,0-.12,0-.38,.05-.15,.03,.13,0,.12,.06,.11,.14-.08,.19,.91-.14,2.23-.28,3.53-.33-.04,.05-.1,.1-.2,.16,.2-.03,.45-.09,.53-.18,.13,0,.25,0,.38,0,.05,.05-.01,.11-.23,.19,.65-.05,.91-.12,1.12-.18,.3,.01,.59,.03,.86,.06-.03,.02-.06,.03-.08,.05,.05-.01,.1-.03,.14-.04,.15,.02,.3,.03,.43,.05l-.34,.09c1.14,.1,1.46-.38,2.27-.38-.03,.06,.03,.12-.27,.11,.23,0,.45-.01,.66-.03l-.11,.02c1.85,.08,3.82,0,5.59,.05,.09,.03,.17,.08,.19,.15l.99-.1c.61,.04,1.19,.1,1.72,.2,.43-.42,2.93,.19,3.12-.4,1.69,.29,1.21,.4,3.58,.59,.64,.03,.95-.37,1.73-.43l.02,.31,1.07-.32,.57,.37,.74-.08c-.29-.02-.62-.14-.58-.23,1.15-.14,2.8,.21,2.83,.37l2.72-.26c-.05,.09-.32,.14-.6,.19,1.02-.17,.09,.36,1.32,.09-.18-.07,.1-.18,.13-.25,.66,.19,2.17,.19,3.29,.11l-.21,.21c2.02,.05,4.26-.1,6.52-.1-.81-.1-.63-.47,.04-.5l.27,.33c.43-.2-.69-.12,.19-.37,.85,.04,.57,.37,.08,.48l1.03-.11c.06,.1-.18,.15-.24,.27,.42-.2,1.78,.33,2.39-.02l.06,.1c1.23-.01,1.68-.02,2.3,.14,.57,.14,1.09,.36,1.66,.8,.2-.2,.6,.22,1.06,.45,.33,.48,.56,1.05,.68,1.65,.06,.3,.11,.61,.12,.93,.02,.32,.02,.61,.02,1.05,.14,1.15,.24,.34,.41,.85-.26,.08-.23,1.72-.42,.87,.04,1.96,.05,2.5,.26,4.98,.11-.27,.15-.57,.24-.41,.04,.45-.11,1.02-.23,.96l-.03-.12c.38,2.78-.75,6.43-.21,8.64l-.03-.12,.28,2.3c-.04,1.06-.19-.63-.35,.15,.43,2.48-.06,3.92,.22,5.96-.19,.38-.27,.99-.33,1.53-.04,.49-.13,1.03-.32,1.57-.35,1.08-1.24,2.07-2.08,2.24l.17,.1c-.29,.37-.51,.16-.8,.23,.09,.13,.49-.04,.28,.17-.42,.2-.88,.35-1.36,.41Z"/><path class="cls-1" d="M58.52,.68c-.05,0-.08,.02-.16,.02l.23,.06,.13-.09h-.2Z"/><polygon class="cls-1" points="97.23 2.8 97.23 2.73 97.02 2.79 97.23 2.8"/><path class="cls-1" d="M78.85,38.1h0Z"/><path class="cls-1" d="M.23,22.86c-.05-.79-.16,0-.22-.03,.1,.5,.12,.62,.22,.03Z"/><path class="cls-1" d="M109.2,40.25c.26,.16,.93,.26,1.35,.1-.54-.02-1.07-.14-1.35-.1Z"/><polygon class="cls-1" points="104.06 .17 103.15 .25 103.57 .27 104.06 .17"/></g></g></svg>