<?xml version="1.0" encoding="UTF-8"?><svg id="_イヤー_2" xmlns="http://www.w3.org/2000/svg" viewBox="0 0 62.36 33"><defs><style>.cls-1{fill:#88c1d8;}</style></defs><g id="_イヤー_1-2"><g><path class="cls-1" d="M62.2,15.81v.12s.08,.07,.13,.1l-.13-.22Z"/><path class="cls-1" d="M44.52,.12h.02c.12-.03,.05-.02-.02,0Z"/><path class="cls-1" d="M33.79,.29s.06,.09,.11,.12c0-.03-.03-.06-.11-.12Z"/><path class="cls-1" d="M29.64,.68c-.11-.02-.14-.06-.29-.02,.01,.01,.03,.02,.04,.03,.05-.04,.12-.06,.25-.01Z"/><path class="cls-1" d="M25.32,.68s.05,.04,.08,.06l.14-.02-.22-.04Z"/><path class="cls-1" d="M27.68,32.32s.05-.02,.08-.02c-.04-.02-.08-.05-.12-.06l-.07,.09h.11Z"/><path class="cls-1" d="M61.89,9.4s-.02,.04-.04,.06c.01-.02,.02-.02,.03-.03v-.03Z"/><path class="cls-1" d="M62.11,21.62c.05,.43,.16,0,.22,.02-.1-.27-.12-.33-.22-.02Z"/><path class="cls-1" d="M13.23,.76c-.14-.16-.5-.26-.72-.1,.29,.02,.58,.14,.72,.1Z"/><path class="cls-1" d="M2.69,31.03c.16,.12,.35,.2,.52,.3l-.21-.18c-.11-.03-.21-.07-.31-.12Z"/><path class="cls-1" d="M.16,17.19v-.12s-.08-.07-.13-.1l.13,.22Z"/><path class="cls-1" d="M17.84,32.89h-.02c-.12,.03-.05,.02,.02,0Z"/><path class="cls-1" d="M28.57,32.72s-.06-.09-.11-.12c0,.03,.03,.06,.11,.12Z"/><path class="cls-1" d="M32.72,32.32c.11,.02,.14,.06,.29,.02-.01-.01-.03-.02-.04-.03-.05,.04-.12,.06-.25,.01Z"/><path class="cls-1" d="M37.04,32.32s-.05-.04-.08-.06l-.14,.02,.22,.04Z"/><path class="cls-1" d="M62.28,24.56c-.05-.51-.14-1.01-.39-1.28,.07-.1,.24-.23,.28,.02,.03-.62-.08-1.31-.18-1.97,.04-.15,.08-.3,.05-.43-.05,0-.09-.02-.12-.06,0-.05-.01-.1-.02-.14,.07,.06,.12,.12,.14,.2,.05,0,.12-.01,.2-.05,.01-.1-.2-.14-.34-.18-.05-.49-.06-.94,.05-1.31l.15,.1c-.04-.24-.28-.43-.13-.73,.06,.02,.15,.1,.16-.01-.03-.07-.11-.28-.15-.5,.01-.12,.03-.25,.05-.37l.1,.17c.04-.25,.04-.48,.03-.7h.02s0,0-.02-.01c-.03-.47-.16-.87-.29-1.27,.17,.03,.25,.13,.34,.36v-.46c-.12-.11-.18-.25-.22-.55l.27,.12c0-.36-.11-.72-.16-1.12,.09-.31,.15-.67,.18-.91l.06,.02c.03-.71-.06-1.32-.17-1.91,.05-.01,.11-.05,.14-.17-.14-.15,0-.54-.29-.55h0c0-.18,.14-.22,.22-.28-.13-.32-.04-1.49-.35-1.13l-.02,.08v-.05l-.02-.02c.03-.07,.06-.14,.09-.22v.03l.1-.4s-.02,0-.03,.01c.06-.37,.09-.79,.1-1.24,.03-.94-.18-1.96-.38-2.79,0,.27-.32,.08-.49-.15-.04-.22-.27-.43-.4-.6,.02-.06,.05-.11,.1-.11-.06-.06-.1-.11-.15-.15,.02-.02,.03-.03,.07-.05l.06,.12c.02-.05,.03-.11,.04-.16l.19-.09c-.22-.24-.13-.03-.19,.07,.02-.44-.47-.96-.85-1.35l-.17,.11c-.12-.09-.28-.17-.5-.24l-.02-.02c.3-.08-.27-.57-.6-.66l.13,.17c-.17-.14-.35-.26-.55-.37l.16-.12c-.57-.53-1.31-.56-1.93-.53-.07,0-.13,0-.2,.01-.37-.08-.69-.17-.93-.3l.43-.03,.17-.03-.61,.06c-.07-.04-.15-.07-.2-.11-.39,.09-.73,.11-1.03,.21-.04-.02-.07-.03-.1-.05V.24c-.89-.07-1.35-.11-2.47-.04L51.95,0c-.36-.01-.57,.25-.79,.48-.07-.03-.1-.07-.05-.12-.35,.09-.26,.16-.05,.22h-.01c-.22-.02-.42-.04-.61-.04l-.05-.13c-.92,0-1.84-.24-2.75-.11h.02s-.06,0-.09,0c-.06,.01-.13,.03-.19,.04-.09,.01-.18,.01-.27,0,.03-.06,.07-.12,.2-.13-.24,0-.69-.06-1.08-.07-.1-.03-.19-.05-.27-.06l.37-.1c-.22,.06-.4,.06-.58,.05l.1,.12c-.08,.01-.15,.03-.21,.06-.04-.02-.08-.04-.08-.08-.09,.06-.08,.13-.07,.21-.02,.04-.02,.09,0,.16,0-.22-.38-.19-.81-.11-.04-.09-.05-.19,.29-.21-.15,.04-.33,.04-.54,0-.03-.04,.03-.07,.09-.08-.87-.28-.4,.36-1.3,.35,.11-.18-.21-.34-.35-.3,.36,0,.17,.3-.16,.43-.58-.14-.63,.1-.93,.09l.34,.07c-.07,.1-.2,.14-.38,.16-.05,0-.09,0-.15-.02l.25-.18c-.46-.02-.52,.04-.69,.17-.37-.05-.79-.34-1.24-.19-.29-.12-.03-.33-.28-.41-.7,.23-.75-.24-1.49-.05,.14,.16,.18,.19,.07,.26-.14-.11-.28-.21,.03-.44-.23,.09-.53,.22-.84,.33-.39-.07-.75,.01-1.14,.1,0,0-.02-.01-.02-.02l.06-.03c-.14-.03-.26,0-.38,.04-.19-.04-.31-.07-.49-.08-.07-.21-.7-.11-1.01-.13,.03,.28-.37,.24,0,.47-.05-.02,.06-.03,.26-.05,.05,0,.1-.01,.13-.03l-.02,.02h.51c-.08,.13-.29,.12-.51,.11-.03,0-.05,0-.07-.02l-.02,.02c-.16,0-.32-.02-.46,.02,.03-.2-.19-.27-.35-.39,.01,.11-.42,.05-.7,.17-.12-.07-.21-.13-.24-.2-.71,.12-1.62,.12-2.27,.35,.02-.07,.08-.14,.34-.21-.29,0-.55-.04-.56,.1-.1-.08-.38,.03-.64,.09-.08,0-.15,.02-.23,.02-.07,0-.15,0-.2-.04-.02,.02-.04,.04-.06,.06-.4,.04-.77,.1-.84,.31-.67-.17,.38-.34-.54-.28l.12-.11c-.65-.21-1.21-.15-1.75-.02,.09-.12,.05-.3-.23-.23l.08,.26c-.18,.05-.36,.1-.54,.15-.08-.03-.16-.06-.23-.1-.63,.07-1.4,.13-1.97,.14,.04-.06,0-.1,.11-.08-.35-.08-.49,.02-.61,.14-.18-.02-.36-.04-.54-.04,0,0-.02-.02-.05-.03-.13-.65-1.09,.09-1.7-.29l.15-.04c-.46-.22-1.13,.25-1.89,.2,0,0,.04-.06,0-.1-.23,.15-.57,.25-.93,.33-.36-.02-.72-.06-1.08-.12-.01-.02-.01-.04-.03-.07-.06,0-.09,.03-.11,.05-.11-.02-.23-.03-.34-.06-.41-.07-.58,0-.76,.11-.04-.05-.08-.09-.1-.15h.62c-.32-.37-.8,0-1.12-.06l.04-.16c-.91,.05-.96,.41-1.87,.41-.35-.13-.72-.24-1.16-.16l-.02-.04c-.26,.07-.82,.24-1.35,.35-.11-.02-.18-.05-.16-.12-.04,.03-.12,.16-.25,.12,.4-.23,1.03-.37,1.44-.52-.36,0-1.23,.03-1.42,.22,.15-.04,.33-.13,.47-.07-.16,.11-.35,.2-.56,.27v-.08l-1,.25s-.08,0-.12,0c-.04,0-.06-.02-.09-.02,.01-.17-.08-.28-.26-.34-.02-.14-.09-.27-.67-.29-.16,.02-.37,.09-.56,.17-.41-.02-.81-.06-1.07-.22-.72,.25-1.43,.44-2.14,.74-.71,.3-1.45,.72-2.04,1.38,.85-.04-.33,.39,.21,.71-.15,.24-.24,.36-.3,.41h0l.02-.02h-.02s0-.04,.02-.07c-.05,.03-.08,.05-.11,.08-.05-.17,.07-.76-.41-.36,.47-.27-.09,.67,.28,.5-.01,.02-.02,.05-.03,.07-.11,.09-.21,.18-.32,.27h0c-.1,.1-.19,.2-.29,.3,0-.03,0-.07,.06-.14-.08,.09-.15,.17-.2,.26-.2,.09,.08-.43-.05-.46-.43,.81-.42,.22-.79,.75,.25-.04,.16,.4-.03,.9,.15-.22,.3-.43,.48-.63-.04,.64-.22,.86-.39,1.12-.17,.25-.35,.53-.21,1.19l-.17-.42c.03,.39,.03,.88,.08,1.38,.05,.51,.14,1.01,.39,1.28-.07,.1-.24,.23-.28-.02-.03,.62,.08,1.31,.18,1.97-.04,.15-.08,.3-.05,.43,.05,0,.09,.02,.12,.06,0,.05,.01,.1,.02,.14-.07-.06-.12-.12-.14-.2-.05,0-.12,.01-.2,.05-.01,.1,.2,.14,.34,.18,.05,.49,.06,.94-.05,1.31l-.15-.1c.04,.24,.28,.43,.13,.73-.06-.02-.15-.1-.16,.01,.03,.07,.11,.28,.15,.5-.01,.12-.03,.25-.05,.37l-.1-.17c-.04,.25-.04,.48-.03,.7h-.02s0,0,.02,.01c.03,.47,.16,.87,.29,1.27-.17-.03-.25-.13-.34-.36v.46c.12,.11,.18,.25,.22,.55l-.27-.12c0,.36,.11,.72,.16,1.12-.09,.31-.15,.67-.18,.91l-.06-.02c-.03,.71,.06,1.32,.17,1.91-.05,.01-.11,.05-.14,.17,.14,.15,0,.54,.29,.55h0c0,.18-.14,.22-.22,.28,.13,.32,.04,1.49,.35,1.13l.02-.08v.05l.02,.02c-.03,.07-.06,.14-.09,.22v-.03l-.1,.4s.02,0,.03-.01c-.06,.37-.09,.79-.1,1.24-.03,.94,.18,1.96,.38,2.79,0-.27,.32-.08,.49,.15,.04,.22,.27,.43,.4,.6-.02,.06-.05,.11-.1,.11,.06,.06,.1,.11,.15,.15-.02,.02-.03,.03-.07,.05l-.06-.12c-.02,.05-.03,.11-.04,.16l-.19,.09c.21,.24,.13,.03,.19-.07-.02,.44,.47,.96,.85,1.35l.17-.11c.12,.09,.28,.17,.5,.24l.02,.02c-.3,.08,.27,.57,.6,.66l-.13-.17c.17,.14,.35,.26,.55,.37l-.16,.12c.57,.53,1.31,.56,1.93,.53,.07,0,.13,0,.2-.01,.37,.08,.69,.17,.93,.3l-.43,.03-.17,.03,.61-.06c.07,.04,.15,.07,.2,.11,.39-.09,.73-.11,1.03-.21,.04,.02,.07,.03,.1,.05v.21c.89,.07,1.35,.11,2.47,.04l-.23,.2c.36,.01,.57-.25,.79-.48,.07,.03,.1,.07,.05,.12,.35-.09,.26-.16,.05-.22h.01c.22,.02,.42,.04,.61,.04l.05,.13c.92,0,1.84,.24,2.75,.11h-.02s.06,0,.09,0c.06-.01,.13-.03,.19-.04,.09-.01,.18-.01,.27,0-.03,.06-.07,.12-.2,.13,.24,0,.69,.06,1.08,.07,.1,.03,.19,.05,.27,.06l-.37,.1c.22-.06,.4-.06,.58-.05l-.1-.12c.08-.01,.15-.03,.21-.06,.04,.02,.08,.04,.08,.08,.09-.06,.08-.13,.07-.21,.02-.04,.02-.09,0-.16,0,.22,.38,.19,.81,.11,.04,.09,.05,.19-.29,.21,.15-.04,.33-.04,.54,0,.03,.04-.03,.07-.09,.08,.87,.28,.4-.36,1.3-.35-.11,.18,.21,.34,.35,.3-.36,0-.17-.3,.16-.43,.58,.14,.63-.1,.93-.09l-.34-.07c.07-.1,.2-.14,.38-.16,.05,0,.09,0,.15,.02l-.25,.18c.46,.02,.52-.04,.69-.17,.37,.05,.79,.34,1.24,.19,.29,.12,.03,.33,.28,.41,.7-.23,.75,.24,1.49,.05-.14-.16-.18-.19-.07-.26,.14,.11,.28,.21-.03,.44,.23-.09,.53-.22,.84-.33,.39,.07,.75-.01,1.14-.1,0,0,.02,.01,.02,.02l-.06,.03c.14,.03,.26,0,.38-.04,.19,.04,.31,.07,.49,.08,.07,.21,.7,.11,1.01,.13-.03-.28,.37-.24,0-.47,.05,.02-.06,.03-.26,.05-.05,0-.1,.01-.13,.03l.02-.02h-.51c.08-.13,.29-.12,.51-.11,.03,0,.05,0,.07,.02l.02-.02c.16,0,.32,.02,.46-.02-.03,.2,.19,.27,.35,.39-.01-.11,.42-.05,.7-.17,.12,.07,.21,.13,.24,.2,.71-.12,1.62-.12,2.27-.35-.02,.07-.08,.14-.34,.21,.29,0,.55,.04,.56-.1,.1,.08,.38-.03,.64-.09,.08,0,.15-.02,.23-.02,.07,0,.15,0,.2,.04,.02-.02,.04-.04,.06-.06,.4-.04,.77-.1,.84-.31,.67,.17-.38,.34,.54,.28l-.12,.11c.65,.21,1.21,.15,1.75,.02-.09,.12-.05,.3,.23,.23l-.08-.26c.18-.05,.36-.1,.54-.15,.08,.03,.16,.06,.23,.1,.63-.07,1.4-.13,1.97-.14-.04,.06,0,.1-.11,.08,.35,.08,.49-.02,.61-.14,.18,.02,.36,.04,.54,.04,0,0,.02,.02,.05,.03,.13,.65,1.09-.09,1.7,.29l-.15,.04c.46,.22,1.13-.25,1.89-.2,0,0-.04,.06,0,.1,.23-.15,.57-.25,.93-.33,.36,.02,.72,.06,1.08,.12,.01,.02,.01,.04,.03,.07,.06,0,.09-.03,.11-.05,.11,.02,.23,.03,.34,.06,.41,.07,.58,0,.76-.11,.04,.05,.08,.09,.1,.15h-.62c.32,.37,.8,0,1.12,.06l-.04,.16c.91-.05,.96-.41,1.87-.41,.35,.13,.72,.24,1.16,.16l.02,.04c.26-.07,.82-.24,1.35-.35,.11,.02,.18,.05,.16,.12,.04-.03,.12-.16,.25-.12-.4,.23-1.03,.37-1.44,.52,.36,0,1.23-.03,1.42-.22-.15,.04-.33,.13-.47,.07,.16-.11,.35-.2,.56-.27v.08l1-.25s.08,0,.12,0c.04,0,.06,.02,.09,.02-.01,.17,.08,.28,.26,.34,.02,.14,.09,.27,.67,.29,.16-.02,.37-.09,.56-.17,.41,.02,.81,.06,1.07,.22,.72-.25,1.43-.44,2.14-.74,.71-.3,1.45-.72,2.04-1.38-.85,.04,.33-.39-.21-.71,.15-.24,.24-.36,.3-.41h0l-.02,.02h.02s0,.04-.02,.07c.05-.03,.08-.05,.11-.08,.05,.17-.07,.76,.41,.36-.47,.27,.09-.67-.28-.5,.01-.02,.02-.05,.03-.07,.11-.09,.21-.18,.32-.27h0c.1-.1,.19-.2,.29-.3,0,.03,0,.07-.06,.14,.08-.09,.15-.17,.2-.26,.2-.09-.08,.43,.05,.46,.43-.81,.42-.22,.79-.75-.25,.04-.16-.4,.03-.9-.15,.22-.3,.43-.48,.63,.04-.64,.22-.86,.39-1.12,.17-.25,.35-.53,.21-1.19l.17,.42c-.03-.39-.03-.88-.08-1.38ZM39.29,.71c-.05,.03-.08,.04-.11,.06-.09-.01-.17-.03-.25-.03,.14-.03,.27-.05,.36-.03Zm-.21-.24l-.66,.3c-.31,.05-.57,.13-.84,.13v-.24c.5,0,.83,.02,.79,.04,0-.05-.02-.09-.06-.12l.77-.11Zm-4.04-.16c.2-.04,.27,.02,.3,.07-.1,0-.21,.01-.36,.03l-.02,.03c.02-.05,.04-.1,.08-.14Zm-11.98,31.98c.05-.03,.08-.04,.11-.06,.09,.01,.17,.03,.25,.03-.14,.03-.27,.05-.36,.03Zm.21,.24l.67-.3c.31-.05,.57-.13,.84-.13v.24c-.5,0-.83-.02-.79-.04,0,.05,.02,.09,.06,.12l-.77,.11Zm4.04,.16c-.2,.04-.27-.02-.3-.07,.1,0,.21-.01,.36-.03l.02-.03c-.02,.05-.04,.1-.08,.14Z"/><path class="cls-1" d="M34.68,.68s-.05,.02-.08,.02c.04,.02,.08,.05,.12,.06l.07-.09h-.11Z"/><path class="cls-1" d="M.47,23.6s.02-.04,.04-.06c-.01,.02-.02,.02-.03,.03v.03Z"/><path class="cls-1" d="M.25,11.38c-.05-.43-.16,0-.22-.02,.1,.27,.12,.33,.22,.02Z"/><path class="cls-1" d="M49.13,32.25c.14,.16,.5,.26,.72,.1-.29-.02-.58-.14-.72-.1Z"/><path class="cls-1" d="M59.67,1.98c-.16-.12-.35-.2-.52-.3l.21,.18c.11,.03,.21,.07,.31,.12Z"/></g></g></svg>