<?xml version="1.0" encoding="utf-8"?>
<!-- Generator: Adobe Illustrator 26.3.1, SVG Export Plug-In . SVG Version: 6.00 Build 0)  -->
<svg version="1.1" id="contents" xmlns="http://www.w3.org/2000/svg" xmlns:xlink="http://www.w3.org/1999/xlink" x="0px" y="0px"
	 viewBox="0 0 800 800" style="enable-background:new 0 0 800 800;" xml:space="preserve">
<style type="text/css">
	.st0{fill:#3A75B0;}
	.st1{fill:#FFFFFF;}
</style>
<g>
	<rect class="st0" width="800" height="800"/>
	<path class="st1" d="M622.46,232.38v-36.58h75.86c8.46,0,15.39-6.93,15.39-15.39V89.25c0-8.46-6.92-15.39-15.39-15.39H519.56
		c-8.46,0-15.39,6.93-15.39,15.39v91.15c0,8.46,6.92,15.39,15.39,15.39h75.86v36.58H62.62V429h29v297.14h616.76V429h29V232.38
		H622.46z M606.13,144.92l25.14-51.58h22.78v49.64h10.46v14.3h-10.46v19.04h-15.39v-19.04h-32.54V144.92z M553.36,164.49l8.51-10.22
		c12.67-14.73,20.31-24.31,20.31-34.2c0-6.24-3.38-11.4-10.44-11.4c-4.93,0-9.77,2.8-13.15,5.48l-4.45-13.77
		c4.54-3.66,12.57-6.99,20.98-6.99c16.54,0,23.98,11.29,23.98,24.95c0,21.8-22.48,42.16-22.48,42.16h23.64v15.81h-46.9V164.49z
		 M516.21,696.05H444V522.03h72.21V696.05z M618.01,696.05H545.8V522.03h72.21V696.05z M678.79,696.54h-31.18V492.44H414.4v204.11
		H121.21V429h557.57V696.54z M707.79,399.41H92.21v-24h615.58V399.41z M707.79,285.97H92.21v-24h615.58V285.97z"/>
	<path class="st1" d="M638.78,112.88c-2.03,4.84-14.31,30.1-14.31,30.1h14.32L638.78,112.88z"/>
</g>
</svg>
