<?xml version="1.0" encoding="utf-8"?>
<!-- Generator: Adobe Illustrator 26.3.1, SVG Export Plug-In . SVG Version: 6.00 Build 0)  -->
<svg version="1.1" id="contents" xmlns="http://www.w3.org/2000/svg" xmlns:xlink="http://www.w3.org/1999/xlink" x="0px" y="0px"
	 viewBox="0 0 800 800" style="enable-background:new 0 0 800 800;" xml:space="preserve">
<style type="text/css">
	.st0{fill:#3A75B0;}
	.st1{fill:#FFFFFF;}
</style>
<rect x="0" class="st0" width="800" height="800"/>
<g>
	<g>
		<g>
			<g>
				<polygon class="st1" points="423.41,298.73 392.81,273.46 635.57,66.84 662.33,94.14 				"/>
			</g>
		</g>
	</g>
	<path class="st1" d="M285.6,250.33c-19.2-10.33-64.01-29.89-101.42,5.55l-41.09,42.61c-2.24,1.8-5.02,2.78-7.89,2.78l-83.12,15.06
		c-1.72,2.21-2.65,4.93-2.65,7.72v56.04c0,6.95,5.63,12.58,12.58,12.58h5.86c4.66,0,8.94,2.58,11.12,6.69l6.48,10.09
		c2.18,4.12,6.46,6.69,11.12,6.69h66.09c2.43,0,4.8,0.7,6.83,2.02l45.47,35.59l147.33-153.05
		C362.32,300.72,328.73,273.52,285.6,250.33z M280.19,346.94l-38.33,21.49c-4.44,2.49-9.43,3.76-14.43,3.76
		c-3.09,0-6.18-0.48-9.16-1.46c-7.82-2.56-14.25-8.33-17.66-15.82l-25.4-55.91l17.94-8.15l25.4,55.91c1.15,2.52,3.23,4.38,5.86,5.25
		c2.63,0.86,5.41,0.59,7.82-0.76l38.33-21.49c3.21-1.8,5.2-5.2,5.2-8.87v-44.41h19.7v44.41
		C295.46,331.67,289.61,341.66,280.19,346.94z"/>
	<g>
		<path class="st1" d="M395.56,484.9l81.11-93.18c-31-29.82-59.23-54.86-77.48-68.62l-87.03,89.86L395.56,484.9z"/>
		<path class="st1" d="M334.99,554.48l37.96-43.6l-84.78-73.13l-40.38,41.69l11.94,9.35c5.9,3.82,5.36,16.93-3.1,39.34
			c0,0-58.17,159.39-61.93,170.56c-3.76,11.17,6.65,19.01,14.79,21.42l15.53,5.71c4.25,1.26,13.13,3.44,20.34-11.17l82.27-168.29
			C327.41,547.44,330.44,550.53,334.99,554.48z"/>
		<path class="st1" d="M687.68,580.57c-10.13,6.52-24.92,12.39-39.76,17.23c-7.61-33.53-79.11-114.62-146.61-181.93L362.1,575.79
			c5.82,4.33,10.02,7.37,10.02,7.37c-13.88,12.69-32.14,37.44-32.14,79.9c0,11.03,0.65,19.42,1.75,25.74l-29.53,0.38
			c-7.01,0.09-15.49,5.2-18.84,11.35l-11.69,21.43c-3.36,6.15-0.37,11.19,6.64,11.19c0,0,261.66,0,313.32,0
			c20.85,0,42.13-19.25,51.14-50.51c25.89-17.58,57.67-46.29,79.67-90.29C775.61,505.99,734,550.74,687.68,580.57z"/>
	</g>
</g>
</svg>
