<?xml version="1.0" encoding="utf-8"?>
<!-- Generator: Adobe Illustrator 26.3.1, SVG Export Plug-In . SVG Version: 6.00 Build 0)  -->
<svg version="1.1" id="contents" xmlns="http://www.w3.org/2000/svg" xmlns:xlink="http://www.w3.org/1999/xlink" x="0px" y="0px"
	 viewBox="0 0 800 800" style="enable-background:new 0 0 800 800;" xml:space="preserve">
<style type="text/css">
	.st0{fill:#CCCCCC;}
	.st1{fill:#FFFFFF;}
</style>
<rect class="st0" width="800" height="800"/>
<g>
	<path class="st1" d="M325.5,306.8c29.1,0,53.5-17.6,60.1-41.3H265.4C272,289.2,296.4,306.8,325.5,306.8z"/>
	<polygon class="st1" points="265,75.6 165.1,75.6 118.6,240.1 238.4,240.1 	"/>
	<path class="st1" d="M176.4,306.8c29.1,0,53.5-17.6,60.1-41.3H116.3C122.8,289.2,147.3,306.8,176.4,306.8z"/>
	<polygon class="st1" points="387.3,240.1 387.3,75.6 290.8,75.6 264.2,240.1 	"/>
	<polygon class="st1" points="681.4,240.1 634.9,75.6 535,75.6 561.6,240.1 	"/>
	<path class="st1" d="M474.5,306.8c29.1,0,53.5-17.6,60.1-41.3H414.5C421.1,289.2,445.5,306.8,474.5,306.8z"/>
	<polygon class="st1" points="509.2,75.6 412.7,75.6 412.7,240.1 535.8,240.1 	"/>
	<path class="st1" d="M623.7,306.8c29.1,0,53.5-17.6,60.1-41.3H563.6C570.2,289.2,594.6,306.8,623.7,306.8z"/>
	<path class="st1" d="M672.8,662.3V318.4c-14,8.7-30.9,13.8-49.2,13.8c-31.5,0-59.2-15.3-74.5-38.2c-15.3,22.9-43,38.2-74.5,38.2
		S415.3,317,400,294.1c-15.3,22.9-43,38.2-74.5,38.2s-59.2-15.3-74.6-38.2c-15.3,22.9-43,38.2-74.6,38.2c-18.2,0-35.1-5.1-49.2-13.8
		v343.9H74.4v62.1h651.2v-62.1h-52.8V662.3z M277.8,470.5H361v-83.2h78.1v83.2h83.2v78.1H439v83.2h-78.1v-83.2h-83.2L277.8,470.5
		L277.8,470.5z"/>
</g>
</svg>
