<?xml version="1.0" encoding="utf-8"?>
<!-- Generator: Adobe Illustrator 26.3.1, SVG Export Plug-In . SVG Version: 6.00 Build 0)  -->
<svg version="1.1" id="contents" xmlns="http://www.w3.org/2000/svg" xmlns:xlink="http://www.w3.org/1999/xlink" x="0px" y="0px"
	 viewBox="0 0 800 800" style="enable-background:new 0 0 800 800;" xml:space="preserve">
<style type="text/css">
	.st0{fill:#3A75B0;}
	.st1{fill:#FFFFFF;}
</style>
<rect class="st0" width="800" height="800"/>
<g>
	<path class="st1" d="M325.45,306.8c29.07,0,53.5-17.62,60.07-41.27H265.38C271.95,289.18,296.38,306.8,325.45,306.8z"/>
	<polygon class="st1" points="264.96,75.61 165.07,75.61 118.62,240.06 238.44,240.06 	"/>
	<path class="st1" d="M176.35,306.8c29.07,0,53.5-17.62,60.07-41.27H116.28C122.85,289.18,147.28,306.8,176.35,306.8z"/>
	<polygon class="st1" points="387.27,240.06 387.27,75.61 290.75,75.61 264.23,240.06 	"/>
	<polygon class="st1" points="681.38,240.06 634.93,75.61 535.04,75.61 561.56,240.06 	"/>
	<path class="st1" d="M474.55,306.8c29.06,0,53.49-17.62,60.07-41.27H414.48C421.06,289.18,445.49,306.8,474.55,306.8z"/>
	<polygon class="st1" points="509.25,75.61 412.73,75.61 412.73,240.06 535.77,240.06 	"/>
	<path class="st1" d="M623.65,306.8c29.06,0,53.5-17.62,60.07-41.27H563.59C570.16,289.18,594.59,306.8,623.65,306.8z"/>
	<path class="st1" d="M672.81,662.28V318.42c-14.01,8.73-30.94,13.84-49.16,13.84c-31.53,0-59.21-15.3-74.55-38.18
		c-15.34,22.88-43.02,38.18-74.55,38.18c-31.53,0-59.21-15.3-74.55-38.18c-15.34,22.88-43.02,38.18-74.55,38.18
		c-31.53,0-59.21-15.3-74.55-38.18c-15.34,22.88-43.02,38.18-74.55,38.18c-18.22,0-35.15-5.12-49.16-13.84v343.86H74.41v62.11
		h651.19v-62.11H672.81z M277.76,470.53h83.19v-83.19h78.1v83.19h83.19v78.1h-83.19v83.19h-78.1v-83.19h-83.19V470.53z"/>
</g>
</svg>
