<?xml version="1.0" encoding="utf-8"?>
<!-- Generator: Adobe Illustrator 26.3.1, SVG Export Plug-In . SVG Version: 6.00 Build 0)  -->
<svg version="1.1" id="contents" xmlns="http://www.w3.org/2000/svg" xmlns:xlink="http://www.w3.org/1999/xlink" x="0px" y="0px"
	 viewBox="0 0 800 800" style="enable-background:new 0 0 800 800;" xml:space="preserve">
<style type="text/css">
	.st0{fill:#CCCCCC;}
	.st1{fill:#FFFFFF;}
	.st2{fill:#3A75B0;}
</style>
<rect class="st0" width="800" height="800"/>
<g>
	<path class="st1" d="M335,72.5c-14,0-25.5,10.5-26.7,24.4c-0.1,0.8,0.1,142.5,0.1,142.5c-0.6,7.9-7.7,14.3-15.6,14.3
		c-8.5,0-15.6-6.9-15.6-15.4l-0.1-138.9c0-13.1-9.4-24.2-22.3-26.4c-1.4-0.2-2.7-0.3-4.1-0.4l0,0h-0.1h-0.1l0,0
		c-1.4,0-2.7,0.1-4.1,0.4c-12.9,2.2-22.3,13.3-22.3,26.4L224,238.3c0,8.5-7.1,15.4-15.6,15.4c-7.9,0-15-6.4-15.6-14.3
		c0,0,0.1-141.7,0.1-142.5c-1.2-13.9-12.7-24.4-26.7-24.4c-14.8,0-26.8,12-26.8,26.8v185.9c0,6.6,0,20.2,12.9,34.8l34.4,41.5
		c17,17.6,26.4,40.8,26.4,65.3v59.9H288v-59.9c0-24.5,9.4-47.7,26.4-65.3l34.4-41.5c12.9-14.6,12.9-28.2,12.9-34.8V99.4
		C361.8,84.6,349.8,72.5,335,72.5z"/>
	<path class="st1" d="M294.5,507.6h-87.8c-4.8,0-8.6,3.9-8.6,8.6v162.2c0,27.1,21.9,49,49,49h7c27.1,0,49-21.9,49-49V516.2
		C303.2,511.5,299.3,507.6,294.5,507.6z M250.6,673.8c-9.3,0-16.8-7.5-16.8-16.8s7.5-16.8,16.8-16.8c9.3,0,16.8,7.5,16.8,16.8
		S259.9,673.8,250.6,673.8z"/>
	<path class="st1" d="M625.4,116.7c-22.3-28.1-53.2-44.2-84.8-44.2s-62.5,16.1-84.8,44.2c-22.6,28.5-35.1,66.4-35.1,106.7
		c0,32.3,8,63.1,23.1,89.1c6.6,11.3,14.3,21.4,22.9,29.9c23,22.7,35.9,53.6,35.9,85.9v58.4h75.9v-58.4c0-32.3,12.9-63.2,35.9-85.9
		c8.6-8.5,16.3-18.5,22.9-29.9c15.1-26,23.1-56.8,23.1-89.1C660.5,183.1,648.1,145.2,625.4,116.7z"/>
	<path class="st1" d="M553.3,727.5H528c-22,0-39.9-17.9-39.9-39.9v-173c0-3.9,3.1-7,7-7h91c3.9,0,7,3.1,7,7v172.9
		C593.2,709.6,575.3,727.5,553.3,727.5z"/>
	<ellipse class="st2" cx="540.7" cy="657" rx="16.8" ry="16.8"/>
</g>
</svg>
