<?xml version="1.0" encoding="utf-8"?>
<!-- Generator: Adobe Illustrator 26.3.1, SVG Export Plug-In . SVG Version: 6.00 Build 0)  -->
<svg version="1.1" id="contents" xmlns="http://www.w3.org/2000/svg" xmlns:xlink="http://www.w3.org/1999/xlink" x="0px" y="0px"
	 viewBox="0 0 800 800" style="enable-background:new 0 0 800 800;" xml:space="preserve">
<style type="text/css">
	.st0{fill:#CCCCCC;}
	.st1{fill:#FFFFFF;}
</style>
<rect class="st0" width="800" height="800"/>
<g>
	<g>
		<rect x="62.4" y="624.8" class="st1" width="407.4" height="76.3"/>
	</g>
	<path class="st1" d="M643.3,400.2V475c0,26.9-21.9,48.9-48.9,48.9S545.5,502,545.5,475v-82.5c0-44.3-33-81.1-75.8-87v39.7
		c21.1,5.4,36.7,24.6,36.7,47.3V475c0,48.5,39.4,87.9,87.9,87.9s87.9-39.4,87.9-87.9v-74.8H643.3L643.3,400.2z"/>
	<path class="st1" d="M636.4,376.4h53.4c26.3,0,47.8-21.5,47.8-47.8v-76.5h-149v76.5C588.7,354.9,610.2,376.4,636.4,376.4z"/>
	<rect x="614.6" y="177.5" class="st1" width="31" height="56.2"/>
	<rect x="680.6" y="177.5" class="st1" width="31" height="56.2"/>
	<path class="st1" d="M417.9,98.8H114.2c-15.1,0-27.4,12.3-27.4,27.4v462.3h358.4V126.2C445.3,111.2,433,98.8,417.9,98.8z
		 M237.4,417.6h-100V269.8H236v28.8h-65.4v29.2h51.1V356h-51.1v32.8h66.8L237.4,417.6z M350,417.6h-37.4l-44.8-147.9h37.3l26.1,86.3
		l26.1-86.3h37.3L350,417.6z"/>
</g>
</svg>
