<?xml version="1.0" encoding="utf-8"?>
<!-- Generator: Adobe Illustrator 26.3.1, SVG Export Plug-In . SVG Version: 6.00 Build 0)  -->
<svg version="1.1" id="contents" xmlns="http://www.w3.org/2000/svg" xmlns:xlink="http://www.w3.org/1999/xlink" x="0px" y="0px"
	 viewBox="0 0 800 800" style="enable-background:new 0 0 800 800;" xml:space="preserve">
<style type="text/css">
	.st0{fill:#3A75B0;}
	.st1{fill:#FCFCFC;}
</style>
<rect x="0" class="st0" width="800" height="800"/>
<g>
	
		<ellipse transform="matrix(0.7071 -0.7071 0.7071 0.7071 -114.1139 374.1637)" class="st1" cx="394.6" cy="324.83" rx="87.96" ry="87.96"/>
	<path class="st1" d="M209.86,166.49c24.87,10.4,35.55,21.08,45.95,45.95c1.55,3.69,6.81,3.69,8.35,0
		c10.4-24.87,21.08-35.55,45.95-45.95c3.69-1.55,3.69-6.81,0-8.35c-24.87-10.4-35.55-21.08-45.95-45.95c-1.55-3.69-6.81-3.69-8.35,0
		c-10.4,24.87-21.08,35.55-45.95,45.95C206.17,159.68,206.17,164.94,209.86,166.49z"/>
	<path class="st1" d="M529.84,278.34c14.61,6.11,20.88,12.38,27,27c0.91,2.17,4,2.17,4.91,0c6.11-14.61,12.38-20.88,27-27
		c2.17-0.91,2.17-4,0-4.91c-14.61-6.11-20.88-12.39-27-27c-0.91-2.17-4-2.17-4.91,0c-6.11,14.61-12.38,20.88-27,27
		C527.67,274.34,527.67,277.43,529.84,278.34z"/>
	<path class="st1" d="M708.94,345.94c-18.83-10.13-42.31-3.08-52.44,15.75l-72.11,134.02l-84.65-41.97
		c-9.25-3.81-34.15-12.74-55.24-12.74c0,0-115.57-0.44-118.85,0l-78.55-92.41l2.42,3.43L135.87,195.78
		c-10.38-14.3-29.96-19.15-46.02-10.64c-17.58,9.32-24.28,31.13-14.96,48.72l91.08,171.77l2.67,3.78l92.25,135.07l5.85,146.11
		h255.73l4.11-102.76l64.61,23.72c24.2,8.86,51.18-3.17,60.66-27.29l74.77-190.06C733.73,376.21,726.4,355.33,708.94,345.94z"/>
</g>
</svg>
