<?xml version="1.0" encoding="utf-8"?>
<!-- Generator: Adobe Illustrator 26.3.1, SVG Export Plug-In . SVG Version: 6.00 Build 0)  -->
<svg version="1.1" id="contents" xmlns="http://www.w3.org/2000/svg" xmlns:xlink="http://www.w3.org/1999/xlink" x="0px" y="0px"
	 viewBox="0 0 800 800" style="enable-background:new 0 0 800 800;" xml:space="preserve">
<style type="text/css">
	.st0{fill:#3A75B0;}
	.st1{fill:#FFFFFF;}
</style>
<rect y="0" class="st0" width="800" height="800"/>
<g>
	<rect x="119.23" y="640.84" class="st1" width="436.41" height="81.75"/>
	<path class="st1" d="M702.35,191.64l-23.59-23.59l0.04-0.04l-89.52-89.53l-27.54,27.54l58.25,58.25l-13.02,13.02
		c-8.56,8.56-8.56,22.57,0,31.13l30.38,30.38v280.49h-36.86V257.26c0-11.56-9.38-20.94-20.94-20.94H529.4V106.73
		c0-16.12-13.19-29.32-29.32-29.32h-325.3c-16.12,0-29.32,13.19-29.32,29.32v495.23H529.4V278.2h29.2v262.03
		c0,11.56,9.38,20.94,20.94,20.94h78.74c11.56,0,20.94-9.38,20.94-20.94V245.91l23.14-23.14
		C710.91,214.21,710.91,200.2,702.35,191.64z M229.9,157.9h215.06v137.09H229.9V157.9z M285.59,486.06l-0.13,0.21
		c-6.45,10.47-18.45,16.01-34.7,16.01c-28.25,0-45.8-18.61-45.8-48.57c0-28.77,17.38-48.11,43.26-48.11
		c16.71,0,29.63,6.32,35.45,17.33l0.44,0.83l-17.96,8.12l-0.43-0.45c-3.96-4.11-9.21-6.28-15.18-6.28
		c-13.42,0-22.09,11.21-22.09,28.55c0,17.63,8.97,29.48,22.32,29.48c7.28,0,14.16-2.54,16.54-6.07V463.8h-21.35v-17.21h39.64V486.06
		z M365.61,502.27l-7.49-23.37l-29.93,0l-7.49,23.37l-22.32,0l30.98-96.65h27.59l30.98,96.65L365.61,502.27z M433.96,502.63
		c-19.23,0-32.3-8.96-37.7-23.87l18.55-6.9c4.59,7.85,11.98,12.29,19.03,12.29c9.29,0,13.51-3.55,13.51-9.24
		c0-5.09-3.13-8.41-11.82-11.61l-13.63-4.74c-14.35-5.09-21.71-12.2-21.71-25.94c0-14.92,12.3-27.36,33.4-27.36
		c17.01,0,28.34,6.04,33.77,18.36l-0.3,0.21l-17.95,6.67c-3.43-4.82-8.78-7.48-14.67-7.48c-9.28,0-13.02,3.68-13.02,8.41
		c0,3.79,3.14,6.51,10.13,8.76l14.95,4.85c14.23,4.62,23.4,13.15,23.4,27.48C469.9,491.61,456.99,502.62,433.96,502.63z"/>
	<polygon class="st1" points="334.2,460.14 352.11,460.14 343.15,432.2 	"/>
</g>
</svg>
