<?xml version="1.0" encoding="utf-8"?>
<!-- Generator: Adobe Illustrator 26.3.1, SVG Export Plug-In . SVG Version: 6.00 Build 0)  -->
<svg version="1.1" id="contents" xmlns="http://www.w3.org/2000/svg" xmlns:xlink="http://www.w3.org/1999/xlink" x="0px" y="0px"
	 viewBox="0 0 800 800" style="enable-background:new 0 0 800 800;" xml:space="preserve">
<style type="text/css">
	.st0{fill:#3A75B0;}
	.st1{fill:#FFFFFF;}
</style>
<rect x="0" class="st0" width="800" height="800"/>
<g>
	<path class="st1" d="M585.8,218.47c9,0,12.21-9.05,12.21-17.52c0-7.89-3.17-17.1-12.12-17.1c-9.14,0-12.38,9.33-12.38,17.31
		C573.51,209.15,576.73,218.47,585.8,218.47z"/>
	<path class="st1" d="M503.35,558.29V416.85h26.24v47.71c0,6.61,5.41,12.02,12.02,12.02h88.32c6.61,0,12.02-5.41,12.02-12.02V87.89
		c0-6.61-5.41-12.02-12.02-12.02H541.6c-6.61,0-12.02,5.41-12.02,12.02v47.71h-26.24V90.3c0-7.93-6.49-14.42-14.42-14.42H124.81
		c-7.93,0-14.42,6.49-14.42,14.42v633.83h392.95V606.36H613.3v117.77h48.07V606.36h28.24v-48.07H503.35z M605.91,452.92H565.6
		v-58.34h16.8v42.45h23.52V452.92z M606.22,377.62H565.3v-58.34h39.55v12.88H582.1v8.97h21.46v12.67H582.1v10.94h24.12V377.62z
		 M610.36,261.4h-16.25v42.24h-16.8V261.4h-16.16v-16.1h49.21V261.4z M559.83,99.53h16.8v20.17h18.26V99.53h16.8v58.34h-16.8v-21.86
		h-18.26v21.86h-16.8V99.53z M586.23,171.18c20.16,0,29.18,14.74,29.18,29.35c0,18.88-11.51,30.62-30.04,30.62
		c-17.5,0-29.26-11.96-29.26-29.77C556.11,183.6,568.5,171.18,586.23,171.18z M503.35,171.66h26.24V380.8h-26.24V171.66z
		 M224.24,629.49h-65.55v-65.55h65.55V629.49z M224.24,521.34h-65.55v-65.55h65.55V521.34z M224.24,413.19h-65.55v-65.56h65.55
		V413.19z M224.24,305.02h-65.55v-65.55h65.55V305.02z M224.24,196.19h-65.55v-65.55h65.55V196.19z M339.64,629.49h-65.55v-65.55
		h65.55V629.49z M339.64,521.34h-65.55v-65.55h65.55V521.34z M339.64,413.19h-65.55v-65.56h65.55V413.19z M339.64,305.02h-65.55
		v-65.55h65.55V305.02z M339.64,196.19h-65.55v-65.55h65.55V196.19z M455.05,629.49H389.5v-65.55h65.55V629.49z M455.05,521.34
		H389.5v-65.55h65.55V521.34z M455.05,413.19H389.5v-65.56h65.55V413.19z M455.05,305.02H389.5v-65.55h65.55V305.02z M455.05,196.19
		H389.5v-65.55h65.55V196.19z"/>
</g>
</svg>
