<?xml version="1.0" encoding="utf-8"?>
<!-- Generator: Adobe Illustrator 26.3.1, SVG Export Plug-In . SVG Version: 6.00 Build 0)  -->
<svg version="1.1" id="contents" xmlns="http://www.w3.org/2000/svg" xmlns:xlink="http://www.w3.org/1999/xlink" x="0px" y="0px"
	 viewBox="0 0 800 800" style="enable-background:new 0 0 800 800;" xml:space="preserve">
<style type="text/css">
	.st0{fill:#CCCCCC;}
	.st1{fill-rule:evenodd;clip-rule:evenodd;fill:#FFFFFF;}
</style>
<rect y="-0.5" class="st0" width="800" height="800"/>
<g>
	<path class="st1" d="M399.8,708.3c-93.2,0-163.3-15.7-220.5-49.5c-30.8-18.1-54.3-38.6-69.9-60.7c-15.9-22.7-24-47.7-24-74.4
		c0-28.4,9.7-54.8,28.9-78.5c12.4-15.3,29-29.8,49.5-43.1c2.6-1.7,5.6-2.6,8.7-2.6c4.5,0,8.8,1.9,11.8,5.2
		c5.3,5.8,5.6,14.5,0.8,20.7c-28.4,36.2-44.8,67.8-44.8,86.6c0,36.2,24.8,68,73.7,94.5c50.6,27.4,113.1,41.3,185.8,41.3
		c72.7,0,135.2-14.3,185.9-42.6c49.1-27.4,74-60.2,74-97.6c0-17.9-13.1-48.2-35.8-83.2c-4.2-6.5-3.2-15.1,2.5-20.4
		c3-2.8,6.9-4.3,10.9-4.3c3.5,0,6.8,1.1,9.6,3.2c44.9,33.6,67.7,72.8,67.7,116.5c0,54.2-31.6,100.7-94,138.2
		C562.6,692.2,492.5,708.3,399.8,708.3z"/>
	<path class="st1" d="M390.6,556.6c-2.8,0-5.5-0.7-7.9-2.1c-6.6-3.8-9.7-11.8-7.2-19.1c14.6-42.6,22.6-76.3,22.6-94.8
		c0-29.7-9.4-65.3-27.8-105.7c-19.3-41.8-29.1-80.1-29.1-113.6c0-43.6,16.9-85.3,50.1-124c3-3.5,7.5-5.6,12.1-5.6
		c2.7,0,5.4,0.7,7.8,2c6.6,3.7,9.8,11.6,7.5,18.8c-12.3,38.8-19,70.1-19,88.3c0,30.5,9,65.5,26.7,104.1
		c17.6,38.9,26.6,76.6,26.6,112c0,50.8-16.4,94.7-50.3,134.1C399.7,554.5,395.2,556.6,390.6,556.6z"/>
	<path class="st1" d="M255.7,533.1c-2.7,0-5.4-0.7-7.7-2c-6.8-3.7-9.9-11.7-7.4-19.1c12.4-37.1,19.2-66.4,19.2-82.5
		c0-26.9-8.1-58.2-24.9-95.6c-17.4-37.8-26.2-72.4-26.2-102.9c0-38.5,14.6-75.5,43.2-110.1c3.1-3.7,7.5-5.8,12.3-5.8
		c2.6,0,5.3,0.7,7.6,1.9c6.7,3.6,9.9,11.5,7.7,18.8c-7.3,23.8-16,56.3-16,76.5c0,27.5,8,59.1,23.8,94c15.9,35.1,24,69.4,24,101.9
		c0,44.1-14.6,84.1-43.3,119.1C265,531,260.5,533.1,255.7,533.1z"/>
	<path class="st1" d="M531.3,532.8c-2.7,0-5.4-0.7-7.7-2c-6.8-3.8-9.9-11.8-7.4-19.1c12.5-36.9,19.3-66.1,19.3-82.2
		c0-26.9-8.3-59-24.7-95.2c-17.5-38.7-26.4-73.5-26.4-103.7c0-38.2,14.4-75.1,42.8-109.5c3-3.7,7.5-5.8,12.3-5.8
		c2.6,0,5.2,0.7,7.6,1.9c6.7,3.6,10,11.5,7.7,18.8c-7.3,23.8-15.9,56.5-15.9,76.8c0,27.5,8,59,23.8,93.5c16,35.3,24,69.6,24,101.9
		c0,44-14.5,83.9-43.1,118.8C540.6,530.7,536.1,532.8,531.3,532.8z"/>
</g>
</svg>
