<?xml version="1.0" encoding="utf-8"?>
<!-- Generator: Adobe Illustrator 26.3.1, SVG Export Plug-In . SVG Version: 6.00 Build 0)  -->
<svg version="1.1" id="contents" xmlns="http://www.w3.org/2000/svg" xmlns:xlink="http://www.w3.org/1999/xlink" x="0px" y="0px"
	 viewBox="0 0 800 800" style="enable-background:new 0 0 800 800;" xml:space="preserve">
<style type="text/css">
	.st0{fill:#3A75B0;}
	.st1{fill-rule:evenodd;clip-rule:evenodd;fill:#FFFFFF;}
</style>
<rect x="0" y="-0.5" class="st0" width="800" height="800"/>
<g>
	<path class="st1" d="M399.82,708.35c-93.24,0-163.31-15.74-220.53-49.52c-30.8-18.14-54.32-38.57-69.89-60.74
		c-15.92-22.67-23.99-47.7-23.99-74.4c0-28.39,9.71-54.81,28.87-78.52c12.36-15.3,29.01-29.82,49.49-43.14
		c2.61-1.69,5.62-2.59,8.72-2.59c4.48,0,8.79,1.9,11.81,5.2c5.31,5.8,5.63,14.51,0.77,20.69c-28.45,36.2-44.76,67.78-44.76,86.63
		c0,36.22,24.8,68.01,73.72,94.48c50.62,27.43,113.13,41.35,185.78,41.35c72.68,0,135.21-14.32,185.85-42.56
		c49.11-27.39,74.01-60.23,74.01-97.61c0-17.88-13.06-48.21-35.83-83.21c-4.24-6.52-3.19-15.09,2.48-20.4
		c2.97-2.79,6.86-4.32,10.94-4.32c3.48,0,6.79,1.1,9.58,3.19c44.94,33.61,67.73,72.8,67.73,116.47
		c0,54.21-31.64,100.71-94.04,138.18C562.63,692.2,492.49,708.35,399.82,708.35z"/>
	<path class="st1" d="M390.57,556.56c-2.78,0-5.53-0.73-7.94-2.11c-6.65-3.8-9.67-11.82-7.19-19.07
		c14.61-42.61,22.65-76.29,22.65-94.82c0-29.73-9.35-65.29-27.79-105.7c-19.3-41.83-29.08-80.07-29.08-113.64
		c0-43.57,16.87-85.29,50.15-123.99c3.04-3.54,7.47-5.57,12.14-5.57c2.72,0,5.41,0.7,7.78,2.02c6.61,3.68,9.75,11.59,7.47,18.81
		c-12.27,38.76-19.03,70.12-19.03,88.31c0,30.51,8.98,65.52,26.68,104.06c17.65,38.93,26.59,76.6,26.59,111.98
		c0,50.83-16.44,94.71-50.27,134.15C399.68,554.53,395.25,556.56,390.57,556.56z"/>
	<path class="st1" d="M255.66,533.08c-2.7,0-5.37-0.69-7.74-2c-6.75-3.73-9.88-11.74-7.44-19.06c12.35-37.08,19.16-66.4,19.16-82.54
		c0-26.92-8.14-58.2-24.88-95.63c-17.38-37.8-26.2-72.43-26.2-102.89c0-38.46,14.55-75.49,43.25-110.06
		c3.05-3.67,7.54-5.78,12.31-5.78c2.64,0,5.27,0.66,7.6,1.92c6.68,3.61,9.92,11.5,7.7,18.76c-7.28,23.75-15.95,56.31-15.95,76.53
		c0,27.51,8.01,59.12,23.8,93.96c15.94,35.15,24.02,69.43,24.02,101.89c0,44.09-14.56,84.14-43.27,119.06
		C264.97,530.96,260.47,533.08,255.66,533.08z"/>
	<path class="st1" d="M531.28,532.81c-2.7,0-5.38-0.69-7.74-2c-6.77-3.75-9.89-11.79-7.42-19.11
		c12.45-36.94,19.31-66.13,19.31-82.22c0-26.93-8.31-58.96-24.69-95.2c-17.51-38.67-26.39-73.55-26.39-103.67
		c0-38.23,14.41-75.09,42.82-109.54c3.05-3.7,7.55-5.82,12.35-5.82c2.63,0,5.25,0.66,7.57,1.9c6.7,3.6,9.95,11.49,7.73,18.77
		c-7.26,23.81-15.91,56.47-15.91,76.82c0,27.5,8.01,58.97,23.8,93.54c15.95,35.27,24.04,69.56,24.04,101.91
		c0,43.95-14.49,83.91-43.08,118.77C540.61,530.68,536.1,532.81,531.28,532.81z"/>
</g>
</svg>
