<?xml version="1.0" encoding="utf-8"?>
<!-- Generator: Adobe Illustrator 26.3.1, SVG Export Plug-In . SVG Version: 6.00 Build 0)  -->
<svg version="1.1" id="contents" xmlns="http://www.w3.org/2000/svg" xmlns:xlink="http://www.w3.org/1999/xlink" x="0px" y="0px"
	 viewBox="0 0 800 800" style="enable-background:new 0 0 800 800;" xml:space="preserve">
<style type="text/css">
	.st0{fill:#3A75B0;}
	.st1{fill:#FFFFFF;}
</style>
<rect class="st0" width="800" height="800"/>
<g>
	<path class="st1" d="M326.72,245.21c-1.47,0-2.86-0.56-3.93-1.57c-1.48-1.4-2.1-3.5-1.62-5.48l3.33-13.89
		c1.62-6.77,0.19-13.86-3.93-19.47c-11.56-15.73-17.66-34.43-17.66-54.09c0-12.36,2.42-24.36,7.2-35.65
		c4.61-10.91,11.22-20.7,19.63-29.11c8.41-8.41,18.2-15.01,29.11-19.63c11.29-4.78,23.29-7.2,35.65-7.2
		c12.36,0,24.35,2.42,35.65,7.2c10.91,4.61,20.7,11.22,29.11,19.63c8.41,8.41,15.01,18.21,19.63,29.11
		c4.78,11.29,7.2,23.28,7.2,35.65c0,12.37-2.42,24.36-7.2,35.65c-4.61,10.9-11.22,20.7-19.63,29.11
		c-8.41,8.41-18.2,15.01-29.11,19.63c-11.3,4.78-23.29,7.2-35.65,7.2c-9.58,0-19-1.46-27.98-4.35c-2.34-0.75-4.76-1.13-7.21-1.13
		c-2.27,0-4.53,0.33-6.7,0.97l-24.26,7.19C327.82,245.13,327.27,245.21,326.72,245.21z M359.3,217.41c4.48,0,8.9,0.69,13.15,2.06
		c7.06,2.27,14.48,3.42,22.04,3.42c9.75,0,19.21-1.91,28.09-5.66c8.6-3.64,16.32-8.84,22.95-15.48
		c6.63-6.63,11.84-14.35,15.48-22.95c3.76-8.89,5.66-18.34,5.66-28.09v-0.19c0-9.72-1.91-19.17-5.66-28.06
		c-3.64-8.59-8.84-16.32-15.48-22.95c-6.64-6.64-14.36-11.84-22.95-15.47c-8.89-3.76-18.34-5.67-28.09-5.67
		c-9.75,0-19.2,1.91-28.09,5.67c-8.59,3.64-16.32,8.84-22.95,15.47c-6.63,6.63-11.84,14.35-15.48,22.95
		c-3.76,8.89-5.66,18.34-5.66,28.09v0.16c0,15.49,4.81,30.22,13.9,42.6c5.45,7.42,8.33,16.19,8.35,25.36c0,0.3,0,0.59-0.01,0.89
		l0.3-0.1l-0.05,0.41l2.29-0.68C351.05,218.01,355.16,217.41,359.3,217.41z"/>
	<g>
		<path class="st1" d="M405.73,202.54c0,1.39-1.14,2.54-2.54,2.54h-20.31c-1.4,0-2.54-1.14-2.54-2.54v-63.78
			c0-1.4,1.14-2.54,2.54-2.54h20.31c1.39,0,2.54,1.14,2.54,2.54V202.54z"/>
		<path class="st1" d="M407,111.78c0,7.71-6.25,13.96-13.96,13.96c-7.71,0-13.96-6.25-13.96-13.96c0-7.71,6.25-13.96,13.96-13.96
			C400.75,97.82,407,104.07,407,111.78z"/>
	</g>
	<path class="st1" d="M276.86,240.53c0,20.59-16.69,37.28-37.28,37.28c-20.59,0-37.28-16.69-37.28-37.28
		c0-20.59,16.69-37.28,37.28-37.28C260.17,203.26,276.86,219.95,276.86,240.53z"/>
	<path class="st1" d="M166.79,414.08l27.55-30.04l1.95,13.17l-5.09,16.87h96.1l-5.24-17.13l4.98-30.39l30.53,20.06l2.82,1.86
		c5.63,3.68,13.11,4.02,19.21,0.25l53.15-32.9c6.4-3.95,9.16-12.07,6.18-19.23c-3.31-7.94-12.43-11.7-20.37-8.39l-44.07,18.35
		c0,0-47.27-44.27-50.26-46.53C271,290,257.39,286.85,239.58,286.85c-9.3,0-35.94,2.87-48.26,20.75l-69.37,106.48H166.79z"/>
	<path class="st1" d="M639.25,203.25c0,26.48-21.47,47.95-47.95,47.95c-26.48,0-47.95-21.47-47.95-47.95
		c0-26.48,21.47-47.95,47.95-47.95C617.78,155.31,639.25,176.77,639.25,203.25z"/>
	<path class="st1" d="M745.28,432.25h-86.92l2.76-129.22c0-15.09-15.67-40.31-44.78-40.31h-54.74c-0.38,0-0.8,0.08-1.22,0.18
		c-8.95,0.01-17.77,4.13-23.46,11.9l-63.58,86.75l-52.85,4.46c-8.49,0.71-15.44,7.52-16.05,16.29c-0.68,9.69,6.62,18.09,16.31,18.77
		l64.88,4.54c5.51,0.35,11.22-1.68,15.25-6.06l1.99-2.16l31.11-33.75l1.46,68.6H54.72v36.35h481.36l4.25,250.79
		c0.22,11.41,9.26,20.92,20.83,21.46c12.05,0.56,22.28-8.76,22.84-20.81l10.89-233.65h2.98l3.95,233.01
		c0.22,11.41,9.26,20.92,20.83,21.46c12.05,0.56,22.28-8.76,22.84-20.81l11.72-251.44h88.06V432.25z"/>
</g>
</svg>
