<?xml version="1.0" encoding="utf-8"?>
<!-- Generator: Adobe Illustrator 26.3.1, SVG Export Plug-In . SVG Version: 6.00 Build 0)  -->
<svg version="1.1" id="contents" xmlns="http://www.w3.org/2000/svg" xmlns:xlink="http://www.w3.org/1999/xlink" x="0px" y="0px"
	 viewBox="0 0 800 800" style="enable-background:new 0 0 800 800;" xml:space="preserve">
<style type="text/css">
	.st0{fill:#CCCCCC;}
	.st1{fill:#FFFFFF;}
	.st2{fill-rule:evenodd;clip-rule:evenodd;fill:#FFFFFF;}
</style>
<rect y="1.3" class="st0" width="800" height="800"/>
<g>
	<g>
		<polygon class="st1" points="288.5,589.1 316,589.1 316,574.7 288.5,574.7 288.5,556.9 320.2,556.9 320.2,542.1 269.4,542.1 
			269.4,618.2 288.5,618.2 		"/>
		<polygon class="st1" points="462.4,603.4 427.8,603.4 427.8,586.5 454.2,586.5 454.3,572 427.8,572 427.8,556.9 461.6,556.9 
			461.6,542.1 410.6,542.1 410.6,618.2 462.4,618.2 		"/>
		<polygon class="st1" points="530.7,603.4 496.1,603.4 496.1,586.5 522.5,586.5 522.5,572 496.1,572 496.1,556.9 529.9,556.9 
			529.9,542.1 478.9,542.1 478.9,618.2 530.7,618.2 		"/>
		<path class="st1" d="M374.6,618.2l-13.3-28h-7.7v28h-18.7v-76.2h32.5c15,0,25.1,9.2,25.1,22.8c0,13.2-4,20.9-12.5,24.3l15.9,29
			H374.6z M364.3,574.3c5.6,0,9-3.2,9-8.6c0-4.8-3.5-7.7-9.1-7.7h-10.4v16.3L364.3,574.3L364.3,574.3z"/>
	</g>
	<g>
		<rect x="401.3" y="691.6" class="st1" width="37.7" height="15.4"/>
		<g>
			<rect x="361.8" y="690.8" class="st1" width="19" height="45.3"/>
			<rect x="361.8" y="662.5" class="st1" width="19" height="18.6"/>
		</g>
		<g>
			<rect x="526.5" y="690.8" class="st1" width="19" height="45.3"/>
			<rect x="526.5" y="662.5" class="st1" width="19" height="18.6"/>
		</g>
		<polygon class="st1" points="477.7,708.3 505.2,708.3 505.2,693.9 477.7,693.9 477.7,676.1 509.4,676.1 509.4,661.2 458.5,661.2 
			458.5,737.4 477.7,737.4 		"/>
		<polygon class="st1" points="328.3,661.2 316.3,705.4 304.3,661.2 287.5,661.2 275.6,705.4 263.6,661.2 246.1,661.2 266.8,737.4 
			284.3,737.4 295.9,694.6 307.6,737.4 325,737.4 345.7,661.2 		"/>
	</g>
	<g>
		<path class="st2" d="M644.6,161.2C507.4,28.5,290.1,30.1,155.4,163.9l39.3,39.8c112.4-111.5,293.9-112.2,408.7-1.2L644.6,161.2z"
			/>
		<path class="st2" d="M236.9,245.4l40.6,41c67.6-66.6,175.7-67.2,244.3-1.6l41.2-41.2C471.6,155.5,327,156.4,236.9,245.4z"/>
		<path class="st2" d="M360.5,441c0-21.8,17.7-39.5,39.5-39.5s39.5,17.7,39.5,39.5s-17.7,39.5-39.5,39.5
			C378.2,480.4,360.5,462.7,360.5,441z"/>
		<path class="st2" d="M481.2,326.1c-45.8-43-117.4-42.5-162.4,1.5l40.9,41.3c22.4-21.4,57.2-21.9,80.3-1.5L481.2,326.1z"/>
	</g>
</g>
</svg>
