<?xml version="1.0" encoding="UTF-8"?><svg id="_イヤー_2" xmlns="http://www.w3.org/2000/svg" viewBox="0 0 401.68 66.06"><defs><style>.cls-1{fill:#fff;opacity:.8;}.cls-2{fill:#efad94;}</style></defs><g id="_イヤー_1-2"><g><rect class="cls-1" x="3.39" y="3.03" width="394.9" height="60" rx="30" ry="30"/><g><path class="cls-2" d="M234.79,.29h.11c.64-.05,.28-.04-.11,0Z"/><path class="cls-2" d="M13.7,9.54c1.22-.51,.55,.18,.03,.76-.27,.29-.47,.58-.4,.68,.06,.1,.36-.01,1.22-.41-.5,.05,1.91-2.51-.85-1.04Z"/><path class="cls-2" d="M179.13,.63c.11,.1,.34,.17,.57,.25-.02-.06-.15-.13-.57-.25Z"/><path class="cls-2" d="M220.6,1.43l-1.03-.08c.41,.05,.74,.07,1.03,.08Z"/><path class="cls-2" d="M157.14,1.38c-.28-.03-.54-.05-1.05,0,.07,.03,.14,.05,.23,.07,.2-.06,.45-.09,.82-.07Z"/><path class="cls-2" d="M157.14,1.38c.14,.01,.28,.03,.46,.05-.17-.02-.32-.04-.46-.05Z"/><path class="cls-2" d="M135.19,1.43c.12,.04,.28,.08,.41,.11,.22,0,.48-.02,.71-.03l-1.12-.08Z"/><path class="cls-2" d="M156.69,5.86l-3.56-.08c1,.05,2.29,.08,3.56,.08Z"/><path class="cls-2" d="M100.43,60.68c-.31-.01-.6,0-.82,.07l.82-.07Z"/><path class="cls-2" d="M142.56,5.86c-.64-.2-1.31-.31-2.01-.39-.15,.04-.32,.08-.41,.14l2.42,.24Z"/><path class="cls-2" d="M88.24,60.52c.08,0,.16-.02,.25-.03-.08,.01-.17,.02-.25,.03Z"/><path class="cls-2" d="M88.49,60.49c.17-.02,.34-.05,.5-.07-.19,.03-.35,.05-.5,.07Z"/><path class="cls-2" d="M216.31,64.61h.06s-.03,0-.06,0Z"/><path class="cls-2" d="M126.29,5.83c-.18,.01-.35,.03-.47,.05,.13-.01,.31-.03,.47-.05Z"/><path class="cls-2" d="M153.79,1.8s-.03,.02-.05,.04c.03-.01,.05-.03,.05-.04Z"/><polygon class="cls-2" points="107.02 60.47 107.03 60.61 107.62 60.48 107.02 60.47"/><path class="cls-2" d="M157.08,5.87s0,0,0,0h0Z"/><path class="cls-2" d="M139.18,.93l.51,.63c1.15-.11,1.39-.82-.51-.63Z"/><polygon class="cls-2" points="87.99 65.73 90.52 65.55 89.33 65.52 87.99 65.73"/><path class="cls-2" d="M166.89,65.77h-.11c-.64,.05-.28,.04,.11,0Z"/><path class="cls-2" d="M387.98,56.52c-1.22,.51-.55-.18-.03-.76,.27-.29,.47-.58,.4-.68-.06-.1-.36,.01-1.22,.41,.5-.05-1.91,2.51,.85,1.04Z"/><path class="cls-2" d="M222.55,65.43c-.11-.1-.34-.17-.57-.25,.02,.06,.15,.13,.57,.25Z"/><path class="cls-2" d="M181.09,64.63l1.03,.08c-.41-.05-.74-.07-1.03-.08Z"/><path class="cls-2" d="M244.54,64.69c.28,.03,.54,.05,1.05,0-.07-.03-.14-.05-.23-.07-.2,.06-.45,.09-.82,.07Z"/><path class="cls-2" d="M244.54,64.69c-.14-.01-.28-.03-.46-.05,.17,.02,.32,.04,.46,.05Z"/><path class="cls-2" d="M266.49,64.64c-.12-.04-.28-.08-.41-.11l-.71,.03,1.12,.08Z"/><path class="cls-2" d="M244.99,60.21l3.56,.08c-1-.05-2.29-.08-3.56-.08Z"/><path class="cls-2" d="M301.26,5.39c.31,.01,.6,0,.82-.07l-.82,.07Z"/><path class="cls-2" d="M259.12,60.21c.64,.2,1.31,.31,2.01,.39,.15-.04,.32-.08,.41-.14l-2.42-.24Z"/><path class="cls-2" d="M247.89,64.26s.03-.02,.05-.04c-.03,.01-.05,.03-.05,.04Z"/><path class="cls-2" d="M313.19,5.58c-.17,.02-.34,.05-.5,.07,.19-.03,.35-.05,.5-.07Z"/><path class="cls-2" d="M275.4,60.23c.18-.01,.35-.03,.47-.05-.13,.01-.31,.03-.47,.05Z"/><path class="cls-2" d="M185.37,1.45h-.06s.03,0,.06,0Z"/><path class="cls-2" d="M401.61,32.06c-.07-.73-.16-1.48-.27-2.22-.17-.74-.4-1.48-.61-2.21l-.33-1.09c-.15-.35-.31-.71-.46-1.06-.3-.7-.6-1.38-.89-2.05-.36-.65-.71-1.29-1.02-1.9-.15-.31-.3-.61-.45-.91-.17-.29-.34-.57-.5-.85-.31-.56-.59-1.1-.81-1.62l.59,.24c-.66-.92-1.8-1.3-2.32-2.57,.18,0,.62,.2,.31-.22-.43-.46-2.65-1.96-3.57-3.14,.46,.22,.86,.48,1.29,.72-.25-.28-.49-.56-.73-.83-.28-.24-.55-.48-.81-.71-.54-.46-1.07-.88-1.59-1.27-1.07-.76-2.22-1.32-3.29-1.89-1.09-.54-2.27-.95-3.39-1.43-.77-.33-1.6-.61-2.46-.92-.28-.11-.57-.23-.86-.34-.12-.05-.24-.09-.35-.14,.67-.82-4.26-2.98-6.96-3.75l.14-.09c-4.03-.99-7.68-1.34-11.17-1.19-.86,.03-1.76,.05-2.58,.1-.8,.06-1.61,.13-2.43,.19-1.64,.13-3.32,.24-5.11,.33-4.45-.96-15.07-.4-22.22-.94,1.09,.16-.18,.69-1.45,.77-1.68-.18-4.64,.61-4.37-.2l.6,.02c-1.26-.79-4.71-.58-7.4-.6l-.44,1.06c-3.29-.72-7.53-.64-11.51-.5-1.88-.1-3.65,.02-5.34,.17-1.92,.03-3.58-.04-4.77-.31l.37-.04-.41,.03c-.22-.05-.45-.1-.64-.17-1.7,.26-3.8,.26-5.49,.53l.09-.57c-4.71-.14-7.06-.22-12.88-.08L276.31,0c-2.2-.03-3.32,.71-4.72,1.21-1.6-.09-3.22-.17-2.57-.43-.31,.03-.55,.06-.74,.09l-.06-.05c-5.73,.01-11.52-.73-17.18,.04,.09-.12,.26-.37,1.19-.4-1.88-.02-6.2-.29-8.32-.06-.61-.07-1.17-.13-1.67-.15l1.91-.19c-1.14,.11-2.07,.11-3.03,.11l1.09,.47c-1.12-.08-2.07-.09-2.05-.28-.41,.11-.42,.24-.36,.39-1.24,.07-2.68,.2-4.01,.34-.05-.21-1.12-.56,1.35-.62-.77,.08-1.7,.07-2.83-.01-.17-.07,.16-.13,.47-.17-4.49-.56-2.07,.71-6.72,.7,.59-.35-1.08-.67-1.84-.6,1.88,0,.9,.59-.82,.86-2.99-.28-3.25,.21-4.81,.17l.87,.06c-.6,.08-.92,.22-1.66,.42-.49,.02-1.02,.04-1.61,.07-.18-.28,1.89-.19,1.15-.31-1.66,.45-3.62-.07-5.79-.25-.04-.02-.07-.05-.1-.07-.02,.02-.07,.04-.1,.06-.8-.06-1.62-.07-2.46,.04-1.49-.24-.14-.67-1.46-.83-2.56,.33-3.46-.05-5.12-.17,.12-.1,.39-.22,.9-.36-.6,.09-1.31,.21-2.08,.33-.41,0-.87,.03-1.41,.09,.08,.04,.15,.06,.23,.1-1,.15-2.05,.29-3.09,.38v-.1c-1.64-.19-3.15-.16-4.69-.06-.09,0-.17,.01-.26,.02-.28,.02-.57,.04-.85,.07-.93-.08-1.55-.14-2.47-.15-.37-.43-3.64-.23-5.23-.25,.13,.56-1.89,.48-.06,.92-.04-.03,.45-.05,1.31-.07h.04c-.12,.02-.21,.03-.37,.04,.15,.03,.29,.06,.44,.09-.99,.31-3.44,0-5.17,.16h-.06c.13-.39-1.01-.54-1.81-.78,.03,.1-.48,.13-1.18,.16-.36-.1-.62-.19-.74-.29-4.84,.32-11.4,.21-14.44,1.26-.27,.03-.48,.03-.67,.02,.66-.29-.06-.51,.71-.72,0,0,.02,0,.03,0h0c.26-.07,.68-.14,1.37-.21-1.51,0-2.86-.08-2.89,.2-.88-.25-4.18,.53-5.57,.16-.36,.1-.59,.27-1.02,.4-.08,.02-.17,.04-.24,.06-.31,.07-.7,.11-1.28,.1-.12-.05-.08-.11-.04-.15-.06,.03-.18,.06-.32,.08-.42-.25,2.1-.44-1.64-.35l.64-.23c-5.51-.69-9.82,.08-14.54,.52-.85-.07-1.63-.17-2.29-.34-2.6,.1-5.62,.21-8.25,.26-.19-.02-.37-.04-.56-.07,.2,.03,.37,.05,.52,.07-.68,.01-1.34,.02-1.95,.03,.19-.12,0-.2,.57-.16-1.46-.13-2.2-.02-2.76,.15-1.16-.02-2.32-.03-3.48-.03-.69-1.27-5.66,.19-8.8-.57l.76-.08c-2.41-.44-5.88,.49-9.82,.4,0,0,.19-.11,.02-.2-.95,.23-2.2,.41-3.59,.55-2.14-.06-4.26-.16-6.36-.35-3.32-.21-3.68,.26-5.71,.62l-.72-.6-.77,.15c-.1-.06-.17-.12-.21-.19l3.2-.03c-1.64-.71-4.14,.02-5.83-.1l.22-.31c-3.64,.08-4.62,.53-7.03,.73-.87-.12-1.76-.23-2.71-.29-.78-.29-2.55-.47-3.66-.17,.62,.02,1.22,.07,1.79,.12-1,.01-2.05,.09-3.2,.27l.8,.41c-.33-.01-.72-.01-1.14-.01l-.69-.63c-1.02,.1-2.85,.31-4.86,.51-.03-.03-.05-.06-.02-.1-.07,.02-.19,.08-.32,.13-.37,.04-.73,.07-1.11,.1-.06,0-.11,0-.18-.02l-.07-.32-.99,.1c1.93-.29,4.22-.5,5.86-.73-1.88,0-6.4,.06-7.38,.45,.76-.08,1.72-.27,2.46-.15-1.63,.44-3.63,.71-5.98,.83-3.26-.29,.9-1.22-5.01-1.28-1,.05-2.37,.23-3.53,.44-2.79-.03-5.9,0-7.42-.39-1.74,.35-3.47,.56-5.18,.95-.86,.18-1.74,.3-2.59,.52-.86,.21-1.72,.43-2.59,.64-3.44,.94-7.03,2.13-10.28,4.14,3.3-.38-1.93,1.11-.46,1.86-1.3,1-1.85,1.35-2.05,1.39l.34-.16-.35,.16h0c-.83,.38-1.54,.85-2.31,1.3-.75,.46-1.57,.89-2.24,1.42-1.21,.61,.83-1.27,.5-1.32-1.44,1.19-1.76,1.44-2.11,1.49-.33,.07-.58,0-1.62,.8,.78-.13-.14,1.3-1.58,2.82l2.41-1.93c-.59,1.05-1.11,1.74-1.62,2.26-.51,.52-.88,.92-1.34,1.3-.43,.39-.87,.78-1.31,1.35-.43,.58-.75,1.38-1.07,2.5l.18-1.5c-.2,.58-.56,1.38-.94,2.3-.29,.94-.62,2.01-.91,3.07-.16,1.08-.29,2.17-.31,3.12,.05,.96,.25,1.79,.53,2.37-.21,.4-.69,.95-.74-.09-.03,.35-.06,.71-.08,1.07,0,.36,.04,.72,.07,1.09,.07,.73,.16,1.48,.27,2.22,.17,.74,.4,1.48,.61,2.21l.33,1.09c.15,.35,.31,.71,.46,1.06,.3,.7,.6,1.38,.89,2.05,.36,.65,.71,1.29,1.02,1.9,.15,.31,.3,.61,.45,.91,.17,.29,.34,.57,.5,.85,.31,.56,.59,1.1,.81,1.62l-.59-.24c.66,.92,1.8,1.3,2.32,2.57-.18,0-.62-.2-.31,.22,.43,.46,2.65,1.96,3.57,3.14-.46-.22-.86-.48-1.29-.72,.25,.28,.49,.56,.73,.83,.28,.24,.55,.48,.81,.71,.54,.46,1.07,.88,1.59,1.27,1.07,.76,2.22,1.32,3.29,1.89,1.09,.54,2.27,.95,3.39,1.43,.77,.33,1.6,.61,2.46,.92,.28,.11,.56,.23,.85,.33,.12,.05,.24,.09,.36,.14-.67,.82,4.26,2.98,6.96,3.75l-.14,.09c4.03,.99,7.68,1.34,11.17,1.19,.86-.03,1.76-.05,2.58-.1,.8-.06,1.61-.13,2.43-.19,1.64-.13,3.32-.24,5.11-.33,4.45,.96,15.07,.4,22.22,.94-1.09-.16,.18-.69,1.45-.77,1.68,.18,4.64-.61,4.37,.2l-.6-.02c1.26,.79,4.71,.58,7.4,.6l.44-1.06c3.29,.72,7.53,.64,11.51,.5,1.88,.1,3.65-.02,5.34-.17,1.92-.03,3.58,.04,4.77,.31l-.37,.04,.41-.03c.22,.05,.45,.1,.64,.17,1.7-.26,3.8-.26,5.49-.53l-.09,.57c4.71,.14,7.06,.22,12.88,.08l-1.19,.4c2.2,.03,3.32-.71,4.72-1.21,1.6,.09,3.22,.17,2.57,.43,.31-.03,.55-.06,.74-.09l.06,.05c5.73-.01,11.52,.73,17.18-.04-.09,.12-.26,.37-1.19,.4,1.88,.02,6.2,.29,8.32,.06,.61,.07,1.18,.13,1.67,.15l-1.91,.19c1.14-.11,2.07-.11,3.03-.11l-1.09-.48c1.12,.08,2.07,.09,2.05,.28,.41-.11,.42-.24,.36-.39,1.24-.07,2.68-.2,4.01-.34,.05,.21,1.12,.56-1.35,.62,.77-.08,1.7-.07,2.83,.01,.17,.07-.16,.13-.47,.17,4.49,.56,2.07-.71,6.72-.7-.59,.35,1.08,.67,1.84,.6-1.88,0-.9-.59,.82-.86,2.99,.28,3.25-.21,4.81-.17l-.87-.06c.6-.08,.92-.22,1.66-.42,.49-.02,1.02-.04,1.61-.07,.18,.28-1.89,.19-1.15,.31,1.66-.45,3.62,.07,5.79,.25,.04,.02,.07,.05,.1,.07,.02-.02,.07-.04,.1-.06,.8,.06,1.62,.07,2.46-.04,1.49,.24,.14,.67,1.46,.83,2.56-.33,3.46,.05,5.12,.17-.12,.1-.39,.22-.9,.36,.6-.09,1.31-.21,2.08-.33,.41,0,.87-.03,1.41-.09-.08-.04-.15-.06-.23-.1,1-.15,2.05-.29,3.09-.38v.1c1.64,.19,3.15,.16,4.69,.06,.09,0,.18-.01,.26-.02,.28-.02,.57-.04,.85-.07,.93,.08,1.55,.14,2.47,.15,.37,.43,3.64,.23,5.23,.25-.13-.56,1.89-.48,.06-.92,.04,.03-.45,.05-1.31,.07h-.04c.12-.02,.21-.03,.37-.04-.15-.03-.29-.06-.44-.09,.99-.31,3.44,0,5.17-.16h.06c-.13,.39,1.01,.54,1.81,.78-.03-.1,.48-.13,1.18-.16,.36,.1,.62,.19,.74,.29,4.84-.32,11.4-.21,14.44-1.26,.27-.03,.48-.03,.67-.02-.66,.29,.06,.51-.71,.72,0,0-.02,0-.03,0h0c-.26,.07-.68,.14-1.37,.21,1.51,0,2.86,.08,2.89-.2,.88,.25,4.18-.53,5.57-.16,.36-.1,.59-.27,1.02-.4,.08-.02,.17-.04,.24-.06,.31-.07,.7-.11,1.28-.1,.12,.05,.08,.11,.04,.15,.06-.03,.18-.06,.32-.08,.42,.25-2.1,.44,1.64,.35l-.64,.23c5.51,.69,9.82-.08,14.54-.52,.85,.07,1.63,.17,2.29,.34,2.6-.1,5.62-.21,8.24-.26,.19,.02,.37,.04,.56,.07-.2-.03-.37-.05-.52-.07,.68-.01,1.34-.02,1.95-.03-.19,.12,0,.2-.57,.16,1.46,.13,2.2,.02,2.76-.15,1.16,.02,2.32,.03,3.48,.03,.69,1.27,5.66-.19,8.8,.57l-.76,.08c2.41,.44,5.88-.49,9.82-.4,0,0-.19,.11-.02,.2,.95-.23,2.2-.41,3.59-.55,2.14,.06,4.26,.16,6.36,.35,3.32,.21,3.68-.26,5.71-.62l.72,.6,.77-.15c.1,.06,.17,.12,.21,.19l-3.2,.03c1.64,.71,4.14-.02,5.83,.1l-.22,.31c3.64-.08,4.62-.53,7.03-.73,.87,.12,1.76,.23,2.71,.29,.78,.29,2.55,.47,3.66,.17-.62-.02-1.22-.07-1.79-.12,1-.01,2.05-.09,3.2-.27l-.8-.41c.33,.01,.72,.01,1.14,.01l.69,.63c1.02-.1,2.85-.31,4.86-.51,.03,.03,.05,.06,.02,.1,.07-.02,.19-.08,.32-.13,.37-.04,.73-.07,1.11-.1,.06,0,.11,0,.18,.02l.07,.32,.99-.1c-1.93,.29-4.22,.5-5.86,.73,1.88,0,6.4-.06,7.38-.45-.76,.08-1.72,.27-2.46,.15,1.63-.44,3.63-.71,5.98-.83,3.26,.29-.9,1.22,5.01,1.28,1-.05,2.37-.23,3.53-.44,2.79,.03,5.9,0,7.42,.39,1.74-.35,3.47-.56,5.18-.95,.86-.18,1.74-.3,2.59-.52,.86-.21,1.72-.43,2.59-.64,3.44-.94,7.03-2.13,10.28-4.14-3.3,.38,1.93-1.11,.46-1.86,1.3-1,1.85-1.35,2.05-1.39l-.34,.16,.35-.16h0c.83-.38,1.54-.85,2.31-1.3,.75-.46,1.57-.89,2.24-1.42,1.21-.61-.83,1.27-.5,1.32,1.44-1.19,1.76-1.44,2.11-1.49,.33-.07,.58,0,1.62-.8-.78,.13,.14-1.3,1.58-2.82l-2.41,1.93c.59-1.05,1.11-1.74,1.62-2.26,.51-.52,.88-.92,1.34-1.3,.43-.39,.87-.78,1.31-1.35,.43-.58,.75-1.38,1.07-2.5l-.18,1.5c.2-.58,.56-1.38,.94-2.3,.29-.94,.62-2.01,.91-3.07,.16-1.08,.29-2.17,.31-3.12-.05-.96-.25-1.79-.53-2.37,.21-.4,.69-.95,.74,.09,.03-.35,.06-.71,.08-1.07,0-.36-.04-.72-.07-1.09Zm-34.94,27.31l.41,.29c-1.26,.64-1.72,.05-2.74,.11,.2,.26,1.57,.14,.75,.43-.74,.11-1.48,.22-2.22,.32-.75,.1-1.51,.1-2.27,.15-.78,.03-1.49,.09-2.34,.08h-2.5c-.05-.02-.1-.02-.15-.02-.14-.02-.26-.04-.41-.06l-.29,.05c-.61,0-1.22-.02-1.83-.03-.81-.15-1.48-.13-2.1-.04-.83-.02-1.66-.05-2.49-.07-.18-.04-.37-.08-.59-.11l-.32,.08c-.64-.02-1.28-.03-1.92-.06-6.76-.22-13.56-.54-20.24-.7-2.61-.05-3.22,.47-4.16,.85-1.55-.03-3.09-.1-3.05-.5h0s0-.08,.02-.11c-.11,.04-.23,.08-.35,.12-4.46,.34-9.01,.36-13.54,.35-.47-.09-.92-.17-1.49-.24-.03,.09-.11,.17-.21,.24-1.59,0-3.17,0-4.74,0,.22-.12,.32-.26,.12-.44,.04,.2-.4,.33-1,.44-1.76,.01-3.52,.04-5.26,.11-.13-.07-.27-.15-.46-.26-.05,.13-.12,.22-.21,.3-.88,.04-1.76,.08-2.64,.14,.58-.15,.59-.35,1.53-.35-1.49-.35-4.81-.2-6.51,.06-1.52-.3,1.4-.64,1.4-.64-2.54-.01-2.17,.4-2.13,.79-.2,.06-.33,.11-.33,.17-1.5-.04-.35-.35-1.27-.55-.46-.06-.97-.06-1.5-.04-.08-.05-.18-.1-.34-.14-1.12,.09-2.11,.27-3.04,.44-.56,.03-1.03,0-1.34-.13-.12-.05,.16-.1,.47-.14-1.74,.13-5.61-.06-4.46,.44-3.14-.23-6.03,.12-8.63,0-.05,0-.15-.01-.28-.02-.3-.02-.61-.04-.9-.07-.08,.03-.17,.04-.25,.07-.16,0-.31,0-.5,0,.06,.02,.1,.04,.16,.06-.79,.13-1.8,.11-2.78,.08,.26-.04,.25-.17-.61-.55-4.85-.2-5.42,.35-10.26,.15-.39,.14-.45,.25-.42,.35-.29,.04-.56,.07-.78,.11,.77-.27-1.99-.28-1.09-.66-2.46,.01-4.7,.16-4.57,.57-1.02-.36-1.96-.65-4.27-.25-1.64,.06-3.2,.25-4.59,.31l.33-.21c-1.15-.02-1.9,.04-2.45,.13-.51-.08-.98-.21-1.4-.42-2.02,.13-3.99,.24-5.93,.35l-.04-.06c-4.97,.11-10.43,.59-15.93,.72,.02-.03,.04-.07,.08-.1,.1-.05,.21-.1,.29-.14,1.57-.47,7.29,.05,7.03-.78-2.65,.15-4.85,.36-6.96,.55-.09-.05-.27-.1-.58-.15-2.73,.13-5.6,.15-8.49,.09,.24-.04,.45-.08,.57-.11-.61,.03-1.22,.06-1.83,.08-4.08-.1-8.16-.33-11.88-.55l-2.57,.59c-.09,0-.18,0-.26-.02,.19-.02,.14-.02-.06,0-.43-.07-.68-.26-.15-.35-2.1-.18-.93,.17-1.02,.43-.63,0-1.31-.03-1.76,.01-.24-.11-.14-.26,.36-.36-2.03,.22-4.83,.45-7.73,.59,.12-.09,.28-.19,.53-.31-.57,.06-1.23,.18-1.47,.35-.35,.01-.7,.03-1.04,.04-.17-.09-.02-.22,.63-.39-2.24,.12-2.84,.3-3.51,.44-.85,0-1.67-.01-2.46-.04,.23-.07,.5-.15,.69-.26-.39,.08-.79,.16-1.19,.23-.9-.04-1.75-.11-2.51-.21l.95-.17c-2.06-.13-3.14,.23-4.27,.51-1.16,.03-2.26,.09-3.32,.18-.08-.01-.14-.02-.22-.03l.68-.1c-4.32-.13-8.87-.05-13.14-.07-.43-.06-.79-.17-.88-.37l-3.22,.22,.33,.09c-2.44-.07-4.74-.19-6.73-.48-1.2,.85-8.16-.38-8.69,.8-4.71-.58-3.36-.79-9.99-1.19-1.77-.05-2.64,.74-4.83,.86l-.05-.62-2.97,.65-1.58-.74-2.05,.16c.82,.04,1.74,.28,1.61,.45-3.21,.28-7.82-.43-7.9-.75l-7.59,.52c.13-.19,.89-.28,1.69-.39-2.85,.35-.25-.71-3.69-.18,.5,.14-.27,.37-.35,.49-1.85-.37-6.06-.38-9.18-.22l.6-.43c-5.63-.11-11.87,.2-18.19,.2,2.27,.2,1.75,.93-.11,1.01l-.74-.65c-1.2,.4,1.94,.25-.52,.74-2.36-.08-1.59-.74-.23-.95l-2.87,.23c-.17-.19,.5-.3,.68-.55-1.18,.4-4.95-.65-6.65,.05l-.16-.19c-1.57,0-2.93,.02-4.16,.02-1.12-.01-2.12-.03-3.1-.04-1.93-.14-3.77-.21-6.02-.7-.14,.26-.65,.28-1.32,.25-.67-.05-1.46-.21-2.24-.18-3.25-1.11-6.46-2.84-9.73-4.82-2.5-1.23-1.06-.06-2.37-.48,.14-.25-.59-.9-1.09-1.39-.45-.53-.71-.86,.19-.38-.87-.69-1.58-1.26-2.22-1.78-.58-.56-1.11-1.06-1.68-1.58-.61-.5-1.07-1.12-1.74-1.8-.7-.67-1.32-1.53-2.15-2.6,.05,.57,.29,1.16-.09,.95-.31-.39-.54-.88-.65-1.26-.1-.39-.02-.69,.15-.67l.17,.2c-1.87-2.42-2.42-5.72-2.27-8.72,.05-2.98,.97-5.63,.85-7.82l.37-2.16c.13-.76,.43-1.48,.64-2.23,1.05-1.93-.09,1.31,.99-.02,.1-.61,.4-1.14,.63-1.67,.25-.52,.5-1.01,.78-1.47,.66-.87,1.29-1.68,2-2.41,.75-.7,1.48-1.39,2.22-2.09,.82-.65,1.53-1.41,2.37-2.2,2.19-.51,4.76-2.31,8-3.75,3.18-1.45,6.89-2.63,9.67-2.58l-.41-.29c1.26-.64,1.72-.05,2.74-.11-.2-.26-1.57-.14-.75-.43,.74-.11,1.48-.22,2.22-.32,.75-.1,1.51-.1,2.27-.15,.78-.03,1.49-.09,2.34-.08h2.5c.05,.02,.1,.02,.15,.02,.14,.02,.26,.04,.41,.06l.29-.05c.61,0,1.22,.02,1.83,.03,.81,.15,1.48,.13,2.1,.04,.83,.02,1.66,.05,2.49,.07,.18,.04,.37,.08,.59,.11l.32-.08c.64,.02,1.28,.03,1.92,.06,6.76,.22,13.56,.54,20.24,.7,2.61,.05,3.22-.47,4.16-.85,1.55,.03,3.09,.1,3.05,.5h0s0,.08-.02,.11c.11-.04,.23-.08,.35-.12,4.46-.34,9.01-.36,13.54-.35,.47,.09,.92,.17,1.49,.24,.03-.09,.11-.17,.21-.24,1.59,0,3.17,0,4.74,0-.22,.12-.32,.26-.12,.44-.04-.2,.4-.33,1-.44,1.76-.01,3.52-.04,5.26-.11,.13,.07,.27,.15,.46,.26,.05-.13,.12-.22,.21-.3,.88-.04,1.76-.08,2.64-.14-.58,.15-.59,.35-1.53,.35,1.49,.35,4.81,.2,6.51-.06,1.52,.3-1.4,.64-1.4,.64,2.54,.01,2.17-.4,2.13-.79,.2-.06,.33-.11,.33-.17,1.5,.04,.35,.35,1.27,.55,.46,.06,.97,.06,1.5,.04,.08,.05,.18,.1,.34,.14,1.11-.09,2.11-.27,3.04-.44,.56-.03,1.03,0,1.34,.13,.12,.05-.16,.1-.47,.14,1.74-.13,5.61,.06,4.46-.44,3.14,.23,6.03-.12,8.63,0,.05,0,.15,.01,.28,.02,.3,.02,.61,.04,.9,.07,.08-.03,.17-.04,.25-.07,.16,0,.31,0,.5,0-.06-.02-.1-.04-.16-.06,.79-.13,1.8-.11,2.78-.08-.26,.04-.25,.17,.61,.55,4.85,.2,5.42-.35,10.26-.15,.39-.14,.45-.25,.42-.35,.29-.04,.56-.07,.78-.11-.77,.27,1.99,.28,1.09,.66,2.46-.01,4.7-.16,4.57-.57,1.02,.36,1.96,.65,4.27,.25,1.64-.06,3.2-.25,4.59-.31l-.33,.21c1.15,.02,1.9-.04,2.45-.13,.51,.08,.98,.21,1.4,.42,2.02-.13,3.99-.24,5.93-.35l.04,.06c4.97-.11,10.43-.59,15.93-.72-.01,.03-.04,.07-.08,.1-.1,.05-.21,.1-.29,.14-1.57,.47-7.29-.05-7.03,.78,2.65-.15,4.85-.36,6.96-.55,.09,.05,.27,.1,.58,.15,2.73-.13,5.6-.15,8.49-.09-.24,.04-.45,.08-.57,.11,.61-.03,1.22-.06,1.83-.08,4.08,.1,8.16,.33,11.88,.55l2.57-.59c.09,0,.18,0,.26,.02-.19,.02-.14,.02,.06,0,.43,.07,.68,.26,.15,.35,2.1,.18,.93-.17,1.02-.43,.63,0,1.31,.03,1.76-.01,.24,.11,.14,.26-.36,.36,2.03-.22,4.83-.45,7.73-.59-.12,.09-.28,.19-.53,.31,.57-.06,1.24-.18,1.47-.35,.35-.01,.69-.03,1.04-.04,.17,.09,.02,.22-.63,.39,2.24-.12,2.84-.3,3.51-.44,.85,0,1.67,.01,2.46,.04-.23,.07-.5,.15-.69,.26,.39-.08,.79-.16,1.19-.23,.9,.04,1.75,.11,2.51,.21l-.95,.17c2.06,.13,3.14-.23,4.27-.51,1.16-.03,2.26-.09,3.32-.18,.08,.01,.14,.02,.22,.03l-.68,.1c4.32,.13,8.87,.05,13.14,.07,.43,.06,.79,.17,.88,.37l3.22-.22-.33-.09c2.44,.07,4.74,.19,6.73,.48,1.2-.85,8.16,.38,8.69-.8,4.71,.58,3.36,.79,9.99,1.19,1.77,.05,2.64-.74,4.83-.86l.05,.62,2.97-.65,1.58,.74,2.05-.16c-.82-.04-1.74-.28-1.61-.45,3.21-.28,7.82,.43,7.9,.75l7.59-.52c-.13,.19-.89,.28-1.69,.39,2.85-.35,.25,.71,3.69,.18-.5-.14,.27-.37,.35-.49,1.85,.37,6.06,.38,9.18,.22l-.6,.43c5.63,.11,11.87-.2,18.19-.2-2.27-.2-1.75-.93,.11-1.01l.74,.65c1.2-.4-1.94-.25,.52-.74,2.36,.08,1.59,.74,.23,.95l2.87-.23c.17,.19-.5,.3-.68,.55,1.18-.4,4.95,.65,6.65-.05l.16,.19c1.57,0,2.93-.02,4.16-.02,1.12,.01,2.12,.03,3.1,.04,1.93,.14,3.77,.21,6.02,.7,.14-.26,.65-.28,1.32-.25,.67,.05,1.46,.21,2.24,.18,3.25,1.11,6.46,2.84,9.73,4.82,2.5,1.23,1.06,.06,2.37,.48-.14,.25,.59,.9,1.09,1.39,.45,.53,.71,.86-.19,.38,.87,.69,1.58,1.26,2.22,1.78,.58,.56,1.11,1.06,1.68,1.58,.61,.5,1.07,1.12,1.74,1.8,.7,.67,1.32,1.53,2.15,2.6-.05-.57-.29-1.16,.09-.95,.31,.39,.54,.88,.65,1.26,.1,.39,.02,.69-.15,.67l-.17-.2c1.87,2.42,2.42,5.72,2.27,8.72-.05,2.98-.97,5.63-.85,7.82l-.37,2.16c-.13,.76-.43,1.48-.64,2.23-1.05,1.93,.09-1.31-.99,.02-.1,.61-.4,1.14-.63,1.67-.25,.52-.5,1.01-.78,1.47-.66,.87-1.29,1.68-2,2.41-.75,.7-1.48,1.39-2.22,2.09-.82,.65-1.53,1.41-2.37,2.2-2.19,.51-4.76,2.31-8,3.75-3.18,1.45-6.89,2.63-9.67,2.58Zm-112.34,1.81s0-.05-.01-.07h.08s-.05,.04-.07,.07Zm-75.18-.13c.16-.04,.43-.09,.72-.13-.05,.05-.15,.09-.34,.13-.14,0-.26,0-.38,0ZM147.35,4.89s0,.05,.01,.07h-.08s.05-.04,.07-.07Zm75.18,.13c-.16,.04-.43,.09-.72,.13,.05-.05,.15-.09,.34-.13,.14,0,.26,0,.38,0Zm47.2-3.72c-.38-.03-.73-.06-1.08-.08l-.02-.02c.31,.03,.69,.07,1.09,.1Zm-35.27-.07c-.21,.02-.41,.05-.61,.07-.01,0-.03-.02-.04-.02l.05-.06c.21,0,.42,.02,.59,.02Zm-28.83-.07c-.08-.04-.16-.07-.26-.1l1.22-.07-.97,.17Zm-5.22,.16h.12c1.62,0,3.03,.02,3.99,.03l-1.94,.34c1.88,0,3.97-.3,5.1-.22h-.02c-3.22,.06-5.32,.61-8.02,.18-.07-.18-.29-.28-.58-.33,.46,0,.91,0,1.34,0Zm-11.79-.7c1.05-.08,1.41,.03,1.55,.15-.5,0-1.08,.03-1.84,.07-.03,.02-.09,.05-.12,.07,.1-.11,.22-.21,.42-.28Zm-56.67,64.14c.38,.03,.73,.06,1.08,.08l.02,.02c-.31-.03-.69-.07-1.09-.1Zm35.27,.07c.21-.02,.41-.05,.61-.07,.01,0,.03,.02,.04,.02l-.05,.06c-.21,0-.42-.02-.59-.02Zm28.83,.07c.08,.04,.16,.07,.26,.1l-1.22,.07,.97-.17Zm5.22-.16h-.12c-1.62,0-3.03-.02-3.99-.03l1.94-.34c-1.88,0-3.97,.3-5.1,.22h.02c3.22-.06,5.32-.61,8.02-.18,.07,.18,.29,.28,.58,.33-.46,0-.91,0-1.34,0Zm11.79,.7c-1.05,.08-1.41-.03-1.55-.15,.5,0,1.08-.03,1.84-.07,.03-.02,.09-.04,.12-.07-.1,.11-.22,.21-.42,.28Z"/><path class="cls-2" d="M313.44,5.54c-.08,0-.16,.02-.25,.03,.08-.01,.17-.02,.25-.03Z"/><polygon class="cls-2" points="294.66 5.6 294.65 5.45 294.07 5.58 294.66 5.6"/><path class="cls-2" d="M244.6,60.2s0,0,0,0h0Z"/><path class="cls-2" d="M262.51,65.13l-.51-.63c-1.15,.11-1.39,.82,.51,.63Z"/><polygon class="cls-2" points="313.69 .33 311.16 .51 312.35 .54 313.69 .33"/></g></g></g></svg>