<?xml version="1.0" encoding="UTF-8"?><svg id="_イヤー_2" xmlns="http://www.w3.org/2000/svg" viewBox="0 0 59.69 34.15"><defs><style>.cls-1{fill:#fff;}.cls-2{fill:#eda184;}.cls-3{fill:#002b50;}</style></defs><g id="_イヤー_1-2"><g><path class="cls-1" d="M59.32,12.51c-.22-.87-1.5-5.92-2.63-9.03C55.94,1.43,53.96,.04,51.76,.04h-.01C44.1,.06,17.78,0,17.78,0c-2.62,0-4.95,1.76-5.66,4.28l-1.95,6.92c-.17,.62-.64,1.1-1.25,1.29l-2.21,.69C3.07,14.34,.48,17.54,.13,21.35l-.11,1.18c-.15,1.64,.4,3.27,1.51,4.49,1.11,1.22,2.69,1.91,4.33,1.92h.34c1.51,3.11,4.72,5.18,8.24,5.18s6.73-2.06,8.25-5.16h15.62c1.51,3.12,4.72,5.19,8.24,5.19s6.8-2.1,8.3-5.26c2.73-.5,4.81-2.89,4.81-5.77V14.55c0-.7-.11-1.39-.36-2.04Z"/><path class="cls-2" d="M57.91,12.99c-.01-.06-1.43-5.74-2.61-8.99-.54-1.47-1.96-2.46-3.54-2.46h0c-7.65,.02-33.97-.04-33.98-.04h0c-1.95,0-3.69,1.31-4.22,3.19l-1.95,6.92c-.31,1.1-1.15,1.96-2.24,2.31l-2.21,.7c-3.08,.97-5.25,3.67-5.55,6.88l-.11,1.18c-.11,1.22,.3,2.44,1.12,3.35,.83,.91,2,1.43,3.23,1.43l47.94,.04h0c1.17,0,2.27-.45,3.09-1.28,.83-.83,1.28-1.93,1.29-3.1V14.55c0-.56-.1-1.11-.28-1.56Z"/><g><path class="cls-1" d="M27,13.67H15.52l1.64-7.34c.27-1.2,1.34-2.06,2.57-2.06h7.28V13.67Z"/><rect class="cls-1" x="29.09" y="4.29" width="11.47" height="9.39"/><path class="cls-1" d="M42.64,13.69h11.47l-1.62-7.32c-.27-1.2-1.33-2.06-2.56-2.06h-7.28V13.69Z"/></g><circle class="cls-1" cx="14.58" cy="24.4" r="4.95"/><circle class="cls-1" cx="46.61" cy="25.37" r="4.95"/><g><path class="cls-3" d="M46.57,32.16c-3.96,0-7.18-3.23-7.18-7.19s3.23-7.18,7.19-7.18c3.96,0,7.18,3.23,7.18,7.19s-3.23,7.18-7.19,7.18Zm0-11.07c-2.14,0-3.89,1.74-3.89,3.88s1.74,3.89,3.88,3.89,3.89-1.74,3.89-3.88-1.74-3.89-3.88-3.89Z"/><path class="cls-3" d="M14.45,32.13c-3.96,0-7.18-3.23-7.18-7.19,0-3.96,3.23-7.18,7.19-7.18s7.18,3.23,7.18,7.19-3.23,7.18-7.19,7.18Zm0-11.07c-2.14,0-3.89,1.74-3.89,3.88s1.74,3.89,3.88,3.89,3.89-1.74,3.89-3.88c0-2.14-1.74-3.89-3.88-3.89Z"/></g></g></g></svg>