<?xml version="1.0" encoding="UTF-8"?><svg id="_イヤー_2" xmlns="http://www.w3.org/2000/svg" viewBox="0 0 59.68 34.41"><defs><style>.cls-1{fill:#fff;}.cls-2{fill:#88c1d8;}.cls-3{fill:#002b50;}</style></defs><g id="_イヤー_1-2"><g><path class="cls-1" d="M59.22,12.4c-.22-.86-1.55-5.91-2.71-9C55.75,1.35,53.75-.02,51.55,0h-.01c-7.65,.08-33.97,.26-33.97,.26-2.62,.02-4.93,1.8-5.62,4.33l-1.88,6.94c-.17,.62-.63,1.1-1.24,1.3l-2.2,.71C2.99,14.73,.43,17.96,.12,21.77l-.1,1.18c-.14,1.64,.43,3.27,1.55,4.48,1.12,1.21,2.7,1.89,4.35,1.88h.34c1.54,3.09,4.76,5.13,8.29,5.1s6.71-2.12,8.21-5.24l15.62-.13c1.54,3.09,4.76,5.13,8.29,5.1s6.78-2.16,8.25-5.33c2.73-.52,4.78-2.94,4.76-5.81l-.07-8.57c0-.7-.13-1.39-.38-2.04Z"/><path class="cls-2" d="M58.12,14.45c0-.56-.11-1.11-.3-1.56-.01-.06-1.48-5.73-2.69-8.97h0c-.55-1.46-1.96-2.43-3.52-2.43h-.04c-7.66,.08-33.97,.26-33.97,.26-1.96,.02-3.68,1.35-4.19,3.23l-1.88,6.94c-.3,1.1-1.13,1.98-2.22,2.33l-2.2,.71c-3.07,1-5.22,3.72-5.48,6.93l-.1,1.18c-.1,1.22,.32,2.44,1.15,3.34,.83,.89,2,1.4,3.21,1.4h.04l47.94-.39c2.41-.02,4.36-2,4.34-4.41l-.07-8.57Z"/><g><path class="cls-1" d="M26.91,13.85l-11.47,.09,1.57-7.34c.26-1.2,1.32-2.07,2.55-2.08l7.28-.06,.08,9.39Z"/><rect class="cls-1" x="28.96" y="4.4" width="11.47" height="9.39" transform="translate(-.07 .28) rotate(-.47)"/><path class="cls-1" d="M42.55,13.73l11.47-.09-1.69-7.32c-.28-1.2-1.35-2.05-2.58-2.04l-7.28,.06,.08,9.39Z"/></g><circle class="cls-1" cx="14.59" cy="24.69" r="4.95"/><circle class="cls-1" cx="46.63" cy="25.37" r="4.95"/><g><path class="cls-3" d="M46.65,32.16c-3.96,.03-7.21-3.16-7.24-7.13s3.16-7.21,7.13-7.24c3.96-.03,7.21,3.16,7.24,7.13s-3.16,7.21-7.13,7.24Zm-.09-11.07c-2.14,.02-3.87,1.78-3.86,3.92s1.78,3.87,3.92,3.86,3.87-1.78,3.86-3.92-1.78-3.87-3.92-3.86Z"/><path class="cls-3" d="M14.53,32.42c-3.96,.03-7.21-3.16-7.24-7.13s3.16-7.21,7.13-7.24,7.21,3.16,7.24,7.13c.03,3.96-3.16,7.21-7.13,7.24Zm-.09-11.07c-2.14,.02-3.87,1.78-3.86,3.92s1.78,3.87,3.92,3.86,3.87-1.78,3.86-3.92c-.02-2.14-1.78-3.87-3.92-3.86Z"/></g></g></g></svg>