<?xml version="1.0" encoding="UTF-8"?><svg id="_イヤー_2" xmlns="http://www.w3.org/2000/svg" viewBox="0 0 518.28 90"><defs><style>.cls-1{fill:#fff;}.cls-2{fill:#96c8dc;}.cls-3{fill:#d1e8f1;}.cls-4{fill:#e69c81;}.cls-5{fill:none;stroke:#96c8dc;stroke-miterlimit:10;stroke-width:4px;}</style></defs><g id="_イヤー_1-2"><g><ellipse class="cls-4" cx="59.2" cy="74.26" rx="3.06" ry="3.04"/><path class="cls-1" d="M63.95,41.87H494.17c12.19,0,22.07,10.21,22.07,22.81h0c0,12.59-9.88,22.81-22.07,22.81H63.95c-12.19,0-22.07-10.21-22.07-22.81h0c0-12.6,9.88-22.81,22.07-22.81Z"/><path class="cls-2" d="M490.01,89.96H67.09c-15.58,0-28.26-11.34-28.26-25.29s12.67-25.29,28.26-25.29H490.01c15.58,0,28.26,11.34,28.26,25.29s-12.67,25.29-28.26,25.29ZM67.09,44.35c-12.52,0-22.71,9.12-22.71,20.32s10.18,20.33,22.71,20.33H490.01c12.52,0,22.71-9.12,22.71-20.32s-10.19-20.32-22.71-20.32H67.09Z"/><rect class="cls-2" x="6.77" width="14.3" height="21.96"/><g><path class="cls-2" d="M99.91,48.49l-4.39-24.19L72.75,.4l-.14,.14H27.6l-.06-.06-.06,.06h-.09v.09L4.57,24.2,0,48.34l8.08,1.51v39.45H91.83V49.93l8.08-1.44ZM68.77,10.67c-.14-.07-.28-.15-.42-.21h.22l.2,.21Z"/><g><path class="cls-1" d="M48.18,5.68h.47c23.18,0,42,18.68,42,41.68v40.16H8.18V45.37C8.18,23.47,26.1,5.68,48.18,5.68Z"/><path class="cls-2" d="M93.14,90H5.68V45.37C5.68,22.12,24.74,3.19,48.18,3.19h.47c24.54,0,44.5,19.81,44.5,44.16v42.65h-.01Zm-82.47-4.96H88.14V47.36c0-21.61-17.72-39.2-39.5-39.2h-.47C27.5,8.16,10.68,24.86,10.68,45.37v39.67h0Z"/></g></g><path class="cls-5" d="M68.62,86.8v-14.94c0-11.01-8.99-19.94-20.09-19.94s-20.09,8.92-20.09,19.94v14.94h40.18Z"/><g><path class="cls-4" d="M24.67,41.51c.83,.03,2.1,.23,3.82,.59,2.07,.44,4.49,.75,7.25,.95,.92,.07,1.73,.11,2.44,.11,.64,0,.96,.14,.96,.39,0,.17-.23,.42-.69,.73-.64,.45-1.12,.73-1.45,.87-.3,.13-.6,.2-.92,.2-1.08,0-4.04-.62-8.88-1.84-1.15-.29-2.09-.44-2.81-.44-.53,0-1.21,.13-2.05,.38-.2,.06-.36,.08-.47,.08-.54,0-.82-.33-.82-.97,0-.38,.18-.64,.54-.77,.22-.08,.55-.15,1-.2,1.03-.96,1.55-1.63,1.55-1.99,0-.15-.13-.28-.38-.41-.41-.2-.62-.49-.62-.85,0-.44,.22-1.07,.66-1.92l-1.4,.31c-.12,.02-.23,.04-.33,.04-.39,0-.65-.2-.78-.59-.05-.14-.07-.28-.07-.41,0-.53,.23-.82,.71-.9l2.95-.49c.14-.02,.26-.04,.36-.04,.36,0,.65,.11,.84,.32,.15,.17,.23,.37,.23,.61,0,.3-.14,.64-.41,1.01-.6,.84-.9,1.43-.9,1.76,0,.14,.06,.25,.19,.32,.06,.04,.19,.1,.4,.19,.58,.25,.86,.57,.86,.94,0,.3-.15,.61-.46,.93-.24,.23-.67,.6-1.32,1.09h0Zm-2.02-12.52c.2,0,.43,.06,.69,.19,1.76,.84,2.63,1.62,2.63,2.3,0,.22-.08,.44-.24,.65-.23,.3-.53,.45-.9,.45-.32,0-.63-.17-.92-.52-.51-.6-1.03-1.12-1.57-1.59-.3-.26-.45-.52-.45-.76,0-.17,.06-.33,.18-.46,.14-.16,.34-.25,.58-.26h0Zm10.18,3.4c-.21,.38-.48,.74-.81,1.09l2.64-.23h.19c.59,0,1,.21,1.23,.64,.1,.2,.16,.45,.16,.72v6.85c0,.59-.37,.88-1.11,.88s-1.09-.28-1.09-.82v-.11l-3.96,.19c-.14,.3-.45,.45-.94,.45-.41,0-.71-.11-.92-.32-.14-.14-.2-.31-.2-.51v-6.94c0-.58,.36-.85,1.07-.85,.35,0,.63,.08,.83,.25h.08c.17-.32,.32-.67,.46-1.08l-2.84,.25h-.13c-.32,0-.54-.14-.67-.42-.07-.15-.1-.31-.1-.48,0-.5,.26-.76,.79-.81l1.97-.19c-.21-.09-.38-.28-.51-.58-.19-.45-.42-.85-.68-1.21-.1-.14-.15-.28-.15-.42,0-.19,.09-.35,.26-.46,.14-.1,.3-.16,.46-.16,.27,0,.62,.19,1.04,.57,.67,.59,1,1.05,1,1.4s-.17,.6-.52,.78l1.95-.18s.03-.09,.06-.15c.44-.89,.74-1.59,.9-2.07,.15-.45,.44-.66,.87-.66,.23,0,.44,.05,.64,.15,.37,.19,.56,.45,.56,.77,0,.37-.44,.96-1.31,1.81l2.4-.21h.11c.26,0,.46,.08,.61,.25,.13,.15,.19,.34,.19,.58,0,.56-.27,.86-.8,.91l-3.74,.32h.01Zm1.21,3.15v-.54c0-.21-.11-.3-.32-.28l-3.58,.35v.81l3.9-.34Zm0,1.27l-3.9,.32v.82l3.9-.29v-.85Zm0,2.14l-3.9,.27v.86l3.9-.22v-.91Z"/><path class="cls-4" d="M49.65,32.41c.09,.32,.13,.68,.13,1.12,0,.91-.27,2.1-.82,3.58-1.3,3.56-2.86,5.34-4.69,5.34-.74,0-1.4-.36-1.99-1.06-.79-.95-1.19-2.17-1.19-3.65,0-1.59,.62-3.03,1.86-4.33,.86-.89,1.9-1.59,3.11-2.09s2.47-.74,3.77-.74c1.76,0,3.25,.49,4.45,1.47,1.46,1.18,2.19,2.77,2.19,4.76,0,1.75-.54,3.24-1.61,4.49-.81,.94-1.87,1.66-3.18,2.15-.33,.12-.61,.19-.83,.19-.37,0-.63-.16-.81-.47-.07-.13-.1-.26-.1-.38,0-.32,.23-.6,.7-.84,2.29-1.26,3.44-2.99,3.44-5.15,0-1.44-.49-2.57-1.47-3.39-.76-.65-1.67-.96-2.72-.96h-.24v-.04Zm-2.1,.42c-1.37,.52-2.45,1.25-3.23,2.2-.68,.83-1.02,1.72-1.02,2.65,0,.82,.15,1.5,.45,2.03,.21,.37,.43,.56,.66,.56,.53,0,1.13-.68,1.79-2.06,.51-1.04,.9-2.06,1.17-3.07,.18-.68,.27-1.21,.27-1.58,0-.13-.02-.3-.05-.51,0-.1-.02-.15-.03-.17v-.05Z"/><path class="cls-4" d="M59.98,39.76c.29,0,.48,.15,.56,.46,.03,.14,.05,.44,.05,.91,0,.82-.06,1.51-.18,2.02-.1,.43-.34,.64-.73,.64-.2,0-.38-.05-.53-.16-.2-.15-.3-.36-.3-.62,0-.12,.03-.3,.09-.53,.17-.64,.31-1.34,.4-2.1,.05-.42,.26-.62,.64-.62Zm1.72-.91c-.14,.38-.44,.57-.9,.57-.37,0-.64-.13-.8-.39-.07-.11-.11-.24-.11-.39v-9.01c0-.29,.12-.51,.37-.65,.16-.1,.34-.15,.55-.15,.33,0,.59,.11,.78,.34l4.88-.44h.06c.2,0,.37,.05,.53,.17,.19,.14,.29,.37,.29,.67,0,.54-.23,.83-.69,.87l-1.81,.17v1.03l1.35-.12h.06c.21-.02,.39,.06,.55,.25,.12,.14,.18,.32,.18,.53,0,.49-.22,.74-.65,.79l-1.48,.13v1.04l1.41-.12h.06c.23,0,.41,.08,.56,.25,.12,.15,.19,.32,.19,.52,0,.3-.1,.53-.31,.68-.11,.09-.24,.13-.38,.14l-1.52,.12v1.07l.83-.07c.16,0,.27-.02,.34-.02,.88,0,1.33,.46,1.33,1.37,0,.86-.18,2.02-.54,3.48-.33,1.34-.67,2.26-1.02,2.76-.3,.45-.7,.66-1.19,.66-.34,0-.81-.19-1.41-.56-.56-.34-.83-.65-.83-.95,0-.35,.19-.53,.56-.53,.14,0,.28,.03,.44,.08,.28,.11,.49,.16,.63,.16,.23,0,.43-.19,.6-.58,.15-.34,.3-.78,.45-1.35-.09,.04-.16,.06-.22,.06-.24,0-.4-.11-.49-.34-.02-.04-.12-.36-.3-.94-.02-.07-.08-.23-.17-.45-.04-.11-.06-.21-.06-.3,0-.25,.14-.38,.43-.38,.32,0,.66,.49,1.03,1.47,.14-.66,.2-1.18,.2-1.55,0-.27-.14-.4-.42-.4h-.11l-3.21,.29-.04,.02Zm-.22,.83c.25,0,.43,.2,.54,.6,.27,1.03,.41,1.74,.41,2.1,0,.47-.23,.7-.7,.7-.41,0-.62-.27-.62-.82,0-.64-.04-1.26-.1-1.88,0-.1-.02-.18-.02-.21,0-.33,.16-.49,.49-.49Zm.26-8.77v1.02l1.4-.13v-1.02l-1.4,.13Zm0,2.6v1.03l1.4-.12v-1.04l-1.4,.13Zm0,2.58v1.09l1.4-.12v-1.08l-1.4,.11h0Zm1.09,3.3c.21,0,.39,.15,.53,.45,.45,.96,.68,1.6,.68,1.9,0,.4-.2,.59-.6,.59-.32,0-.51-.21-.58-.64-.09-.5-.22-1.03-.39-1.61-.04-.11-.06-.21-.06-.29,0-.27,.14-.41,.42-.4h0Zm10.08-2.91c.31,1.02,.84,2.21,1.59,3.57,.71,1.29,1.49,2.4,2.36,3.35,.25,.27,.37,.48,.37,.62s-.15,.27-.45,.37c-.59,.19-1.11,.28-1.58,.28-.35,0-.62-.15-.83-.44-.58-.81-1.22-2.13-1.94-3.97-.61-1.55-1.02-2.77-1.22-3.65l-.75,.06c-.01,.14-.03,.34-.05,.62-.2,2.6-.89,4.82-2.05,6.68-.37,.58-.71,.86-1.04,.86-.11,0-.23-.03-.35-.09-.3-.15-.45-.39-.45-.7,0-.16,.09-.4,.26-.7,.79-1.43,1.29-3.13,1.5-5.09,.12-1.12,.18-2.87,.18-5.23v-1.09c-.36-.15-.54-.45-.54-.91,0-.58,.28-.88,.84-.94l5.43-.58h.24c.42,0,.76,.11,1.02,.34,.29,.25,.44,.62,.44,1.09,0,.14,0,.26-.03,.37l-.46,3.3c.25,.19,.37,.46,.37,.81,0,.58-.27,.87-.82,.92l-2.04,.15h0Zm-2.34-1.67l2.79-.24,.26-2.72v-.05c0-.23-.11-.34-.33-.34h-.08l-2.58,.29c0,1.13-.02,2.15-.06,3.06Z"/></g><ellipse class="cls-4" cx="58.65" cy="75.07" rx="3.96" ry="3.93"/><g><g><g><g><ellipse class="cls-3" cx="113.74" cy="19.29" rx="10.68" ry="10.6"/><ellipse class="cls-3" cx="148.34" cy="19.29" rx="10.68" ry="10.6"/></g><g><ellipse class="cls-3" cx="184.19" cy="19.29" rx="10.68" ry="10.6"/><ellipse class="cls-3" cx="218.79" cy="19.29" rx="10.68" ry="10.6"/></g></g><g><ellipse class="cls-3" cx="253.47" cy="19.29" rx="10.68" ry="10.6"/><ellipse class="cls-3" cx="288.07" cy="19.29" rx="10.68" ry="10.6"/></g><g><ellipse class="cls-3" cx="323.93" cy="19.29" rx="10.68" ry="10.6"/><ellipse class="cls-3" cx="358.53" cy="19.29" rx="10.68" ry="10.6"/></g><g><ellipse class="cls-3" cx="395.74" cy="19.87" rx="10.68" ry="10.6"/><ellipse class="cls-3" cx="430.34" cy="19.87" rx="10.68" ry="10.6"/></g></g><g><ellipse class="cls-3" cx="430.05" cy="19.58" rx="10.68" ry="10.6"/><ellipse class="cls-3" cx="464.65" cy="19.58" rx="10.68" ry="10.6"/></g><ellipse class="cls-3" cx="500.51" cy="19.58" rx="10.68" ry="10.6"/></g></g></g></svg>