<?xml version="1.0" encoding="UTF-8"?><svg id="_イヤー_2" xmlns="http://www.w3.org/2000/svg" viewBox="0 0 741.27 60.37"><defs><style>.cls-1{fill:#fff;}.cls-2{fill:#88c1d8;}.cls-3{fill:#95c8dc;}.cls-4{opacity:.8;}.cls-5{fill:#eda184;}</style></defs><g id="_イヤー_1-2"><g><g class="cls-4"><path class="cls-1" d="M741.05,18.7c.02,.28,.04,.69,.05,.93l-.05-.93Z"/><path class="cls-1" d="M361.18,.28h.2c1.19-.02,.52-.02-.2,0Z"/><path class="cls-1" d="M258.09,.54s-.28-.06-1.06-.11c.21,.04,.63,.08,1.06,.11Z"/><path class="cls-1" d="M334.62,.78l-1.92-.03c.76,.02,1.38,.03,1.92,.03Z"/><path class="cls-1" d="M215.89,.76c-.53-.01-1.01-.02-1.98,0l.43,.03c.38-.02,.85-.04,1.55-.03Z"/><path class="cls-1" d="M215.89,.76c.25,0,.51,.01,.84,.02-.32-.01-.59-.02-.84-.02Z"/><path class="cls-1" d="M174.8,.78l.77,.05c.42,0,.9,0,1.33-.01l-2.1-.04Z"/><path class="cls-1" d="M363.92,.38c.59,0,1.16,0,1.67-.02-.7,0-1.25,.01-1.67,.02Z"/><path class="cls-1" d="M471.51,59.6c.28,0,.44,0,.81-.02-.4-.02-.79-.04-1.18-.05-.24,.03-.49,.05-.7,.08,.36,0,.73,0,1.06,0Z"/><path class="cls-1" d="M182.26,.56l.96,.27c2.15-.05,2.6-.36-.96-.27Z"/><path class="cls-1" d="M57.44,.84c-1.36-.14-4.87-.23-7.03-.09,2.81,.02,5.61,.13,7.03,.09Z"/><polygon class="cls-1" points="233.93 60.05 238.67 59.97 236.45 59.95 233.93 60.05"/><path class="cls-1" d="M.22,41.67c-.02-.28-.04-.69-.05-.93l.05,.93Z"/><path class="cls-1" d="M380.09,60.09h-.2c-1.19,.02-.52,.02,.2,0Z"/><path class="cls-1" d="M483.18,59.83s.28,.06,1.06,.11c-.21-.04-.63-.08-1.06-.11Z"/><path class="cls-1" d="M406.65,59.59l1.92,.03c-.76-.02-1.38-.03-1.92-.03Z"/><path class="cls-1" d="M525.37,59.62c.53,.01,1.01,.02,1.98,0-.13,0-.26-.02-.43-.03-.38,.02-.85,.04-1.55,.03Z"/><path class="cls-1" d="M525.37,59.62c-.25,0-.51-.01-.84-.02,.32,.01,.59,.02,.84,.02Z"/><path class="cls-1" d="M566.46,59.6l-.77-.05c-.42,0-.9,0-1.33,.01l2.1,.04Z"/><path class="cls-1" d="M741.27,10.25c-.05,.12-.09,.14-.13,.08-.08-1.51-.13-2.7,.06-3.61l.03,.44c-.09-3.49-.18-3.78-.31-3.76-.06,0-.13,.08-.2-.09l.02-.19,.02-.19,.02-.33c.01-.23,.03-.47,.04-.71,.02-.49,.05-1,.07-1.54-.75-.01-1.56-.02-2.44-.03-.67,0-1.41,0-2.22-.01-1.18,0-2.57,.02-4.3,.07l3.29-.17c-5.34,.1-19.68,0-24.91,.42-.94-.06-2.19-.21,.16-.25-12.75-.06-28.38,.45-38.29,.19l.97-.13c-2.38,.04-4.14,.24-7.12,.11,.15-.05,.96-.13-.14-.14-1.26,.04-6.32,.23-9.47,.15l2.69-.15c-10.82-.15-17.26,.23-25.62,.39-.91,.01-1.84,.03-2.77,.04-.37,0-.74,0-1.12,.01,.03-.38-9.76-.51-14.64-.57l.17-.05c-14.48-.05-24.6,.32-38.01,.47-8.32-.42-28.2-.17-41.57-.41,2.05,.07-.33,.3-2.71,.34-3.14-.08-8.68,.27-8.18-.09h1.12c-2.37-.34-8.82-.25-13.86-.26l-.83,.46c-5.69-.29-12.9-.28-19.84-.23-3.96-.05-7.67,0-11.2,.09-3.81,.02-7.1,0-9.44-.13h.81l1.39-.04-2.32,.04c-.4-.02-.78-.05-1.12-.07-3.18,.11-7.12,.11-10.27,.23l.17-.25c-8.81-.06-13.21-.09-24.1-.04l2.22-.18c-3.86,0-5.94,.27-8.35,.49-2.61-.04-4.89-.07-3.81-.17-3.64,.08-2.38,.15,.03,.2-.84-.01-1.64-.02-2.42-.03l-.59-.13c-10.72,0-21.56-.32-32.15,.02,.05-.02,.12-.04,.23-.06,.46-.02,.93-.05,1.32-.06-.35,.01-.68,.01-1.02,.02,.32-.04,.83-.07,1.7-.07-3.13,0-9.88-.1-14.12-.05-1.13-.03-2.17-.06-3.09-.07l3.57-.08c-2.13,.05-3.88,.05-5.66,.05l2.03,.21h0c-2.09-.03-3.85-.04-3.81-.12-.81,.05-.78,.11-.65,.18-2.16,.01-4.9,.07-7.53,.13-.17-.08-1.41-.19,.87-.24-1.07,0-2.26,0-3.62-.03-.32-.03,.3-.06,.87-.07-8.41-.24-3.86,.31-12.58,.3,1.11-.15-2.02-.29-3.44-.26,3.51,0,1.68,.26-1.54,.38-5.59-.12-6.07,.09-9,.08l1.56,.03c-2.14,.02-2.65,.09-4.31,.19-.55,0-1.12,.01-1.73,.02-.33-.12,3.54-.08,2.15-.14-4.32,.27-9.77-.28-15.8-.1-2.79-.1-.27-.29-2.72-.36-5.38,.16-6.84-.07-10.8-.08,.29-.03,.73-.07,1.42-.12-1.03,.04-2.21,.08-3.5,.13-.48,0-.99,.01-1.55,.03,.08,0,.14,.01,.21,.02-1.76,.06-3.66,.13-5.57,.18v-.03c-3.6-.1-6.87-.06-10.29,0-.23,0-.45,0-.67,.01-.44,0-.88,.02-1.33,.03-1.77-.04-2.94-.06-4.68-.06-.69-.18-6.82-.1-9.79-.11,.24,.24-3.54,.21-.11,.4-.09-.01,.92-.02,2.64-.03,.44,0,.96-.01,1.25-.02h0l-.2,.02h.88c-.32,.04-.81,.07-1.42,.08-.05,0-.1,0-.15,0h-.11c-2.26,.05-5.89-.03-8.54,.03,.33-.17-1.87-.23-3.38-.34,.09,.06-1.79,.06-3.86,.08-.59-.04-1.02-.08-1.22-.11-9,.14-21.18,.09-26.92,.54,1.9-.17-1.33-.29,4.07-.42-2.82,0-5.36-.03-5.4,.09-1.65-.11-7.82,.23-10.41,.07-.48,.03-.84,.08-1.29,.12-1.15,.03-2.09,.06-2.71,.12-.24,0-.46,0-.74,0-.22-.02-.15-.05-.08-.07-.27,.03-1.12,.05-1.84,.09-1.82-.12,4.21-.22-3.31-.18l1.2-.1c-9.81-.29-17.57,0-25.9,.2-1.52-.03-2.92-.07-4.1-.15-5.62,.04-12.29,.08-17.66,.12-.1,0-.19,0-.3,0h.28l-1.48,.02c.36-.05,.02-.09,1.07-.07-3.08-.06-4.45,0-5.55,.09-1.87,0-3.76-.01-5.64-.01-.08,0-.22-.01-.45-.02-1.22-.57-10.59,.08-16.49-.25l1.43-.03c-4.51-.19-11.01,.21-18.38,.17,0,0,.36-.05,.04-.09-2.04,.12-4.82,.2-7.87,.27-4.11-.03-8.2-.07-12.22-.15-5.64-.08-6.72,.08-9.71,.22-.72-.04-1.37-.08-1.85-.13l-.47-.09h-.16c-.08,0-.14-.02-.18-.04h5.98c-3.07-.32-7.75,0-10.9-.06l.4-.14c-7.52,.04-8.97,.27-14.67,.34-4.21-.13-8.72-.24-14.41-.04l-.58-.12c-2.14,.05-6.22,.16-10.52,.25-.1-.01-.15-.03-.08-.05-.16,.01-.42,.04-.74,.07-.61,.01-1.21,.03-1.82,.04-.15,0-.28,0-.45-.01l-.12-.13c3.53-.12,7.64-.21,10.6-.3-3.52,0-11.98,.03-13.81,.19,1.42-.03,3.21-.12,4.61-.06-3.45,.22-7.78,.34-12.95,.38-5.64-.13,1.81-.53-9.1-.55-1.67,.02-3.87,.08-5.87,.16-1.5,0-3.02-.01-4.51-.02v.25c-.52,.04-.69,.08-.31,.1,.09,0,.2,0,.3,0v.23l-.45,.07h.45v.06h-.45v.25c-.25,.11-.35,.22,0,.33V28.5c-.02,1.5-.03,3.03-.02,4.6l-.07-.24,.07,.71c0,.19,0,.36,0,.55,0-.04,.02-.07,.03-.11v3.9c-.08-.12-.14-.51-.17-1.32-.26,2.97,.19,2.63-.1,5.19-.05,.28-.07,.15-.09-.11l.16,2.91c-.11-.57-.38,.48-.3-1.3-.14,2.33-.07,4.23,0,5.82-.03,.25-.06,.58-.09,1.02,.05-.12,.09-.14,.13-.08,.08,1.51,.13,2.7-.06,3.61l-.03-.44c.09,3.49,.18,3.78,.31,3.76,.06,0,.13-.08,.2,.09l-.02,.19-.02,.19-.02,.33c-.01,.23-.03,.47-.04,.7-.02,.49-.05,1-.07,1.54,.75,.01,1.56,.02,2.44,.03,.67,0,1.41,0,2.22,.01,1.18,0,2.58-.02,4.3-.07l-3.29,.17c5.34-.1,19.68,0,24.91-.42,.94,.06,2.19,.21-.16,.25,12.75,.06,28.38-.45,38.29-.19l-.97,.13c2.38-.04,4.14-.24,7.12-.11-.15,.05-.96,.13,.14,.14,1.26-.04,6.32-.23,9.47-.15l-2.69,.15c10.82,.15,17.26-.23,25.62-.39,.91-.01,1.84-.03,2.77-.04,.37,0,.74,0,1.12-.01-.03,.38,9.76,.51,14.64,.57l-.17,.05c14.48,.05,24.6-.32,38.01-.47,8.32,.42,28.2,.17,41.57,.41-2.05-.07,.33-.3,2.71-.34,3.14,.08,8.68-.27,8.18,.09h-1.12c2.37,.34,8.82,.25,13.86,.26l.83-.46c5.69,.29,12.9,.28,19.83,.23,3.96,.05,7.68,0,11.2-.09,3.81-.02,7.1,0,9.44,.13h-.81l-1.39,.04,2.32-.04c.4,.02,.78,.05,1.12,.07,3.18-.11,7.12-.11,10.27-.23l-.17,.25c8.81,.06,13.21,.09,24.1,.04l-2.22,.18c3.86,0,5.94-.27,8.35-.49,2.61,.04,4.89,.07,3.81,.17,3.64-.08,2.38-.15-.03-.2,.84,.01,1.64,.02,2.42,.03l.59,.13c10.72,0,21.56,.32,32.15-.02-.05,.02-.12,.04-.23,.06-.46,.02-.93,.05-1.32,.06,.35-.01,.68-.01,1.02-.02-.32,.04-.83,.07-1.7,.07,3.13,0,9.88,.1,14.12,.05,1.13,.03,2.17,.06,3.09,.07l-3.57,.08c2.13-.05,3.88-.05,5.66-.05l-2.03-.21h0c2.09,.03,3.85,.04,3.81,.12,.81-.05,.78-.11,.65-.18,2.16-.01,4.9-.07,7.53-.13,.17,.08,1.41,.19-.87,.24,1.07,0,2.26,0,3.62,.03,.32,.03-.3,.06-.87,.07,8.41,.24,3.86-.31,12.58-.3-1.11,.15,2.02,.29,3.44,.26-3.51,0-1.68-.26,1.54-.38,5.59,.12,6.07-.09,9-.08l-1.56-.03c2.14-.02,2.65-.09,4.32-.19,.55,0,1.12-.01,1.73-.02,.33,.12-3.54,.08-2.15,.14,4.32-.27,9.77,.28,15.8,.1,2.79,.1,.27,.29,2.72,.36,5.38-.16,6.84,.07,10.8,.08-.29,.03-.73,.07-1.42,.12,1.03-.04,2.21-.08,3.5-.13,.48,0,.99-.01,1.55-.03-.08,0-.14-.01-.21-.02,1.76-.06,3.66-.13,5.57-.18v.03c3.6,.1,6.87,.06,10.29,0,.23,0,.44,0,.66-.01,.44,0,.88-.02,1.33-.03,1.77,.04,2.94,.06,4.68,.06,.69,.18,6.82,.1,9.79,.11-.24-.24,3.54-.21,.11-.4,.09,.01-.92,.02-2.64,.03-.44,0-.96,.01-1.25,.02h0l.2-.02h-.88c.32-.04,.81-.07,1.42-.08,.05,0,.1,0,.15,0h.11c2.26-.05,5.89,.03,8.54-.03-.33,.17,1.88,.23,3.38,.34-.09-.06,1.79-.06,3.85-.08,.59,.04,1.02,.08,1.22,.11,9-.14,21.18-.09,26.91-.54-1.9,.17,1.33,.29-4.06,.42,2.82,0,5.36,.03,5.4-.09,1.65,.11,7.82-.23,10.41-.07,.48-.03,.84-.08,1.29-.12,1.15-.03,2.09-.06,2.71-.12,.24,0,.46,0,.74,0,.22,.02,.15,.05,.08,.07,.27-.03,1.12-.05,1.84-.09,1.82,.12-4.21,.22,3.31,.18l-1.2,.1c9.81,.29,17.57,0,25.9-.2,1.52,.03,2.92,.07,4.1,.15,5.62-.04,12.29-.08,17.66-.12,.1,0,.19,0,.3,0h-.28l1.48-.02c-.36,.05-.02,.09-1.07,.07,3.08,.06,4.45,0,5.55-.09,1.87,0,3.76,.01,5.64,.01,.08,0,.22,.01,.45,.02,1.22,.56,10.59-.08,16.49,.25l-1.43,.03c4.51,.19,11.01-.21,18.38-.17,0,0-.36,.05-.04,.09,2.04-.12,4.82-.2,7.87-.27,4.11,.03,8.2,.07,12.22,.15,5.64,.08,6.72-.08,9.71-.22,.72,.04,1.37,.08,1.86,.13l.47,.09h.16c.08,0,.14,.02,.18,.04h-5.98c3.07,.32,7.75,0,10.9,.06l-.4,.14c7.52-.04,8.97-.27,14.67-.34,4.21,.13,8.72,.24,14.41,.04l.58,.12c2.14-.05,6.22-.16,10.52-.25,.1,.01,.15,.03,.08,.05,.16-.01,.42-.04,.74-.07,.61-.01,1.21-.03,1.82-.04,.15,0,.28,0,.45,.01l.12,.13c-3.53,.12-7.64,.21-10.6,.3,3.52,0,11.98-.03,13.81-.19-1.42,.03-3.21,.12-4.61,.06,3.45-.22,7.78-.34,12.95-.38,5.64,.13-1.81,.53,9.1,.55,1.67-.02,3.87-.08,5.87-.16,1.5,0,3.02,.01,4.51,.02v-.25c.52-.04,.69-.08,.31-.1-.09,0-.2,0-.3,0,0-.08,0-.16,0-.23l.45-.07h-.45v-.06h.45v-.25c.25-.11,.35-.22,0-.33V31.87c.02-1.5,.03-3.03,.02-4.6l.07,.24-.07-.72c0-.18,0-.36,0-.55,0,.04-.02,.07-.02,.11v-3.9c.08,.12,.14,.51,.17,1.32,.26-2.97-.19-2.63,.1-5.19,.05-.28,.07-.15,.09,.11l-.16-2.91c.11,.57,.38-.48,.3,1.3,.14-2.33,.07-4.23,0-5.82,.03-.25,.06-.58,.09-1.02ZM360.17,.69l-.88,.02c-.06-.01-.12-.02-.16-.03,.38,0,.72,0,1.04,0Zm-54.84,.02c-.19-.03-.46-.05-.76-.08l3.85-.05-3.08,.12Zm-1.48,.06l-2.94,.12c3.52,0,7.44-.13,9.55-.1-.17,0-.32,.02-.47,.02-6.66,0-10.71,.28-16.06,.08-.01,0-.04-.01-.06-.02l.04-.12c4.24,0,7.89,.01,9.94,.02Zm-30.55-.32c1.97-.03,2.63,.01,2.9,.06-.93,0-2.02,.02-3.45,.03l-.23,.03c.19-.05,.4-.09,.78-.12ZM47.77,1.12c-.16,0-.34,0-.52,0l-.63-.13,1.15,.14ZM.59,42.55v1.72c-.02-.42-.04-.85-.06-1.33,.02-.18,.04-.3,.06-.39Zm380.51,17.14c.3,0,.59-.01,.88-.02,.06,.01,.12,.02,.16,.03-.38,0-.72,0-1.04,0Zm54.84-.02c.19,.03,.46,.05,.76,.08l-3.85,.05,3.08-.12Zm1.47-.06l2.94-.12c-3.52,0-7.44,.13-9.55,.1,.17,0,.32-.02,.47-.02,6.65,0,10.71-.28,16.06-.08,.01,0,.04,.01,.06,.02l-.04,.12c-4.24,0-7.89-.01-9.94-.02Zm30.55,.32c-1.97,.03-2.63-.01-2.9-.06,.93,0,2.02-.02,3.45-.03l.23-.03c-.19,.05-.4,.09-.78,.12Zm225.54-.66c.16,0,.34,0,.52,0l.63,.13-1.15-.14Zm47.18-41.43v-1.72c.02,.42,.04,.85,.06,1.33-.02,.18-.04,.3-.06,.39Z"/><path class="cls-1" d="M377.34,59.99c-.59,0-1.16,0-1.67,.02,.7,0,1.25-.01,1.67-.02Z"/><path class="cls-1" d="M269.76,.77c-.28,0-.44,0-.81,.02,.4,.02,.79,.04,1.18,.05,.24-.03,.48-.05,.7-.08-.36,0-.73,0-1.06,0Z"/><path class="cls-1" d="M559,59.81l-.96-.27c-2.15,.05-2.6,.36,.96,.27Z"/><path class="cls-1" d="M683.83,59.53c1.36,.14,4.87,.23,7.03,.09-2.81-.02-5.61-.13-7.03-.09Z"/><polygon class="cls-1" points="507.33 .33 502.6 .4 504.82 .42 507.33 .33"/></g><g><g><path class="cls-5" d="M664.83,59.16h-.83c-2.29,0-4.15-1.86-4.15-4.15s1.86-4.15,4.15-4.15h.83c2.29,0,4.15,1.86,4.15,4.15s-1.86,4.15-4.15,4.15Z"/><path class="cls-5" d="M639.09,59.16h-.83c-2.29,0-4.15-1.86-4.15-4.15s1.86-4.15,4.15-4.15h.83c2.29,0,4.15,1.86,4.15,4.15s-1.86,4.15-4.15,4.15Z"/><path class="cls-5" d="M613.36,59.16h-.83c-2.29,0-4.15-1.86-4.15-4.15s1.86-4.15,4.15-4.15h.83c2.29,0,4.15,1.86,4.15,4.15s-1.86,4.15-4.15,4.15Z"/><path class="cls-5" d="M587.62,59.16h-.83c-2.29,0-4.15-1.86-4.15-4.15s1.86-4.15,4.15-4.15h.83c2.29,0,4.15,1.86,4.15,4.15s-1.86,4.15-4.15,4.15Z"/><path class="cls-5" d="M561.88,59.16h-.83c-2.29,0-4.15-1.86-4.15-4.15s1.86-4.15,4.15-4.15h.83c2.29,0,4.15,1.86,4.15,4.15s-1.86,4.15-4.15,4.15Z"/><path class="cls-5" d="M536.14,59.16h-.83c-2.29,0-4.15-1.86-4.15-4.15s1.86-4.15,4.15-4.15h.83c2.29,0,4.15,1.86,4.15,4.15s-1.86,4.15-4.15,4.15Z"/><path class="cls-5" d="M510.4,59.16h-.83c-2.29,0-4.15-1.86-4.15-4.15s1.86-4.15,4.15-4.15h.83c2.29,0,4.15,1.86,4.15,4.15s-1.86,4.15-4.15,4.15Z"/><path class="cls-5" d="M484.67,59.16h-.83c-2.29,0-4.15-1.86-4.15-4.15s1.86-4.15,4.15-4.15h.83c2.29,0,4.15,1.86,4.15,4.15s-1.86,4.15-4.15,4.15Z"/><path class="cls-5" d="M458.93,59.16h-.83c-2.29,0-4.15-1.86-4.15-4.15s1.86-4.15,4.15-4.15h.83c2.29,0,4.15,1.86,4.15,4.15s-1.86,4.15-4.15,4.15Z"/><path class="cls-5" d="M433.19,59.16h-.83c-2.29,0-4.15-1.86-4.15-4.15s1.86-4.15,4.15-4.15h.83c2.29,0,4.15,1.86,4.15,4.15s-1.86,4.15-4.15,4.15Z"/><path class="cls-5" d="M407.45,59.16h-.83c-2.29,0-4.15-1.86-4.15-4.15s1.86-4.15,4.15-4.15h.83c2.29,0,4.15,1.86,4.15,4.15s-1.86,4.15-4.15,4.15Z"/><path class="cls-5" d="M381.71,59.16h-.83c-2.29,0-4.15-1.86-4.15-4.15s1.86-4.15,4.15-4.15h.83c2.29,0,4.15,1.86,4.15,4.15s-1.86,4.15-4.15,4.15Z"/><path class="cls-5" d="M355.98,59.16h-.83c-2.29,0-4.15-1.86-4.15-4.15s1.86-4.15,4.15-4.15h.83c2.29,0,4.15,1.86,4.15,4.15s-1.86,4.15-4.15,4.15Z"/><path class="cls-5" d="M330.24,59.16h-.83c-2.29,0-4.15-1.86-4.15-4.15s1.86-4.15,4.15-4.15h.83c2.29,0,4.15,1.86,4.15,4.15s-1.86,4.15-4.15,4.15Z"/><path class="cls-5" d="M304.5,59.16h-.83c-2.29,0-4.15-1.86-4.15-4.15s1.86-4.15,4.15-4.15h.83c2.29,0,4.15,1.86,4.15,4.15s-1.86,4.15-4.15,4.15Z"/><path class="cls-5" d="M278.76,59.16h-.83c-2.29,0-4.15-1.86-4.15-4.15s1.86-4.15,4.15-4.15h.83c2.29,0,4.15,1.86,4.15,4.15s-1.86,4.15-4.15,4.15Z"/><path class="cls-5" d="M253.02,59.16h-.83c-2.29,0-4.15-1.86-4.15-4.15s1.86-4.15,4.15-4.15h.83c2.29,0,4.15,1.86,4.15,4.15s-1.86,4.15-4.15,4.15Z"/><path class="cls-5" d="M227.29,59.16h-.83c-2.29,0-4.15-1.86-4.15-4.15s1.86-4.15,4.15-4.15h.83c2.29,0,4.15,1.86,4.15,4.15s-1.86,4.15-4.15,4.15Z"/><path class="cls-5" d="M201.55,59.16h-.83c-2.29,0-4.15-1.86-4.15-4.15s1.86-4.15,4.15-4.15h.83c2.29,0,4.15,1.86,4.15,4.15s-1.86,4.15-4.15,4.15Z"/><path class="cls-5" d="M175.81,59.16h-.83c-2.29,0-4.15-1.86-4.15-4.15s1.86-4.15,4.15-4.15h.83c2.29,0,4.15,1.86,4.15,4.15s-1.86,4.15-4.15,4.15Z"/><path class="cls-5" d="M150.07,59.16h-.83c-2.29,0-4.15-1.86-4.15-4.15s1.86-4.15,4.15-4.15h.83c2.29,0,4.15,1.86,4.15,4.15s-1.86,4.15-4.15,4.15Z"/><path class="cls-5" d="M124.33,59.16h-.83c-2.29,0-4.15-1.86-4.15-4.15s1.86-4.15,4.15-4.15h.83c2.29,0,4.15,1.86,4.15,4.15s-1.86,4.15-4.15,4.15Z"/><path class="cls-5" d="M98.6,59.16h-.83c-2.29,0-4.15-1.86-4.15-4.15s1.86-4.15,4.15-4.15h.83c2.29,0,4.15,1.86,4.15,4.15s-1.86,4.15-4.15,4.15Z"/><path class="cls-5" d="M72.86,59.16h-.83c-2.29,0-4.15-1.86-4.15-4.15s1.86-4.15,4.15-4.15h.83c2.29,0,4.15,1.86,4.15,4.15s-1.86,4.15-4.15,4.15Z"/></g><g><path class="cls-5" d="M664.83,11.84h-.83c-2.29,0-4.15-1.86-4.15-4.15s1.86-4.15,4.15-4.15h.83c2.29,0,4.15,1.86,4.15,4.15s-1.86,4.15-4.15,4.15Z"/><path class="cls-5" d="M639.09,11.84h-.83c-2.29,0-4.15-1.86-4.15-4.15s1.86-4.15,4.15-4.15h.83c2.29,0,4.15,1.86,4.15,4.15s-1.86,4.15-4.15,4.15Z"/><path class="cls-5" d="M613.36,11.84h-.83c-2.29,0-4.15-1.86-4.15-4.15s1.86-4.15,4.15-4.15h.83c2.29,0,4.15,1.86,4.15,4.15s-1.86,4.15-4.15,4.15Z"/><path class="cls-5" d="M587.62,11.84h-.83c-2.29,0-4.15-1.86-4.15-4.15s1.86-4.15,4.15-4.15h.83c2.29,0,4.15,1.86,4.15,4.15s-1.86,4.15-4.15,4.15Z"/><path class="cls-5" d="M561.88,11.84h-.83c-2.29,0-4.15-1.86-4.15-4.15s1.86-4.15,4.15-4.15h.83c2.29,0,4.15,1.86,4.15,4.15s-1.86,4.15-4.15,4.15Z"/><path class="cls-5" d="M536.14,11.84h-.83c-2.29,0-4.15-1.86-4.15-4.15s1.86-4.15,4.15-4.15h.83c2.29,0,4.15,1.86,4.15,4.15s-1.86,4.15-4.15,4.15Z"/><path class="cls-5" d="M510.4,11.84h-.83c-2.29,0-4.15-1.86-4.15-4.15s1.86-4.15,4.15-4.15h.83c2.29,0,4.15,1.86,4.15,4.15s-1.86,4.15-4.15,4.15Z"/><path class="cls-5" d="M484.67,11.84h-.83c-2.29,0-4.15-1.86-4.15-4.15s1.86-4.15,4.15-4.15h.83c2.29,0,4.15,1.86,4.15,4.15s-1.86,4.15-4.15,4.15Z"/><path class="cls-5" d="M458.93,11.84h-.83c-2.29,0-4.15-1.86-4.15-4.15s1.86-4.15,4.15-4.15h.83c2.29,0,4.15,1.86,4.15,4.15s-1.86,4.15-4.15,4.15Z"/><path class="cls-5" d="M433.19,11.84h-.83c-2.29,0-4.15-1.86-4.15-4.15s1.86-4.15,4.15-4.15h.83c2.29,0,4.15,1.86,4.15,4.15s-1.86,4.15-4.15,4.15Z"/><path class="cls-5" d="M407.45,11.84h-.83c-2.29,0-4.15-1.86-4.15-4.15s1.86-4.15,4.15-4.15h.83c2.29,0,4.15,1.86,4.15,4.15s-1.86,4.15-4.15,4.15Z"/><path class="cls-5" d="M381.71,11.84h-.83c-2.29,0-4.15-1.86-4.15-4.15s1.86-4.15,4.15-4.15h.83c2.29,0,4.15,1.86,4.15,4.15s-1.86,4.15-4.15,4.15Z"/><path class="cls-5" d="M355.98,11.84h-.83c-2.29,0-4.15-1.86-4.15-4.15s1.86-4.15,4.15-4.15h.83c2.29,0,4.15,1.86,4.15,4.15s-1.86,4.15-4.15,4.15Z"/><path class="cls-5" d="M330.24,11.84h-.83c-2.29,0-4.15-1.86-4.15-4.15s1.86-4.15,4.15-4.15h.83c2.29,0,4.15,1.86,4.15,4.15s-1.86,4.15-4.15,4.15Z"/><path class="cls-5" d="M304.5,11.84h-.83c-2.29,0-4.15-1.86-4.15-4.15s1.86-4.15,4.15-4.15h.83c2.29,0,4.15,1.86,4.15,4.15s-1.86,4.15-4.15,4.15Z"/><path class="cls-5" d="M278.76,11.84h-.83c-2.29,0-4.15-1.86-4.15-4.15s1.86-4.15,4.15-4.15h.83c2.29,0,4.15,1.86,4.15,4.15s-1.86,4.15-4.15,4.15Z"/><path class="cls-5" d="M253.02,11.84h-.83c-2.29,0-4.15-1.86-4.15-4.15s1.86-4.15,4.15-4.15h.83c2.29,0,4.15,1.86,4.15,4.15s-1.86,4.15-4.15,4.15Z"/><path class="cls-5" d="M227.29,11.84h-.83c-2.29,0-4.15-1.86-4.15-4.15s1.86-4.15,4.15-4.15h.83c2.29,0,4.15,1.86,4.15,4.15s-1.86,4.15-4.15,4.15Z"/><path class="cls-5" d="M201.55,11.84h-.83c-2.29,0-4.15-1.86-4.15-4.15s1.86-4.15,4.15-4.15h.83c2.29,0,4.15,1.86,4.15,4.15s-1.86,4.15-4.15,4.15Z"/><path class="cls-5" d="M175.81,11.84h-.83c-2.29,0-4.15-1.86-4.15-4.15s1.86-4.15,4.15-4.15h.83c2.29,0,4.15,1.86,4.15,4.15s-1.86,4.15-4.15,4.15Z"/><path class="cls-5" d="M150.07,11.84h-.83c-2.29,0-4.15-1.86-4.15-4.15s1.86-4.15,4.15-4.15h.83c2.29,0,4.15,1.86,4.15,4.15s-1.86,4.15-4.15,4.15Z"/><path class="cls-5" d="M124.33,11.84h-.83c-2.29,0-4.15-1.86-4.15-4.15s1.86-4.15,4.15-4.15h.83c2.29,0,4.15,1.86,4.15,4.15s-1.86,4.15-4.15,4.15Z"/><path class="cls-5" d="M98.6,11.84h-.83c-2.29,0-4.15-1.86-4.15-4.15s1.86-4.15,4.15-4.15h.83c2.29,0,4.15,1.86,4.15,4.15s-1.86,4.15-4.15,4.15Z"/><path class="cls-5" d="M72.86,11.84h-.83c-2.29,0-4.15-1.86-4.15-4.15s1.86-4.15,4.15-4.15h.83c2.29,0,4.15,1.86,4.15,4.15s-1.86,4.15-4.15,4.15Z"/></g><g><g><path class="cls-3" d="M33.5,4.76h0Z"/><path class="cls-3" d="M30.25,5.45l-.09,.02c0,.11,.03,.07,.09-.02Z"/><path class="cls-3" d="M21.14,5.38h-.05s.03,0,.05,0Z"/><path class="cls-3" d="M33.5,4.76c.08-.05,.16-.11,.21-.19-.33-.16-.1,.13-.21,.19Z"/><path class="cls-3" d="M20,53.92c.1,.02,.18,0,.24-.04-.05-.01-.12,0-.24,.04Z"/><path class="cls-3" d="M25.04,53.73c.07-.12,.19-.19,.16-.33-.35,0-.43,.11-.16,.33Z"/><path class="cls-3" d="M24.38,54.09s-.04-.04-.06-.07c0,.04,.03,.06,.06,.07Z"/><path class="cls-3" d="M24.38,54.09c.11,.12,.23,.23,.44,.22,.07-.35-.3-.18-.44-.22Z"/><path class="cls-3" d="M17.6,53.52c.15,.28,.49,.07,.65,.05,.12-.37-.48,.15-.65-.05Z"/><path class="cls-3" d="M14.94,53.97c.11-.07,.16-.02,.25,0l-.09-.32c-.15,.02-.34,.21-.16,.33Z"/><polygon class="cls-3" points="9.21 7.89 9.33 7.61 9.08 7.68 9.21 7.89"/><path class="cls-3" d="M31.95,5.56c.39-.04-.01,.3,.28,.28-.05-.04,.05-.44-.28-.28Z"/><path class="cls-3" d="M39.44,53.99h.05s-.03,0-.05,0Z"/><path class="cls-3" d="M40.58,5.46c-.1-.02-.18,0-.24,.04,.05,.01,.12,0,.24-.04Z"/><path class="cls-3" d="M58.5,39.95c.04-.6,.08-1.19,.12-1.79,.17-1.16,.43-2.38,.22-3.58,.1-1.99,.13-3.98-.03-5.99-.04,.06-.08,.1-.12,.11-.03-1.01-.3-2.08,.02-2.97-.07,.04-.12,.05-.18,.07-.01-.47-.02-.94-.03-1.41l.02,.24,.04-.31s-.04-.03-.07-.04c-.01-.71-.01-1.42,0-2.15,.03-.17,.06-.36,.1-.57-.06-.34-.24-.53-.35-.77,0-.18,0-.38-.06-.52,0-.02,0-.04,0-.07,.56-.41,.02-1.38,.23-2.03-.11,.04-.22,.02-.31-.04,.09-.28,.23-.6,.45-1.07,.05-.75,.1-1.5,.13-2.25,.02-.37,.04-.71,.02-1.26,0-.5-.03-1-.11-1.5-.25-1.99-.94-3.9-1.97-5.57-2.05-3.35-5.45-5.64-9.21-6.35-.48-.08-.96-.13-1.44-.13l-.71-.02-.53,.02-2.13,.08c-1.42,.07-2.83,.14-4.26,.21-2.84,.15-5.7,.31-8.63,.39-.48,.47-1.06,.57-1.66,.67-.82-.03-1.8-.06-2.76-.2-.33-.05-.5,.05-.65,.18-.1-.04-.21-.07-.33-.11,0,.21-.2,.18-.28,.29v-.11c-.22,.08-.36,.2-.48,.33-.13-.13-.27-.29-.44-.38,.03-.04,.06-.08,.08-.12-.42-.09-.84,.17-1.21,.31,.03-.2,.08-.58-.94-.85-1.31,.09-2.63,.27-3.94,.39-.94,.1-1.8,.1-2.82,.11,.16-.14,.31-.28,.43-.41,.39-.43,.56-.81,.56-.81-1.29,.15-2.49,.42-3.65,.8-1.15,.4-2.24,.92-3.29,1.55-1.37,.86-2.66,1.95-3.76,3.32-.06,.05-.12,.1-.17,.13,0,.04,0,.06,0,.1-.49,.63-.94,1.3-1.33,2.05-.12,.43-.25,.88-.34,1.37l-.05-.04c-.15,.45-.31,.89-.41,1.36-.12,.46-.23,.93-.29,1.42l-.1,.73-.04,.74c-.01,.23-.03,.52-.03,.71v.58c0,1.54,.06,3.09,.27,4.62-.04,.6-.08,1.19-.12,1.79-.17,1.16-.43,2.38-.22,3.58-.1,1.99-.13,3.98,.03,5.99,.04-.06,.08-.1,.12-.11,.03,1.01,.3,2.08-.02,2.97,.07-.04,.12-.05,.18-.07,.01,.47,.02,.95,.03,1.41l-.02-.24-.04,.31s.05,.03,.07,.04c.01,.71,.01,1.42,0,2.15-.03,.17-.06,.36-.1,.57,.06,.34,.24,.53,.35,.77,0,.18,0,.38,.06,.52,0,.02,0,.04,0,.07-.56,.41-.02,1.38-.23,2.03,.11-.04,.22-.02,.31,.04-.09,.28-.23,.6-.45,1.07-.05,.75-.1,1.5-.13,2.25-.02,.37-.04,.71-.02,1.26,0,.5,.03,1,.11,1.5,.25,1.99,.94,3.9,1.97,5.57,2.05,3.35,5.45,5.64,9.21,6.35,.48,.08,.96,.13,1.44,.13l.71,.02,.53-.02,2.13-.08c1.42-.07,2.83-.14,4.26-.21,2.84-.15,5.7-.31,8.63-.39,.48-.47,1.06-.57,1.66-.67,.82,.03,1.8,.06,2.76,.2,.33,.05,.5-.05,.65-.18,.1,.04,.21,.07,.33,.11,0-.21,.2-.18,.28-.29v.11c.22-.08,.36-.2,.48-.33,.13,.13,.27,.29,.44,.38-.03,.04-.06,.08-.08,.12,.42,.09,.84-.17,1.21-.31-.03,.2-.08,.58,.94,.85,1.31-.09,2.63-.27,3.94-.39,.94-.1,1.8-.1,2.82-.11-.16,.14-.31,.28-.43,.41-.39,.43-.56,.81-.56,.81,1.29-.15,2.49-.42,3.65-.8,1.15-.4,2.24-.92,3.29-1.55,1.37-.86,2.66-1.95,3.76-3.32,.06-.05,.12-.1,.17-.13,0-.04,0-.06,0-.1,.49-.63,.94-1.3,1.33-2.05,.12-.43,.25-.88,.34-1.37l.05,.04c.15-.45,.31-.89,.41-1.36,.12-.46,.23-.93,.29-1.42l.1-.73,.04-.74c.01-.23,.03-.52,.03-.71v-.58c0-1.54-.06-3.09-.27-4.62ZM30.53,5.07h0Zm-8.23,.07c-.07,.02-.15,.04-.24,.06,.09-.05,.18-.07,.24-.06Zm7.75,49.17h0Zm8.23-.07c.07-.02,.15-.04,.24-.06-.09,.05-.18,.07-.24,.06Zm6.64-.7c-.37,.6-1.06-.24-1.11,.54,.02-.08-.07-.18-.11-.23-.25,.23-.44,.72-.76,.76l.1-.51c.07-.64-.89-.13-.97-.45,.27,.43-.35,0-.38,.38l-.37,.16c-.58,.13-.07,.25-.79,.32-.41,.03-.14-.59,0-.53-.34-.27-.69-.12-1.05,0,.13,0,.18,.03,.05,.15,0-.07-.04-.11-.09-.13-.13,.04-.27,.08-.4,.08,0-.01,0-.01,0-.03,.15-.03,.28-.06,.38-.06-.09-.05-.23-.05-.37-.05-.01-.03-.05-.03-.11,0-.12,0-.23-.03-.31-.11l.1-.4c-.25-.02-.95,.44-.93,.61-.99-.34-2.62-.05-3.29,.17,.13-.09,.15-.22,.02-.08-.34,.08-.73,.42-.76,.16-.33,.16-.31-.28-.82-.31,0-.07-.05,.22,0,.32-.55-.34-1.2-.08-1.86,.05,0,0,0,0,.01-.02-.03,0-.04,.02-.06,.03-.14,.03-.28,.04-.42,.05-.14-.12-.29-.27-.48-.08-.03-.03-.03-.07-.03-.11,.06-.08,.12-.19,.17-.27l-.13,.03c0-.05-.03-.09-.13-.11-.04,.05-.06,.1-.07,.16-.37,.09-.72,.2-1.07,.33-.37,.08-.79,.24-.85,.43h0c.08-.18,.05-.35,.24-.45-.44,0-.92,.08-1.23,.29,.02,0,.04-.01,.07-.01,.14,.12,.14,.25,.06,.36-.15,.11-.33,.2-.52,.27-.08,0-.15,.01-.22,0v-.09c-.49,0-.57,.17-.94,.22-.03,0-.07,0-.1,0h0s-.06,.02-.09,.02c-.33-.23,.29-.11,.16-.36-.03-.17-.14-.28-.28-.34,.32-.56,1.58-.6,1.86-.25,.62-.61-.49-.07-.37-.66-.57,.05-.83,.36-1.7,.45,0,.21,.13,.3,.08,.41-.38-.11-.88-.03-.95-.08-.05,.05-.1,.1-.15,.14-.11-.17-.19-.34-.27-.35,.11-.07,.27-.09,.38-.16-.52-.21-.7,.2-1.24,.17-.15-.81,.87-.09,1.07-.59l-.39-.58c-.84-.08-.23,.66-1.1,.45l.1-.29-.54,.18c0,.3,.11,.76,.57,.7-.31,.78-.43,.11-1.16,.26-.24,.45,.31-.04,.33,.4,.02,.14-.02,.23-.1,.29-.07,.03-.14,.06-.21,.1-.15,.04-.33,.07-.49,.1-.61,0-.31-.48-.56-.78,.11-.07,.58-.14,.53,.12,.75-.46-.33-.92,.19-1.24-.57-.26-.55,.27-.86,.42,.18,.05-.08,.45,.05,.6-.99,1.21-.64-.88-1.59-.67,.13,.51-.45,.81-.68,1.2-.27-.02-.57-.06-.85-.11l.4-.48c-.39-.36-1.02-.72-1.23-.97-.5,.23,.16,.5-.42,.63,.2-.27-.16-.5-.41-.49,.52,.2,0,.74-.32,.87-.25,0-.49-.12-.64-.26-.12-.15-.17-.3-.14-.36,.06-.07,.11-.14,.18-.21l.25-.22c-.37,.38-.2-.2-.45-.05-.08,.29-.27,.72-.39,1.09-.27,.13-.4-.31-.49-.25,.14-.09,.28-.16,.41-.26-.5,.06-.01-.81-.5-.68l-.19,.38c-.09-.07-.09-.28,.03-.4-.12,.27-.38,.13-.52,.21l.04-.27c-.23,.14-.67,.58-.72,0-.03,.67,.23,.1,.47,.49,.04,.26-.07,.35-.22,.37-.14,0-.31-.05-.36-.03,.12-.32,0-.39-.19-.38-.19,0-.44,.03-.56-.03-.03-.29-.1-.45-.11-.63l-.3,.34c.36-.82-.56-.1-.66-.54,.28-.12,.45-.43,.37-.66-.15,.71-.85,.38-1.06,.76-.27-.58,.62-.55,.78-1.03-.5,.2-.19-.61-.74-.28,.11,.43-.32,.25-.59,.38-.3-.42,.26-.14,.2-.56-.2-.08-.74-.01-.69,.39-.06-.34-.79-.25-.65-.8,.25-.34,.5,.44,.63,.1-.26-.45-.67-.11-1.07-.11-.09-.03-.19-.05-.29-.08-.05-.03-.11-.07-.16-.12,0,.02,0,.03-.01,.04-.07-.05-.13-.14-.16-.28-.04-.1-.02-.28,.02-.38,.12,.02,.25,.05,.37,.08,.34,.1,.65,.17,.82-.15l-.34-.18c.21-.02,.56-.1,.68-.3-.23,.08-.34-.07-.39-.24-.04-.17-.04-.36-.1-.36-.4,.09,.19,.19-.12,.26-.2-.26-.93-.19-.8-.81,.35,.21,.51-.25,.77-.19,.11-.27-.5,.05-.35-.36h.24c-.07-.73-.15-1.53-.22-2.31-.13-.98-.39-1.92-.89-2.69,.41-.28,.45-.86,.73-1.76-.14,.39-.42,.02-.47-.21l.47-.43c.27-.52-.18-1.21-.44-1.69,.09-.09,.22-.11,.35-.14,.31-.46-.26-.48-.37-.66l.33-.3-.33-.07c-.19-.47-.11-1.09,.43-1.02-.1-.18-.2-.36-.36-.13,.31-.47,.31-1.74,.13-2.58-.13,.4-.3,.36-.63,.4-.57-.12,.11-.19-.22-.52,.21,0,.43-.39,.58,.02,.73-1.12,.14-2.68,.29-4.08-.09-.28-.18-.2-.33-.33,.57-.89-.03-1.97,.22-2.93-.24,.21-.9-.09-.91-.62-.46-.58,.65-.23,.93-.76-.22-.26-.28-.75-.25-.96l.08,.02c-.25-.32-.39-.82-.18-1.2l.03,.06c.04-.31,.34-.67,.3-1-.44-.15-.17-.94-.56-1.13,.05-.04,.08,.02,.18-.07l-.37-.03,.21-.65c.15,.14,.31,.17,.41,.35,.26-.69-.34-.23-.54-.6-.27-.48,.1-.45,.26-.69,.18,.2-.09,.35-.02,.47,.29,.28,.12-.29,.33-.3,.01-.1-.44-.15-.35-.5,.04-.31-.07-1.02,.33-.94-.21-.26-.17-.57-.35-.77-.07,.25-.18,.71-.43,.76-.05-.23-.16-.67,.01-.74l.1,.18c-.1-.18,.03-.84-.35-.5l.52-.47c-.31-.18-.29-.65-.36-1.04,.41-.02,.87,.3,.97-.43l-.42-.62c-.04-.34,.07-.36,.31-.33,.26-.85-1.06-1.06-.59-1.77,.42,.42,.5,.16,.72-.11-.08-.03-.23-.1-.21-.24-.24,.03,.28,.27-.1,.43-.32,0-.12-.34-.18-.52,.58-.18,.8-.63,1.02-1.16,.12-.26,.21-.54,.38-.78,.15-.24,.33-.46,.58-.58-.51-.31,.11-.49,.09-.78,.43,.49,.28-.53,.76-.43l-.53-.35c.36-.09,.38-.45,.45-.76,.07-.29,.17-.55,.54-.36,.39-.07,.15,.46,.1,.63,.38,.12,.54-.16,.74-.44,.18-.29,.41-.53,.73-.27-.06-.25-.38-.56-.07-.98,.45,.12,1.16,.19,1.14,.34,.23-.19,.26-.41,.6-.27,0,.17-.11,.23-.18,.32,.24,.01,.43-.06,.62-.16,.19-.1,.36-.28,.57-.41,.15,.24,.42,.28,.72,.3,.36,.03,.78,.04,1.11,.17,.37-.6,1.06,.24,1.11-.54-.02,.08,.07,.18,.11,.23,.25-.23,.44-.72,.76-.76l-.1,.51c-.07,.64,.89,.13,.97,.45-.27-.43,.35,0,.38-.38l.37-.16c.58-.13,.07-.25,.79-.32,.41-.03,.14,.59,0,.53,.34,.27,.69,.12,1.05,0-.13,0-.18-.03-.05-.15,0,.07,.04,.11,.09,.13,.13-.04,.27-.08,.4-.08,0,.01,0,.01,0,.03-.15,.03-.28,.06-.38,.06,.09,.05,.23,.05,.37,.05,.01,.03,.05,.03,.11,0,.12,0,.23,.03,.31,.11l-.1,.4c.25,.02,.95-.44,.93-.61,.99,.34,2.62,.05,3.29-.17-.13,.09-.15,.22-.02,.08,.34-.08,.73-.42,.76-.16,.33-.16,.31,.28,.82,.31,0,.07,.05-.22,0-.32,.55,.34,1.2,.08,1.86-.05,0,0,0,0-.01,.02,.03,0,.04-.02,.06-.03,.14-.03,.28-.04,.42-.05,.14,.12,.29,.27,.48,.08,.03,.03,.03,.07,.03,.11-.06,.08-.12,.19-.17,.27l.13-.03c0,.05,.03,.09,.13,.11,.04-.05,.06-.1,.07-.16,.37-.09,.72-.2,1.07-.33,.37-.08,.79-.24,.85-.43h0c-.08,.18-.05,.35-.24,.45,.44,0,.92-.08,1.23-.29-.02,0-.04,.01-.07,.01-.14-.12-.14-.25-.06-.36,.15-.11,.33-.2,.52-.27,.08,0,.15-.01,.22,0v.09c.49,0,.57-.17,.94-.22,.03,0,.07,0,.1,0h0s.06-.02,.09-.02c.33,.23-.29,.11-.16,.36,.03,.17,.14,.28,.28,.34-.32,.56-1.58,.6-1.86,.25-.62,.61,.49,.07,.37,.66,.57-.05,.83-.36,1.7-.45,0-.21-.13-.3-.08-.41,.38,.11,.88,.03,.95,.08,.05-.05,.1-.1,.15-.14,.11,.17,.19,.34,.27,.35-.11,.07-.27,.09-.38,.16,.52,.21,.7-.2,1.24-.17,.15,.81-.87,.09-1.07,.59l.39,.58c.84,.08,.23-.66,1.1-.45l-.1,.29,.54-.18c0-.3-.11-.76-.57-.7,.31-.78,.43-.11,1.16-.26,.24-.45-.31,.04-.33-.4-.02-.14,.02-.23,.1-.29,.07-.03,.14-.06,.21-.1,.15-.04,.33-.07,.49-.1,.61,0,.31,.48,.56,.78-.11,.07-.58,.14-.53-.12-.75,.46,.33,.92-.19,1.24,.57,.26,.55-.27,.86-.42-.18-.05,.08-.45-.05-.6,.99-1.21,.64,.88,1.59,.67-.13-.51,.45-.81,.68-1.2,.27,.02,.57,.06,.85,.11l-.4,.48c.39,.36,1.02,.72,1.23,.97,.5-.23-.16-.5,.42-.63-.2,.27,.16,.5,.41,.49-.52-.2,0-.74,.32-.87,.25,0,.49,.12,.64,.26,.12,.15,.17,.3,.14,.36-.06,.07-.11,.14-.18,.21l-.25,.22c.37-.38,.2,.2,.45,.05,.08-.29,.27-.72,.39-1.09,.27-.13,.4,.31,.49,.25-.14,.09-.28,.15-.41,.26,.5-.06,.01,.81,.5,.68l.19-.38c.09,.07,.09,.28-.03,.4,.12-.27,.38-.13,.52-.21l-.04,.27c.23-.14,.67-.58,.72,0,.03-.67-.23-.1-.47-.49-.04-.26,.07-.35,.22-.37,.14,0,.31,.05,.36,.03-.12,.32,0,.39,.19,.38,.19,0,.44-.03,.56,.03,.03,.29,.1,.45,.11,.63l.3-.34c-.36,.82,.56,.1,.66,.54-.28,.12-.45,.43-.37,.66,.15-.71,.85-.38,1.06-.76,.27,.58-.62,.55-.78,1.03,.5-.2,.19,.61,.74,.28-.11-.43,.32-.25,.59-.38,.3,.42-.26,.14-.2,.56,.2,.08,.74,.01,.69-.39,.06,.34,.79,.25,.65,.8-.25,.34-.5-.44-.63-.1,.26,.45,.67,.11,1.07,.11,.09,.03,.19,.05,.29,.08,.05,.03,.11,.07,.16,.12,0-.02,0-.03,.01-.04,.07,.05,.13,.14,.16,.28,.04,.1,.02,.28-.02,.38-.12-.02-.25-.05-.37-.08-.34-.1-.65-.17-.82,.15l.34,.18c-.21,.02-.56,.1-.68,.3,.23-.08,.34,.07,.39,.24,.04,.17,.04,.36,.1,.36,.4-.09-.19-.19,.12-.26,.2,.26,.93,.19,.8,.81-.35-.21-.51,.25-.77,.19-.11,.27,.5-.05,.35,.36h-.24c.07,.73,.15,1.53,.22,2.31,.13,.98,.39,1.92,.89,2.69-.41,.28-.45,.86-.73,1.76,.14-.39,.42-.02,.47,.21l-.47,.43c-.27,.52,.18,1.21,.44,1.69-.09,.09-.22,.11-.35,.14-.31,.46,.26,.48,.37,.66l-.33,.3,.33,.07c.19,.47,.11,1.09-.43,1.02,.1,.18,.2,.36,.36,.13-.31,.47-.31,1.74-.13,2.58,.13-.4,.3-.36,.63-.4,.57,.12-.11,.19,.22,.52-.21,0-.43,.39-.58-.02-.73,1.12-.14,2.68-.29,4.08,.09,.28,.18,.2,.33,.33-.57,.89,.03,1.97-.22,2.93,.24-.21,.9,.09,.91,.62,.46,.58-.65,.23-.93,.76,.22,.26,.28,.75,.25,.96l-.08-.02c.25,.32,.39,.82,.18,1.2l-.03-.06c-.04,.31-.34,.67-.3,1,.44,.15,.17,.94,.56,1.13-.05,.04-.08-.02-.18,.07l.37,.03-.21,.65c-.15-.14-.31-.17-.41-.35-.26,.69,.34,.23,.54,.6,.27,.48-.1,.45-.26,.69-.18-.2,.09-.35,.02-.47-.29-.28-.12,.29-.33,.3-.01,.1,.44,.15,.35,.5-.04,.31,.07,1.02-.33,.94,.21,.26,.17,.57,.35,.77,.07-.25,.18-.71,.43-.76,.05,.23,.16,.67-.01,.74l-.1-.18c.1,.18-.03,.84,.35,.5l-.52,.47c.31,.18,.29,.65,.36,1.04-.41,.02-.87-.3-.97,.43l.42,.62c.04,.34-.07,.36-.31,.33-.26,.85,1.06,1.06,.59,1.77-.42-.42-.5-.16-.72,.11,.08,.03,.23,.1,.21,.24,.24-.03-.28-.27,.1-.43,.32,0,.12,.34,.18,.52-.58,.18-.8,.63-1.02,1.16-.12,.26-.21,.54-.38,.78-.15,.24-.33,.46-.58,.58,.51,.31-.11,.49-.09,.78-.43-.49-.28,.53-.76,.43l.53,.35c-.36,.09-.38,.45-.45,.76-.07,.29-.17,.55-.54,.36-.39,.07-.15-.46-.1-.63-.38-.12-.54,.16-.74,.44-.18,.29-.41,.53-.73,.27,.06,.25,.38,.56,.07,.98-.45-.12-1.16-.19-1.14-.34-.23,.19-.26,.41-.6,.27,0-.17,.11-.23,.18-.32-.24-.01-.43,.06-.62,.16-.19,.1-.36,.28-.57,.41-.15-.24-.42-.28-.72-.3-.36-.03-.78-.04-1.11-.17Z"/><path class="cls-3" d="M27.08,54.61h0Z"/><path class="cls-3" d="M30.32,53.93l.09-.02c0-.11-.03-.07-.09,.02Z"/><path class="cls-3" d="M27.08,54.61c-.08,.05-.16,.11-.21,.19,.33,.16,.1-.13,.21-.19Z"/><path class="cls-3" d="M35.37,5.97c.35,0,.43-.11,.16-.33-.07,.12-.19,.19-.16,.33Z"/><path class="cls-3" d="M36.19,5.28s.04,.04,.06,.07c0-.04-.03-.06-.06-.07Z"/><path class="cls-3" d="M35.75,5.06c-.07,.35,.3,.18,.44,.22-.11-.12-.23-.23-.44-.22Z"/><path class="cls-3" d="M42.33,5.8c-.12,.37,.48-.15,.65,.05-.15-.28-.49-.07-.65-.05Z"/><path class="cls-3" d="M45.38,5.41l.09,.32c.15-.02,.34-.21,.16-.33-.11,.07-.16,.02-.25,0Z"/><polygon class="cls-3" points="51.37 51.48 51.25 51.76 51.5 51.69 51.37 51.48"/><path class="cls-3" d="M28.34,53.54c.05,.04-.05,.44,.28,.28-.39,.04,.01-.3-.28-.28Z"/></g><g><rect class="cls-2" x="12.16" y="11.45" width="36.53" height="36.53" rx="13.57" ry="13.57"/><g><path class="cls-3" d="M37.42,47.43c-.07,.07-.03,.24,.15,.19l.12-.28-.27,.09Z"/><path class="cls-3" d="M38.65,47.87c.2-.17,.4-.43,.24-.66-.17,.29-.23,.2-.42,.53-.18,.04-.32-.07-.3-.17-.06,.07-.28-.05-.37,.13,.24,.2,.55,.2,.84,0,.07,.05,.02,.13,0,.18Z"/><path class="cls-3" d="M49.08,35.2l-.03,.12s.03-.07,.03-.12Z"/><path class="cls-3" d="M49.23,24.06c0,.08,.03,.12,.06,.12-.02-.08-.03-.14-.06-.12Z"/><path class="cls-3" d="M49.5,22.12v.12s.02-.09,0-.12Z"/><path class="cls-3" d="M49.08,35.2l.09-.3c-.09-.02-.07,.15-.09,.3Z"/><path class="cls-3" d="M40.84,46.7c-.05,.03-.09,.07-.12,.12l.13-.08v-.04Z"/><path class="cls-3" d="M48.77,40.24l-.03,.09s.05,.07,.08,.11l-.05-.2Z"/><path class="cls-3" d="M47.01,43.78c.06-.07-.11-.23-.17-.31,.05,.1,.05,.18,.01,.25,.03,.03,.08,.05,.16,.07Z"/><path class="cls-3" d="M41.96,47.29s-.06,.05-.09,.07c.02-.02,.06-.05,.09-.07Z"/><path class="cls-3" d="M49.32,37.45s.07-.02,.09-.03c-.03,0-.06,.01-.09,.03Z"/><path class="cls-3" d="M33.06,46.89s0,.03,0,.04c.02-.02,.03-.04,0-.04Z"/><path class="cls-3" d="M37.42,48.04h-.06c0,.06-.01,.1-.01,.14l.07-.14Z"/><path class="cls-3" d="M49.03,18.37v.02c.06,.09,.04,.03,0-.02Z"/><path class="cls-3" d="M18.88,11.37c.44,.06-.48,.47,.14,.48-.09-.06,.36-.52-.14-.48Z"/><path class="cls-3" d="M40.94,46.7s.09-.04,.14-.05c-.06,.02-.11,.03-.14,.05Z"/><path class="cls-3" d="M19.02,11.85h0Z"/><path class="cls-3" d="M43.31,11.96s.01,.09,.03,.14c0-.02,0-.06-.03-.14Z"/><path class="cls-3" d="M47.65,16.59l-.05-.15c.01,.06,.03,.11,.05,.15Z"/><path class="cls-3" d="M40.09,11.09c-.08-.04-.1-.08-.22-.08,0,.01,.02,.02,.03,.04,.05-.02,.11-.02,.19,.04Z"/><path class="cls-3" d="M36.73,10.78s.04,.03,.06,.05h.1l-.16-.05Z"/><path class="cls-3" d="M23.26,46.99c.06,.07,.1,.14,.14,.22-.05-.17,.41-.21-.14-.22Z"/><path class="cls-3" d="M40.89,46.82c0-.06,.01-.1,.05-.13l-.09,.05s.01,.07,.04,.08Z"/><path class="cls-3" d="M39.56,12.86c-.14-.06-.3-.07-.45-.11,.12,.05,.29,.07,.45,.11Z"/><path class="cls-3" d="M13.11,31.06l.03,.12s0-.09-.03-.12Z"/><path class="cls-3" d="M37.76,12.64c-.08-.09-.17-.14-.26-.18-.02,.02-.04,.03-.05,.06l.31,.12Z"/><path class="cls-3" d="M23.4,47.21h0Z"/><path class="cls-3" d="M26.77,46.66c-.49,0-.23,.3-.33,.48-.58,.09-.27-.23-.47-.38-.36,.08-.64,.36-.92,.35-.02-.05-.07-.07-.01-.13-.39,.24-1.14,.01-1.59,.32-.03-.03-.05-.05-.06-.08,.07,.16,.08,.31,.07,.42-.21,0-.4,.17-.47-.03,.13,.01,.14-.07,.2-.13l-.22,.08c-.18-.3,.3-.08,.31-.3-.41,.06-.94,.31-1.26,.16-.01-.14,.18-.14,.32-.14,.15-.01,.24-.02,.04-.16l.49,.13c-.35-.46,.29,.05-.02-.45-.62-.1-.71,.07-1.33-.09-.17,.13,0,.23-.17,.37-.97,.03-.53-.83-1.25-.69-.22,.12-.42,.43-.8,.08l.28-.24c-.55-.27-.51,.27-1.02-.2,.16-.06,.49,.12,.42,.04-.26-.41-.35,.04-.65-.12l.08-.28c-.59-.29-1.31-.53-1.91-.99,.09-.03,.24-.02,.17-.2-.82-.48-1.35-1.45-1.7-2.25l-.38-.16c-.04-.07,.02-.18,.1-.13-.1-.34-.14,.06-.31-.03-.12-.16-.01-.29,.11-.22-.24-.21-.52-.56-.76-.95-.19-.4-.38-.82-.31-1.18l.1,.1c-.02-.51-.64-.43-.51-.95l.06,.08c-.12-1.1-.32-2.32,.04-3.26-.35-.17,.16-1.18-.33-1.25,.24-.68,.33-.48,.49-1.44,.02-.26-.31-.38-.36-.7h.26l-.27-.44,.31-.23-.07-.3c-.01,.12-.11,.25-.19,.23-.12-.46,.18-1.13,.31-1.14l-.22-1.09c.1,.02,.14,.21,.2,.35-.26-.58,.27-.11,.03-.64-.06,.07-.15-.04-.2-.05,.15-.27,.16-.87,.09-1.32l.18,.09c.04-.81-.08-1.71-.08-2.62-.08,.33-.39,.25-.42-.02l.27-.11c-.17-.17-.1,.28-.31-.07,.03-.34,.31-.23,.4-.03l-.09-.41c.08-.02,.12,.07,.23,.1-.17-.17,.27-.71-.02-.96l.08-.02c0-.94-.07-1.25-.03-1.93-.23-.04-.14-.29-.29-.53,.07-.25,.18-.5,.31-.75,.13-.25,.21-.53,.32-.81,.04-.43-.14-.18-.21-.41,.21,.04,.4-.53,.43-.18,.26-.68,.33-.86,.66-1.73-.13,.04-.22,.12-.25,.03,.06-.17,.28-.28,.35-.21v.05c.16-.52,.64-.93,1.14-1.24,.47-.34,.96-.57,1.12-1.01l-.02,.04,.54-.69c.33-.21-.1,.27,.21,.21,.28-.39,.6-.57,.91-.71,.32-.12,.62-.23,.92-.48,.4,.2,.84-.02,1.35-.17,.5-.19,1.05-.32,1.45-.19l-.06-.14c.18-.18,.25,.06,.4,.08-.03-.11-.23-.12-.11-.21,.82-.15,1.83-.08,2.79,.01,.97,.09,1.95,.22,2.92,.29,.7,.04,.4-.76,1.29-.41l-.25,.27c1.42-.33,2.9,.01,4.29-.27-.08,.06-.09,.15-.22,.14,.29,.2,1.09,0,1.09-.15,.22,.02,.05,.15,.18,.23,.29,.12,.74-.25,.9-.06,.03,.03-.08,.06-.14,.08,.19-.1,.89,.02,.71-.21,.52,.11,1.01-.11,1.41,.04,.26-.24,.8,.17,.91-.19-.06,.35,.78,.42,1.12,.29-.12,.09,.23,.18,.08,.3,.33,.08,.65,.09,.64-.11,.25,.28,.56,.33,.85,.35,.3,.02,.55,.08,.59,.42,1.01,.22,1.88,.68,2.66,1.22-.25,.24-.84-.61-1.04-.27,.39,.19,.74,.3,1.05,.48,.32,.16,.62,.36,.88,.73,.12,.2-.21,.01-.3,0,.17,.14,.33,.28,.48,.44,.13,.17,.25,.34,.38,.5,.26,.32,.44,.67,.74,.96-.03,.02-.11-.04-.17-.09,.09,.13,.14,.33,.28,.24l-.12-.11c.04-.17,.24-.1,.43,.02,.18,.12,.38,.29,.44,.27-.56-.03,.24,.78-.51,.64,.08,.08,.2,.16,.29,.1,.02,.16-.02,.23-.2,.13,.27,.48,.38,.24,.55,.72-.08,.02-.15-.06-.25-.08,.25,.18,.45,.4,.5,.84-.05-.01-.11,.05-.14-.07,.12,.35,.27,.64,.4,.95,.07,.16,.13,.32,.17,.49,.02,.18,.03,.37,0,.58-.37-.22-.1,.29-.41,.33,.04,.14,.07,.29,.1,.45l.15-.19c0,.41,.22,.77,.12,1.12l-.13-.3,.06,.76,.12-.43c.16,.41,.39-.04,.31,.5-.03-.11,0,.41-.19,.62h0c.1,.2,.2,.41,.13,.71-.1,.08-.34-.06-.41-.01,.26,.2,.07,.95,.35,1.2-.06-.08-.23-.09-.26-.06l.21,.17c-.07,.19-.1,.22-.23,.19-.04,.57,.39-.18,.22,.49-.02-.05-.05-.03-.08-.14-.09,.68,.13,1.31,.03,1.93-.31,.18-.08-.54-.34-.33,.06,.9,.37,1.85,.3,2.72l.03-.16c.44,.12-.22,.65,0,1.08-.03-.11-.24-.14-.2-.11-.07,.59,.11,1.21,.25,2.11l-.11-.11c-.1,.35-.06,.92-.11,1.3,.11,.11,.09,.33,.26,.2-.31,.6-.27,1.09-.2,1.63,.01,.52,.08,1.06-.33,1.47,.03-.12-.03-.29-.05-.2-.04,.28-.07,.56-.11,.84,.21,0,.14-.07,.33-.2,.09,.14,.1,.4,.02,.6,.01-.41-.29-.09-.45,.02,.06,0,.11,.07,.17,.08-.48,.3,.35,.21-.1,.7l-.08-.07c-.05,.23-.03,.48-.16,.69-.24,0,.01-.27-.14-.36-.13,.31,.07,.82-.3,.98,.02-.16,.14-.34,.15-.5-.4,.17-.36,.23-.53,.42l.02-.02c-.14,.14-.26,.29-.4,.42,.05-.02,.1-.05,.14-.08,.22,.67-.4,.78-.51,1.45,.11-.66-.09-.2-.25-.4-.15,.06-.36,.17-.37,.08-.04,.33-.4,.23-.48,.68-.07-.05-.22,.19-.31,0-.21,.28,.15,.05,.2,.14-.11,.28-.4,.45-.72,.59-.32,.15-.64,.33-.88,.68-.49,.49-.49,.77-1.02,1.18-.25-.02,.04-.35,.04-.35-.36,.05-.59,.15-.87,.35,.04-.09-.05-.12-.17-.17-.24,.1-.07,.35-.43,.33,.03-.1,.06-.26,.15-.39-.26,.17-.51,.37-.8,.53-.11-.12,.14-.26,.22-.37-.16,.07-.37,.16-.55,.26-.18,.08-.34,.18-.38,.3l.24,.04c-.13,.03-.1-.18-.01-.23,.27-.21,.44-.02,.48,.06l-.21,.11c.33,.39,.89-.27,1.31-.42l-.07,.39,.36-.44c.13,.05,.26,.2,.06,.33,.38,.04,.24-.21,.58-.15,.04,.01,.03,.03,.01,.06l.26-.24c-.03,.09,.15,.2-.06,.24,.64-.09,.76-.65,1.08-.55l-.03,.04c.66-.54-.06-.26,.31-.83,.23,.11,.46,.19,.7,.27l-.08-.26c.07-.04,.22-.13,.26-.03,.15-.33-.11-.06-.06-.3,.49-.05,.77-.82,1.13-.58-.02-.24-.39,.16-.16-.23,.41,.23,.3-.42,.7-.56,.09,.23-.25,.43,.16,.28-.06-.21,.08-.33,.25-.45,.16-.12,.37-.23,.44-.39-.23-.19,.33-.64,.5-1.17,.03,.04,.22-.15,.4-.42,.18-.27,.39-.61,.55-.82l.04,.03c-.24-.21-.01-.68,.06-1.05,.17,.07,.21,.16,.22,.38l.12-.34c-.06-.11-.09-.24-.06-.47l.2,.15c.11-.48,0-1,.22-1.59-.21-.06-.66,.38-.7-.26,.12,0,.32,0,.34,.16,0-.06-.07-.2,0-.31l.15,.28c.13-.26-.14-.16-.09-.38,.17,.02,.13-.15,.26-.11,.02,.06-.09,.19-.04,.28,.08-.24,.17-.54,.3-.64-.09,.02-.22-.01-.23-.2,.01-.48,.21-.16,.3-.44-.1-.12,0-.41-.24-.42,0-.13,.12-.16,.18-.21-.11-.24-.03-1.11-.29-.85l-.02,.06v-.04h-.01c-.24-.78,.14-1.63,.03-2.4h.08c-.09-.46-.06-1.03-.23-1.36,0-.14,.15-.32,.25-.26-.06-.35-.15-.39-.02-.91,.14,.36,.13-.12,.1,.36,.07-.46,.2-.56-.02-1.06,.21,.17,.26-.35,.2-.57l-.15,.32c-.03-.25-.01-.46,0-.68l.28,.12c.34-.94-.57-1.7,0-2.42-.19-.25-.14,.51-.36,.29,.04-.43,.43-.88,.43-1.02,.15-.59-.4-.55-.3-1.17-.1,.08-.36,.15-.45-.31,.04-.43,.41-.53,.49-.26,0,.1-.02,.15-.06,.15,.04,.14,.08,.32,.18,.15l-.1-.06c.1-.22,.09-.81,.25-.67-.09-.33-.16-.14-.21,.1,.14-.56,.02-.85,.08-1.47-.05,.1-.16,.19-.16,.1,.07-.89-.19-.38-.29-.96,.1-.35,.37,.08,.16-.5,.04-.38,.25-.12,.35,.02-.25-.53-.08-1.06-.13-1.4l.15,.27c-.09-.17-.13-.31-.16-.46l-.15,.22c-.01-.18-.05-.32,.03-.34-.17-.14-.27,.22-.54-.06,.02-.25-.34-.61-.12-.78,.17,.71,.22-.17,.47,.4-.07-.1-.12-.24-.15-.42,.02-.04,.06,0,.09,.04-.03-.76-.38-.2-.68-.86,.17,.02,.18-.27,.1-.37,.13,.27-.16,.23-.38,.05-.1-.47-.32-.39-.43-.6l.09,.26c-.18,0-.27-.21-.48-.45,.08-.09,.21,.2,.2,.08-.38-.16-.22-.81-.66-1.1-.06-.25,.2-.19,.13-.4-.51-.3-.26-.59-.78-.93-.03,.27,.04,.24-.4,.1,.27,.18,.5,.4,.76,.6l-.62-.26c.19,.21,.5,.36,.59,.51-.32-.11-.26-.12-.29,.09-.05-.48-.62-.46-.82-.88l.35-.35c-.37-.65-1.09-.62-1.75-1.21,.07,.07,.13,.14,.19,.23-.2,.09-.48-.27-.76-.35,.11-.13-.02-.27-.08-.43-.04,.1-.59-.31-.8-.05l-.27-.37c-.64-.36-.93,.13-1.55-.13,.25-.11-.02-.33,.46-.3-.22-.09-.42-.15-.45-.05-.11-.13-.67,.05-.84-.15-.11,.04-.17,.21-.42,.16-.02-.04,.02-.08,.02-.08-.02,.08-.41,.05-.22,.26-.61-.65-1.93-.13-2.48-.56-.47,.05-1.04,.11-1.48,.12,.03-.05,0-.08,.08-.06-.59-.15-.36,.47-1.04,.3-.34-.26,.36-.14,.14-.24-.09-.54-.81,.07-1.27-.24l.11-.03c-.35-.18-.85,.2-1.42,.17,0,0,.03-.05,0-.08-.39,.28-1.12,.37-1.67,.44,.17-.21,.25-.11,.14-.33-.24,.03,.07,.34-.42,.4-.16-.12-.51-.22-.56-.45h.46c-.24-.31-.6,0-.84-.05l.03-.13c-.71,.04-.72,.37-1.48,.34l.08,.1c-.41,.32-.35-.18-.76,.06l-.13-.33c-.27,.08-.96,.32-1.45,.38,.28-.24,.85-.37,1.21-.51-.27,0-.92,.02-1.06,.19,.11-.03,.25-.11,.36-.06-.33,.26-.77,.38-1.31,.38,.09-.63-1.39-.17-1.86-.62-1,.28-2.05,.14-3.2,.56,.56,.32-.33,.13-.08,.59-.24,.12-.34,.15-.38,.13-.3,0-.58,.04-.88,.07-.25-.05,.19-.22,.12-.31-.58,.23-.33-.08-.77-.02,.16,.12-.07,.33-.41,.46l.54-.05c-.58,.69-.88,0-1.45,.74l.13-.3c-.16,.17-.49,.42-.8,.71-.28,.31-.54,.65-.56,.94-.1,.01-.27-.02-.15-.18-.82,.74-1.24,2.04-1.82,2.63l-.06-.13c-.07,.19,.02,.41-.21,.56-.04-.04-.07-.13-.12-.05,0,.12-.04,.57-.21,.78l-.03-.26c-.32,.43-.37,.85-.39,1.24-.03,.39,.02,.77-.04,1.19-.18-.05-.34,.12-.49,.35-.13,.23-.21,.53-.28,.74l-.05-.02c-.14,.61-.05,1.14,.02,1.65,.09,.49,.22,.92,.29,1.44-.4,.64-.17,2.17-.39,3.2,.07-.16,.28,.03,.32,.21-.07,.24,.25,.67-.08,.63v-.09c-.32,.18-.24,.68-.24,1.07l.44,.06c-.64,1.01,.23,2.66-.34,3.21,.11,.24,.11,.55,.22,.79h-.24c-.06,.67-.09,1-.03,1.84l-.17-.17c-.01,.47,.68,.6,.69,1.03l-.35,.13c0,.41-.08,.82-.09,1.28-.02,.45,.01,.91,.25,1.32-.05,0-.16-.02-.19-.16,.03,.21,.02,.63,.1,.96,.09,.33,.21,.57,.43,.44-.15,.04-.1,.27,.02,.54,.14,.26,.36,.55,.51,.75h-.24c.41,.29,.49,.26,.81,.72,.03,.13-.12,.18-.14,0,.09,.45,.33,.22,.48,.73l-.23-.1c.22,.4,.27,.33,.54,.45,.21,.2,.41,.73,.29,.91,.14-.03,.42,.07,.53,.31-.04,.08-.14,.03-.18,0,.37,.68,.92,.67,1.13,1.18-.05,.06-.05,.11-.03,.16-.45-.4-.73-.8-.7-.77-.16,.14,.15,.54-.34,.44,.38,.21,1.12,.42,1.41,.8,0,.03,0,.06,0,.1l-.05-.02c.07,.09,.15,.14,.25,.17,.1,.12,.16,.2,.28,.29-.06,.17,.39,.43,.61,.56,.11-.2,.36,0,.21-.32,.02,.03-.06,0-.19-.08-.03-.02-.07-.04-.1-.04h.03c-.13-.1-.3-.22-.49-.36,.23,.02,.44,.06,.58,.32,.18-.05,.39-.12,.49-.14,.1,.43,.55,.94,.55,1.14,.37,.1,.77,.3,1.17,.38,.4,.08,.78,.12,1.06-.02,.21,0,.19,.18,.25,.27-.13,.01-.27-.03-.35,.01,.44,0,1.22,.29,1.38-.03,.49,.21-.34,.23,.38,.29l-.11,.08c.67,.38,1.3,.18,1.89,.03,.57-.18,1.15-.34,1.9-.02-.1-.04-.16-.06-.18-.11,1.71,.28,3.52-.26,5.2,.18,.48,.09,.53-.11,.82-.26l.1,.25,.5-.29c.71-.21,1.23,.62,2.12,.21l-.12-.17c.32,.03,1.02-.1,.97,.09,.03-.03,.11-.18,.23-.09v.13l.8-.22c.61,.09-.1,.52,.8,.55,.33-.05,.95-.38,.82-.47-.13,0-.34-.08-.35-.21l.3-.07c.06-.39,.29-.78-.46-1.05l-.52,.24-.17-.19h.44c-.25-.19-.41-.03-.58,.07-.04-.1-.11-.17-.22-.21l-.51,.37c-.06-.15,.23-.3-.11-.38-.24,.17,.23,.34-.17,.45-.25-.18-.18-.32-.47-.17-.04-.1,.02-.16,.14-.21-.26,.12-.69,.05-.82,.26-.26-.22-.88,.06-.85-.31-.08,.09-.46,.29-.7,.3,.44-.44-.89-.03-.78-.5-.32,.39-1.17,.17-1.74,.39,.03-.03,.09-.09,.15-.07-.32-.03-.42-.15-.62-.23-.04,.33-.54,.4-.81,.6-.39-.31,.24-.38,.12-.68,.02,.26-.69,.26-.55,.48-.3-.19-.26-.09-.42-.36-.05,.41-.28,.07-.53,.32-.44-.2-.11-.38-.59-.26-.23-.12,.2-.27,.2-.27Zm-10.33-1.92h0l.17,.14-.18-.14Zm-.66-.62c.06,.09,.16,.19,.27,.28-.03,.08-.12,.12-.18,.05,.07,0-.06-.18-.09-.33Zm.51,2.56c-.15-.07-.17-.14-.16-.19,.06,.04,.14,.09,.25,.15h.03s-.08,.04-.12,.04Z"/><path class="cls-3" d="M16.7,46.6s.04,.01,.06,.02l-.05-.1-.09,.03,.07,.05Z"/><path class="cls-3" d="M49.04,35.33v-.02s-.01,.03-.03,.04c.01-.01,.02-.01,.03-.02Z"/><polygon class="cls-3" points="13.23 32.13 13.17 32.13 13.22 32.22 13.23 32.13"/><path class="cls-3" d="M47.59,40.38s-.05,.01-.08,.04c.02,0,.05-.02,.08-.04Z"/><path class="cls-3" d="M46.6,42.32l-.23,.22c.11-.09,.18-.16,.23-.22Z"/><path class="cls-3" d="M45.53,43.61s.04,.07,.05,.09h0l-.06-.09Z"/><path class="cls-3" d="M46.37,17.49s-.03-.03-.04-.05c-.11-.1-.05-.03,.04,.05Z"/><path class="cls-3" d="M48.34,25.06c-.04-.09-.08-.17-.11-.27-.02,.15-.02,.26,.11,.27Z"/><polygon class="cls-3" points="39.61 12.87 39.61 12.87 39.56 12.86 39.61 12.87"/><path class="cls-3" d="M48.24,24.4c-.05,.15-.04,.27,0,.39,.02-.12,.04-.26,0-.39Z"/><path class="cls-3" d="M39.43,47.06h-.08s0,.03,0,.04l.08-.04Z"/><path class="cls-3" d="M39.34,47.1l-.08,.04s.07-.01,.08-.04Z"/><path class="cls-3" d="M39.09,47.23l.17-.09c-.06,0-.14,.01-.17,.09Z"/><path class="cls-3" d="M41.54,46.54v-.09s-.01,.05,0,.09Z"/><path class="cls-3" d="M42.13,46.23c-.15,.05-.43,0-.61,.15v.07c.05-.16,.53-.03,.61-.22Z"/><path class="cls-3" d="M45.12,45.47c-.17,.12-.33,.24-.51,.34,.14,0,.33,.01,.12,.2,.78-.28-.24-.04,.39-.54Z"/><path class="cls-3" d="M46.55,44.2c-.19,.28,.11,.08,.13,.13,.07-.22,.08-.28-.13-.13Z"/><path class="cls-3" d="M49.23,31.2l.21,.03c-.03-.25-.08,0-.21-.03Z"/><polygon class="cls-3" points="48.13 28.66 48 28.9 48.19 29.01 48.13 28.66"/><polygon class="cls-3" points="49.64 27.17 49.67 27.27 49.6 26.86 49.64 27.17"/><path class="cls-3" d="M37.31,10.58l.07,.26c.17-.04,.21-.34-.07-.26Z"/><path class="cls-3" d="M27.7,10.84c-.1-.13-.38-.21-.54-.09,.22,.02,.43,.12,.54,.09Z"/><polygon class="cls-3" points="11.13 29.58 11.04 29.39 11.12 29.75 11.13 29.58"/></g></g></g><g><g><path class="cls-3" d="M714.19,5.76h0Z"/><path class="cls-3" d="M710.94,6.45l-.09,.02c0,.11,.03,.07,.09-.02Z"/><path class="cls-3" d="M701.83,6.38h-.05s.03,0,.05,0Z"/><path class="cls-3" d="M714.19,5.76c.08-.05,.16-.11,.21-.19-.33-.16-.1,.13-.21,.19Z"/><path class="cls-3" d="M700.69,54.92c.1,.02,.18,0,.24-.04-.05-.01-.12,0-.24,.04Z"/><path class="cls-3" d="M705.73,54.73c.07-.12,.19-.19,.16-.33-.35,0-.43,.11-.16,.33Z"/><path class="cls-3" d="M705.07,55.09s-.04-.04-.06-.07c0,.04,.03,.06,.06,.07Z"/><path class="cls-3" d="M705.07,55.09c.11,.12,.23,.23,.44,.22,.07-.35-.3-.18-.44-.22Z"/><path class="cls-3" d="M698.29,54.52c.15,.28,.49,.07,.65,.05,.12-.37-.48,.15-.65-.05Z"/><path class="cls-3" d="M695.63,54.97c.11-.07,.16-.02,.25,0l-.09-.32c-.15,.02-.34,.21-.16,.33Z"/><polygon class="cls-3" points="689.9 8.89 690.02 8.61 689.77 8.68 689.9 8.89"/><path class="cls-3" d="M712.64,6.56c.39-.04-.01,.3,.28,.28-.05-.04,.05-.44-.28-.28Z"/><path class="cls-3" d="M720.12,54.99h.05s-.03,0-.05,0Z"/><path class="cls-3" d="M721.26,6.46c-.1-.02-.18,0-.24,.04,.05,.01,.12,0,.24-.04Z"/><path class="cls-3" d="M739.19,40.95c.04-.6,.08-1.19,.12-1.79,.17-1.16,.43-2.38,.22-3.58,.1-1.99,.13-3.98-.03-5.99-.04,.06-.08,.1-.12,.11-.03-1.01-.3-2.08,.02-2.97-.07,.04-.12,.05-.18,.07-.01-.47-.02-.94-.03-1.41l.02,.24,.04-.31s-.04-.03-.07-.04c-.01-.71-.01-1.42,0-2.15,.03-.17,.06-.36,.1-.57-.06-.34-.24-.53-.35-.77,0-.18,0-.38-.06-.52,0-.02,0-.04,0-.07,.56-.41,.02-1.38,.23-2.03-.11,.04-.22,.02-.31-.04,.09-.28,.23-.6,.45-1.07,.05-.75,.1-1.5,.13-2.25,.02-.37,.04-.71,.02-1.26,0-.5-.03-1-.11-1.5-.25-1.99-.94-3.9-1.97-5.57-2.05-3.35-5.45-5.64-9.21-6.35-.48-.08-.96-.13-1.44-.13l-.71-.02-.53,.02-2.13,.08c-1.42,.07-2.83,.14-4.26,.21-2.84,.15-5.7,.31-8.63,.39-.48,.47-1.06,.57-1.66,.67-.82-.03-1.8-.06-2.76-.2-.33-.05-.5,.05-.65,.18-.1-.04-.21-.07-.33-.11,0,.21-.2,.18-.28,.29v-.11c-.22,.08-.36,.2-.48,.33-.13-.13-.27-.29-.44-.38,.03-.04,.06-.08,.08-.12-.42-.09-.84,.17-1.21,.31,.03-.2,.08-.58-.94-.85-1.31,.09-2.63,.27-3.94,.39-.94,.1-1.8,.1-2.82,.11,.16-.14,.31-.28,.43-.41,.39-.43,.56-.81,.56-.81-1.29,.15-2.49,.42-3.65,.8-1.15,.4-2.24,.92-3.29,1.55-1.37,.86-2.66,1.95-3.76,3.32-.06,.05-.12,.1-.17,.13,0,.04,0,.06,0,.1-.49,.63-.94,1.3-1.33,2.05-.12,.43-.25,.88-.34,1.37l-.05-.04c-.15,.45-.31,.89-.41,1.36-.12,.46-.23,.93-.29,1.42l-.1,.73-.04,.74c-.01,.23-.03,.52-.03,.71v.58c0,1.54,.06,3.09,.27,4.62-.04,.6-.08,1.19-.12,1.79-.17,1.16-.43,2.38-.22,3.58-.1,1.99-.13,3.98,.03,5.99,.04-.06,.08-.1,.12-.11,.03,1.01,.3,2.08-.02,2.97,.07-.04,.12-.05,.18-.07,.01,.47,.02,.95,.03,1.41l-.02-.24-.04,.31s.05,.03,.07,.04c.01,.71,.01,1.42,0,2.15-.03,.17-.06,.36-.1,.57,.06,.34,.24,.53,.35,.77,0,.18,0,.38,.06,.52,0,.02,0,.04,0,.07-.56,.41-.02,1.38-.23,2.03,.11-.04,.22-.02,.31,.04-.09,.28-.23,.6-.45,1.07-.05,.75-.1,1.5-.13,2.25-.02,.37-.04,.71-.02,1.26,0,.5,.03,1,.11,1.5,.25,1.99,.94,3.9,1.97,5.57,2.05,3.35,5.45,5.64,9.21,6.35,.48,.08,.96,.13,1.44,.13l.71,.02,.53-.02,2.13-.08c1.42-.07,2.83-.14,4.26-.21,2.84-.15,5.7-.31,8.63-.39,.48-.47,1.06-.57,1.66-.67,.82,.03,1.8,.06,2.76,.2,.33,.05,.5-.05,.65-.18,.1,.04,.21,.07,.33,.11,0-.21,.2-.18,.28-.29v.11c.22-.08,.36-.2,.48-.33,.13,.13,.27,.29,.44,.38-.03,.04-.06,.08-.08,.12,.42,.09,.84-.17,1.21-.31-.03,.2-.08,.58,.94,.85,1.31-.09,2.63-.27,3.94-.39,.94-.1,1.8-.1,2.82-.11-.16,.14-.31,.28-.43,.41-.39,.43-.56,.81-.56,.81,1.29-.15,2.49-.42,3.65-.8,1.15-.4,2.24-.92,3.29-1.55,1.37-.86,2.66-1.95,3.76-3.32,.06-.05,.12-.1,.17-.13,0-.04,0-.06,0-.1,.49-.63,.94-1.3,1.33-2.05,.12-.43,.25-.88,.34-1.37l.05,.04c.15-.45,.31-.89,.41-1.36,.12-.46,.23-.93,.29-1.42l.1-.73,.04-.74c.01-.23,.03-.52,.03-.71v-.58c0-1.54-.06-3.09-.27-4.62Zm-27.97-34.88h0Zm-8.23,.07c-.07,.02-.15,.04-.24,.06,.09-.05,.18-.07,.24-.06Zm7.75,49.17h0Zm8.23-.07c.07-.02,.15-.04,.24-.06-.09,.05-.18,.07-.24,.06Zm6.64-.7c-.37,.6-1.06-.24-1.11,.54,.02-.08-.07-.18-.11-.23-.25,.23-.44,.72-.76,.76l.1-.51c.07-.64-.89-.13-.97-.45,.27,.43-.35,0-.38,.38l-.37,.16c-.58,.13-.07,.25-.79,.32-.41,.03-.14-.59,0-.53-.34-.27-.69-.12-1.05,0,.13,0,.18,.03,.05,.15,0-.07-.04-.11-.09-.13-.13,.04-.27,.08-.4,.08,0-.01,0-.01,0-.03,.15-.03,.28-.06,.38-.06-.09-.05-.23-.05-.37-.05-.01-.03-.05-.03-.11,0-.12,0-.23-.03-.31-.11l.1-.4c-.25-.02-.95,.44-.93,.61-.99-.34-2.62-.05-3.29,.17,.13-.09,.15-.22,.02-.08-.34,.08-.73,.42-.76,.16-.33,.16-.31-.28-.82-.31,0-.07-.05,.22,0,.32-.55-.34-1.2-.08-1.86,.05,0,0,0,0,.01-.02-.03,0-.04,.02-.06,.03-.14,.03-.28,.04-.42,.05-.14-.12-.29-.27-.48-.08-.03-.03-.03-.07-.03-.11,.06-.08,.12-.19,.17-.27l-.13,.03c0-.05-.03-.09-.13-.11-.04,.05-.06,.1-.07,.16-.37,.09-.72,.2-1.07,.33-.37,.08-.79,.24-.85,.43h0c.08-.18,.05-.35,.24-.45-.44,0-.92,.08-1.23,.29,.02,0,.04-.01,.07-.01,.14,.12,.14,.25,.06,.36-.15,.11-.33,.2-.52,.27-.08,0-.15,.01-.22,0v-.09c-.49,0-.57,.17-.94,.22-.03,0-.07,0-.1,0h0s-.06,.02-.09,.02c-.33-.23,.29-.11,.16-.36-.03-.17-.14-.28-.28-.34,.32-.56,1.58-.6,1.86-.25,.62-.61-.49-.07-.37-.66-.57,.05-.83,.36-1.7,.45,0,.21,.13,.3,.08,.41-.38-.11-.88-.03-.95-.08-.05,.05-.1,.1-.15,.14-.11-.17-.19-.34-.27-.35,.11-.07,.27-.09,.38-.16-.52-.21-.7,.2-1.24,.17-.15-.81,.87-.09,1.07-.59l-.39-.58c-.84-.08-.23,.66-1.1,.45l.1-.29-.54,.18c0,.3,.11,.76,.57,.7-.31,.78-.43,.11-1.16,.26-.24,.45,.31-.04,.33,.4,.02,.14-.02,.23-.1,.29-.07,.03-.14,.06-.21,.1-.15,.04-.33,.07-.49,.1-.61,0-.31-.48-.56-.78,.11-.07,.58-.14,.53,.12,.75-.46-.33-.92,.19-1.24-.57-.26-.55,.27-.86,.42,.18,.05-.08,.45,.05,.6-.99,1.21-.64-.88-1.59-.67,.13,.51-.45,.81-.68,1.2-.27-.02-.57-.06-.85-.11l.4-.48c-.39-.36-1.02-.72-1.23-.97-.5,.23,.16,.5-.42,.63,.2-.27-.16-.5-.41-.49,.52,.2,0,.74-.32,.87-.25,0-.49-.12-.64-.26-.12-.15-.17-.3-.14-.36,.06-.07,.11-.14,.18-.21l.25-.22c-.37,.38-.2-.2-.45-.05-.08,.29-.27,.72-.39,1.09-.27,.13-.4-.31-.49-.25,.14-.09,.28-.16,.41-.26-.5,.06-.01-.81-.5-.68l-.19,.38c-.09-.07-.09-.28,.03-.4-.12,.27-.38,.13-.52,.21l.04-.27c-.23,.14-.67,.58-.72,0-.03,.67,.23,.1,.47,.49,.04,.26-.07,.35-.22,.37-.14,0-.31-.05-.36-.03,.12-.32,0-.39-.19-.38-.19,0-.44,.03-.56-.03-.03-.29-.1-.45-.11-.63l-.3,.34c.36-.82-.56-.1-.66-.54,.28-.12,.45-.43,.37-.66-.15,.71-.85,.38-1.06,.76-.27-.58,.62-.55,.78-1.03-.5,.2-.19-.61-.74-.28,.11,.43-.32,.25-.59,.38-.3-.42,.26-.14,.2-.56-.2-.08-.74-.01-.69,.39-.06-.34-.79-.25-.65-.8,.25-.34,.5,.44,.63,.1-.26-.45-.67-.11-1.07-.11-.09-.03-.19-.05-.29-.08-.05-.03-.11-.07-.16-.12,0,.02,0,.03-.01,.04-.07-.05-.13-.14-.16-.28-.04-.1-.02-.28,.02-.38,.12,.02,.25,.05,.37,.08,.34,.1,.65,.17,.82-.15l-.34-.18c.21-.02,.56-.1,.68-.3-.23,.08-.34-.07-.39-.24-.04-.17-.04-.36-.1-.36-.4,.09,.19,.19-.12,.26-.2-.26-.93-.19-.8-.81,.35,.21,.51-.25,.77-.19,.11-.27-.5,.05-.35-.36h.24c-.07-.73-.15-1.53-.22-2.31-.13-.98-.39-1.92-.89-2.69,.41-.28,.45-.86,.73-1.76-.14,.39-.42,.02-.47-.21l.47-.43c.27-.52-.18-1.21-.44-1.69,.09-.09,.22-.11,.35-.14,.31-.46-.26-.48-.37-.66l.33-.3-.33-.07c-.19-.47-.11-1.09,.43-1.02-.1-.18-.2-.36-.36-.13,.31-.47,.31-1.74,.13-2.58-.13,.4-.3,.36-.63,.4-.57-.12,.11-.19-.22-.52,.21,0,.43-.39,.58,.02,.73-1.12,.14-2.68,.29-4.08-.09-.28-.18-.2-.33-.33,.57-.89-.03-1.97,.22-2.93-.24,.21-.9-.09-.91-.62-.46-.58,.65-.23,.93-.76-.22-.26-.28-.75-.25-.96l.08,.02c-.25-.32-.39-.82-.18-1.2l.03,.06c.04-.31,.34-.67,.3-1-.44-.15-.17-.94-.56-1.13,.05-.04,.08,.02,.18-.07l-.37-.03,.21-.65c.15,.14,.31,.17,.41,.35,.26-.69-.34-.23-.54-.6-.27-.48,.1-.45,.26-.69,.18,.2-.09,.35-.02,.47,.29,.28,.12-.29,.33-.3,.01-.1-.44-.15-.35-.5,.04-.31-.07-1.02,.33-.94-.21-.26-.17-.57-.35-.77-.07,.25-.18,.71-.43,.76-.05-.23-.16-.67,.01-.74l.1,.18c-.1-.18,.03-.84-.35-.5l.52-.47c-.31-.18-.29-.65-.36-1.04,.41-.02,.87,.3,.97-.43l-.42-.62c-.04-.34,.07-.36,.31-.33,.26-.85-1.06-1.06-.59-1.77,.42,.42,.5,.16,.72-.11-.08-.03-.23-.1-.21-.24-.24,.03,.28,.27-.1,.43-.32,0-.12-.34-.18-.52,.58-.18,.8-.63,1.02-1.16,.12-.26,.21-.54,.38-.78,.15-.24,.33-.46,.58-.58-.51-.31,.11-.49,.09-.78,.43,.49,.28-.53,.76-.43l-.53-.35c.36-.09,.38-.45,.45-.76,.07-.29,.17-.55,.54-.36,.39-.07,.15,.46,.1,.63,.38,.12,.54-.16,.74-.44,.18-.29,.41-.53,.73-.27-.06-.25-.38-.56-.07-.98,.45,.12,1.16,.19,1.14,.34,.23-.19,.26-.41,.6-.27,0,.17-.11,.23-.18,.32,.24,.01,.43-.06,.62-.16,.19-.1,.36-.28,.57-.41,.15,.24,.42,.28,.72,.3,.36,.03,.78,.04,1.11,.17,.37-.6,1.06,.24,1.11-.54-.02,.08,.07,.18,.11,.23,.25-.23,.44-.72,.76-.76l-.1,.51c-.07,.64,.89,.13,.97,.45-.27-.43,.35,0,.38-.38l.37-.16c.58-.13,.07-.25,.79-.32,.41-.03,.14,.59,0,.53,.34,.27,.69,.12,1.05,0-.13,0-.18-.03-.05-.15,0,.07,.04,.11,.09,.13,.13-.04,.27-.08,.4-.08,0,.01,0,.01,0,.03-.15,.03-.28,.06-.38,.06,.09,.05,.23,.05,.37,.05,.01,.03,.05,.03,.11,0,.12,0,.23,.03,.31,.11l-.1,.4c.25,.02,.95-.44,.93-.61,.99,.34,2.62,.05,3.29-.17-.13,.09-.15,.22-.02,.08,.34-.08,.73-.42,.76-.16,.33-.16,.31,.28,.82,.31,0,.07,.05-.22,0-.32,.55,.34,1.2,.08,1.86-.05,0,0,0,0-.01,.02,.03,0,.04-.02,.06-.03,.14-.03,.28-.04,.42-.05,.14,.12,.29,.27,.48,.08,.03,.03,.03,.07,.03,.11-.06,.08-.12,.19-.17,.27l.13-.03c0,.05,.03,.09,.13,.11,.04-.05,.06-.1,.07-.16,.37-.09,.72-.2,1.07-.33,.37-.08,.79-.24,.85-.43h0c-.08,.18-.05,.35-.24,.45,.44,0,.92-.08,1.23-.29-.02,0-.04,.01-.07,.01-.14-.12-.14-.25-.06-.36,.15-.11,.33-.2,.52-.27,.08,0,.15-.01,.22,0v.09c.49,0,.57-.17,.94-.22,.03,0,.07,0,.1,0h0s.06-.02,.09-.02c.33,.23-.29,.11-.16,.36,.03,.17,.14,.28,.28,.34-.32,.56-1.58,.6-1.86,.25-.62,.61,.49,.07,.37,.66,.57-.05,.83-.36,1.7-.45,0-.21-.13-.3-.08-.41,.38,.11,.88,.03,.95,.08,.05-.05,.1-.1,.15-.14,.11,.17,.19,.34,.27,.35-.11,.07-.27,.09-.38,.16,.52,.21,.7-.2,1.24-.17,.15,.81-.87,.09-1.07,.59l.39,.58c.84,.08,.23-.66,1.1-.45l-.1,.29,.54-.18c0-.3-.11-.76-.57-.7,.31-.78,.43-.11,1.16-.26,.24-.45-.31,.04-.33-.4-.02-.14,.02-.23,.1-.29,.07-.03,.14-.06,.21-.1,.15-.04,.33-.07,.49-.1,.61,0,.31,.48,.56,.78-.11,.07-.58,.14-.53-.12-.75,.46,.33,.92-.19,1.24,.57,.26,.55-.27,.86-.42-.18-.05,.08-.45-.05-.6,.99-1.21,.64,.88,1.59,.67-.13-.51,.45-.81,.68-1.2,.27,.02,.57,.06,.85,.11l-.4,.48c.39,.36,1.02,.72,1.23,.97,.5-.23-.16-.5,.42-.63-.2,.27,.16,.5,.41,.49-.52-.2,0-.74,.32-.87,.25,0,.49,.12,.64,.26,.12,.15,.17,.3,.14,.36-.06,.07-.11,.14-.18,.21l-.25,.22c.37-.38,.2,.2,.45,.05,.08-.29,.27-.72,.39-1.09,.27-.13,.4,.31,.49,.25-.14,.09-.28,.15-.41,.26,.5-.06,.01,.81,.5,.68l.19-.38c.09,.07,.09,.28-.03,.4,.12-.27,.38-.13,.52-.21l-.04,.27c.23-.14,.67-.58,.72,0,.03-.67-.23-.1-.47-.49-.04-.26,.07-.35,.22-.37,.14,0,.31,.05,.36,.03-.12,.32,0,.39,.19,.38,.19,0,.44-.03,.56,.03,.03,.29,.1,.45,.11,.63l.3-.34c-.36,.82,.56,.1,.66,.54-.28,.12-.45,.43-.37,.66,.15-.71,.85-.38,1.06-.76,.27,.58-.62,.55-.78,1.03,.5-.2,.19,.61,.74,.28-.11-.43,.32-.25,.59-.38,.3,.42-.26,.14-.2,.56,.2,.08,.74,.01,.69-.39,.06,.34,.79,.25,.65,.8-.25,.34-.5-.44-.63-.1,.26,.45,.67,.11,1.07,.11,.09,.03,.19,.05,.29,.08,.05,.03,.11,.07,.16,.12,0-.02,0-.03,.01-.04,.07,.05,.13,.14,.16,.28,.04,.1,.02,.28-.02,.38-.12-.02-.25-.05-.37-.08-.34-.1-.65-.17-.82,.15l.34,.18c-.21,.02-.56,.1-.68,.3,.23-.08,.34,.07,.39,.24,.04,.17,.04,.36,.1,.36,.4-.09-.19-.19,.12-.26,.2,.26,.93,.19,.8,.81-.35-.21-.51,.25-.77,.19-.11,.27,.5-.05,.35,.36h-.24c.07,.73,.15,1.53,.22,2.31,.13,.98,.39,1.92,.89,2.69-.41,.28-.45,.86-.73,1.76,.14-.39,.42-.02,.47,.21l-.47,.43c-.27,.52,.18,1.21,.44,1.69-.09,.09-.22,.11-.35,.14-.31,.46,.26,.48,.37,.66l-.33,.3,.33,.07c.19,.47,.11,1.09-.43,1.02,.1,.18,.2,.36,.36,.13-.31,.47-.31,1.74-.13,2.58,.13-.4,.3-.36,.63-.4,.57,.12-.11,.19,.22,.52-.21,0-.43,.39-.58-.02-.73,1.12-.14,2.68-.29,4.08,.09,.28,.18,.2,.33,.33-.57,.89,.03,1.97-.22,2.93,.24-.21,.9,.09,.91,.62,.46,.58-.65,.23-.93,.76,.22,.26,.28,.75,.25,.96l-.08-.02c.25,.32,.39,.82,.18,1.2l-.03-.06c-.04,.31-.34,.67-.3,1,.44,.15,.17,.94,.56,1.13-.05,.04-.08-.02-.18,.07l.37,.03-.21,.65c-.15-.14-.31-.17-.41-.35-.26,.69,.34,.23,.54,.6,.27,.48-.1,.45-.26,.69-.18-.2,.09-.35,.02-.47-.29-.28-.12,.29-.33,.3-.01,.1,.44,.15,.35,.5-.04,.31,.07,1.02-.33,.94,.21,.26,.17,.57,.35,.77,.07-.25,.18-.71,.43-.76,.05,.23,.16,.67-.01,.74l-.1-.18c.1,.18-.03,.84,.35,.5l-.52,.47c.31,.18,.29,.65,.36,1.04-.41,.02-.87-.3-.97,.43l.42,.62c.04,.34-.07,.36-.31,.33-.26,.85,1.06,1.06,.59,1.77-.42-.42-.5-.16-.72,.11,.08,.03,.23,.1,.21,.24,.24-.03-.28-.27,.1-.43,.32,0,.12,.34,.18,.52-.58,.18-.8,.63-1.02,1.16-.12,.26-.21,.54-.38,.78-.15,.24-.33,.46-.58,.58,.51,.31-.11,.49-.09,.78-.43-.49-.28,.53-.76,.43l.53,.35c-.36,.09-.38,.45-.45,.76-.07,.29-.17,.55-.54,.36-.39,.07-.15-.46-.1-.63-.38-.12-.54,.16-.74,.44-.18,.29-.41,.53-.73,.27,.06,.25,.38,.56,.07,.98-.45-.12-1.16-.19-1.14-.34-.23,.19-.26,.41-.6,.27,0-.17,.11-.23,.18-.32-.24-.01-.43,.06-.62,.16-.19,.1-.36,.28-.57,.41-.15-.24-.42-.28-.72-.3-.36-.03-.78-.04-1.11-.17Z"/><path class="cls-3" d="M707.77,55.61h0Z"/><path class="cls-3" d="M711.01,54.93l.09-.02c0-.11-.03-.07-.09,.02Z"/><path class="cls-3" d="M707.77,55.61c-.08,.05-.16,.11-.21,.19,.33,.16,.1-.13,.21-.19Z"/><path class="cls-3" d="M716.06,6.97c.35,0,.43-.11,.16-.33-.07,.12-.19,.19-.16,.33Z"/><path class="cls-3" d="M716.88,6.28s.04,.04,.06,.07c0-.04-.03-.06-.06-.07Z"/><path class="cls-3" d="M716.44,6.06c-.07,.35,.3,.18,.44,.22-.11-.12-.23-.23-.44-.22Z"/><path class="cls-3" d="M723.02,6.8c-.12,.37,.48-.15,.65,.05-.15-.28-.49-.07-.65-.05Z"/><path class="cls-3" d="M726.07,6.41l.09,.32c.15-.02,.34-.21,.16-.33-.11,.07-.16,.02-.25,0Z"/><polygon class="cls-3" points="732.06 52.48 731.94 52.76 732.19 52.69 732.06 52.48"/><path class="cls-3" d="M709.03,54.54c.05,.04-.05,.44,.28,.28-.39,.04,.01-.3-.28-.28Z"/></g><g><rect class="cls-2" x="692.85" y="12.45" width="36.53" height="36.53" rx="13.57" ry="13.57"/><g><path class="cls-3" d="M718.11,48.43c-.07,.07-.03,.24,.15,.19l.12-.28-.27,.09Z"/><path class="cls-3" d="M719.34,48.87c.2-.17,.4-.43,.24-.66-.17,.29-.23,.2-.42,.53-.18,.04-.32-.07-.3-.17-.06,.07-.28-.05-.37,.13,.24,.2,.55,.2,.84,0,.07,.05,.02,.13,0,.18Z"/><path class="cls-3" d="M729.77,36.2l-.03,.12s.03-.07,.03-.12Z"/><path class="cls-3" d="M729.92,25.06c0,.08,.03,.12,.06,.12-.02-.08-.03-.14-.06-.12Z"/><path class="cls-3" d="M730.19,23.12v.12s.02-.09,0-.12Z"/><path class="cls-3" d="M729.77,36.2l.09-.3c-.09-.02-.07,.15-.09,.3Z"/><path class="cls-3" d="M721.53,47.7c-.05,.03-.09,.07-.12,.12l.13-.08v-.04Z"/><path class="cls-3" d="M729.46,41.24l-.03,.09s.05,.07,.08,.11l-.05-.2Z"/><path class="cls-3" d="M727.69,44.78c.06-.07-.11-.23-.17-.31,.05,.1,.05,.18,.01,.25,.03,.03,.08,.05,.16,.07Z"/><path class="cls-3" d="M722.64,48.29s-.06,.05-.09,.07c.02-.02,.06-.05,.09-.07Z"/><path class="cls-3" d="M730,38.45s.07-.02,.09-.03c-.03,0-.06,.01-.09,.03Z"/><path class="cls-3" d="M713.74,47.89s0,.03,0,.04c.02-.02,.03-.04,0-.04Z"/><path class="cls-3" d="M718.11,49.04h-.06c0,.06-.01,.1-.01,.14l.07-.14Z"/><path class="cls-3" d="M729.72,19.37v.02c.06,.09,.04,.03,0-.02Z"/><path class="cls-3" d="M699.56,12.37c.44,.06-.48,.47,.14,.48-.09-.06,.36-.52-.14-.48Z"/><path class="cls-3" d="M721.63,47.7s.09-.04,.14-.05c-.06,.02-.11,.03-.14,.05Z"/><path class="cls-3" d="M699.71,12.85h0Z"/><path class="cls-3" d="M724,12.96s.01,.09,.03,.14c0-.02,0-.06-.03-.14Z"/><path class="cls-3" d="M728.34,17.59l-.05-.15c.01,.06,.03,.11,.05,.15Z"/><path class="cls-3" d="M720.77,12.09c-.08-.04-.1-.08-.22-.08,0,.01,.02,.02,.03,.04,.05-.02,.11-.02,.19,.04Z"/><path class="cls-3" d="M717.42,11.78s.04,.03,.06,.05h.1l-.16-.05Z"/><path class="cls-3" d="M703.95,47.99c.06,.07,.1,.14,.14,.22-.05-.17,.41-.21-.14-.22Z"/><path class="cls-3" d="M721.57,47.82c0-.06,.01-.1,.05-.13l-.09,.05s.01,.07,.04,.08Z"/><path class="cls-3" d="M720.25,13.86c-.14-.06-.3-.07-.45-.11,.12,.05,.29,.07,.45,.11Z"/><path class="cls-3" d="M693.8,32.06l.03,.12s0-.09-.03-.12Z"/><path class="cls-3" d="M718.44,13.64c-.08-.09-.17-.14-.26-.18-.02,.02-.04,.03-.05,.06l.31,.12Z"/><path class="cls-3" d="M704.09,48.21h0Z"/><path class="cls-3" d="M707.46,47.66c-.49,0-.23,.3-.33,.48-.58,.09-.27-.23-.47-.38-.36,.08-.64,.36-.92,.35-.02-.05-.07-.07-.01-.13-.39,.24-1.14,.01-1.59,.32-.03-.03-.05-.05-.06-.08,.07,.16,.08,.31,.07,.42-.21,0-.4,.17-.47-.03,.13,.01,.14-.07,.2-.13l-.22,.08c-.18-.3,.3-.08,.31-.3-.41,.06-.94,.31-1.26,.16-.01-.14,.18-.14,.32-.14,.15-.01,.24-.02,.04-.16l.49,.13c-.35-.46,.29,.05-.02-.45-.62-.1-.71,.07-1.33-.09-.17,.13,0,.23-.17,.37-.97,.03-.53-.83-1.25-.69-.22,.12-.42,.43-.8,.08l.28-.24c-.55-.27-.51,.27-1.02-.2,.16-.06,.49,.12,.42,.04-.26-.41-.35,.04-.65-.12l.08-.28c-.59-.29-1.31-.53-1.91-.99,.09-.03,.24-.02,.17-.2-.82-.48-1.35-1.45-1.7-2.25l-.38-.16c-.04-.07,.02-.18,.1-.13-.1-.34-.14,.06-.31-.03-.12-.16-.01-.29,.11-.22-.24-.21-.52-.56-.76-.95-.19-.4-.38-.82-.31-1.18l.1,.1c-.02-.51-.64-.43-.51-.95l.06,.08c-.12-1.1-.32-2.32,.04-3.26-.35-.17,.16-1.18-.33-1.25,.24-.68,.33-.48,.49-1.44,.02-.26-.31-.38-.36-.7h.26l-.27-.44,.31-.23-.07-.3c-.01,.12-.11,.25-.19,.23-.12-.46,.18-1.13,.31-1.14l-.22-1.09c.1,.02,.14,.21,.2,.35-.26-.58,.27-.11,.03-.64-.06,.07-.15-.04-.2-.05,.15-.27,.16-.87,.09-1.32l.18,.09c.04-.81-.08-1.71-.08-2.62-.08,.33-.39,.25-.42-.02l.27-.11c-.17-.17-.1,.28-.31-.07,.03-.34,.31-.23,.4-.03l-.09-.41c.08-.02,.12,.07,.23,.1-.17-.17,.27-.71-.02-.96l.08-.02c0-.94-.07-1.25-.03-1.93-.23-.04-.14-.29-.29-.53,.07-.25,.18-.5,.31-.75,.13-.25,.21-.53,.32-.81,.04-.43-.14-.18-.21-.41,.21,.04,.4-.53,.43-.18,.26-.68,.33-.86,.66-1.73-.13,.04-.22,.12-.25,.03,.06-.17,.28-.28,.35-.21v.05c.16-.52,.64-.93,1.14-1.24,.47-.34,.96-.57,1.12-1.01l-.02,.04,.54-.69c.33-.21-.1,.27,.21,.21,.28-.39,.6-.57,.91-.71,.32-.12,.62-.23,.92-.48,.4,.2,.84-.02,1.35-.17,.5-.19,1.05-.32,1.45-.19l-.06-.14c.18-.18,.25,.06,.4,.08-.03-.11-.23-.12-.11-.21,.82-.15,1.83-.08,2.79,.01,.97,.09,1.95,.22,2.92,.29,.7,.04,.4-.76,1.29-.41l-.25,.27c1.42-.33,2.9,.01,4.29-.27-.08,.06-.09,.15-.22,.14,.29,.2,1.09,0,1.09-.15,.22,.02,.05,.15,.18,.23,.29,.12,.74-.25,.9-.06,.03,.03-.08,.06-.14,.08,.19-.1,.89,.02,.71-.21,.52,.11,1.01-.11,1.41,.04,.26-.24,.8,.17,.91-.19-.06,.35,.78,.42,1.12,.29-.12,.09,.23,.18,.08,.3,.33,.08,.65,.09,.64-.11,.25,.28,.56,.33,.85,.35,.3,.02,.55,.08,.59,.42,1.01,.22,1.88,.68,2.66,1.22-.25,.24-.84-.61-1.04-.27,.39,.19,.74,.3,1.05,.48,.32,.16,.62,.36,.88,.73,.12,.2-.21,.01-.3,0,.17,.14,.33,.28,.48,.44,.13,.17,.25,.34,.38,.5,.26,.32,.44,.67,.74,.96-.03,.02-.11-.04-.17-.09,.09,.13,.14,.33,.28,.24l-.12-.11c.04-.17,.24-.1,.43,.02,.18,.12,.38,.29,.44,.27-.56-.03,.24,.78-.51,.64,.08,.08,.2,.16,.29,.1,.02,.16-.02,.23-.2,.13,.27,.48,.38,.24,.55,.72-.08,.02-.15-.06-.25-.08,.25,.18,.45,.4,.5,.84-.05-.01-.11,.05-.14-.07,.12,.35,.27,.64,.4,.95,.07,.16,.13,.32,.17,.49,.02,.18,.03,.37,0,.58-.37-.22-.1,.29-.41,.33,.04,.14,.07,.29,.1,.45l.15-.19c0,.41,.22,.77,.12,1.12l-.13-.3,.06,.76,.12-.43c.16,.41,.39-.04,.31,.5-.03-.11,0,.41-.19,.62h0c.1,.2,.2,.41,.13,.71-.1,.08-.34-.06-.41-.01,.26,.2,.07,.95,.35,1.2-.06-.08-.23-.09-.26-.06l.21,.17c-.07,.19-.1,.22-.23,.19-.04,.57,.39-.18,.22,.49-.02-.05-.05-.03-.08-.14-.09,.68,.13,1.31,.03,1.93-.31,.18-.08-.54-.34-.33,.06,.9,.37,1.85,.3,2.72l.03-.16c.44,.12-.22,.65,0,1.08-.03-.11-.24-.14-.2-.11-.07,.59,.11,1.21,.25,2.11l-.11-.11c-.1,.35-.06,.92-.11,1.3,.11,.11,.09,.33,.26,.2-.31,.6-.27,1.09-.2,1.63,.01,.52,.08,1.06-.33,1.47,.03-.12-.03-.29-.05-.2-.04,.28-.07,.56-.11,.84,.21,0,.14-.07,.33-.2,.09,.14,.1,.4,.02,.6,.01-.41-.29-.09-.45,.02,.06,0,.11,.07,.17,.08-.48,.3,.35,.21-.1,.7l-.08-.07c-.05,.23-.03,.48-.16,.69-.24,0,.01-.27-.14-.36-.13,.31,.07,.82-.3,.98,.02-.16,.14-.34,.15-.5-.4,.17-.36,.23-.53,.42l.02-.02c-.14,.14-.26,.29-.4,.42,.05-.02,.1-.05,.14-.08,.22,.67-.4,.78-.51,1.45,.11-.66-.09-.2-.25-.4-.15,.06-.36,.17-.37,.08-.04,.33-.4,.23-.48,.68-.07-.05-.22,.19-.31,0-.21,.28,.15,.05,.2,.14-.11,.28-.4,.45-.72,.59-.32,.15-.64,.33-.88,.68-.49,.49-.49,.77-1.02,1.18-.25-.02,.04-.35,.04-.35-.36,.05-.59,.15-.87,.35,.04-.09-.05-.12-.17-.17-.24,.1-.07,.35-.43,.33,.03-.1,.06-.26,.15-.39-.26,.17-.51,.37-.8,.53-.11-.12,.14-.26,.22-.37-.16,.07-.37,.16-.55,.26-.18,.08-.34,.18-.38,.3l.24,.04c-.13,.03-.1-.18-.01-.23,.27-.21,.44-.02,.48,.06l-.21,.11c.33,.39,.89-.27,1.31-.42l-.07,.39,.36-.44c.13,.05,.26,.2,.06,.33,.38,.04,.24-.21,.58-.15,.04,.01,.03,.03,.01,.06l.26-.24c-.03,.09,.15,.2-.06,.24,.64-.09,.76-.65,1.08-.55l-.03,.04c.66-.54-.06-.26,.31-.83,.23,.11,.46,.19,.7,.27l-.08-.26c.07-.04,.22-.13,.26-.03,.15-.33-.11-.06-.06-.3,.49-.05,.77-.82,1.13-.58-.02-.24-.39,.16-.16-.23,.41,.23,.3-.42,.7-.56,.09,.23-.25,.43,.16,.28-.06-.21,.08-.33,.25-.45,.16-.12,.37-.23,.44-.39-.23-.19,.33-.64,.5-1.17,.03,.04,.22-.15,.4-.42,.18-.27,.39-.61,.55-.82l.04,.03c-.24-.21-.01-.68,.06-1.05,.17,.07,.21,.16,.22,.38l.12-.34c-.06-.11-.09-.24-.06-.47l.2,.15c.11-.48,0-1,.22-1.59-.21-.06-.66,.38-.7-.26,.12,0,.32,0,.34,.16,0-.06-.07-.2,0-.31l.15,.28c.13-.26-.14-.16-.09-.38,.17,.02,.13-.15,.26-.11,.02,.06-.09,.19-.04,.28,.08-.24,.17-.54,.3-.64-.09,.02-.22-.01-.23-.2,.01-.48,.21-.16,.3-.44-.1-.12,0-.41-.24-.42,0-.13,.12-.16,.18-.21-.11-.24-.03-1.11-.29-.85l-.02,.06v-.04h-.01c-.24-.78,.14-1.63,.03-2.4h.08c-.09-.46-.06-1.03-.23-1.36,0-.14,.15-.32,.25-.26-.06-.35-.15-.39-.02-.91,.14,.36,.13-.12,.1,.36,.07-.46,.2-.56-.02-1.06,.21,.17,.26-.35,.2-.57l-.15,.32c-.03-.25-.01-.46,0-.68l.28,.12c.34-.94-.57-1.7,0-2.42-.19-.25-.14,.51-.36,.29,.04-.43,.43-.88,.43-1.02,.15-.59-.4-.55-.3-1.17-.1,.08-.36,.15-.45-.31,.04-.43,.41-.53,.49-.26,0,.1-.02,.15-.06,.15,.04,.14,.08,.32,.18,.15l-.1-.06c.1-.22,.09-.81,.25-.67-.09-.33-.16-.14-.21,.1,.14-.56,.02-.85,.08-1.47-.05,.1-.16,.19-.16,.1,.07-.89-.19-.38-.29-.96,.1-.35,.37,.08,.16-.5,.04-.38,.25-.12,.35,.02-.25-.53-.08-1.06-.13-1.4l.15,.27c-.09-.17-.13-.31-.16-.46l-.15,.22c-.01-.18-.05-.32,.03-.34-.17-.14-.27,.22-.54-.06,.02-.25-.34-.61-.12-.78,.17,.71,.22-.17,.47,.4-.07-.1-.12-.24-.15-.42,.02-.04,.06,0,.09,.04-.03-.76-.38-.2-.68-.86,.17,.02,.18-.27,.1-.37,.13,.27-.16,.23-.38,.05-.1-.47-.32-.39-.43-.6l.09,.26c-.18,0-.27-.21-.48-.45,.08-.09,.21,.2,.2,.08-.38-.16-.22-.81-.66-1.1-.06-.25,.2-.19,.13-.4-.51-.3-.26-.59-.78-.93-.03,.27,.04,.24-.4,.1,.27,.18,.5,.4,.76,.6l-.62-.26c.19,.21,.5,.36,.59,.51-.32-.11-.26-.12-.29,.09-.05-.48-.62-.46-.82-.88l.35-.35c-.37-.65-1.09-.62-1.75-1.21,.07,.07,.13,.14,.19,.23-.2,.09-.48-.27-.76-.35,.11-.13-.02-.27-.08-.43-.04,.1-.59-.31-.8-.05l-.27-.37c-.64-.36-.93,.13-1.55-.13,.25-.11-.02-.33,.46-.3-.22-.09-.42-.15-.45-.05-.11-.13-.67,.05-.84-.15-.11,.04-.17,.21-.42,.16-.02-.04,.02-.08,.02-.08-.02,.08-.41,.05-.22,.26-.61-.65-1.93-.13-2.48-.56-.47,.05-1.04,.11-1.48,.12,.03-.05,0-.08,.08-.06-.59-.15-.36,.47-1.04,.3-.34-.26,.36-.14,.14-.24-.09-.54-.81,.07-1.27-.24l.11-.03c-.35-.18-.85,.2-1.42,.17,0,0,.03-.05,0-.08-.39,.28-1.12,.37-1.67,.44,.17-.21,.25-.11,.14-.33-.24,.03,.07,.34-.42,.4-.16-.12-.51-.22-.56-.45h.46c-.24-.31-.6,0-.84-.05l.03-.13c-.71,.04-.72,.37-1.48,.34l.08,.1c-.41,.32-.35-.18-.76,.06l-.13-.33c-.27,.08-.96,.32-1.45,.38,.28-.24,.85-.37,1.21-.51-.27,0-.92,.02-1.06,.19,.11-.03,.25-.11,.36-.06-.33,.26-.77,.38-1.31,.38,.09-.63-1.39-.17-1.86-.62-1,.28-2.05,.14-3.2,.56,.56,.32-.33,.13-.08,.59-.24,.12-.34,.15-.38,.13-.3,0-.58,.04-.88,.07-.25-.05,.19-.22,.12-.31-.58,.23-.33-.08-.77-.02,.16,.12-.07,.33-.41,.46l.54-.05c-.58,.69-.88,0-1.45,.74l.13-.3c-.16,.17-.49,.42-.8,.71-.28,.31-.54,.65-.56,.94-.1,.01-.27-.02-.15-.18-.82,.74-1.24,2.04-1.82,2.63l-.06-.13c-.07,.19,.02,.41-.21,.56-.04-.04-.07-.13-.12-.05,0,.12-.04,.57-.21,.78l-.03-.26c-.32,.43-.37,.85-.39,1.24-.03,.39,.02,.77-.04,1.19-.18-.05-.34,.12-.49,.35-.13,.23-.21,.53-.28,.74l-.05-.02c-.14,.61-.05,1.14,.02,1.65,.09,.49,.22,.92,.29,1.44-.4,.64-.17,2.17-.39,3.2,.07-.16,.28,.03,.32,.21-.07,.24,.25,.67-.08,.63v-.09c-.32,.18-.24,.68-.24,1.07l.44,.06c-.64,1.01,.23,2.66-.34,3.21,.11,.24,.11,.55,.22,.79h-.24c-.06,.67-.09,1-.03,1.84l-.17-.17c-.01,.47,.68,.6,.69,1.03l-.35,.13c0,.41-.08,.82-.09,1.28-.02,.45,.01,.91,.25,1.32-.05,0-.16-.02-.19-.16,.03,.21,.02,.63,.1,.96,.09,.33,.21,.57,.43,.44-.15,.04-.1,.27,.02,.54,.14,.26,.36,.55,.51,.75h-.24c.41,.29,.49,.26,.81,.72,.03,.13-.12,.18-.14,0,.09,.45,.33,.22,.48,.73l-.23-.1c.22,.4,.27,.33,.54,.45,.21,.2,.41,.73,.29,.91,.14-.03,.42,.07,.53,.31-.04,.08-.14,.03-.18,0,.37,.68,.92,.67,1.13,1.18-.05,.06-.05,.11-.03,.16-.45-.4-.73-.8-.7-.77-.16,.14,.15,.54-.34,.44,.38,.21,1.12,.42,1.41,.8,0,.03,0,.06,0,.1l-.05-.02c.07,.09,.15,.14,.25,.17,.1,.12,.16,.2,.28,.29-.06,.17,.39,.43,.61,.56,.11-.2,.36,0,.21-.32,.02,.03-.06,0-.19-.08-.03-.02-.07-.04-.1-.04h.03c-.13-.1-.3-.22-.49-.36,.23,.02,.44,.06,.58,.32,.18-.05,.39-.12,.49-.14,.1,.43,.55,.94,.55,1.14,.37,.1,.77,.3,1.17,.38,.4,.08,.78,.12,1.06-.02,.21,0,.19,.18,.25,.27-.13,.01-.27-.03-.35,.01,.44,0,1.22,.29,1.38-.03,.49,.21-.34,.23,.38,.29l-.11,.08c.67,.38,1.3,.18,1.89,.03,.57-.18,1.15-.34,1.9-.02-.1-.04-.16-.06-.18-.11,1.71,.28,3.52-.26,5.2,.18,.48,.09,.53-.11,.82-.26l.1,.25,.5-.29c.71-.21,1.23,.62,2.12,.21l-.12-.17c.32,.03,1.02-.1,.97,.09,.03-.03,.11-.18,.23-.09v.13l.8-.22c.61,.09-.1,.52,.8,.55,.33-.05,.95-.38,.82-.47-.13,0-.34-.08-.35-.21l.3-.07c.06-.39,.29-.78-.46-1.05l-.52,.24-.17-.19h.44c-.25-.19-.41-.03-.58,.07-.04-.1-.11-.17-.22-.21l-.51,.37c-.06-.15,.23-.3-.11-.38-.24,.17,.23,.34-.17,.45-.25-.18-.18-.32-.47-.17-.04-.1,.02-.16,.14-.21-.26,.12-.69,.05-.82,.26-.26-.22-.88,.06-.85-.31-.08,.09-.46,.29-.7,.3,.44-.44-.89-.03-.78-.5-.32,.39-1.17,.17-1.74,.39,.03-.03,.09-.09,.15-.07-.32-.03-.42-.15-.62-.23-.04,.33-.54,.4-.81,.6-.39-.31,.24-.38,.12-.68,.02,.26-.69,.26-.55,.48-.3-.19-.26-.09-.42-.36-.05,.41-.28,.07-.53,.32-.44-.2-.11-.38-.59-.26-.23-.12,.2-.27,.2-.27Zm-10.33-1.92h0l.17,.14-.18-.14Zm-.66-.62c.06,.09,.16,.19,.27,.28-.03,.08-.12,.12-.18,.05,.07,0-.06-.18-.09-.33Zm.51,2.56c-.15-.07-.17-.14-.16-.19,.06,.04,.14,.09,.25,.15h.03s-.08,.04-.12,.04Z"/><path class="cls-3" d="M697.39,47.6s.04,.01,.06,.02l-.05-.1-.09,.03,.07,.05Z"/><path class="cls-3" d="M729.73,36.33v-.02s-.01,.03-.03,.04c.01-.01,.02-.01,.03-.02Z"/><polygon class="cls-3" points="693.92 33.13 693.86 33.13 693.91 33.22 693.92 33.13"/><path class="cls-3" d="M728.28,41.38s-.05,.01-.08,.04c.02,0,.05-.02,.08-.04Z"/><path class="cls-3" d="M727.28,43.32l-.23,.22c.11-.09,.18-.16,.23-.22Z"/><path class="cls-3" d="M726.22,44.61s.04,.07,.05,.09h0l-.06-.09Z"/><path class="cls-3" d="M727.06,18.49s-.03-.03-.04-.05c-.11-.1-.05-.03,.04,.05Z"/><path class="cls-3" d="M729.03,26.06c-.04-.09-.08-.17-.11-.27-.02,.15-.02,.26,.11,.27Z"/><polygon class="cls-3" points="720.3 13.87 720.3 13.87 720.25 13.86 720.3 13.87"/><path class="cls-3" d="M728.93,25.4c-.05,.15-.04,.27,0,.39,.02-.12,.04-.26,0-.39Z"/><path class="cls-3" d="M720.11,48.06h-.08s0,.03,0,.04l.08-.04Z"/><path class="cls-3" d="M720.03,48.1l-.08,.04s.07-.01,.08-.04Z"/><path class="cls-3" d="M719.77,48.23l.17-.09c-.06,0-.14,.01-.17,.09Z"/><path class="cls-3" d="M722.23,47.54v-.09s-.01,.05,0,.09Z"/><path class="cls-3" d="M722.82,47.23c-.15,.05-.43,0-.61,.15v.07c.05-.16,.53-.03,.61-.22Z"/><path class="cls-3" d="M725.81,46.47c-.17,.12-.33,.24-.51,.34,.14,0,.33,.01,.12,.2,.78-.28-.24-.04,.39-.54Z"/><path class="cls-3" d="M727.24,45.2c-.19,.28,.11,.08,.13,.13,.07-.22,.08-.28-.13-.13Z"/><path class="cls-3" d="M729.92,32.2l.21,.03c-.03-.25-.08,0-.21-.03Z"/><polygon class="cls-3" points="728.82 29.66 728.69 29.9 728.88 30.01 728.82 29.66"/><polygon class="cls-3" points="730.33 28.17 730.36 28.27 730.28 27.86 730.33 28.17"/><path class="cls-3" d="M717.99,11.58l.07,.26c.17-.04,.21-.34-.07-.26Z"/><path class="cls-3" d="M708.38,11.84c-.1-.13-.38-.21-.54-.09,.22,.02,.43,.12,.54,.09Z"/><polygon class="cls-3" points="691.82 30.58 691.73 30.39 691.8 30.75 691.82 30.58"/></g></g></g></g></g></g></svg>