<?xml version="1.0" encoding="UTF-8"?><svg id="_イヤー_2" xmlns="http://www.w3.org/2000/svg" viewBox="0 0 754 91"><defs><style>.cls-1{fill:#fff;}.cls-2{fill:#88c1d8;}.cls-3{fill:#95c8dc;}.cls-4{opacity:.8;}.cls-5{fill:#eda184;}</style></defs><g id="_イヤー_1-2"><g><g class="cls-4"><path class="cls-1" d="M753.78,28.08c.02,.43,.04,1.05,.05,1.42l-.05-1.42Z"/><path class="cls-1" d="M367.38,.15h.2c1.21-.04,.52-.03-.2,0Z"/><path class="cls-1" d="M262.52,.54s-.28-.08-1.08-.16c.22,.07,.64,.11,1.08,.16Z"/><path class="cls-1" d="M340.36,.9l-1.95-.05c.77,.03,1.4,.05,1.95,.05Z"/><path class="cls-1" d="M219.6,.87c-.54-.02-1.03-.03-2.01,0l.44,.05c.38-.04,.87-.06,1.57-.05Z"/><path class="cls-1" d="M219.6,.87c.25,0,.52,.02,.86,.03-.32-.02-.6-.02-.86-.03Z"/><path class="cls-1" d="M177.81,.9c.23,.02,.52,.05,.79,.07,.42,0,.92-.01,1.35-.02l-2.14-.05Z"/><path class="cls-1" d="M370.18,.3c.6,0,1.18-.01,1.7-.03-.71,0-1.27,.02-1.7,.03Z"/><path class="cls-1" d="M479.61,90.1c.29,0,.45-.01,.83-.03-.41-.03-.8-.06-1.2-.08-.24,.04-.49,.08-.71,.12,.36,0,.74,0,1.08,0Z"/><path class="cls-1" d="M185.39,.57l.98,.42c2.19-.07,2.65-.54-.98-.42Z"/><path class="cls-1" d="M58.42,1c-1.38-.21-4.96-.34-7.16-.14,2.85,.03,5.7,.19,7.16,.14Z"/><polygon class="cls-1" points="237.95 90.78 242.77 90.66 240.51 90.64 237.95 90.78"/><path class="cls-1" d="M.22,62.92c-.02-.43-.04-1.05-.05-1.42l.05,1.42Z"/><path class="cls-1" d="M386.62,90.85h-.2c-1.21,.04-.52,.03,.2,0Z"/><path class="cls-1" d="M491.48,90.46s.28,.08,1.08,.16c-.22-.07-.64-.11-1.08-.16Z"/><path class="cls-1" d="M413.64,90.1l1.95,.05c-.77-.03-1.4-.05-1.95-.05Z"/><path class="cls-1" d="M534.4,90.13c.54,.02,1.03,.03,2.01,0-.14-.01-.27-.03-.44-.05-.39,.04-.87,.06-1.57,.05Z"/><path class="cls-1" d="M534.4,90.13c-.25,0-.52-.02-.86-.03,.32,.02,.6,.02,.86,.03Z"/><path class="cls-1" d="M576.19,90.1l-.79-.07c-.42,0-.92,.01-1.35,.02l2.14,.05Z"/><path class="cls-1" d="M754,15.27c-.05,.18-.09,.21-.13,.12-.08-2.3-.13-4.1,.06-5.48l.03,.66c-.09-5.29-.18-5.73-.31-5.7-.06,.01-.13,.12-.21-.13l.02-.29,.02-.29,.02-.49c.01-.35,.03-.71,.04-1.07,.02-.74,.05-1.52,.07-2.34-.76-.02-1.58-.03-2.48-.05-.69,0-1.43-.01-2.25-.02-1.2,0-2.62,.03-4.37,.1l3.34-.25c-5.43,.15-20.02,0-25.34,.64-.96-.09-2.23-.31,.16-.37-12.97-.1-28.87,.69-38.95,.29l.98-.2c-2.42,.06-4.21,.37-7.24,.17,.16-.08,.97-.2-.15-.21-1.28,.07-6.43,.35-9.63,.23l2.74-.22c-11.01-.22-17.56,.35-26.06,.59-.93,.02-1.87,.04-2.82,.06-.38,0-.75,.01-1.14,.02,.03-.58-9.93-.77-14.89-.86l.17-.08c-14.73-.07-25.02,.48-38.66,.71-8.47-.63-28.68-.26-42.29-.62,2.08,.11-.34,.45-2.76,.51-3.19-.12-8.83,.4-8.32-.13h1.14c-2.41-.51-8.97-.37-14.09-.39l-.85,.7c-5.79-.44-13.12-.43-20.18-.35-4.03-.08-7.8,.01-11.39,.13-3.88,.02-7.23-.01-9.6-.2l.82-.02,1.41-.05-2.36,.05c-.41-.03-.79-.07-1.14-.11-3.23,.17-7.24,.17-10.45,.35l.17-.37c-8.96-.1-13.44-.14-24.51-.05L444.9,0c-3.93-.01-6.04,.41-8.49,.74-2.66-.05-4.97-.11-3.88-.26-3.7,.13-2.42,.23,.03,.3-.86-.02-1.67-.04-2.46-.05l-.6-.19c-10.9,0-21.93-.48-32.71,.02,.05-.02,.12-.06,.24-.09,.46-.04,.94-.07,1.34-.1-.35,.02-.69,.02-1.04,.03,.32-.05,.84-.1,1.73-.11-3.18,0-10.05-.15-14.36-.08-1.15-.05-2.21-.09-3.14-.1L385.19,0c-2.17,.08-3.95,.07-5.76,.07l2.06,.31h0c-2.12-.05-3.92-.05-3.88-.18-.83,.08-.79,.17-.66,.27-2.2,.02-4.99,.1-7.66,.19-.18-.12-1.43-.29,.88-.36-1.09,0-2.3,0-3.68-.04-.32-.05,.3-.09,.89-.11-8.55-.37-3.93,.47-12.79,.46,1.13-.23-2.06-.44-3.5-.39,3.57,0,1.71,.39-1.57,.57-5.68-.18-6.18,.14-9.15,.11l1.59,.04c-2.18,.03-2.69,.13-4.39,.29-.56,0-1.14,.02-1.75,.03-.34-.18,3.6-.13,2.18-.21-4.4,.41-9.94-.43-16.07-.15-2.84-.16-.28-.44-2.77-.55-5.48,.24-6.96-.1-10.98-.13,.29-.05,.74-.11,1.44-.18-1.04,.05-2.25,.12-3.56,.2-.49,0-1.01,.02-1.57,.04,.08,.01,.15,.02,.22,.03-1.79,.1-3.72,.19-5.67,.27v-.05c-3.67-.15-6.99-.1-10.47,0-.23,0-.45,.01-.68,.02-.45,.01-.89,.03-1.35,.04-1.81-.05-3-.09-4.76-.1-.7-.28-6.94-.15-9.95-.17,.25,.37-3.6,.31-.11,.61-.09-.02,.93-.04,2.68-.05,.45-.01,.97-.02,1.27-.04h0c-.06,0-.13,.02-.2,.03h.89c-.32,.06-.83,.1-1.45,.12-.05,0-.1,0-.16,0l-.12,.02c-2.3,.06-5.99-.06-8.69,.03,.33-.26-1.91-.35-3.44-.52,.09,.09-1.82,.09-3.92,.13-.6-.06-1.04-.11-1.24-.17-9.16,.21-21.55,.14-27.38,.82,1.94-.26-1.36-.44,4.14-.63-2.87,0-5.45-.05-5.49,.13-1.68-.16-7.96,.35-10.59,.1-.49,.05-.85,.12-1.31,.19-1.17,.04-2.13,.1-2.76,.18-.24,0-.47,0-.75,0-.22-.03-.16-.07-.08-.1-.27,.05-1.14,.08-1.87,.13-1.85-.18,4.28-.33-3.36-.27l1.22-.15c-9.98-.43-17.87,0-26.35,.3-1.55-.04-2.97-.11-4.17-.22-5.72,.06-12.5,.12-17.96,.18-.1,0-.2,0-.3-.01,.11,0,.18,0,.28,.01-.51,0-1.02,0-1.51,.01,.36-.08,.02-.13,1.09-.1-3.13-.1-4.53,0-5.65,.14-1.91-.01-3.82-.02-5.74-.02-.08,0-.23-.02-.46-.03-1.24-.86-10.77,.12-16.77-.38l1.45-.05c-4.59-.29-11.2,.32-18.69,.26,0,0,.36-.08,.04-.13-2.07,.18-4.9,.31-8.01,.4-4.18-.04-8.34-.11-12.42-.23-5.74-.13-6.84,.12-9.87,.34-.73-.06-1.39-.12-1.89-.19l-.48-.14h-.17c-.08-.01-.14-.03-.18-.06l6.09-.02c-3.12-.47-7.88,.02-11.09-.07l.41-.21c-7.64,.05-9.12,.41-14.92,.52-4.28-.2-8.87-.36-14.66-.06l-.59-.19c-2.18,.08-6.33,.24-10.7,.38-.1-.02-.15-.04-.08-.07-.16,.02-.43,.06-.75,.1-.62,.02-1.23,.04-1.85,.06-.16,0-.29,0-.46-.02l-.13-.2c3.59-.18,7.77-.31,10.78-.46-3.59,0-12.18,.04-14.05,.3,1.44-.05,3.26-.18,4.69-.1-3.51,.33-7.91,.52-13.17,.58-5.74-.2,1.84-.8-9.26-.83-1.69,.03-3.94,.13-5.97,.24-1.53,0-3.07-.02-4.59-.03v.38c-.53,.07-.7,.12-.31,.15,.1,0,.2,0,.31,0v.36l-.46,.11h.46v.1h-.46v.38c-.25,.17-.36,.34,0,.49V42.94c-.02,2.28-.03,4.6-.02,6.98l-.08-.37,.08,1.08c0,.28,0,.55,0,.83,0-.06,.02-.11,.03-.17v5.91c-.08-.19-.14-.78-.18-2-.27,4.51,.19,3.99-.11,7.87-.05,.43-.07,.23-.09-.16l.16,4.41c-.11-.86-.38,.73-.3-1.97-.14,3.53-.07,6.41,0,8.83-.03,.39-.06,.88-.09,1.55,.05-.18,.09-.21,.13-.12,.08,2.3,.13,4.1-.06,5.48l-.03-.66c.09,5.29,.18,5.73,.31,5.7,.06-.01,.13-.12,.21,.13l-.02,.29-.02,.29-.02,.49c-.01,.35-.03,.71-.04,1.07-.02,.74-.05,1.52-.07,2.34,.76,.02,1.58,.03,2.48,.05,.69,0,1.43,.01,2.25,.02,1.2,0,2.62-.03,4.37-.1l-3.34,.25c5.43-.15,20.02,0,25.34-.64,.96,.09,2.23,.31-.16,.37,12.97,.1,28.87-.69,38.95-.29l-.98,.2c2.42-.06,4.21-.37,7.24-.17-.16,.08-.97,.2,.15,.21,1.28-.07,6.43-.35,9.63-.23l-2.74,.22c11.01,.22,17.56-.35,26.06-.59,.93-.02,1.87-.04,2.82-.06,.38,0,.75-.01,1.14-.02-.03,.58,9.93,.77,14.89,.86l-.17,.08c14.73,.07,25.02-.48,38.66-.71,8.47,.63,28.68,.26,42.29,.62-2.08-.11,.34-.45,2.76-.51,3.19,.12,8.83-.4,8.32,.13h-1.14c2.41,.51,8.97,.37,14.09,.39l.85-.7c5.79,.44,13.12,.43,20.18,.35,4.03,.08,7.81-.01,11.4-.13,3.87-.02,7.22,.01,9.6,.2l-.82,.02-1.41,.05,2.36-.05c.41,.03,.79,.07,1.14,.11,3.23-.17,7.24-.17,10.45-.35l-.17,.37c8.96,.1,13.44,.14,24.51,.05l-2.26,.27c3.93,.01,6.04-.41,8.49-.74,2.66,.05,4.97,.11,3.88,.26,3.7-.13,2.42-.23-.03-.3,.86,.02,1.67,.04,2.46,.05l.6,.19c10.9,0,21.93,.48,32.71-.02-.05,.02-.12,.06-.24,.09-.46,.04-.94,.07-1.34,.1,.35-.02,.69-.02,1.04-.03-.32,.05-.84,.1-1.73,.11,3.18,0,10.05,.15,14.36,.08,1.15,.05,2.21,.09,3.14,.1l-3.63,.13c2.17-.08,3.95-.07,5.76-.07l-2.06-.31h0c2.12,.05,3.92,.05,3.88,.18,.83-.08,.79-.17,.66-.27,2.2-.02,4.99-.1,7.66-.19,.18,.12,1.43,.29-.88,.36,1.09,0,2.3,0,3.68,.04,.32,.05-.3,.09-.89,.11,8.55,.37,3.93-.47,12.79-.46-1.13,.23,2.05,.44,3.5,.39-3.57,0-1.71-.39,1.57-.57,5.68,.18,6.18-.14,9.15-.11l-1.59-.04c2.18-.03,2.69-.13,4.39-.29,.56,0,1.14-.02,1.76-.03,.34,.18-3.6,.13-2.18,.21,4.4-.41,9.94,.43,16.07,.15,2.84,.16,.27,.44,2.77,.55,5.48-.24,6.96,.1,10.98,.13-.29,.05-.74,.11-1.44,.18,1.04-.05,2.25-.12,3.56-.2,.49,0,1.01-.02,1.57-.04-.08-.01-.15-.02-.22-.03,1.79-.1,3.72-.19,5.67-.27v.05c3.67,.15,6.99,.1,10.47,0,.23,0,.45-.01,.68-.02,.45-.01,.9-.03,1.35-.04,1.8,.05,2.99,.09,4.76,.1,.7,.28,6.94,.15,9.95,.17-.25-.37,3.6-.31,.11-.61,.09,.02-.93,.04-2.68,.05-.45,.01-.97,.02-1.27,.04h0l.2-.03h-.89c.32-.06,.83-.1,1.45-.12,.05,0,.1,0,.16,0l.12-.02c2.3-.06,5.99,.06,8.69-.03-.33,.26,1.91,.35,3.44,.52-.09-.09,1.82-.09,3.92-.13,.6,.06,1.04,.11,1.24,.17,9.15-.21,21.54-.14,27.38-.82-1.93,.26,1.36,.44-4.13,.63,2.87,0,5.45,.05,5.49-.13,1.68,.16,7.96-.35,10.59-.1,.49-.05,.85-.12,1.31-.19,1.17-.04,2.12-.1,2.76-.18,.24,0,.47,0,.75,0,.22,.03,.16,.07,.08,.1,.27-.05,1.14-.08,1.87-.13,1.85,.18-4.28,.33,3.36,.27l-1.22,.15c9.98,.43,17.87,0,26.35-.3,1.55,.04,2.97,.11,4.17,.22,5.72-.06,12.5-.12,17.96-.18,.1,0,.2,0,.3,.01-.11,0-.18,0-.28-.01,.51,0,1.02,0,1.51-.01-.36,.08-.02,.13-1.09,.1,3.13,.1,4.53,0,5.65-.14,1.9,.01,3.82,.02,5.74,.02,.08,0,.23,.02,.46,.03,1.24,.86,10.77-.12,16.77,.38l-1.45,.05c4.59,.29,11.2-.32,18.69-.26,0,0-.36,.08-.04,.13,2.07-.18,4.9-.31,8.01-.4,4.18,.04,8.34,.11,12.42,.23,5.74,.13,6.84-.12,9.87-.34,.73,.06,1.39,.12,1.89,.19l.48,.14h.17c.08,.01,.14,.03,.18,.06l-6.09,.02c3.12,.47,7.88-.02,11.09,.07l-.41,.21c7.64-.05,9.12-.41,14.92-.52,4.28,.2,8.87,.36,14.66,.06l.59,.19c2.18-.08,6.33-.24,10.7-.38,.1,.02,.15,.04,.08,.07,.16-.02,.43-.06,.75-.1,.62-.02,1.23-.04,1.85-.06,.16,0,.29,0,.46,.02l.13,.2c-3.59,.18-7.77,.31-10.78,.46,3.58,0,12.18-.04,14.05-.3-1.44,.05-3.26,.18-4.69,.1,3.51-.33,7.91-.52,13.17-.58,5.74,.2-1.84,.8,9.26,.83,1.69-.03,3.94-.13,5.97-.24,1.53,0,3.07,.02,4.59,.03v-.38c.53-.07,.7-.12,.31-.15-.1,0-.2,0-.31,0,0-.12,0-.24,0-.36l.46-.11h-.46s0-.06,0-.1h.46v-.38c.25-.17,.36-.34,0-.49V48.06c.02-2.28,.03-4.6,.02-6.98l.08,.37-.08-1.08c0-.28,0-.55,0-.83,0,.06-.02,.11-.02,.17v-5.91c.08,.19,.14,.78,.18,2,.27-4.51-.19-3.99,.11-7.87,.05-.43,.07-.23,.09,.16l-.16-4.41c.11,.86,.38-.73,.3,1.97,.14-3.53,.07-6.41,0-8.83,.03-.39,.06-.88,.09-1.55ZM366.35,.77c-.31,.01-.6,.02-.89,.03-.06-.02-.12-.03-.16-.05,.39,0,.73,.01,1.06,.01Zm-55.78,.04c-.19-.04-.47-.08-.78-.12l3.91-.07-3.14,.19Zm-1.5,.09l-2.99,.18c3.59,0,7.57-.2,9.71-.14-.17,.01-.33,.02-.48,.03-6.77,0-10.89,.42-16.34,.12-.01-.01-.04-.02-.06-.03l.04-.19c4.31,0,8.03,.02,10.11,.03Zm-31.08-.48c2.01-.05,2.68,.02,2.95,.1-.95,.01-2.05,.03-3.51,.04l-.24,.05c.19-.07,.41-.14,.79-.19ZM48.59,1.42c-.17,0-.35,0-.53,0l-.64-.2,1.17,.2ZM.6,64.24v2.6c-.02-.63-.04-1.29-.06-2.01,.02-.27,.04-.45,.06-.59Zm387.05,25.99c.31-.01,.6-.02,.89-.03,.06,.02,.12,.03,.16,.05-.39,0-.74-.01-1.06-.01Zm55.78-.04c.19,.04,.47,.08,.78,.12l-3.91,.07,3.14-.19Zm1.5-.09l2.99-.18c-3.59,0-7.57,.2-9.71,.14,.17-.01,.33-.02,.48-.03,6.77,0,10.89-.42,16.34-.12,.01,.01,.04,.02,.06,.03l-.04,.19c-4.31,0-8.03-.02-10.11-.03Zm31.08,.48c-2.01,.05-2.68-.02-2.95-.1,.95-.01,2.05-.03,3.51-.04l.24-.05c-.19,.07-.41,.14-.79,.19Zm229.41-1.01c.17,0,.35,0,.53,0l.64,.2-1.17-.2Zm47.99-62.82v-2.6c.02,.63,.04,1.29,.06,2.01-.02,.27-.04,.45-.06,.59Z"/><path class="cls-1" d="M383.82,90.7c-.6,0-1.18,.01-1.7,.03,.71,0,1.27-.02,1.7-.03Z"/><path class="cls-1" d="M274.39,.9c-.29,0-.45,.01-.83,.03,.41,.03,.8,.06,1.2,.08,.24-.04,.49-.08,.71-.12-.36,0-.74,0-1.08,0Z"/><path class="cls-1" d="M568.61,90.43l-.98-.42c-2.19,.07-2.65,.54,.98,.42Z"/><path class="cls-1" d="M695.58,90c1.38,.21,4.95,.34,7.16,.14-2.85-.03-5.7-.19-7.16-.14Z"/><polygon class="cls-1" points="516.05 .22 511.23 .34 513.49 .36 516.05 .22"/></g><g><g><path class="cls-3" d="M712.79,11.07h0Z"/><path class="cls-3" d="M708.31,12.02l-.13,.03c0,.15,.05,.09,.13-.03Z"/><path class="cls-3" d="M695.72,11.93s-.01,0-.02-.01l-.05,.02s.04,0,.07,0Z"/><path class="cls-3" d="M712.79,11.07c.11-.08,.22-.15,.29-.26-.45-.22-.14,.17-.29,.26Z"/><path class="cls-3" d="M694.15,78.97c.14,.02,.25,0,.34-.05-.07-.02-.16-.01-.34,.05Z"/><path class="cls-3" d="M701.1,78.71c.1-.17,.26-.26,.23-.45-.49,0-.59,.15-.23,.45Z"/><path class="cls-3" d="M700.2,79.2s-.05-.06-.08-.09c0,.06,.04,.08,.08,.09Z"/><path class="cls-3" d="M700.2,79.2c.15,.17,.31,.31,.61,.31,.09-.48-.41-.25-.61-.31Z"/><path class="cls-3" d="M690.83,78.42c.2,.39,.68,.1,.89,.07,.17-.52-.67,.2-.89-.07Z"/><path class="cls-3" d="M687.16,79.03c.16-.1,.21-.03,.35-.01l-.13-.44c-.21,.03-.48,.29-.23,.45Z"/><polygon class="cls-3" points="679.24 15.4 679.41 15.01 679.06 15.11 679.24 15.4"/><path class="cls-3" d="M710.65,12.18c.54-.05-.02,.42,.39,.38-.08-.05,.06-.6-.39-.38Z"/><path class="cls-3" d="M720.99,79.07s.01,0,.02,.01l.05-.02s-.04,0-.07,0Z"/><path class="cls-3" d="M722.56,12.03c-.14-.02-.25,0-.34,.05,.07,.02,.16,.01,.34-.05Z"/><path class="cls-3" d="M747.31,59.67c.05-.82,.11-1.64,.17-2.47,.24-1.61,.59-3.29,.31-4.95,.14-2.74,.18-5.5-.05-8.27-.05,.09-.11,.13-.17,.15-.04-1.39-.41-2.88,.02-4.1-.1,.06-.17,.08-.25,.1-.02-.65-.03-1.31-.05-1.95l.03,.33,.06-.43s-.06-.04-.09-.05c-.02-.98-.02-1.97,0-2.96,.04-.24,.08-.5,.13-.79-.08-.47-.34-.73-.48-1.07-.01-.25,0-.52-.08-.72,0-.03,0-.06,0-.09,.77-.57,.03-1.9,.31-2.8-.15,.05-.3,.03-.43-.05,.12-.39,.31-.83,.62-1.48,.08-1.04,.13-2.07,.18-3.1,.02-.51,.05-.98,.02-1.74-.01-.69-.04-1.38-.15-2.07-.34-2.75-1.3-5.39-2.72-7.69-2.83-4.62-7.53-7.79-12.73-8.76-.66-.11-1.32-.18-1.99-.18l-.98-.02-.74,.02-2.94,.11c-1.96,.1-3.92,.19-5.88,.29-3.93,.21-7.88,.43-11.91,.54-.67,.64-1.47,.78-2.29,.93-1.13-.04-2.48-.08-3.81-.27-.45-.06-.69,.07-.89,.25-.14-.05-.29-.1-.45-.15-.01,.28-.28,.24-.38,.39v-.15c-.3,.1-.5,.27-.67,.46-.18-.18-.38-.4-.6-.52,.04-.06,.08-.11,.11-.16-.58-.12-1.16,.24-1.67,.42,.03-.27,.11-.8-1.3-1.17-1.8,.13-3.63,.38-5.44,.53-1.3,.14-2.49,.14-3.9,.15,.22-.19,.42-.39,.59-.57,.54-.6,.78-1.12,.78-1.12-1.78,.21-3.44,.58-5.05,1.1-1.59,.55-3.09,1.27-4.54,2.14-1.89,1.19-3.67,2.69-5.2,4.58-.09,.07-.17,.14-.24,.18,0,.05,0,.09,0,.13-.67,.87-1.29,1.8-1.84,2.84-.17,.59-.35,1.22-.47,1.89l-.07-.06c-.2,.62-.43,1.23-.57,1.88-.16,.64-.32,1.29-.4,1.96l-.14,1-.06,1.02c-.01,.32-.04,.72-.04,.98v.8c.01,2.13,.09,4.27,.38,6.38-.05,.82-.11,1.64-.17,2.47-.24,1.61-.59,3.29-.31,4.95-.14,2.74-.18,5.5,.05,8.27,.05-.09,.11-.13,.17-.15,.04,1.39,.41,2.88-.02,4.1,.1-.06,.17-.08,.25-.1,.02,.65,.03,1.31,.05,1.95-.01-.11-.02-.21-.03-.33l-.06,.43s.06,.04,.09,.05c.02,.98,.02,1.97,0,2.96-.04,.24-.08,.5-.13,.79,.08,.47,.34,.73,.48,1.07,.01,.25,0,.52,.08,.71,0,.03,0,.06,0,.09-.77,.57-.03,1.9-.31,2.8,.15-.05,.3-.03,.43,.05-.12,.39-.31,.83-.62,1.48-.08,1.04-.13,2.07-.18,3.1-.02,.51-.05,.98-.02,1.74,.01,.69,.04,1.38,.15,2.07,.34,2.75,1.3,5.39,2.72,7.69,2.83,4.62,7.53,7.79,12.73,8.76,.66,.11,1.32,.18,1.99,.18l.98,.02,.74-.02,2.94-.11c1.96-.1,3.92-.2,5.88-.29,3.93-.21,7.88-.43,11.91-.54,.67-.64,1.47-.78,2.29-.93,1.13,.04,2.48,.08,3.81,.27,.45,.06,.69-.07,.89-.25,.14,.05,.29,.1,.45,.15,.01-.28,.28-.24,.38-.39v.15c.3-.1,.5-.27,.67-.46,.18,.18,.38,.4,.6,.52-.04,.06-.08,.11-.11,.16,.58,.12,1.16-.24,1.67-.42-.03,.27-.11,.8,1.3,1.17,1.8-.13,3.63-.38,5.44-.53,1.3-.14,2.49-.14,3.9-.15-.22,.19-.42,.39-.59,.57-.54,.6-.78,1.12-.78,1.12,1.78-.21,3.44-.58,5.05-1.1,1.59-.55,3.09-1.27,4.54-2.14,1.89-1.19,3.67-2.69,5.2-4.58,.09-.07,.17-.14,.24-.18,0-.05,0-.09,0-.13,.67-.87,1.29-1.8,1.84-2.84,.17-.59,.35-1.22,.47-1.89l.07,.06c.2-.62,.43-1.23,.57-1.88,.16-.64,.32-1.29,.4-1.96l.14-1,.06-1.02c.01-.32,.04-.72,.04-.98v-.8c-.01-2.13-.09-4.27-.38-6.38Zm-38.63-48.17h0Zm-11.36,.09c-.1,.02-.21,.05-.34,.08,.13-.06,.24-.1,.34-.08Zm10.7,67.9h0Zm11.36-.09c.1-.02,.21-.05,.34-.08-.13,.06-.24,.1-.34,.08Zm9.17-.96c-.51,.83-1.47-.33-1.54,.74,.02-.11-.09-.25-.15-.32-.34,.31-.61,1-1.04,1.05l.14-.7c.1-.89-1.22-.18-1.35-.62,.37,.6-.49,0-.52,.53l-.51,.23c-.81,.18-.1,.35-1.09,.45-.57,.04-.19-.81,0-.73-.48-.37-.96-.16-1.45,0,.18,0,.24,.05,.07,.2-.01-.09-.06-.15-.12-.19-.18,.06-.37,.11-.55,.11,0-.02,0-.02,0-.04,.2-.04,.39-.08,.53-.09-.13-.07-.32-.07-.52-.07-.02-.05-.08-.04-.15,0-.17-.01-.32-.04-.42-.15l.14-.55c-.35-.03-1.31,.6-1.28,.84-1.37-.47-3.62-.07-4.54,.23,.18-.13,.2-.3,.02-.12-.47,.11-1,.58-1.05,.22-.46,.23-.43-.38-1.13-.43-.01-.09-.07,.3,0,.44-.76-.46-1.65-.11-2.56,.07,0-.01,.01-.01,.02-.02-.04,0-.05,.02-.09,.03-.19,.04-.39,.06-.58,.07-.2-.17-.4-.38-.66-.12-.04-.04-.04-.1-.04-.15,.08-.12,.17-.27,.24-.37-.06,.01-.12,.03-.17,.04,0-.07-.04-.13-.18-.15-.06,.07-.08,.14-.1,.22-.51,.13-1,.27-1.48,.46-.52,.1-1.1,.33-1.17,.59h0c.1-.25,.07-.48,.33-.62-.6,0-1.27,.11-1.7,.4,.02-.01,.05-.02,.1-.01,.19,.17,.19,.35,.09,.49-.21,.15-.45,.28-.72,.38-.11,.01-.21,.02-.3,0v-.12c-.67,.01-.79,.24-1.3,.31-.05,0-.09,0-.14,0h0s-.08,.02-.13,.02c-.45-.31,.39-.15,.21-.5-.05-.24-.2-.38-.39-.47,.44-.78,2.18-.82,2.57-.34,.86-.84-.68-.1-.52-.92-.78,.07-1.14,.49-2.35,.62,0,.29,.18,.41,.11,.57-.52-.16-1.21-.05-1.31-.11-.06,.07-.14,.13-.21,.2-.16-.23-.26-.47-.37-.49,.16-.1,.37-.13,.53-.22-.71-.29-.96,.28-1.72,.23-.21-1.12,1.21-.13,1.48-.82l-.54-.8c-1.16-.11-.32,.92-1.51,.63l.15-.4-.75,.25c-.01,.42,.15,1.05,.79,.96-.42,1.08-.59,.15-1.61,.37-.33,.62,.43-.06,.45,.55,.03,.19-.03,.31-.14,.4-.1,.04-.2,.09-.29,.14-.21,.06-.46,.09-.68,.14-.84,0-.43-.66-.77-1.07,.16-.1,.8-.19,.73,.17,1.03-.63-.45-1.28,.27-1.71-.79-.36-.76,.37-1.18,.57,.25,.07-.11,.61,.07,.83-1.37,1.67-.88-1.21-2.19-.92,.18,.7-.63,1.12-.94,1.66-.38-.03-.79-.08-1.18-.15l.55-.66c-.53-.5-1.41-.99-1.7-1.33-.69,.32,.22,.7-.59,.87,.28-.38-.21-.69-.57-.68,.71,.28,.01,1.03-.44,1.21-.35,0-.68-.16-.88-.35-.16-.2-.24-.42-.2-.5,.09-.1,.15-.19,.25-.3l.34-.31c-.51,.53-.27-.27-.63-.07-.11,.39-.37,1-.54,1.51-.37,.18-.55-.42-.67-.34,.2-.12,.38-.21,.57-.36-.69,.08-.02-1.12-.69-.94l-.27,.53c-.12-.1-.12-.38,.03-.55-.17,.37-.52,.18-.71,.28l.05-.37c-.31,.2-.92,.8-1,0-.05,.93,.31,.14,.66,.68,.06,.36-.1,.48-.3,.51-.2,.01-.43-.07-.5-.04,.17-.45,0-.53-.26-.53-.26,0-.61,.04-.78-.05-.05-.41-.14-.62-.15-.87l-.42,.47c.5-1.14-.78-.13-.91-.75,.39-.17,.62-.6,.52-.91-.21,.98-1.17,.53-1.46,1.05-.37-.8,.86-.76,1.08-1.42-.69,.27-.27-.84-1.02-.38,.15,.6-.45,.35-.81,.53-.42-.59,.36-.19,.27-.78-.28-.11-1.03-.02-.95,.54-.08-.47-1.09-.34-.89-1.1,.34-.47,.7,.61,.87,.14-.36-.62-.93-.16-1.47-.15-.13-.05-.27-.07-.4-.11-.07-.04-.15-.09-.22-.17,0,.02-.01,.04-.02,.06-.1-.08-.18-.19-.22-.38-.05-.13-.02-.38,.03-.53,.17,.02,.34,.06,.51,.11,.47,.13,.9,.23,1.13-.21l-.47-.25c.29-.03,.78-.14,.94-.42-.32,.11-.47-.1-.55-.33-.06-.24-.05-.49-.14-.5-.55,.12,.27,.26-.17,.36-.28-.36-1.29-.27-1.11-1.12,.48,.29,.71-.35,1.06-.27,.15-.38-.69,.06-.48-.49l.34-.02c-.1-.99-.2-2.1-.31-3.18-.17-1.35-.53-2.65-1.22-3.72,.57-.39,.61-1.19,1.01-2.43-.19,.54-.58,.02-.65-.29l.65-.59c.38-.72-.24-1.67-.61-2.33,.13-.12,.3-.15,.48-.19,.43-.64-.37-.67-.51-.91l.46-.42-.45-.09c-.26-.64-.15-1.5,.59-1.41-.14-.25-.28-.5-.49-.18,.43-.64,.43-2.4,.18-3.56-.19,.55-.41,.5-.87,.55-.78-.17,.15-.26-.31-.72,.29-.01,.59-.54,.8,.03,1-1.54,.2-3.7,.4-5.64-.12-.39-.25-.27-.46-.46,.79-1.22-.04-2.72,.3-4.04-.33,.3-1.24-.12-1.26-.86-.64-.8,.9-.32,1.29-1.04-.3-.36-.38-1.04-.34-1.32l.11,.02c-.34-.44-.54-1.14-.24-1.66l.04,.08c.06-.43,.46-.93,.41-1.38-.6-.2-.23-1.3-.77-1.56,.07-.06,.11,.03,.24-.09l-.51-.04,.29-.89c.2,.19,.42,.24,.56,.49,.35-.95-.47-.32-.75-.82-.37-.67,.14-.63,.35-.95,.26,.27-.12,.49-.03,.65,.41,.38,.16-.4,.46-.42,.02-.14-.6-.2-.48-.69,.06-.42-.1-1.41,.46-1.29-.3-.36-.24-.79-.49-1.06-.1,.34-.25,.97-.6,1.05-.07-.31-.22-.93,.02-1.03l.14,.25c-.14-.25,.03-1.16-.49-.69l.72-.65c-.43-.24-.4-.9-.5-1.43,.57-.02,1.21,.41,1.34-.59l-.58-.86c-.06-.46,.1-.49,.42-.45,.36-1.17-1.47-1.46-.81-2.44,.58,.58,.7,.22,.99-.15-.1-.05-.31-.14-.29-.33-.33,.05,.39,.37-.13,.6-.44,.01-.17-.47-.25-.72,.8-.25,1.11-.88,1.41-1.6,.16-.36,.29-.75,.52-1.08,.21-.34,.45-.64,.8-.8-.7-.42,.15-.68,.12-1.08,.59,.67,.39-.73,1.05-.59l-.73-.49c.49-.12,.53-.62,.62-1.04,.1-.41,.23-.76,.75-.5,.54-.1,.21,.64,.14,.87,.52,.17,.75-.23,1.03-.6,.25-.4,.57-.73,1.01-.37-.09-.35-.52-.77-.09-1.35,.62,.17,1.61,.27,1.57,.47,.31-.26,.36-.57,.82-.37,.01,.24-.15,.31-.25,.45,.33,.01,.6-.08,.86-.22,.26-.14,.5-.39,.78-.57,.21,.33,.58,.39,.99,.41,.5,.04,1.08,.05,1.53,.24,.51-.83,1.47,.33,1.54-.74-.02,.11,.09,.25,.15,.32,.34-.31,.61-1,1.04-1.05l-.14,.7c-.1,.89,1.22,.18,1.35,.62-.37-.6,.49,0,.52-.53l.51-.23c.81-.18,.1-.35,1.09-.45,.57-.04,.19,.81,0,.73,.48,.37,.96,.16,1.45,0-.18,0-.24-.05-.07-.2,.01,.09,.06,.15,.12,.18,.18-.06,.37-.11,.55-.11,0,.02,0,.02,0,.04-.2,.04-.39,.08-.53,.09,.13,.07,.32,.07,.52,.07,.02,.05,.07,.04,.15,0,.17,.01,.32,.04,.42,.15l-.14,.55c.35,.03,1.31-.6,1.28-.84,1.37,.47,3.62,.07,4.54-.23-.18,.13-.2,.3-.02,.12,.47-.11,1-.58,1.05-.22,.46-.23,.43,.38,1.13,.43,.01,.09,.07-.3,0-.44,.76,.46,1.65,.11,2.56-.07,0,.01-.01,.01-.02,.02,.04,0,.05-.02,.09-.03,.19-.04,.39-.06,.58-.07,.2,.17,.4,.38,.66,.12,.04,.04,.04,.1,.04,.15-.08,.12-.17,.27-.24,.37,.06-.01,.12-.03,.17-.04,0,.07,.04,.13,.18,.15,.06-.07,.08-.14,.1-.22,.51-.13,1-.27,1.48-.46,.52-.1,1.1-.33,1.17-.59h0c-.1,.25-.07,.48-.33,.62,.6,0,1.27-.11,1.7-.4-.02,.01-.05,.02-.1,.01-.19-.17-.19-.35-.09-.49,.21-.15,.45-.28,.72-.38,.11-.01,.21-.02,.3,0v.12c.67-.01,.79-.24,1.3-.31,.05,0,.09,0,.14,0h0s.08-.02,.13-.02c.45,.31-.39,.15-.21,.5,.05,.24,.2,.38,.39,.47-.44,.78-2.18,.82-2.57,.34-.86,.84,.68,.1,.52,.92,.78-.07,1.14-.49,2.35-.62,0-.29-.18-.41-.11-.57,.52,.16,1.21,.05,1.31,.11,.06-.07,.14-.13,.21-.2,.16,.23,.26,.47,.37,.49-.16,.1-.37,.13-.53,.22,.71,.29,.96-.28,1.72-.23,.21,1.12-1.21,.13-1.48,.82l.54,.8c1.16,.11,.32-.92,1.51-.63l-.15,.4,.75-.25c.01-.42-.15-1.05-.79-.96,.42-1.08,.59-.15,1.61-.37,.33-.62-.43,.06-.45-.55-.03-.19,.03-.31,.14-.4,.1-.04,.2-.09,.29-.14,.21-.06,.46-.09,.68-.14,.84,0,.43,.66,.77,1.07-.16,.1-.8,.19-.73-.17-1.03,.63,.45,1.28-.27,1.71,.79,.36,.76-.37,1.18-.57-.25-.07,.11-.61-.07-.83,1.37-1.67,.88,1.21,2.19,.92-.18-.7,.63-1.12,.94-1.66,.38,.03,.79,.08,1.18,.15l-.55,.66c.53,.5,1.41,.99,1.7,1.33,.69-.32-.22-.7,.59-.87-.28,.38,.21,.69,.57,.68-.71-.28-.01-1.03,.44-1.21,.35,0,.68,.16,.88,.35,.16,.2,.24,.42,.2,.5-.09,.1-.15,.19-.25,.3l-.34,.31c.51-.53,.27,.27,.63,.07,.11-.39,.37-1,.54-1.51,.37-.18,.55,.42,.67,.34-.2,.12-.38,.21-.57,.36,.69-.08,.02,1.12,.69,.94l.27-.53c.12,.1,.12,.38-.03,.55,.17-.37,.52-.18,.71-.28l-.05,.37c.31-.2,.92-.8,1,0,.05-.93-.31-.14-.66-.68-.06-.36,.1-.48,.3-.51,.2-.01,.43,.07,.5,.04-.17,.45,0,.53,.26,.53,.26,0,.61-.04,.78,.05,.05,.41,.14,.62,.15,.87l.42-.47c-.5,1.14,.78,.13,.91,.75-.39,.17-.62,.6-.52,.91,.21-.98,1.17-.53,1.46-1.05,.37,.8-.86,.76-1.08,1.42,.69-.27,.27,.84,1.02,.38-.15-.6,.45-.35,.81-.53,.42,.59-.36,.19-.27,.78,.28,.11,1.03,.02,.95-.54,.08,.47,1.09,.34,.89,1.1-.34,.47-.7-.61-.87-.14,.36,.62,.92,.16,1.47,.15,.13,.05,.27,.07,.4,.11,.07,.04,.15,.09,.22,.17,0-.02,.01-.04,.02-.06,.1,.08,.18,.19,.22,.38,.05,.13,.02,.38-.03,.53-.17-.02-.34-.06-.51-.11-.47-.13-.9-.23-1.13,.21l.47,.25c-.29,.03-.78,.14-.94,.42,.32-.11,.47,.1,.55,.33,.06,.24,.05,.49,.14,.5,.55-.12-.27-.26,.17-.36,.28,.36,1.29,.27,1.11,1.12-.48-.29-.71,.35-1.06,.27-.15,.38,.69-.06,.48,.49l-.34,.02c.1,.99,.2,2.1,.31,3.18,.17,1.35,.53,2.65,1.22,3.72-.57,.39-.61,1.19-1.01,2.43,.19-.54,.58-.02,.65,.29l-.65,.59c-.38,.72,.24,1.67,.61,2.33-.13,.12-.3,.15-.48,.19-.43,.64,.37,.67,.51,.91l-.46,.42,.45,.09c.26,.64,.15,1.5-.59,1.41,.14,.25,.28,.5,.49,.18-.43,.64-.43,2.4-.18,3.56,.19-.55,.41-.5,.87-.55,.78,.17-.15,.26,.31,.72-.29,.01-.59,.54-.8-.03-1,1.54-.2,3.7-.4,5.64,.12,.39,.25,.27,.46,.46-.79,1.22,.04,2.72-.3,4.04,.33-.3,1.24,.12,1.26,.86,.64,.8-.9,.32-1.29,1.04,.3,.36,.38,1.04,.34,1.32l-.11-.02c.34,.44,.54,1.14,.24,1.66l-.04-.08c-.06,.43-.46,.93-.41,1.38,.6,.2,.23,1.3,.77,1.56-.07,.06-.11-.03-.24,.09l.51,.04-.29,.89c-.2-.19-.42-.24-.56-.49-.35,.95,.47,.32,.75,.82,.37,.67-.14,.63-.35,.95-.26-.27,.12-.49,.03-.65-.41-.38-.16,.4-.46,.42-.02,.14,.6,.2,.48,.69-.06,.42,.1,1.41-.46,1.29,.3,.36,.24,.79,.49,1.06,.1-.34,.25-.97,.6-1.05,.07,.31,.22,.93-.02,1.03l-.14-.25c.14,.25-.03,1.16,.49,.69l-.72,.65c.43,.24,.4,.9,.5,1.43-.57,.02-1.21-.41-1.34,.59l.58,.86c.06,.46-.1,.49-.42,.45-.36,1.17,1.47,1.46,.81,2.44-.58-.58-.7-.22-.99,.15,.1,.05,.31,.14,.29,.33,.33-.05-.39-.37,.13-.6,.44-.01,.17,.47,.25,.72-.8,.25-1.11,.88-1.41,1.6-.16,.36-.29,.75-.52,1.08-.21,.34-.45,.64-.8,.8,.7,.42-.15,.68-.12,1.08-.59-.67-.39,.73-1.05,.59l.73,.49c-.49,.12-.53,.62-.62,1.04-.1,.41-.23,.76-.75,.5-.54,.1-.21-.64-.14-.87-.52-.17-.75,.23-1.03,.6-.25,.4-.57,.73-1.01,.37,.09,.35,.52,.77,.09,1.35-.62-.17-1.61-.27-1.57-.47-.31,.26-.36,.57-.82,.37-.01-.24,.15-.31,.25-.45-.33-.01-.6,.08-.86,.22-.26,.14-.5,.39-.78,.57-.21-.33-.58-.39-.99-.41-.5-.04-1.08-.05-1.53-.24Z"/><path class="cls-3" d="M703.92,79.93h0Z"/><path class="cls-3" d="M708.4,78.98l.13-.03c0-.15-.05-.09-.13,.03Z"/><path class="cls-3" d="M703.92,79.93c-.11,.08-.22,.15-.29,.26,.45,.22,.14-.17,.29-.26Z"/><path class="cls-3" d="M715.38,12.74c.49,0,.59-.15,.23-.45-.1,.17-.26,.26-.23,.45Z"/><path class="cls-3" d="M716.51,11.8s.05,.06,.08,.09c0-.06-.04-.08-.08-.09Z"/><path class="cls-3" d="M715.9,11.49c-.09,.48,.41,.25,.61,.31-.15-.17-.31-.31-.61-.31Z"/><path class="cls-3" d="M724.98,12.51c-.17,.52,.67-.2,.89,.07-.2-.39-.68-.1-.89-.07Z"/><path class="cls-3" d="M729.2,11.98l.13,.44c.21-.03,.48-.29,.23-.45-.16,.1-.21,.03-.35,.01Z"/><polygon class="cls-3" points="737.47 75.6 737.3 75.99 737.65 75.89 737.47 75.6"/><path class="cls-3" d="M705.66,78.44c.08,.05-.06,.6,.39,.38-.54,.05,.02-.42-.39-.38Z"/></g><g><rect class="cls-2" x="683.32" y="20.32" width="50.45" height="50.45" rx="13.57" ry="13.57"/><g><path class="cls-3" d="M718.21,70.01c-.09,.1-.04,.33,.21,.27l.17-.39-.37,.12Z"/><path class="cls-3" d="M719.91,70.61c.28-.23,.56-.6,.33-.92-.23,.4-.31,.28-.58,.73-.25,.06-.44-.1-.41-.24-.08,.1-.38-.06-.51,.18,.33,.27,.76,.28,1.16,0,.1,.07,.02,.18,0,.25Z"/><path class="cls-3" d="M734.31,53.11l-.05,.16s.04-.1,.05-.16Z"/><path class="cls-3" d="M734.51,37.73c0,.12,.05,.17,.08,.17-.02-.11-.05-.2-.08-.17Z"/><path class="cls-3" d="M734.89,35.05l-.02,.17c.03-.06,.05-.13,.02-.17Z"/><path class="cls-3" d="M734.31,53.11l.12-.41c-.12-.03-.09,.21-.12,.41Z"/><path class="cls-3" d="M722.93,69c-.07,.05-.12,.1-.17,.17l.17-.11v-.06Z"/><path class="cls-3" d="M733.88,60.07l-.04,.12s.07,.1,.11,.15l-.07-.27Z"/><path class="cls-3" d="M731.44,64.97c.09-.09-.15-.32-.24-.43,.07,.13,.06,.24,.02,.34,.05,.04,.12,.07,.22,.09Z"/><path class="cls-3" d="M724.47,69.82s-.08,.07-.12,.1c.03-.02,.09-.06,.12-.1Z"/><path class="cls-3" d="M734.63,56.22s.09-.02,.12-.04c-.04,0-.08,.02-.12,.04Z"/><path class="cls-3" d="M712.18,69.26s0,.04,0,.06c.03-.03,.04-.06,0-.06Z"/><path class="cls-3" d="M718.21,70.85l-.08,.02c0,.06-.02,.12-.02,.18l.1-.2Z"/><path class="cls-3" d="M734.24,29.87v.02c.08,.12,.05,.05,0-.02Z"/><path class="cls-3" d="M692.59,20.21c.6,.08-.67,.65,.2,.66-.12-.09,.5-.72-.2-.66Z"/><path class="cls-3" d="M723.06,68.99c.06-.03,.12-.05,.19-.07-.09,.02-.15,.04-.19,.07Z"/><path class="cls-3" d="M692.79,20.87h0Z"/><path class="cls-3" d="M726.34,21.01c0,.06,.01,.12,.04,.19,.01-.03,0-.08-.04-.19Z"/><path class="cls-3" d="M732.33,27.41l-.08-.21c.02,.09,.05,.15,.08,.21Z"/><path class="cls-3" d="M721.88,19.82c-.11-.05-.14-.11-.3-.1,.01,.02,.02,.03,.04,.05,.07-.03,.15-.03,.26,.05Z"/><path class="cls-3" d="M717.25,19.39s.05,.04,.08,.06l.14-.02-.22-.05Z"/><path class="cls-3" d="M698.65,69.4c.09,.1,.14,.2,.19,.3-.07-.23,.56-.3-.19-.3Z"/><path class="cls-3" d="M722.99,69.17c0-.09,.02-.14,.07-.17l-.13,.06s.02,.09,.05,.11Z"/><path class="cls-3" d="M721.16,22.26c-.2-.08-.41-.1-.62-.16,.17,.06,.4,.09,.62,.16Z"/><path class="cls-3" d="M684.63,47.4l.04,.16c0-.06,0-.12-.04-.16Z"/><path class="cls-3" d="M718.67,21.96c-.11-.12-.23-.19-.36-.24-.03,.02-.06,.04-.08,.08l.43,.16Z"/><path class="cls-3" d="M698.84,69.7h0Z"/><path class="cls-3" d="M703.5,68.94c-.68,0-.32,.41-.46,.66-.81,.12-.37-.31-.65-.53-.5,.11-.89,.5-1.26,.48-.03-.07-.1-.1-.02-.18-.53,.34-1.58,.02-2.2,.44-.05-.04-.07-.08-.08-.11,.09,.22,.11,.43,.09,.58-.29,0-.55,.24-.65-.04,.18,.02,.2-.09,.28-.18l-.31,.1c-.25-.41,.42-.12,.42-.41-.57,.09-1.3,.43-1.74,.22-.02-.2,.24-.19,.44-.19,.2-.02,.34-.03,.06-.22l.67,.18c-.48-.64,.41,.06-.03-.62-.85-.13-.99,.09-1.83-.13-.24,.18,0,.32-.23,.51-1.35,.05-.73-1.15-1.73-.96-.3,.16-.57,.59-1.11,.12l.38-.33c-.76-.37-.71,.37-1.4-.28,.23-.08,.68,.16,.58,.06-.37-.57-.49,.06-.89-.16l.11-.39c-.81-.4-1.81-.73-2.64-1.37,.12-.05,.33-.02,.23-.27-1.13-.66-1.87-2-2.35-3.11l-.53-.22c-.05-.1,.03-.25,.14-.18-.14-.47-.2,.09-.43-.04-.16-.22-.02-.4,.16-.3-.33-.29-.72-.78-1.05-1.31-.26-.56-.53-1.14-.43-1.63l.14,.14c-.03-.7-.89-.59-.7-1.31l.08,.11c-.17-1.52-.44-3.2,.06-4.5-.48-.24,.22-1.62-.46-1.73,.34-.94,.46-.67,.68-1.99,.03-.35-.42-.53-.49-.96h.35l-.37-.6,.42-.31-.09-.41c-.02,.16-.16,.35-.26,.32-.16-.64,.25-1.56,.43-1.57l-.3-1.51c.14,.03,.19,.29,.28,.49-.36-.81,.37-.15,.04-.89-.08,.1-.21-.05-.28-.07,.21-.37,.22-1.21,.13-1.83l.24,.12c.06-1.12-.12-2.36-.11-3.62-.11,.45-.54,.35-.58-.02l.37-.15c-.23-.24-.14,.39-.42-.1,.04-.47,.42-.32,.55-.05l-.13-.57c.11-.03,.17,.1,.31,.14-.23-.23,.37-.99-.03-1.32l.11-.03c0-1.29-.1-1.72-.04-2.66-.32-.06-.19-.41-.41-.73,.09-.34,.25-.68,.43-1.03,.18-.35,.29-.73,.44-1.11,.05-.6-.2-.25-.29-.57,.29,.06,.55-.73,.6-.25,.35-.94,.45-1.19,.91-2.39-.17,.05-.3,.16-.34,.04,.08-.23,.38-.39,.48-.29v.07c.22-.71,.88-1.29,1.57-1.71,.65-.47,1.33-.78,1.54-1.4l-.03,.06,.75-.96c.46-.28-.13,.38,.29,.29,.39-.54,.83-.79,1.26-.99,.45-.16,.85-.32,1.27-.67,.55,.28,1.16-.03,1.87-.23,.68-.27,1.45-.44,2.01-.26l-.08-.19c.25-.25,.35,.08,.55,.12-.04-.16-.32-.17-.15-.29,1.13-.21,2.52-.11,3.86,.02,1.35,.13,2.7,.31,4.03,.4,.97,.05,.55-1.06,1.78-.57l-.35,.38c1.96-.45,4.01,.02,5.93-.37-.11,.09-.12,.2-.31,.2,.41,.28,1.5,.01,1.51-.21,.3,.03,.07,.2,.25,.32,.41,.16,1.02-.35,1.24-.08,.04,.04-.11,.09-.19,.11,.27-.13,1.23,.03,.98-.28,.72,.15,1.39-.15,1.94,.05,.35-.34,1.11,.23,1.26-.27-.08,.49,1.08,.58,1.55,.4-.17,.12,.32,.25,.11,.42,.45,.11,.89,.12,.89-.15,.35,.38,.77,.46,1.18,.48,.41,.02,.76,.11,.81,.58,1.39,.31,2.6,.94,3.67,1.68-.34,.33-1.16-.85-1.43-.37,.54,.27,1.03,.42,1.45,.66,.44,.22,.86,.5,1.21,1.01,.16,.28-.29,.02-.42,0,.24,.19,.46,.39,.67,.6,.18,.23,.35,.46,.52,.69,.36,.44,.61,.93,1.03,1.32-.04,.02-.15-.05-.24-.13,.13,.17,.19,.46,.39,.33l-.16-.15c.06-.23,.33-.14,.6,.02,.26,.17,.52,.4,.61,.38-.77-.04,.33,1.07-.71,.89,.11,.11,.28,.22,.41,.14,.03,.22-.03,.31-.27,.18,.38,.67,.52,.33,.76,.99-.11,.03-.2-.09-.35-.11,.35,.25,.62,.55,.69,1.16-.08-.02-.15,.07-.19-.1,.16,.48,.37,.88,.55,1.32,.09,.22,.18,.44,.24,.68,.03,.24,.04,.51,0,.8-.51-.31-.14,.39-.57,.46,.06,.19,.1,.4,.14,.62l.21-.26c0,.56,.3,1.06,.16,1.54l-.18-.42,.08,1.05,.16-.6c.22,.57,.54-.06,.42,.69-.04-.15,0,.56-.26,.85h0c.14,.28,.28,.56,.17,.98-.14,.11-.47-.09-.56-.02,.36,.27,.1,1.32,.48,1.66-.09-.12-.31-.12-.36-.08l.29,.23c-.09,.26-.14,.3-.32,.26-.05,.78,.54-.25,.31,.68-.02-.07-.07-.04-.11-.19-.12,.93,.18,1.8,.04,2.66-.43,.25-.11-.75-.47-.46,.08,1.24,.52,2.56,.41,3.76l.05-.22c.61,.17-.3,.89-.01,1.5-.05-.15-.34-.19-.27-.15-.1,.82,.15,1.68,.34,2.92l-.16-.15c-.14,.48-.08,1.27-.15,1.79,.16,.15,.13,.45,.36,.27-.43,.83-.38,1.51-.27,2.25,.02,.71,.11,1.47-.45,2.04,.04-.16-.04-.41-.07-.28-.05,.38-.09,.77-.15,1.15,.29,0,.19-.1,.46-.28,.12,.19,.14,.55,.03,.83,.02-.56-.41-.13-.62,.03,.09,0,.15,.1,.23,.11-.66,.41,.48,.3-.14,.97l-.11-.1c-.07,.31-.04,.66-.22,.96-.34-.01,.02-.37-.2-.5-.18,.43,.1,1.13-.41,1.35,.03-.22,.19-.47,.21-.69-.55,.24-.5,.32-.73,.58l.02-.02c-.19,.2-.36,.4-.56,.58,.07-.03,.13-.07,.19-.11,.3,.93-.56,1.08-.71,2,.16-.91-.13-.28-.35-.56-.21,.09-.49,.24-.51,.11-.05,.46-.55,.31-.66,.94-.09-.07-.3,.26-.43,0-.29,.38,.21,.07,.28,.2-.15,.39-.55,.62-1,.81-.44,.21-.89,.45-1.22,.94-.67,.68-.68,1.06-1.41,1.63-.34-.03,.05-.48,.05-.48-.49,.07-.82,.21-1.2,.49,.05-.12-.07-.17-.23-.24-.33,.14-.09,.48-.6,.46,.04-.14,.09-.36,.2-.54-.36,.24-.71,.51-1.11,.73-.16-.16,.19-.35,.3-.51-.22,.1-.51,.22-.76,.36-.26,.11-.47,.24-.52,.41l.34,.06c-.18,.04-.14-.25-.02-.32,.37-.29,.61-.03,.66,.08l-.29,.15c.46,.54,1.23-.38,1.81-.58l-.1,.54,.49-.6c.17,.07,.36,.28,.08,.46,.53,.05,.33-.29,.8-.21,.06,.02,.05,.05,.02,.08l.36-.33c-.04,.13,.21,.27-.08,.33,.89-.12,1.06-.9,1.49-.76l-.05,.06c.91-.74-.08-.36,.43-1.15,.32,.15,.63,.26,.96,.38l-.11-.35c.1-.06,.31-.18,.36-.04,.21-.46-.15-.08-.08-.41,.68-.07,1.07-1.14,1.56-.8-.03-.33-.55,.22-.22-.32,.56,.32,.41-.58,.96-.77,.12,.32-.34,.59,.22,.38-.09-.3,.11-.46,.35-.62,.23-.17,.51-.32,.61-.53-.31-.26,.45-.88,.7-1.61,.04,.05,.3-.21,.55-.58,.25-.38,.54-.84,.76-1.13l.06,.05c-.33-.29-.02-.94,.08-1.46,.23,.1,.29,.22,.3,.53l.17-.47c-.08-.15-.12-.32-.08-.65l.27,.21c.16-.67,0-1.38,.3-2.2-.28-.08-.91,.52-.97-.35,.16-.01,.44,0,.47,.23,0-.08-.09-.28,0-.42l.21,.38c.17-.36-.19-.23-.12-.52,.23,.03,.18-.21,.35-.15,.02,.08-.12,.26-.05,.38,.11-.34,.23-.75,.42-.88-.13,.02-.3-.02-.32-.28,.02-.66,.28-.22,.42-.61-.14-.17,0-.56-.33-.58,0-.19,.16-.22,.25-.29-.15-.33-.04-1.54-.4-1.17l-.02,.08v-.05h-.01c-.34-1.08,.19-2.24,.05-3.32h.11c-.13-.64-.08-1.42-.32-1.88,0-.19,.21-.45,.34-.37-.09-.49-.21-.54-.03-1.25,.2,.49,.18-.17,.14,.5,.1-.64,.28-.78-.03-1.46,.29,.23,.37-.48,.28-.78l-.21,.45c-.04-.34-.02-.64,0-.94l.38,.16c.46-1.3-.79-2.35-.01-3.34-.27-.34-.19,.71-.5,.4,.05-.6,.6-1.22,.6-1.41,.21-.82-.56-.76-.41-1.62-.14,.11-.5,.21-.63-.43,.05-.6,.57-.74,.68-.36,.01,.14-.03,.21-.08,.21,.05,.19,.11,.45,.26,.21l-.14-.08c.14-.3,.12-1.12,.35-.93-.13-.45-.22-.19-.29,.14,.19-.78,.03-1.17,.11-2.03-.07,.14-.22,.26-.23,.13,.1-1.23-.26-.53-.41-1.33,.14-.49,.52,.11,.22-.7,.06-.53,.34-.17,.48,.02-.35-.73-.1-1.47-.18-1.93l.21,.38c-.13-.23-.18-.43-.23-.63l-.2,.3c-.01-.25-.07-.45,.04-.48-.24-.19-.38,.31-.75-.08,.02-.34-.47-.84-.17-1.07,.23,.98,.3-.24,.65,.55-.1-.14-.17-.33-.21-.58,.03-.05,.08,0,.12,.06-.04-1.05-.52-.28-.94-1.18,.24,.03,.25-.38,.13-.51,.18,.37-.22,.32-.52,.07-.14-.65-.45-.54-.59-.83l.13,.36c-.24,0-.38-.29-.66-.62,.11-.12,.3,.28,.28,.11-.53-.22-.3-1.12-.91-1.53-.08-.34,.28-.26,.18-.55-.71-.42-.36-.82-1.07-1.29-.04,.37,.05,.33-.55,.13,.37,.25,.69,.55,1.05,.83l-.86-.36c.26,.29,.69,.5,.81,.71-.44-.15-.36-.16-.4,.12-.06-.67-.86-.63-1.13-1.22l.48-.48c-.51-.89-1.51-.86-2.41-1.68,.09,.1,.19,.2,.27,.31-.28,.12-.66-.37-1.05-.48,.15-.18-.02-.38-.1-.59-.05,.14-.81-.43-1.11-.07l-.37-.51c-.89-.49-1.29,.18-2.14-.18,.34-.15-.02-.45,.64-.41-.3-.12-.57-.21-.62-.07-.15-.19-.93,.08-1.16-.21-.15,.06-.24,.3-.58,.22-.03-.05,.02-.11,.02-.11-.02,.11-.56,.07-.3,.36-.84-.9-2.66-.18-3.42-.78-.65,.08-1.44,.15-2.04,.17,.04-.07,0-.11,.11-.09-.82-.21-.5,.65-1.44,.41-.48-.37,.5-.2,.2-.34-.13-.74-1.13,.1-1.75-.33l.15-.04c-.48-.25-1.17,.28-1.95,.23,0,0,.04-.07,0-.11-.54,.38-1.55,.51-2.3,.61,.23-.29,.34-.15,.2-.45-.34,.04,.1,.48-.58,.56-.22-.16-.71-.3-.77-.62l.64-.02c-.33-.41-.82,.01-1.16-.06l.04-.18c-.98,.06-.99,.51-2.04,.48l.11,.14c-.57,.45-.48-.25-1.05,.08l-.17-.45c-.38,.11-1.32,.44-2,.52,.38-.34,1.18-.51,1.67-.71-.37,0-1.27,.03-1.47,.26,.15-.04,.34-.15,.49-.08-.46,.36-1.06,.53-1.81,.52,.12-.88-1.91-.24-2.56-.85-1.38,.39-2.83,.2-4.42,.78,.77,.45-.45,.18-.11,.81-.33,.17-.47,.21-.52,.18-.41,0-.8,.06-1.21,.09-.34-.06,.26-.3,.16-.43-.79,.32-.45-.11-1.06-.02,.22,.16-.1,.45-.56,.63l.75-.07c-.8,.95-1.22-.01-2,1.02l.18-.41c-.21,.24-.68,.58-1.1,.98-.39,.43-.74,.89-.77,1.29-.14,.01-.38-.02-.21-.24-1.13,1.02-1.71,2.82-2.52,3.63l-.09-.18c-.1,.26,.03,.56-.29,.78-.05-.05-.1-.18-.17-.07-.01,.16-.05,.79-.3,1.07l-.04-.36c-.44,.6-.51,1.18-.53,1.72-.04,.54,.03,1.06-.05,1.64-.24-.06-.48,.17-.67,.49-.18,.32-.3,.74-.38,1.02l-.07-.03c-.19,.84-.07,1.58,.02,2.27,.12,.67,.3,1.27,.4,2-.55,.89-.23,3-.54,4.42,.09-.22,.39,.04,.44,.29-.1,.33,.35,.92-.11,.87v-.12c-.45,.25-.32,.94-.34,1.47l.61,.09c-.88,1.4,.32,3.67-.47,4.44,.15,.34,.15,.76,.3,1.09l-.32-.02c-.08,.94-.12,1.4-.05,2.56l-.23-.24c-.02,.65,.94,.82,.96,1.43l-.48,.18c0,.57-.11,1.13-.12,1.77-.03,.62,.02,1.25,.35,1.82-.07,0-.22-.02-.27-.22,.04,.29,.03,.87,.14,1.33,.12,.46,.3,.79,.59,.6-.21,.06-.14,.38,.03,.74,.19,.36,.5,.76,.7,1.03l-.33,.02c.57,.38,.68,.35,1.11,.98,.04,.18-.16,.25-.19,0,.12,.62,.45,.3,.66,1l-.32-.13c.3,.55,.37,.45,.75,.62,.29,.27,.57,1.01,.4,1.25,.19-.03,.58,.09,.73,.43-.06,.11-.19,.04-.25,.01,.51,.95,1.27,.92,1.56,1.62-.06,.09-.06,.16-.04,.22-.62-.56-1.01-1.11-.97-1.06-.22,.19,.21,.74-.47,.61,.53,.3,1.55,.57,1.94,1.11,0,.04,.01,.09,0,.14l-.07-.02c.09,.13,.21,.2,.35,.23,.14,.16,.23,.27,.39,.4-.08,.23,.55,.6,.84,.78,.15-.28,.5-.01,.29-.45,.03,.04-.08,0-.27-.11-.05-.02-.1-.05-.13-.06h.03c-.18-.14-.41-.3-.68-.49,.31,.03,.61,.08,.8,.44,.25-.07,.53-.16,.67-.19,.13,.6,.76,1.3,.76,1.57,.52,.14,1.06,.41,1.62,.52,.56,.11,1.08,.17,1.47-.02,.3,0,.27,.25,.35,.37-.18,.02-.37-.04-.48,.02,.61-.01,1.68,.4,1.9-.04,.68,.3-.47,.32,.52,.4l-.15,.11c.93,.52,1.8,.24,2.61,.05,.78-.25,1.59-.47,2.63-.03-.14-.05-.21-.08-.24-.15,2.36,.38,4.86-.36,7.18,.25,.66,.12,.73-.15,1.14-.35l.14,.35,.69-.4c.98-.29,1.69,.85,2.93,.3l-.16-.23c.44,.04,1.41-.14,1.33,.13,.05-.04,.15-.24,.32-.12v.18l1.11-.31c.85,.13-.13,.72,1.1,.75,.46-.07,1.31-.53,1.14-.65-.19,0-.47-.11-.49-.29l.42-.09c.08-.53,.4-1.08-.63-1.45l-.72,.33-.23-.26,.6-.02c-.34-.24-.56-.03-.8,.12-.06-.14-.16-.23-.3-.29l-.71,.51c-.09-.21,.32-.41-.16-.53-.33,.24,.32,.47-.23,.62-.34-.24-.24-.44-.65-.23-.06-.14,.03-.23,.19-.29-.36,.16-.95,.07-1.14,.35-.36-.3-1.21,.08-1.18-.43-.11,.12-.63,.4-.96,.42,.6-.6-1.24-.04-1.08-.68-.45,.54-1.61,.24-2.4,.54,.04-.04,.13-.13,.2-.1-.44-.05-.57-.21-.86-.31-.06,.45-.75,.55-1.12,.83-.55-.43,.33-.53,.16-.94,.03,.36-.95,.36-.76,.67-.42-.27-.36-.13-.57-.5-.07,.56-.39,.09-.73,.44-.6-.28-.16-.53-.82-.36-.32-.17,.27-.37,.27-.37Zm-14.26-2.66h0l.24,.19-.24-.19Zm-.91-.85c.09,.13,.22,.26,.38,.39-.04,.11-.16,.16-.25,.07,.1,0-.08-.25-.13-.46Zm.7,3.54c-.21-.1-.23-.2-.22-.27,.09,.06,.2,.13,.34,.21l.04-.02c-.05,.04-.11,.07-.17,.08Z"/><path class="cls-3" d="M689.59,68.86s.05,.01,.09,.03l-.07-.14-.12,.04,.1,.07Z"/><path class="cls-3" d="M734.25,53.3v-.03s-.02,.04-.04,.06c.02-.02,.03-.02,.04-.03Z"/><polygon class="cls-3" points="684.79 48.88 684.71 48.88 684.78 48.99 684.79 48.88"/><path class="cls-3" d="M732.24,60.27s-.07,.02-.11,.06c.02,0,.06-.02,.11-.06Z"/><path class="cls-3" d="M730.88,62.95l-.32,.3c.15-.12,.25-.22,.32-.3Z"/><path class="cls-3" d="M729.4,64.73c.02,.06,.05,.09,.07,.12h0l-.08-.12Z"/><path class="cls-3" d="M730.56,28.65s-.04-.05-.06-.07c-.16-.14-.07-.04,.06,.07Z"/><path class="cls-3" d="M733.29,39.11c-.06-.12-.12-.24-.15-.37-.02,.2-.03,.36,.15,.37Z"/><polygon class="cls-3" points="721.23 22.28 721.23 22.27 721.16 22.26 721.23 22.28"/><path class="cls-3" d="M733.14,38.21c-.06,.2-.05,.37,0,.53,.02-.17,.05-.36,0-.53Z"/><path class="cls-3" d="M720.97,69.49h-.11s0,.04,0,.06l.11-.06Z"/><path class="cls-3" d="M720.86,69.55l-.11,.06c.06,0,.1-.02,.11-.06Z"/><path class="cls-3" d="M720.5,69.72l.24-.12c-.09,.01-.2,.02-.24,.12Z"/><path class="cls-3" d="M723.9,68.77v-.12s-.02,.07,0,.12Z"/><path class="cls-3" d="M724.71,68.34c-.21,.07-.6,.01-.84,.21v.1c.07-.22,.73-.04,.84-.31Z"/><path class="cls-3" d="M728.84,67.3c-.23,.17-.45,.34-.7,.47,.19,0,.46,.02,.17,.28,1.08-.38-.33-.05,.54-.75Z"/><path class="cls-3" d="M730.81,65.54c-.26,.38,.15,.11,.18,.17,.09-.31,.11-.38-.18-.17Z"/><path class="cls-3" d="M734.51,47.58l.29,.04c-.04-.34-.11,0-.29-.04Z"/><polygon class="cls-3" points="732.99 44.09 732.81 44.41 733.08 44.57 732.99 44.09"/><polygon class="cls-3" points="735.08 42.02 735.13 42.17 735.02 41.6 735.08 42.02"/><path class="cls-3" d="M718.04,19.11l.1,.36c.24-.06,.28-.47-.1-.36Z"/><path class="cls-3" d="M704.77,19.48c-.14-.18-.52-.3-.75-.12,.3,.02,.6,.17,.75,.12Z"/><polygon class="cls-3" points="681.89 45.36 681.77 45.09 681.87 45.59 681.89 45.36"/></g></g></g><g><g><path class="cls-3" d="M51.69,11.07h0Z"/><path class="cls-3" d="M47.21,12.02l-.13,.03c0,.15,.05,.09,.13-.03Z"/><path class="cls-3" d="M34.62,11.93s-.01,0-.02-.01l-.05,.02s.04,0,.07,0Z"/><path class="cls-3" d="M51.69,11.07c.11-.08,.22-.15,.29-.26-.45-.22-.14,.17-.29,.26Z"/><path class="cls-3" d="M33.05,78.97c.14,.02,.25,0,.34-.05-.07-.02-.16-.01-.34,.05Z"/><path class="cls-3" d="M40.01,78.71c.1-.17,.26-.26,.23-.45-.49,0-.59,.15-.23,.45Z"/><path class="cls-3" d="M39.1,79.2s-.05-.06-.08-.09c0,.06,.04,.08,.08,.09Z"/><path class="cls-3" d="M39.1,79.2c.15,.17,.31,.31,.61,.31,.09-.48-.41-.25-.61-.31Z"/><path class="cls-3" d="M29.73,78.42c.2,.39,.68,.1,.89,.07,.17-.52-.67,.2-.89-.07Z"/><path class="cls-3" d="M26.06,79.03c.16-.1,.21-.03,.35-.01l-.13-.44c-.21,.03-.48,.29-.23,.45Z"/><polygon class="cls-3" points="18.14 15.4 18.31 15.01 17.96 15.11 18.14 15.4"/><path class="cls-3" d="M49.56,12.18c.54-.05-.02,.42,.39,.38-.08-.05,.06-.6-.39-.38Z"/><path class="cls-3" d="M59.89,79.07s.01,0,.02,.01l.05-.02s-.04,0-.07,0Z"/><path class="cls-3" d="M61.46,12.03c-.14-.02-.25,0-.34,.05,.07,.02,.16,.01,.34-.05Z"/><path class="cls-3" d="M86.22,59.67c.05-.82,.11-1.64,.17-2.47,.24-1.61,.59-3.29,.31-4.95,.14-2.74,.18-5.5-.05-8.27-.05,.09-.11,.13-.17,.15-.04-1.39-.41-2.88,.02-4.1-.1,.06-.17,.08-.25,.1-.02-.65-.03-1.31-.05-1.95l.03,.33,.06-.43s-.06-.04-.09-.05c-.02-.98-.02-1.97,0-2.96,.04-.24,.08-.5,.13-.79-.08-.47-.34-.73-.48-1.07-.01-.25,0-.52-.08-.72,0-.03,0-.06,0-.09,.77-.57,.03-1.9,.31-2.8-.15,.05-.3,.03-.43-.05,.12-.39,.31-.83,.62-1.48,.08-1.04,.13-2.07,.18-3.1,.02-.51,.05-.98,.02-1.74-.01-.69-.04-1.38-.15-2.07-.34-2.75-1.3-5.39-2.72-7.69-2.83-4.62-7.53-7.79-12.73-8.76-.66-.11-1.32-.18-1.99-.18l-.98-.02-.74,.02-2.94,.11c-1.96,.1-3.92,.19-5.88,.29-3.93,.21-7.88,.43-11.91,.54-.67,.64-1.47,.78-2.29,.93-1.13-.04-2.48-.08-3.81-.27-.45-.06-.69,.07-.89,.25-.14-.05-.29-.1-.45-.15-.01,.28-.28,.24-.38,.39v-.15c-.3,.1-.5,.27-.67,.46-.18-.18-.38-.4-.6-.52,.04-.06,.08-.11,.11-.16-.58-.12-1.16,.24-1.67,.42,.03-.27,.11-.8-1.3-1.17-1.8,.13-3.63,.38-5.44,.53-1.3,.14-2.49,.14-3.9,.15,.22-.19,.42-.39,.59-.57,.54-.6,.78-1.12,.78-1.12-1.78,.21-3.44,.58-5.05,1.1-1.59,.55-3.09,1.27-4.54,2.14-1.89,1.19-3.67,2.69-5.2,4.58-.09,.07-.17,.14-.24,.18,0,.05,0,.09,0,.13-.67,.87-1.29,1.8-1.84,2.84-.17,.59-.35,1.22-.47,1.89l-.07-.06c-.2,.62-.43,1.23-.57,1.88-.16,.64-.32,1.29-.4,1.96l-.14,1-.06,1.02c-.01,.32-.04,.72-.04,.98v.8c.01,2.13,.09,4.27,.38,6.38-.05,.82-.11,1.64-.17,2.47-.24,1.61-.59,3.29-.31,4.95-.14,2.74-.18,5.5,.05,8.27,.05-.09,.11-.13,.17-.15,.04,1.39,.41,2.88-.02,4.1,.1-.06,.17-.08,.25-.1,.02,.65,.03,1.31,.05,1.95-.01-.11-.02-.21-.03-.33l-.06,.43s.06,.04,.09,.05c.02,.98,.02,1.97,0,2.96-.04,.24-.08,.5-.13,.79,.08,.47,.34,.73,.48,1.07,.01,.25,0,.52,.08,.71,0,.03,0,.06,0,.09-.77,.57-.03,1.9-.31,2.8,.15-.05,.3-.03,.43,.05-.12,.39-.31,.83-.62,1.48-.08,1.04-.13,2.07-.18,3.1-.02,.51-.05,.98-.02,1.74,.01,.69,.04,1.38,.15,2.07,.34,2.75,1.3,5.39,2.72,7.69,2.83,4.62,7.53,7.79,12.73,8.76,.66,.11,1.32,.18,1.99,.18l.98,.02,.74-.02,2.94-.11c1.96-.1,3.92-.2,5.88-.29,3.93-.21,7.88-.43,11.91-.54,.67-.64,1.47-.78,2.29-.93,1.13,.04,2.48,.08,3.81,.27,.45,.06,.69-.07,.89-.25,.14,.05,.29,.1,.45,.15,.01-.28,.28-.24,.38-.39v.15c.3-.1,.5-.27,.67-.46,.18,.18,.38,.4,.6,.52-.04,.06-.08,.11-.11,.16,.58,.12,1.16-.24,1.67-.42-.03,.27-.11,.8,1.3,1.17,1.8-.13,3.63-.38,5.44-.53,1.3-.14,2.49-.14,3.9-.15-.22,.19-.42,.39-.59,.57-.54,.6-.78,1.12-.78,1.12,1.78-.21,3.44-.58,5.05-1.1,1.59-.55,3.09-1.27,4.54-2.14,1.89-1.19,3.67-2.69,5.2-4.58,.09-.07,.17-.14,.24-.18,0-.05,0-.09,0-.13,.67-.87,1.29-1.8,1.84-2.84,.17-.59,.35-1.22,.47-1.89l.07,.06c.2-.62,.43-1.23,.57-1.88,.16-.64,.32-1.29,.4-1.96l.14-1,.06-1.02c.01-.32,.04-.72,.04-.98v-.8c-.01-2.13-.09-4.27-.38-6.38ZM47.58,11.5h0Zm-11.36,.09c-.1,.02-.21,.05-.34,.08,.13-.06,.24-.1,.34-.08Zm10.7,67.9h0Zm11.36-.09c.1-.02,.21-.05,.34-.08-.13,.06-.24,.1-.34,.08Zm9.17-.96c-.51,.83-1.47-.33-1.54,.74,.02-.11-.09-.25-.15-.32-.34,.31-.61,1-1.04,1.05l.14-.7c.1-.89-1.22-.18-1.35-.62,.37,.6-.49,0-.52,.53l-.51,.23c-.81,.18-.1,.35-1.09,.45-.57,.04-.19-.81,0-.73-.48-.37-.96-.16-1.45,0,.18,0,.24,.05,.07,.2-.01-.09-.06-.15-.12-.19-.18,.06-.37,.11-.55,.11,0-.02,0-.02,0-.04,.2-.04,.39-.08,.53-.09-.13-.07-.32-.07-.52-.07-.02-.05-.08-.04-.15,0-.17-.01-.32-.04-.42-.15l.14-.55c-.35-.03-1.31,.6-1.28,.84-1.37-.47-3.62-.07-4.54,.23,.18-.13,.2-.3,.02-.12-.47,.11-1,.58-1.05,.22-.46,.23-.43-.38-1.13-.43-.01-.09-.07,.3,0,.44-.76-.46-1.65-.11-2.56,.07,0-.01,.01-.01,.02-.02-.04,0-.05,.02-.09,.03-.19,.04-.39,.06-.58,.07-.2-.17-.4-.38-.66-.12-.04-.04-.04-.1-.04-.15,.08-.12,.17-.27,.24-.37-.06,.01-.12,.03-.17,.04,0-.07-.04-.13-.18-.15-.06,.07-.08,.14-.1,.22-.51,.13-1,.27-1.48,.46-.52,.1-1.1,.33-1.17,.59h0c.1-.25,.07-.48,.33-.62-.6,0-1.27,.11-1.7,.4,.02-.01,.05-.02,.1-.01,.19,.17,.19,.35,.09,.49-.21,.15-.45,.28-.72,.38-.11,.01-.21,.02-.3,0v-.12c-.67,.01-.79,.24-1.3,.31-.05,0-.09,0-.14,0h0s-.08,.02-.13,.02c-.45-.31,.39-.15,.21-.5-.05-.24-.2-.38-.39-.47,.44-.78,2.18-.82,2.57-.34,.86-.84-.68-.1-.52-.92-.78,.07-1.14,.49-2.35,.62,0,.29,.18,.41,.11,.57-.52-.16-1.21-.05-1.31-.11-.06,.07-.14,.13-.21,.2-.16-.23-.26-.47-.37-.49,.16-.1,.37-.13,.53-.22-.71-.29-.96,.28-1.72,.23-.21-1.12,1.21-.13,1.48-.82l-.54-.8c-1.16-.11-.32,.92-1.51,.63l.15-.4-.75,.25c-.01,.42,.15,1.05,.79,.96-.42,1.08-.59,.15-1.61,.37-.33,.62,.43-.06,.45,.55,.03,.19-.03,.31-.14,.4-.1,.04-.2,.09-.29,.14-.21,.06-.46,.09-.68,.14-.84,0-.43-.66-.77-1.07,.16-.1,.8-.19,.73,.17,1.03-.63-.45-1.28,.27-1.71-.79-.36-.76,.37-1.18,.57,.25,.07-.11,.61,.07,.83-1.37,1.67-.88-1.21-2.19-.92,.18,.7-.63,1.12-.94,1.66-.38-.03-.79-.08-1.18-.15l.55-.66c-.53-.5-1.41-.99-1.7-1.33-.69,.32,.22,.7-.59,.87,.28-.38-.21-.69-.57-.68,.71,.28,.01,1.03-.44,1.21-.35,0-.68-.16-.88-.35-.16-.2-.24-.42-.2-.5,.09-.1,.15-.19,.25-.3l.34-.31c-.51,.53-.27-.27-.63-.07-.11,.39-.37,1-.54,1.51-.37,.18-.55-.42-.67-.34,.2-.12,.38-.21,.57-.36-.69,.08-.02-1.12-.69-.94l-.27,.53c-.12-.1-.12-.38,.03-.55-.17,.37-.52,.18-.71,.28l.05-.37c-.31,.2-.92,.8-1,0-.05,.93,.31,.14,.66,.68,.06,.36-.1,.48-.3,.51-.2,.01-.43-.07-.5-.04,.17-.45,0-.53-.26-.53-.26,0-.61,.04-.78-.05-.05-.41-.14-.62-.15-.87l-.42,.47c.5-1.14-.78-.13-.91-.75,.39-.17,.62-.6,.52-.91-.21,.98-1.17,.53-1.46,1.05-.37-.8,.86-.76,1.08-1.42-.69,.27-.27-.84-1.02-.38,.15,.6-.45,.35-.81,.53-.42-.59,.36-.19,.27-.78-.28-.11-1.03-.02-.95,.54-.08-.47-1.09-.34-.89-1.1,.34-.47,.7,.61,.87,.14-.36-.62-.93-.16-1.47-.15-.13-.05-.27-.07-.4-.11-.07-.04-.15-.09-.22-.17,0,.02-.01,.04-.02,.06-.1-.08-.18-.19-.22-.38-.05-.13-.02-.38,.03-.53,.17,.02,.34,.06,.51,.11,.47,.13,.9,.23,1.13-.21l-.47-.25c.29-.03,.78-.14,.94-.42-.32,.11-.47-.1-.55-.33-.06-.24-.05-.49-.14-.5-.55,.12,.27,.26-.17,.36-.28-.36-1.29-.27-1.11-1.12,.48,.29,.71-.35,1.06-.27,.15-.38-.69,.06-.48-.49l.34-.02c-.1-.99-.2-2.1-.31-3.18-.17-1.35-.53-2.65-1.22-3.72,.57-.39,.61-1.19,1.01-2.43-.19,.54-.58,.02-.65-.29l.65-.59c.38-.72-.24-1.67-.61-2.33,.13-.12,.3-.15,.48-.19,.43-.64-.37-.67-.51-.91l.46-.42-.45-.09c-.26-.64-.15-1.5,.59-1.41-.14-.25-.28-.5-.49-.18,.43-.64,.43-2.4,.18-3.56-.19,.55-.41,.5-.87,.55-.78-.17,.15-.26-.31-.72,.29-.01,.59-.54,.8,.03,1-1.54,.2-3.7,.4-5.64-.12-.39-.25-.27-.46-.46,.79-1.22-.04-2.72,.3-4.04-.33,.3-1.24-.12-1.26-.86-.64-.8,.9-.32,1.29-1.04-.3-.36-.38-1.04-.34-1.32l.11,.02c-.34-.44-.54-1.14-.24-1.66l.04,.08c.06-.43,.46-.93,.41-1.38-.6-.2-.23-1.3-.77-1.56,.07-.06,.11,.03,.24-.09l-.51-.04,.29-.89c.2,.19,.42,.24,.56,.49,.35-.95-.47-.32-.75-.82-.37-.67,.14-.63,.35-.95,.26,.27-.12,.49-.03,.65,.41,.38,.16-.4,.46-.42,.02-.14-.6-.2-.48-.69,.06-.42-.1-1.41,.46-1.29-.3-.36-.24-.79-.49-1.06-.1,.34-.25,.97-.6,1.05-.07-.31-.22-.93,.02-1.03l.14,.25c-.14-.25,.03-1.16-.49-.69l.72-.65c-.43-.24-.4-.9-.5-1.43,.57-.02,1.21,.41,1.34-.59l-.58-.86c-.06-.46,.1-.49,.42-.45,.36-1.17-1.47-1.46-.81-2.44,.58,.58,.7,.22,.99-.15-.1-.05-.31-.14-.29-.33-.33,.05,.39,.37-.13,.6-.44,.01-.17-.47-.25-.72,.8-.25,1.11-.88,1.41-1.6,.16-.36,.29-.75,.52-1.08,.21-.34,.45-.64,.8-.8-.7-.42,.15-.68,.12-1.08,.59,.67,.39-.73,1.05-.59l-.73-.49c.49-.12,.53-.62,.62-1.04,.1-.41,.23-.76,.75-.5,.54-.1,.21,.64,.14,.87,.52,.17,.75-.23,1.03-.6,.25-.4,.57-.73,1.01-.37-.09-.35-.52-.77-.09-1.35,.62,.17,1.61,.27,1.57,.47,.31-.26,.36-.57,.82-.37,.01,.24-.15,.31-.25,.45,.33,.01,.6-.08,.86-.22,.26-.14,.5-.39,.78-.57,.21,.33,.58,.39,.99,.41,.5,.04,1.08,.05,1.53,.24,.51-.83,1.47,.33,1.54-.74-.02,.11,.09,.25,.15,.32,.34-.31,.61-1,1.04-1.05l-.14,.7c-.1,.89,1.22,.18,1.35,.62-.37-.6,.49,0,.52-.53l.51-.23c.81-.18,.1-.35,1.09-.45,.57-.04,.19,.81,0,.73,.48,.37,.96,.16,1.45,0-.18,0-.24-.05-.07-.2,.01,.09,.06,.15,.12,.18,.18-.06,.37-.11,.55-.11,0,.02,0,.02,0,.04-.2,.04-.39,.08-.53,.09,.13,.07,.32,.07,.52,.07,.02,.05,.07,.04,.15,0,.17,.01,.32,.04,.42,.15l-.14,.55c.35,.03,1.31-.6,1.28-.84,1.37,.47,3.62,.07,4.54-.23-.18,.13-.2,.3-.02,.12,.47-.11,1-.58,1.05-.22,.46-.23,.43,.38,1.13,.43,.01,.09,.07-.3,0-.44,.76,.46,1.65,.11,2.56-.07,0,.01-.01,.01-.02,.02,.04,0,.05-.02,.09-.03,.19-.04,.39-.06,.58-.07,.2,.17,.4,.38,.66,.12,.04,.04,.04,.1,.04,.15-.08,.12-.17,.27-.24,.37,.06-.01,.12-.03,.17-.04,0,.07,.04,.13,.18,.15,.06-.07,.08-.14,.1-.22,.51-.13,1-.27,1.48-.46,.52-.1,1.1-.33,1.17-.59h0c-.1,.25-.07,.48-.33,.62,.6,0,1.27-.11,1.7-.4-.02,.01-.05,.02-.1,.01-.19-.17-.19-.35-.09-.49,.21-.15,.45-.28,.72-.38,.11-.01,.21-.02,.3,0v.12c.67-.01,.79-.24,1.3-.31,.05,0,.09,0,.14,0h0s.08-.02,.13-.02c.45,.31-.39,.15-.21,.5,.05,.24,.2,.38,.39,.47-.44,.78-2.18,.82-2.57,.34-.86,.84,.68,.1,.52,.92,.78-.07,1.14-.49,2.35-.62,0-.29-.18-.41-.11-.57,.52,.16,1.21,.05,1.31,.11,.06-.07,.14-.13,.21-.2,.16,.23,.26,.47,.37,.49-.16,.1-.37,.13-.53,.22,.71,.29,.96-.28,1.72-.23,.21,1.12-1.21,.13-1.48,.82l.54,.8c1.16,.11,.32-.92,1.51-.63l-.15,.4,.75-.25c.01-.42-.15-1.05-.79-.96,.42-1.08,.59-.15,1.61-.37,.33-.62-.43,.06-.45-.55-.03-.19,.03-.31,.14-.4,.1-.04,.2-.09,.29-.14,.21-.06,.46-.09,.68-.14,.84,0,.43,.66,.77,1.07-.16,.1-.8,.19-.73-.17-1.03,.63,.45,1.28-.27,1.71,.79,.36,.76-.37,1.18-.57-.25-.07,.11-.61-.07-.83,1.37-1.67,.88,1.21,2.19,.92-.18-.7,.63-1.12,.94-1.66,.38,.03,.79,.08,1.18,.15l-.55,.66c.53,.5,1.41,.99,1.7,1.33,.69-.32-.22-.7,.59-.87-.28,.38,.21,.69,.57,.68-.71-.28-.01-1.03,.44-1.21,.35,0,.68,.16,.88,.35,.16,.2,.24,.42,.2,.5-.09,.1-.15,.19-.25,.3l-.34,.31c.51-.53,.27,.27,.63,.07,.11-.39,.37-1,.54-1.51,.37-.18,.55,.42,.67,.34-.2,.12-.38,.21-.57,.36,.69-.08,.02,1.12,.69,.94l.27-.53c.12,.1,.12,.38-.03,.55,.17-.37,.52-.18,.71-.28l-.05,.37c.31-.2,.92-.8,1,0,.05-.93-.31-.14-.66-.68-.06-.36,.1-.48,.3-.51,.2-.01,.43,.07,.5,.04-.17,.45,0,.53,.26,.53,.26,0,.61-.04,.78,.05,.05,.41,.14,.62,.15,.87l.42-.47c-.5,1.14,.78,.13,.91,.75-.39,.17-.62,.6-.52,.91,.21-.98,1.17-.53,1.46-1.05,.37,.8-.86,.76-1.08,1.42,.69-.27,.27,.84,1.02,.38-.15-.6,.45-.35,.81-.53,.42,.59-.36,.19-.27,.78,.28,.11,1.03,.02,.95-.54,.08,.47,1.09,.34,.89,1.1-.34,.47-.7-.61-.87-.14,.36,.62,.92,.16,1.47,.15,.13,.05,.27,.07,.4,.11,.07,.04,.15,.09,.22,.17,0-.02,.01-.04,.02-.06,.1,.08,.18,.19,.22,.38,.05,.13,.02,.38-.03,.53-.17-.02-.34-.06-.51-.11-.47-.13-.9-.23-1.13,.21l.47,.25c-.29,.03-.78,.14-.94,.42,.32-.11,.47,.1,.55,.33,.06,.24,.05,.49,.14,.5,.55-.12-.27-.26,.17-.36,.28,.36,1.29,.27,1.11,1.12-.48-.29-.71,.35-1.06,.27-.15,.38,.69-.06,.48,.49l-.34,.02c.1,.99,.2,2.1,.31,3.18,.17,1.35,.53,2.65,1.22,3.72-.57,.39-.61,1.19-1.01,2.43,.19-.54,.58-.02,.65,.29l-.65,.59c-.38,.72,.24,1.67,.61,2.33-.13,.12-.3,.15-.48,.19-.43,.64,.37,.67,.51,.91l-.46,.42,.45,.09c.26,.64,.15,1.5-.59,1.41,.14,.25,.28,.5,.49,.18-.43,.64-.43,2.4-.18,3.56,.19-.55,.41-.5,.87-.55,.78,.17-.15,.26,.31,.72-.29,.01-.59,.54-.8-.03-1,1.54-.2,3.7-.4,5.64,.12,.39,.25,.27,.46,.46-.79,1.22,.04,2.72-.3,4.04,.33-.3,1.24,.12,1.26,.86,.64,.8-.9,.32-1.29,1.04,.3,.36,.38,1.04,.34,1.32l-.11-.02c.34,.44,.54,1.14,.24,1.66l-.04-.08c-.06,.43-.46,.93-.41,1.38,.6,.2,.23,1.3,.77,1.56-.07,.06-.11-.03-.24,.09l.51,.04-.29,.89c-.2-.19-.42-.24-.56-.49-.35,.95,.47,.32,.75,.82,.37,.67-.14,.63-.35,.95-.26-.27,.12-.49,.03-.65-.41-.38-.16,.4-.46,.42-.02,.14,.6,.2,.48,.69-.06,.42,.1,1.41-.46,1.29,.3,.36,.24,.79,.49,1.06,.1-.34,.25-.97,.6-1.05,.07,.31,.22,.93-.02,1.03l-.14-.25c.14,.25-.03,1.16,.49,.69l-.72,.65c.43,.24,.4,.9,.5,1.43-.57,.02-1.21-.41-1.34,.59l.58,.86c.06,.46-.1,.49-.42,.45-.36,1.17,1.47,1.46,.81,2.44-.58-.58-.7-.22-.99,.15,.1,.05,.31,.14,.29,.33,.33-.05-.39-.37,.13-.6,.44-.01,.17,.47,.25,.72-.8,.25-1.11,.88-1.41,1.6-.16,.36-.29,.75-.52,1.08-.21,.34-.45,.64-.8,.8,.7,.42-.15,.68-.12,1.08-.59-.67-.39,.73-1.05,.59l.73,.49c-.49,.12-.53,.62-.62,1.04-.1,.41-.23,.76-.75,.5-.54,.1-.21-.64-.14-.87-.52-.17-.75,.23-1.03,.6-.25,.4-.57,.73-1.01,.37,.09,.35,.52,.77,.09,1.35-.62-.17-1.61-.27-1.57-.47-.31,.26-.36,.57-.82,.37-.01-.24,.15-.31,.25-.45-.33-.01-.6,.08-.86,.22-.26,.14-.5,.39-.78,.57-.21-.33-.58-.39-.99-.41-.5-.04-1.08-.05-1.53-.24Z"/><path class="cls-3" d="M42.82,79.93h0Z"/><path class="cls-3" d="M47.3,78.98l.13-.03c0-.15-.05-.09-.13,.03Z"/><path class="cls-3" d="M42.82,79.93c-.11,.08-.22,.15-.29,.26,.45,.22,.14-.17,.29-.26Z"/><path class="cls-3" d="M54.28,12.74c.49,0,.59-.15,.23-.45-.1,.17-.26,.26-.23,.45Z"/><path class="cls-3" d="M55.41,11.8s.05,.06,.08,.09c0-.06-.04-.08-.08-.09Z"/><path class="cls-3" d="M54.8,11.49c-.09,.48,.41,.25,.61,.31-.15-.17-.31-.31-.61-.31Z"/><path class="cls-3" d="M63.88,12.51c-.17,.52,.67-.2,.89,.07-.2-.39-.68-.1-.89-.07Z"/><path class="cls-3" d="M68.1,11.98l.13,.44c.21-.03,.48-.29,.23-.45-.16,.1-.21,.03-.35,.01Z"/><polygon class="cls-3" points="76.37 75.6 76.2 75.99 76.55 75.89 76.37 75.6"/><path class="cls-3" d="M44.56,78.44c.08,.05-.06,.6,.39,.38-.54,.05,.02-.42-.39-.38Z"/></g><g><rect class="cls-2" x="22.22" y="20.32" width="50.45" height="50.45" rx="13.57" ry="13.57"/><g><path class="cls-3" d="M57.11,70.01c-.09,.1-.04,.33,.21,.27l.17-.39-.37,.12Z"/><path class="cls-3" d="M58.81,70.61c.28-.23,.56-.6,.33-.92-.23,.4-.31,.28-.58,.73-.25,.06-.44-.1-.41-.24-.08,.1-.38-.06-.51,.18,.33,.27,.76,.28,1.16,0,.1,.07,.02,.18,0,.25Z"/><path class="cls-3" d="M73.21,53.11l-.05,.16s.04-.1,.05-.16Z"/><path class="cls-3" d="M73.42,37.73c0,.12,.05,.17,.08,.17-.02-.11-.05-.2-.08-.17Z"/><path class="cls-3" d="M73.79,35.05l-.02,.17c.03-.06,.05-.13,.02-.17Z"/><path class="cls-3" d="M73.21,53.11l.12-.41c-.12-.03-.09,.21-.12,.41Z"/><path class="cls-3" d="M61.83,69c-.07,.05-.12,.1-.17,.17l.17-.11v-.06Z"/><path class="cls-3" d="M72.78,60.07l-.04,.12s.07,.1,.11,.15l-.07-.27Z"/><path class="cls-3" d="M70.34,64.97c.09-.09-.15-.32-.24-.43,.07,.13,.06,.24,.02,.34,.05,.04,.12,.07,.22,.09Z"/><path class="cls-3" d="M63.37,69.82s-.08,.07-.12,.1c.03-.02,.09-.06,.12-.1Z"/><path class="cls-3" d="M73.53,56.22s.09-.02,.12-.04c-.04,0-.08,.02-.12,.04Z"/><path class="cls-3" d="M51.08,69.26s0,.04,0,.06c.03-.03,.04-.06,0-.06Z"/><path class="cls-3" d="M57.11,70.85l-.08,.02c0,.06-.02,.12-.02,.18l.1-.2Z"/><path class="cls-3" d="M73.14,29.87v.02c.08,.12,.05,.05,0-.02Z"/><path class="cls-3" d="M31.49,20.21c.6,.08-.67,.65,.2,.66-.12-.09,.5-.72-.2-.66Z"/><path class="cls-3" d="M61.96,68.99c.06-.03,.12-.05,.19-.07-.09,.02-.15,.04-.19,.07Z"/><path class="cls-3" d="M31.69,20.87h0Z"/><path class="cls-3" d="M65.24,21.01c0,.06,.01,.12,.04,.19,.01-.03,0-.08-.04-.19Z"/><path class="cls-3" d="M71.23,27.41l-.08-.21c.02,.09,.05,.15,.08,.21Z"/><path class="cls-3" d="M60.79,19.82c-.11-.05-.14-.11-.3-.1,.01,.02,.02,.03,.04,.05,.07-.03,.15-.03,.26,.05Z"/><path class="cls-3" d="M56.15,19.39s.05,.04,.08,.06l.14-.02-.22-.05Z"/><path class="cls-3" d="M37.55,69.4c.09,.1,.14,.2,.19,.3-.07-.23,.56-.3-.19-.3Z"/><path class="cls-3" d="M61.89,69.17c0-.09,.02-.14,.07-.17l-.13,.06s.02,.09,.05,.11Z"/><path class="cls-3" d="M60.06,22.26c-.2-.08-.41-.1-.62-.16,.17,.06,.4,.09,.62,.16Z"/><path class="cls-3" d="M23.53,47.4l.04,.16c0-.06,0-.12-.04-.16Z"/><path class="cls-3" d="M57.57,21.96c-.11-.12-.23-.19-.36-.24-.03,.02-.06,.04-.08,.08l.43,.16Z"/><path class="cls-3" d="M37.74,69.7h0Z"/><path class="cls-3" d="M42.4,68.94c-.68,0-.32,.41-.46,.66-.81,.12-.37-.31-.65-.53-.5,.11-.89,.5-1.26,.48-.03-.07-.1-.1-.02-.18-.53,.34-1.58,.02-2.2,.44-.05-.04-.07-.08-.08-.11,.09,.22,.11,.43,.09,.58-.29,0-.55,.24-.65-.04,.18,.02,.2-.09,.28-.18l-.31,.1c-.25-.41,.42-.12,.42-.41-.57,.09-1.3,.43-1.74,.22-.02-.2,.24-.19,.44-.19,.2-.02,.34-.03,.06-.22l.67,.18c-.48-.64,.41,.06-.03-.62-.85-.13-.99,.09-1.83-.13-.24,.18,0,.32-.23,.51-1.35,.05-.73-1.15-1.73-.96-.3,.16-.57,.59-1.11,.12l.38-.33c-.76-.37-.71,.37-1.4-.28,.23-.08,.68,.16,.58,.06-.37-.57-.49,.06-.89-.16l.11-.39c-.81-.4-1.81-.73-2.64-1.37,.12-.05,.33-.02,.23-.27-1.13-.66-1.87-2-2.35-3.11l-.53-.22c-.05-.1,.03-.25,.14-.18-.14-.47-.2,.09-.43-.04-.16-.22-.02-.4,.16-.3-.33-.29-.72-.78-1.05-1.31-.26-.56-.53-1.14-.43-1.63l.14,.14c-.03-.7-.89-.59-.7-1.31l.08,.11c-.17-1.52-.44-3.2,.06-4.5-.48-.24,.22-1.62-.46-1.73,.34-.94,.46-.67,.68-1.99,.03-.35-.42-.53-.49-.96h.35l-.37-.6,.42-.31-.09-.41c-.02,.16-.16,.35-.26,.32-.16-.64,.25-1.56,.43-1.57l-.3-1.51c.14,.03,.19,.29,.28,.49-.36-.81,.37-.15,.04-.89-.08,.1-.21-.05-.28-.07,.21-.37,.22-1.21,.13-1.83l.24,.12c.06-1.12-.12-2.36-.11-3.62-.11,.45-.54,.35-.58-.02l.37-.15c-.23-.24-.14,.39-.42-.1,.04-.47,.42-.32,.55-.05l-.13-.57c.11-.03,.17,.1,.31,.14-.23-.23,.37-.99-.03-1.32l.11-.03c0-1.29-.1-1.72-.04-2.66-.32-.06-.19-.41-.41-.73,.09-.34,.25-.68,.43-1.03,.18-.35,.29-.73,.44-1.11,.05-.6-.2-.25-.29-.57,.29,.06,.55-.73,.6-.25,.35-.94,.45-1.19,.91-2.39-.17,.05-.3,.16-.34,.04,.08-.23,.38-.39,.48-.29v.07c.22-.71,.88-1.29,1.57-1.71,.65-.47,1.33-.78,1.54-1.4l-.03,.06,.75-.96c.46-.28-.13,.38,.29,.29,.39-.54,.83-.79,1.26-.99,.45-.16,.85-.32,1.27-.67,.55,.28,1.16-.03,1.87-.23,.68-.27,1.45-.44,2.01-.26l-.08-.19c.25-.25,.35,.08,.55,.12-.04-.16-.32-.17-.15-.29,1.13-.21,2.52-.11,3.86,.02,1.35,.13,2.7,.31,4.03,.4,.97,.05,.55-1.06,1.78-.57l-.35,.38c1.96-.45,4.01,.02,5.93-.37-.11,.09-.12,.2-.31,.2,.41,.28,1.5,.01,1.51-.21,.3,.03,.07,.2,.25,.32,.41,.16,1.02-.35,1.24-.08,.04,.04-.11,.09-.19,.11,.27-.13,1.23,.03,.98-.28,.72,.15,1.39-.15,1.94,.05,.35-.34,1.11,.23,1.26-.27-.08,.49,1.08,.58,1.55,.4-.17,.12,.32,.25,.11,.42,.45,.11,.89,.12,.89-.15,.35,.38,.77,.46,1.18,.48,.41,.02,.76,.11,.81,.58,1.39,.31,2.6,.94,3.67,1.68-.34,.33-1.16-.85-1.43-.37,.54,.27,1.03,.42,1.45,.66,.44,.22,.86,.5,1.21,1.01,.16,.28-.29,.02-.42,0,.24,.19,.46,.39,.67,.6,.18,.23,.35,.46,.52,.69,.36,.44,.61,.93,1.03,1.32-.04,.02-.15-.05-.24-.13,.13,.17,.19,.46,.39,.33l-.16-.15c.06-.23,.33-.14,.6,.02,.26,.17,.52,.4,.61,.38-.77-.04,.33,1.07-.71,.89,.11,.11,.28,.22,.41,.14,.03,.22-.03,.31-.27,.18,.38,.67,.52,.33,.76,.99-.11,.03-.2-.09-.35-.11,.35,.25,.62,.55,.69,1.16-.08-.02-.15,.07-.19-.1,.16,.48,.37,.88,.55,1.32,.09,.22,.18,.44,.24,.68,.03,.24,.04,.51,0,.8-.51-.31-.14,.39-.57,.46,.06,.19,.1,.4,.14,.62l.21-.26c0,.56,.3,1.06,.16,1.54l-.18-.42,.08,1.05,.16-.6c.22,.57,.54-.06,.42,.69-.04-.15,0,.56-.26,.85h0c.14,.28,.28,.56,.17,.98-.14,.11-.47-.09-.56-.02,.36,.27,.1,1.32,.48,1.66-.09-.12-.31-.12-.36-.08l.29,.23c-.09,.26-.14,.3-.32,.26-.05,.78,.54-.25,.31,.68-.02-.07-.07-.04-.11-.19-.12,.93,.18,1.8,.04,2.66-.43,.25-.11-.75-.47-.46,.08,1.24,.52,2.56,.41,3.76l.05-.22c.61,.17-.3,.89-.01,1.5-.05-.15-.34-.19-.27-.15-.1,.82,.15,1.68,.34,2.92l-.16-.15c-.14,.48-.08,1.27-.15,1.79,.16,.15,.13,.45,.36,.27-.43,.83-.38,1.51-.27,2.25,.02,.71,.11,1.47-.45,2.04,.04-.16-.04-.41-.07-.28-.05,.38-.09,.77-.15,1.15,.29,0,.19-.1,.46-.28,.12,.19,.14,.55,.03,.83,.02-.56-.41-.13-.62,.03,.09,0,.15,.1,.23,.11-.66,.41,.48,.3-.14,.97l-.11-.1c-.07,.31-.04,.66-.22,.96-.34-.01,.02-.37-.2-.5-.18,.43,.1,1.13-.41,1.35,.03-.22,.19-.47,.21-.69-.55,.24-.5,.32-.73,.58l.02-.02c-.19,.2-.36,.4-.56,.58,.07-.03,.13-.07,.19-.11,.3,.93-.56,1.08-.71,2,.16-.91-.13-.28-.35-.56-.21,.09-.49,.24-.51,.11-.05,.46-.55,.31-.66,.94-.09-.07-.3,.26-.43,0-.29,.38,.21,.07,.28,.2-.15,.39-.55,.62-1,.81-.44,.21-.89,.45-1.22,.94-.67,.68-.68,1.06-1.41,1.63-.34-.03,.05-.48,.05-.48-.49,.07-.82,.21-1.2,.49,.05-.12-.07-.17-.23-.24-.33,.14-.09,.48-.6,.46,.04-.14,.09-.36,.2-.54-.36,.24-.71,.51-1.11,.73-.16-.16,.19-.35,.3-.51-.22,.1-.51,.22-.76,.36-.26,.11-.47,.24-.52,.41l.34,.06c-.18,.04-.14-.25-.02-.32,.37-.29,.61-.03,.66,.08l-.29,.15c.46,.54,1.23-.38,1.81-.58l-.1,.54,.49-.6c.17,.07,.36,.28,.08,.46,.53,.05,.33-.29,.8-.21,.06,.02,.05,.05,.02,.08l.36-.33c-.04,.13,.21,.27-.08,.33,.89-.12,1.06-.9,1.49-.76l-.05,.06c.91-.74-.08-.36,.43-1.15,.32,.15,.63,.26,.96,.38l-.11-.35c.1-.06,.31-.18,.36-.04,.21-.46-.15-.08-.08-.41,.68-.07,1.07-1.14,1.56-.8-.03-.33-.55,.22-.22-.32,.56,.32,.41-.58,.96-.77,.12,.32-.34,.59,.22,.38-.09-.3,.11-.46,.35-.62,.23-.17,.51-.32,.61-.53-.31-.26,.45-.88,.7-1.61,.04,.05,.3-.21,.55-.58,.25-.38,.54-.84,.76-1.13l.06,.05c-.33-.29-.02-.94,.08-1.46,.23,.1,.29,.22,.3,.53l.17-.47c-.08-.15-.12-.32-.08-.65l.27,.21c.16-.67,0-1.38,.3-2.2-.28-.08-.91,.52-.97-.35,.16-.01,.44,0,.47,.23,0-.08-.09-.28,0-.42l.21,.38c.17-.36-.19-.23-.12-.52,.23,.03,.18-.21,.35-.15,.02,.08-.12,.26-.05,.38,.11-.34,.23-.75,.42-.88-.13,.02-.3-.02-.32-.28,.02-.66,.28-.22,.42-.61-.14-.17,0-.56-.33-.58,0-.19,.16-.22,.25-.29-.15-.33-.04-1.54-.4-1.17l-.02,.08v-.05h-.01c-.34-1.08,.19-2.24,.05-3.32h.11c-.13-.64-.08-1.42-.32-1.88,0-.19,.21-.45,.34-.37-.09-.49-.21-.54-.03-1.25,.2,.49,.18-.17,.14,.5,.1-.64,.28-.78-.03-1.46,.29,.23,.37-.48,.28-.78l-.21,.45c-.04-.34-.02-.64,0-.94l.38,.16c.46-1.3-.79-2.35-.01-3.34-.27-.34-.19,.71-.5,.4,.05-.6,.6-1.22,.6-1.41,.21-.82-.56-.76-.41-1.62-.14,.11-.5,.21-.63-.43,.05-.6,.57-.74,.68-.36,.01,.14-.03,.21-.08,.21,.05,.19,.11,.45,.26,.21l-.14-.08c.14-.3,.12-1.12,.35-.93-.13-.45-.22-.19-.29,.14,.19-.78,.03-1.17,.11-2.03-.07,.14-.22,.26-.23,.13,.1-1.23-.26-.53-.41-1.33,.14-.49,.52,.11,.22-.7,.06-.53,.34-.17,.48,.02-.35-.73-.1-1.47-.18-1.93l.21,.38c-.13-.23-.18-.43-.23-.63l-.2,.3c-.01-.25-.07-.45,.04-.48-.24-.19-.38,.31-.75-.08,.02-.34-.47-.84-.17-1.07,.23,.98,.3-.24,.65,.55-.1-.14-.17-.33-.21-.58,.03-.05,.08,0,.12,.06-.04-1.05-.52-.28-.94-1.18,.24,.03,.25-.38,.13-.51,.18,.37-.22,.32-.52,.07-.14-.65-.45-.54-.59-.83l.13,.36c-.24,0-.38-.29-.66-.62,.11-.12,.3,.28,.28,.11-.53-.22-.3-1.12-.91-1.53-.08-.34,.28-.26,.18-.55-.71-.42-.36-.82-1.07-1.29-.04,.37,.05,.33-.55,.13,.37,.25,.69,.55,1.05,.83l-.86-.36c.26,.29,.69,.5,.81,.71-.44-.15-.36-.16-.4,.12-.06-.67-.86-.63-1.13-1.22l.48-.48c-.51-.89-1.51-.86-2.41-1.68,.09,.1,.19,.2,.27,.31-.28,.12-.66-.37-1.05-.48,.15-.18-.02-.38-.1-.59-.05,.14-.81-.43-1.11-.07l-.37-.51c-.89-.49-1.29,.18-2.14-.18,.34-.15-.02-.45,.64-.41-.3-.12-.57-.21-.62-.07-.15-.19-.93,.08-1.16-.21-.15,.06-.24,.3-.58,.22-.03-.05,.02-.11,.02-.11-.02,.11-.56,.07-.3,.36-.84-.9-2.66-.18-3.42-.78-.65,.08-1.44,.15-2.04,.17,.04-.07,0-.11,.11-.09-.82-.21-.5,.65-1.44,.41-.48-.37,.5-.2,.2-.34-.13-.74-1.13,.1-1.75-.33l.15-.04c-.48-.25-1.17,.28-1.95,.23,0,0,.04-.07,0-.11-.54,.38-1.55,.51-2.3,.61,.23-.29,.34-.15,.2-.45-.34,.04,.1,.48-.58,.56-.22-.16-.71-.3-.77-.62l.64-.02c-.33-.41-.82,.01-1.16-.06l.04-.18c-.98,.06-.99,.51-2.04,.48l.11,.14c-.57,.45-.48-.25-1.05,.08l-.17-.45c-.38,.11-1.32,.44-2,.52,.38-.34,1.18-.51,1.67-.71-.37,0-1.27,.03-1.47,.26,.15-.04,.34-.15,.49-.08-.46,.36-1.06,.53-1.81,.52,.12-.88-1.91-.24-2.56-.85-1.38,.39-2.83,.2-4.42,.78,.77,.45-.45,.18-.11,.81-.33,.17-.47,.21-.52,.18-.41,0-.8,.06-1.21,.09-.34-.06,.26-.3,.16-.43-.79,.32-.45-.11-1.06-.02,.22,.16-.1,.45-.56,.63l.75-.07c-.8,.95-1.22-.01-2,1.02l.18-.41c-.21,.24-.68,.58-1.1,.98-.39,.43-.74,.89-.77,1.29-.14,.01-.38-.02-.21-.24-1.13,1.02-1.71,2.82-2.52,3.63l-.09-.18c-.1,.26,.03,.56-.29,.78-.05-.05-.1-.18-.17-.07-.01,.16-.05,.79-.3,1.07l-.04-.36c-.44,.6-.51,1.18-.53,1.72-.04,.54,.03,1.06-.05,1.64-.24-.06-.48,.17-.67,.49-.18,.32-.3,.74-.38,1.02l-.07-.03c-.19,.84-.07,1.58,.02,2.27,.12,.67,.3,1.27,.4,2-.55,.89-.23,3-.54,4.42,.09-.22,.39,.04,.44,.29-.1,.33,.35,.92-.11,.87v-.12c-.45,.25-.32,.94-.34,1.47l.61,.09c-.88,1.4,.32,3.67-.47,4.44,.15,.34,.15,.76,.3,1.09l-.32-.02c-.08,.94-.12,1.4-.05,2.56l-.23-.24c-.02,.65,.94,.82,.96,1.43l-.48,.18c0,.57-.11,1.13-.12,1.77-.03,.62,.02,1.25,.35,1.82-.07,0-.22-.02-.27-.22,.04,.29,.03,.87,.14,1.33,.12,.46,.3,.79,.59,.6-.21,.06-.14,.38,.03,.74,.19,.36,.5,.76,.7,1.03l-.33,.02c.57,.38,.68,.35,1.11,.98,.04,.18-.16,.25-.19,0,.12,.62,.45,.3,.66,1l-.32-.13c.3,.55,.37,.45,.75,.62,.29,.27,.57,1.01,.4,1.25,.19-.03,.58,.09,.73,.43-.06,.11-.19,.04-.25,.01,.51,.95,1.27,.92,1.56,1.62-.06,.09-.06,.16-.04,.22-.62-.56-1.01-1.11-.97-1.06-.22,.19,.21,.74-.47,.61,.53,.3,1.55,.57,1.94,1.11,0,.04,.01,.09,0,.14l-.07-.02c.09,.13,.21,.2,.35,.23,.14,.16,.23,.27,.39,.4-.08,.23,.55,.6,.84,.78,.15-.28,.5-.01,.29-.45,.03,.04-.08,0-.27-.11-.05-.02-.1-.05-.13-.06h.03c-.18-.14-.41-.3-.68-.49,.31,.03,.61,.08,.8,.44,.25-.07,.53-.16,.67-.19,.13,.6,.76,1.3,.76,1.57,.52,.14,1.06,.41,1.62,.52,.56,.11,1.08,.17,1.47-.02,.3,0,.27,.25,.35,.37-.18,.02-.37-.04-.48,.02,.61-.01,1.68,.4,1.9-.04,.68,.3-.47,.32,.52,.4l-.15,.11c.93,.52,1.8,.24,2.61,.05,.78-.25,1.59-.47,2.63-.03-.14-.05-.21-.08-.24-.15,2.36,.38,4.86-.36,7.18,.25,.66,.12,.73-.15,1.14-.35l.14,.35,.69-.4c.98-.29,1.69,.85,2.93,.3l-.16-.23c.44,.04,1.41-.14,1.33,.13,.05-.04,.15-.24,.32-.12v.18l1.11-.31c.85,.13-.13,.72,1.1,.75,.46-.07,1.31-.53,1.14-.65-.19,0-.47-.11-.49-.29l.42-.09c.08-.53,.4-1.08-.63-1.45l-.72,.33-.23-.26,.6-.02c-.34-.24-.56-.03-.8,.12-.06-.14-.16-.23-.3-.29l-.71,.51c-.09-.21,.32-.41-.16-.53-.33,.24,.32,.47-.23,.62-.34-.24-.24-.44-.65-.23-.06-.14,.03-.23,.19-.29-.36,.16-.95,.07-1.14,.35-.36-.3-1.21,.08-1.18-.43-.11,.12-.63,.4-.96,.42,.6-.6-1.24-.04-1.08-.68-.45,.54-1.61,.24-2.4,.54,.04-.04,.13-.13,.2-.1-.44-.05-.57-.21-.86-.31-.06,.45-.75,.55-1.12,.83-.55-.43,.33-.53,.16-.94,.03,.36-.95,.36-.76,.67-.42-.27-.36-.13-.57-.5-.07,.56-.39,.09-.73,.44-.6-.28-.16-.53-.82-.36-.32-.17,.27-.37,.27-.37Zm-14.26-2.66h0l.24,.19-.24-.19Zm-.91-.85c.09,.13,.22,.26,.38,.39-.04,.11-.16,.16-.25,.07,.1,0-.08-.25-.13-.46Zm.7,3.54c-.21-.1-.23-.2-.22-.27,.09,.06,.2,.13,.34,.21l.04-.02c-.05,.04-.11,.07-.17,.08Z"/><path class="cls-3" d="M28.49,68.86s.05,.01,.09,.03l-.07-.14-.12,.04,.1,.07Z"/><path class="cls-3" d="M73.15,53.3v-.03s-.02,.04-.04,.06c.02-.02,.03-.02,.04-.03Z"/><polygon class="cls-3" points="23.69 48.88 23.61 48.88 23.68 48.99 23.69 48.88"/><path class="cls-3" d="M71.15,60.27s-.07,.02-.11,.06c.02,0,.06-.02,.11-.06Z"/><path class="cls-3" d="M69.78,62.95l-.32,.3c.15-.12,.25-.22,.32-.3Z"/><path class="cls-3" d="M68.3,64.73c.02,.06,.05,.09,.07,.12h0l-.08-.12Z"/><path class="cls-3" d="M69.46,28.65s-.04-.05-.06-.07c-.16-.14-.07-.04,.06,.07Z"/><path class="cls-3" d="M72.19,39.11c-.06-.12-.12-.24-.15-.37-.02,.2-.03,.36,.15,.37Z"/><polygon class="cls-3" points="60.13 22.28 60.13 22.27 60.06 22.26 60.13 22.28"/><path class="cls-3" d="M72.04,38.21c-.06,.2-.05,.37,0,.53,.02-.17,.05-.36,0-.53Z"/><path class="cls-3" d="M59.87,69.49h-.11s0,.04,0,.06l.11-.06Z"/><path class="cls-3" d="M59.76,69.55l-.11,.06c.06,0,.1-.02,.11-.06Z"/><path class="cls-3" d="M59.4,69.72l.24-.12c-.09,.01-.2,.02-.24,.12Z"/><path class="cls-3" d="M62.8,68.77v-.12s-.02,.07,0,.12Z"/><path class="cls-3" d="M63.61,68.34c-.21,.07-.6,.01-.84,.21v.1c.07-.22,.73-.04,.84-.31Z"/><path class="cls-3" d="M67.74,67.3c-.23,.17-.45,.34-.7,.47,.19,0,.46,.02,.17,.28,1.08-.38-.33-.05,.54-.75Z"/><path class="cls-3" d="M69.71,65.54c-.26,.38,.15,.11,.18,.17,.09-.31,.11-.38-.18-.17Z"/><path class="cls-3" d="M73.41,47.58l.29,.04c-.04-.34-.11,0-.29-.04Z"/><polygon class="cls-3" points="71.9 44.09 71.71 44.41 71.98 44.57 71.9 44.09"/><polygon class="cls-3" points="73.98 42.02 74.03 42.17 73.92 41.6 73.98 42.02"/><path class="cls-3" d="M56.95,19.11l.1,.36c.24-.06,.28-.47-.1-.36Z"/><path class="cls-3" d="M43.67,19.48c-.14-.18-.52-.3-.75-.12,.3,.02,.6,.17,.75,.12Z"/><polygon class="cls-3" points="20.8 45.36 20.67 45.09 20.78 45.59 20.8 45.36"/></g></g></g><g><path class="cls-5" d="M655.5,85h-1c-2.76,0-5-2.24-5-5s2.24-5,5-5h1c2.76,0,5,2.24,5,5s-2.24,5-5,5Z"/><path class="cls-5" d="M624.5,85h-1c-2.76,0-5-2.24-5-5s2.24-5,5-5h1c2.76,0,5,2.24,5,5s-2.24,5-5,5Z"/><path class="cls-5" d="M593.5,85h-1c-2.76,0-5-2.24-5-5s2.24-5,5-5h1c2.76,0,5,2.24,5,5s-2.24,5-5,5Z"/><path class="cls-5" d="M562.5,85h-1c-2.76,0-5-2.24-5-5s2.24-5,5-5h1c2.76,0,5,2.24,5,5s-2.24,5-5,5Z"/><path class="cls-5" d="M531.5,85h-1c-2.76,0-5-2.24-5-5s2.24-5,5-5h1c2.76,0,5,2.24,5,5s-2.24,5-5,5Z"/><path class="cls-5" d="M500.5,85h-1c-2.76,0-5-2.24-5-5s2.24-5,5-5h1c2.76,0,5,2.24,5,5s-2.24,5-5,5Z"/><path class="cls-5" d="M469.5,85h-1c-2.76,0-5-2.24-5-5s2.24-5,5-5h1c2.76,0,5,2.24,5,5s-2.24,5-5,5Z"/><path class="cls-5" d="M438.5,85h-1c-2.76,0-5-2.24-5-5s2.24-5,5-5h1c2.76,0,5,2.24,5,5s-2.24,5-5,5Z"/><path class="cls-5" d="M407.5,85h-1c-2.76,0-5-2.24-5-5s2.24-5,5-5h1c2.76,0,5,2.24,5,5s-2.24,5-5,5Z"/><path class="cls-5" d="M376.5,85h-1c-2.76,0-5-2.24-5-5s2.24-5,5-5h1c2.76,0,5,2.24,5,5s-2.24,5-5,5Z"/><path class="cls-5" d="M345.5,85h-1c-2.76,0-5-2.24-5-5s2.24-5,5-5h1c2.76,0,5,2.24,5,5s-2.24,5-5,5Z"/><path class="cls-5" d="M314.5,85h-1c-2.76,0-5-2.24-5-5s2.24-5,5-5h1c2.76,0,5,2.24,5,5s-2.24,5-5,5Z"/><path class="cls-5" d="M283.5,85h-1c-2.76,0-5-2.24-5-5s2.24-5,5-5h1c2.76,0,5,2.24,5,5s-2.24,5-5,5Z"/><path class="cls-5" d="M252.5,85h-1c-2.76,0-5-2.24-5-5s2.24-5,5-5h1c2.76,0,5,2.24,5,5s-2.24,5-5,5Z"/><path class="cls-5" d="M221.5,85h-1c-2.76,0-5-2.24-5-5s2.24-5,5-5h1c2.76,0,5,2.24,5,5s-2.24,5-5,5Z"/><path class="cls-5" d="M190.5,85h-1c-2.76,0-5-2.24-5-5s2.24-5,5-5h1c2.76,0,5,2.24,5,5s-2.24,5-5,5Z"/><path class="cls-5" d="M159.5,85h-1c-2.76,0-5-2.24-5-5s2.24-5,5-5h1c2.76,0,5,2.24,5,5s-2.24,5-5,5Z"/><path class="cls-5" d="M128.5,85h-1c-2.76,0-5-2.24-5-5s2.24-5,5-5h1c2.76,0,5,2.24,5,5s-2.24,5-5,5Z"/><path class="cls-5" d="M97.5,85h-1c-2.76,0-5-2.24-5-5s2.24-5,5-5h1c2.76,0,5,2.24,5,5s-2.24,5-5,5Z"/></g><g><path class="cls-5" d="M655.5,19h-1c-2.76,0-5-2.24-5-5s2.24-5,5-5h1c2.76,0,5,2.24,5,5s-2.24,5-5,5Z"/><path class="cls-5" d="M624.5,19h-1c-2.76,0-5-2.24-5-5s2.24-5,5-5h1c2.76,0,5,2.24,5,5s-2.24,5-5,5Z"/><path class="cls-5" d="M593.5,19h-1c-2.76,0-5-2.24-5-5s2.24-5,5-5h1c2.76,0,5,2.24,5,5s-2.24,5-5,5Z"/><path class="cls-5" d="M562.5,19h-1c-2.76,0-5-2.24-5-5s2.24-5,5-5h1c2.76,0,5,2.24,5,5s-2.24,5-5,5Z"/><path class="cls-5" d="M531.5,19h-1c-2.76,0-5-2.24-5-5s2.24-5,5-5h1c2.76,0,5,2.24,5,5s-2.24,5-5,5Z"/><path class="cls-5" d="M500.5,19h-1c-2.76,0-5-2.24-5-5s2.24-5,5-5h1c2.76,0,5,2.24,5,5s-2.24,5-5,5Z"/><path class="cls-5" d="M469.5,19h-1c-2.76,0-5-2.24-5-5s2.24-5,5-5h1c2.76,0,5,2.24,5,5s-2.24,5-5,5Z"/><path class="cls-5" d="M438.5,19h-1c-2.76,0-5-2.24-5-5s2.24-5,5-5h1c2.76,0,5,2.24,5,5s-2.24,5-5,5Z"/><path class="cls-5" d="M407.5,19h-1c-2.76,0-5-2.24-5-5s2.24-5,5-5h1c2.76,0,5,2.24,5,5s-2.24,5-5,5Z"/><path class="cls-5" d="M376.5,19h-1c-2.76,0-5-2.24-5-5s2.24-5,5-5h1c2.76,0,5,2.24,5,5s-2.24,5-5,5Z"/><path class="cls-5" d="M345.5,19h-1c-2.76,0-5-2.24-5-5s2.24-5,5-5h1c2.76,0,5,2.24,5,5s-2.24,5-5,5Z"/><path class="cls-5" d="M314.5,19h-1c-2.76,0-5-2.24-5-5s2.24-5,5-5h1c2.76,0,5,2.24,5,5s-2.24,5-5,5Z"/><path class="cls-5" d="M283.5,19h-1c-2.76,0-5-2.24-5-5s2.24-5,5-5h1c2.76,0,5,2.24,5,5s-2.24,5-5,5Z"/><path class="cls-5" d="M252.5,19h-1c-2.76,0-5-2.24-5-5s2.24-5,5-5h1c2.76,0,5,2.24,5,5s-2.24,5-5,5Z"/><path class="cls-5" d="M221.5,19h-1c-2.76,0-5-2.24-5-5s2.24-5,5-5h1c2.76,0,5,2.24,5,5s-2.24,5-5,5Z"/><path class="cls-5" d="M190.5,19h-1c-2.76,0-5-2.24-5-5s2.24-5,5-5h1c2.76,0,5,2.24,5,5s-2.24,5-5,5Z"/><path class="cls-5" d="M159.5,19h-1c-2.76,0-5-2.24-5-5s2.24-5,5-5h1c2.76,0,5,2.24,5,5s-2.24,5-5,5Z"/><path class="cls-5" d="M128.5,19h-1c-2.76,0-5-2.24-5-5s2.24-5,5-5h1c2.76,0,5,2.24,5,5s-2.24,5-5,5Z"/><path class="cls-5" d="M97.5,19h-1c-2.76,0-5-2.24-5-5s2.24-5,5-5h1c2.76,0,5,2.24,5,5s-2.24,5-5,5Z"/></g></g></g></svg>