<?xml version="1.0" encoding="UTF-8"?><svg id="_イヤー_2" xmlns="http://www.w3.org/2000/svg" viewBox="0 0 1139.92 91.1"><defs><style>.cls-1{fill:#fff;}.cls-2{fill:#88c1d8;}.cls-3{fill:#95c8dc;}.cls-4{fill:#eda184;}</style></defs><g id="_イヤー_1-2"><g><path class="cls-1" d="M1139.92,15.28c-.08,.18-.14,.21-.2,.12-.12-2.3-.2-4.1,.09-5.48l.05,.66c-.13-5.29-.28-5.73-.47-5.71-.09,.01-.19,.12-.31-.13,0-.1,.02-.19,.03-.29l.03-.29,.03-.49c.02-.35,.04-.71,.06-1.07,.03-.75,.07-1.52,.11-2.34-1.15-.02-2.39-.03-3.75-.05-1.04,0-2.16-.01-3.41-.02-1.81,0-3.96,.03-6.61,.1l5.06-.25c-8.2,.15-30.26,0-38.31,.64-1.45-.09-3.37-.31,.24-.37-19.61-.1-43.64,.69-58.88,.29l1.49-.2c-3.66,.06-6.37,.37-10.95,.17,.24-.08,1.47-.2-.22-.21-1.94,.07-9.72,.35-14.56,.23l4.14-.22c-16.64-.22-26.55,.35-39.4,.59-1.4,.02-2.82,.04-4.26,.06-.57,0-1.14,.01-1.72,.02,.04-.58-15.01-.77-22.52-.86l.26-.08c-22.27-.07-37.83,.48-58.45,.71-12.8-.63-43.36-.26-63.93-.62,3.15,.11-.51,.45-4.17,.51-4.83-.12-13.35,.4-12.58-.13h1.72c-3.64-.51-13.56-.37-21.31-.39l-1.28,.7c-8.75-.44-19.84-.43-30.5-.35-6.09-.08-11.8,.01-17.22,.13-5.86,.02-10.92-.01-14.52-.2l1.24-.02,2.14-.05-3.57,.05c-.61-.03-1.2-.07-1.72-.11-4.89,.17-10.95,.17-15.79,.35l.26-.37c-13.55-.1-20.31-.14-37.06-.05L672.61,0c-5.94-.01-9.13,.41-12.84,.74-4.02-.05-7.51-.11-5.86-.26-5.6,.13-3.66,.23,.05,.3-1.3-.02-2.53-.04-3.71-.05l-.9-.19c-16.48,0-33.16-.48-49.44,.02,.08-.02,.19-.06,.36-.09,.7-.04,1.43-.07,2.03-.1-.53,.02-1.05,.02-1.57,.03,.49-.05,1.28-.1,2.61-.11-4.81,0-15.19-.15-21.72-.08-1.74-.05-3.33-.09-4.75-.1L582.35,0c-3.28,.08-5.97,.07-8.71,.07l3.12,.31h-.01c-3.21-.05-5.92-.05-5.86-.18-1.25,.08-1.2,.17-1,.27-3.33,.02-7.54,.1-11.58,.19-.27-.12-2.17-.29,1.34-.36-1.65,0-3.48,0-5.56-.04-.48-.05,.46-.09,1.34-.11-12.93-.37-5.94,.47-19.34,.46,1.7-.23-3.11-.44-5.29-.39,5.4,0,2.58,.39-2.37,.57-8.59-.18-9.34,.14-13.84,.11l2.4,.04c-3.29,.03-4.07,.13-6.64,.3-.85,0-1.72,.02-2.65,.03-.51-.18,5.44-.13,3.3-.21-6.65,.41-15.03-.43-24.3-.15-4.3-.16-.42-.44-4.19-.55-8.28,.24-10.52-.1-16.61-.13,.44-.05,1.12-.11,2.18-.18-1.58,.05-3.41,.12-5.38,.2-.74,0-1.52,.02-2.38,.04,.12,.01,.22,.02,.33,.03-2.71,.1-5.63,.19-8.57,.27l.02-.05c-5.56-.15-10.58-.1-15.84,0-.35,0-.69,.01-1.03,.02-.67,.01-1.35,.03-2.04,.04-2.73-.05-4.53-.09-7.19-.1-1.05-.28-10.49-.15-15.05-.17,.37,.37-5.44,.31-.16,.61-.13-.02,1.41-.04,4.06-.05,.68-.01,1.47-.02,1.93-.04h.01c-.09,0-.19,.02-.3,.03,.42,0,.9,0,1.35,0-.49,.07-1.25,.1-2.19,.13-.08,0-.15,0-.24,0l-.18,.02c-3.47,.06-9.06-.06-13.14,.03,.5-.26-2.88-.36-5.2-.52,.14,.09-2.75,.09-5.93,.13-.91-.06-1.57-.11-1.88-.17-13.84,.21-32.57,.14-41.39,.82,2.93-.26-2.05-.44,6.25-.63-4.34,0-8.24-.05-8.31,.13-2.53-.16-12.03,.35-16.01,.1-.74,.05-1.29,.12-1.99,.19-1.77,.04-3.21,.1-4.17,.18-.36,0-.71,0-1.14,0-.33-.03-.24-.07-.12-.1-.41,.05-1.72,.08-2.83,.13-2.79-.18,6.48-.33-5.08-.27l1.85-.15c-15.09-.44-27.02,0-39.83,.3-2.34-.04-4.49-.11-6.3-.22-8.65,.06-18.89,.12-27.16,.18-.15,0-.3,0-.45-.01,.16,0,.28,0,.43,.01-.77,0-1.55,0-2.28,.01,.55-.08,.03-.13,1.65-.1-4.74-.1-6.84,0-8.54,.14-2.88-.01-5.78-.02-8.68-.02-.13,0-.34-.02-.69-.03-1.87-.86-16.28,.12-25.36-.38l2.2-.05c-6.94-.29-16.93,.32-28.26,.26,0,0,.55-.08,.07-.13-3.14,.18-7.41,.31-12.11,.4-6.32-.04-12.61-.11-18.78-.23-8.67-.13-10.34,.12-14.93,.34-1.1-.06-2.1-.12-2.85-.19l-.72-.14h-.25c-.12-.01-.21-.03-.27-.06l9.2-.02c-4.71-.47-11.91,.02-16.76-.07l.62-.21c-11.56,.05-13.79,.41-22.55,.52-6.47-.2-13.42-.36-22.16-.06l-.89-.19c-3.29,.08-9.57,.24-16.18,.39-.16-.02-.23-.04-.13-.07-.25,.02-.65,.06-1.13,.1-.93,.02-1.87,.04-2.8,.06-.24,0-.44,0-.69-.02l-.19-.2c5.43-.18,11.75-.31,16.29-.46-5.42,0-18.42,.04-21.24,.3,2.18-.05,4.93-.18,7.09-.1-5.3,.33-11.97,.52-19.92,.58-8.67-.2,2.79-.8-14-.84-2.56,.03-5.96,.13-9.02,.24-2.31,0-4.64-.02-6.93-.03v.38c-.8,.07-1.06,.12-.47,.15,.15,0,.31,0,.46,0v.36l-.7,.11h.69v.1H.91v.38c-.38,.17-.54,.34,0,.5V42.99c-.03,2.28-.04,4.6-.04,6.99l-.11-.37,.11,1.08c0,.28,0,.55,0,.83,.01-.06,.03-.11,.04-.17v5.92c-.12-.19-.22-.78-.27-2.01-.41,4.52,.29,4-.16,7.88-.07,.43-.11,.23-.14-.16l.24,4.41c-.17-.86-.58,.73-.46-1.98-.21,3.53-.11,6.42,0,8.84-.05,.39-.09,.88-.13,1.55,.08-.18,.14-.21,.2-.12,.12,2.3,.2,4.1-.09,5.48l-.05-.66c.13,5.29,.28,5.73,.47,5.71,.09-.01,.19-.12,.31,.13,0,.1-.02,.19-.03,.29l-.03,.29-.03,.49c-.02,.35-.04,.71-.06,1.07-.03,.75-.07,1.52-.11,2.34,1.15,.02,2.39,.03,3.75,.05,1.04,0,2.16,.01,3.41,.02,1.81,0,3.96-.03,6.61-.1l-5.06,.25c8.2-.15,30.26,0,38.31-.64,1.45,.09,3.37,.31-.24,.37,19.61,.1,43.64-.69,58.88-.29l-1.49,.2c3.66-.06,6.37-.37,10.95-.17-.24,.08-1.47,.2,.22,.21,1.94-.07,9.72-.35,14.56-.23l-4.14,.22c16.64,.22,26.55-.35,39.4-.59,1.4-.02,2.82-.04,4.26-.06,.57,0,1.14-.01,1.73-.02-.04,.58,15.01,.77,22.52,.86l-.26,.08c22.27,.07,37.83-.48,58.45-.71,12.8,.63,43.36,.26,63.93,.62-3.15-.11,.51-.45,4.17-.51,4.83,.12,13.35-.4,12.58,.13h-1.72c3.64,.51,13.56,.37,21.31,.39l1.28-.7c8.75,.44,19.83,.43,30.5,.35,6.09,.08,11.8-.01,17.23-.13,5.86-.02,10.92,.01,14.52,.2l-1.24,.02-2.14,.05,3.57-.05c.61,.03,1.2,.07,1.72,.11,4.89-.17,10.95-.17,15.79-.35l-.26,.37c13.55,.1,20.31,.14,37.06,.05l-3.41,.27c5.94,.01,9.13-.41,12.84-.74,4.02,.05,7.51,.11,5.86,.26,5.6-.13,3.66-.23-.05-.3,1.3,.02,2.53,.04,3.71,.05l.9,.19c16.48,0,33.16,.48,49.44-.02-.08,.02-.19,.06-.36,.09-.7,.04-1.43,.07-2.02,.1,.53-.02,1.05-.02,1.57-.03-.49,.05-1.28,.1-2.61,.11,4.81,0,15.19,.15,21.72,.08,1.74,.05,3.33,.09,4.75,.1l-5.49,.13c3.28-.08,5.97-.07,8.71-.07l-3.12-.31h.01c3.21,.05,5.92,.05,5.86,.18,1.25-.08,1.2-.17,1-.27,3.33-.02,7.54-.1,11.58-.19,.27,.12,2.17,.29-1.34,.36,1.65,0,3.48,0,5.56,.04,.48,.05-.46,.09-1.34,.11,12.93,.37,5.94-.47,19.34-.46-1.7,.23,3.11,.44,5.29,.39-5.4,0-2.58-.39,2.37-.57,8.59,.18,9.34-.14,13.84-.11l-2.4-.04c3.29-.03,4.07-.13,6.64-.3,.85,0,1.72-.02,2.65-.03,.51,.18-5.44,.13-3.3,.21,6.65-.41,15.03,.43,24.3,.15,4.3,.16,.42,.44,4.19,.55,8.28-.24,10.52,.1,16.61,.13-.44,.05-1.12,.11-2.18,.18,1.58-.05,3.41-.12,5.38-.2,.74,0,1.52-.02,2.38-.04-.12-.01-.22-.02-.33-.03,2.71-.1,5.63-.19,8.57-.27l-.02,.05c5.56,.15,10.58,.1,15.84,0,.35,0,.68-.01,1.02-.02,.68-.01,1.36-.03,2.05-.04,2.73,.05,4.53,.09,7.19,.1,1.06,.28,10.49,.15,15.05,.17-.37-.37,5.44-.31,.16-.61,.13,.02-1.41,.04-4.06,.05-.68,.01-1.47,.02-1.93,.04h0l.3-.03h-1.35c.49-.06,1.25-.1,2.19-.12,.08,0,.16,0,.24,0l.18-.02c3.47-.06,9.06,.06,13.13-.03-.5,.26,2.88,.36,5.2,.52-.14-.09,2.75-.09,5.93-.13,.91,.06,1.57,.11,1.88,.17,13.84-.21,32.56-.14,41.39-.82-2.91,.26,2.05,.44-6.25,.63,4.34,0,8.24,.05,8.31-.13,2.53,.16,12.03-.35,16.01-.1,.74-.05,1.29-.12,1.99-.19,1.77-.04,3.21-.1,4.17-.18,.36,0,.71,0,1.14,0,.33,.03,.24,.07,.12,.1,.41-.05,1.72-.08,2.83-.13,2.79,.18-6.48,.33,5.08,.27l-1.85,.15c15.09,.44,27.02,0,39.83-.3,2.34,.04,4.48,.11,6.3,.22,8.65-.06,18.89-.12,27.16-.18,.16,0,.3,0,.45,.01-.16,0-.28,0-.43-.01,.77,0,1.55,0,2.28-.01-.55,.08-.03,.13-1.65,.1,4.74,.1,6.84,0,8.54-.14,2.88,.01,5.78,.02,8.68,.02,.13,0,.35,.02,.7,.03,1.87,.86,16.28-.12,25.36,.38l-2.2,.05c6.94,.29,16.93-.32,28.26-.26,0,0-.55,.08-.07,.13,3.14-.18,7.41-.31,12.11-.4,6.32,.04,12.61,.11,18.78,.23,8.67,.13,10.34-.12,14.93-.34,1.1,.06,2.1,.12,2.85,.19l.72,.14h.25c.12,.01,.21,.03,.27,.06l-9.2,.02c4.71,.47,11.91-.02,16.76,.07l-.62,.21c11.56-.05,13.79-.41,22.55-.52,6.47,.2,13.42,.36,22.16,.06l.89,.19c3.29-.08,9.57-.24,16.18-.39,.16,.02,.23,.04,.13,.07,.25-.02,.65-.06,1.13-.1,.93-.02,1.87-.04,2.8-.06,.24,0,.44,0,.69,.02l.19,.2c-5.43,.18-11.75,.31-16.29,.46,5.42,0,18.42-.04,21.24-.3-2.18,.05-4.94,.18-7.09,.1,5.3-.33,11.97-.52,19.92-.58,8.67,.2-2.78,.8,14,.84,2.56-.03,5.96-.13,9.02-.24,2.31,0,4.64,.02,6.93,.03v-.38c.8-.07,1.06-.12,.47-.15-.15,0-.31,0-.46,0,0-.12,0-.24,0-.36l.69-.11h-.69s0-.06,0-.1h.69v-.38c.38-.17,.54-.34,0-.5V48.11c.03-2.28,.04-4.6,.04-6.99l.12,.37-.11-1.09c0-.28,0-.55,0-.83-.01,.06-.03,.11-.04,.17v-5.92c.12,.19,.22,.78,.27,2.01,.41-4.52-.29-4,.16-7.88,.07-.43,.11-.23,.14,.16l-.24-4.41c.17,.86,.58-.73,.46,1.98,.21-3.53,.11-6.42,0-8.84,.05-.39,.09-.88,.13-1.55ZM553.86,.77c-.46,.01-.91,.02-1.35,.03-.09-.02-.18-.03-.25-.05,.59,0,1.11,.01,1.6,.01Zm-84.33,.04c-.29-.04-.71-.08-1.18-.12l5.92-.07-4.74,.19Zm-2.27,.09l-4.51,.18c5.42,0,11.44-.2,14.68-.14-.26,.01-.49,.02-.72,.03-10.23,0-16.47,.43-24.7,.12-.02-.01-.06-.02-.09-.03l.06-.19c6.52,0,12.13,.02,15.29,.03Zm-46.98-.49c3.03-.05,4.05,.02,4.46,.1-1.43,.01-3.11,.03-5.3,.04l-.36,.05c.29-.07,.62-.14,1.2-.19ZM73.45,1.42c-.25,0-.53,0-.8,0l-.96-.2,1.77,.21ZM.91,64.31v2.6c-.03-.63-.06-1.29-.09-2.01,.03-.27,.06-.45,.09-.59Zm585.15,26.02c.46-.01,.91-.02,1.35-.03,.09,.02,.18,.03,.25,.05-.59,0-1.11-.01-1.6-.01Zm84.33-.04c.29,.04,.71,.08,1.18,.12l-5.92,.07,4.74-.19Zm2.27-.09l4.52-.18c-5.42,0-11.44,.2-14.68,.14,.26-.01,.49-.02,.73-.03,10.23,0,16.47-.43,24.7-.12,.02,.01,.06,.02,.09,.03l-.06,.19c-6.52,0-12.14-.02-15.29-.03Zm46.98,.49c-3.03,.05-4.05-.02-4.46-.1,1.43-.01,3.11-.03,5.3-.04l.36-.05c-.29,.07-.62,.14-1.2,.19Zm346.83-1.01c.25,0,.53,0,.8,0l.96,.2-1.77-.21Zm72.55-62.89v-2.6c.03,.63,.06,1.29,.09,2.01-.03,.27-.06,.45-.09,.59Z"/><g><path class="cls-4" d="M1050.96,83.05h-1c-2.76,0-5-2.24-5-5s2.24-5,5-5h1c2.76,0,5,2.24,5,5s-2.24,5-5,5Z"/><path class="cls-4" d="M1019.96,83.05h-1c-2.76,0-5-2.24-5-5s2.24-5,5-5h1c2.76,0,5,2.24,5,5s-2.24,5-5,5Z"/><path class="cls-4" d="M988.96,83.05h-1c-2.76,0-5-2.24-5-5s2.24-5,5-5h1c2.76,0,5,2.24,5,5s-2.24,5-5,5Z"/><path class="cls-4" d="M957.96,83.05h-1c-2.76,0-5-2.24-5-5s2.24-5,5-5h1c2.76,0,5,2.24,5,5s-2.24,5-5,5Z"/><path class="cls-4" d="M926.96,83.05h-1c-2.76,0-5-2.24-5-5s2.24-5,5-5h1c2.76,0,5,2.24,5,5s-2.24,5-5,5Z"/><path class="cls-4" d="M895.96,83.05h-1c-2.76,0-5-2.24-5-5s2.24-5,5-5h1c2.76,0,5,2.24,5,5s-2.24,5-5,5Z"/><path class="cls-4" d="M864.96,83.05h-1c-2.76,0-5-2.24-5-5s2.24-5,5-5h1c2.76,0,5,2.24,5,5s-2.24,5-5,5Z"/><path class="cls-4" d="M833.96,83.05h-1c-2.76,0-5-2.24-5-5s2.24-5,5-5h1c2.76,0,5,2.24,5,5s-2.24,5-5,5Z"/><path class="cls-4" d="M802.96,83.05h-1c-2.76,0-5-2.24-5-5s2.24-5,5-5h1c2.76,0,5,2.24,5,5s-2.24,5-5,5Z"/><path class="cls-4" d="M771.96,83.05h-1c-2.76,0-5-2.24-5-5s2.24-5,5-5h1c2.76,0,5,2.24,5,5s-2.24,5-5,5Z"/><path class="cls-4" d="M740.96,83.05h-1c-2.76,0-5-2.24-5-5s2.24-5,5-5h1c2.76,0,5,2.24,5,5s-2.24,5-5,5Z"/><path class="cls-4" d="M709.96,83.05h-1c-2.76,0-5-2.24-5-5s2.24-5,5-5h1c2.76,0,5,2.24,5,5s-2.24,5-5,5Z"/><path class="cls-4" d="M678.96,83.05h-1c-2.76,0-5-2.24-5-5s2.24-5,5-5h1c2.76,0,5,2.24,5,5s-2.24,5-5,5Z"/><path class="cls-4" d="M647.96,83.05h-1c-2.76,0-5-2.24-5-5s2.24-5,5-5h1c2.76,0,5,2.24,5,5s-2.24,5-5,5Z"/><path class="cls-4" d="M616.96,83.05h-1c-2.76,0-5-2.24-5-5s2.24-5,5-5h1c2.76,0,5,2.24,5,5s-2.24,5-5,5Z"/><path class="cls-4" d="M585.96,83.05h-1c-2.76,0-5-2.24-5-5s2.24-5,5-5h1c2.76,0,5,2.24,5,5s-2.24,5-5,5Z"/><path class="cls-4" d="M554.96,83.05h-1c-2.76,0-5-2.24-5-5s2.24-5,5-5h1c2.76,0,5,2.24,5,5s-2.24,5-5,5Z"/><path class="cls-4" d="M523.96,83.05h-1c-2.76,0-5-2.24-5-5s2.24-5,5-5h1c2.76,0,5,2.24,5,5s-2.24,5-5,5Z"/><path class="cls-4" d="M492.96,83.05h-1c-2.76,0-5-2.24-5-5s2.24-5,5-5h1c2.76,0,5,2.24,5,5s-2.24,5-5,5Z"/><path class="cls-4" d="M461.96,83.05h-1c-2.76,0-5-2.24-5-5s2.24-5,5-5h1c2.76,0,5,2.24,5,5s-2.24,5-5,5Z"/><path class="cls-4" d="M430.96,83.05h-1c-2.76,0-5-2.24-5-5s2.24-5,5-5h1c2.76,0,5,2.24,5,5s-2.24,5-5,5Z"/><path class="cls-4" d="M399.96,83.05h-1c-2.76,0-5-2.24-5-5s2.24-5,5-5h1c2.76,0,5,2.24,5,5s-2.24,5-5,5Z"/><path class="cls-4" d="M368.96,83.05h-1c-2.76,0-5-2.24-5-5s2.24-5,5-5h1c2.76,0,5,2.24,5,5s-2.24,5-5,5Z"/><path class="cls-4" d="M337.96,83.05h-1c-2.76,0-5-2.24-5-5s2.24-5,5-5h1c2.76,0,5,2.24,5,5s-2.24,5-5,5Z"/><path class="cls-4" d="M306.96,83.05h-1c-2.76,0-5-2.24-5-5s2.24-5,5-5h1c2.76,0,5,2.24,5,5s-2.24,5-5,5Z"/><path class="cls-4" d="M275.96,83.05h-1c-2.76,0-5-2.24-5-5s2.24-5,5-5h1c2.76,0,5,2.24,5,5s-2.24,5-5,5Z"/><path class="cls-4" d="M244.96,83.05h-1c-2.76,0-5-2.24-5-5s2.24-5,5-5h1c2.76,0,5,2.24,5,5s-2.24,5-5,5Z"/><path class="cls-4" d="M213.96,83.05h-1c-2.76,0-5-2.24-5-5s2.24-5,5-5h1c2.76,0,5,2.24,5,5s-2.24,5-5,5Z"/><path class="cls-4" d="M182.96,83.05h-1c-2.76,0-5-2.24-5-5s2.24-5,5-5h1c2.76,0,5,2.24,5,5s-2.24,5-5,5Z"/><path class="cls-4" d="M151.96,83.05h-1c-2.76,0-5-2.24-5-5s2.24-5,5-5h1c2.76,0,5,2.24,5,5s-2.24,5-5,5Z"/><path class="cls-4" d="M120.96,83.05h-1c-2.76,0-5-2.24-5-5s2.24-5,5-5h1c2.76,0,5,2.24,5,5s-2.24,5-5,5Z"/><path class="cls-4" d="M89.96,83.05h-1c-2.76,0-5-2.24-5-5s2.24-5,5-5h1c2.76,0,5,2.24,5,5s-2.24,5-5,5Z"/></g><g><path class="cls-4" d="M1050.96,18.05h-1c-2.76,0-5-2.24-5-5s2.24-5,5-5h1c2.76,0,5,2.24,5,5s-2.24,5-5,5Z"/><path class="cls-4" d="M1019.96,18.05h-1c-2.76,0-5-2.24-5-5s2.24-5,5-5h1c2.76,0,5,2.24,5,5s-2.24,5-5,5Z"/><path class="cls-4" d="M988.96,18.05h-1c-2.76,0-5-2.24-5-5s2.24-5,5-5h1c2.76,0,5,2.24,5,5s-2.24,5-5,5Z"/><path class="cls-4" d="M957.96,18.05h-1c-2.76,0-5-2.24-5-5s2.24-5,5-5h1c2.76,0,5,2.24,5,5s-2.24,5-5,5Z"/><path class="cls-4" d="M926.96,18.05h-1c-2.76,0-5-2.24-5-5s2.24-5,5-5h1c2.76,0,5,2.24,5,5s-2.24,5-5,5Z"/><path class="cls-4" d="M895.96,18.05h-1c-2.76,0-5-2.24-5-5s2.24-5,5-5h1c2.76,0,5,2.24,5,5s-2.24,5-5,5Z"/><path class="cls-4" d="M864.96,18.05h-1c-2.76,0-5-2.24-5-5s2.24-5,5-5h1c2.76,0,5,2.24,5,5s-2.24,5-5,5Z"/><path class="cls-4" d="M833.96,18.05h-1c-2.76,0-5-2.24-5-5s2.24-5,5-5h1c2.76,0,5,2.24,5,5s-2.24,5-5,5Z"/><path class="cls-4" d="M802.96,18.05h-1c-2.76,0-5-2.24-5-5s2.24-5,5-5h1c2.76,0,5,2.24,5,5s-2.24,5-5,5Z"/><path class="cls-4" d="M771.96,18.05h-1c-2.76,0-5-2.24-5-5s2.24-5,5-5h1c2.76,0,5,2.24,5,5s-2.24,5-5,5Z"/><path class="cls-4" d="M740.96,18.05h-1c-2.76,0-5-2.24-5-5s2.24-5,5-5h1c2.76,0,5,2.24,5,5s-2.24,5-5,5Z"/><path class="cls-4" d="M709.96,18.05h-1c-2.76,0-5-2.24-5-5s2.24-5,5-5h1c2.76,0,5,2.24,5,5s-2.24,5-5,5Z"/><path class="cls-4" d="M678.96,18.05h-1c-2.76,0-5-2.24-5-5s2.24-5,5-5h1c2.76,0,5,2.24,5,5s-2.24,5-5,5Z"/><path class="cls-4" d="M647.96,18.05h-1c-2.76,0-5-2.24-5-5s2.24-5,5-5h1c2.76,0,5,2.24,5,5s-2.24,5-5,5Z"/><path class="cls-4" d="M616.96,18.05h-1c-2.76,0-5-2.24-5-5s2.24-5,5-5h1c2.76,0,5,2.24,5,5s-2.24,5-5,5Z"/><path class="cls-4" d="M585.96,18.05h-1c-2.76,0-5-2.24-5-5s2.24-5,5-5h1c2.76,0,5,2.24,5,5s-2.24,5-5,5Z"/><path class="cls-4" d="M554.96,18.05h-1c-2.76,0-5-2.24-5-5s2.24-5,5-5h1c2.76,0,5,2.24,5,5s-2.24,5-5,5Z"/><path class="cls-4" d="M523.96,18.05h-1c-2.76,0-5-2.24-5-5s2.24-5,5-5h1c2.76,0,5,2.24,5,5s-2.24,5-5,5Z"/><path class="cls-4" d="M492.96,18.05h-1c-2.76,0-5-2.24-5-5s2.24-5,5-5h1c2.76,0,5,2.24,5,5s-2.24,5-5,5Z"/><path class="cls-4" d="M461.96,18.05h-1c-2.76,0-5-2.24-5-5s2.24-5,5-5h1c2.76,0,5,2.24,5,5s-2.24,5-5,5Z"/><path class="cls-4" d="M430.96,18.05h-1c-2.76,0-5-2.24-5-5s2.24-5,5-5h1c2.76,0,5,2.24,5,5s-2.24,5-5,5Z"/><path class="cls-4" d="M399.96,18.05h-1c-2.76,0-5-2.24-5-5s2.24-5,5-5h1c2.76,0,5,2.24,5,5s-2.24,5-5,5Z"/><path class="cls-4" d="M368.96,18.05h-1c-2.76,0-5-2.24-5-5s2.24-5,5-5h1c2.76,0,5,2.24,5,5s-2.24,5-5,5Z"/><path class="cls-4" d="M337.96,18.05h-1c-2.76,0-5-2.24-5-5s2.24-5,5-5h1c2.76,0,5,2.24,5,5s-2.24,5-5,5Z"/><path class="cls-4" d="M306.96,18.05h-1c-2.76,0-5-2.24-5-5s2.24-5,5-5h1c2.76,0,5,2.24,5,5s-2.24,5-5,5Z"/><path class="cls-4" d="M275.96,18.05h-1c-2.76,0-5-2.24-5-5s2.24-5,5-5h1c2.76,0,5,2.24,5,5s-2.24,5-5,5Z"/><path class="cls-4" d="M244.96,18.05h-1c-2.76,0-5-2.24-5-5s2.24-5,5-5h1c2.76,0,5,2.24,5,5s-2.24,5-5,5Z"/><path class="cls-4" d="M213.96,18.05h-1c-2.76,0-5-2.24-5-5s2.24-5,5-5h1c2.76,0,5,2.24,5,5s-2.24,5-5,5Z"/><path class="cls-4" d="M182.96,18.05h-1c-2.76,0-5-2.24-5-5s2.24-5,5-5h1c2.76,0,5,2.24,5,5s-2.24,5-5,5Z"/><path class="cls-4" d="M151.96,18.05h-1c-2.76,0-5-2.24-5-5s2.24-5,5-5h1c2.76,0,5,2.24,5,5s-2.24,5-5,5Z"/><path class="cls-4" d="M120.96,18.05h-1c-2.76,0-5-2.24-5-5s2.24-5,5-5h1c2.76,0,5,2.24,5,5s-2.24,5-5,5Z"/><path class="cls-4" d="M89.96,18.05h-1c-2.76,0-5-2.24-5-5s2.24-5,5-5h1c2.76,0,5,2.24,5,5s-2.24,5-5,5Z"/></g><g><g><path class="cls-3" d="M45.58,13.21h0Z"/><path class="cls-3" d="M41.37,14.1l-.12,.03c0,.14,.04,.09,.12-.03Z"/><path class="cls-3" d="M29.55,14.02s-.01,0-.02-.01h-.05s.04,.01,.06,.01Z"/><path class="cls-3" d="M45.58,13.21c.1-.07,.2-.15,.27-.24-.42-.21-.13,.16-.27,.24Z"/><path class="cls-3" d="M28.07,76.99c.14,.02,.23,0,.32-.05-.06-.02-.15-.01-.32,.05Z"/><path class="cls-3" d="M34.61,76.75c.09-.16,.24-.25,.21-.42-.46,0-.55,.14-.21,.42Z"/><path class="cls-3" d="M33.76,77.21s-.05-.06-.08-.09c0,.05,.03,.07,.08,.09Z"/><path class="cls-3" d="M33.76,77.21c.14,.16,.3,.3,.57,.29,.09-.45-.39-.23-.57-.29Z"/><path class="cls-3" d="M24.96,76.47c.19,.37,.63,.09,.84,.07,.16-.49-.63,.19-.84-.07Z"/><path class="cls-3" d="M21.51,77.05c.15-.09,.2-.03,.33,0l-.12-.41c-.2,.03-.45,.27-.21,.42Z"/><polygon class="cls-3" points="14.07 17.28 14.23 16.91 13.9 17 14.07 17.28"/><path class="cls-3" d="M43.58,14.25c.51-.05-.02,.39,.37,.36-.07-.05,.06-.57-.37-.36Z"/><path class="cls-3" d="M53.28,77.08s.01,0,.02,.01h.05s-.04-.01-.06-.01Z"/><path class="cls-3" d="M54.76,14.12c-.14-.02-.23,0-.32,.05,.06,.02,.15,.01,.32-.05Z"/><path class="cls-3" d="M78.01,58.86c.05-.77,.1-1.54,.16-2.32,.23-1.51,.55-3.09,.29-4.65,.13-2.58,.17-5.17-.05-7.77-.05,.08-.1,.12-.16,.14-.04-1.31-.38-2.7,.02-3.85-.09,.05-.16,.07-.23,.09-.02-.61-.03-1.23-.04-1.83l.03,.31,.06-.4s-.06-.03-.09-.05c-.02-.92-.02-1.85,0-2.78,.03-.23,.07-.47,.13-.74-.07-.44-.32-.68-.45-1-.01-.24,0-.49-.08-.67,0-.03,0-.06,0-.09,.72-.53,.03-1.79,.3-2.63-.14,.05-.28,.02-.41-.05,.11-.37,.29-.78,.58-1.39,.07-.98,.13-1.95,.17-2.91,.02-.48,.05-.92,.02-1.64,0-.65-.04-1.3-.14-1.94-.32-2.58-1.22-5.07-2.55-7.22-2.65-4.34-7.07-7.32-11.95-8.23-.62-.11-1.24-.17-1.86-.17l-.92-.02-.69,.02-2.76,.11c-1.84,.09-3.68,.18-5.52,.28-3.69,.2-7.4,.4-11.19,.51-.63,.61-1.38,.73-2.15,.88-1.06-.04-2.33-.07-3.58-.26-.42-.06-.65,.06-.84,.23-.13-.05-.27-.09-.43-.14-.01,.27-.26,.23-.36,.37v-.14c-.28,.1-.47,.26-.63,.43-.17-.17-.36-.38-.57-.49,.03-.05,.07-.1,.11-.15-.55-.11-1.09,.22-1.57,.4,.03-.26,.1-.75-1.22-1.1-1.7,.12-3.41,.35-5.11,.5-1.23,.13-2.34,.13-3.66,.14,.21-.18,.4-.36,.55-.53,.5-.56,.73-1.05,.73-1.05-1.67,.2-3.23,.55-4.74,1.03-1.5,.52-2.91,1.19-4.26,2.01-1.77,1.12-3.45,2.53-4.88,4.31-.08,.07-.16,.13-.22,.17,0,.05,0,.08,0,.13-.63,.81-1.21,1.69-1.73,2.66-.16,.55-.33,1.15-.44,1.77l-.07-.05c-.19,.58-.4,1.15-.53,1.77-.15,.6-.3,1.21-.37,1.84l-.13,.94-.05,.95c-.01,.3-.04,.68-.04,.92v.75c.01,2,.08,4.01,.35,5.99-.05,.77-.1,1.54-.16,2.32-.23,1.51-.55,3.09-.29,4.65-.13,2.58-.17,5.17,.05,7.77,.05-.08,.1-.12,.16-.14,.04,1.31,.38,2.7-.02,3.85,.09-.05,.16-.07,.23-.09,.02,.61,.03,1.23,.04,1.83-.01-.1-.02-.2-.03-.31l-.06,.4s.06,.03,.09,.05c.02,.92,.02,1.85,0,2.78-.03,.23-.07,.47-.13,.74,.07,.44,.32,.68,.45,1,.01,.24,0,.49,.08,.67,0,.03,0,.06,0,.09-.72,.53-.03,1.79-.3,2.63,.14-.05,.28-.02,.41,.05-.11,.37-.29,.78-.58,1.39-.07,.98-.13,1.95-.17,2.91-.02,.48-.05,.92-.02,1.64,0,.65,.04,1.3,.14,1.94,.32,2.58,1.22,5.07,2.55,7.22,2.65,4.34,7.07,7.32,11.95,8.23,.62,.11,1.24,.17,1.86,.17l.92,.02,.69-.02,2.76-.11c1.84-.09,3.68-.18,5.52-.28,3.69-.2,7.4-.4,11.19-.51,.63-.61,1.38-.73,2.15-.88,1.06,.04,2.33,.07,3.58,.26,.42,.06,.65-.06,.84-.23,.13,.05,.27,.09,.43,.14,.01-.27,.26-.23,.36-.37v.14c.28-.1,.47-.26,.63-.43,.17,.17,.36,.38,.57,.49-.03,.05-.07,.1-.11,.15,.55,.11,1.09-.22,1.57-.4-.03,.26-.1,.75,1.22,1.1,1.7-.12,3.41-.35,5.11-.5,1.23-.13,2.34-.13,3.66-.14-.21,.18-.4,.36-.55,.53-.5,.56-.73,1.05-.73,1.05,1.67-.2,3.23-.55,4.74-1.03,1.5-.52,2.91-1.19,4.26-2.01,1.77-1.12,3.45-2.53,4.88-4.31,.08-.07,.16-.13,.22-.17,0-.05,0-.08,0-.13,.63-.81,1.21-1.69,1.73-2.66,.16-.55,.33-1.15,.44-1.77l.07,.05c.19-.58,.4-1.15,.53-1.77,.15-.6,.3-1.21,.37-1.84l.13-.94,.05-.95c.01-.3,.04-.68,.04-.92v-.75c-.01-2-.08-4.01-.35-5.99ZM41.73,13.62h0Zm-10.67,.09c-.09,.02-.2,.05-.32,.07,.12-.06,.23-.09,.32-.07Zm10.05,63.78h0Zm10.67-.09c.09-.02,.2-.05,.32-.07-.12,.06-.23,.09-.32,.07Zm8.61-.91c-.48,.78-1.38-.31-1.45,.7,.02-.11-.09-.24-.14-.3-.32,.29-.58,.94-.98,.99l.13-.66c.1-.84-1.15-.16-1.26-.58,.35,.56-.46,0-.49,.5l-.48,.21c-.76,.17-.09,.33-1.02,.42-.53,.04-.18-.76,0-.68-.45-.35-.9-.15-1.36,0,.17,0,.23,.04,.07,.19-.01-.09-.06-.14-.11-.17-.17,.05-.34,.1-.52,.1,0-.02,0-.02,0-.03,.19-.04,.37-.07,.5-.08-.12-.06-.3-.06-.48-.07-.02-.04-.07-.04-.14,0-.16-.01-.3-.04-.4-.14l.13-.52c-.33-.02-1.23,.57-1.2,.79-1.28-.44-3.4-.07-4.26,.22,.17-.12,.19-.29,.02-.11-.44,.1-.94,.54-.98,.21-.43,.21-.4-.36-1.06-.41-.01-.09-.06,.28,0,.41-.72-.44-1.55-.11-2.41,.06,0-.01,.01-.01,.02-.02-.03,0-.05,.02-.08,.03-.18,.03-.36,.05-.54,.06-.19-.16-.38-.35-.62-.11-.03-.04-.04-.09-.04-.14,.08-.11,.16-.25,.22-.35-.05,.01-.11,.03-.16,.04,0-.07-.04-.12-.17-.14-.05,.06-.08,.13-.09,.2-.48,.12-.94,.25-1.39,.43-.49,.1-1.03,.31-1.1,.56h0c.1-.23,.07-.45,.31-.59-.57,0-1.2,.1-1.6,.38,.02-.01,.05-.02,.09-.01,.18,.16,.18,.32,.08,.46-.2,.14-.42,.26-.68,.35-.1,.01-.2,.01-.28,0v-.11c-.63,.01-.74,.23-1.23,.29-.04,0-.08,0-.13,0h0s-.07,.02-.12,.02c-.43-.29,.37-.14,.2-.47-.04-.22-.18-.36-.36-.45,.41-.73,2.05-.77,2.42-.32,.81-.79-.64-.09-.49-.86-.73,.06-1.07,.46-2.21,.58,0,.27,.17,.39,.11,.53-.49-.15-1.14-.04-1.23-.1-.06,.06-.13,.12-.19,.18-.15-.22-.25-.44-.35-.46,.15-.09,.35-.12,.5-.21-.67-.27-.9,.26-1.61,.22-.19-1.05,1.13-.12,1.39-.77l-.51-.75c-1.09-.1-.3,.86-1.42,.59l.14-.38-.7,.24c-.01,.39,.14,.98,.74,.9-.4,1.01-.55,.14-1.51,.34-.31,.58,.4-.05,.43,.52,.03,.18-.03,.29-.13,.38-.09,.04-.18,.08-.27,.13-.2,.06-.43,.09-.64,.13-.79,0-.4-.62-.72-1.01,.15-.1,.75-.18,.69,.16,.97-.6-.42-1.2,.25-1.61-.75-.34-.72,.34-1.11,.54,.23,.07-.1,.58,.06,.78-1.29,1.57-.82-1.14-2.06-.87,.17,.66-.59,1.06-.88,1.56-.36-.02-.74-.08-1.11-.14l.52-.62c-.5-.47-1.33-.93-1.59-1.25-.65,.3,.2,.65-.55,.82,.26-.35-.2-.65-.53-.64,.67,.26,.01,.96-.41,1.13-.33,0-.64-.15-.83-.33-.15-.19-.22-.39-.19-.47,.08-.09,.14-.18,.24-.28l.32-.29c-.48,.5-.25-.26-.59-.07-.1,.37-.35,.94-.51,1.42-.35,.16-.51-.4-.63-.32,.18-.12,.36-.2,.53-.34-.65,.07-.02-1.06-.65-.88l-.25,.5c-.11-.1-.11-.36,.03-.52-.16,.35-.49,.17-.67,.27l.05-.35c-.29,.18-.87,.75-.94,0-.04,.87,.29,.13,.62,.64,.06,.33-.09,.45-.28,.48-.19,0-.4-.06-.47-.04,.16-.42,0-.5-.24-.5-.24,0-.57,.04-.73-.04-.04-.38-.13-.58-.14-.82l-.39,.45c.47-1.07-.73-.13-.86-.71,.36-.16,.58-.56,.48-.85-.2,.92-1.1,.49-1.37,.99-.35-.75,.8-.72,1.01-1.34-.65,.26-.25-.79-.96-.36,.14,.56-.42,.33-.76,.5-.39-.55,.34-.18,.26-.73-.27-.1-.96-.02-.89,.51-.08-.44-1.03-.32-.84-1.04,.32-.44,.65,.57,.82,.13-.34-.58-.87-.15-1.38-.14-.12-.04-.25-.07-.38-.11-.07-.04-.14-.09-.2-.16,0,.02-.01,.04-.02,.05-.1-.07-.17-.18-.2-.36-.05-.13-.02-.36,.03-.5,.16,.02,.32,.06,.48,.1,.44,.13,.85,.22,1.07-.19l-.44-.23c.27-.03,.73-.13,.89-.39-.3,.1-.44-.09-.51-.31-.05-.23-.05-.46-.13-.47-.52,.11,.25,.25-.16,.34-.26-.34-1.21-.25-1.04-1.05,.45,.27,.67-.33,.99-.25,.14-.36-.65,.06-.45-.46h.32c-.09-.94-.19-1.99-.29-3-.16-1.27-.5-2.49-1.15-3.49,.53-.37,.58-1.12,.95-2.28-.18,.51-.55,.02-.61-.27l.61-.56c.36-.68-.23-1.56-.57-2.19,.12-.11,.29-.15,.45-.18,.4-.6-.34-.63-.48-.86l.43-.39-.42-.09c-.24-.61-.14-1.41,.55-1.33-.13-.24-.26-.47-.46-.17,.41-.6,.41-2.26,.17-3.34-.18,.51-.39,.47-.82,.51-.74-.16,.14-.24-.29-.68,.27-.01,.55-.5,.75,.02,.94-1.45,.18-3.47,.37-5.3-.11-.37-.24-.26-.43-.43,.74-1.15-.04-2.56,.29-3.8-.31,.28-1.17-.11-1.19-.8-.6-.75,.85-.3,1.21-.98-.28-.34-.36-.97-.32-1.24l.1,.02c-.32-.41-.51-1.07-.23-1.56l.04,.08c.05-.4,.44-.87,.39-1.29-.57-.19-.22-1.22-.72-1.47,.06-.05,.11,.03,.23-.09l-.48-.04,.27-.84c.19,.18,.4,.22,.53,.46,.33-.89-.45-.3-.71-.77-.35-.63,.13-.59,.33-.89,.24,.26-.11,.46-.03,.61,.38,.36,.15-.38,.43-.39,.02-.13-.57-.19-.45-.65,.06-.4-.1-1.33,.43-1.22-.28-.34-.22-.74-.46-.99-.1,.32-.23,.92-.56,.98-.07-.29-.21-.87,.02-.97l.13,.24c-.13-.24,.03-1.09-.46-.65l.67-.61c-.4-.23-.37-.84-.47-1.34,.54-.02,1.13,.38,1.26-.56l-.54-.81c-.05-.44,.09-.46,.4-.42,.34-1.1-1.38-1.37-.76-2.3,.54,.54,.65,.2,.93-.15-.1-.04-.29-.13-.27-.31-.31,.04,.37,.35-.13,.56-.41,.01-.16-.44-.24-.67,.75-.24,1.04-.82,1.33-1.5,.15-.33,.27-.7,.49-1.01,.2-.32,.43-.6,.76-.75-.66-.4,.14-.64,.12-1.01,.56,.63,.36-.69,.99-.56l-.69-.46c.46-.11,.49-.58,.58-.98,.09-.38,.22-.71,.7-.47,.51-.09,.2,.6,.13,.82,.49,.16,.71-.21,.97-.57,.24-.38,.53-.69,.95-.35-.08-.33-.49-.72-.09-1.27,.58,.16,1.51,.25,1.48,.45,.29-.25,.34-.53,.77-.35,.01,.22-.14,.3-.24,.42,.31,.01,.56-.07,.81-.21,.24-.13,.47-.37,.73-.53,.2,.31,.54,.37,.93,.38,.47,.04,1.02,.05,1.44,.22,.48-.78,1.38,.31,1.45-.7-.02,.11,.09,.24,.14,.3,.32-.29,.58-.94,.98-.99l-.13,.66c-.1,.84,1.15,.16,1.26,.58-.35-.56,.46,0,.49-.5l.48-.21c.76-.17,.09-.33,1.02-.42,.53-.04,.18,.76,0,.68,.45,.35,.9,.15,1.36,0-.17,0-.23-.04-.07-.19,.01,.09,.06,.14,.11,.17,.17-.05,.35-.1,.52-.1,0,.02,0,.02,0,.03-.19,.04-.37,.07-.5,.08,.12,.06,.3,.06,.48,.07,.02,.04,.07,.04,.14,0,.16,.01,.3,.04,.4,.14l-.13,.52c.33,.02,1.23-.57,1.2-.79,1.28,.44,3.4,.07,4.26-.22-.17,.12-.19,.29-.02,.11,.44-.1,.94-.54,.98-.21,.43-.21,.4,.36,1.06,.41,.01,.09,.06-.28,0-.41,.72,.44,1.55,.11,2.41-.06,0,.01-.01,.01-.02,.02,.03,0,.05-.02,.08-.03,.18-.03,.36-.05,.54-.06,.19,.16,.38,.35,.62,.11,.03,.04,.04,.09,.04,.14-.08,.11-.16,.25-.22,.35,.05-.01,.11-.03,.16-.04,0,.07,.04,.12,.17,.14,.05-.06,.08-.13,.09-.2,.47-.12,.94-.25,1.39-.43,.49-.1,1.03-.31,1.1-.56h0c-.1,.23-.07,.45-.31,.59,.57,0,1.2-.1,1.6-.38-.02,.01-.05,.02-.09,.01-.18-.16-.18-.32-.08-.46,.2-.14,.42-.26,.68-.35,.1-.01,.2-.01,.28,0v.11c.63-.01,.74-.23,1.22-.29,.04,0,.08,0,.13,0h0s.07-.02,.12-.02c.43,.29-.37,.14-.2,.47,.04,.22,.19,.36,.36,.45-.41,.73-2.05,.77-2.42,.32-.81,.79,.64,.09,.49,.86,.73-.06,1.07-.46,2.21-.58,0-.27-.17-.39-.11-.53,.49,.15,1.14,.04,1.23,.1,.06-.06,.13-.12,.19-.18,.15,.22,.25,.44,.35,.46-.15,.09-.35,.12-.5,.21,.67,.27,.9-.26,1.61-.22,.19,1.05-1.13,.12-1.39,.77l.51,.75c1.09,.1,.3-.86,1.42-.59l-.14,.38,.7-.24c.01-.39-.14-.98-.74-.9,.4-1.01,.55-.14,1.51-.34,.31-.58-.4,.05-.43-.52-.03-.18,.03-.29,.13-.38,.09-.04,.18-.08,.27-.13,.2-.06,.43-.09,.64-.13,.79,0,.4,.62,.72,1.01-.15,.1-.75,.18-.69-.16-.97,.6,.42,1.2-.25,1.61,.75,.34,.72-.34,1.11-.54-.23-.07,.1-.58-.06-.78,1.29-1.57,.82,1.14,2.06,.87-.17-.66,.59-1.06,.88-1.56,.36,.02,.74,.08,1.11,.14l-.52,.62c.5,.47,1.33,.93,1.59,1.25,.65-.3-.2-.65,.55-.82-.26,.35,.2,.65,.53,.64-.67-.26-.01-.96,.41-1.13,.33,0,.64,.15,.83,.33,.15,.19,.22,.39,.19,.47-.08,.09-.14,.18-.24,.28l-.32,.29c.48-.5,.25,.26,.59,.07,.1-.37,.35-.94,.51-1.42,.35-.16,.51,.4,.63,.32-.18,.12-.36,.2-.53,.34,.65-.07,.02,1.06,.65,.88l.25-.5c.11,.1,.11,.36-.03,.52,.16-.35,.49-.17,.67-.27l-.05,.35c.29-.18,.87-.75,.94,0,.04-.87-.29-.13-.62-.64-.06-.33,.09-.45,.28-.48,.19,0,.4,.06,.47,.04-.16,.42,0,.5,.24,.5,.24,0,.57-.04,.73,.04,.04,.38,.13,.58,.14,.82l.39-.45c-.47,1.07,.73,.13,.86,.71-.36,.16-.58,.56-.48,.85,.2-.92,1.1-.49,1.37-.99,.35,.75-.8,.72-1.01,1.34,.65-.26,.25,.79,.96,.36-.14-.56,.42-.33,.76-.5,.39,.55-.34,.18-.26,.73,.27,.1,.96,.02,.89-.51,.08,.44,1.03,.32,.84,1.04-.32,.44-.65-.57-.82-.13,.34,.58,.87,.15,1.38,.14,.12,.04,.25,.07,.38,.11,.07,.04,.14,.09,.2,.16,0-.02,.01-.04,.02-.05,.1,.07,.17,.18,.2,.36,.05,.13,.02,.36-.03,.5-.16-.02-.32-.06-.48-.1-.44-.13-.85-.22-1.07,.19l.44,.23c-.27,.03-.73,.13-.89,.39,.3-.1,.44,.09,.51,.31,.05,.23,.05,.46,.13,.47,.52-.11-.25-.25,.16-.34,.26,.34,1.21,.25,1.04,1.05-.45-.27-.67,.33-.99,.25-.14,.36,.65-.06,.45,.46h-.32c.09,.94,.19,1.99,.29,3,.16,1.27,.5,2.49,1.15,3.49-.53,.37-.58,1.12-.95,2.28,.18-.51,.55-.02,.61,.27l-.61,.56c-.36,.68,.23,1.56,.57,2.19-.12,.11-.29,.15-.45,.18-.4,.6,.34,.63,.48,.86l-.43,.39,.42,.09c.24,.61,.14,1.41-.55,1.33,.13,.24,.26,.47,.46,.17-.41,.6-.41,2.26-.17,3.34,.18-.51,.39-.47,.82-.51,.74,.16-.14,.24,.29,.68-.27,.01-.55,.5-.75-.02-.94,1.45-.18,3.47-.37,5.3,.11,.37,.24,.26,.43,.43-.74,1.15,.04,2.56-.29,3.8,.31-.28,1.17,.11,1.19,.8,.6,.75-.85,.3-1.21,.98,.28,.34,.36,.97,.32,1.24l-.1-.02c.32,.41,.51,1.07,.23,1.56l-.04-.08c-.05,.4-.44,.87-.39,1.29,.57,.19,.22,1.22,.72,1.47-.06,.05-.11-.03-.23,.09l.48,.04-.27,.84c-.19-.18-.4-.22-.53-.46-.33,.89,.45,.3,.71,.77,.35,.63-.13,.59-.33,.89-.24-.26,.11-.46,.03-.61-.38-.36-.15,.38-.43,.39-.02,.13,.57,.19,.45,.65-.06,.4,.1,1.33-.43,1.22,.28,.34,.22,.74,.46,.99,.1-.32,.23-.92,.56-.98,.07,.29,.21,.87-.02,.97l-.13-.24c.13,.24-.03,1.09,.46,.65l-.67,.61c.4,.23,.37,.84,.47,1.34-.54,.02-1.13-.38-1.26,.56l.54,.81c.05,.44-.09,.46-.4,.42-.34,1.1,1.38,1.37,.76,2.3-.54-.54-.65-.2-.93,.15,.1,.04,.29,.13,.27,.31,.31-.04-.37-.35,.13-.56,.41-.01,.16,.44,.24,.67-.75,.24-1.04,.82-1.33,1.5-.15,.33-.27,.7-.49,1.01-.2,.32-.43,.6-.76,.75,.66,.4-.14,.64-.12,1.01-.56-.63-.36,.69-.99,.56l.69,.46c-.46,.11-.49,.58-.58,.98-.09,.38-.22,.71-.7,.47-.51,.09-.2-.6-.13-.82-.49-.16-.71,.21-.97,.57-.24,.38-.53,.69-.95,.35,.08,.33,.49,.72,.09,1.27-.58-.16-1.51-.25-1.48-.45-.29,.25-.34,.53-.77,.35-.01-.22,.14-.3,.24-.42-.31-.01-.56,.07-.81,.21-.24,.13-.47,.37-.73,.53-.2-.31-.54-.37-.93-.38-.47-.04-1.02-.05-1.44-.22Z"/><path class="cls-3" d="M37.25,77.89h0Z"/><path class="cls-3" d="M41.46,77l.12-.03c0-.14-.04-.09-.12,.03Z"/><path class="cls-3" d="M37.25,77.89c-.1,.07-.2,.15-.27,.24,.42,.21,.13-.16,.27-.24Z"/><path class="cls-3" d="M48.02,14.78c.46,0,.55-.14,.21-.42-.09,.16-.24,.25-.21,.42Z"/><path class="cls-3" d="M49.08,13.89s.05,.06,.08,.09c0-.05-.03-.07-.08-.09Z"/><path class="cls-3" d="M48.51,13.6c-.09,.45,.39,.23,.57,.29-.14-.16-.3-.3-.57-.29Z"/><path class="cls-3" d="M57.04,14.56c-.16,.49,.63-.19,.84,.07-.19-.37-.63-.09-.84-.07Z"/><path class="cls-3" d="M61,14.06l.12,.41c.2-.03,.45-.27,.21-.42-.15,.09-.2,.03-.33,.01Z"/><polygon class="cls-3" points="68.77 73.82 68.61 74.19 68.93 74.1 68.77 73.82"/><path class="cls-3" d="M38.89,76.49c.07,.05-.06,.57,.37,.36-.51,.05,.02-.39-.37-.36Z"/></g><g><rect class="cls-2" x="17.9" y="21.89" width="47.39" height="47.39" rx="13.57" ry="13.57"/><g><path class="cls-3" d="M50.67,68.57c-.09,.09-.04,.31,.19,.25l.16-.36-.35,.11Z"/><path class="cls-3" d="M52.27,69.14c.26-.21,.52-.56,.31-.86-.22,.37-.29,.26-.54,.69-.23,.05-.42-.09-.39-.23-.08,.1-.36-.06-.48,.17,.31,.25,.72,.26,1.09,0,.09,.06,.02,.17,0,.24Z"/><path class="cls-3" d="M65.8,52.7l-.04,.15s.04-.09,.04-.15Z"/><path class="cls-3" d="M65.99,38.25c0,.11,.04,.16,.08,.16-.02-.1-.05-.19-.08-.16Z"/><path class="cls-3" d="M66.35,35.73l-.02,.16c.03-.06,.05-.12,.02-.16Z"/><path class="cls-3" d="M65.8,52.7l.11-.39c-.12-.03-.09,.2-.11,.39Z"/><path class="cls-3" d="M55.11,67.62c-.07,.04-.11,.1-.16,.16l.16-.1v-.06Z"/><path class="cls-3" d="M65.39,59.24l-.04,.12s.06,.09,.1,.14l-.06-.26Z"/><path class="cls-3" d="M63.1,63.84c.08-.09-.14-.3-.22-.41,.06,.12,.06,.23,.02,.32,.05,.04,.11,.06,.2,.09Z"/><path class="cls-3" d="M56.55,68.39s-.07,.07-.11,.09c.03-.02,.08-.06,.11-.09Z"/><path class="cls-3" d="M66.1,55.62s.09-.02,.11-.04c-.04,0-.08,.01-.11,.04Z"/><path class="cls-3" d="M45.01,67.87s0,.04,0,.05c.03-.03,.04-.05,0-.05Z"/><path class="cls-3" d="M50.67,69.37l-.08,.02c0,.06-.02,.11-.02,.17l.1-.19Z"/><path class="cls-3" d="M65.73,30.87v.02c.08,.11,.05,.04,0-.02Z"/><path class="cls-3" d="M26.61,21.79c.57,.08-.63,.61,.19,.62-.12-.08,.47-.68-.19-.62Z"/><path class="cls-3" d="M55.23,67.62c.06-.02,.12-.05,.18-.07-.08,.02-.14,.04-.18,.07Z"/><path class="cls-3" d="M26.8,22.41h0Z"/><path class="cls-3" d="M58.31,22.55c0,.06,.01,.12,.03,.18,.01-.03,0-.08-.03-.18Z"/><path class="cls-3" d="M63.94,28.56l-.07-.19c.02,.08,.04,.14,.07,.19Z"/><path class="cls-3" d="M54.13,21.43c-.1-.05-.13-.1-.28-.1,.01,.02,.02,.03,.04,.05,.06-.03,.14-.03,.25,.05Z"/><path class="cls-3" d="M49.78,21.03s.05,.04,.08,.06l.13-.02-.21-.04Z"/><path class="cls-3" d="M32.3,68c.08,.09,.13,.19,.18,.28-.06-.22,.53-.28-.18-.28Z"/><path class="cls-3" d="M55.17,67.78c0-.08,.02-.13,.07-.16l-.12,.06s.01,.09,.05,.1Z"/><path class="cls-3" d="M53.45,23.72c-.19-.07-.39-.1-.58-.15,.16,.06,.37,.09,.58,.15Z"/><path class="cls-3" d="M19.13,47.34l.04,.15c0-.06,0-.11-.04-.15Z"/><path class="cls-3" d="M51.1,23.44c-.1-.11-.22-.18-.33-.23-.03,.02-.05,.04-.07,.07l.4,.15Z"/><path class="cls-3" d="M32.48,68.28h0Z"/><path class="cls-3" d="M36.86,67.57c-.63,0-.3,.39-.43,.62-.76,.11-.35-.29-.61-.5-.47,.11-.83,.47-1.19,.45-.03-.07-.09-.09-.01-.17-.5,.32-1.48,.02-2.07,.41-.04-.03-.06-.07-.07-.1,.09,.2,.11,.4,.09,.55-.28,0-.52,.23-.62-.04,.17,.02,.19-.09,.27-.17l-.29,.1c-.24-.39,.39-.11,.4-.39-.54,.08-1.22,.4-1.63,.2-.02-.19,.23-.18,.41-.18,.19-.01,.32-.03,.05-.21l.63,.17c-.45-.6,.38,.06-.03-.58-.8-.13-.93,.09-1.72-.12-.22,.17,0,.3-.22,.48-1.26,.04-.68-1.08-1.62-.9-.28,.15-.54,.56-1.04,.11l.36-.31c-.71-.35-.66,.35-1.32-.26,.21-.08,.64,.15,.55,.06-.34-.53-.46,.05-.84-.15l.1-.37c-.76-.37-1.7-.69-2.48-1.28,.11-.05,.31-.02,.22-.26-1.06-.62-1.76-1.88-2.2-2.92l-.49-.21c-.05-.09,.02-.23,.13-.17-.13-.44-.18,.08-.4-.04-.15-.21-.02-.38,.15-.29-.31-.28-.68-.73-.98-1.23-.25-.52-.49-1.07-.41-1.53l.13,.13c-.03-.66-.83-.56-.66-1.24l.07,.11c-.16-1.43-.42-3.01,.06-4.23-.46-.22,.2-1.53-.43-1.62,.31-.88,.43-.63,.64-1.87,.03-.33-.4-.49-.46-.9h.33l-.35-.57,.4-.3-.09-.38c-.02,.15-.15,.33-.24,.3-.15-.6,.23-1.46,.4-1.48l-.28-1.42c.13,.03,.18,.27,.26,.46-.34-.76,.35-.14,.04-.83-.08,.09-.2-.05-.26-.07,.2-.35,.2-1.13,.12-1.72l.23,.11c.06-1.05-.11-2.22-.11-3.4-.11,.42-.5,.33-.54-.02l.35-.14c-.22-.22-.13,.36-.4-.1,.04-.44,.4-.3,.51-.04l-.12-.54c.1-.03,.16,.09,.29,.13-.22-.22,.35-.93-.03-1.24l.1-.03c0-1.21-.09-1.62-.04-2.5-.3-.05-.18-.38-.38-.68,.09-.32,.23-.64,.4-.97,.17-.33,.27-.68,.41-1.05,.05-.56-.19-.23-.27-.53,.27,.05,.52-.69,.56-.23,.33-.88,.42-1.12,.85-2.25-.16,.05-.28,.15-.32,.04,.08-.21,.36-.37,.45-.27v.06c.21-.67,.83-1.21,1.47-1.61,.61-.45,1.25-.73,1.45-1.31l-.03,.06,.7-.9c.43-.27-.12,.35,.27,.27,.36-.51,.78-.74,1.18-.93,.42-.15,.8-.3,1.19-.63,.52,.27,1.09-.03,1.76-.22,.64-.25,1.37-.42,1.89-.24l-.08-.18c.24-.23,.32,.08,.52,.11-.04-.15-.3-.16-.14-.27,1.06-.2,2.37-.1,3.62,.02,1.26,.12,2.54,.29,3.78,.38,.91,.05,.52-.99,1.67-.53l-.33,.36c1.84-.43,3.77,.01,5.57-.35-.11,.08-.11,.19-.29,.19,.38,.26,1.41,.01,1.41-.2,.28,.02,.07,.19,.24,.3,.38,.15,.96-.33,1.16-.07,.03,.04-.11,.08-.18,.1,.25-.13,1.16,.03,.92-.27,.67,.14,1.3-.14,1.83,.05,.33-.31,1.04,.21,1.18-.25-.08,.46,1.01,.55,1.45,.38-.16,.11,.3,.23,.1,.4,.42,.1,.84,.11,.83-.14,.32,.36,.72,.43,1.11,.45,.38,.02,.72,.1,.76,.54,1.31,.29,2.44,.88,3.45,1.58-.32,.31-1.09-.79-1.35-.35,.51,.25,.97,.39,1.36,.62,.42,.21,.81,.47,1.14,.95,.15,.26-.27,.02-.4,0,.23,.18,.43,.37,.63,.56,.17,.22,.33,.44,.49,.65,.34,.42,.58,.88,.97,1.24-.04,.02-.14-.05-.23-.12,.12,.16,.18,.43,.36,.31l-.15-.14c.05-.21,.31-.13,.56,.02,.24,.16,.49,.38,.57,.36-.72-.04,.31,1.01-.66,.83,.1,.1,.26,.21,.38,.13,.03,.2-.03,.29-.25,.17,.36,.63,.49,.31,.71,.93-.1,.03-.19-.08-.33-.1,.33,.24,.59,.52,.65,1.09-.07-.02-.14,.06-.18-.1,.15,.45,.34,.83,.51,1.24,.09,.2,.17,.41,.22,.64,.03,.23,.04,.48,0,.75-.48-.29-.13,.37-.53,.43,.05,.18,.09,.38,.13,.58l.2-.24c0,.53,.29,.99,.15,1.45l-.17-.39,.08,.99,.15-.56c.21,.53,.51-.06,.4,.65-.04-.14,0,.53-.24,.8h0c.13,.26,.26,.53,.16,.92-.13,.1-.44-.08-.53-.02,.34,.26,.09,1.24,.45,1.56-.08-.11-.3-.11-.34-.08l.27,.22c-.09,.24-.13,.28-.3,.24-.05,.74,.51-.23,.29,.64-.02-.07-.06-.04-.1-.18-.11,.88,.17,1.69,.04,2.5-.4,.24-.1-.7-.44-.43,.07,1.16,.49,2.41,.39,3.53l.04-.21c.57,.16-.28,.84-.01,1.41-.04-.14-.32-.18-.25-.14-.09,.77,.14,1.57,.32,2.74l-.15-.14c-.13,.45-.08,1.19-.14,1.68,.15,.15,.12,.43,.34,.26-.4,.77-.35,1.42-.26,2.11,.02,.67,.1,1.38-.43,1.91,.04-.15-.03-.38-.07-.26-.05,.36-.09,.72-.15,1.08,.27,0,.18-.09,.43-.26,.12,.18,.13,.52,.03,.78,.02-.53-.38-.12-.58,.03,.08,0,.14,.09,.22,.1-.62,.38,.45,.28-.13,.91l-.1-.09c-.07,.29-.03,.62-.21,.9-.31,0,.02-.35-.19-.47-.17,.41,.09,1.06-.39,1.27,.03-.21,.18-.44,.2-.65-.51,.22-.47,.3-.68,.55l.02-.02c-.18,.18-.34,.38-.52,.55,.06-.03,.13-.07,.18-.1,.28,.87-.52,1.01-.67,1.88,.15-.85-.12-.27-.33-.52-.2,.08-.46,.22-.48,.1-.05,.43-.51,.29-.62,.89-.09-.06-.28,.24-.4,0-.27,.36,.2,.07,.26,.19-.14,.37-.51,.58-.94,.76-.42,.2-.83,.43-1.14,.88-.63,.64-.64,1-1.33,1.53-.32-.03,.05-.45,.05-.45-.46,.07-.77,.2-1.13,.46,.05-.12-.06-.16-.22-.23-.31,.13-.09,.45-.56,.43,.04-.13,.08-.33,.19-.5-.33,.22-.67,.48-1.04,.69-.15-.15,.18-.33,.28-.48-.21,.1-.48,.21-.72,.34-.24,.1-.44,.23-.49,.38l.31,.06c-.17,.04-.13-.23-.02-.3,.34-.28,.57-.03,.62,.08l-.27,.14c.43,.5,1.16-.35,1.7-.55l-.09,.51,.46-.56c.16,.06,.34,.27,.08,.43,.5,.05,.31-.27,.76-.19,.05,.02,.04,.05,.02,.08l.34-.31c-.04,.12,.2,.26-.07,.31,.83-.11,.99-.85,1.4-.72l-.04,.06c.85-.7-.07-.34,.4-1.08,.3,.14,.59,.24,.9,.36l-.11-.33c.1-.06,.29-.17,.33-.04,.2-.43-.14-.07-.08-.38,.64-.06,1-1.07,1.47-.75-.03-.31-.51,.21-.21-.3,.53,.3,.39-.54,.9-.72,.12,.3-.32,.55,.21,.36-.08-.28,.1-.43,.33-.58,.21-.16,.48-.3,.57-.5-.3-.24,.42-.83,.65-1.51,.04,.05,.28-.19,.51-.55,.23-.35,.5-.79,.71-1.06l.05,.04c-.31-.27-.02-.88,.07-1.37,.22,.09,.28,.2,.28,.5l.16-.45c-.08-.14-.11-.31-.08-.61l.25,.2c.15-.63,0-1.3,.28-2.06-.27-.07-.85,.49-.91-.33,.15,0,.41,0,.44,.21,0-.07-.08-.26,0-.4l.2,.36c.16-.34-.18-.21-.11-.49,.22,.03,.17-.2,.33-.14,.02,.08-.11,.24-.05,.36,.1-.32,.21-.71,.39-.83-.12,.02-.29-.02-.3-.26,.02-.62,.27-.2,.39-.57-.14-.16,0-.53-.31-.54,0-.18,.15-.21,.24-.28-.14-.31-.04-1.45-.38-1.1l-.02,.08v-.05h-.01c-.32-1.01,.18-2.11,.04-3.12h.11c-.12-.6-.07-1.34-.3-1.77,0-.18,.19-.42,.32-.34-.08-.46-.2-.51-.02-1.17,.19,.46,.16-.16,.14,.47,.09-.6,.26-.73-.03-1.37,.27,.22,.34-.45,.26-.73l-.2,.42c-.04-.32-.02-.6,0-.88l.36,.15c.44-1.22-.74-2.2-.01-3.13-.25-.32-.18,.66-.47,.37,.05-.56,.56-1.15,.56-1.32,.2-.77-.52-.72-.39-1.52-.13,.1-.47,.2-.59-.4,.05-.56,.54-.69,.64-.34,.01,.13-.03,.2-.07,.19,.05,.18,.1,.42,.24,.2l-.13-.07c.13-.28,.12-1.05,.33-.87-.12-.42-.21-.18-.28,.13,.18-.73,.03-1.1,.1-1.91-.06,.13-.21,.25-.21,.12,.09-1.16-.25-.49-.38-1.25,.13-.46,.49,.1,.21-.65,.06-.5,.32-.16,.45,.02-.33-.69-.1-1.38-.17-1.81l.2,.36c-.12-.21-.16-.4-.21-.59l-.19,.28c-.01-.23-.06-.42,.04-.45-.22-.18-.36,.29-.71-.08,.02-.32-.44-.79-.16-1.01,.22,.92,.28-.22,.61,.52-.09-.13-.16-.31-.19-.55,.02-.05,.08,0,.12,.06-.04-.98-.49-.26-.88-1.11,.23,.03,.23-.36,.13-.48,.16,.35-.21,.3-.49,.06-.13-.61-.42-.51-.55-.78l.12,.34c-.23,0-.36-.27-.62-.58,.11-.11,.28,.26,.26,.1-.5-.21-.28-1.05-.85-1.43-.08-.32,.26-.25,.17-.51-.66-.39-.33-.77-1.01-1.21-.04,.35,.05,.31-.52,.12,.35,.23,.65,.52,.98,.78l-.81-.33c.24,.27,.65,.47,.76,.66-.41-.14-.33-.15-.38,.12-.06-.62-.81-.59-1.06-1.15l.45-.45c-.48-.84-1.41-.8-2.27-1.58,.08,.1,.17,.19,.25,.29-.26,.11-.62-.34-.99-.45,.14-.17-.02-.35-.1-.55-.05,.13-.76-.4-1.04-.06l-.35-.48c-.83-.46-1.21,.17-2.01-.16,.32-.15-.02-.42,.6-.39-.28-.12-.54-.2-.58-.06-.14-.17-.87,.07-1.09-.19-.14,.06-.23,.28-.55,.21-.03-.05,.02-.1,.02-.1-.02,.1-.53,.06-.29,.34-.79-.85-2.5-.17-3.21-.73-.61,.07-1.36,.14-1.91,.16,.04-.06,0-.11,.11-.08-.77-.2-.47,.61-1.35,.39-.45-.34,.47-.19,.19-.32-.12-.7-1.06,.1-1.65-.31l.14-.04c-.45-.24-1.1,.27-1.84,.22,0,0,.04-.06,0-.11-.5,.36-1.46,.47-2.17,.57,.22-.27,.32-.14,.19-.42-.32,.04,.09,.45-.54,.52-.21-.15-.66-.28-.72-.58l.6-.02c-.31-.38-.77,.01-1.09-.05l.04-.17c-.92,.05-.93,.48-1.91,.45l.1,.13c-.54,.42-.45-.24-.99,.08l-.16-.43c-.36,.1-1.24,.41-1.88,.49,.36-.32,1.11-.48,1.57-.66-.35,0-1.2,.03-1.38,.24,.14-.04,.32-.15,.46-.08-.43,.33-1,.5-1.7,.49,.12-.82-1.8-.22-2.41-.8-1.3,.37-2.66,.19-4.16,.73,.72,.42-.42,.17-.11,.76-.31,.16-.44,.2-.49,.17-.38,0-.75,.06-1.14,.09-.32-.06,.25-.28,.15-.4-.75,.3-.43-.11-1-.02,.2,.15-.09,.43-.53,.6l.7-.07c-.76,.89-1.15-.01-1.88,.96l.17-.39c-.2,.23-.64,.55-1.04,.92-.37,.4-.7,.84-.72,1.21-.13,.01-.36-.02-.2-.23-1.06,.96-1.6,2.65-2.37,3.41l-.08-.17c-.09,.25,.03,.53-.27,.73-.05-.05-.1-.17-.16-.07-.01,.15-.05,.74-.28,1.01l-.04-.34c-.41,.56-.48,1.1-.5,1.61-.04,.5,.03,1-.05,1.54-.23-.06-.45,.16-.63,.46-.17,.3-.28,.69-.36,.95l-.06-.03c-.18,.79-.06,1.48,.02,2.14,.11,.63,.28,1.2,.37,1.87-.51,.83-.22,2.82-.5,4.15,.09-.2,.37,.03,.42,.27-.1,.31,.33,.87-.11,.82v-.11c-.42,.24-.31,.88-.32,1.38l.57,.08c-.83,1.32,.3,3.45-.44,4.17,.14,.32,.14,.71,.28,1.03l-.31-.02c-.08,.88-.12,1.32-.04,2.41l-.22-.22c-.02,.61,.88,.77,.9,1.34l-.46,.17c0,.54-.1,1.06-.11,1.66-.03,.59,.02,1.18,.33,1.71-.07,0-.2-.02-.25-.21,.04,.27,.02,.82,.13,1.25,.11,.43,.28,.74,.55,.57-.2,.06-.13,.35,.03,.7,.18,.34,.47,.71,.66,.97l-.31,.02c.53,.36,.63,.33,1.04,.92,.04,.17-.15,.24-.18,0,.12,.58,.42,.28,.62,.94l-.3-.13c.28,.51,.35,.42,.71,.58,.27,.25,.53,.95,.38,1.18,.18-.03,.55,.09,.69,.4-.05,.1-.18,.04-.24,.01,.47,.89,1.19,.87,1.47,1.53-.06,.08-.06,.15-.04,.21-.58-.52-.95-1.04-.91-1-.21,.18,.19,.7-.44,.57,.5,.28,1.45,.54,1.83,1.04,0,.04,0,.08,0,.13l-.07-.02c.09,.12,.2,.19,.33,.22,.13,.15,.21,.26,.36,.38-.07,.22,.51,.56,.79,.73,.15-.27,.47-.01,.28-.42,.03,.04-.07,0-.25-.1-.04-.02-.09-.05-.13-.05h.03c-.17-.13-.39-.28-.64-.46,.29,.03,.57,.07,.75,.42,.24-.06,.5-.15,.63-.18,.13,.56,.72,1.22,.72,1.48,.48,.13,1,.38,1.52,.49,.52,.11,1.01,.16,1.38-.02,.28,0,.25,.23,.33,.34-.17,.02-.35-.04-.45,.02,.57-.01,1.58,.37,1.79-.03,.64,.28-.44,.3,.49,.38l-.14,.1c.87,.49,1.69,.23,2.45,.04,.74-.23,1.5-.44,2.47-.03-.13-.05-.2-.07-.23-.14,2.21,.36,4.56-.34,6.75,.23,.62,.11,.69-.14,1.07-.33l.13,.33,.65-.38c.92-.27,1.59,.8,2.75,.28l-.15-.22c.42,.04,1.32-.13,1.25,.12,.04-.04,.14-.23,.3-.11v.17l1.04-.29c.8,.12-.12,.68,1.04,.71,.43-.07,1.23-.5,1.07-.61-.17,0-.44-.11-.46-.28l.39-.09c.07-.5,.37-1.02-.59-1.37l-.68,.31-.22-.24,.57-.02c-.32-.23-.53-.03-.76,.11-.05-.13-.15-.22-.28-.27l-.66,.48c-.08-.2,.3-.39-.15-.5-.31,.22,.3,.44-.22,.59-.32-.23-.23-.41-.61-.22-.05-.13,.03-.21,.18-.27-.34,.15-.89,.07-1.07,.33-.34-.28-1.14,.07-1.11-.4-.11,.11-.59,.37-.9,.39,.57-.57-1.16-.03-1.01-.64-.42,.51-1.51,.23-2.26,.51,.04-.04,.12-.12,.19-.1-.42-.04-.54-.2-.81-.29-.05,.42-.7,.52-1.06,.78-.51-.41,.31-.5,.15-.89,.03,.34-.89,.34-.72,.63-.39-.25-.34-.12-.54-.47-.07,.53-.36,.09-.69,.41-.57-.26-.15-.49-.77-.33-.3-.16,.26-.35,.26-.35Zm-13.4-2.5h0l.22,.18-.23-.18Zm-.86-.8c.08,.12,.21,.25,.35,.37-.04,.1-.15,.15-.23,.07,.1,0-.07-.24-.12-.43Zm.66,3.32c-.2-.09-.22-.18-.21-.25,.08,.06,.18,.12,.32,.19l.04-.02s-.1,.07-.16,.07Z"/><path class="cls-3" d="M23.79,67.5s.05,.01,.08,.03l-.06-.13-.11,.03,.09,.06Z"/><path class="cls-3" d="M65.75,52.88v-.03s-.02,.04-.04,.06c.01-.02,.02-.02,.04-.03Z"/><polygon class="cls-3" points="19.28 48.72 19.21 48.72 19.27 48.83 19.28 48.72"/><path class="cls-3" d="M63.86,59.43s-.06,.02-.1,.05c.02,0,.06-.02,.1-.05Z"/><path class="cls-3" d="M62.57,61.95l-.3,.28c.14-.11,.23-.21,.3-.28Z"/><path class="cls-3" d="M61.19,63.61c.02,.05,.05,.09,.07,.12h0l-.07-.12Z"/><path class="cls-3" d="M62.28,29.72s-.03-.05-.05-.06c-.15-.13-.06-.03,.05,.06Z"/><path class="cls-3" d="M64.84,39.55c-.05-.11-.11-.23-.14-.35-.02,.19-.03,.34,.14,.35Z"/><polygon class="cls-3" points="53.51 23.74 53.51 23.73 53.45 23.72 53.51 23.74"/><path class="cls-3" d="M64.7,38.7c-.06,.19-.05,.35,0,.5,.02-.16,.05-.34,0-.5Z"/><path class="cls-3" d="M53.27,68.09h-.1s0,.04,0,.05l.11-.05Z"/><path class="cls-3" d="M53.16,68.14l-.11,.05c.05,0,.1-.02,.11-.05Z"/><path class="cls-3" d="M52.83,68.31l.23-.11c-.08,.01-.19,.02-.23,.11Z"/><path class="cls-3" d="M56.02,67.41v-.11s-.02,.06,0,.11Z"/><path class="cls-3" d="M56.78,67.01c-.2,.07-.56,.01-.79,.2v.09c.06-.21,.69-.04,.79-.29Z"/><path class="cls-3" d="M60.66,66.03c-.21,.16-.43,.32-.66,.44,.18,0,.43,.02,.16,.26,1.02-.36-.31-.05,.51-.7Z"/><path class="cls-3" d="M62.51,64.37c-.24,.36,.14,.11,.17,.16,.08-.29,.1-.36-.17-.16Z"/><path class="cls-3" d="M65.99,47.51l.28,.04c-.04-.32-.11,0-.28-.04Z"/><polygon class="cls-3" points="64.56 44.22 64.39 44.53 64.64 44.68 64.56 44.22"/><polygon class="cls-3" points="66.53 42.28 66.57 42.42 66.47 41.89 66.53 42.28"/><path class="cls-3" d="M50.52,20.76l.1,.34c.22-.05,.27-.44-.1-.34Z"/><path class="cls-3" d="M38.05,21.11c-.14-.17-.49-.28-.7-.11,.28,.02,.56,.16,.7,.11Z"/><polygon class="cls-3" points="16.56 45.42 16.45 45.17 16.54 45.64 16.56 45.42"/></g></g></g><g><g><path class="cls-3" d="M1101.74,13.21h0Z"/><path class="cls-3" d="M1097.53,14.1l-.12,.03c0,.14,.04,.09,.12-.03Z"/><path class="cls-3" d="M1085.71,14.02s-.01,0-.02-.01h-.05s.04,.01,.06,.01Z"/><path class="cls-3" d="M1101.74,13.21c.1-.07,.2-.15,.27-.24-.42-.21-.13,.16-.27,.24Z"/><path class="cls-3" d="M1084.23,76.99c.14,.02,.23,0,.32-.05-.06-.02-.15-.01-.32,.05Z"/><path class="cls-3" d="M1090.77,76.75c.09-.16,.24-.25,.21-.42-.46,0-.55,.14-.21,.42Z"/><path class="cls-3" d="M1089.92,77.21s-.05-.06-.08-.09c0,.05,.03,.07,.08,.09Z"/><path class="cls-3" d="M1089.92,77.21c.14,.16,.3,.3,.57,.29,.09-.45-.39-.23-.57-.29Z"/><path class="cls-3" d="M1081.12,76.47c.19,.37,.63,.09,.84,.07,.16-.49-.63,.19-.84-.07Z"/><path class="cls-3" d="M1077.67,77.05c.15-.09,.2-.03,.33,0l-.12-.41c-.2,.03-.45,.27-.21,.42Z"/><polygon class="cls-3" points="1070.23 17.28 1070.38 16.91 1070.06 17 1070.23 17.28"/><path class="cls-3" d="M1099.74,14.25c.51-.05-.02,.39,.37,.36-.07-.05,.06-.57-.37-.36Z"/><path class="cls-3" d="M1109.44,77.08s.01,0,.02,.01h.05s-.04-.01-.06-.01Z"/><path class="cls-3" d="M1110.92,14.12c-.14-.02-.23,0-.32,.05,.06,.02,.15,.01,.32-.05Z"/><path class="cls-3" d="M1134.17,58.86c.05-.77,.1-1.54,.16-2.32,.23-1.51,.55-3.09,.29-4.65,.13-2.58,.17-5.17-.05-7.77-.05,.08-.1,.12-.16,.14-.04-1.31-.38-2.7,.02-3.85-.09,.05-.16,.07-.23,.09-.02-.61-.03-1.23-.04-1.83l.03,.31,.06-.4s-.06-.03-.09-.05c-.02-.92-.02-1.85,0-2.78,.03-.23,.07-.47,.13-.74-.07-.44-.32-.68-.45-1-.01-.24,0-.49-.08-.67,0-.03,0-.06,0-.09,.72-.53,.03-1.79,.3-2.63-.14,.05-.28,.02-.41-.05,.11-.37,.29-.78,.58-1.39,.07-.98,.13-1.95,.17-2.91,.02-.48,.05-.92,.02-1.64,0-.65-.04-1.3-.14-1.94-.32-2.58-1.22-5.07-2.55-7.22-2.65-4.34-7.07-7.32-11.95-8.23-.62-.11-1.24-.17-1.86-.17l-.92-.02-.69,.02-2.76,.11c-1.84,.09-3.68,.18-5.52,.28-3.69,.2-7.4,.4-11.19,.51-.63,.61-1.38,.73-2.15,.88-1.06-.04-2.33-.07-3.58-.26-.42-.06-.65,.06-.84,.23-.13-.05-.27-.09-.43-.14-.01,.27-.26,.23-.36,.37v-.14c-.28,.1-.47,.26-.63,.43-.17-.17-.36-.38-.57-.49,.03-.05,.07-.1,.11-.15-.55-.11-1.09,.22-1.57,.4,.03-.26,.1-.75-1.22-1.1-1.7,.12-3.41,.35-5.11,.5-1.23,.13-2.34,.13-3.66,.14,.21-.18,.4-.36,.55-.53,.5-.56,.73-1.05,.73-1.05-1.67,.2-3.23,.55-4.74,1.03-1.5,.52-2.91,1.19-4.26,2.01-1.77,1.12-3.45,2.53-4.88,4.31-.08,.07-.16,.13-.22,.17,0,.05,0,.08,0,.13-.63,.81-1.21,1.69-1.73,2.66-.16,.55-.33,1.15-.44,1.77l-.07-.05c-.19,.58-.4,1.15-.53,1.77-.15,.6-.3,1.21-.37,1.84l-.13,.94-.05,.95c-.01,.3-.04,.68-.04,.92v.75c.01,2,.08,4.01,.35,5.99-.05,.77-.1,1.54-.16,2.32-.23,1.51-.55,3.09-.29,4.65-.13,2.58-.17,5.17,.05,7.77,.05-.08,.1-.12,.16-.14,.04,1.31,.38,2.7-.02,3.85,.09-.05,.16-.07,.23-.09,.02,.61,.03,1.23,.04,1.83-.01-.1-.02-.2-.03-.31l-.06,.4s.06,.03,.09,.05c.02,.92,.02,1.85,0,2.78-.03,.23-.07,.47-.13,.74,.07,.44,.32,.68,.45,1,.01,.24,0,.49,.08,.67,0,.03,0,.06,0,.09-.72,.53-.03,1.79-.3,2.63,.14-.05,.28-.02,.41,.05-.11,.37-.29,.78-.58,1.39-.07,.98-.13,1.95-.17,2.91-.02,.48-.05,.92-.02,1.64,0,.65,.04,1.3,.14,1.94,.32,2.58,1.22,5.07,2.55,7.22,2.65,4.34,7.07,7.32,11.95,8.23,.62,.11,1.24,.17,1.86,.17l.92,.02,.69-.02,2.76-.11c1.84-.09,3.68-.18,5.52-.28,3.69-.2,7.4-.4,11.19-.51,.63-.61,1.38-.73,2.15-.88,1.06,.04,2.33,.07,3.58,.26,.42,.06,.65-.06,.84-.23,.13,.05,.27,.09,.43,.14,.01-.27,.26-.23,.36-.37v.14c.28-.1,.47-.26,.63-.43,.17,.17,.36,.38,.57,.49-.03,.05-.07,.1-.11,.15,.55,.11,1.09-.22,1.57-.4-.03,.26-.1,.75,1.22,1.1,1.7-.12,3.41-.35,5.11-.5,1.23-.13,2.34-.13,3.66-.14-.21,.18-.4,.36-.55,.53-.5,.56-.73,1.05-.73,1.05,1.67-.2,3.23-.55,4.74-1.03,1.5-.52,2.91-1.19,4.26-2.01,1.77-1.12,3.45-2.53,4.88-4.31,.08-.07,.16-.13,.22-.17,0-.05,0-.08,0-.13,.63-.81,1.21-1.69,1.73-2.66,.16-.55,.33-1.15,.44-1.77l.07,.05c.19-.58,.4-1.15,.53-1.77,.15-.6,.3-1.21,.37-1.84l.13-.94,.05-.95c.01-.3,.04-.68,.04-.92v-.75c-.01-2-.08-4.01-.35-5.99Zm-36.29-45.25h0Zm-10.67,.09c-.09,.02-.2,.05-.32,.07,.12-.06,.23-.09,.32-.07Zm10.05,63.78h0Zm10.67-.09c.09-.02,.2-.05,.32-.07-.12,.06-.23,.09-.32,.07Zm8.61-.91c-.48,.78-1.38-.31-1.45,.7,.02-.11-.09-.24-.14-.3-.32,.29-.58,.94-.98,.99l.13-.66c.1-.84-1.15-.16-1.26-.58,.35,.56-.46,0-.49,.5l-.48,.21c-.76,.17-.09,.33-1.02,.42-.53,.04-.18-.76,0-.68-.45-.35-.9-.15-1.36,0,.17,0,.23,.04,.07,.19-.01-.09-.06-.14-.11-.17-.17,.05-.34,.1-.52,.1,0-.02,0-.02,0-.03,.19-.04,.37-.07,.5-.08-.12-.06-.3-.06-.48-.07-.02-.04-.07-.04-.14,0-.16-.01-.3-.04-.4-.14l.13-.52c-.33-.02-1.23,.57-1.2,.79-1.28-.44-3.4-.07-4.26,.22,.17-.12,.19-.29,.02-.11-.44,.1-.94,.54-.98,.21-.43,.21-.4-.36-1.06-.41-.01-.09-.06,.28,0,.41-.72-.44-1.55-.11-2.41,.06,0-.01,.01-.01,.02-.02-.03,0-.05,.02-.08,.03-.18,.03-.36,.05-.54,.06-.19-.16-.38-.35-.62-.11-.03-.04-.04-.09-.04-.14,.08-.11,.16-.25,.22-.35-.05,.01-.11,.03-.16,.04,0-.07-.04-.12-.17-.14-.05,.06-.08,.13-.09,.2-.48,.12-.94,.25-1.39,.43-.49,.1-1.03,.31-1.1,.56h0c.1-.23,.07-.45,.31-.59-.57,0-1.2,.1-1.6,.38,.02-.01,.05-.02,.09-.01,.18,.16,.18,.32,.08,.46-.2,.14-.42,.26-.68,.35-.1,.01-.2,.01-.28,0v-.11c-.63,.01-.74,.23-1.23,.29-.04,0-.08,0-.13,0h0s-.07,.02-.12,.02c-.43-.29,.37-.14,.2-.47-.04-.22-.18-.36-.36-.45,.41-.73,2.05-.77,2.42-.32,.81-.79-.64-.09-.49-.86-.73,.06-1.07,.46-2.21,.58,0,.27,.17,.39,.11,.53-.49-.15-1.14-.04-1.23-.1-.06,.06-.13,.12-.19,.18-.15-.22-.25-.44-.35-.46,.15-.09,.35-.12,.5-.21-.67-.27-.9,.26-1.61,.22-.19-1.05,1.13-.12,1.39-.77l-.51-.75c-1.09-.1-.3,.86-1.42,.59l.14-.38-.7,.24c-.01,.39,.14,.98,.74,.9-.4,1.01-.55,.14-1.51,.34-.31,.58,.4-.05,.43,.52,.03,.18-.03,.29-.13,.38-.09,.04-.18,.08-.27,.13-.2,.06-.43,.09-.64,.13-.79,0-.4-.62-.72-1.01,.15-.1,.75-.18,.69,.16,.97-.6-.42-1.2,.25-1.61-.75-.34-.72,.34-1.11,.54,.23,.07-.1,.58,.06,.78-1.29,1.57-.82-1.14-2.06-.87,.17,.66-.59,1.06-.88,1.56-.36-.02-.74-.08-1.11-.14l.52-.62c-.5-.47-1.33-.93-1.59-1.25-.65,.3,.2,.65-.55,.82,.26-.35-.2-.65-.53-.64,.67,.26,.01,.96-.41,1.13-.33,0-.64-.15-.83-.33-.15-.19-.22-.39-.19-.47,.08-.09,.14-.18,.24-.28l.32-.29c-.48,.5-.25-.26-.59-.07-.1,.37-.35,.94-.51,1.42-.35,.16-.51-.4-.63-.32,.18-.12,.36-.2,.53-.34-.65,.07-.02-1.06-.65-.88l-.25,.5c-.11-.1-.11-.36,.03-.52-.16,.35-.49,.17-.67,.27l.05-.35c-.29,.18-.87,.75-.94,0-.04,.87,.29,.13,.62,.64,.06,.33-.09,.45-.28,.48-.19,0-.4-.06-.47-.04,.16-.42,0-.5-.24-.5-.24,0-.57,.04-.73-.04-.04-.38-.13-.58-.14-.82l-.39,.45c.47-1.07-.73-.13-.86-.71,.36-.16,.58-.56,.48-.85-.2,.92-1.1,.49-1.37,.99-.35-.75,.8-.72,1.01-1.34-.65,.26-.25-.79-.96-.36,.14,.56-.42,.33-.76,.5-.39-.55,.34-.18,.26-.73-.27-.1-.96-.02-.89,.51-.08-.44-1.03-.32-.84-1.04,.32-.44,.65,.57,.82,.13-.34-.58-.87-.15-1.38-.14-.12-.04-.25-.07-.38-.11-.07-.04-.14-.09-.2-.16,0,.02-.01,.04-.02,.05-.1-.07-.17-.18-.2-.36-.05-.13-.02-.36,.03-.5,.16,.02,.32,.06,.48,.1,.44,.13,.85,.22,1.07-.19l-.44-.23c.27-.03,.73-.13,.89-.39-.3,.1-.44-.09-.51-.31-.05-.23-.05-.46-.13-.47-.52,.11,.25,.25-.16,.34-.26-.34-1.21-.25-1.04-1.05,.45,.27,.67-.33,.99-.25,.14-.36-.65,.06-.45-.46h.32c-.09-.94-.19-1.99-.29-3-.16-1.27-.5-2.49-1.15-3.49,.53-.37,.58-1.12,.95-2.28-.18,.51-.55,.02-.61-.27l.61-.56c.36-.68-.23-1.56-.57-2.19,.12-.11,.29-.15,.45-.18,.4-.6-.34-.63-.48-.86l.43-.39-.42-.09c-.24-.61-.14-1.41,.55-1.33-.13-.24-.26-.47-.46-.17,.41-.6,.41-2.26,.17-3.34-.18,.51-.39,.47-.82,.51-.74-.16,.14-.24-.29-.68,.27-.01,.55-.5,.75,.02,.94-1.45,.18-3.47,.37-5.3-.11-.37-.24-.26-.43-.43,.74-1.15-.04-2.56,.29-3.8-.31,.28-1.17-.11-1.19-.8-.6-.75,.85-.3,1.21-.98-.28-.34-.36-.97-.32-1.24l.1,.02c-.32-.41-.51-1.07-.23-1.56l.04,.08c.05-.4,.44-.87,.39-1.29-.57-.19-.22-1.22-.72-1.47,.06-.05,.11,.03,.23-.09l-.48-.04,.27-.84c.19,.18,.4,.22,.53,.46,.33-.89-.45-.3-.71-.77-.35-.63,.13-.59,.33-.89,.24,.26-.11,.46-.03,.61,.38,.36,.15-.38,.43-.39,.02-.13-.57-.19-.45-.65,.06-.4-.1-1.33,.43-1.22-.28-.34-.22-.74-.46-.99-.1,.32-.23,.92-.56,.98-.07-.29-.21-.87,.02-.97l.13,.24c-.13-.24,.03-1.09-.46-.65l.67-.61c-.4-.23-.37-.84-.47-1.34,.54-.02,1.13,.38,1.26-.56l-.54-.81c-.05-.44,.09-.46,.4-.42,.34-1.1-1.38-1.37-.76-2.3,.54,.54,.65,.2,.93-.15-.1-.04-.29-.13-.27-.31-.31,.04,.37,.35-.13,.56-.41,.01-.16-.44-.24-.67,.75-.24,1.04-.82,1.33-1.5,.15-.33,.27-.7,.49-1.01,.2-.32,.43-.6,.76-.75-.66-.4,.14-.64,.12-1.01,.56,.63,.36-.69,.99-.56l-.69-.46c.46-.11,.49-.58,.58-.98,.09-.38,.22-.71,.7-.47,.51-.09,.2,.6,.13,.82,.49,.16,.71-.21,.97-.57,.24-.38,.53-.69,.95-.35-.08-.33-.49-.72-.09-1.27,.58,.16,1.51,.25,1.48,.45,.29-.25,.34-.53,.77-.35,.01,.22-.14,.3-.24,.42,.31,.01,.56-.07,.81-.21,.24-.13,.47-.37,.73-.53,.2,.31,.54,.37,.93,.38,.47,.04,1.02,.05,1.44,.22,.48-.78,1.38,.31,1.45-.7-.02,.11,.09,.24,.14,.3,.32-.29,.58-.94,.98-.99l-.13,.66c-.1,.84,1.15,.16,1.26,.58-.35-.56,.46,0,.49-.5l.48-.21c.76-.17,.09-.33,1.02-.42,.53-.04,.18,.76,0,.68,.45,.35,.9,.15,1.36,0-.17,0-.23-.04-.07-.19,.01,.09,.06,.14,.11,.17,.17-.05,.35-.1,.52-.1,0,.02,0,.02,0,.03-.19,.04-.37,.07-.5,.08,.12,.06,.3,.06,.48,.07,.02,.04,.07,.04,.14,0,.16,.01,.3,.04,.4,.14l-.13,.52c.33,.02,1.23-.57,1.2-.79,1.28,.44,3.4,.07,4.26-.22-.17,.12-.19,.29-.02,.11,.44-.1,.94-.54,.98-.21,.43-.21,.4,.36,1.06,.41,.01,.09,.06-.28,0-.41,.72,.44,1.55,.11,2.41-.06,0,.01-.01,.01-.02,.02,.03,0,.05-.02,.08-.03,.18-.03,.36-.05,.54-.06,.19,.16,.38,.35,.62,.11,.03,.04,.04,.09,.04,.14-.08,.11-.16,.25-.22,.35,.05-.01,.11-.03,.16-.04,0,.07,.04,.12,.17,.14,.05-.06,.08-.13,.09-.2,.47-.12,.94-.25,1.39-.43,.49-.1,1.03-.31,1.1-.56h0c-.1,.23-.07,.45-.31,.59,.57,0,1.2-.1,1.6-.38-.02,.01-.05,.02-.09,.01-.18-.16-.18-.32-.08-.46,.2-.14,.42-.26,.68-.35,.1-.01,.2-.01,.28,0v.11c.63-.01,.74-.23,1.22-.29,.04,0,.08,0,.13,0h0s.07-.02,.12-.02c.43,.29-.37,.14-.2,.47,.04,.22,.19,.36,.36,.45-.41,.73-2.05,.77-2.42,.32-.81,.79,.64,.09,.49,.86,.73-.06,1.07-.46,2.21-.58,0-.27-.17-.39-.11-.53,.49,.15,1.14,.04,1.23,.1,.06-.06,.13-.12,.19-.18,.15,.22,.25,.44,.35,.46-.15,.09-.35,.12-.5,.21,.67,.27,.9-.26,1.61-.22,.19,1.05-1.13,.12-1.39,.77l.51,.75c1.09,.1,.3-.86,1.42-.59l-.14,.38,.7-.24c.01-.39-.14-.98-.74-.9,.4-1.01,.55-.14,1.51-.34,.31-.58-.4,.05-.43-.52-.03-.18,.03-.29,.13-.38,.09-.04,.18-.08,.27-.13,.2-.06,.43-.09,.64-.13,.79,0,.4,.62,.72,1.01-.15,.1-.75,.18-.69-.16-.97,.6,.42,1.2-.25,1.61,.75,.34,.72-.34,1.11-.54-.23-.07,.1-.58-.06-.78,1.29-1.57,.82,1.14,2.06,.87-.17-.66,.59-1.06,.88-1.56,.36,.02,.74,.08,1.11,.14l-.52,.62c.5,.47,1.33,.93,1.59,1.25,.65-.3-.2-.65,.55-.82-.26,.35,.2,.65,.53,.64-.67-.26-.01-.96,.41-1.13,.33,0,.64,.15,.83,.33,.15,.19,.22,.39,.19,.47-.08,.09-.14,.18-.24,.28l-.32,.29c.48-.5,.25,.26,.59,.07,.1-.37,.35-.94,.51-1.42,.35-.16,.51,.4,.63,.32-.18,.12-.36,.2-.53,.34,.65-.07,.02,1.06,.65,.88l.25-.5c.11,.1,.11,.36-.03,.52,.16-.35,.49-.17,.67-.27l-.05,.35c.29-.18,.87-.75,.94,0,.04-.87-.29-.13-.62-.64-.06-.33,.09-.45,.28-.48,.19,0,.4,.06,.47,.04-.16,.42,0,.5,.24,.5,.24,0,.57-.04,.73,.04,.04,.38,.13,.58,.14,.82l.39-.45c-.47,1.07,.73,.13,.86,.71-.36,.16-.58,.56-.48,.85,.2-.92,1.1-.49,1.37-.99,.35,.75-.8,.72-1.01,1.34,.65-.26,.25,.79,.96,.36-.14-.56,.42-.33,.76-.5,.39,.55-.34,.18-.26,.73,.27,.1,.96,.02,.89-.51,.08,.44,1.03,.32,.84,1.04-.32,.44-.65-.57-.82-.13,.34,.58,.87,.15,1.38,.14,.12,.04,.25,.07,.38,.11,.07,.04,.14,.09,.2,.16,0-.02,.01-.04,.02-.05,.1,.07,.17,.18,.2,.36,.05,.13,.02,.36-.03,.5-.16-.02-.32-.06-.48-.1-.44-.13-.85-.22-1.07,.19l.44,.23c-.27,.03-.73,.13-.89,.39,.3-.1,.44,.09,.51,.31,.05,.23,.05,.46,.13,.47,.52-.11-.25-.25,.16-.34,.26,.34,1.21,.25,1.04,1.05-.45-.27-.67,.33-.99,.25-.14,.36,.65-.06,.45,.46h-.32c.09,.94,.19,1.99,.29,3,.16,1.27,.5,2.49,1.15,3.49-.53,.37-.58,1.12-.95,2.28,.18-.51,.55-.02,.61,.27l-.61,.56c-.36,.68,.23,1.56,.57,2.19-.12,.11-.29,.15-.45,.18-.4,.6,.34,.63,.48,.86l-.43,.39,.42,.09c.24,.61,.14,1.41-.55,1.33,.13,.24,.26,.47,.46,.17-.41,.6-.41,2.26-.17,3.34,.18-.51,.39-.47,.82-.51,.74,.16-.14,.24,.29,.68-.27,.01-.55,.5-.75-.02-.94,1.45-.18,3.47-.37,5.3,.11,.37,.24,.26,.43,.43-.74,1.15,.04,2.56-.29,3.8,.31-.28,1.17,.11,1.19,.8,.6,.75-.85,.3-1.21,.98,.28,.34,.36,.97,.32,1.24l-.1-.02c.32,.41,.51,1.07,.23,1.56l-.04-.08c-.05,.4-.44,.87-.39,1.29,.57,.19,.22,1.22,.72,1.47-.06,.05-.11-.03-.23,.09l.48,.04-.27,.84c-.19-.18-.4-.22-.53-.46-.33,.89,.45,.3,.71,.77,.35,.63-.13,.59-.33,.89-.24-.26,.11-.46,.03-.61-.38-.36-.15,.38-.43,.39-.02,.13,.57,.19,.45,.65-.06,.4,.1,1.33-.43,1.22,.28,.34,.22,.74,.46,.99,.1-.32,.23-.92,.56-.98,.07,.29,.21,.87-.02,.97l-.13-.24c.13,.24-.03,1.09,.46,.65l-.67,.61c.4,.23,.37,.84,.47,1.34-.54,.02-1.13-.38-1.26,.56l.54,.81c.05,.44-.09,.46-.4,.42-.34,1.1,1.38,1.37,.76,2.3-.54-.54-.65-.2-.93,.15,.1,.04,.29,.13,.27,.31,.31-.04-.37-.35,.13-.56,.41-.01,.16,.44,.24,.67-.75,.24-1.04,.82-1.33,1.5-.15,.33-.27,.7-.49,1.01-.2,.32-.43,.6-.76,.75,.66,.4-.14,.64-.12,1.01-.56-.63-.36,.69-.99,.56l.69,.46c-.46,.11-.49,.58-.58,.98-.09,.38-.22,.71-.7,.47-.51,.09-.2-.6-.13-.82-.49-.16-.71,.21-.97,.57-.24,.38-.53,.69-.95,.35,.08,.33,.49,.72,.09,1.27-.58-.16-1.51-.25-1.48-.45-.29,.25-.34,.53-.77,.35-.01-.22,.14-.3,.24-.42-.31-.01-.56,.07-.81,.21-.24,.13-.47,.37-.73,.53-.2-.31-.54-.37-.93-.38-.47-.04-1.02-.05-1.44-.22Z"/><path class="cls-3" d="M1093.41,77.89h0Z"/><path class="cls-3" d="M1097.62,77l.12-.03c0-.14-.04-.09-.12,.03Z"/><path class="cls-3" d="M1093.41,77.89c-.1,.07-.2,.15-.27,.24,.42,.21,.13-.16,.27-.24Z"/><path class="cls-3" d="M1104.17,14.78c.46,0,.55-.14,.21-.42-.09,.16-.24,.25-.21,.42Z"/><path class="cls-3" d="M1105.24,13.89s.05,.06,.08,.09c0-.05-.03-.07-.08-.09Z"/><path class="cls-3" d="M1104.66,13.6c-.09,.45,.39,.23,.57,.29-.14-.16-.3-.3-.57-.29Z"/><path class="cls-3" d="M1113.19,14.56c-.16,.49,.63-.19,.84,.07-.19-.37-.63-.09-.84-.07Z"/><path class="cls-3" d="M1117.16,14.06l.12,.41c.2-.03,.45-.27,.21-.42-.15,.09-.2,.03-.33,.01Z"/><polygon class="cls-3" points="1124.92 73.82 1124.77 74.19 1125.09 74.1 1124.92 73.82"/><path class="cls-3" d="M1095.05,76.49c.07,.05-.06,.57,.37,.36-.51,.05,.02-.39-.37-.36Z"/></g><g><rect class="cls-2" x="1074.06" y="21.89" width="47.39" height="47.39" rx="13.57" ry="13.57"/><g><path class="cls-3" d="M1106.83,68.57c-.09,.09-.04,.31,.19,.25l.16-.36-.35,.11Z"/><path class="cls-3" d="M1108.43,69.14c.26-.21,.52-.56,.31-.86-.22,.37-.29,.26-.54,.69-.23,.05-.42-.09-.39-.23-.08,.1-.36-.06-.48,.17,.31,.25,.72,.26,1.09,0,.09,.06,.02,.17,0,.24Z"/><path class="cls-3" d="M1121.95,52.7l-.04,.15s.04-.09,.04-.15Z"/><path class="cls-3" d="M1122.15,38.25c0,.11,.04,.16,.08,.16-.02-.1-.05-.19-.08-.16Z"/><path class="cls-3" d="M1122.5,35.73l-.02,.16c.03-.06,.05-.12,.02-.16Z"/><path class="cls-3" d="M1121.95,52.7l.11-.39c-.12-.03-.09,.2-.11,.39Z"/><path class="cls-3" d="M1111.27,67.62c-.07,.04-.11,.1-.16,.16l.16-.1v-.06Z"/><path class="cls-3" d="M1121.55,59.24l-.04,.12s.06,.09,.1,.14l-.06-.26Z"/><path class="cls-3" d="M1119.26,63.84c.08-.09-.14-.3-.22-.41,.06,.12,.06,.23,.02,.32,.05,.04,.11,.06,.2,.09Z"/><path class="cls-3" d="M1112.71,68.39s-.07,.07-.11,.09c.03-.02,.08-.06,.11-.09Z"/><path class="cls-3" d="M1122.26,55.62s.09-.02,.11-.04c-.04,0-.08,.01-.11,.04Z"/><path class="cls-3" d="M1101.17,67.87s0,.04,0,.05c.03-.03,.04-.05,0-.05Z"/><path class="cls-3" d="M1106.83,69.37l-.08,.02c0,.06-.02,.11-.02,.17l.1-.19Z"/><path class="cls-3" d="M1121.89,30.87v.02c.08,.11,.05,.04,0-.02Z"/><path class="cls-3" d="M1082.77,21.79c.57,.08-.63,.61,.19,.62-.12-.08,.47-.68-.19-.62Z"/><path class="cls-3" d="M1111.39,67.62c.06-.02,.12-.05,.18-.07-.08,.02-.14,.04-.18,.07Z"/><path class="cls-3" d="M1082.96,22.41h0Z"/><path class="cls-3" d="M1114.47,22.55c0,.06,.01,.12,.03,.18,.01-.03,0-.08-.03-.18Z"/><path class="cls-3" d="M1120.1,28.56l-.07-.19c.02,.08,.04,.14,.07,.19Z"/><path class="cls-3" d="M1110.29,21.43c-.1-.05-.13-.1-.28-.1,.01,.02,.02,.03,.04,.05,.06-.03,.14-.03,.25,.05Z"/><path class="cls-3" d="M1105.93,21.03s.05,.04,.08,.06l.13-.02-.21-.04Z"/><path class="cls-3" d="M1088.46,68c.08,.09,.13,.19,.18,.28-.06-.22,.53-.28-.18-.28Z"/><path class="cls-3" d="M1111.32,67.78c0-.08,.02-.13,.07-.16l-.12,.06s.01,.09,.05,.1Z"/><path class="cls-3" d="M1109.61,23.72c-.19-.07-.39-.1-.58-.15,.16,.06,.37,.09,.58,.15Z"/><path class="cls-3" d="M1075.29,47.34l.04,.15c0-.06,0-.11-.04-.15Z"/><path class="cls-3" d="M1107.26,23.44c-.1-.11-.22-.18-.33-.23-.03,.02-.05,.04-.07,.07l.4,.15Z"/><path class="cls-3" d="M1088.64,68.28h0Z"/><path class="cls-3" d="M1093.02,67.57c-.63,0-.3,.39-.43,.62-.76,.11-.35-.29-.61-.5-.47,.11-.83,.47-1.19,.45-.03-.07-.09-.09-.01-.17-.5,.32-1.48,.02-2.07,.41-.04-.03-.06-.07-.07-.1,.09,.2,.11,.4,.09,.55-.28,0-.52,.23-.62-.04,.17,.02,.19-.09,.27-.17l-.29,.1c-.24-.39,.39-.11,.4-.39-.54,.08-1.22,.4-1.63,.2-.02-.19,.23-.18,.41-.18,.19-.01,.32-.03,.05-.21l.63,.17c-.45-.6,.38,.06-.03-.58-.8-.13-.93,.09-1.72-.12-.22,.17,0,.3-.22,.48-1.26,.04-.68-1.08-1.62-.9-.28,.15-.54,.56-1.04,.11l.36-.31c-.71-.35-.66,.35-1.32-.26,.21-.08,.64,.15,.55,.06-.34-.53-.46,.05-.84-.15l.1-.37c-.76-.37-1.7-.69-2.48-1.28,.11-.05,.31-.02,.22-.26-1.06-.62-1.76-1.88-2.2-2.92l-.49-.21c-.05-.09,.02-.23,.13-.17-.13-.44-.18,.08-.4-.04-.15-.21-.02-.38,.15-.29-.31-.28-.68-.73-.98-1.23-.25-.52-.49-1.07-.41-1.53l.13,.13c-.03-.66-.83-.56-.66-1.24l.07,.11c-.16-1.43-.42-3.01,.06-4.23-.46-.22,.2-1.53-.43-1.62,.31-.88,.43-.63,.64-1.87,.03-.33-.4-.49-.46-.9h.33l-.35-.57,.4-.3-.09-.38c-.02,.15-.15,.33-.24,.3-.15-.6,.23-1.46,.4-1.48l-.28-1.42c.13,.03,.18,.27,.26,.46-.34-.76,.35-.14,.04-.83-.08,.09-.2-.05-.26-.07,.2-.35,.2-1.13,.12-1.72l.23,.11c.06-1.05-.11-2.22-.11-3.4-.11,.42-.5,.33-.54-.02l.35-.14c-.22-.22-.13,.36-.4-.1,.04-.44,.4-.3,.51-.04l-.12-.54c.1-.03,.16,.09,.29,.13-.22-.22,.35-.93-.03-1.24l.1-.03c0-1.21-.09-1.62-.04-2.5-.3-.05-.18-.38-.38-.68,.09-.32,.23-.64,.4-.97,.17-.33,.27-.68,.41-1.05,.05-.56-.19-.23-.27-.53,.27,.05,.52-.69,.56-.23,.33-.88,.42-1.12,.85-2.25-.16,.05-.28,.15-.32,.04,.08-.21,.36-.37,.45-.27v.06c.21-.67,.83-1.21,1.47-1.61,.61-.45,1.25-.73,1.45-1.31l-.03,.06,.7-.9c.43-.27-.12,.35,.27,.27,.36-.51,.78-.74,1.18-.93,.42-.15,.8-.3,1.19-.63,.52,.27,1.09-.03,1.76-.22,.64-.25,1.37-.42,1.89-.24l-.08-.18c.24-.23,.32,.08,.52,.11-.04-.15-.3-.16-.14-.27,1.06-.2,2.37-.1,3.62,.02,1.26,.12,2.54,.29,3.78,.38,.91,.05,.52-.99,1.67-.53l-.33,.36c1.84-.43,3.77,.01,5.57-.35-.11,.08-.11,.19-.29,.19,.38,.26,1.41,.01,1.41-.2,.28,.02,.07,.19,.24,.3,.38,.15,.96-.33,1.16-.07,.03,.04-.11,.08-.18,.1,.25-.13,1.16,.03,.92-.27,.67,.14,1.3-.14,1.83,.05,.33-.31,1.04,.21,1.18-.25-.08,.46,1.01,.55,1.45,.38-.16,.11,.3,.23,.1,.4,.42,.1,.84,.11,.83-.14,.32,.36,.72,.43,1.11,.45,.38,.02,.72,.1,.76,.54,1.31,.29,2.44,.88,3.45,1.58-.32,.31-1.09-.79-1.35-.35,.51,.25,.97,.39,1.36,.62,.42,.21,.81,.47,1.14,.95,.15,.26-.27,.02-.4,0,.23,.18,.43,.37,.63,.56,.17,.22,.33,.44,.49,.65,.34,.42,.58,.88,.97,1.24-.04,.02-.14-.05-.23-.12,.12,.16,.18,.43,.36,.31l-.15-.14c.05-.21,.31-.13,.56,.02,.24,.16,.49,.38,.57,.36-.72-.04,.31,1.01-.66,.83,.1,.1,.26,.21,.38,.13,.03,.2-.03,.29-.25,.17,.36,.63,.49,.31,.71,.93-.1,.03-.19-.08-.33-.1,.33,.24,.59,.52,.65,1.09-.07-.02-.14,.06-.18-.1,.15,.45,.34,.83,.51,1.24,.09,.2,.17,.41,.22,.64,.03,.23,.04,.48,0,.75-.48-.29-.13,.37-.53,.43,.05,.18,.09,.38,.13,.58l.2-.24c0,.53,.29,.99,.15,1.45l-.17-.39,.08,.99,.15-.56c.21,.53,.51-.06,.4,.65-.04-.14,0,.53-.24,.8h0c.13,.26,.26,.53,.16,.92-.13,.1-.44-.08-.53-.02,.34,.26,.09,1.24,.45,1.56-.08-.11-.3-.11-.34-.08l.27,.22c-.09,.24-.13,.28-.3,.24-.05,.74,.51-.23,.29,.64-.02-.07-.06-.04-.1-.18-.11,.88,.17,1.69,.04,2.5-.4,.24-.1-.7-.44-.43,.07,1.16,.49,2.41,.39,3.53l.04-.21c.57,.16-.28,.84-.01,1.41-.04-.14-.32-.18-.25-.14-.09,.77,.14,1.57,.32,2.74l-.15-.14c-.13,.45-.08,1.19-.14,1.68,.15,.15,.12,.43,.34,.26-.4,.77-.35,1.42-.26,2.11,.02,.67,.1,1.38-.43,1.91,.04-.15-.03-.38-.07-.26-.05,.36-.09,.72-.15,1.08,.27,0,.18-.09,.43-.26,.12,.18,.13,.52,.03,.78,.02-.53-.38-.12-.58,.03,.08,0,.14,.09,.22,.1-.62,.38,.45,.28-.13,.91l-.1-.09c-.07,.29-.03,.62-.21,.9-.31,0,.02-.35-.19-.47-.17,.41,.09,1.06-.39,1.27,.03-.21,.18-.44,.2-.65-.51,.22-.47,.3-.68,.55l.02-.02c-.18,.18-.34,.38-.52,.55,.06-.03,.13-.07,.18-.1,.28,.87-.52,1.01-.67,1.88,.15-.85-.12-.27-.33-.52-.2,.08-.46,.22-.48,.1-.05,.43-.51,.29-.62,.89-.09-.06-.28,.24-.4,0-.27,.36,.2,.07,.26,.19-.14,.37-.51,.58-.94,.76-.42,.2-.83,.43-1.14,.88-.63,.64-.64,1-1.33,1.53-.32-.03,.05-.45,.05-.45-.46,.07-.77,.2-1.13,.46,.05-.12-.06-.16-.22-.23-.31,.13-.09,.45-.56,.43,.04-.13,.08-.33,.19-.5-.33,.22-.67,.48-1.04,.69-.15-.15,.18-.33,.28-.48-.21,.1-.48,.21-.72,.34-.24,.1-.44,.23-.49,.38l.31,.06c-.17,.04-.13-.23-.02-.3,.34-.28,.57-.03,.62,.08l-.27,.14c.43,.5,1.16-.35,1.7-.55l-.09,.51,.46-.56c.16,.06,.34,.27,.08,.43,.5,.05,.31-.27,.76-.19,.05,.02,.04,.05,.02,.08l.34-.31c-.04,.12,.2,.26-.07,.31,.83-.11,.99-.85,1.4-.72l-.04,.06c.85-.7-.07-.34,.4-1.08,.3,.14,.59,.24,.9,.36l-.11-.33c.1-.06,.29-.17,.33-.04,.2-.43-.14-.07-.08-.38,.64-.06,1-1.07,1.47-.75-.03-.31-.51,.21-.21-.3,.53,.3,.39-.54,.9-.72,.12,.3-.32,.55,.21,.36-.08-.28,.1-.43,.33-.58,.21-.16,.48-.3,.57-.5-.3-.24,.42-.83,.65-1.51,.04,.05,.28-.19,.51-.55,.23-.35,.5-.79,.71-1.06l.05,.04c-.31-.27-.02-.88,.07-1.37,.22,.09,.28,.2,.28,.5l.16-.45c-.08-.14-.11-.31-.08-.61l.25,.2c.15-.63,0-1.3,.28-2.06-.27-.07-.85,.49-.91-.33,.15,0,.41,0,.44,.21,0-.07-.08-.26,0-.4l.2,.36c.16-.34-.18-.21-.11-.49,.22,.03,.17-.2,.33-.14,.02,.08-.11,.24-.05,.36,.1-.32,.21-.71,.39-.83-.12,.02-.29-.02-.3-.26,.02-.62,.27-.2,.39-.57-.14-.16,0-.53-.31-.54,0-.18,.15-.21,.24-.28-.14-.31-.04-1.45-.38-1.1l-.02,.08v-.05h-.01c-.32-1.01,.18-2.11,.04-3.12h.11c-.12-.6-.07-1.34-.3-1.77,0-.18,.19-.42,.32-.34-.08-.46-.2-.51-.02-1.17,.19,.46,.16-.16,.14,.47,.09-.6,.26-.73-.03-1.37,.27,.22,.34-.45,.26-.73l-.2,.42c-.04-.32-.02-.6,0-.88l.36,.15c.44-1.22-.74-2.2-.01-3.13-.25-.32-.18,.66-.47,.37,.05-.56,.56-1.15,.56-1.32,.2-.77-.52-.72-.39-1.52-.13,.1-.47,.2-.59-.4,.05-.56,.54-.69,.64-.34,.01,.13-.03,.2-.07,.19,.05,.18,.1,.42,.24,.2l-.13-.07c.13-.28,.12-1.05,.33-.87-.12-.42-.21-.18-.28,.13,.18-.73,.03-1.1,.1-1.91-.06,.13-.21,.25-.21,.12,.09-1.16-.25-.49-.38-1.25,.13-.46,.49,.1,.21-.65,.06-.5,.32-.16,.45,.02-.33-.69-.1-1.38-.17-1.81l.2,.36c-.12-.21-.16-.4-.21-.59l-.19,.28c-.01-.23-.06-.42,.04-.45-.22-.18-.36,.29-.71-.08,.02-.32-.44-.79-.16-1.01,.22,.92,.28-.22,.61,.52-.09-.13-.16-.31-.19-.55,.02-.05,.08,0,.12,.06-.04-.98-.49-.26-.88-1.11,.23,.03,.23-.36,.13-.48,.16,.35-.21,.3-.49,.06-.13-.61-.42-.51-.55-.78l.12,.34c-.23,0-.36-.27-.62-.58,.11-.11,.28,.26,.26,.1-.5-.21-.28-1.05-.85-1.43-.08-.32,.26-.25,.17-.51-.66-.39-.33-.77-1.01-1.21-.04,.35,.05,.31-.52,.12,.35,.23,.65,.52,.98,.78l-.81-.33c.24,.27,.65,.47,.76,.66-.41-.14-.33-.15-.38,.12-.06-.62-.81-.59-1.06-1.15l.45-.45c-.48-.84-1.41-.8-2.27-1.58,.08,.1,.17,.19,.25,.29-.26,.11-.62-.34-.99-.45,.14-.17-.02-.35-.1-.55-.05,.13-.76-.4-1.04-.06l-.35-.48c-.83-.46-1.21,.17-2.01-.16,.32-.15-.02-.42,.6-.39-.28-.12-.54-.2-.58-.06-.14-.17-.87,.07-1.09-.19-.14,.06-.23,.28-.55,.21-.03-.05,.02-.1,.02-.1-.02,.1-.53,.06-.29,.34-.79-.85-2.5-.17-3.21-.73-.61,.07-1.36,.14-1.91,.16,.04-.06,0-.11,.11-.08-.77-.2-.47,.61-1.35,.39-.45-.34,.47-.19,.19-.32-.12-.7-1.06,.1-1.65-.31l.14-.04c-.45-.24-1.1,.27-1.84,.22,0,0,.04-.06,0-.11-.5,.36-1.46,.47-2.17,.57,.22-.27,.32-.14,.19-.42-.32,.04,.09,.45-.54,.52-.21-.15-.66-.28-.72-.58l.6-.02c-.31-.38-.77,.01-1.09-.05l.04-.17c-.92,.05-.93,.48-1.91,.45l.1,.13c-.54,.42-.45-.24-.99,.08l-.16-.43c-.36,.1-1.24,.41-1.88,.49,.36-.32,1.11-.48,1.57-.66-.35,0-1.2,.03-1.38,.24,.14-.04,.32-.15,.46-.08-.43,.33-1,.5-1.7,.49,.12-.82-1.8-.22-2.41-.8-1.3,.37-2.66,.19-4.16,.73,.72,.42-.42,.17-.11,.76-.31,.16-.44,.2-.49,.17-.38,0-.75,.06-1.14,.09-.32-.06,.25-.28,.15-.4-.75,.3-.43-.11-1-.02,.2,.15-.09,.43-.53,.6l.7-.07c-.76,.89-1.15-.01-1.88,.96l.17-.39c-.2,.23-.64,.55-1.04,.92-.37,.4-.7,.84-.72,1.21-.13,.01-.36-.02-.2-.23-1.06,.96-1.6,2.65-2.37,3.41l-.08-.17c-.09,.25,.03,.53-.27,.73-.05-.05-.1-.17-.16-.07-.01,.15-.05,.74-.28,1.01l-.04-.34c-.41,.56-.48,1.1-.5,1.61-.04,.5,.03,1-.05,1.54-.23-.06-.45,.16-.63,.46-.17,.3-.28,.69-.36,.95l-.06-.03c-.18,.79-.06,1.48,.02,2.14,.11,.63,.28,1.2,.37,1.87-.51,.83-.22,2.82-.5,4.15,.09-.2,.37,.03,.42,.27-.1,.31,.33,.87-.11,.82v-.11c-.42,.24-.31,.88-.32,1.38l.57,.08c-.83,1.32,.3,3.45-.44,4.17,.14,.32,.14,.71,.28,1.03l-.31-.02c-.08,.88-.12,1.32-.04,2.41l-.22-.22c-.02,.61,.88,.77,.9,1.34l-.46,.17c0,.54-.1,1.06-.11,1.66-.03,.59,.02,1.18,.33,1.71-.07,0-.2-.02-.25-.21,.04,.27,.02,.82,.13,1.25,.11,.43,.28,.74,.55,.57-.2,.06-.13,.35,.03,.7,.18,.34,.47,.71,.66,.97l-.31,.02c.53,.36,.63,.33,1.04,.92,.04,.17-.15,.24-.18,0,.12,.58,.42,.28,.62,.94l-.3-.13c.28,.51,.35,.42,.71,.58,.27,.25,.53,.95,.38,1.18,.18-.03,.55,.09,.69,.4-.05,.1-.18,.04-.24,.01,.47,.89,1.19,.87,1.47,1.53-.06,.08-.06,.15-.04,.21-.58-.52-.95-1.04-.91-1-.21,.18,.19,.7-.44,.57,.5,.28,1.45,.54,1.83,1.04,0,.04,0,.08,0,.13l-.07-.02c.09,.12,.2,.19,.33,.22,.13,.15,.21,.26,.36,.38-.07,.22,.51,.56,.79,.73,.15-.27,.47-.01,.28-.42,.03,.04-.07,0-.25-.1-.04-.02-.09-.05-.13-.05h.03c-.17-.13-.39-.28-.64-.46,.29,.03,.57,.07,.75,.42,.24-.06,.5-.15,.63-.18,.13,.56,.72,1.22,.72,1.48,.48,.13,1,.38,1.52,.49,.52,.11,1.01,.16,1.38-.02,.28,0,.25,.23,.33,.34-.17,.02-.35-.04-.45,.02,.57-.01,1.58,.37,1.79-.03,.64,.28-.44,.3,.49,.38l-.14,.1c.87,.49,1.69,.23,2.45,.04,.74-.23,1.5-.44,2.47-.03-.13-.05-.2-.07-.23-.14,2.21,.36,4.56-.34,6.75,.23,.62,.11,.69-.14,1.07-.33l.13,.33,.65-.38c.92-.27,1.59,.8,2.75,.28l-.15-.22c.42,.04,1.32-.13,1.25,.12,.04-.04,.14-.23,.3-.11v.17l1.04-.29c.8,.12-.12,.68,1.04,.71,.43-.07,1.23-.5,1.07-.61-.17,0-.44-.11-.46-.28l.39-.09c.07-.5,.37-1.02-.59-1.37l-.68,.31-.22-.24,.57-.02c-.32-.23-.53-.03-.76,.11-.05-.13-.15-.22-.28-.27l-.66,.48c-.08-.2,.3-.39-.15-.5-.31,.22,.3,.44-.22,.59-.32-.23-.23-.41-.61-.22-.05-.13,.03-.21,.18-.27-.34,.15-.89,.07-1.07,.33-.34-.28-1.14,.07-1.11-.4-.11,.11-.59,.37-.9,.39,.57-.57-1.16-.03-1.01-.64-.42,.51-1.51,.23-2.26,.51,.04-.04,.12-.12,.19-.1-.42-.04-.54-.2-.81-.29-.05,.42-.7,.52-1.06,.78-.51-.41,.31-.5,.15-.89,.03,.34-.89,.34-.72,.63-.39-.25-.34-.12-.54-.47-.07,.53-.36,.09-.69,.41-.57-.26-.15-.49-.77-.33-.3-.16,.26-.35,.26-.35Zm-13.4-2.5h0l.22,.18-.23-.18Zm-.86-.8c.08,.12,.21,.25,.35,.37-.04,.1-.15,.15-.23,.07,.1,0-.07-.24-.12-.43Zm.66,3.32c-.2-.09-.22-.18-.21-.25,.08,.06,.18,.12,.32,.19l.04-.02s-.1,.07-.16,.07Z"/><path class="cls-3" d="M1079.95,67.5s.05,.01,.08,.03l-.06-.13-.11,.03,.09,.06Z"/><path class="cls-3" d="M1121.9,52.88v-.03s-.02,.04-.04,.06c.01-.02,.02-.02,.04-.03Z"/><polygon class="cls-3" points="1075.44 48.72 1075.37 48.72 1075.43 48.83 1075.44 48.72"/><path class="cls-3" d="M1120.02,59.43s-.06,.02-.1,.05c.02,0,.06-.02,.1-.05Z"/><path class="cls-3" d="M1118.73,61.95l-.3,.28c.14-.11,.23-.21,.3-.28Z"/><path class="cls-3" d="M1117.35,63.61c.02,.05,.05,.09,.07,.12h0l-.07-.12Z"/><path class="cls-3" d="M1118.44,29.72s-.03-.05-.05-.06c-.15-.13-.06-.03,.05,.06Z"/><path class="cls-3" d="M1121,39.55c-.05-.11-.11-.23-.14-.35-.02,.19-.03,.34,.14,.35Z"/><polygon class="cls-3" points="1109.67 23.74 1109.67 23.73 1109.61 23.72 1109.67 23.74"/><path class="cls-3" d="M1120.86,38.7c-.06,.19-.05,.35,0,.5,.02-.16,.05-.34,0-.5Z"/><path class="cls-3" d="M1109.43,68.09h-.1s0,.04,0,.05l.11-.05Z"/><path class="cls-3" d="M1109.32,68.14l-.11,.05c.05,0,.1-.02,.11-.05Z"/><path class="cls-3" d="M1108.99,68.31l.23-.11c-.08,.01-.19,.02-.23,.11Z"/><path class="cls-3" d="M1112.18,67.41v-.11s-.02,.06,0,.11Z"/><path class="cls-3" d="M1112.94,67.01c-.2,.07-.56,.01-.79,.2v.09c.06-.21,.69-.04,.79-.29Z"/><path class="cls-3" d="M1116.82,66.03c-.21,.16-.43,.32-.66,.44,.18,0,.43,.02,.16,.26,1.02-.36-.31-.05,.51-.7Z"/><path class="cls-3" d="M1118.67,64.37c-.24,.36,.14,.11,.17,.16,.08-.29,.1-.36-.17-.16Z"/><path class="cls-3" d="M1122.15,47.51l.28,.04c-.04-.32-.11,0-.28-.04Z"/><polygon class="cls-3" points="1120.72 44.22 1120.55 44.53 1120.8 44.68 1120.72 44.22"/><polygon class="cls-3" points="1122.68 42.28 1122.72 42.42 1122.62 41.89 1122.68 42.28"/><path class="cls-3" d="M1106.68,20.76l.1,.34c.22-.05,.27-.44-.1-.34Z"/><path class="cls-3" d="M1094.21,21.11c-.14-.17-.49-.28-.7-.11,.28,.02,.56,.16,.7,.11Z"/><polygon class="cls-3" points="1072.72 45.42 1072.61 45.17 1072.7 45.64 1072.72 45.42"/></g></g></g></g></g></svg>