<?xml version="1.0" encoding="UTF-8"?><svg id="_イヤー_2" xmlns="http://www.w3.org/2000/svg" viewBox="0 0 446.13 626.6"><defs><style>.cls-1{fill:#fff;}.cls-2{fill:#88c1d8;}.cls-3{fill:#eda184;}.cls-4{fill:#6d6d6d;}</style></defs><g id="_イヤー_1-2"><g><path class="cls-1" d="M399.63,458.11v-15.51h-20v-141h20v-16.01c27.72-11.22,46.5-38.52,46.5-68.85s-18.78-57.63-46.5-68.85v-13.3h-20v-33.82c0-12.78-10.4-23.18-23.18-23.18h-3.26c-4.29-6.34-11.51-10.35-19.53-10.35h-22.77c-11.71,0-21.46,8.57-23.3,19.77-9.91-5.28-23.73-8.27-39.31-8.27-32.68,0-55.5,12.75-55.5,31,0,3.46,.86,8.13,4.31,12.89-1.27,4.28-2.18,9-2.75,14.27l-1.89,23.5L122.51,14.7C118.16,5.63,109.72,0,100.49,0h0c-9.23,0-17.67,5.63-22.02,14.7L3.02,171.92c-4.54,9.45-3.92,20.78,1.6,29.56,4.72,7.5,12.16,11.8,20.42,11.8h6.61c-.04,.46-.05,.92-.05,1.39v45.88c0,4.65,1.82,9.03,5.12,12.33,.87,.87,1.81,1.63,2.81,2.29-1.32,1.17-2.46,2.55-3.4,4.1-2.42,4.05-3.09,8.83-1.88,13.47l.06,.21c.63,2.21,1.44,5.4,2.39,9.41,.86,3.74,2.9,7.02,5.82,9.43-1.25,3.06-1.6,6.42-.99,9.76l.04,.22c.63,3.06,2.04,5.88,4.07,8.2h-5.35c-4.65,0-9.05,1.83-12.38,5.16-3.32,3.32-5.14,7.71-5.14,12.36v.84c0,4.66,1.83,9.05,5.14,12.36,3.32,3.33,7.72,5.16,12.38,5.16h6.14v3.82c-1,.2-2.03,.37-3.11,.52-4.85,.63-9.06,3.17-11.86,7.15-2.68,3.82-3.7,8.45-2.88,13.03l.32,1.39c.93,4.11,3.28,7.77,6.65,10.34,1.98,1.51,4.21,2.57,6.57,3.13-1.85,1.49-4.49,4.11-10.21,11.35-2.99,3.74-5.59,6.9-7.72,9.4l-.07,.09c-2.9,3.48-4.34,7.89-4.05,12.43,.28,4.53,2.25,8.73,5.56,11.83l.85,.8c1.55,1.5,3.32,2.67,5.23,3.48-2.2,.89-4.22,2.25-5.92,4.01-3.19,3.28-4.94,7.59-4.94,12.12,0,4.11,1.43,8,4.05,11.11v8.75c0,6.05-.43,9.62-.79,11.56-.47,2.53-1.17,4.07-1.67,4.9-2,3.34-2.89,7.19-2.57,11.11,.38,4.7,2.53,8.93,6.04,11.9l.91,.8c.51,.45,1.04,.87,1.58,1.25-.53,1.68-.81,3.45-.81,5.26,0,3.53,1.04,6.88,2.97,9.73-2.69,2.24-4.65,5.24-5.61,8.69-1.21,4.32-.73,8.86,1.34,12.77,.87,1.65,1.97,3.12,3.27,4.39-.03,.46-.04,.91-.04,1.37,0,8.56,4.03,15.75,11.35,20.25,2.69,1.65,5.73,2.88,9.21,3.7,5.46,12,16.33,19.68,28.62,19.68h43.53c5.04,0,9.89-1.29,14.29-3.76,6.99,2.7,14.35,4.07,21.96,4.07h157.55c4.35,0,8.65-.46,12.86-1.36,4.21,5.92,11.12,9.71,18.9,9.71h8.64c10.64,0,19.63-7.21,22.34-17h20.84v-13.79c27.72-11.22,46.5-38.52,46.5-68.85s-18.78-57.63-46.5-68.85Z"/><g><path class="cls-3" d="M188.94,176.24L113.49,19.03c-5.77-12.03-20.24-12.03-26.01,0L12.03,176.24c-5.77,12.02,1.46,27.03,13.01,27.03h31.41v377.93c0,14.77,9.97,26.75,22.27,26.75h43.53c12.3,0,22.27-11.97,22.27-26.75V203.27h31.41c11.55,0,18.77-15.01,13.01-27.03Z"/><g><path class="cls-2" d="M107.27,557.03V242.48c8.07-30.5,46.7-54.66,81.45-63.02,6.91-1.66,12.34-7.3,13.34-14.33,.05-.35,.09-.71,.12-1.07l2.1-26.07c3-27.73,16.45-36.73,36.73-36.73h89.53c20.29,0,36.73,16.45,36.73,36.73v419.04c0,28.29-22.93,51.22-51.22,51.22H158.49c-28.29,0-51.22-22.93-51.22-51.22Z"/><rect x="87.62" y="334.6" width="529" height="35" rx="13.18" ry="13.18" transform="translate(704.22 -.02) rotate(90)"/><circle class="cls-1" cx="362.77" cy="524.75" r="54.5"/><circle class="cls-1" cx="363.77" cy="217.75" r="54.5"/><rect class="cls-4" x="303.02" y="71.5" width="38.5" height="50" rx="13.62" ry="13.62" transform="translate(418.78 -225.77) rotate(90)"/><g><ellipse class="cls-1" cx="248.27" cy="109.75" rx="42" ry="17.5"/><path d="M248.27,130.75c-25.94,0-45.5-9.03-45.5-21s19.56-21,45.5-21,45.5,9.03,45.5,21-19.56,21-45.5,21Zm0-7c22.04,0,38.5-7.39,38.5-14s-16.46-14-38.5-14c-22.04,0-38.5,7.39-38.5,14s16.46,14,38.5,14Z"/></g><g><path d="M389.62,170.6h-51.9c-6.67,0-12.1,5.43-12.1,12.1v70.81c0,6.67,5.43,12.1,12.1,12.1h51.9v26h-51.9c-21.01,0-38.1-17.09-38.1-38.1v-70.81c0-21.01,17.09-38.1,38.1-38.1h51.9v26Z"/><path d="M389.62,478.6h-51.9c-6.67,0-12.1,5.43-12.1,12.1v70.81c0,6.67,5.43,12.1,12.1,12.1h51.9v26h-51.9c-21.01,0-38.1-17.09-38.1-38.1v-70.81c0-21.01,17.09-38.1,38.1-38.1h51.9v26Z"/></g><g><g><path d="M371.87,279.63c34.67,0,62.88-28.21,62.88-62.88,0-34.67-28.21-62.88-62.88-62.88-34.67,0-62.88,28.21-62.88,62.88,0,34.67,28.21,62.88,62.88,62.88Zm0-30.99c-17.59,0-31.9-14.31-31.9-31.9,0-17.59,14.31-31.9,31.9-31.9,17.59,0,31.9,14.31,31.9,31.9,0,17.59-14.31,31.9-31.9,31.9Z"/><path class="cls-1" d="M371.87,281c-35.43,0-64.25-28.82-64.25-64.25,0-35.43,28.82-64.25,64.25-64.25s64.25,28.82,64.25,64.25c0,35.43-28.82,64.25-64.25,64.25Zm0-2.73c33.92,0,61.52-27.6,61.52-61.52,0-33.92-27.6-61.52-61.52-61.52-33.92,0-61.52,27.6-61.52,61.52,0,33.92,27.6,61.52,61.52,61.52Zm0-28.25c-18.34,0-33.26-14.92-33.26-33.26,0-18.34,14.92-33.26,33.26-33.26,18.34,0,33.26,14.92,33.26,33.26,0,18.34-14.92,33.26-33.26,33.26Zm0-2.73c16.83,0,30.53-13.7,30.53-30.53,0-16.83-13.7-30.53-30.53-30.53-16.83,0-30.53,13.7-30.53,30.53,0,16.83,13.7,30.53,30.53,30.53Z"/></g><g><path d="M371.87,589.84c34.67,0,62.88-28.21,62.88-62.88,0-34.67-28.21-62.88-62.88-62.88s-62.88,28.21-62.88,62.88c0,34.67,28.21,62.88,62.88,62.88Zm0-30.99c-17.59,0-31.9-14.31-31.9-31.9,0-17.59,14.31-31.9,31.9-31.9,17.59,0,31.9,14.31,31.9,31.9s-14.31,31.9-31.9,31.9Z"/><path class="cls-1" d="M371.87,591.21c-35.43,0-64.25-28.82-64.25-64.25s28.82-64.25,64.25-64.25c35.43,0,64.25,28.82,64.25,64.25s-28.82,64.25-64.25,64.25Zm0-2.73c33.92,0,61.52-27.6,61.52-61.52,0-33.92-27.6-61.52-61.52-61.52-33.92,0-61.52,27.6-61.52,61.52s27.6,61.52,61.52,61.52Zm0-28.25c-18.34,0-33.26-14.92-33.26-33.26,0-18.34,14.92-33.26,33.26-33.26s33.26,14.92,33.26,33.26c0,18.34-14.92,33.26-33.26,33.26Zm0-2.73c16.83,0,30.53-13.7,30.53-30.53,0-16.83-13.7-30.53-30.53-30.53s-30.53,13.7-30.53,30.53c0,16.83,13.7,30.53,30.53,30.53Z"/></g></g><path d="M131.62,601.6c-14.97-8.94-26-24.52-26-43.22V243.82c3.51-13.25,12.78-25.3,25-35.38l1,393.16Z"/><g><rect class="cls-1" x="126.27" y="355.25" width="90" height="161"/><path class="cls-1" d="M194.27,589.65c-41.99-.4-44.18-2.6-55.99-10.4-11.81-7.8-12-12.98-12-22.4v-25.6h90v38.8c0,12.83,0,21.2-22.01,19.6Z"/><path class="cls-1" d="M126.27,340.25v-87.18c0-4.82,3-9.82,8.61-17.09,12.39-16.05,31.39-29.73,53.8-36.72,22.42-6.99,27.58,1.39,27.58,17.09v123.9H126.27Z"/></g></g><g><g><path class="cls-1" d="M243.46,405.05c-3.2,0-6.63,2.22-6.63,7.08,0,.86,.12,1.91,.37,3.36,.05,.27,.16,1.14,.16,3.28v36.55c0,8.65,5.8,9.09,6.96,9.09,3.21,0,6.67-2.23,6.67-7.13,0-.85-.13-1.86-.44-3.29l-.03-.13c-.02-.07-.15-.78-.15-3.18v-1.11h55.04v-31.05h-55.04v-4.47c0-8.58-5.77-9.01-6.92-9.01Z"/><path class="cls-1" d="M236.62,374.02c0,9.97,3.26,18.41,9.7,25.1,3.05,3.15,6.69,5.64,10.83,7.41,4.15,1.78,8.85,2.68,13.95,2.68s9.9-.94,14.27-2.8c4.36-1.85,8.13-4.4,11.22-7.57,3.1-3.18,5.5-6.93,7.15-11.15,1.63-4.18,2.45-8.34,2.45-12.38,0-3.83-.38-7.28-1.14-10.29-1.55-6.06-4.42-11.26-8.55-15.49-6.61-6.67-15.09-10.06-25.22-10.06s-18.58,3.31-25.05,9.85c-6.38,6.44-9.61,14.75-9.61,24.69Zm34.66-21.19c6.64,0,11.87,2.06,15.98,6.3,3.77,3.87,5.69,8.5,5.86,14.12h-43.43c.17-5.94,2.16-10.69,6.08-14.5,4.12-3.98,9.19-5.92,15.51-5.92Z"/><path class="cls-1" d="M247.51,280.79c-2.19,1.89-4.09,4.2-5.65,6.87-1.56,2.67-2.6,5.26-3.09,7.69-.4,1.99-.73,3.93-.99,5.76-.19,1.38-.42,4.46-.42,16.03v20.73h68.06v-30.97h-13.52c.32-1.76,.27-3.9-.21-7.41l-.02-.11c-1.17-7.4-4.34-13.33-9.44-17.65-5-4.21-11.26-6.44-18.62-6.63-6.12-.14-11.53,1.77-16.1,5.69Zm16.95,7.7c4.32,.13,7.68,1.45,10.3,4.05,2.5,2.46,3.72,5.54,3.74,9.42l-.16,3.53v.23c0,.41,.02,.81,.07,1.19h-27.97c.1-3.83,.57-6.95,1.41-9.31,2.3-6.52,6.17-9.32,12.6-9.1Z"/></g><g><path d="M240.35,411.92c1.26,0,1.89,1.33,1.89,3.98v9.51h55.04v20.98h-55.04v6.15c0,2.1,.1,3.55,.29,4.34,.22,1.04,.33,1.79,.33,2.25,0,1.39-.55,2.09-1.64,2.09-1.28,0-1.93-1.35-1.93-4.06v-36.55c0-1.89-.08-3.28-.25-4.18-.19-1.09-.29-1.91-.29-2.46,0-1.37,.53-2.05,1.6-2.05Z"/><path d="M289.88,397.16c-2.64,2.7-5.83,4.86-9.59,6.45-3.76,1.6-7.85,2.4-12.29,2.4s-8.43-.76-11.97-2.27c-3.54-1.52-6.6-3.61-9.2-6.29-5.52-5.74-8.28-12.94-8.28-21.6s2.72-15.65,8.16-21.15c5.52-5.57,12.68-8.36,21.47-8.36s15.98,2.86,21.64,8.56c3.5,3.58,5.92,7.98,7.25,13.2,.66,2.6,.98,5.61,.98,9.04s-.7,6.95-2.11,10.55-3.43,6.76-6.07,9.47Zm-48.34-21.27c0,1.5,.11,2.91,.33,4.22h52.86c.22-1.26,.33-2.66,.33-4.22,0-7.29-2.43-13.44-7.29-18.44-5.05-5.22-11.58-7.83-19.59-7.83s-13.96,2.45-19.01,7.34c-5.08,4.95-7.62,11.26-7.62,18.93Z"/><path d="M280.27,307.54l.16-3.65c0-5.3-1.75-9.67-5.25-13.11-3.52-3.5-8.09-5.33-13.69-5.49-8.63-.3-14.47,3.85-17.5,12.46-1.15,3.22-1.72,7.42-1.72,12.58v3.44h55v20.9h-57.99v-15.7c0-8.47,.12-13.58,.37-15.33,.25-1.75,.56-3.57,.94-5.47,.38-1.9,1.22-3.95,2.5-6.15,1.28-2.2,2.81-4.06,4.59-5.59,3.61-3.09,7.84-4.58,12.7-4.47,6.2,.16,11.37,1.98,15.49,5.45,4.15,3.52,6.72,8.39,7.7,14.59,.25,1.8,.37,3.22,.37,4.26,0,2.46-.67,3.69-2.01,3.69-.49,0-.89-.22-1.21-.66-.31-.44-.47-1.02-.47-1.76Z"/></g></g><g><g><path class="cls-1" d="M49.05,267.99h1.73c1.99,0,3.8-.74,5.26-2.15,1.48-1.44,2.26-3.27,2.26-5.3v-17.67c7.43,2.02,15.4,4.52,23.83,7.47,1.89,.6,3.82,.46,5.59-.4,1.78-.87,3.08-2.32,3.77-4.21l.41-1.27c.68-1.97,.56-3.98-.36-5.82-.89-1.78-2.35-3.08-4.25-3.77-9.75-3.45-19.48-6.41-28.98-8.81v-11.4c0-2.03-.78-3.87-2.26-5.31-1.45-1.4-3.27-2.15-5.25-2.15h-1.73c-2.01,0-3.83,.76-5.27,2.19-1.43,1.43-2.19,3.25-2.19,5.26v45.88c0,2.01,.76,3.83,2.19,5.26,1.43,1.43,3.25,2.19,5.27,2.19Z"/><path class="cls-1" d="M57.39,311.04c-2.01,.35-3.69,1.42-4.84,3.1-1.13,1.66-1.54,3.56-1.17,5.59,.4,1.95,1.46,3.61,3.05,4.79,1.33,.99,2.85,1.5,4.43,1.5,.41,0,.83-.04,1.25-.11,10.97-1.68,19.14-5.61,24.3-11.69,5.11-6.02,7.98-15.24,8.53-27.43,.08-2.03-.58-3.9-1.93-5.42-1.38-1.56-3.21-2.42-5.29-2.51h-.54c-1.99-.07-3.82,.63-5.28,2.01-1.46,1.38-2.28,3.16-2.37,5.14-.23,4.97-.89,9.1-1.97,12.38,.18-1.01,.13-2.04-.14-3.05-.64-2.57-1.58-6.14-2.77-10.57-.52-2-1.75-3.6-3.55-4.63-1.72-.98-3.64-1.29-5.49-.88l-.43,.09c-1.97,.45-3.57,1.62-4.63,3.39-.32,.54-.57,1.1-.75,1.68-.67-1.1-1.6-1.99-2.76-2.65-1.7-.95-3.6-1.24-5.5-.82l-.47,.1-.22,.11c-1.73,.53-3.15,1.64-4.11,3.25-1.05,1.75-1.33,3.73-.78,5.8,.67,2.34,1.52,5.68,2.52,9.91,.45,1.96,1.62,3.56,3.38,4.63,1.72,1.05,3.67,1.39,5.56,.97l.39-.08c2.05-.44,3.69-1.64,4.76-3.46,.27-.46,.49-.93,.65-1.41,.63,1.15,1.55,2.1,2.71,2.8,1.69,1.02,3.61,1.33,5.54,.92l.35-.07c1.93-.42,3.51-1.5,4.59-3.15-.53,1.06-1.12,1.98-1.77,2.77-2.81,3.4-7.93,5.76-15.23,7.01Z"/><path class="cls-1" d="M40.31,355.83h31.57c-1.1,6.94-3.47,12.29-7.09,15.91-4.27,4.29-11.06,7.1-20.16,8.34-2.07,.27-3.79,1.3-4.97,2.99-1.15,1.64-1.57,3.54-1.22,5.51l.22,.9c.41,1.88,1.43,3.49,2.97,4.66,1.35,1.03,2.91,1.56,4.59,1.56,.34,0,.68-.02,1.02-.06,12.43-1.65,22.19-5.8,29.02-12.35,6.51-6.24,10.63-14.98,12.27-26.01,2.35-.65,4.41-1.92,6.16-3.8,2.41-2.59,3.64-5.69,3.64-9.21,0-3.7-1.33-6.91-3.96-9.54-2.63-2.63-5.83-3.96-9.54-3.96-3.46,0-6.5,1.17-9.05,3.47-1.79,1.62-3.04,3.53-3.76,5.72h-31.73c-2.01,0-3.84,.77-5.3,2.22-1.45,1.45-2.22,3.29-2.22,5.29v.84c0,2.01,.77,3.84,2.22,5.29,1.45,1.45,3.28,2.22,5.3,2.22Zm44.4-11.26s-.04-.02-.09-.08h0c-.09-.09-.09-.09-.09-.23s0-.14,.09-.23c.09-.09,.09-.09,.23-.09s.14,0,.23,.09c.09,.09,.09,.09,.09,.23s0,.14-.19,.31c-.02,0-.26,0-.27,0Z"/><path class="cls-1" d="M76.84,422.7c-7.77-7.41-10.25-9.32-11.45-10.12-2.31-1.54-5.06-2.32-8.18-2.32-3.48,0-6.34,.85-8.52,2.54-1.13,.87-3.28,2.86-8.95,10.03-3.06,3.82-5.71,7.06-7.92,9.64-1.27,1.53-1.88,3.4-1.75,5.41,.13,2.01,.95,3.79,2.41,5.15l.92,.86c1.45,1.42,3.31,2.14,5.34,2.04,2.08-.09,3.89-.99,5.24-2.6,1.96-2.36,4.95-6.11,9.15-11.49,2.7-3.51,3.66-4.49,3.95-4.75h0c.06,.04,.14,.09,.23,.16,.44,.33,1.72,1.41,5.44,5.01,6.68,6.47,13.29,12.66,19.57,18.35,1.39,1.31,3.11,1.99,5.01,1.99,.17,0,.34,0,.51-.02,2.09-.13,3.9-1.04,5.21-2.62l1.04-1.24c1.25-1.51,1.87-3.33,1.79-5.27-.09-1.99-.9-3.77-2.42-5.2-5.91-5.36-11.5-10.59-16.63-15.55Z"/><path class="cls-1" d="M95.12,470.73c0-1.94-.73-3.73-2.12-5.16-1.42-1.46-3.24-2.23-5.27-2.23H38.25c-2.04,0-3.86,.77-5.27,2.23-1.38,1.43-2.12,3.21-2.12,5.16s.75,3.76,2.16,5.17c.8,.8,1.74,1.39,2.76,1.75-.57,1.06-.87,2.24-.87,3.49v9.45c0,5.47-.32,9.98-.96,13.4-.6,3.2-1.58,5.96-2.92,8.2-.94,1.56-1.33,3.3-1.18,5.16,.17,2.09,1.09,3.88,2.59,5.13l1.02,.89c1.62,1.43,3.58,2.04,5.68,1.76,1.15-.15,2.19-.54,3.09-1.14,.71,.65,1.54,1.18,2.46,1.56,1.02,.42,2.09,.64,3.18,.64,.81,0,1.64-.12,2.46-.36,6.9-2.16,12.57-5.18,16.9-9.01,4.39,3.79,10.08,6.81,17,9.02,1.9,.58,3.86,.43,5.68-.43,1.74-.83,3.08-2.21,3.88-3.98l.22-.45c.86-1.92,.81-4.01-.15-5.88-.94-1.82-2.54-3.09-4.46-3.55-2.28-.59-4.31-1.25-6.07-1.99h3.89c1.95,0,3.71-.71,5.09-2.05,1.42-1.37,2.17-3.15,2.17-5.15s-.73-3.74-2.13-5.14c-.56-.56-1.18-1.01-1.85-1.35,1.05-1.33,1.6-2.92,1.6-4.63v-10.09c0-1.39-.36-2.69-1.06-3.85,.7-.35,1.34-.82,1.92-1.4,1.41-1.41,2.16-3.2,2.16-5.17Zm-44.75,38.81c-.36,.15-.72,.29-1.1,.44,.03-.14,.07-.29,.1-.44h1Z"/><path class="cls-1" d="M85.62,552.8c-2.4-1.93-5.46-3.26-9.13-3.99l4.74-2.63c3.4-1.94,5.21-5.07,5.1-8.82-.02-2.02-.82-3.84-2.34-5.27-1.46-1.38-3.28-2.11-5.25-2.11H45c-1.95,0-3.73,.73-5.16,2.12-1.46,1.42-2.23,3.24-2.23,5.27s.77,3.86,2.23,5.27c1.43,1.38,3.21,2.12,5.16,2.12h8.42l-15.43,9.32c-1.69,.98-2.86,2.49-3.39,4.39-.52,1.87-.33,3.75,.56,5.43,.88,1.67,2.26,2.88,4,3.51,.76,.27,1.53,.41,2.3,.42-1.52,2.33-1.93,4.67-1.93,6.49,0,5.03,2.28,9.08,6.59,11.73,3.82,2.35,9.17,3.49,16.35,3.49,8.95,0,16.07-1.94,21.15-5.76,5.41-4.07,8.16-9.85,8.16-17.19,0-5.87-2.07-10.52-6.17-13.8Zm-27.44,21.71c1.98,0,2.89,.22,3.21,.33,0,.03,0,.06-.01,.1-1.89-.05-3.22-.21-4.16-.4,.28-.02,.6-.03,.96-.03Zm16.9-7.13c0,.15,0,.31,0,.45-.96-1.98-2.31-3.34-3.54-4.25-.49-.36-1.01-.69-1.57-.99,2.03,.33,3.08,.86,3.6,1.23,.71,.51,1.52,1.38,1.52,3.56Z"/></g><g><path d="M49.05,264.14c-.99,0-1.83-.35-2.54-1.06-.71-.71-1.06-1.55-1.06-2.54v-45.88c0-.98,.35-1.83,1.06-2.54,.71-.71,1.55-1.06,2.54-1.06h1.73c.99,0,1.84,.35,2.57,1.06,.73,.71,1.09,1.55,1.09,2.54v13.88c0,.39,.15,.6,.45,.64,10.19,2.49,20.56,5.59,31.1,9.32,.94,.34,1.64,.96,2.09,1.86,.45,.9,.5,1.84,.16,2.83l-.39,1.22c-.34,.94-.95,1.63-1.83,2.06-.88,.43-1.79,.49-2.73,.19-10.15-3.55-19.62-6.45-28.4-8.68-.13-.04-.24-.01-.32,.1-.09,.11-.13,.22-.13,.35v22.11c0,.98-.36,1.83-1.09,2.54-.73,.71-1.59,1.06-2.57,1.06h-1.73Z"/><path d="M50.21,299.23c-1.03-4.33-1.89-7.69-2.57-10.09-.26-.99-.13-1.91,.39-2.76,.51-.86,1.24-1.39,2.19-1.61l.13-.06c.98-.21,1.92-.07,2.8,.42,.88,.49,1.47,1.23,1.77,2.22,.86,3,1.76,6.38,2.7,10.15,.26,.94,.13,1.85-.39,2.73-.51,.88-1.26,1.42-2.25,1.64l-.32,.06c-.99,.22-1.92,.05-2.8-.48-.88-.53-1.42-1.27-1.64-2.22Zm35.34-16.51c1.03,.04,1.89,.45,2.57,1.22,.69,.77,1.01,1.67,.96,2.7-.51,11.35-3.05,19.72-7.61,25.09-4.56,5.38-11.88,8.84-21.94,10.38-1.03,.17-1.96-.05-2.8-.67-.84-.62-1.36-1.45-1.57-2.47-.17-.94,.02-1.82,.58-2.63,.56-.81,1.33-1.31,2.31-1.48,8.27-1.41,14.11-4.2,17.54-8.35,3.43-4.15,5.36-10.92,5.78-20.31,.04-.98,.43-1.82,1.16-2.51,.73-.68,1.58-1.01,2.57-.96h.45Zm-16.9,17.99c-.99,.21-1.91,.06-2.76-.45-.86-.51-1.41-1.26-1.67-2.25-.39-1.41-1.31-4.93-2.76-10.54-.26-.98-.13-1.91,.39-2.76,.51-.86,1.24-1.39,2.19-1.61l.32-.06c.99-.21,1.93-.06,2.83,.45,.9,.51,1.48,1.26,1.73,2.25,1.2,4.46,2.12,7.97,2.76,10.54,.26,.94,.12,1.85-.42,2.73-.54,.88-1.3,1.43-2.28,1.64l-.32,.06Z"/><path d="M84.84,334.63c2.66,0,4.93,.94,6.81,2.83s2.83,4.16,2.83,6.81-.87,4.72-2.6,6.59c-1.73,1.86-3.87,2.88-6.39,3.05-.34,0-.51,.15-.51,.45v.51c-1.33,11.1-5.12,19.64-11.37,25.64-6.26,6-15.21,9.77-26.86,11.31-1.03,.13-1.95-.12-2.76-.74-.81-.62-1.33-1.42-1.54-2.41l-.19-.77c-.17-.94,.02-1.81,.58-2.6,.56-.79,1.33-1.25,2.31-1.38,10.03-1.37,17.49-4.52,22.4-9.45,4.9-4.93,7.79-12.25,8.64-21.98,0-.34-.15-.51-.45-.51H40.31c-.99,0-1.84-.36-2.57-1.09-.73-.73-1.09-1.58-1.09-2.57v-.84c0-.99,.36-1.84,1.09-2.57,.73-.73,1.59-1.09,2.57-1.09h34.38c.3,0,.49-.19,.58-.58,.26-2.44,1.3-4.49,3.12-6.14,1.82-1.65,3.97-2.47,6.46-2.47Zm-2.96,12.59c.81,.81,1.8,1.22,2.96,1.22s2.14-.41,2.96-1.22,1.22-1.8,1.22-2.96-.41-2.14-1.22-2.96c-.81-.81-1.8-1.22-2.96-1.22s-2.14,.41-2.96,1.22c-.81,.81-1.22,1.8-1.22,2.96s.41,2.14,1.22,2.96Z"/><path d="M36.07,441.11l-.96-.9c-.73-.68-1.12-1.54-1.19-2.57-.06-1.03,.22-1.93,.87-2.7,2.23-2.61,4.88-5.85,7.97-9.7,4.03-5.1,6.79-8.23,8.29-9.38,1.5-1.16,3.56-1.74,6.17-1.74,2.36,0,4.37,.56,6.04,1.67,1.67,1.11,5.31,4.35,10.92,9.7,5.18,5.01,10.75,10.22,16.71,15.61,.73,.69,1.11,1.52,1.16,2.51,.04,.99-.26,1.86-.9,2.64l-1.03,1.22c-.64,.77-1.48,1.19-2.51,1.25-1.03,.06-1.91-.25-2.64-.93-6.34-5.74-12.85-11.84-19.53-18.31-2.96-2.87-4.89-4.65-5.82-5.33-.92-.68-1.79-1.03-2.6-1.03-.86,0-1.69,.36-2.51,1.09-.81,.73-2.29,2.49-4.43,5.27-4.11,5.27-7.13,9.06-9.06,11.37-.64,.77-1.46,1.18-2.44,1.22-.99,.04-1.82-.28-2.51-.96Z"/><path d="M36,520.47l-1.03-.9c-.77-.64-1.2-1.49-1.29-2.54-.09-1.05,.13-2,.64-2.86,1.58-2.66,2.72-5.82,3.4-9.48,.69-3.66,1.03-8.36,1.03-14.11v-9.45c0-.99,.36-1.84,1.09-2.57s1.58-1.09,2.57-1.09h42.22c.99,0,1.83,.36,2.54,1.09,.71,.73,1.06,1.59,1.06,2.57v10.09c0,.99-.35,1.84-1.06,2.57-.71,.73-1.55,1.09-2.54,1.09h-13.17c-.3,0-.41,.17-.32,.51,.13,.39,.19,.77,.19,1.16v1.8c0,.39,.17,.58,.51,.58h15.36c.94,0,1.75,.33,2.41,1,.66,.66,1,1.47,1,2.41s-.33,1.74-1,2.38-1.47,.96-2.41,.96h-14.33c-.13,0-.22,.06-.29,.19-.06,.13-.05,.24,.03,.32,2.4,3.94,7.67,6.96,15.81,9.06,.9,.22,1.56,.74,1.99,1.57s.45,1.68,.07,2.54l-.19,.39c-.43,.99-1.11,1.7-2.06,2.15-.94,.45-1.91,.52-2.89,.22-7.67-2.44-13.6-5.89-17.8-10.35-.21-.21-.45-.21-.71,0-4.11,4.5-10,7.95-17.67,10.35-1.03,.3-2.04,.25-3.02-.16-.99-.41-1.74-1.08-2.25-2.02l-.39-.71c-.43-.77-.46-1.57-.1-2.41,.36-.84,.97-1.36,1.83-1.57,8.14-2.1,13.41-5.12,15.81-9.06,.09-.09,.1-.19,.03-.32-.07-.13-.16-.19-.29-.19h-12.21c-.73,0-1.35-.19-1.86-.58-.26-.17-.43-.09-.51,.26-.86,5.83-2.61,10.67-5.27,14.52-.56,.81-1.33,1.29-2.31,1.41s-1.86-.15-2.63-.84Zm2.25-46.27c-.99,0-1.82-.34-2.51-1.03-.69-.68-1.03-1.5-1.03-2.44s.34-1.77,1.03-2.47c.69-.71,1.52-1.06,2.51-1.06h49.48c.99,0,1.82,.35,2.51,1.06,.68,.71,1.03,1.53,1.03,2.47s-.34,1.76-1.03,2.44c-.69,.69-1.52,1.03-2.51,1.03H38.25Zm9.19,20.69c-.34,0-.51,.19-.51,.58,0,.81-.04,1.99-.13,3.53,0,.26,.17,.32,.51,.19,.34-.17,.77-.26,1.29-.26h13.17c.39,0,.58-.19,.58-.58v-1.8c0-.39,.06-.77,.19-1.16,.09-.34-.02-.51-.32-.51h-14.78Zm-.51-10.6v3.92c0,.34,.19,.51,.58,.51h32.07c.39,0,.58-.17,.58-.51v-3.92c0-.34-.19-.51-.58-.51H47.51c-.39,0-.58,.17-.58,.51Z"/><path d="M43.01,563.65c-.86,.39-1.7,.43-2.54,.13-.83-.3-1.47-.86-1.9-1.67-.43-.81-.51-1.68-.26-2.6,.26-.92,.79-1.62,1.61-2.09l27.12-16.39,.06-.06-.06-.06h-22.04c-.94,0-1.77-.34-2.47-1.03s-1.06-1.52-1.06-2.51,.35-1.82,1.06-2.51c.71-.68,1.53-1.03,2.47-1.03h33.74c.99,0,1.85,.35,2.6,1.06,.75,.71,1.12,1.55,1.12,2.54,.09,2.36-.96,4.16-3.15,5.4l-17.93,9.96v.06h.13c2.83-.56,5.42-.84,7.78-.84,6.12,0,10.76,1.26,13.91,3.79,3.15,2.53,4.72,6.13,4.72,10.8,0,6.08-2.21,10.79-6.62,14.11-4.41,3.32-10.69,4.98-18.83,4.98-6.38,0-11.16-.98-14.33-2.92-3.17-1.95-4.76-4.77-4.76-8.45,0-2.83,1.35-5.21,4.05-7.17,2.7-1.95,6.43-2.92,11.18-2.92s8.42,.81,10.6,2.44c2.19,1.63,3.28,4.03,3.28,7.2,0,.77-.11,1.74-.32,2.89-.04,.13-.01,.23,.1,.29s.2,.08,.29,.03c4.24-1.84,6.36-5.08,6.36-9.7,0-2.96-1.04-5.18-3.12-6.68-2.08-1.5-5.39-2.25-9.93-2.25-7.67,0-15.29,1.74-22.88,5.21Zm21.33,14.65c.6-1.46,.9-2.64,.9-3.53,0-1.33-.51-2.35-1.54-3.05-1.03-.71-2.87-1.06-5.53-1.06-2.14,0-3.78,.35-4.92,1.06-1.14,.71-1.7,1.57-1.7,2.6,0,3,3.64,4.5,10.92,4.5h1.16c.3,0,.53-.17,.71-.51Z"/></g></g></g></g></g></svg>