<?xml version="1.0" encoding="UTF-8"?><svg id="_イヤー_2" xmlns="http://www.w3.org/2000/svg" viewBox="0 0 559.35 350.5"><defs><style>.cls-1{fill:#fff;}.cls-2{fill:#88c1d8;}.cls-3{fill:#6d6d6d;}</style></defs><g id="_イヤー_1-2"><g><path class="cls-1" d="M549.64,233.28c.91-4.21,1.36-8.51,1.36-12.86V62.87c0-5.73-.8-11.39-2.36-16.84h3.35l-9.06-15.16c-11.54-19.33-30.91-30.87-51.81-30.87H175.27l-1.26,.33c-14.38,3.81-28.4,13.59-40.54,28.3l-13.45,16.36h1.6c-8.57,13.81-15.28,29.72-19.14,45.76-.73,3.05-3.15,5.37-6.01,5.77-.16,.02-.32,.04-.47,.05l-26.07,2.1-.27,.03c-5.27,.57-9.99,1.48-14.27,2.75-4.76-3.45-9.42-4.31-12.89-4.31-18.25,0-31,22.82-31,55.5,0,15.58,2.99,29.4,8.27,39.31-11.2,1.84-19.77,11.59-19.77,23.3v22.77c0,8.01,4.01,15.23,10.35,19.53v3.26c0,12.78,10.4,23.18,23.18,23.18h33.82v20h13.3c11.22,27.72,38.52,46.5,68.85,46.5s57.63-18.78,68.85-46.5h16v-20h141v20h15.51c11.22,27.72,38.52,46.5,68.85,46.5s57.63-18.78,68.85-46.5h13.79v-20.84c9.79-2.71,17-11.7,17-22.34v-8.64c0-7.77-3.79-14.69-9.71-18.9Z"/><g><path class="cls-2" d="M489.78,11.65H175.22c-30.5,8.07-54.66,46.7-63.02,81.45-1.66,6.91-7.3,12.34-14.33,13.34-.35,.05-.71,.09-1.07,.12l-26.07,2.1c-27.73,3-36.73,16.45-36.73,36.73v89.53c0,20.29,16.45,36.73,36.73,36.73H489.78c28.29,0,51.22-22.93,51.22-51.22V62.87c0-28.29-22.93-51.22-51.22-51.22Z"/><rect x="20.35" y="239" width="529" height="35" rx="13.18" ry="13.18"/><circle class="cls-1" cx="457.5" cy="267.15" r="54.5"/><circle class="cls-1" cx="150.5" cy="268.15" r="54.5"/><rect class="cls-3" x="10" y="201.65" width="38.5" height="50" rx="13.62" ry="13.62"/><g><ellipse class="cls-1" cx="42.5" cy="152.65" rx="17.5" ry="42"/><path d="M42.5,198.15c-11.97,0-21-19.56-21-45.5s9.03-45.5,21-45.5,21,19.56,21,45.5-9.03,45.5-21,45.5Zm0-84c-6.61,0-14,16.46-14,38.5s7.39,38.5,14,38.5,14-16.46,14-38.5-7.39-38.5-14-38.5Z"/></g><g><path d="M103.35,294v-51.9c0-6.67,5.43-12.1,12.1-12.1h70.81c6.67,0,12.1,5.43,12.1,12.1v51.9h26v-51.9c0-21.01-17.09-38.1-38.1-38.1H115.44c-21.01,0-38.1,17.09-38.1,38.1v51.9h26Z"/><path d="M411.35,294v-51.9c0-6.67,5.43-12.1,12.1-12.1h70.81c6.67,0,12.1,5.43,12.1,12.1v51.9h26v-51.9c0-21.01-17.09-38.1-38.1-38.1h-70.81c-21.01,0-38.1,17.09-38.1,38.1v51.9h26Z"/></g><g><g><path d="M149.49,213.37c-34.67,0-62.88,28.21-62.88,62.88s28.21,62.88,62.88,62.88,62.88-28.21,62.88-62.88-28.21-62.88-62.88-62.88Zm0,94.78c-17.59,0-31.9-14.31-31.9-31.9s14.31-31.9,31.9-31.9,31.9,14.31,31.9,31.9-14.31,31.9-31.9,31.9Z"/><path class="cls-1" d="M149.49,340.5c-35.43,0-64.25-28.82-64.25-64.25s28.82-64.25,64.25-64.25,64.25,28.82,64.25,64.25-28.82,64.25-64.25,64.25Zm0-125.77c-33.92,0-61.52,27.6-61.52,61.52s27.6,61.52,61.52,61.52,61.52-27.6,61.52-61.52-27.6-61.52-61.52-61.52Zm0,94.78c-18.34,0-33.26-14.92-33.26-33.26s14.92-33.26,33.26-33.26,33.26,14.92,33.26,33.26-14.92,33.26-33.26,33.26Zm0-63.79c-16.83,0-30.53,13.7-30.53,30.53s13.7,30.53,30.53,30.53,30.53-13.7,30.53-30.53-13.7-30.53-30.53-30.53Z"/></g><g><path d="M459.7,213.37c-34.67,0-62.88,28.21-62.88,62.88s28.21,62.88,62.88,62.88,62.88-28.21,62.88-62.88-28.21-62.88-62.88-62.88Zm0,94.78c-17.59,0-31.9-14.31-31.9-31.9s14.31-31.9,31.9-31.9,31.9,14.31,31.9,31.9-14.31,31.9-31.9,31.9Z"/><path class="cls-1" d="M459.7,340.5c-35.43,0-64.25-28.82-64.25-64.25s28.82-64.25,64.25-64.25,64.25,28.82,64.25,64.25-28.82,64.25-64.25,64.25Zm0-125.77c-33.92,0-61.52,27.6-61.52,61.52s27.6,61.52,61.52,61.52,61.52-27.6,61.52-61.52-27.6-61.52-61.52-61.52Zm0,94.78c-18.34,0-33.26-14.92-33.26-33.26s14.92-33.26,33.26-33.26,33.26,14.92,33.26,33.26-14.92,33.26-33.26,33.26Zm0-63.79c-16.83,0-30.53,13.7-30.53,30.53s13.7,30.53,30.53,30.53,30.53-13.7,30.53-30.53-13.7-30.53-30.53-30.53Z"/></g></g><path d="M534.35,36c-8.94-14.97-24.52-26-43.22-26H176.57c-13.25,3.51-25.3,12.78-35.38,25l393.16,1Z"/><g><rect class="cls-1" x="288" y="30.65" width="161" height="90"/><path class="cls-1" d="M522.4,98.64c-.4-41.99-2.6-44.18-10.4-55.99-7.8-11.81-12.98-12-22.4-12h-25.6V120.65h38.8c12.83,0,21.2,0,19.6-22.01Z"/><path class="cls-1" d="M273,30.65h-87.18c-4.82,0-9.82,3-17.09,8.61-16.05,12.39-29.73,31.39-36.72,53.8-6.99,22.42,1.39,27.58,17.09,27.58h123.9V30.65Z"/></g></g></g></g></svg>