<?xml version="1.0" encoding="UTF-8"?><svg id="_イヤー_2" xmlns="http://www.w3.org/2000/svg" viewBox="0 0 194.36 61.06"><defs><style>.cls-1,.cls-2{fill:#fff;}.cls-2{opacity:.6;}.cls-3{fill:none;stroke:#002b50;}.cls-3,.cls-4{stroke-miterlimit:10;}.cls-4{stroke:#fff;stroke-width:.75px;}.cls-4,.cls-5{fill:#002b50;}</style></defs><g id="_イヤー_1-2"><g><ellipse class="cls-2" cx="98.91" cy="29.16" rx="82.08" ry="26.5"/><g><path class="cls-4" d="M155.91,10.75c-15.68-5.16-36.54-8.01-58.73-8.01s-43.06,2.84-58.73,8.01c-15.25,5.02-24,11.92-24,18.92s8.75,13.89,24,18.92c15.68,5.16,36.54,8.01,58.73,8.01s43.06-2.84,58.73-8.01c15.25-5.03,24-11.92,24-18.92s-8.75-13.89-24-18.92Zm-.5,36.67c-15.52,5.11-36.2,7.93-58.23,7.93s-42.71-2.82-58.23-7.93c-14.67-4.83-23.08-11.3-23.08-17.76s8.41-12.93,23.08-17.76c15.52-5.11,36.2-7.93,58.23-7.93s42.71,2.82,58.23,7.93c14.67,4.83,23.08,11.3,23.08,17.76s-8.41,12.92-23.08,17.76Z"/><path class="cls-4" d="M156.96,8.55C140.96,3.28,119.73,.38,97.18,.38S53.4,3.28,37.4,8.55C20.76,14.03,11.6,21.53,11.6,29.66s9.16,15.64,25.8,21.12c16,5.27,37.23,8.17,59.78,8.17s43.78-2.9,59.78-8.17c16.64-5.48,25.8-12.98,25.8-21.12s-9.16-15.64-25.8-21.12Zm-.5,41.07c-15.85,5.22-36.9,8.09-59.28,8.09s-43.43-2.87-59.28-8.09c-16.04-5.28-24.88-12.37-24.88-19.96s8.84-14.67,24.88-19.96C53.75,4.49,74.8,1.61,97.18,1.61s43.43,2.87,59.28,8.09c16.04,5.28,24.88,12.37,24.88,19.96s-8.84,14.67-24.88,19.96Z"/></g><g><g><path class="cls-1" d="M72.37,12.33c-.8,.25-1.46,.51-2.02,.81-.26,.14-.51,.22-.76,.23-.1-.02-.21-.05-.33-.09-.09-.03-.15-.06-.19-.08-.13-.12-.26-.27-.37-.45-.24-.35-.36-.53-.6-.88l-.17-.2c-.28-.26-.57-.52-.88-.77-.33-.28-.7-.53-1.09-.76l-.14-.08-.16-.05c-.52-.15-1.01-.22-1.48-.19-.36,.02-.71,.06-1.1,.13-.6,.14-1.15,.37-1.65,.71-.38,.26-.8,.55-1.25,.87-.27,.2-.41,.29-.68,.49,.47,.92,.7,1.38,1.19,2.3,1.1-.15,1.65-.23,2.75-.39,0-.25,0-.38,0-.64,.12-.1,.18-.15,.3-.24,.29-.08,.43-.11,.72-.19l.14,.03c.22,.15,.42,.33,.6,.54,.27,.31,.51,.65,.72,1.02,.06,.08,.09,.12,.15,.21,.35,.38,.74,.72,1.17,.99,.45,.29,.94,.5,1.44,.64l.06,.02c.09,.02,.17,.04,.26,.05,1,.18,1.9,.07,2.69-.33,.6-.3,1.23-.62,1.89-.96,.26-.14,.39-.21,.65-.34-.19-1.14-.28-1.71-.45-2.84-.56,.18-.85,.27-1.42,.45Z"/><path class="cls-1" d="M87.33,17.27l-.18-.2c-.43-.38-.89-.76-1.35-1.14,.14-.04,.21-.05,.36-.09,.19-.29,.29-.43,.48-.71l.04-.14c.08-.26,.08-.54,0-.8-.05-.19-.14-.38-.26-.55l-.15-.22c-.12-.07-.18-.1-.29-.17,.1-.15,.15-.22,.25-.37l.04-.14c.08-.26,.08-.54,.01-.8-.05-.19-.14-.38-.25-.55-.06-.09-.09-.13-.15-.22-.31-.18-.47-.27-.78-.45-.53-.02-.79-.03-1.32-.06,0-.3-.06-.6-.18-.87-.06-.13-.08-.2-.14-.34-.29-.18-.44-.26-.73-.44l-.15-.05c-.29-.09-.58-.1-.86-.05-.21,.04-.41,.11-.6,.21l-.17,.09-.13,.14c-.09,.1-.17,.2-.24,.32-.07,.1-.12,.22-.17,.34l-.06,.15v.27l-.19-.02c-.56-.05-1.11-.03-1.63,.05-.19,.03-.29,.05-.48,.08-.21,.29-.32,.43-.53,.72l-.05,.13c-.1,.26-.11,.53-.05,.8,.04,.2,.13,.39,.24,.57v.02c-.19,.02-.3,.03-.5,.05-.22,.3-.34,.45-.56,.75l-.05,.13c-.1,.26-.11,.53-.05,.8,.05,.2,.13,.39,.24,.57l.1,.13c.17,.2,.39,.35,.64,.47,.12,.05,.23,.1,.33,.14l.11,.04c-.35,.25-.68,.52-1,.79-.08,.07-.12,.1-.2,.17-.04,.09-.05,.14-.09,.24-.1,.26-.11,.53-.04,.8,.05,.2,.13,.39,.25,.57,.06,.09,.09,.13,.15,.22,.33,.2,.49,.3,.82,.49,.46,.03,.69,.04,1.15,.06,.21-.14,.32-.22,.53-.36,.02,.29,.1,.57,.25,.84,.06,.12,.09,.18,.15,.29,.24,.14,.36,.21,.6,.35,.12,.05,.17,.08,.29,.13,.12,.04,.24,.06,.36,.07,.19,.02,.38,.02,.56-.01,.22-.04,.43-.11,.62-.21,.1-.05,.15-.08,.25-.13,.19-.27,.28-.4,.47-.67,0-.1,.01-.15,.02-.25,.02-.23,.03-.44,.04-.66,0-.21,0-.41-.02-.61v-.08s.05,.04,.08,.06c.61,.51,1.25,1.02,1.89,1.5,.17,.13,.26,.19,.43,.32,.31-.04,.47-.06,.78-.1,.3-.04,.57-.15,.8-.32l.15-.11c.14-.21,.21-.31,.35-.52l.04-.14c.08-.26,.08-.54,0-.8-.06-.19-.15-.38-.27-.55Z"/><path class="cls-1" d="M103.35,13.56c-.23-.22-.5-.41-.77-.56-.28-.16-.58-.28-.89-.36l-.22-.04c-.61-.05-1.21-.03-1.78,.08-.65,.12-1.26,.39-1.84,.85-.12,.1-.24,.21-.34,.33,0-.15-.03-.3-.07-.44-.06-.19-.16-.37-.29-.54-.06-.08-.1-.13-.16-.21-.33-.17-.5-.25-.83-.42-.14,0-.21,.01-.34,.02-.4,.02-.8,.07-1.18,.14-.06,.01-.13,.02-.19,.04,.02-.22,.02-.33,.04-.55,0-.14,.02-.28,.03-.43,.04-.44-.09-.85-.38-1.2l-.14-.17c-.25-.13-.37-.2-.62-.33l-.15-.04c-.29-.07-.58-.07-.86,0-.21,.05-.4,.13-.58,.24-.08,.06-.12,.09-.19,.15-.31,.3-.49,.68-.52,1.11,0,.14-.02,.26-.05,.38v.07c-.06,.49-.07,.99-.03,1.48,.04,.6,.24,1.18,.59,1.71l.07,.09s.08,.1,.13,.14c-.15,.03-.31,.05-.46,.08-.2,.04-.3,.06-.51,.09-.2,.31-.3,.47-.49,.78l-.04,.13c-.08,.27-.08,.54,0,.8,.06,.19,.15,.38,.28,.55,.05,.06,.07,.09,.11,.15,.06,.04,.1,.07,.16,.11,.12,.08,.24,.15,.37,.21h.03s-.05,.03-.07,.04c-.12,.06-.18,.08-.31,.14-.17,.26-.25,.39-.42,.65l-.04,.15c-.08,.31-.05,.62,.07,.89,.07,.16,.16,.31,.27,.46,.06,.08,.1,.13,.16,.21,.29,.15,.43,.22,.72,.37l.2,.04c.09,.02,.17,.03,.26,.03,.32,.02,.63-.03,.91-.14,.17-.07,.33-.14,.49-.22,.1-.07,.14-.1,.24-.17,.24-.22,.48-.45,.7-.69,.15,.19,.29,.36,.44,.52,.16,.2,.36,.36,.58,.49,.23,.13,.48,.23,.75,.28l.24,.05c.19-.03,.29-.05,.48-.09,.29-.05,.56-.18,.78-.36l.14-.12c.1-.18,.16-.26,.26-.44l.02,.02,.14,.13c.19,.09,.28,.13,.47,.22,.12,.04,.18,.06,.29,.1,.3,.06,.62,.06,.91-.02,.12-.03,.24-.08,.36-.13,.5-.04,.98-.15,1.44-.33,.55-.22,1.06-.52,1.51-.92,.33-.29,.61-.63,.83-.99,.23-.39,.38-.81,.43-1.25,.07-.58,.02-1.16-.14-1.71-.17-.61-.51-1.17-1.02-1.65Zm-2.34,3.03c-.03,.07-.09,.14-.16,.2-.14,.12-.29,.23-.45,.33-.09,.04-.18,.07-.28,.09h-.07s-.03-.05-.05-.08c-.07-.16-.12-.32-.17-.49,0-.12,.03-.22,.07-.31,.05-.12,.12-.25,.21-.37,.08-.06,.16-.11,.23-.14,.08-.04,.17-.06,.27-.08,.09,0,.17,0,.25,.01,0,0,.01,.02,.01,.02,.04,.09,.08,.18,.11,.27,0,.15,0,.31,.01,.45,0,.04,0,.08-.01,.1Z"/><path class="cls-1" d="M116.67,13.71c-.5-.39-1.07-.71-1.66-.96-.63-.27-1.3-.42-1.97-.46-.55,.02-.83,.03-1.38,.05h-.12c-.64,.09-1.27,.25-1.87,.47-.6,.22-1.18,.51-1.73,.87l-.09,.07c-.6,.48-1.05,1.05-1.35,1.69-.3,.65-.43,1.35-.36,1.99,0,.4,.07,.81,.2,1.21,.15,.49,.42,.92,.8,1.28l.08,.07c.85,.66,1.65,.72,2.18,.66,.59-.07,1.14-.26,1.61-.56,.31-.28,.46-.43,.77-.71l.07-.08c.55-.65,.92-1.38,1.1-2.17,.12-.53,.24-1.06,.34-1.59,.37,.1,.71,.26,1.03,.49,.09,.07,.15,.13,.18,.19,.05,.09,.08,.2,.1,.31,0,.11,0,.2-.03,.28-.06,.18-.11,.36-.17,.55-.07,.12-.14,.25-.2,.36-.01,.02-.04,.06-.11,.11-.08,.06-.12,.09-.2,.16-.12,.25-.18,.37-.3,.62l-.02,.14c-.05,.27-.01,.54,.1,.8,.08,.19,.2,.36,.35,.51,.07,.08,.11,.12,.18,.19,.29,.11,.44,.17,.73,.28l.18,.02c.11,.01,.21,.01,.32,0,.23-.01,.45-.06,.65-.14,.19-.08,.36-.18,.52-.3,.15-.14,.22-.22,.37-.36l.12-.15c.29-.44,.53-.9,.7-1.38,.17-.47,.28-.96,.33-1.44v-.18c-.04-.5-.15-.98-.34-1.44-.22-.54-.58-1.03-1.1-1.44Z"/><path class="cls-1" d="M132.32,15.49c-.15-.04-.23-.07-.38-.11-.77,.24-1.16,.35-1.94,.58,.03,.18,.04,.27,.07,.45-.1,.08-.2,.16-.29,.25v-.04l-.03-.19-.1-.17c-.14-.23-.5-.72-1.21-.95,.22-.45,.39-.92,.51-1.39,.03-.1,.04-.14,.06-.24-.11-.47-.17-.7-.28-1.17,.07-.09,.14-.19,.2-.29,.08-.14,.11-.21,.19-.35-.14-.52-.21-.77-.35-1.29-.17-.09-.26-.14-.43-.23-.54-.28-1.1-.53-1.68-.75-.5-.18-1-.39-1.49-.6-.16-.07-.24-.11-.4-.18-.59,.17-.89,.25-1.48,.41-.21,.38-.32,.57-.53,.95,.18,.59,.27,.88,.46,1.46,.37,.15,.55,.22,.92,.37-.53,.08-1.05,.19-1.57,.34-.18,.05-.27,.08-.46,.13-.22,.37-.33,.56-.54,.94,.19,.61,.28,.92,.47,1.54,.52,.15,.78,.23,1.3,.38,.55-.09,.82-.14,1.37-.23-.16,.31-.32,.62-.49,.93-.47,.86-.94,1.72-1.4,2.58-.08,.15-.12,.22-.2,.37,.18,.56,.27,.84,.44,1.39,.39,.18,.58,.27,.97,.45,.51-.05,.77-.07,1.28-.12,.12-.11,.18-.17,.3-.28,.32-.29,.56-.61,.71-.94,.08-.17,.16-.35,.24-.54,.08-.09,.16-.17,.25-.24,.19,.4,.46,.71,.79,.91,.31,.21,.63,.38,.96,.48,.33,.11,.69,.17,1.06,.18h.27c.1-.03,.15-.05,.25-.09,.66-.25,1.26-.61,1.78-1.05,.45-.37,.89-.78,1.33-1.22,.15-.15,.22-.22,.37-.38-.03-.2-.05-.3-.08-.49-.03-.18-.07-.36-.13-.55-.15-.47-.55-.84-1.08-1Z"/><path class="cls-1" d="M146.74,14.19c-.09-.07-.13-.1-.22-.16-.44-.09-.65-.14-1.09-.24-.07,.04-.11,.06-.19,.1,.05-.18,.08-.27,.13-.45-.07-.14-.11-.21-.19-.35-.12-.23-.27-.45-.43-.65,.12-.08,.24-.17,.35-.27,.09-.08,.14-.13,.23-.21,.08-.29,.12-.43,.2-.71v-.14c0-.27-.09-.54-.24-.77-.11-.17-.25-.32-.42-.45l-.06-.05c.06-.22,.09-.34,.15-.56v-.14c-.01-.27-.1-.54-.24-.77-.11-.17-.25-.32-.42-.45l-.13-.1-.15-.06c-.22-.09-.46-.15-.7-.16-.09,0-.19,0-.31,0-.82,.15-1.24,.23-2.06,.37-.12-.2-.25-.39-.39-.58-.1-.13-.14-.2-.24-.33-.35-.09-.52-.13-.87-.23h-.15c-.3,0-.57,.06-.82,.19-.18,.1-.35,.22-.5,.37l-.13,.13c-.03,.07-.04,.1-.08,.17-.05,.12-.1,.24-.13,.38-.03,.12-.05,.24-.06,.38,0,.07,0,.11-.01,.18l.05,.17c-.26,.09-.51,.21-.73,.34-.14,.09-.21,.13-.35,.21-.1,.32-.15,.48-.25,.79v.14c-.01,.28,.05,.54,.2,.78,.1,.18,.24,.33,.4,.47,.09,.07,.13,.11,.21,.18,.14,.03,.21,.05,.36,.09-.11,.34-.16,.51-.28,.85v.14c-.01,.28,.05,.54,.2,.78h0c-.11,.08-.2,.16-.3,.25l-.19,.18c-.11,.33-.16,.49-.27,.81,.03,.12,.05,.18,.09,.29,.14,.46,.34,.91,.6,1.32,.29,.45,.67,.84,1.14,1.17l.14,.08c.57,.29,1.18,.51,1.82,.65,.64,.14,1.29,.19,1.93,.17h.12c.16-.03,.31-.05,.47-.08,.66-.12,1.3-.31,1.9-.57,.75-.32,1.44-.74,2.04-1.24,.09-.07,.13-.11,.22-.18,.13-.33,.2-.49,.32-.81v-.19c0-.27-.1-.54-.25-.77-.11-.17-.26-.32-.43-.45Zm-5.37-.45c.05,.06,.09,.12,.14,.18,.26,.33,.58,.63,.94,.91,.08,.06,.12,.09,.2,.15,.18,.04,.27,.06,.46,.11-.13,.05-.25,.1-.38,.14-.38,.11-.75,.14-1.12,.09-.37-.05-.72-.14-1.05-.27-.09-.08-.15-.17-.2-.28-.1-.2-.21-.4-.32-.59,.54-.17,.8-.25,1.34-.42Z"/><path class="cls-1" d="M161.84,6.14c-.41,.4-.62,.6-1.04,1-.59,.56-1.05,1.08-1.4,1.58-.16,.24-.35,.41-.56,.53-.1,.02-.21,.04-.33,.05-.09,.01-.16,0-.2,0-.17-.06-.35-.14-.54-.25-.37-.22-.56-.33-.93-.55-.1-.04-.14-.06-.24-.11-.37-.12-.74-.23-1.13-.33-.42-.11-.86-.19-1.31-.23h-.32c-.52,.09-.98,.24-1.37,.45-.31,.17-.59,.35-.89,.58-.46,.38-.82,.82-1.1,1.33-.21,.39-.44,.83-.68,1.31-.15,.29-.22,.44-.37,.73,.82,.64,1.23,.95,2.06,1.58,.89-.6,1.34-.9,2.22-1.51-.12-.23-.18-.34-.29-.57,.06-.14,.09-.21,.15-.35,.22-.19,.33-.28,.54-.47l.13-.03c.26,.05,.52,.13,.77,.24,.37,.16,.74,.37,1.1,.62,.09,.05,.13,.07,.23,.12,.48,.2,.98,.34,1.48,.41,.53,.07,1.06,.06,1.57-.02h.06c.09-.03,.17-.05,.26-.07,.96-.26,1.72-.74,2.24-1.43,.39-.52,.81-1.08,1.23-1.67,.17-.23,.25-.35,.42-.59-.7-.95-1.05-1.43-1.75-2.38Z"/></g><g><path class="cls-5" d="M68.91,15.24c-.37-.09-.73-.26-1.06-.47-.33-.21-.7-.48-.91-.77-.27-.37-.54-.85-.86-1.21-.32-.37-.68-.67-1.09-.91-.28-.06-.43-.09-.71-.14-.51,.13-.76,.2-1.27,.33-.28,.22-.42,.33-.7,.55l-.17,.06c0,.12,0,.19,0,.31-.33,.05-.5,.07-.83,.12-.15-.29-.23-.44-.38-.73,.44-.32,.85-.6,1.22-.86,.37-.25,.78-.43,1.23-.53,.28-.05,.57-.08,.88-.1s.7,0,1.01,.14c.31,.13,.64,.4,.92,.64,.28,.23,.61,.48,.81,.72,.22,.25,.41,.6,.59,.88,.19,.28,.39,.52,.63,.72,.16,.12,.36,.22,.59,.3,.23,.08,.45,.13,.65,.17,.51,0,1-.13,1.48-.39,.48-.26,1.07-.5,1.79-.72,.05,.32,.07,.48,.12,.79-.66,.34-1.28,.66-1.87,.95-.59,.29-1.31,.37-2.08,.18Z"/><path class="cls-5" d="M81.05,19.44c-.12-.07-.17-.1-.29-.17-.12-.23-.16-.47-.13-.72,.04-.25,.04-.5,0-.73,.05-.5,.08-.76,.13-1.26l-.03-.03c-.91,.64-1.36,.95-2.28,1.58-.14,0-.22-.01-.36-.02-.11-.07-.17-.1-.28-.17-.05-.08-.09-.16-.11-.24-.02-.08-.02-.17,.01-.25,.49-.43,1.03-.83,1.6-1.2,.57-.37,1.05-.82,1.45-1.34h-.12c-.41-.05-.83-.07-1.25-.08-.42,0-.84,0-1.26,0-.08-.03-.16-.06-.24-.1-.09-.04-.16-.09-.21-.15-.05-.07-.09-.16-.1-.24-.02-.08-.01-.17,.02-.25l.18-.24c.54-.05,1.09-.07,1.64-.05,.55,.02,1.1,.04,1.65,.07,.07-.51,.1-.77,.17-1.28-.16-.02-.24-.03-.41-.05-.74-.03-1.11-.04-1.85-.07-.08-.03-.15-.06-.21-.09-.06-.04-.12-.07-.18-.12-.05-.08-.08-.16-.1-.24-.02-.08-.01-.17,.02-.25,.07-.1,.11-.15,.18-.24,.42-.07,.86-.08,1.31-.04,.45,.04,.91,.07,1.35,.09,.01-.09,.02-.14,.03-.24,.02-.37,.03-.55,.05-.92,.03-.07,.06-.13,.09-.19,.04-.06,.08-.11,.12-.16,.08-.04,.17-.07,.26-.09s.18,0,.27,.02c.11,.07,.16,.1,.27,.16,.09,.22,.12,.47,.08,.73-.04,.26-.05,.52-.04,.77,.2,.02,.29,.03,.49,.06,.69,.03,1.03,.05,1.71,.08,.11,.06,.17,.1,.28,.16,.05,.08,.09,.15,.11,.24,.02,.08,.02,.17,0,.25-.07,.1-.1,.15-.17,.25-.4,.08-.81,.11-1.24,.08-.43-.03-.85-.06-1.28-.09-.06,.49-.09,.74-.16,1.23l.2,.02c.43,0,.87,0,1.31,.02s.88,.04,1.33,.07c.11,.06,.17,.1,.28,.16,.05,.08,.09,.15,.11,.24,.02,.08,.02,.17,0,.25-.07,.1-.1,.15-.17,.25-.4,.1-.82,.13-1.26,.07-.44-.05-.87-.06-1.29-.02,.59,.45,1.18,.92,1.77,1.39,.59,.48,1.17,.96,1.73,1.45,.05,.08,.09,.15,.12,.24,.02,.08,.02,.17,0,.25-.07,.1-.1,.15-.17,.25-.06,.05-.14,.08-.22,.09-.08,.01-.16,.02-.24,.03-.62-.46-1.24-.95-1.84-1.45-.6-.5-1.23-.98-1.88-1.43-.09,.87-.13,1.31-.21,2.18,.02,.18,.03,.37,.02,.56,0,.19-.02,.4-.04,.61-.07,.1-.1,.15-.17,.25-.09,.04-.17,.07-.27,.09-.09,.02-.19,0-.29-.02Z"/><path class="cls-5" d="M91.97,19.89c-.12-.06-.18-.09-.29-.15-.06-.07-.1-.15-.14-.23-.04-.08-.04-.17-.02-.28,.06-.1,.1-.15,.16-.25,.1-.05,.2-.08,.3-.11,.1-.03,.19-.08,.28-.17,.27-.27,.51-.55,.72-.84,.21-.3,.39-.61,.54-.93l-.03-.03c-.26,.06-.52,.11-.79,.15-.27,.05-.58,.1-.81,.07-.07,0-.15-.05-.22-.08-.07-.03-.13-.07-.19-.1-.06-.07-.1-.15-.12-.23-.03-.08-.03-.16,0-.25,.06-.1,.1-.15,.16-.25,.42-.08,.83-.15,1.24-.21,.41-.06,.83-.13,1.24-.19,.02-.41,.03-.62,.04-1.03l-.05-.13c-.29,0-.44,0-.73,.01-.14-.03-.27-.06-.4-.1-.13-.04-.25-.12-.34-.23-.25-.39-.4-.8-.43-1.23-.03-.43-.04-.89,.01-1.31,.02-.15,.05-.32,.06-.5,0-.18,.08-.32,.2-.44,.08-.05,.16-.08,.25-.1,.09-.02,.18-.02,.27,0,.11,.06,.17,.09,.28,.15,.11,.13,.15,.28,.14,.44-.02,.17-.03,.33-.04,.49-.03,.35-.04,.52-.07,.87,0,.16,0,.31,.05,.47,.04,.15,.08,.31,.11,.47,.19,.01,.28,.02,.46,.03,.33-.07,.67-.14,1.01-.2,.34-.06,.68-.1,1.03-.12,.11,.06,.17,.09,.28,.14,.06,.07,.1,.15,.12,.23,.03,.08,.03,.16,0,.25-.07,.11-.11,.17-.18,.28-.14,.08-.28,.13-.44,.14-.16,.01-.31,.04-.47,.08l-.03,.16c.03,.16,.05,.32,.04,.49,0,.17-.01,.33-.02,.49h.06c.23-.04,.46-.09,.69-.15,.23-.06,.46-.1,.72-.13,.11,.06,.17,.09,.29,.14,.06,.07,.1,.15,.13,.23,.03,.08,.03,.17,0,.28-.07,.11-.11,.17-.18,.28-.28,.11-.58,.2-.9,.25-.32,.06-.63,.13-.9,.22,.24,.43,.5,.86,.77,1.28,.27,.42,.6,.79,.99,1.12,.06,.07,.1,.15,.13,.23,.03,.08,.03,.16,0,.25-.06,.1-.09,.15-.15,.26-.06,.05-.13,.08-.21,.1-.08,.01-.16,.03-.24,.04-.12-.02-.23-.06-.32-.12-.1-.06-.19-.13-.26-.22-.27-.29-.51-.6-.73-.92-.22-.32-.44-.63-.66-.94-.19,.36-.43,.7-.7,1.01-.28,.31-.57,.61-.88,.89-.12,.06-.25,.12-.38,.18-.13,.05-.28,.07-.44,.04Zm7.25-.38c-.12-.06-.18-.08-.29-.14-.25-.24-.49-.49-.7-.76-.21-.27-.39-.56-.54-.86-.05-.21-.11-.43-.16-.64-.05-.21-.08-.44-.07-.66,.02-.39,.14-.79,.35-1.16,.2-.37,.47-.72,.8-.99,.37-.31,.82-.5,1.28-.58,.46-.08,.99-.14,1.44-.06,.2,.03,.41,.14,.6,.25,.19,.11,.37,.24,.55,.4,.35,.34,.58,.72,.7,1.16,.12,.43,.15,.88,.1,1.33-.04,.3-.14,.58-.3,.85-.17,.27-.37,.53-.63,.75-.34,.3-.75,.53-1.18,.71-.43,.18-.9,.26-1.39,.25v.05c-.08,.05-.16,.09-.25,.11-.09,.02-.18,.03-.28,0Zm1.75-1.49c.21-.12,.42-.29,.62-.45,.2-.16,.34-.35,.44-.56,.08-.17,.11-.36,.1-.55,0-.19,.01-.42-.02-.58-.02-.15-.13-.35-.22-.53-.09-.18-.22-.34-.39-.48-.13-.11-.29-.17-.48-.18-.18-.01-.39-.03-.56-.02-.23,.01-.48,.09-.7,.18-.21,.09-.45,.22-.61,.39-.18,.19-.32,.45-.42,.69-.1,.23-.18,.52-.16,.77,.02,.26,.14,.55,.25,.81,.11,.26,.29,.5,.52,.71,.11,.05,.16,.07,.26,.11,.26-.01,.5-.04,.72-.09,.23-.05,.45-.12,.63-.22Z"/><path class="cls-5" d="M115.16,19.48c-.12-.05-.18-.07-.3-.12-.06-.07-.11-.14-.15-.22-.03-.08-.05-.16-.03-.25,.05-.11,.08-.16,.13-.27,.17-.13,.3-.27,.38-.43,.09-.15,.2-.32,.26-.48,.08-.19,.13-.42,.19-.63,.06-.21,.09-.44,.07-.68-.03-.24-.11-.47-.22-.68-.11-.21-.28-.39-.5-.56-.45-.33-.94-.56-1.48-.7-.54-.14-1.09-.16-1.66-.07l.16,.1c.08,.04,.12,.11,.13,.2,.01,.09,0,.18,0,.27-.12,.62-.26,1.25-.41,1.89-.15,.64-.45,1.22-.9,1.74-.24,.23-.36,.34-.59,.57-.32,.2-.68,.33-1.08,.38-.4,.05-.81-.09-1.23-.41-.24-.22-.41-.5-.51-.81-.1-.32-.14-.64-.16-.95-.03-.53,.03-1.06,.26-1.56,.23-.5,.58-.97,1.04-1.31,.43-.31,.96-.56,1.48-.75,.52-.19,1.05-.32,1.6-.39,.5-.02,.76-.03,1.26-.05,.54,.03,1.06,.15,1.56,.37s.98,.48,1.4,.81c.35,.27,.6,.61,.74,.98,.14,.37,.27,.8,.26,1.16,0,.37-.14,.81-.29,1.22s-.34,.79-.59,1.16c-.1,.1-.15,.15-.25,.25-.08,.06-.16,.11-.26,.15-.1,.04-.2,.05-.32,.04Zm-5.73-1.06c.61-.51,1-1.11,1.18-1.8,.18-.69,.33-1.37,.46-2.05l-.06-.02c-.4,.12-.79,.27-1.18,.47-.39,.19-.72,.45-1,.77-.24,.28-.38,.59-.42,.92-.04,.33-.05,.68,0,1.02,.05,.36,.17,.6,.32,.68,.06,.06,.13,.1,.2,.13,.07,.03,.24-.01,.51-.12Z"/><path class="cls-5" d="M129.59,19.19c-.24,0-.47-.04-.68-.11-.21-.07-.43-.18-.64-.32-.27-.17-.47-.48-.57-.93-.1-.44-.35-.6-.75-.47-.3,.1-.58,.24-.84,.41-.26,.17-.49,.39-.69,.65-.09,.22-.19,.43-.28,.64-.09,.2-.25,.4-.47,.6-.19,.02-.28,.03-.47,.04l-.19-.09c-.07-.23-.11-.34-.18-.57,.46-.85,.92-1.71,1.39-2.57,.46-.86,.89-1.74,1.28-2.63-.69,.05-1.04,.08-1.73,.13-.57,.1-.85,.15-1.42,.24-.17-.05-.25-.07-.42-.12-.07-.23-.11-.34-.18-.57l.1-.17c.56-.16,1.12-.27,1.69-.35,.57-.07,1.17-.16,1.77-.21,.19-.02,.41-.02,.66-.01,.25,0,.46,.08,.64,.24,.06,.25,.09,.37,.14,.62-.13,.48-.31,.94-.54,1.39-.23,.45-.46,.9-.67,1.35l.12,.04c.93-.33,1.55-.22,1.88,.32,.04,.28,.11,.54,.2,.78,.09,.24,.29,.43,.59,.57l.24,.02c.29-.18,.58-.38,.87-.61,.28-.23,.57-.47,.84-.72l-.02-.1c.25-.07,.38-.11,.63-.19,.17,.05,.27,.14,.31,.28,.04,.14,.07,.28,.1,.41-.41,.41-.83,.79-1.26,1.15-.43,.36-.91,.64-1.44,.84Zm-2.29-7.08c-1.29-.49-1.93-.74-3.2-1.26-.07-.23-.11-.34-.18-.57l.09-.17c.24-.07,.36-.1,.6-.17,.52,.23,1.04,.44,1.56,.63,.52,.19,1.03,.42,1.53,.68,.05,.19,.07,.28,.12,.46-.06,.11-.14,.19-.23,.24-.09,.05-.19,.09-.3,.14Z"/><path class="cls-5" d="M142.24,17.43c-.5,.04-1.06-.02-1.59-.14-.53-.11-1.08-.28-1.51-.54-.34-.21-.63-.53-.85-.87-.21-.33-.38-.68-.49-1.06,.04-.11,.06-.17,.09-.28,.07-.06,.14-.12,.22-.17,.08-.05,.18-.07,.3-.08,.13,.03,.19,.05,.31,.08,.17,.26,.32,.53,.46,.81,.14,.28,.34,.53,.6,.73,.49,.22,1.01,.37,1.56,.44,.55,.07,1.11,.03,1.66-.13,.45-.13,.89-.33,1.3-.58,.41-.25,.82-.49,1.24-.71,.13,.03,.19,.04,.32,.07,.07,.06,.14,.12,.18,.19,.05,.07,.07,.15,.07,.24-.06,.15-.09,.23-.15,.38-.51,.43-1.09,.78-1.73,1.05-.64,.28-1.34,.49-2.01,.55Zm1.24-3.35c-.13-.03-.19-.04-.32-.07-.29-.22-.54-.45-.75-.71-.21-.26-.42-.52-.64-.79h-.15c-1.06,.34-1.59,.51-2.65,.84-.08,0-.16-.01-.23-.03-.07-.01-.14-.03-.21-.06-.07-.06-.13-.13-.17-.2-.04-.07-.07-.15-.06-.24,.04-.11,.05-.17,.09-.28,.41-.19,.85-.36,1.3-.49,.45-.13,.9-.28,1.34-.43v-.05c-.45-.49-.67-.74-1.1-1.23-.76,.21-1.15,.31-1.91,.52-.16-.04-.24-.06-.4-.09-.07-.06-.13-.13-.17-.2-.04-.07-.07-.15-.06-.24,.04-.11,.05-.17,.09-.28,.24-.15,.52-.26,.82-.33,.31-.07,.6-.15,.9-.24l-.02-.08c-.11-.14-.2-.28-.29-.42-.09-.14-.16-.29-.21-.46,0-.07,.01-.14,.03-.21,.02-.06,.04-.13,.06-.19,.06-.06,.13-.12,.21-.16,.08-.04,.17-.06,.26-.06,.12,.03,.18,.05,.31,.08,.14,.19,.27,.39,.39,.59,.12,.2,.25,.4,.39,.59,1.06-.19,1.58-.29,2.64-.49,.1,0,.19,0,.26,0,.08,0,.18,.02,.25,.06,.07,.04,.13,.12,.18,.19,.05,.07,.07,.15,.07,.24-.03,.11-.05,.17-.08,.29-.04,.06-.11,.11-.19,.14-.08,.03-.16,.07-.23,.1l-.03-.02c-.8,.16-1.2,.23-2,.38v.05c.38,.45,.57,.67,.94,1.12l.14-.03c.23-.1,.47-.2,.7-.31,.23-.11,.48-.2,.74-.26,.13,.03,.19,.04,.31,.07,.07,.06,.13,.12,.18,.19s.07,.15,.07,.24l-.08,.29c-.18,.16-.39,.28-.63,.37-.24,.08-.48,.18-.71,.3,.18,.25,.38,.49,.61,.72,.23,.23,.42,.48,.56,.76-.03,.11-.05,.17-.08,.29-.07,.07-.14,.12-.22,.16s-.17,.06-.27,.07Z"/><path class="cls-5" d="M159.1,11.24c-.37,.07-.76,.07-1.15,.02-.39-.05-.84-.14-1.16-.32-.4-.22-.86-.54-1.31-.74-.45-.2-.91-.32-1.37-.37-.27,.07-.41,.1-.68,.17-.38,.33-.57,.5-.95,.83-.14,.32-.21,.48-.36,.79l-.12,.12,.14,.28c-.27,.18-.4,.27-.67,.46-.26-.2-.4-.3-.66-.5,.24-.47,.46-.9,.66-1.29,.21-.38,.48-.72,.82-1,.22-.16,.46-.31,.72-.46,.26-.15,.62-.29,.94-.3,.33,0,.74,.1,1.1,.19,.35,.09,.75,.18,1.05,.31,.31,.14,.63,.37,.93,.54,.29,.17,.59,.3,.88,.39,.2,.04,.42,.05,.66,.02,.24-.03,.46-.07,.65-.12,.45-.21,.83-.54,1.13-.97,.3-.43,.72-.9,1.25-1.41,.19,.27,.29,.4,.48,.67-.42,.59-.83,1.13-1.22,1.65-.39,.52-.99,.88-1.76,1.03Z"/></g></g><g><path class="cls-1" d="M52.28,10.12c-.14-.57-.94-3.87-1.65-5.9-.47-1.35-1.76-2.26-3.19-2.28h0c-4.99-.04-22.15-.27-22.16-.27-1.71-.02-3.24,1.11-3.72,2.75l-1.32,4.5c-.12,.4-.43,.71-.82,.83l-1.45,.44c-2.39,.72-4.1,2.8-4.35,5.28l-.08,.77c-.11,1.07,.24,2.14,.95,2.94,.71,.8,1.74,1.27,2.81,1.28h.22c.97,2.04,3.04,3.41,5.34,3.44s4.41-1.3,5.42-3.31l10.19,.12c.97,2.04,3.04,3.41,5.34,3.44s4.45-1.32,5.45-3.37c1.78-.31,3.16-1.85,3.18-3.73l.07-5.59c0-.46-.07-.91-.22-1.33Z"/><g><path class="cls-5" d="M49.4,4.64c-.3-.84-1.09-1.41-1.99-1.41-4.99-.05-22.16-.27-22.16-.27-1.13-.01-2.14,.73-2.46,1.82l-1.32,4.5c-.24,.82-.88,1.46-1.69,1.71l-1.44,.44c-1.88,.57-3.24,2.21-3.44,4.17l-.08,.77c-.15,1.48,1,2.77,2.49,2.79l31.27,.36c1.4,.02,2.54-1.1,2.56-2.5l.07-5.59c0-.32-.05-.64-.17-.94,0,0-.88-3.71-1.63-5.85Z"/><g><path class="cls-1" d="M31.19,10.65l-7.48-.09,1.12-4.77c.18-.78,.89-1.33,1.69-1.32l4.75,.06-.07,6.12Z"/><rect class="cls-1" x="32.58" y="4.58" width="7.48" height="6.12" transform="translate(.09 -.42) rotate(.67)"/><path class="cls-1" d="M41.39,10.77l7.48,.09-1.01-4.79c-.17-.79-.85-1.35-1.66-1.36l-4.75-.06-.07,6.12Z"/></g><circle class="cls-1" cx="23.01" cy="17.55" r="3.23"/><circle class="cls-1" cx="43.9" cy="18.41" r="3.23"/><g><path class="cls-5" d="M43.82,22.84c-2.58-.03-4.66-2.16-4.63-4.74s2.16-4.66,4.74-4.63,4.66,2.16,4.63,4.74-2.16,4.66-4.74,4.63Zm.08-7.22c-1.4-.02-2.55,1.11-2.56,2.51s1.11,2.55,2.51,2.56,2.55-1.11,2.56-2.51-1.11-2.55-2.51-2.56Z"/><path class="cls-5" d="M22.88,22.59c-2.58-.03-4.66-2.16-4.63-4.74s2.16-4.66,4.74-4.63,4.66,2.16,4.63,4.74-2.16,4.66-4.74,4.63Zm.08-7.22c-1.4-.02-2.55,1.11-2.56,2.51s1.11,2.55,2.51,2.56,2.55-1.11,2.56-2.51-1.11-2.55-2.51-2.56Z"/></g></g></g><g><g><path class="cls-1" d="M33.07,36.83c-.44-.12-1.08-.27-1.88-.35,0-.53,0-1.06-.04-1.58-.05-1.38-.61-2.64-1.58-3.56-1.04-.98-2.49-1.48-4-1.44-1.61,.02-3.12,.65-4.15,1.74-.17,.18-.32,.36-.46,.56-.07-.39-.16-.72-.24-1v-.02c-.01-.4-.03-1.08-.25-1.89l-.22-.63c-.17-.45-.42-1.14-.99-1.94l-.07-.1c-.39-.5-1.2-1.54-2.46-2.14-1.23-.65-2.53-.78-3.39-.78h-.16c-.5,0-.92,.08-1.26,.15-.41-.11-.96-.23-1.61-.23h-.31c-.67,.06-1.23,.23-1.68,.39-.56,.04-1.06,.12-1.41,.19-1.43,.13-2.74,.74-3.68,1.74-.99,1.05-1.5,2.41-1.42,3.86,.16,2.97,2.8,5.48,5.78,5.48h.53l.65-.18c.08-.02,.19-.05,.28-.06,.27,0,.52-.03,.75-.06,0,.04,.01,.08,.02,.12,0,.04,.01,.07,.02,.11,.02,.47,.08,.87,.14,1.18l.02,.12c0,.13,0,.26,.02,.39-.16,.02-.33,.06-.49,.1l-.32,.07c-.49,.1-1.16,.25-1.88,.55-.72,.3-1.28,.67-1.73,.96l-.26,.17c-.78,.5-1.3,1.07-1.69,1.5-.04,.05-.08,.1-.13,.14l-.15,.13c-.35,.3-.88,.76-1.35,1.44-.65,.86-1,1.73-1.2,2.33-.36,.89-.57,1.73-.63,2.48-.05,.39-.05,.79,.01,1.18-.23,.86-.25,1.67-.05,2.45,.23,1.02,.67,1.78,.94,2.25l.25,.46c.27,.52,.67,1.3,1.34,1.99,.79,.86,1.7,1.27,2.35,1.54,.46,.36,1.21,.92,2.22,1.2,.54,.16,1.1,.23,1.68,.21,.51,.16,.97,.21,1.3,.21,.86,0,1.81-.11,2.57-.3,1.19-.27,2.03-.9,2.56-1.3,.6-.35,1.3-.79,2.05-1.47l.31-.3c.38-.36,.96-.91,1.44-1.66,.39-.61,.62-1.21,.78-1.68,.41,1.5,1.46,2.75,2.96,3.41,.9,.59,1.81,.68,2.3,.68,2.55,0,5.4-1.78,5.74-4.72,.14-.97-.02-1.8-.1-2.28v-.05c0-.4-.03-.75-.06-1.05,.22,.03,.38,.05,.47,.06,.04,0,.08,0,.11,.01l.5,.06c1.49,.08,2.89-.41,3.91-1.38,1.01-.96,1.57-2.31,1.59-3.74,.15-3.39-2.01-5.29-4.26-5.7Z"/><path class="cls-1" d="M73.62,34.07c-.07-1.37-.68-2.63-1.7-3.55-.89-.8-2.05-1.3-3.31-1.43-.81-.39-1.68-.56-2.57-.5-.69,.04-1.21,.16-1.62,.28-.58,.04-.95,.11-1.28,.18l-1.5,.09c.03-.23,.06-.49,.07-.77v-.09c0-2.97-2.4-5.24-5.53-5.27-1.55-.06-3.01,.44-4.07,1.39-1.02,.92-1.62,2.2-1.7,3.63,0,.17-.02,.23-.03,.32-.06,.31-.11,.66-.15,1.23-.06,0-.11,0-.17,0-.49-.11-1.05-.2-1.81-.15-1.44,.08-2.79,.76-3.82,1.91-1.06,1.18-1.62,2.71-1.53,4.18,.12,2.18,1.54,3.98,3.66,4.69,.84,.47,1.65,.55,2.15,.55h.17c.48-.03,.76-.07,1-.11,.03,0,.06,0,.11,0-.13,.43-.21,.89-.24,1.38v.15c0,1.21,.49,3.07,1.84,4.3,.44,.41,.9,.7,1.36,.9-1.89,.76-3.45,2.46-3.78,4.44-.23,1.37,.11,2.76,.94,3.92,.92,1.27,2.39,2.18,3.88,2.42,.07,.01,.13,.03,.23,.06,.35,.09,.84,.22,1.47,.27,.5,.04,.93,.03,1.33,.02h.26c.46,.01,.87-.02,1.16-.05,.47,.16,1.16,.36,2,.36,.12,0,.24,0,.36-.01,.79-.05,1.45-.22,2.04-.38,.08-.02,.16-.04,.2-.05,.9-.18,1.7-.41,2.53-.73,.12-.05,.25-.1,.42-.16,.44-.16,1.04-.39,1.67-.75,.99-.58,1.62-1.33,2.04-1.83l.07-.09c.44-.45,1.03-1.14,1.5-1.97,.59-.99,.74-1.94,.85-2.59l.04-.13c.17-.47,.48-1.35,.48-2.41,0-.89-.15-1.66-.31-2.31-.11-.68-.26-1.48-.66-2.44-.4-.88-.95-1.5-1.31-1.91h0c-.17-.34-.46-.89-.97-1.46,1.11-.3,2.13-.92,2.89-1.77,.94-1.05,1.42-2.39,1.35-3.75Zm-15.17,21.83h0Zm-6.79-17.59v-.06h0v.06h0Z"/><path class="cls-1" d="M153.7,45.38l-.28-.13c-2.64-1.09-5.48-.21-6.9,2.09-.16,.15-.32,.31-.51,.52-.06,.05-.15,.11-.28,.19-.11,.07-.22,.15-.32,.23-.22,0-.4,0-.55,.02-.12-.13-.26-.27-.42-.4-.22-.2-.46-.39-.69-.55l-.07-.05c-.31-.34-.61-.61-.89-.85,.18-.22,.28-.33,.66-.74q.43-.5,.95-1.06l.19-.23c.11-.14,.41-.5,.73-.84,.14-.15,.21-.22,.28-.28,.18-.17,.34-.33,.66-.68l.03-.02c.3-.22,.8-.58,1.33-1.16l.12-.14c.42-.52,.67-1.03,.84-1.36v-.02c.35-.41,.56-.73,.72-1l.14-.17c1.34-1.68,1.59-3.81,.7-5.65-.56-1.27-1.51-2.17-2.7-2.63,.4-.84,.62-1.76,.62-2.68,0-2.93-2.11-5.25-4.87-5.45-.43-.15-1.16-.38-2.06-.38s-1.6,.22-2.07,.39c-.16,0-.33,0-.49,.01h-.11c-.07,0-.14,.02-.23,0-.3-.02-.6-.03-.94-.05-.21,0-.42-.01-.65-.03-.14-.01-.31-.05-.49-.09-.25-.05-.48-.1-.7-.14-1.58-.26-3.2,.1-4.44,.99-1.14,.82-1.89,2.03-2.12,3.46l-.02,.15c-.14,1.3,.2,2.46,.82,3.43-1.12,.25-2.16,.85-2.98,1.77-1.03,1.15-1.59,2.64-1.54,4.06,.02,1.45,.63,2.81,1.7,3.83,1.14,1.08,2.69,1.64,4.23,1.54l1.71-.18-.03,.03s-.1,.09-.21,.2c-.27,.25-.54,.5-.78,.77-.15,.17-.31,.33-.47,.5l-.12,.13c-.16,.17-.32,.34-.48,.52-.36,.4-.62,.79-.81,1.13-.42,.24-.93,.59-1.4,1.12-.5,.56-.82,1.12-1.02,1.51l-.03,.03c-.26,.23-.62,.55-.98,.97l-.1,.11c-.28,.31-.54,.59-.83,.89l-.18,.19c-.34,.41-.43,.51-.58,.67l-.43,.49c-2.01,2.35-1.76,6.13,.54,8.1,1.01,.87,2.47,1.41,3.8,1.41,1.53,0,2.83-.69,3.88-2.06,.48-.28,1.01-.66,1.57-1.3,.38-.43,.55-.65,.74-.89,.1-.13,.2-.25,.41-.49,.11-.12,.19-.21,.26-.29l.06,.08c.23,.31,.58,.77,1.02,1.18,.83,.8,1.75,1.15,2.3,1.35,.63,.4,1.22,.61,1.65,.77,.04,.01,.09,.03,.13,.05l.09,.05c.42,.24,1.12,.65,2.03,.85,.59,.15,1.13,.18,1.61,.18,.39,.11,.82,.17,1.28,.17h.2c.83-.06,1.65-.21,2.58-.48,.99-.28,1.73-.75,2.24-1.06l.15-.09c.06-.03,.12-.06,.22-.1,.47-.21,1.18-.53,1.93-1.14,.83-.69,1.3-1.46,1.57-1.9l.03-.04c.42-.37,1.21-1.05,1.73-2.17,1.26-2.69,.11-5.77-2.68-7.16Z"/><path class="cls-1" d="M192.01,47.55c-1.07-.86-2.43-1.27-3.84-1.18-.08,0-.16,.02-.24,.03,.26-.78,.33-1.6,.2-2.37-.05-.36-.14-.69-.23-.99,.13-.05,.26-.1,.37-.14,.5,.07,1.15,.1,1.87-.05,1.34-.25,2.5-1.02,3.26-2.15,.87-1.29,1.16-2.96,.8-4.59-.23-1.06-.73-2.07-1.4-2.85-.63-.74-1.41-1.27-2.27-1.56,.58-1.05,.77-2.26,.53-3.41-.53-2.9-3.34-4.78-6.44-4.27-.37-.96-1.02-1.77-1.89-2.36-1.23-.83-2.82-1.11-4.32-.8-1.1,.2-2.15,.69-2.97,1.39-.94,.81-1.55,1.87-1.77,3.02-.08,0-.16,0-.25,.02h-.1c-.31,.05-.59,.1-.97,.16-.15,.03-.3,.05-.52,.07-3.07,.34-5.38,3.23-5.06,6.33,.13,1.14,.63,2.15,1.39,2.93-.86,.33-1.63,.89-2.22,1.63-.93,1.16-1.36,2.72-1.19,4.27,.24,2.01,1.46,3.65,3.24,4.36,.58,.36,1.25,.56,1.95,.6-.1,.08-.22,.15-.31,.23-1.27,1.11-1.93,2.74-1.76,4.35,.1,1.21,.58,2.1,.94,2.68,.1,.46,.3,1.32,.86,2.21,.53,.82,1.15,1.45,1.51,1.81,.75,.8,1.58,1.21,2.17,1.48l.11,.09c.36,.31,.96,.83,1.86,1.25l.13,.06c.07,.03,.14,.07,.26,.14,.46,.25,1.16,.62,2.14,.83,.9,.18,1.84,.28,2.65,.28,.43,0,.85-.07,1.26-.19,.39,.03,.77,.01,1.12-.04,.62-.08,1.16-.21,1.57-.31,.14-.03,.28-.07,.42-.1,.78-.17,1.41-.42,1.92-.62l.54-.22c.68-.31,1.24-.64,1.84-.99l.48-.3c.38-.21,1.01-.56,1.62-1.11,.62-.56,1.01-1.13,1.33-1.62,.04-.06,.08-.12,.18-.25,.97-1.23,1.41-2.8,1.2-4.32-.19-1.37-.88-2.59-1.96-3.43Zm-15.82-2.63c.15,.02,.31,.05,.49,.07,.01,.11,.03,.23,.04,.35-.24-.15-.5-.29-.77-.41,.08,0,.16,0,.24-.02Z"/><path class="cls-1" d="M115.85,43.82c.14-.68,.34-1.83-.06-3.13-.32-1.03-.85-1.77-1.21-2.26-.04-.06-.09-.13-.13-.19-.39-.81-.93-1.39-1.38-1.8-.12-.74-.4-1.72-1.16-2.64-.67-.81-1.42-1.29-1.92-1.62l-.08-.05s-.08-.05-.12-.08c-.67-.61-1.34-1.11-1.97-1.56-.81-.57-1.6-.86-2.19-1.06-.07-.03-.15-.05-.16-.06-.62-.33-1.2-.55-1.72-.74-.52-.56-1.46-1.43-2.9-1.76-1.23-.28-2.31-.04-3.09,.25-.6-.2-1.38-.37-2.32-.29-.9,.08-1.62,.31-2.3,.53-.06,.02-.12,.04-.19,.06h-.17c-.59,.03-1.58,.07-2.64,.53-.12,.05-.24,.09-.42,.16-.55,.2-1.3,.47-2.07,.95-1.22,.76-1.8,1.82-2.14,2.52-.43,.33-1.01,.79-1.55,1.44-.57,.67-.95,1.33-1.25,1.85l-.42,.7c-.33,.52-.73,1.18-1.06,2.01-.05,.12-.11,.24-.18,.42-.25,.54-.55,1.21-.75,2.07-.2,.88-.33,1.76-.37,2.64,0,.05-.02,.12-.05,.24-.12,.6-.3,1.51-.15,2.61,.16,1.16,.68,2.01,1.1,2.59,.02,.71,.14,1.69,.71,2.7,.57,1.01,1.36,1.62,1.97,2.01,.28,.65,.74,1.52,1.63,2.24l.23,.19c.55,.45,1.22,1,2.07,1.46,.96,.52,1.88,.67,2.55,.77,.07,.01,.14,.02,.19,.03,.68,.21,1.39,.26,2.1,.15,.6,.29,1.35,.53,2.26,.53,.09,0,.19,0,.29,0,1.22-.07,2.18-.55,2.75-.84l.05-.03c.92-.26,1.66-.54,2.38-.9,.06-.03,.13-.05,.25-.1,.51-.2,1.36-.53,2.18-1.19,1.01-.82,1.54-1.82,1.83-2.36l.08-.15c.11-.14,.22-.29,.32-.43l2.21,1.1c.21,.1,.36,.2,.51,.3,1,.64,2.07,1.21,4.18,1.21l3.31-.04,.74-3.22c.19-.82,.22-1.71,.25-2.48,0-.2,.01-.38,.03-.53,.01-.14,.04-.27,.07-.47,.09-.53,.22-1.26,.19-2.11-.03-.85-.2-1.57-.32-2.1v-.04Zm-2.07,.42h0l.98-.24h0l-.98,.24Z"/></g><g><path class="cls-3" d="M32.52,39.29c-.33-.1-1.02-.27-1.91-.34h-.13c-.58,0-1.04,.21-1.42,.38-.06,.02-.12,.06-.19,.08,.02-.31,.04-.61,.04-.92,0-.45-.09-.86-.15-1.19-.04-.19-.08-.4-.08-.51,0-.6,0-1.21-.04-1.78-.02-.72-.3-1.38-.79-1.85-.56-.53-1.34-.78-2.24-.75-.93,.01-1.79,.36-2.35,.95-.49,.52-.74,1.2-.71,1.93l.11,2.03,.29-.07c0,.05-.02,.11-.02,.17-.04,.32-.1,.67-.1,1.07v.62c-.17,0-.33,0-.47,0h-.1c-.2,0-.4,0-.6,0-.33,0-.66,.02-.98,0h-.04c-.08-.03-.16-.07-.25-.1-.38-.16-.89-.38-1.53-.38h-.39c0-.05-.01-.1-.02-.16-.02-.19-.05-.39-.05-.58,0-.38-.04-.72-.07-1.02-.02-.16-.04-.31-.04-.46,.02-.08,.06-.15,.09-.22,.14-.34,.34-.85,.31-1.47,0-.36-.04-.68-.07-.97-.02-.18-.04-.35-.04-.52v-.11c-.04-.5-.16-.93-.24-1.24-.03-.11-.07-.21-.08-.31-.01-.11-.01-.22-.02-.33,0-.35-.02-.78-.15-1.26l-.16-.43c-.14-.37-.31-.84-.64-1.32l-.05-.07c-.29-.38-.83-1.07-1.64-1.46-.78-.41-1.63-.5-2.22-.5h-.16c-.31,0-.59,.06-.86,.13-.18,.04-.36,.08-.54,.1-.06-.02-.12-.04-.19-.06-.32-.1-.76-.25-1.27-.25h-.13c-.47,.04-.87,.18-1.16,.28-.07,.03-.14,.05-.21,.07h0c-.7,.03-1.27,.14-1.57,.2-.86,.05-1.65,.4-2.19,.97-.51,.54-.77,1.24-.73,1.98,.09,1.62,1.63,3.09,3.22,3.09h.27l.25-.08s.42-.13,.91-.16c.36,0,.69-.07,.97-.13,.13-.03,.34-.07,.41-.07h.14c.41-.04,.87-.04,1.29-.04h.1c.15-.01,.29-.02,.42-.04-.07,.32-.17,.78-.15,1.31,0,.36,.07,.69,.12,.98,.03,.16,.06,.33,.08,.5,0,.34,.06,.64,.1,.9,.03,.19,.06,.36,.06,.49,0,.43,.09,.8,.16,1.11,.03,.13,.08,.33,.08,.39,0,.11-.04,.22-.07,.34-.06,.27-.14,.6-.16,.98-.25,.01-.5,.03-.75,.06h-.09c-.15,.04-.3,.03-.45,.04-.33,0-.75,.01-1.17,.12l-.33,.07c-.44,.09-.93,.2-1.44,.41-.51,.21-.95,.5-1.33,.75l-.27,.18c-.5,.32-.85,.71-1.14,1.02-.09,.09-.17,.19-.26,.27s-.19,.17-.28,.25c-.29,.25-.66,.57-.96,1.02-.45,.59-.71,1.23-.88,1.74-.28,.68-.44,1.3-.49,1.9-.05,.38,.03,.71,.13,.97-.16,.41-.4,1.05-.22,1.77,.15,.65,.45,1.19,.7,1.61l.28,.51c.22,.43,.5,.97,.95,1.43,.47,.51,1.08,.76,1.52,.95,.09,.04,.18,.08,.27,.12,.07,.05,.14,.11,.21,.16,.35,.27,.82,.64,1.45,.81,.5,.15,.95,.11,1.33,.04,.37,.24,.75,.27,.91,.27,.66,0,1.4-.09,2-.24,.67-.15,1.17-.52,1.53-.8,.1-.07,.19-.15,.33-.22,.51-.3,1.06-.64,1.58-1.11l.06-.06c.08-.08,.16-.16,.24-.23,.33-.31,.74-.7,1.05-1.2,.29-.45,.45-.93,.58-1.31,.05-.14,.09-.28,.15-.41l.06-.16c.18-.58,.18-1.1,.18-1.52,0-.11,0-.22,0-.33,.02-.16,.05-.32,.08-.48,.06-.37,.13-.75,.16-1.16,.02-.28,.03-.57,.04-.86,0-.22,.02-.44,.03-.71,.12-.05,.23-.09,.34-.13,.09-.04,.18-.08,.27-.11,.14,0,.33,.05,.54,.09,.28,.06,.59,.12,.94,.14h.12c.48,0,.97,.04,1.48,.07h.22c.16,.01,.33,0,.5-.01v.05c0,.14-.04,.36-.09,.6-.06,.28-.12,.6-.14,.95-.02,.32-.02,.63-.02,.95,0,.24,0,.48-.02,.71v.09c-.04,.5-.08,1.01-.15,1.5-.15,1.34,.59,2.46,1.82,2.91,.42,.35,.89,.39,1.08,.39,1.45,0,3.06-.97,3.25-2.55,.08-.56-.01-1.06-.09-1.47-.02-.13-.06-.33-.06-.39,.03-.45-.02-.84-.07-1.19-.03-.19-.05-.37-.05-.49,.03-.09,.08-.17,.13-.26,.18-.36,.43-.85,.47-1.47,0-.03,0-.07,0-.1,.46-.01,.87-.09,1.2-.16,.14-.03,.31-.06,.41-.07,.86,.07,1.39,.17,1.39,.17l.22,.03c1.03,.06,1.67-.34,2.03-.68,.36-.34,.79-.97,.8-2.02,.08-1.95-1.05-2.95-2.29-3.12Zm-23.74,7.5c.2-.13,.45-.29,.68-.5,.28-.24,.47-.52,.63-.74,.01-.02,.03-.04,.04-.06h.03c.31,0,.68,0,1.13-.11,.25-.07,.53-.12,.85-.16v.13c-.01,.22-.02,.43-.04,.65-.03,.41,.02,.76,.06,1.05,.02,.11,.04,.21,.03,.34-.03,.22-.04,.46-.05,.7,0,.16-.02,.39-.02,.49-.11,.07-.29,.16-.43,.23-.2,.1-.39,.2-.56,.3-.34,.18-.61,.26-.91,.26-.06,0-.19,0-.35,.04h0c-.19-.13-.37-.25-.6-.38-.27-.14-.31-.22-.33-.26-.11-.24-.15-.66-.17-.96-.01-.28-.08-.51-.17-.71,.02-.09,.04-.16,.05-.21,.04-.03,.09-.06,.13-.09Zm16.05,6.08h.07s-.05,0-.07,0Z"/><path class="cls-3" d="M67.93,31.58h-.04c-.3-.19-.85-.52-1.72-.47-.55,.03-.89,.13-1.19,.23q-.12,.04-.23,.04h-.09c-.47,.03-.74,.08-1.01,.13-.16,.03-.25,.05-.49,.07l-1.54,.08c-.29,.02-.43,0-.58,0-.23-.01-.46-.03-.93,0l-1.2,.06c.02-.51-.03-.83-.09-1.14-.03-.17-.05-.25-.03-.57,0-.08,0-.11,0-.11,.01-.04,.03-.08,.05-.11,.12-.27,.31-.71,.34-1.52,0-1.58-1.3-2.73-3.1-2.75-.9-.04-1.71,.22-2.29,.74-.52,.47-.82,1.12-.86,1.86-.01,.34-.04,.48-.07,.66-.04,.24-.1,.55-.13,1.19,0,.66,.11,1.07,.18,1.34,.05,.19,.06,.23,.05,.52,0,.08,0,.15,0,.22-.49,0-.77,.05-1.05,.1-.12,.02-.25,.05-.49,.06-.16,0-.19,0-.32-.03-.3-.06-.64-.12-1.19-.09-.13,0-.14,0-.28-.03-.32-.08-.69-.16-1.27-.13-.76,.04-1.5,.42-2.08,1.07-.61,.69-.94,1.55-.89,2.37,.07,1.25,.93,2.19,2.19,2.51,.34,.26,.75,.35,1.03,.35h.09c.38-.02,.6-.05,.79-.08,.14-.02,.26-.04,.54-.04h.09c.56-.03,.89-.13,1.18-.22,.12-.04,.14-.05,.3-.06,.22-.01,.29,0,.44,.01,.14,.01,.31,.03,.55,.04,0,.42,.04,.69,.09,.95,.02,.13,.04,.2,.04,.37-.02,.53,.04,.85,.1,1.14,.01,.07,.02,.1,.03,.14-.2,.26-.55,.77-.6,1.59v.09c0,.76,.36,1.83,1.05,2.46,.82,.77,1.93,.66,2.5,.6,.18-.01,.36-.02,.53-.02,.33,0,.67,0,1-.02,.06,0,.24,.04,.36,.06,.28,.06,.63,.14,1.02,.14,.5,0,.92-.13,1.23-.22,.06-.02,.13-.04,.19-.06,.25,.02,.51,.08,.78,.13l.45,.09c.43,.06,.82,.03,1.11,0,.16,.23,.37,.54,.75,.82,.13,.09,.27,.18,.4,.26,.05,.03,.11,.07,.16,.1l-.02,.16c-.03,.28-.08,.63-.08,1.03v.23c0,.2,0,.48-.01,.54-.12,.2-.27,.38-.64,.62l-.08,.06c-.15,.11-.31,.24-.47,.38-.21,.18-.42,.36-.55,.4-.29,.08-.68,.12-1.1,.17l-.41,.05c-.2,0-.45-.01-.73-.03-.59-.05-1.23-.06-1.93,.02-.26,.03-.52,.05-.7,.05-.08-.03-.21-.11-.3-.16-.34-.19-.76-.42-1.29-.53l-.14-.02c-1.61-.19-3.45,1.18-3.7,2.74-.12,.7,.06,1.42,.5,2.03,.53,.74,1.4,1.27,2.28,1.41,.14,.02,.27,.06,.41,.1,.31,.08,.65,.17,1.06,.2,.41,.03,.78,.02,1.1,.01,.11,0,.22,0,.33,0,.4,.03,.76-.01,1.04-.05,.12-.01,.24-.03,.32-.03,.06,0,.25,.07,.37,.11,.36,.12,.83,.29,1.38,.29,.06,0,.12,0,.19,0,.56-.04,1.05-.16,1.47-.28,.16-.04,.31-.08,.44-.11,.74-.15,1.41-.33,2.03-.58,.17-.07,.35-.14,.53-.2,.4-.15,.85-.31,1.28-.56,.61-.36,1.01-.83,1.33-1.22,.06-.08,.13-.15,.19-.23,.35-.35,.82-.89,1.18-1.53,.36-.58,.45-1.18,.52-1.63,.02-.12,.04-.23,.05-.31,.03-.11,.07-.23,.11-.35,.14-.4,.33-.94,.33-1.57,0-.66-.13-1.27-.27-1.83-.08-.53-.19-1.18-.48-1.87-.24-.53-.6-.94-.88-1.26-.08-.09-.17-.19-.24-.27-.05-.07-.09-.16-.13-.25-.19-.38-.48-.95-1.1-1.4-.55-.39-1.16-.47-1.55-.53-.1-.01-.2-.03-.22-.02-.46-.21-.91-.27-1.23-.32-.14-.02-.29-.04-.36-.06l-.16-.05s-.1-.06-.15-.09c-.3-.19-.75-.47-1.36-.56h-.11c-.13-.02-.27-.06-.41-.09-.32-.07-.72-.16-1.17-.17-.53-.04-.98,.1-1.31,.2-.03,0-.05,.02-.08,.03,0-.71-.25-1.2-.44-1.51v-.1s.09,0,.14,0h.09c.41-.02,.62-.05,.83-.07,.17-.02,.34-.03,.69-.05h.02c.26,.13,.74,.34,1.5,.32,.54,0,.88-.08,1.17-.15,.14-.04,.17-.04,.42-.05,.15,0,.16,0,.29,.03,.32,.08,.67,.16,1.25,.13,.57-.03,.9-.11,1.21-.2,.14-.04,.21-.06,.39-.08,.45-.02,.69-.06,.92-.1,.15-.02,.29-.05,.58-.06,.92-.05,1.83-.48,2.43-1.14,.49-.55,.75-1.24,.71-1.93-.04-.69-.34-1.33-.87-1.8-.58-.52-1.43-.82-2.31-.82Z"/><path class="cls-3" d="M134.13,30.25l.49,.08c.32,.18,.72,.36,1.21,.41,.54,.08,1.12,.12,1.64,.16h.22c.42,.01,.79-.06,1.09-.12,.15-.03,.37-.07,.45-.07h.12c.48,0,.9-.1,1.24-.18,.11-.03,.25-.06,.35-.08,.07,.03,.14,.07,.21,.11,.37,.19,.88,.44,1.52,.44,1.8,0,2.87-1.64,2.87-3.23,0-1.71-1.2-2.94-2.8-2.94h0c-.09-.02-.19-.06-.28-.09-.33-.11-.78-.27-1.32-.27-.58,0-1.05,.17-1.4,.3-.09,.03-.18,.07-.22,.09-.28-.01-.57,0-.86,0-.2,0-.4,.02-.61,0-.29-.02-.57-.03-.85-.04-.25,0-.49-.02-.74-.04-.25-.02-.53-.08-.84-.14-.21-.04-.4-.09-.59-.12-.91-.15-1.86,.05-2.55,.55-.59,.42-.98,1.05-1.09,1.76v.08c-.2,1.7,1.26,3.1,2.73,3.35Z"/><path class="cls-3" d="M152.58,47.63l-.11-.05c-1.54-.64-3.21-.09-3.92,1.31-.06,.07-.14,.14-.22,.21-.15,.14-.3,.29-.46,.47-.15,.17-.38,.35-.74,.58-.18,.12-.36,.27-.54,.43-.07,.06-.18,.16-.24,.19-.13,.05-.27,.1-.4,.15-.24-.08-.45-.1-.58-.1-.21,0-.41,.02-.62,.03-.13,.01-.3,.03-.36,.02-.35-.09-.7-.18-.86-.26-.08-.07-.14-.15-.21-.24-.14-.17-.32-.38-.55-.59-.17-.15-.35-.29-.53-.42-.12-.09-.29-.22-.33-.27l-.08-.1c-.38-.42-.79-.74-1.15-1.01-.11-.09-.23-.18-.39-.31-.37-.28-.74-.48-1.08-.65,.08-.13,.14-.25,.2-.37,.06-.12,.08-.16,.2-.3,.23-.27,.36-.44,.47-.58,.11-.14,.2-.26,.43-.51l.08-.1q.44-.55,.95-1.1t.95-1.06l.08-.09s.44-.55,.91-1.05c.19-.21,.29-.3,.38-.39,.17-.16,.31-.3,.67-.71,.04-.04,.19-.15,.29-.22,.26-.19,.59-.42,.89-.76l.06-.07c.26-.32,.43-.66,.57-.93,.06-.12,.14-.27,.17-.32,.38-.43,.54-.69,.68-.93,.06-.1,.07-.13,.2-.26l.08-.1c.73-.92,.86-2.03,.37-3.06-.27-.61-.91-1.56-2.56-1.5-.3-.18-.85-.51-1.7-.47-.86,0-1.38,.31-1.66,.48h-.02l-.08-.02c-.36-.14-.79-.29-1.42-.26-.58,0-.91,.06-1.24,.13-.15,.03-.25,.05-.39,.06-.35,0-.53,0-.71-.02-.22-.01-.45-.03-1-.02-.79,.04-.86,0-1.5,.04-.47,0-.73,.03-1,.08-.16,.02-.28,.04-.62,.04h-.13c-.37,.03-.7,.11-.99,.18-.15,.04-.39,.09-.47,.09h-.02c-.28-.18-.78-.48-1.61-.48h-.09c-.77,.04-1.51,.42-2.08,1.05-.59,.66-.93,1.53-.9,2.33,.01,.77,.34,1.49,.92,2.04,.63,.59,1.47,.91,2.32,.86l1.59-.17v-.03h.02q.79-.04,1.62-.04c.49-.02,.78-.07,.99-.11,.18-.03,.27-.05,.55-.05h.03c.41,.21,.9,.39,1.63,.36h.6c-.08,.08-.16,.16-.24,.26-.44,.48-.61,.89-.72,1.31-.02,.02-.04,.04-.06,.07l-.1,.12c-.07,.08-.22,.23-.38,.37-.21,.19-.43,.4-.67,.66-.13,.14-.26,.3-.39,.46-.17,.21-.36,.44-.57,.65l-.12,.14c-.1,.12-.26,.27-.43,.43-.21,.19-.42,.39-.62,.61-.17,.19-.34,.36-.51,.54-.19,.2-.38,.4-.56,.61-.33,.37-.54,.76-.7,1.07-.04,.08-.09,.18-.13,.25-.06,.03-.13,.06-.19,.1-.34,.17-.8,.4-1.19,.83-.34,.37-.54,.76-.7,1.08-.05,.11-.13,.24-.17,.31-.12,.13-.25,.24-.38,.35-.24,.21-.5,.44-.75,.74l-.07,.08c-.34,.37-.64,.71-.91,.98l-.1,.11c-.38,.45-.48,.56-.62,.72l-.41,.46c-1.1,1.28-.97,3.49,.26,4.55,.57,.49,1.42,.8,2.16,.8,1.18,0,1.81-.95,2.08-1.35,.02-.03,.04-.07,.07-.1,.04-.04,.07-.06,.17-.11,.37-.18,.77-.41,1.24-.95,.33-.37,.48-.57,.64-.77,.12-.16,.25-.32,.51-.62,.26-.3,.4-.44,.54-.57,.07-.07,.15-.15,.23-.23,.23-.09,.4-.22,.51-.31l.17-.15c.22-.19,.51-.45,.6-.5,.34,.01,.67,.08,.93,.21,.2,.14,.47,.5,.71,.81l.26,.31c.11,.11,.2,.24,.3,.37,.2,.26,.44,.59,.77,.89,.47,.45,1.01,.65,1.42,.8,.1,.04,.22,.08,.3,.12,.46,.33,.93,.5,1.31,.64,.11,.04,.22,.08,.33,.12,.11,.05,.22,.11,.33,.18,.33,.19,.79,.46,1.34,.57,.53,.13,1.02,.12,1.45,.11,.21,.1,.47,.18,.78,.18h.11c.65-.05,1.3-.17,2.05-.38,.65-.19,1.17-.51,1.59-.77,.1-.06,.2-.13,.25-.16,.14-.08,.29-.14,.44-.21,.39-.17,.88-.39,1.34-.77,.51-.42,.81-.91,1.03-1.26,.07-.12,.14-.24,.22-.34,.07-.08,.19-.19,.32-.3,.34-.29,.8-.69,1.1-1.33,.68-1.44,.04-3.06-1.52-3.84Z"/><path class="cls-3" d="M190.44,49.52c-.57-.47-1.3-.69-2.08-.64-.84,.06-1.64,.46-2.2,1.13-.17,.2-.31,.42-.45,.63-.1,.14-.23,.34-.28,.39l-.07,.06c-.27,.24-.65,.46-.93,.61-.06,.02-.26,.05-.4,.07-.25,.04-.56,.08-.85,.16-.23,.06-.46,.14-.7,.22-.23,.08-.42,.15-.59,.18-.38,.03-.85,.07-1.32,.07-.09-.03-.27-.12-.4-.19-.24-.12-.55-.27-.89-.39l-.13-.04c-.4-.11-.86-.25-1.18-.47l-.09-.06c-.14-.09-.29-.16-.43-.24-.11-.06-.26-.14-.27-.14l-.08-.08c-.11-.12-.24-.23-.37-.34-.04-.03-.09-.08-.13-.12,.02-.26,.05-.61,0-1-.2-1.55-1.63-2.54-3.43-2.35-.71,.08-1.37,.36-1.85,.78-.67,.59-1,1.42-.91,2.24,.05,.75,.4,1.3,.63,1.67,.05,.08,.1,.15,.16,.28,.05,.13,.07,.27,.1,.4,.08,.38,.2,.9,.52,1.41,.37,.58,.85,1.06,1.23,1.45,.45,.48,.97,.72,1.35,.89,.1,.05,.21,.09,.33,.17,.11,.07,.25,.19,.41,.33,.31,.27,.69,.6,1.19,.83l.08,.04c.18,.07,.35,.17,.52,.26,.4,.21,.85,.46,1.44,.58,.73,.15,1.51,.23,2.15,.23,.2,0,.55-.04,.89-.26,.34,.06,.74,.11,1.15,.05,.49-.06,.92-.17,1.3-.26,.16-.04,.33-.08,.5-.12,.57-.12,1.06-.32,1.5-.5l.43-.17c.57-.26,1.08-.56,1.6-.86l.15-.1c.12-.09,.27-.16,.41-.24,.34-.19,.76-.42,1.15-.78,.39-.35,.64-.73,.87-1.07,.1-.15,.2-.31,.33-.45l.03-.03c.55-.7,.8-1.58,.68-2.42-.1-.73-.47-1.36-1.03-1.8Z"/><path class="cls-3" d="M171.79,42.86c.07,0,.26,.02,.39,.03,.29,.04,.66,.08,1.06,.05,.56-.04,1-.24,1.32-.38,.08-.04,.16-.08,.24-.1,.13,0,.25,0,.38,0,.31,0,.65-.01,1.01-.06,.08,0,.24,.03,.36,.05,.31,.05,.69,.11,1.13,.07l1.36-.21s0,.09,0,.14c-.02,.33-.05,.75,.01,1.2,.04,.26,.06,.52,.09,.78,.03,.3,.06,.59,.12,.96,.22,1.16,1.22,1.99,2.58,2.2,.29,.16,.58,.21,.81,.21h.13l.13-.02c.89-.14,1.69-.63,2.2-1.33,.44-.62,.62-1.35,.51-2.03-.07-.51-.26-.92-.4-1.26-.05-.12-.14-.31-.15-.36,0-.06,.02-.25,.04-.39,.05-.32,.1-.72,.06-1.16,.31-.07,.59-.17,.83-.25,.18-.06,.37-.13,.48-.14l.12-.02c.41-.09,.77-.25,1.05-.38,.11-.05,.23-.1,.33-.14,.06,0,.13,.03,.19,.04,.38,.08,.91,.18,1.51,.05,.67-.13,1.25-.51,1.64-1.09,.48-.71,.63-1.69,.42-2.63-.15-.66-.45-1.28-.85-1.75-.68-.79-1.6-1.12-2.58-.9-.4,.1-.74,.27-1.01,.41-.11,.06-.27,.14-.3,.15l-.16,.03c-.39,.1-.85,.17-1.35,.25l-.11,.02c-.06,0-.23,0-.36,0-.24,0-.53-.02-.84,.02-.15-.43-.38-.75-.55-.99,0-.01-.02-.02-.02-.03,0-.03,.01-.06,.02-.09,.07-.34,.16-.81,.07-1.35h0c.29,0,.63,.02,1.02-.05,.36-.07,.67-.18,.93-.27,.14-.05,.3-.11,.35-.12,.97-.16,1.76-.63,2.23-1.32,.38-.57,.51-1.25,.38-1.93-.28-1.54-1.81-2.53-3.54-2.24-.17,.03-.35,.04-.54,.06-.27,.02-.55,.05-.85,.1-.25,.05-.49,.11-.74,.18-.14,.04-.28,.08-.42,.11v-.02c0-.08,0-.21,0-.31,0-.31,.02-.74-.09-1.2-.13-.69-.51-1.28-1.09-1.66-.67-.45-1.56-.6-2.47-.41-.66,.12-1.29,.41-1.78,.82-.75,.64-1.1,1.54-.94,2.47,.05,.28,.13,.52,.21,.74-.35,.1-.64,.23-.88,.34-.09,.04-.17,.09-.24,.11-.13,0-.31-.01-.49-.02-.3-.02-.65-.05-1.1,0-.27,.04-.53,.08-.78,.12-.26,.04-.5,.09-.77,.11-1.66,.18-3.01,1.86-2.83,3.53,.17,1.43,1.47,2.44,3.17,2.44,.1,0,.2,0,.31-.03,.41,.16,1.01,.39,1.77,.29,.23-.04,.47-.08,.71-.12,.28-.05,.57-.11,.91-.15,.6-.09,1.05-.38,1.38-.59,.02-.01,.05-.03,.07-.05v.02c.02,.13,.02,.32,.02,.51,0,.3,0,.64,.06,1.02,.06,.36,.17,.68,.26,.96,.01,.04,.03,.08,.04,.12l-1.52,.22c-.46,.06-.86,.19-1.17,.29-.2,.06-.38,.13-.49,.14-.08,.02-.28-.03-.42-.06-.33-.06-.75-.14-1.23-.11h-.1c-.39,.06-.72,.15-1.01,.23-.22,.06-.42,.11-.55,.12h-.1c-.56,.08-1.08,.12-1.67,.16-.72,.08-1.36,.44-1.82,1.01-.51,.65-.75,1.52-.65,2.4,.14,1.21,.85,2.08,1.89,2.39,.38,.3,.79,.36,1.05,.36h.14c.36-.04,.68-.11,.96-.18,.19-.05,.37-.09,.51-.1Z"/><path class="cls-3" d="M113.28,43.87c0-.07,.05-.29,.08-.43,.11-.52,.26-1.24,.03-2-.19-.63-.55-1.12-.84-1.52-.14-.19-.28-.38-.33-.51-.31-.68-.83-1.11-1.21-1.42-.1-.08-.23-.19-.3-.26-.02-.09-.03-.24-.05-.35-.06-.55-.15-1.31-.69-1.97-.42-.51-.92-.83-1.33-1.09-.19-.12-.39-.25-.49-.35-.58-.54-1.2-.99-1.78-1.41-.51-.37-1.05-.56-1.49-.71-.22-.08-.43-.15-.58-.23-.59-.31-1.15-.51-1.7-.71l-.27-.1c-.07-.06-.17-.18-.25-.26-.37-.4-.93-1.01-1.79-1.21-.92-.21-1.7,.16-2.22,.4-.07,.03-.17,.08-.24,.11-.09-.03-.21-.08-.29-.12-.46-.19-1.1-.45-1.87-.39-.62,.05-1.16,.23-1.64,.38-.19,.06-.38,.12-.58,.17-.11,.03-.34,.04-.54,.05-.5,.02-1.12,.05-1.76,.32-.18,.08-.37,.15-.57,.22-.49,.18-1.05,.38-1.58,.71-.73,.46-1.06,1.16-1.29,1.67-.05,.11-.12,.26-.16,.33-.13,.11-.27,.22-.4,.32-.39,.3-.83,.64-1.23,1.12-.43,.51-.74,1.05-1.01,1.52l-.44,.74c-.29,.47-.61,.99-.86,1.61-.07,.18-.15,.35-.23,.52-.21,.46-.45,.99-.59,1.6-.17,.76-.28,1.51-.31,2.25,0,.14-.05,.34-.09,.56-.1,.49-.22,1.09-.13,1.75,.12,.81,.57,1.38,.91,1.8,.07,.08,.16,.21,.22,.28,0,.09,0,.25,0,.36,0,.53-.02,1.26,.38,1.96,.4,.71,1.04,1.08,1.5,1.34,.1,.05,.23,.13,.31,.18,.04,.08,.09,.23,.13,.33,.19,.5,.44,1.18,1.08,1.69l.22,.18c.49,.4,1.04,.86,1.68,1.2,.58,.32,1.19,.41,1.68,.49,.22,.03,.44,.07,.57,.11,.71,.23,1.34,.03,1.74-.15h0c.42,.29,1.05,.72,1.89,.72,.05,0,.1,0,.14,0,.71-.04,1.29-.33,1.71-.54,.16-.08,.34-.17,.43-.19,.82-.22,1.46-.46,2.05-.76,.15-.08,.31-.14,.48-.2,.45-.17,1-.39,1.52-.81,.61-.49,.94-1.11,1.18-1.57,.09-.18,.19-.36,.26-.45,.55-.68,.96-1.35,1.29-2.08,.08-.17,.18-.33,.28-.49,.3-.48,.67-1.07,.78-1.86l.06-.39c.1-.63,.23-1.42,.11-2.25-.11-.71-.41-1.3-.65-1.77-.07-.15-.15-.29-.21-.43-.34-.78-.97-1.2-1.38-1.47-.09-.06-.24-.16-.27-.19-.41-.52-.84-1.05-1.51-1.55-.58-.43-1.13-.82-1.9-1.13-.07-.03-.21-.12-.34-.2-.41-.26-.97-.63-1.75-.69-.84-.07-1.49,.28-1.92,.5-.05,.03-.1,.06-.15,.08-.05-.02-.11-.04-.17-.06-.55-.17-1.47-.47-2.39,.03-.57,.31-.92,.75-1.16,1.12,.06-.21,.09-.4,.12-.57,.01-.08,.02-.16,.04-.23,.17-.11,.39-.24,.62-.36,.23-.13,.47-.25,.69-.39,.18-.11,.48-.21,.81-.3,.25-.08,.5-.15,.74-.24,.33-.13,.62-.28,.88-.42,.18-.1,.4-.21,.54-.26,.09,.02,.22,.07,.31,.11,.37,.14,.84,.31,1.4,.32,.68,.02,1.28-.25,1.7-.45l.03-.02,.05,.05c.32,.34,.75,.82,1.39,1.07,.58,.23,1.13,.24,1.57,.25,.11,0,.27,0,.36,.01,.15,.09,.31,.18,.48,.27,.38,.21,.74,.41,.98,.61,.38,.32,.92,.79,1.3,1.21,.05,.07,.12,.32,.17,.48,.11,.37,.26,.83,.53,1.27,.29,.47,.55,.98,.8,1.55,.2,.47,.49,.85,.73,1.15,.06,.08,.14,.18,.2,.27-.03,.06-.05,.13-.08,.19-.19,.45-.45,1.07-.38,1.79,.02,.25-.02,.54-.06,.88-.03,.26-.07,.52-.09,.79-.04,.55,.08,1.04,.17,1.42,.03,.14,.08,.35,.09,.35l-.3,1.29,1.19,.59c.31,.15,.53,.3,.75,.44,.77,.49,1.38,.81,2.79,.82l1.32-.02,.29-1.29c.13-.58,.16-1.3,.19-1.94,.01-.28,.02-.55,.04-.76,.02-.22,.06-.43,.1-.64,.08-.48,.17-1.01,.15-1.61-.02-.6-.15-1.14-.26-1.61-.05-.21-.1-.42-.13-.57Zm-20.4-.36l1.12,.71,.95-.93c.08-.08,.31-.13,.67-.21l.51-.11c.24-.06,.59-.15,.68-.14,.42,.17,1.19,.47,1.38,.72,.25,.31,.48,.93,.57,1.49,.04,.26-.11,.83-.22,1.21-.06,.23-.11,.5-.15,.78-.01,.08-.03,.17-.04,.26-.51,.07-1.17,.18-1.74,.64-.36,.29-.62,.62-.82,.89-.06,.08-.13,.17-.19,.24-.12,0-.34-.01-.49-.02-.29-.02-.58-.04-.87-.03-.22,0-.44,.03-.65,.05-.27,.03-.58,.06-.7,.02-.43-.14-.85-.18-1.19-.21-.09,0-.2-.02-.3-.03-.03-.06-.06-.14-.09-.19-.17-.37-.37-.83-.75-1.23-.27-.28-.54-.49-.78-.67-.13-.1-.34-.26-.38-.3-.06-.1-.11-.4-.15-.65-.05-.28-.1-.56-.17-.83-.11-.39-.27-.71-.4-1-.06-.13-.15-.31-.19-.39,.04-.09,.11-.24,.16-.35,.14-.3,.32-.67,.42-1.11,.14-.61,.05-1.17-.02-1.62h0c.25-.11,.54-.24,.82-.43l.75,1.2c.72,1.16,.95,1.43,2.27,2.27Z"/></g></g></g></g></svg>