<?xml version="1.0" encoding="UTF-8"?><svg id="_イヤー_2" xmlns="http://www.w3.org/2000/svg" viewBox="0 0 250.75 95.25"><defs><style>.cls-1,.cls-2{fill:#fff;}.cls-2{opacity:.6;}.cls-3{fill:none;stroke:#002b50;}.cls-3,.cls-4{stroke-miterlimit:10;}.cls-4{stroke:#fff;stroke-width:.75px;}.cls-4,.cls-5{fill:#002b50;}</style></defs><g id="_イヤー_1-2"><g><ellipse class="cls-2" cx="125.72" cy="47.62" rx="115.5" ry="42.5"/><g><path class="cls-4" d="M208.37,17.11c-22.06-8.33-51.41-12.92-82.65-12.92s-60.59,4.59-82.65,12.92C21.61,25.21,9.3,36.34,9.3,47.62s12.31,22.41,33.78,30.52c22.06,8.33,51.41,12.92,82.65,12.92s60.59-4.59,82.65-12.92c21.46-8.11,33.78-19.23,33.78-30.52s-12.31-22.41-33.78-30.52Zm-.71,59.16c-21.84,8.25-50.94,12.79-81.94,12.79s-60.1-4.54-81.94-12.79c-20.64-7.8-32.48-18.24-32.48-28.65s11.84-20.85,32.48-28.65c21.84-8.25,50.94-12.79,81.94-12.79s60.1,4.54,81.94,12.79c20.64,7.79,32.48,18.24,32.48,28.65s-11.84,20.85-32.48,28.65Z"/><path class="cls-4" d="M209.84,13.56C187.32,5.06,157.45,.38,125.72,.38S64.12,5.06,41.6,13.56C18.19,22.4,5.3,34.5,5.3,47.62s12.89,25.22,36.3,34.06c22.52,8.5,52.39,13.19,84.12,13.19s61.6-4.68,84.12-13.19c23.41-8.84,36.3-20.94,36.3-34.06s-12.89-25.22-36.3-34.06Zm-.71,66.26c-22.3,8.42-51.92,13.06-83.41,13.06s-61.12-4.64-83.41-13.06C19.73,71.29,7.3,59.86,7.3,47.62S19.73,23.96,42.3,15.43C64.6,7.01,94.22,2.38,125.72,2.38s61.12,4.64,83.41,13.06c22.58,8.52,35.01,19.96,35.01,32.19s-12.43,23.67-35.01,32.19Z"/></g><g><g><path class="cls-1" d="M105.89,30.11c-1.1,.44-2,.88-2.74,1.36-.35,.23-.69,.36-1.04,.41-.14-.02-.3-.05-.47-.09-.12-.03-.21-.06-.27-.09-.2-.16-.39-.35-.58-.58-.38-.47-.56-.7-.94-1.17-.1-.1-.15-.15-.26-.26-.42-.34-.86-.67-1.32-.99-.5-.35-1.05-.67-1.62-.94l-.2-.1-.22-.05c-.74-.16-1.45-.19-2.09-.1-.51,.07-1,.16-1.53,.31-.83,.26-1.58,.66-2.23,1.18-.51,.4-1.06,.86-1.66,1.36-.36,.3-.54,.46-.91,.76,.76,1.24,1.14,1.86,1.92,3.09,1.53-.33,2.3-.51,3.81-.86-.03-.36-.05-.53-.08-.89,.16-.15,.24-.22,.4-.37,.4-.14,.59-.21,.99-.35l.2,.02c.32,.19,.62,.42,.9,.69,.41,.4,.79,.85,1.12,1.35,.09,.11,.14,.16,.23,.27,.53,.5,1.12,.92,1.75,1.26,.66,.35,1.37,.6,2.1,.74h.09c.13,.03,.25,.05,.37,.06,1.42,.14,2.67-.12,3.73-.76,.81-.48,1.65-1,2.54-1.56,.35-.22,.53-.33,.88-.56-.39-1.57-.58-2.36-.95-3.94-.77,.32-1.16,.47-1.94,.78Z"/><path class="cls-1" d="M127.43,35.37c-.11-.1-.17-.16-.28-.26-.65-.48-1.33-.97-2.02-1.45,.2-.07,.29-.1,.49-.17,.24-.42,.36-.63,.59-1.05,.02-.08,.03-.12,.04-.2,.08-.38,.05-.76-.08-1.12-.1-.26-.24-.51-.43-.74-.09-.12-.14-.17-.23-.29-.17-.08-.26-.12-.43-.2,.12-.22,.18-.32,.3-.54,.02-.08,.03-.12,.04-.2,.08-.38,.06-.76-.07-1.12-.09-.26-.23-.51-.42-.74-.09-.12-.14-.17-.23-.29-.46-.22-.69-.33-1.15-.55-.74,.03-1.12,.04-1.86,.07-.04-.42-.16-.83-.35-1.2-.09-.18-.14-.27-.23-.45-.43-.21-.65-.32-1.07-.53l-.22-.05c-.41-.09-.82-.08-1.22,.02-.29,.08-.57,.2-.82,.36l-.23,.14c-.06,.08-.1,.12-.16,.2-.12,.14-.22,.3-.31,.48-.08,.15-.15,.32-.2,.5l-.07,.22v.38h-.24c-.79,0-1.56,.08-2.28,.26-.26,.06-.4,.1-.66,.16-.27,.43-.4,.64-.66,1.07l-.05,.19c-.11,.38-.1,.76,.02,1.13,.08,.27,.22,.53,.4,.77l.02,.03c-.29,.05-.43,.07-.72,.12-.28,.45-.42,.67-.71,1.12l-.05,.19c-.11,.38-.1,.76,.02,1.13,.09,.27,.22,.53,.41,.77l.15,.17c.26,.26,.58,.45,.95,.59,.17,.06,.33,.11,.48,.15l.16,.04c-.46,.39-.9,.8-1.32,1.22-.1,.11-.16,.16-.26,.26-.04,.14-.06,.21-.1,.34-.11,.38-.1,.76,.03,1.13,.09,.27,.23,.53,.42,.77,.09,.12,.14,.18,.23,.3,.48,.24,.72,.36,1.2,.6,.65-.01,.98-.02,1.63-.04,.28-.23,.42-.34,.7-.57,.06,.4,.21,.79,.44,1.15,.1,.16,.15,.24,.25,.4,.35,.17,.53,.25,.88,.42,.17,.06,.25,.09,.42,.14,.17,.04,.34,.06,.51,.06,.27,0,.53-.02,.79-.08,.3-.08,.59-.2,.85-.36,.13-.08,.2-.12,.33-.2,.23-.4,.35-.59,.58-.99,0-.14,0-.21,0-.35,0-.32,0-.63-.02-.92-.01-.29-.04-.57-.09-.85v-.12s.07,.05,.1,.07c.92,.65,1.87,1.29,2.82,1.89,.25,.16,.38,.24,.64,.4,.44-.09,.65-.13,1.09-.22,.41-.08,.79-.27,1.09-.53,.08-.07,.12-.1,.19-.17,.17-.31,.26-.46,.43-.77l.04-.2c.08-.38,.05-.76-.09-1.12-.1-.26-.25-.51-.44-.74Z"/><path class="cls-1" d="M149.49,28.36c-.35-.28-.74-.52-1.15-.71-.41-.19-.85-.33-1.29-.41l-.31-.03c-.86,0-1.7,.1-2.49,.31-.9,.24-1.72,.69-2.49,1.4-.16,.16-.31,.32-.45,.5-.02-.21-.07-.41-.15-.61-.11-.26-.26-.5-.46-.72-.1-.11-.15-.17-.25-.28-.48-.2-.73-.3-1.21-.5-.19,.03-.29,.04-.48,.07-.56,.08-1.11,.19-1.65,.33-.09,.02-.18,.05-.27,.07,0-.31,0-.47,0-.78,0-.2,0-.4,0-.61,.01-.62-.22-1.19-.67-1.65-.09-.09-.13-.14-.22-.23-.36-.16-.54-.24-.9-.39l-.22-.03c-.42-.07-.82-.04-1.2,.09-.28,.09-.55,.23-.79,.4-.1,.09-.15,.14-.25,.23-.4,.45-.61,1.01-.6,1.61,0,.19,0,.37-.02,.54v.1c-.02,.69,.02,1.39,.13,2.08,.13,.84,.47,1.62,1.02,2.33l.11,.12c.06,.06,.13,.13,.19,.18-.21,.05-.42,.11-.64,.17-.28,.08-.42,.11-.7,.19-.24,.46-.36,.69-.61,1.14l-.04,.19c-.08,.38-.05,.76,.1,1.13,.1,.26,.26,.51,.46,.74,.07,.08,.11,.12,.18,.2,.1,.06,.14,.08,.24,.14,.17,.1,.36,.18,.55,.26l.04,.02s-.06,.03-.1,.05c-.17,.09-.25,.14-.41,.23-.21,.39-.31,.58-.52,.96l-.04,.22c-.07,.44,0,.87,.19,1.24,.11,.21,.26,.42,.43,.61,.1,.11,.15,.17,.25,.28,.42,.18,.63,.27,1.06,.44l.29,.03c.12,.01,.24,.02,.37,.01,.45,0,.88-.11,1.26-.3,.23-.11,.45-.24,.66-.37,.13-.1,.19-.16,.32-.26,.31-.34,.62-.69,.91-1.05,.22,.25,.45,.48,.68,.68,.25,.26,.54,.47,.86,.62,.33,.16,.7,.26,1.08,.31,.14,.01,.21,.02,.35,.04,.27-.07,.4-.1,.67-.18,.41-.11,.77-.31,1.05-.59,.07-.07,.11-.11,.18-.18,.13-.26,.19-.39,.32-.65l.03,.03,.2,.16c.27,.1,.41,.16,.68,.26,.17,.04,.25,.06,.42,.11,.43,.06,.87,.01,1.27-.13,.17-.06,.33-.13,.48-.22,.7-.11,1.36-.32,1.98-.63,.74-.38,1.43-.85,2.02-1.45,.43-.44,.78-.95,1.05-1.48,.28-.57,.44-1.18,.46-1.8,.03-.82-.1-1.62-.38-2.38-.31-.84-.84-1.59-1.61-2.21Zm-2.94,4.51c-.04,.11-.11,.21-.21,.3-.19,.18-.39,.36-.6,.52-.12,.07-.24,.12-.38,.16-.03,0-.06,.02-.1,.03-.03-.04-.05-.08-.08-.12-.11-.21-.21-.44-.29-.67,0-.16,.02-.31,.07-.45,.06-.18,.15-.36,.26-.55,.1-.09,.21-.17,.31-.22,.11-.06,.24-.11,.38-.14,.12,0,.24-.01,.35-.01,0,.01,.02,.02,.02,.03,.07,.12,.13,.24,.19,.36,.02,.21,.04,.43,.07,.64,0,.06,0,.11,0,.14Z"/><path class="cls-1" d="M168.18,27.09c-.74-.49-1.58-.88-2.44-1.17-.92-.31-1.87-.45-2.82-.43-.77,.09-1.15,.13-1.92,.22l-.16,.03c-.89,.19-1.75,.47-2.57,.85-.82,.38-1.6,.85-2.33,1.41l-.12,.1c-.79,.74-1.36,1.59-1.71,2.52-.35,.95-.45,1.94-.28,2.84,.06,.56,.2,1.13,.41,1.67,.26,.67,.69,1.24,1.27,1.7l.12,.08c1.26,.83,2.4,.83,3.13,.69,.83-.16,1.57-.5,2.19-.97,.4-.43,.6-.65,1-1.08l.09-.11c.7-.97,1.13-2.03,1.3-3.16,.11-.76,.21-1.51,.3-2.27,.54,.09,1.03,.28,1.49,.57,.13,.08,.23,.17,.28,.25,.08,.12,.14,.27,.18,.43,.02,.15,.01,.29-.01,.4-.06,.26-.12,.52-.17,.79-.08,.18-.16,.36-.24,.53-.02,.03-.05,.09-.14,.17-.11,.1-.16,.15-.27,.24-.14,.36-.21,.54-.35,.9l-.02,.2c-.03,.39,.04,.76,.23,1.11,.14,.25,.32,.48,.54,.68,.11,.1,.17,.15,.28,.25,.42,.13,.63,.19,1.05,.31h.25c.15,0,.3,0,.45-.02,.32-.04,.62-.14,.89-.27,.26-.13,.49-.29,.7-.48,.19-.22,.29-.33,.48-.55,.06-.09,.09-.13,.16-.22,.36-.64,.64-1.32,.83-2.02,.18-.68,.28-1.37,.3-2.05,0-.1-.01-.16-.02-.26-.11-.69-.33-1.36-.64-1.99-.36-.74-.93-1.38-1.7-1.89Z"/><path class="cls-1" d="M190.34,27.83c-.22-.05-.32-.07-.54-.12-1.06,.42-1.59,.62-2.65,1.03,.06,.25,.09,.38,.15,.63-.13,.13-.26,.25-.39,.38v-.05l-.07-.27c-.07-.09-.1-.14-.16-.23-.21-.3-.79-.96-1.8-1.2,.25-.66,.44-1.33,.56-2.01,.02-.14,.04-.2,.06-.34-.21-.64-.31-.97-.52-1.61,.09-.13,.17-.28,.24-.43,.09-.2,.13-.31,.22-.51-.26-.71-.38-1.06-.64-1.77-.25-.11-.38-.16-.63-.27-.79-.34-1.61-.63-2.44-.86-.72-.2-1.45-.43-2.16-.68-.23-.08-.34-.12-.57-.2-.81,.3-1.22,.45-2.03,.74-.25,.56-.38,.83-.64,1.39,.32,.8,.48,1.2,.81,2,.53,.17,.8,.25,1.33,.42-.73,.17-1.46,.39-2.16,.65-.25,.09-.38,.14-.63,.23-.26,.55-.39,.82-.66,1.37,.33,.84,.5,1.26,.84,2.1,.74,.16,1.12,.23,1.87,.38,.76-.19,1.14-.28,1.9-.48-.19,.46-.38,.91-.58,1.36-.56,1.26-1.12,2.52-1.68,3.78-.09,.21-.14,.32-.24,.53,.31,.76,.47,1.14,.78,1.9,.56,.21,.84,.32,1.4,.53,.71-.12,1.07-.19,1.78-.31,.16-.17,.24-.25,.4-.42,.42-.45,.72-.92,.89-1.4,.09-.25,.18-.51,.27-.78,.1-.14,.21-.26,.32-.37,.31,.55,.72,.95,1.21,1.19,.46,.27,.93,.46,1.41,.57,.48,.11,.99,.16,1.5,.13,.15,0,.23-.01,.38-.02,.14-.07,.2-.1,.34-.16,.89-.43,1.7-.99,2.38-1.67,.58-.57,1.17-1.2,1.73-1.85,.19-.23,.29-.34,.48-.57-.07-.27-.1-.41-.17-.68-.06-.25-.14-.5-.25-.75-.26-.65-.86-1.11-1.63-1.28Z"/><path class="cls-1" d="M210.42,24.39c-.13-.08-.19-.12-.32-.21-.62-.08-.93-.13-1.55-.21-.1,.07-.15,.1-.25,.16,.05-.26,.08-.39,.13-.65-.12-.19-.18-.28-.3-.47-.2-.31-.43-.6-.68-.87,.16-.13,.31-.26,.46-.41,.12-.13,.18-.19,.3-.32,.08-.41,.12-.61,.2-1.02l-.02-.2c-.04-.38-.19-.75-.43-1.05-.17-.22-.39-.42-.64-.59l-.09-.06c.06-.32,.09-.48,.15-.8,0-.08-.01-.12-.02-.2-.04-.38-.19-.75-.42-1.05-.17-.22-.39-.42-.64-.59l-.19-.13-.22-.07c-.32-.11-.65-.16-.99-.14-.13,0-.27,.02-.43,.03-1.14,.31-1.71,.46-2.85,.75-.19-.26-.4-.52-.61-.77-.15-.18-.22-.26-.37-.44-.5-.09-.75-.13-1.24-.22l-.22,.02c-.42,.03-.8,.15-1.13,.36-.25,.16-.47,.35-.66,.57-.07,.08-.1,.12-.17,.2-.03,.1-.05,.14-.09,.24-.06,.17-.11,.35-.14,.54-.03,.17-.04,.35-.04,.53,0,.1,0,.16,0,.26l.09,.23c-.36,.16-.69,.34-.99,.56-.19,.14-.28,.2-.47,.34-.11,.46-.16,.68-.27,1.14v.2c.03,.39,.15,.75,.38,1.08,.16,.23,.37,.44,.61,.62,.13,.09,.19,.14,.32,.23,.2,.03,.31,.05,.51,.08-.12,.49-.17,.73-.29,1.22v.2c.03,.39,.15,.75,.38,1.07h0c-.14,.12-.27,.25-.39,.38-.1,.11-.15,.17-.25,.28-.12,.47-.18,.7-.29,1.17,.06,.16,.09,.24,.15,.4,.24,.63,.57,1.23,.99,1.78,.45,.6,1.03,1.1,1.72,1.51l.2,.1c.83,.35,1.72,.59,2.62,.71,.91,.12,1.83,.13,2.73,.02l.16-.03c.22-.05,.43-.1,.64-.15,.91-.24,1.78-.58,2.61-1.02,1.02-.54,1.94-1.2,2.73-1.97,.11-.11,.17-.17,.28-.28,.15-.47,.22-.71,.36-1.18l-.03-.27c-.04-.38-.19-.75-.43-1.05-.18-.22-.4-.42-.65-.58Zm-7.58-.03c.07,.08,.15,.15,.22,.23,.4,.43,.88,.83,1.42,1.17,.12,.08,.18,.11,.3,.19,.26,.04,.39,.06,.65,.1-.17,.09-.35,.17-.52,.23-.51,.2-1.04,.27-1.57,.25-.52-.03-1.03-.11-1.51-.27-.13-.11-.23-.23-.32-.37-.16-.27-.34-.53-.52-.79,.73-.3,1.1-.45,1.83-.75Z"/><path class="cls-1" d="M230.7,11.41c-.54,.61-.81,.91-1.35,1.52-.77,.86-1.35,1.63-1.79,2.38-.2,.35-.44,.62-.73,.81-.14,.04-.29,.08-.46,.11-.12,.02-.22,.03-.28,.03-.25-.06-.51-.16-.78-.28-.55-.26-.82-.39-1.37-.66-.14-.05-.21-.07-.35-.12-.53-.13-1.07-.24-1.62-.34-.6-.11-1.23-.17-1.86-.18h-.22l-.22,.05c-.72,.17-1.35,.43-1.87,.78-.41,.27-.79,.56-1.19,.91-.6,.58-1.06,1.25-1.39,1.99-.25,.58-.52,1.22-.81,1.92-.17,.42-.26,.64-.44,1.06,1.22,.8,1.83,1.2,3.06,1.99,1.19-.94,1.77-1.41,2.94-2.36-.19-.31-.28-.46-.47-.77,.07-.2,.11-.3,.18-.5,.28-.29,.42-.43,.71-.73l.18-.06c.37,.04,.74,.12,1.11,.25,.54,.19,1.08,.44,1.61,.75,.13,.06,.2,.09,.33,.15,.7,.23,1.41,.36,2.12,.4,.75,.04,1.49-.03,2.2-.21l.09-.02c.12-.04,.24-.08,.35-.12,1.32-.47,2.33-1.23,2.98-2.25,.49-.77,1.01-1.6,1.54-2.48,.21-.35,.32-.52,.52-.87-1.09-1.25-1.64-1.88-2.72-3.15Z"/></g><g><path class="cls-5" d="M101.37,34.58c-.52-.09-1.05-.28-1.54-.55-.49-.26-1.03-.59-1.37-.98-.41-.48-.85-1.13-1.34-1.6-.49-.48-1.03-.87-1.63-1.16-.4-.05-.61-.07-1.01-.12-.69,.24-1.04,.37-1.74,.61-.37,.34-.55,.51-.92,.86l-.23,.1c.01,.17,.02,.26,.03,.44-.46,.1-.69,.16-1.16,.26-.25-.39-.37-.59-.61-.98,.58-.49,1.12-.94,1.61-1.34,.49-.4,1.05-.69,1.67-.89,.38-.1,.79-.18,1.22-.24s.99-.07,1.44,.08c.45,.15,.94,.5,1.36,.79,.42,.3,.91,.6,1.22,.92,.33,.33,.64,.8,.93,1.16,.29,.37,.61,.68,.96,.94,.24,.15,.53,.27,.87,.35,.33,.08,.64,.14,.92,.16,.71-.06,1.39-.29,2.03-.71,.64-.42,1.45-.82,2.43-1.21,.1,.44,.16,.66,.26,1.1-.88,.55-1.72,1.07-2.52,1.54-.8,.48-1.8,.66-2.9,.48Z"/><path class="cls-5" d="M118.87,39.11c-.17-.08-.25-.12-.42-.2-.19-.3-.28-.64-.26-.99,.02-.36,0-.7-.08-1.03,.02-.71,.02-1.07,.04-1.78l-.04-.04c-1.2,.99-1.81,1.49-3.03,2.47-.2,0-.31,0-.51,.01-.17-.08-.25-.12-.42-.21-.08-.1-.14-.21-.18-.33-.04-.11-.04-.23,0-.35,.65-.66,1.35-1.28,2.11-1.87,.76-.58,1.39-1.26,1.88-2.04h-.17c-.58,0-1.17,.01-1.75,.05-.59,.04-1.17,.09-1.76,.15-.11-.03-.23-.07-.35-.11-.12-.04-.24-.11-.31-.18-.08-.09-.14-.21-.17-.33-.04-.11-.04-.23,0-.35l.22-.36c.76-.13,1.52-.22,2.3-.25,.78-.04,1.55-.07,2.33-.09,.04-.73,.06-1.09,.09-1.82-.23,0-.35-.01-.58-.02-1.04,.05-1.56,.07-2.6,.1-.11-.03-.21-.07-.31-.11-.1-.04-.18-.09-.26-.14-.08-.1-.14-.21-.17-.33-.04-.11-.04-.23,0-.35,.09-.14,.13-.22,.22-.36,.58-.14,1.19-.21,1.84-.21,.64,0,1.28,0,1.91-.03,0-.13,0-.2,.01-.33-.02-.52-.02-.78-.04-1.3,.03-.1,.07-.19,.11-.27,.04-.08,.09-.16,.15-.24,.11-.07,.23-.12,.35-.15s.25-.03,.39,0c.16,.08,.24,.12,.4,.2,.15,.3,.22,.64,.2,1.01-.02,.37-.01,.73,.03,1.08,.28,0,.42,.01,.69,.02,.97-.03,1.45-.05,2.41-.08,.16,.08,.24,.12,.41,.19,.08,.1,.14,.21,.18,.32,.04,.11,.04,.23,.02,.35-.08,.15-.12,.22-.21,.37-.55,.16-1.12,.25-1.73,.26-.6,0-1.21,.02-1.81,.02-.03,.7-.05,1.05-.08,1.74,.12,0,.17,0,.29,0,.61-.05,1.22-.09,1.84-.11s1.24-.04,1.88-.05c.16,.08,.25,.12,.41,.19,.08,.1,.14,.21,.18,.32,.04,.11,.05,.23,.02,.35-.08,.15-.13,.22-.21,.37-.55,.19-1.14,.27-1.76,.24-.62-.03-1.22,.01-1.81,.12,.88,.57,1.76,1.16,2.64,1.76,.89,.6,1.75,1.21,2.59,1.84,.08,.1,.15,.21,.19,.32,.04,.11,.05,.23,.02,.35-.08,.15-.12,.22-.21,.37-.08,.07-.18,.12-.29,.14-.11,.02-.22,.05-.34,.07-.93-.58-1.85-1.19-2.75-1.83-.9-.64-1.84-1.24-2.8-1.79-.02,1.23-.04,1.85-.06,3.08,.05,.25,.08,.51,.09,.78,0,.27,.01,.56,0,.85-.09,.15-.13,.22-.22,.36-.12,.07-.24,.12-.36,.15-.13,.03-.26,.03-.4,0Z"/><path class="cls-5" d="M134.24,38.52c-.17-.07-.26-.11-.43-.18-.09-.1-.16-.2-.22-.31-.06-.11-.08-.24-.05-.39,.08-.15,.12-.22,.2-.37,.14-.08,.27-.14,.41-.19,.14-.05,.26-.14,.37-.27,.35-.4,.65-.82,.92-1.26,.26-.44,.48-.89,.65-1.37l-.04-.04c-.36,.11-.72,.21-1.09,.3-.37,.09-.8,.21-1.14,.19-.1,0-.22-.05-.31-.09-.1-.04-.19-.08-.27-.13-.09-.1-.15-.2-.2-.31-.04-.11-.06-.23-.03-.35,.08-.15,.12-.22,.2-.37,.57-.16,1.15-.3,1.72-.44,.57-.13,1.15-.27,1.72-.41-.02-.58-.03-.87-.06-1.45l-.09-.18c-.41,.04-.61,.06-1.02,.1-.19-.02-.39-.05-.58-.1-.19-.05-.36-.14-.5-.29-.4-.51-.64-1.07-.74-1.68-.1-.6-.16-1.24-.13-1.84,.01-.22,.03-.46,.02-.71,0-.25,.07-.46,.23-.63,.1-.08,.22-.13,.34-.17,.12-.04,.25-.05,.38-.03,.16,.07,.24,.11,.41,.18,.17,.17,.24,.37,.24,.61,0,.24,0,.46,0,.69,0,.49,0,.74,0,1.23,0,.22,.05,.44,.12,.65,.07,.21,.14,.42,.2,.65,.26,0,.39,0,.65-.01,.46-.13,.92-.26,1.39-.39,.47-.12,.95-.22,1.43-.29,.17,.07,.25,.1,.41,.17,.09,.1,.15,.2,.2,.31,.05,.11,.06,.23,.04,.35-.09,.17-.13,.25-.22,.42-.18,.13-.39,.21-.6,.24-.22,.03-.43,.09-.65,.17l-.03,.22c.06,.22,.1,.45,.11,.68,.01,.24,.02,.46,.03,.69h.08c.32-.09,.64-.18,.95-.29,.31-.11,.64-.2,.99-.26,.17,.07,.25,.1,.42,.17,.09,.1,.15,.2,.2,.31,.05,.11,.06,.24,.04,.39-.09,.17-.13,.25-.22,.42-.37,.19-.79,.34-1.23,.46-.45,.12-.86,.25-1.24,.41,.38,.58,.79,1.15,1.22,1.71,.43,.55,.94,1.04,1.52,1.47,.09,.1,.16,.2,.21,.31,.05,.11,.06,.23,.04,.35-.08,.15-.11,.23-.19,.38-.08,.08-.17,.13-.28,.16-.11,.03-.22,.06-.33,.09-.17-.02-.33-.06-.47-.13-.14-.07-.27-.16-.39-.28-.41-.38-.79-.78-1.13-1.21-.34-.42-.69-.84-1.04-1.25-.23,.53-.52,1.02-.88,1.49-.36,.47-.74,.92-1.14,1.34-.16,.1-.34,.2-.52,.29-.18,.09-.38,.13-.61,.1Zm10.13-1.35c-.17-.07-.26-.1-.43-.16-.38-.3-.74-.63-1.07-.99-.33-.36-.62-.74-.86-1.15-.1-.29-.2-.59-.3-.88-.1-.29-.17-.61-.18-.92-.02-.56,.11-1.13,.36-1.67,.24-.54,.58-1.06,1.02-1.48,.49-.47,1.09-.79,1.73-.96,.64-.17,1.37-.31,2.01-.25,.28,.03,.59,.15,.87,.28,.28,.13,.55,.3,.81,.5,.52,.44,.89,.95,1.11,1.54,.21,.59,.31,1.21,.28,1.86-.02,.42-.13,.83-.33,1.23-.2,.4-.47,.78-.8,1.12-.45,.45-.99,.83-1.58,1.12-.59,.3-1.23,.46-1.93,.5v.07c-.1,.08-.21,.14-.34,.19-.12,.04-.25,.06-.39,.04Zm2.29-2.29c.28-.19,.56-.45,.82-.7,.26-.25,.44-.53,.55-.84,.09-.25,.12-.52,.08-.79-.04-.27-.03-.59-.09-.81-.05-.21-.22-.48-.37-.72-.14-.24-.34-.45-.6-.63-.2-.14-.43-.2-.69-.2-.26,0-.54,0-.79,.03-.33,.04-.67,.18-.96,.33-.29,.15-.61,.36-.82,.62-.23,.28-.39,.67-.51,1.01-.12,.34-.19,.75-.14,1.1,.06,.36,.26,.76,.44,1.11,.19,.35,.46,.66,.81,.94,.15,.05,.23,.08,.38,.13,.36-.04,.69-.11,1-.2,.31-.09,.62-.22,.86-.39Z"/><path class="cls-5" d="M166.71,35.35c-.18-.05-.26-.08-.44-.13-.1-.09-.17-.18-.23-.29-.06-.1-.08-.22-.07-.35,.06-.16,.09-.24,.15-.39,.22-.2,.38-.42,.49-.64,.1-.23,.24-.47,.31-.7,.09-.27,.13-.61,.2-.91,.07-.3,.08-.63,.02-.96-.06-.33-.21-.65-.39-.92-.18-.28-.44-.52-.77-.72-.67-.41-1.38-.68-2.15-.81-.77-.13-1.55-.1-2.34,.09,.1,.05,.14,.07,.24,.12,.12,.05,.19,.14,.21,.27,.02,.13,.03,.26,.02,.38-.1,.88-.22,1.78-.36,2.7-.14,.91-.5,1.76-1.06,2.55-.31,.35-.46,.52-.77,.87-.42,.32-.91,.54-1.47,.65-.56,.11-1.15-.03-1.77-.43-.37-.29-.64-.65-.81-1.08-.17-.43-.27-.89-.33-1.31-.11-.74-.07-1.5,.19-2.22,.26-.72,.71-1.43,1.32-1.95,.57-.49,1.29-.89,2-1.21,.71-.32,1.44-.57,2.21-.73,.7-.08,1.06-.12,1.76-.21,.76-.02,1.5,.1,2.23,.34s1.43,.57,2.05,.99c.52,.34,.9,.78,1.15,1.29,.24,.5,.47,1.08,.5,1.6,.03,.52-.11,1.16-.27,1.74s-.39,1.15-.7,1.69c-.13,.15-.19,.23-.32,.38-.1,.09-.21,.17-.34,.23-.13,.07-.28,.1-.45,.1Zm-8.15-.85c.8-.78,1.28-1.67,1.46-2.66,.18-.99,.31-1.96,.41-2.92l-.09-.03c-.55,.21-1.08,.47-1.6,.79-.52,.32-.96,.72-1.31,1.2-.31,.42-.47,.87-.49,1.34-.02,.46,0,.96,.1,1.43,.1,.5,.3,.82,.52,.92,.09,.08,.19,.13,.29,.16,.1,.03,.34-.05,.7-.22Z"/><path class="cls-5" d="M186.92,33.32c-.34,.02-.66,0-.97-.08-.31-.07-.62-.21-.93-.38-.4-.21-.72-.62-.91-1.24-.19-.61-.56-.81-1.1-.58-.41,.18-.79,.4-1.13,.66-.34,.26-.64,.6-.9,1-.1,.32-.21,.63-.32,.93-.11,.3-.31,.6-.59,.9-.26,.05-.4,.07-.66,.12-.11-.04-.17-.06-.28-.1-.13-.31-.19-.46-.32-.77,.55-1.25,1.1-2.51,1.65-3.76,.55-1.26,1.05-2.54,1.5-3.83-.96,.15-1.45,.23-2.41,.37-.79,.2-1.18,.3-1.97,.5-.24-.05-.36-.07-.6-.12-.13-.31-.19-.47-.31-.78l.12-.25c.77-.28,1.55-.51,2.34-.67,.79-.17,1.62-.35,2.45-.49,.26-.04,.58-.07,.93-.09,.35-.02,.66,.06,.93,.27,.11,.34,.16,.51,.27,.86-.13,.68-.33,1.35-.6,2.01-.28,.66-.54,1.31-.8,1.97l.18,.04c1.27-.57,2.15-.49,2.67,.24,.09,.39,.21,.74,.36,1.07,.16,.32,.45,.57,.89,.73,.14,0,.21,0,.34,0,.39-.28,.77-.6,1.15-.95,.37-.35,.74-.72,1.1-1.1l-.03-.14c.34-.13,.51-.2,.86-.33,.24,.05,.4,.17,.47,.36,.07,.19,.13,.38,.18,.57-.53,.62-1.08,1.21-1.64,1.75-.56,.55-1.2,1-1.92,1.34Zm-4.01-9.67c-1.87-.55-2.79-.83-4.64-1.41-.13-.31-.19-.46-.32-.77l.11-.25c.33-.12,.5-.18,.83-.3,.76,.27,1.51,.5,2.26,.71,.75,.21,1.49,.47,2.22,.78,.09,.26,.13,.38,.22,.64-.07,.17-.17,.29-.29,.36-.12,.07-.25,.15-.4,.23Z"/><path class="cls-5" d="M204.47,29.44c-.7,.12-1.48,.09-2.24-.01-.76-.1-1.55-.27-2.17-.58-.5-.25-.95-.68-1.29-1.12-.34-.44-.61-.92-.81-1.43,.04-.16,.06-.24,.1-.41,.09-.1,.18-.19,.29-.26,.11-.08,.24-.12,.41-.14,.18,.03,.27,.05,.45,.08,.27,.34,.51,.7,.74,1.08,.22,.38,.53,.7,.92,.96,.71,.26,1.46,.4,2.24,.44,.78,.04,1.57-.08,2.32-.36,.62-.24,1.21-.57,1.76-.96,.55-.4,1.1-.78,1.65-1.14,.18,.03,.28,.04,.46,.06,.11,.07,.2,.16,.28,.25,.07,.1,.12,.21,.13,.33-.07,.22-.1,.33-.17,.55-.67,.66-1.44,1.21-2.31,1.67-.87,.46-1.83,.84-2.76,.99Zm1.36-4.84c-.18-.03-.27-.04-.46-.07-.43-.27-.81-.57-1.12-.91-.32-.34-.65-.68-.98-1.03l-.21,.02c-1.44,.6-2.17,.9-3.62,1.48-.11,0-.22,0-.32-.01-.1-.01-.2-.03-.29-.06-.11-.08-.2-.16-.27-.26-.07-.1-.11-.21-.12-.34,.04-.16,.06-.24,.1-.41,.56-.32,1.15-.6,1.77-.84,.62-.24,1.24-.49,1.84-.75l-.02-.07c-.67-.64-1-.96-1.67-1.61-1.05,.38-1.57,.57-2.63,.94-.23-.04-.34-.05-.57-.09-.11-.08-.19-.16-.26-.26-.07-.1-.11-.21-.12-.34,.04-.16,.06-.24,.09-.41,.32-.23,.7-.42,1.12-.55,.42-.13,.83-.28,1.23-.43l-.03-.11c-.17-.19-.32-.37-.46-.56-.14-.18-.25-.39-.35-.62,0-.1,0-.2,.02-.29,.01-.09,.04-.18,.07-.27,.08-.1,.18-.18,.28-.25,.1-.07,.22-.1,.36-.11,.18,.03,.26,.05,.44,.08,.21,.25,.42,.52,.61,.79,.19,.27,.4,.53,.61,.78,1.46-.39,2.19-.58,3.64-.99,.14-.01,.26-.02,.37-.03,.11,0,.25,0,.36,.06,.1,.05,.2,.16,.27,.25,.07,.1,.12,.21,.13,.33-.03,.16-.05,.25-.08,.41-.05,.09-.14,.17-.25,.22-.11,.06-.21,.11-.31,.16l-.05-.02c-1.11,.31-1.66,.46-2.77,.76l.02,.07c.57,.59,.85,.88,1.43,1.47l.2-.05c.32-.16,.63-.33,.95-.51,.31-.18,.65-.33,1.01-.45,.18,.03,.27,.04,.45,.07,.11,.07,.2,.16,.27,.25s.12,.21,.13,.33c-.03,.16-.05,.25-.08,.41-.24,.25-.52,.44-.84,.58-.33,.14-.65,.31-.96,.5,.28,.34,.59,.65,.94,.94,.35,.29,.64,.62,.88,1-.03,.16-.05,.25-.09,.41-.08,.1-.18,.19-.29,.25s-.23,.11-.37,.12Z"/><path class="cls-5" d="M227.43,18.86c-.51,.14-1.06,.18-1.61,.15-.56-.03-1.19-.11-1.66-.32-.59-.27-1.27-.66-1.92-.89-.65-.23-1.31-.35-1.96-.37-.38,.13-.56,.19-.94,.31-.49,.51-.74,.76-1.24,1.27-.16,.46-.24,.69-.41,1.15-.06,.07-.09,.11-.15,.19,.09,.15,.14,.23,.23,.38-.35,.29-.53,.43-.89,.71-.39-.25-.59-.38-.98-.63,.28-.69,.54-1.31,.79-1.88,.25-.56,.59-1.06,1.04-1.5,.29-.25,.6-.49,.95-.73,.35-.23,.83-.48,1.29-.53,.46-.05,1.05,.06,1.56,.15,.51,.09,1.08,.17,1.5,.32,.45,.16,.93,.45,1.36,.66,.43,.21,.85,.36,1.28,.45,.28,.03,.59,.02,.93-.05,.33-.07,.63-.14,.9-.24,.61-.35,1.1-.85,1.47-1.49,.37-.64,.9-1.35,1.59-2.11,.3,.35,.45,.53,.75,.88-.53,.87-1.04,1.68-1.53,2.45-.49,.77-1.3,1.35-2.35,1.65Z"/></g></g><g><g><g><path class="cls-1" d="M245.11,17.98c-2.87-1.02-5.86,.11-6.65,2.46-.63,1.85,.28,3.89,2.04,5.17-4.81,13.78-9.61,27.56-14.42,41.33-66.98-21.73-134.43-21.73-201.41,0-4.81-13.78-9.61-27.56-14.42-41.33,1.77-1.27,2.67-3.31,2.04-5.17-.79-2.35-3.78-3.48-6.65-2.46-2.87,1.02-4.49,3.77-3.62,6.1,.68,1.83,2.67,2.85,4.85,2.72,5.29,14.67,10.57,29.34,15.86,44.01,1.17-.42,1.76-.63,2.93-1.04,66.32-21.51,133.11-21.52,199.44,0,1.17,.41,1.76,.62,2.93,1.04,.41-1.13,.61-1.69,1.02-2.82,4.95-13.73,9.89-27.46,14.84-41.18,2.17,.12,4.17-.89,4.85-2.72,.87-2.33-.75-5.08-3.62-6.1Z"/><path class="cls-1" d="M228.97,72.75c-68.67-23.46-138.51-23.47-207.19,0-5.42-14.81-10.85-29.63-16.27-44.44-2.42-.24-4.43-1.58-5.19-3.59-1.17-3.1,.98-6.79,4.83-8.16,3.84-1.36,7.83,.16,8.87,3.3,.68,2.04-.04,4.35-1.76,6.06,4.47,13.03,8.94,26.06,13.41,39.09,66.34-21.17,133.07-21.17,199.42,0,4.47-13.03,8.94-26.06,13.41-39.09-1.72-1.71-2.44-4.01-1.76-6.06,1.04-3.14,5.03-4.66,8.87-3.3s5.99,5.06,4.82,8.16c-.76,2.01-2.77,3.35-5.19,3.59-5.42,14.81-10.85,29.63-16.27,44.44Zm-205.28-3.88c67.6-22.29,135.76-22.29,203.37,0-67.61-22.29-135.77-22.29-203.37,0ZM244.61,19.39c-1.9-.68-3.89,.07-4.43,1.63-.41,1.19,.14,2.57,1.36,3.45,.41,.29,.61,.44,1.01,.73h0c.5,.03,.75,.04,1.25,.07,1.5,.09,2.8-.64,3.23-1.82,.57-1.55-.51-3.38-2.42-4.06Zm-238.46,0c-1.9,.68-2.99,2.51-2.42,4.06,.43,1.18,1.73,1.9,3.23,1.82,.5-.03,.75-.04,1.25-.07h0c.4-.29,.61-.44,1.01-.73,1.22-.88,1.77-2.26,1.36-3.45-.54-1.56-2.53-2.31-4.43-1.63Z"/></g><g><path class="cls-1" d="M238.14,28.6c-.56-1.22-.84-1.83-1.41-3.04-12.59,3.67-25.3,6.97-38.11,9.78l-.25-.06-.03,.12c-49.37,10.02-96.1,10.06-145.47,.1l-.07-.31c-.27,.06-.4,.09-.67,.15-12.81-2.81-25.52-6.11-38.11-9.78-.57,1.22-.85,1.83-1.41,3.04,.5,.14,1,.28,1.49,.42,3.95,11.59,7.89,23.17,11.84,34.76,1.2-.41,1.8-.61,3-1-3.58-10.87-7.15-21.73-10.73-32.6,1.8,.5,3.59,1,5.37,1.48,3.12,9.94,6.25,19.89,9.37,29.83,1.2-.38,1.81-.56,3.02-.93-2.81-9.28-5.62-18.56-8.44-27.85,1.73,.46,3.46,.9,5.17,1.33,2.92,10.13,4.38,15.19,7.29,25.32,1.21-.35,1.82-.52,3.03-.86-2.61-9.4-3.91-14.1-6.51-23.51,1.88,.47,3.76,.92,5.62,1.36l5.45,20.92c1.22-.32,1.83-.47,3.05-.78-1.93-7.72-2.89-11.57-4.82-19.29,1.42,.32,2.83,.65,4.24,.96l4.12,17.35c1.22-.29,1.84-.43,3.06-.71-1.44-6.35-2.16-9.52-3.59-15.87,1.58,.33,3.15,.65,4.71,.97,1.19,5.6,1.78,8.4,2.97,14,1.23-.26,1.84-.39,3.07-.64l-2.56-12.68c1.54,.3,3.07,.58,4.59,.86,.83,4.41,1.24,6.61,2.07,11.02,1.23-.23,1.85-.34,3.08-.56-.7-3.94-1.05-5.92-1.75-9.86,1.69,.29,3.37,.58,5.05,.85,.53,3.29,.8,4.94,1.33,8.23,1.24-.2,1.86-.3,3.09-.48-.44-2.89-.66-4.34-1.09-7.23,31.92,4.24,62.79,4.21,94.71-.07-.45,2.94-.67,4.41-1.12,7.36,1.24,.19,1.86,.29,3.09,.49,.54-3.35,.82-5.02,1.36-8.36,1.68-.27,3.36-.56,5.06-.85-.71,4-1.07,6-1.78,10,1.23,.22,1.85,.33,3.08,.57,.84-4.47,1.27-6.71,2.11-11.18,1.53-.28,3.06-.56,4.6-.86l-2.61,12.84c1.23,.25,1.84,.38,3.07,.64,1.21-5.67,1.82-8.51,3.03-14.18,1.57-.32,3.14-.64,4.72-.98-1.46,6.42-2.19,9.63-3.66,16.06,1.23,.28,1.84,.42,3.06,.71,1.67-7.02,2.51-10.53,4.19-17.55,1.41-.31,2.82-.63,4.24-.96-1.96,7.8-2.94,11.7-4.9,19.5,1.22,.31,1.83,.46,3.05,.78,2.22-8.46,3.32-12.68,5.54-21.14,1.87-.44,3.74-.89,5.63-1.36l-6.61,23.73c1.21,.34,1.82,.51,3.03,.86,2.96-10.22,4.44-15.33,7.4-25.55,1.72-.44,3.45-.89,5.18-1.35-2.85,9.37-5.7,18.73-8.55,28.1,1.21,.37,1.81,.55,3.02,.93,3.17-10.03,6.33-20.06,9.5-30.09,1.78-.48,3.58-.98,5.38-1.48-3.62,10.96-7.25,21.91-10.87,32.87,1.2,.4,1.8,.6,3,1.01,3.99-11.68,7.99-23.36,11.99-35.04,.32-.09,.64-.18,.97-.27Z"/><path class="cls-1" d="M226.19,65.84c-2.38-.83-3.57-1.23-5.97-2.01,3.41-10.48,6.81-20.96,10.22-31.44-.45,.12-.89,.24-1.34,.36-3.29,10.25-6.59,20.5-9.88,30.76-2.39-.77-3.59-1.14-6-1.86,3.21-10.73,4.81-16.09,8.01-26.82-.43,.11-.86,.22-1.29,.33-3.09,10.48-4.64,15.71-7.73,26.19-2.41-.71-3.61-1.05-6.03-1.71,2.47-9.04,3.7-13.56,6.17-22.59-.61,.15-1.23,.29-1.86,.44-2.33,8.7-3.49,13.04-5.82,21.74-2.42-.65-3.63-.96-6.06-1.56,1.82-7.4,2.73-11.09,4.54-18.49-.2,.05-.4,.09-.6,.13-1.77,7.25-2.65,10.87-4.42,18.12-2.43-.59-3.65-.88-6.09-1.42,1.35-6.07,2.02-9.1,3.37-15.17-.39,.08-.78,.16-1.17,.24-1.29,5.88-1.93,8.82-3.22,14.7-2.44-.53-3.67-.79-6.12-1.27,.95-4.83,1.43-7.24,2.39-12.07-.38,.07-.76,.14-1.14,.21-.91,4.66-1.36,7-2.26,11.66-2.45-.48-3.68-.7-6.14-1.13,.65-3.73,.97-5.6,1.62-9.34-.57,.1-1.13,.19-1.68,.28l-1.48,8.8c-2.46-.41-3.69-.61-6.16-.97,.4-2.72,.6-4.08,1-6.81-30.78,3.86-60.16,3.88-90.94,.06,.39,2.67,.58,4.01,.97,6.68-2.47,.36-3.7,.55-6.16,.96-.58-3.46-.87-5.19-1.44-8.66-.54-.09-1.09-.18-1.68-.28l1.58,9.2c-2.46,.42-3.69,.65-6.14,1.12-.89-4.6-1.33-6.9-2.22-11.5-.38-.07-.76-.14-1.14-.21,.94,4.77,1.4,7.15,2.34,11.91-2.45,.48-3.67,.73-6.12,1.27-1.26-5.81-1.9-8.72-3.16-14.53-.39-.08-.78-.16-1.17-.24,1.33,6,1.99,8.99,3.31,14.99-2.44,.54-3.66,.82-6.09,1.41-1.74-7.17-2.61-10.75-4.35-17.92-.2-.04-.4-.09-.6-.13,1.79,7.32,2.68,10.97,4.47,18.29-2.43,.59-3.64,.9-6.07,1.55-2.29-8.61-3.44-12.91-5.73-21.52-.61-.15-1.24-.29-1.86-.44l6.08,22.37c-2.42,.66-3.63,1-6.03,1.71-3.05-10.38-4.57-15.57-7.62-25.95-.43-.11-.86-.22-1.28-.33,3.16,10.63,4.74,15.95,7.9,26.58-2.41,.72-3.61,1.09-6,1.85-3.25-10.16-6.5-20.33-9.75-30.49-.44-.12-.88-.24-1.33-.36,3.36,10.39,6.72,20.78,10.09,31.18-2.39,.77-3.59,1.17-5.97,2-4.09-11.81-8.18-23.62-12.27-35.44-.25-.07-.5-.14-.74-.21-.63-.18-.95-.27-1.58-.44,1.07-2.4,1.62-3.6,2.75-5.99,.66,.19,.99,.28,1.64,.48,12.45,3.51,24.87,6.74,37.46,9.68,.76-.17,1.14-.26,1.91-.43,.08,.35,.12,.53,.2,.88,48.41,9.72,94.2,9.67,142.61-.1,.06-.28,.09-.42,.15-.69,.6,.13,.89,.2,1.49,.33,12.6-2.95,25.01-6.17,37.46-9.68,.66-.19,.98-.29,1.64-.48,1.13,2.39,1.68,3.59,2.75,6-.72,.2-1.08,.3-1.8,.5-4.14,11.91-8.28,23.81-12.42,35.72Zm-2.02-3.86c3.85-11.45,7.7-22.9,11.55-34.35l.14-.04-.05-.1c-11.98,3.31-23.93,6.36-36.04,9.17h0c-.14,.03-.22,.05-.36,.08l-.33,.07c-.16,.03-.24,.05-.4,.08-24.4,4.93-48.92,8.55-73.31,8.56-24.28,0-48.69-3.59-72.96-8.48-.39-.08-.58-.13-.97-.21-12.26-2.83-24.36-5.92-36.5-9.27l-.05,.1c.27,.08,.4,.11,.66,.19,3.8,11.36,7.61,22.71,11.41,34.07-3.8-11.35-7.6-22.69-11.4-34.04,1.33,.36,1.99,.54,3.31,.91,1.91,.53,3.65,1.02,5.34,1.48,.32,.09,.49,.13,.81,.22,3,9.72,6,19.45,9,29.17-3-9.71-5.99-19.43-8.99-29.14,1.25,.32,1.87,.48,3.11,.81,1.64,.44,3.37,.88,5.14,1.33,.34,.09,.51,.13,.86,.22,2.79,9.87,4.19,14.81,6.98,24.69l-6.97-24.66c1.17,.28,1.76,.42,2.93,.71,1.9,.47,3.78,.93,5.58,1.36,.36,.09,.55,.13,.91,.22l5.19,20.32c-2.07-8.12-3.11-12.18-5.18-20.3,1.1,.24,1.65,.37,2.75,.62,1.41,.32,2.81,.64,4.21,.95,.38,.08,.57,.13,.95,.21l3.89,16.79c-1.55-6.71-2.33-10.06-3.89-16.77,1.04,.21,1.56,.32,2.6,.54,1.57,.33,3.13,.65,4.68,.96,.4,.08,.6,.12,1.01,.2,1.12,5.39,1.67,8.09,2.79,13.48-1.11-5.39-1.67-8.08-2.79-13.47,.99,.18,1.48,.28,2.46,.47,1.53,.3,3.05,.58,4.57,.86,.42,.08,.64,.12,1.06,.2,.77,4.22,1.15,6.33,1.92,10.55-.77-4.21-1.15-6.32-1.92-10.53,.93,.15,1.4,.23,2.32,.39,1.89,.33,3.53,.61,5.02,.84,.45,.07,.67,.11,1.12,.18,.49,3.12,.73,4.68,1.22,7.8-.49-3.12-.73-4.67-1.22-7.79,.88,.13,1.31,.19,2.19,.32,31.71,4.21,62.43,4.18,94.14-.07,.88-.13,1.32-.2,2.2-.32-.5,3.17-.75,4.75-1.25,7.92,.5-3.17,.75-4.76,1.25-7.93,.45-.07,.67-.11,1.12-.18,1.57-.25,3.22-.53,5.03-.85,.93-.16,1.4-.24,2.33-.4-.78,4.27-1.18,6.41-1.96,10.68l1.96-10.7c.42-.08,.63-.12,1.06-.2,1.52-.28,3.04-.56,4.57-.86,.98-.19,1.48-.29,2.46-.47l-2.84,13.63c1.14-5.46,1.71-8.19,2.84-13.65,.4-.08,.6-.12,1-.21,1.56-.32,3.12-.64,4.69-.98,1.04-.22,1.56-.33,2.61-.55-1.58,6.79-2.37,10.18-3.96,16.96,1.58-6.79,2.38-10.19,3.96-16.98,.38-.09,.57-.13,.95-.21,1.4-.31,2.81-.63,4.22-.96,1.1-.25,1.65-.38,2.75-.62-2.11,8.21-3.16,12.31-5.26,20.52,2.11-8.22,3.16-12.32,5.27-20.54,.36-.09,.54-.13,.91-.22,1.97-.47,3.8-.91,5.59-1.36,1.17-.29,1.76-.44,2.94-.72-2.83,9.96-4.24,14.94-7.07,24.89,2.83-9.97,4.25-14.95,7.08-24.92,.34-.09,.51-.13,.85-.22,1.64-.42,3.37-.87,5.15-1.35,1.24-.33,1.87-.49,3.12-.81-3.04,9.8-6.08,19.6-9.11,29.4,3.04-9.81,6.08-19.62,9.12-29.43,.32-.09,.48-.13,.81-.22,1.75-.47,3.54-.97,5.34-1.48,1.32-.37,1.99-.55,3.32-.91-3.85,11.44-7.7,22.88-11.54,34.32Z"/></g></g><g><path class="cls-5" d="M245.11,17.98c-2.87-1.02-5.86,.11-6.65,2.46-.63,1.85,.28,3.89,2.04,5.17-4.81,13.78-9.61,27.56-14.42,41.33-66.98-21.73-134.44-21.73-201.41,0-4.81-13.78-9.61-27.56-14.42-41.33,1.77-1.27,2.67-3.31,2.04-5.17-.79-2.35-3.78-3.48-6.65-2.46-2.87,1.02-4.49,3.77-3.62,6.1,.68,1.83,2.67,2.85,4.85,2.72,5.29,14.67,10.57,29.34,15.86,44.01,1.17-.42,1.76-.63,2.93-1.04,66.32-21.51,133.11-21.52,199.44,0,1.17,.41,1.76,.62,2.93,1.04,.41-1.13,.61-1.69,1.02-2.82,4.95-13.73,9.89-27.46,14.84-41.18,2.17,.12,4.17-.89,4.85-2.72,.87-2.33-.75-5.08-3.62-6.1Z"/><path class="cls-5" d="M238.14,28.6c-.56-1.22-.84-1.83-1.41-3.04-12.59,3.67-25.3,6.97-38.11,9.78l-.25-.06-.03,.12c-49.37,10.02-96.1,10.06-145.47,.1l-.07-.31c-.27,.06-.4,.09-.67,.15-12.81-2.81-25.52-6.11-38.11-9.78-.57,1.22-.85,1.83-1.41,3.04,.5,.14,1,.28,1.49,.42,3.95,11.59,7.89,23.17,11.84,34.76,1.2-.41,1.8-.61,3-1-3.58-10.87-7.15-21.73-10.73-32.6,1.8,.5,3.59,1,5.37,1.48,3.12,9.94,6.25,19.89,9.37,29.83,1.2-.38,1.81-.56,3.02-.93-2.81-9.28-5.62-18.56-8.44-27.85,1.73,.46,3.46,.9,5.17,1.33,2.92,10.13,4.38,15.19,7.29,25.32,1.21-.35,1.82-.52,3.03-.86-2.61-9.4-3.91-14.1-6.51-23.51,1.88,.47,3.76,.92,5.62,1.36,2.18,8.37,3.27,12.55,5.45,20.92,1.22-.32,1.83-.47,3.05-.78-1.93-7.72-2.89-11.57-4.82-19.29,1.42,.32,2.83,.65,4.24,.96l4.12,17.35c1.22-.29,1.84-.43,3.06-.71-1.44-6.35-2.16-9.52-3.59-15.87,1.58,.33,3.15,.65,4.71,.97,1.19,5.6,1.78,8.4,2.97,14,1.23-.26,1.84-.39,3.07-.64l-2.56-12.68c1.54,.3,3.07,.58,4.59,.86,.83,4.41,1.24,6.61,2.07,11.02,1.23-.23,1.85-.34,3.08-.56l-1.75-9.86c1.69,.29,3.37,.58,5.05,.85,.53,3.29,.8,4.94,1.33,8.23,1.24-.2,1.86-.3,3.09-.48-.44-2.89-.65-4.34-1.09-7.23,31.92,4.24,62.79,4.21,94.71-.07-.45,2.94-.67,4.41-1.12,7.36,1.24,.19,1.86,.29,3.09,.49,.54-3.35,.82-5.02,1.36-8.36,1.68-.27,3.36-.56,5.06-.85-.71,4-1.07,6-1.78,10,1.23,.22,1.85,.33,3.08,.57,.84-4.47,1.27-6.71,2.11-11.18,1.53-.28,3.06-.56,4.6-.86l-2.61,12.84c1.23,.25,1.84,.38,3.07,.64,1.21-5.67,1.82-8.51,3.03-14.18,1.57-.32,3.14-.64,4.72-.98-1.46,6.42-2.19,9.63-3.66,16.06,1.23,.28,1.84,.42,3.06,.71,1.67-7.02,2.51-10.53,4.19-17.55,1.41-.31,2.82-.63,4.24-.96-1.96,7.8-2.94,11.7-4.9,19.5,1.22,.31,1.83,.46,3.05,.78,2.22-8.46,3.32-12.68,5.54-21.14,1.87-.44,3.74-.89,5.63-1.36-2.64,9.49-3.97,14.24-6.61,23.73,1.21,.34,1.82,.51,3.03,.86,2.96-10.22,4.44-15.33,7.4-25.55,1.72-.44,3.45-.89,5.18-1.35-2.85,9.37-5.7,18.73-8.55,28.1,1.21,.37,1.81,.55,3.01,.93,3.17-10.03,6.33-20.06,9.5-30.09,1.78-.48,3.58-.98,5.38-1.48-3.62,10.96-7.25,21.91-10.87,32.87,1.2,.4,1.8,.6,3,1.01,4-11.68,7.99-23.36,11.99-35.04,.32-.09,.64-.18,.97-.27Z"/></g></g><g><g><path class="cls-1" d="M49.45,64.92c-.53-.15-1.29-.32-2.23-.42,0-.62,0-1.26-.05-1.88-.06-1.64-.72-3.14-1.88-4.24-1.24-1.17-2.96-1.77-4.76-1.71-1.92,.02-3.72,.78-4.94,2.07-.2,.21-.38,.43-.55,.66-.08-.46-.19-.85-.28-1.19v-.03c-.01-.48-.04-1.28-.3-2.25l-.26-.75c-.2-.54-.5-1.35-1.18-2.31l-.09-.12c-.46-.59-1.42-1.83-2.92-2.55-1.47-.77-3-.93-4.04-.93h-.19c-.59,0-1.1,.09-1.5,.18-.49-.14-1.15-.28-1.91-.28l-.37,.02c-.8,.06-1.46,.26-1.99,.44-.67,.05-1.26,.14-1.67,.23-1.71,.15-3.25,.88-4.38,2.07-1.18,1.24-1.78,2.87-1.69,4.59,.2,3.53,3.33,6.51,6.87,6.51h.63l.78-.22c.09-.03,.23-.06,.33-.07,.32,0,.62-.03,.89-.07,0,.05,.02,.09,.03,.14,0,.04,.02,.09,.02,.13,.02,.56,.1,1.04,.16,1.4l.02,.14c0,.16,0,.31,.02,.46-.19,.03-.39,.07-.59,.12l-.38,.08c-.58,.12-1.38,.29-2.24,.65-.86,.36-1.53,.79-2.06,1.14l-.31,.2c-.92,.59-1.55,1.27-2.01,1.79-.05,.06-.1,.11-.15,.16l-.18,.16c-.42,.36-1.05,.9-1.61,1.72-.77,1.02-1.18,2.06-1.43,2.77-.43,1.06-.68,2.06-.75,2.95-.06,.47-.05,.94,.01,1.4-.27,1.02-.29,1.99-.06,2.91,.28,1.21,.8,2.12,1.12,2.68l.3,.55c.32,.62,.8,1.55,1.59,2.36,.94,1.02,2.03,1.51,2.79,1.83,.55,.43,1.44,1.1,2.64,1.43,.64,.19,1.31,.28,2,.24,.6,.2,1.15,.25,1.55,.25,1.03,0,2.16-.14,3.05-.36,1.41-.33,2.42-1.07,3.05-1.54,.71-.42,1.55-.94,2.44-1.74l.37-.36c.45-.43,1.14-1.08,1.71-1.98,.46-.72,.73-1.44,.93-1.99,.48,1.78,1.74,3.27,3.52,4.06,1.07,.7,2.16,.81,2.74,.81,3.04,0,6.42-2.12,6.83-5.62,.16-1.16-.02-2.14-.12-2.71,0-.02,0-.04,0-.06,.01-.47-.02-.89-.06-1.25,.26,.03,.45,.06,.55,.07,.04,0,.09,.01,.13,.02l.6,.08c1.77,.09,3.43-.48,4.65-1.64,1.2-1.14,1.87-2.74,1.89-4.44,.17-4.04-2.39-6.29-5.07-6.78Z"/><path class="cls-1" d="M97.69,61.65c-.08-1.63-.8-3.13-2.03-4.22-1.06-.95-2.44-1.55-3.94-1.7-.97-.47-2-.66-3.05-.6-.82,.04-1.43,.18-1.93,.34-.69,.04-1.13,.13-1.52,.21l-1.78,.1c.04-.28,.07-.58,.09-.92v-.11c0-3.53-2.85-6.23-6.57-6.27-1.84-.07-3.58,.52-4.84,1.65-1.21,1.09-1.93,2.61-2.02,4.31,0,.2-.02,.28-.04,.38-.07,.37-.13,.78-.18,1.47-.07,0-.13,0-.2,0-.58-.13-1.25-.23-2.16-.18-1.71,.09-3.32,.9-4.54,2.27-1.26,1.41-1.92,3.23-1.82,4.98,.14,2.59,1.83,4.74,4.35,5.57,1,.56,1.97,.66,2.56,.66h.2c.58-.04,.9-.08,1.19-.13,.03,0,.07,0,.13-.01-.16,.52-.25,1.06-.29,1.64v.18c0,1.44,.58,3.65,2.19,5.11,.52,.49,1.07,.83,1.62,1.07-2.25,.9-4.11,2.93-4.5,5.28-.27,1.62,.13,3.28,1.12,4.66,1.09,1.52,2.84,2.59,4.62,2.87,.08,.01,.15,.04,.27,.07,.42,.11,1,.26,1.75,.32,.6,.05,1.11,.04,1.59,.03h.3c.55,.01,1.03-.02,1.38-.06,.56,.19,1.38,.43,2.38,.43,.14,0,.29,0,.43-.01,.94-.06,1.72-.27,2.43-.45,.1-.03,.2-.05,.23-.06,1.07-.21,2.02-.49,3.01-.87,.14-.06,.29-.11,.5-.19,.52-.19,1.24-.46,1.98-.89,1.18-.69,1.93-1.58,2.43-2.18l.09-.1c.52-.54,1.23-1.36,1.78-2.34,.71-1.18,.89-2.31,1.01-3.08l.05-.15c.2-.56,.57-1.6,.57-2.87,0-1.06-.18-1.98-.37-2.75-.13-.81-.31-1.76-.79-2.9-.48-1.04-1.13-1.78-1.56-2.27h0c-.2-.4-.54-1.06-1.15-1.74,1.32-.36,2.53-1.09,3.44-2.1,1.12-1.25,1.69-2.84,1.6-4.46Zm-18.05,25.97h0Zm-8.08-20.93v-.08h0v.07h0Z"/><path class="cls-1" d="M192.96,75.1l-.33-.15c-3.14-1.29-6.52-.25-8.21,2.48-.18,.18-.38,.37-.61,.62-.07,.06-.18,.13-.33,.23-.13,.09-.26,.18-.38,.27-.26,0-.47,0-.65,.03-.14-.15-.31-.32-.49-.48-.27-.24-.55-.46-.82-.66l-.08-.06c-.37-.4-.73-.73-1.06-1.01,.22-.27,.33-.39,.78-.88q.51-.59,1.13-1.26l.23-.28c.14-.17,.49-.59,.86-1,.16-.17,.25-.26,.33-.34,.21-.2,.41-.39,.79-.81l.04-.03c.36-.26,.96-.69,1.58-1.38l.14-.17c.5-.62,.8-1.22,1-1.62v-.02c.42-.49,.67-.87,.86-1.19l.17-.2c1.59-1.99,1.89-4.53,.83-6.73-.67-1.51-1.8-2.58-3.22-3.13,.48-.99,.74-2.1,.74-3.19,0-3.48-2.5-6.24-5.79-6.48-.51-.17-1.38-.45-2.45-.45s-1.91,.26-2.46,.46c-.2,0-.39,0-.59,.02h-.14c-.09,0-.17,.02-.28,0-.36-.03-.71-.04-1.12-.06-.25,0-.5-.02-.77-.04-.16-.01-.36-.06-.58-.11-.29-.06-.58-.12-.83-.16-1.88-.31-3.8,.11-5.28,1.17-1.36,.98-2.25,2.42-2.52,4.12l-.02,.17c-.17,1.54,.23,2.93,.97,4.08-1.34,.29-2.57,1.01-3.55,2.1-1.23,1.37-1.89,3.15-1.83,4.83,.03,1.73,.75,3.34,2.03,4.56,1.36,1.28,3.2,1.95,5.04,1.84l2.03-.21-.04,.04c-.05,.05-.12,.11-.25,.23-.32,.29-.64,.6-.93,.92-.18,.2-.37,.4-.56,.6l-.15,.16c-.19,.2-.38,.41-.58,.62-.42,.47-.73,.95-.96,1.35-.5,.29-1.11,.71-1.67,1.33-.6,.67-.97,1.33-1.21,1.8-.01,.01-.03,.02-.04,.04-.31,.28-.74,.65-1.16,1.15l-.12,.13c-.34,.37-.64,.71-.99,1.06l-.21,.23c-.41,.49-.52,.61-.69,.8l-.51,.58c-2.39,2.79-2.09,7.29,.64,9.64,1.21,1.03,2.94,1.67,4.53,1.67,1.82,0,3.37-.83,4.62-2.45,.57-.33,1.2-.79,1.87-1.55,.45-.51,.66-.78,.88-1.06,.12-.15,.23-.3,.48-.58,.13-.15,.23-.25,.31-.34l.07,.09c.27,.37,.69,.92,1.21,1.4,.99,.95,2.08,1.37,2.73,1.61,.75,.47,1.45,.73,1.96,.91,.05,.02,.1,.04,.16,.06l.11,.06c.5,.29,1.33,.77,2.41,1.01,.71,.17,1.35,.22,1.92,.22,.47,.14,.98,.2,1.52,.2h.24c.99-.08,1.97-.25,3.07-.57,1.18-.34,2.06-.89,2.66-1.26l.18-.11c.07-.03,.15-.07,.26-.12,.56-.25,1.41-.62,2.3-1.35,.98-.82,1.55-1.74,1.87-2.26l.04-.04c.5-.44,1.44-1.24,2.06-2.59,1.5-3.2,.12-6.86-3.19-8.52Z"/><path class="cls-1" d="M238.52,77.68c-1.27-1.03-2.89-1.51-4.57-1.4-.09,0-.19,.02-.28,.04,.3-.93,.4-1.91,.24-2.82-.06-.43-.16-.82-.27-1.17,.16-.06,.31-.11,.45-.17,.59,.08,1.37,.12,2.23-.06,1.59-.3,2.97-1.21,3.88-2.56,1.03-1.53,1.38-3.52,.95-5.46-.28-1.26-.87-2.46-1.66-3.38-.75-.88-1.68-1.51-2.71-1.86,.69-1.25,.92-2.68,.63-4.06-.63-3.45-3.97-5.68-7.67-5.08-.44-1.14-1.22-2.11-2.24-2.81-1.46-.99-3.36-1.33-5.14-.95-1.3,.23-2.56,.82-3.54,1.65-1.12,.96-1.85,2.22-2.11,3.6-.1,0-.2,.01-.3,.02h-.12c-.36,.06-.71,.12-1.15,.2-.18,.03-.35,.06-.62,.09-3.65,.4-6.41,3.84-6.02,7.53,.16,1.35,.75,2.55,1.66,3.48-1.03,.39-1.94,1.05-2.64,1.94-1.11,1.39-1.62,3.23-1.41,5.08,.28,2.39,1.74,4.34,3.85,5.19,.7,.43,1.49,.67,2.32,.72-.12,.09-.26,.17-.37,.28-1.51,1.32-2.29,3.26-2.09,5.18,.11,1.44,.7,2.5,1.11,3.19,.12,.55,.35,1.58,1.02,2.63,.62,.98,1.37,1.72,1.8,2.15,.89,.95,1.88,1.44,2.58,1.76l.13,.11c.42,.37,1.14,.99,2.21,1.49l.16,.07c.08,.04,.16,.08,.31,.16,.55,.3,1.38,.74,2.54,.99,1.07,.21,2.19,.33,3.15,.33,.51,0,1.02-.08,1.5-.23,.47,.03,.91,.01,1.33-.05,.73-.1,1.38-.25,1.86-.37,.17-.04,.33-.08,.5-.12,.93-.2,1.68-.5,2.28-.74l.65-.26c.8-.37,1.48-.76,2.19-1.17l.57-.35c.45-.25,1.2-.66,1.93-1.32,.74-.67,1.2-1.35,1.59-1.93,.05-.07,.1-.15,.22-.3,1.15-1.46,1.67-3.34,1.43-5.14-.22-1.63-1.05-3.08-2.34-4.09Zm-18.81-3.12c.18,.03,.37,.06,.58,.08,.02,.13,.03,.27,.05,.42-.29-.18-.59-.34-.91-.48,.09,0,.18-.01,.28-.02Z"/><path class="cls-1" d="M147.93,73.25c.17-.81,.41-2.18-.07-3.72-.38-1.22-1.01-2.1-1.44-2.69-.05-.07-.11-.15-.16-.22-.47-.96-1.11-1.66-1.64-2.14-.15-.88-.48-2.04-1.38-3.14-.79-.97-1.69-1.54-2.28-1.92l-.09-.06s-.1-.06-.14-.09c-.79-.73-1.59-1.32-2.35-1.85-.96-.68-1.91-1.02-2.6-1.26-.09-.03-.17-.06-.2-.07-.74-.39-1.42-.66-2.04-.88-.62-.66-1.73-1.7-3.44-2.09-1.47-.34-2.75-.04-3.68,.3-.71-.23-1.65-.44-2.76-.35-1.08,.09-1.93,.37-2.74,.63-.07,.02-.15,.05-.22,.07h-.2c-.7,.04-1.87,.09-3.14,.63-.14,.06-.29,.11-.5,.19-.65,.24-1.55,.56-2.46,1.13-1.45,.91-2.14,2.16-2.54,3-.52,.4-1.2,.94-1.85,1.71-.67,.8-1.13,1.59-1.48,2.2l-.5,.84c-.39,.62-.87,1.4-1.26,2.39-.06,.15-.12,.29-.22,.5-.29,.64-.66,1.44-.89,2.47-.24,1.05-.39,2.09-.44,3.14-.01,.06-.03,.14-.06,.28-.14,.71-.36,1.79-.18,3.1,.2,1.38,.8,2.39,1.31,3.08,.02,.84,.16,2.01,.84,3.21,.68,1.21,1.62,1.93,2.34,2.39,.33,.77,.88,1.81,1.94,2.67l.27,.22c.65,.53,1.46,1.19,2.46,1.74,1.14,.62,2.24,.79,3.03,.92,.08,.01,.16,.02,.23,.04,.81,.25,1.65,.31,2.5,.18,.71,.34,1.61,.63,2.68,.63,.11,0,.22,0,.35,0,1.46-.09,2.59-.65,3.28-1l.06-.03c1.09-.3,1.97-.64,2.83-1.08,.07-.03,.15-.06,.3-.12,.61-.24,1.62-.63,2.6-1.42,1.2-.97,1.83-2.16,2.17-2.81l.09-.17c.13-.17,.26-.34,.39-.51l2.63,1.3c.25,.12,.43,.24,.61,.36,1.19,.76,2.46,1.44,4.97,1.44l3.94-.05,.88-3.83c.22-.97,.27-2.03,.3-2.95,0-.23,.02-.45,.03-.64,.02-.16,.05-.32,.09-.56,.11-.63,.26-1.5,.22-2.51-.03-1.01-.24-1.86-.39-2.5v-.05Zm-2.46,.5h0l1.16-.28h0l-1.17,.28Z"/></g><g><path class="cls-3" d="M48.8,67.85c-.4-.12-1.21-.32-2.28-.4h-.15c-.69,0-1.24,.25-1.69,.45-.07,.03-.15,.07-.22,.1,.03-.36,.05-.73,.05-1.1,0-.54-.1-1.03-.18-1.42-.05-.23-.1-.48-.1-.61,0-.71,0-1.44-.05-2.11-.02-.86-.36-1.64-.95-2.2-.67-.63-1.6-.93-2.66-.89-1.11,.01-2.13,.42-2.8,1.13-.59,.62-.88,1.43-.84,2.29l.13,2.42,.34-.08c0,.06-.02,.13-.03,.2-.05,.38-.11,.8-.11,1.27v.74c-.2,0-.39,0-.56,0h-.12c-.23,0-.47,0-.71,0-.39,0-.79,.02-1.17,0h-.05c-.1-.03-.2-.08-.3-.12-.45-.19-1.06-.45-1.82-.45h-.46c0-.06-.01-.12-.02-.19-.03-.23-.06-.46-.06-.69,0-.46-.05-.86-.09-1.22-.02-.19-.05-.37-.05-.55,.03-.09,.07-.18,.1-.27,.16-.41,.4-1.01,.37-1.75,0-.43-.05-.81-.09-1.15-.02-.21-.05-.42-.05-.62v-.13c-.04-.6-.19-1.1-.29-1.47-.04-.13-.08-.25-.09-.37-.01-.13-.02-.26-.02-.4-.01-.41-.03-.93-.18-1.5l-.19-.52c-.16-.44-.37-1-.77-1.57l-.06-.08c-.35-.45-.99-1.28-1.95-1.74-.92-.49-1.94-.59-2.64-.59h-.19c-.37,0-.7,.08-1.03,.15-.21,.05-.42,.1-.64,.12-.07-.02-.15-.05-.22-.07-.38-.12-.9-.29-1.5-.29h-.16c-.56,.05-1.04,.22-1.38,.34-.09,.03-.17,.06-.25,.09h0c-.84,.04-1.51,.17-1.86,.24-1.02,.06-1.96,.48-2.6,1.16-.61,.64-.92,1.48-.87,2.36,.11,1.93,1.93,3.68,3.83,3.68h.32l.29-.1s.5-.16,1.08-.18c.43,0,.82-.08,1.16-.15,.16-.03,.4-.08,.49-.08h.17c.48-.05,1.04-.05,1.53-.05h.12c.17-.01,.34-.03,.5-.05-.09,.38-.21,.93-.17,1.55,0,.43,.08,.82,.14,1.16,.03,.19,.07,.39,.09,.6,0,.4,.07,.76,.12,1.07,.04,.22,.07,.43,.07,.58,0,.51,.1,.96,.19,1.32,.04,.16,.09,.39,.09,.46,0,.13-.05,.27-.08,.41-.07,.33-.16,.72-.19,1.17-.3,.02-.6,.04-.89,.07h-.11c-.18,.04-.36,.04-.54,.04-.4,0-.89,.02-1.39,.14l-.4,.09c-.52,.11-1.11,.24-1.71,.49-.61,.25-1.13,.59-1.58,.89l-.33,.21c-.59,.38-1.01,.84-1.35,1.22-.1,.11-.2,.22-.3,.33s-.22,.2-.34,.3c-.35,.3-.78,.67-1.15,1.21-.54,.7-.84,1.46-1.05,2.07-.33,.81-.52,1.55-.58,2.26-.06,.46,.03,.85,.16,1.15-.19,.49-.47,1.25-.26,2.11,.18,.78,.54,1.41,.83,1.92l.33,.61c.27,.52,.6,1.16,1.12,1.7,.56,.61,1.28,.91,1.81,1.13,.11,.05,.22,.09,.32,.14,.08,.06,.16,.12,.25,.19,.42,.32,.98,.76,1.72,.97,.59,.18,1.13,.14,1.59,.04,.44,.28,.89,.32,1.09,.32,.79,0,1.67-.11,2.38-.29,.8-.18,1.39-.62,1.82-.95,.12-.08,.22-.17,.39-.26,.61-.36,1.26-.76,1.88-1.32l.08-.07c.09-.09,.19-.18,.29-.28,.39-.37,.88-.83,1.25-1.43,.34-.54,.54-1.1,.69-1.56,.06-.17,.11-.33,.18-.49l.07-.19c.21-.69,.21-1.31,.21-1.81,0-.13,0-.26,0-.4,.03-.19,.06-.38,.09-.57,.08-.44,.16-.89,.19-1.38,.03-.34,.04-.67,.05-1.02,0-.26,.02-.53,.04-.85,.15-.05,.28-.11,.4-.16,.11-.04,.21-.1,.32-.13,.17,.01,.4,.06,.64,.1,.33,.07,.71,.14,1.12,.17h.14c.57,0,1.15,.04,1.76,.08h.26c.2,.01,.39,0,.59-.02v.05c0,.17-.05,.43-.11,.71-.07,.33-.14,.71-.17,1.13-.03,.38-.03,.75-.03,1.13,0,.28,0,.57-.02,.85v.11c-.05,.59-.09,1.2-.18,1.79-.18,1.59,.71,2.93,2.17,3.46,.5,.41,1.06,.46,1.28,.46,1.72,0,3.64-1.15,3.86-3.04,.09-.67-.01-1.27-.1-1.74-.03-.16-.07-.4-.07-.47,.04-.53-.03-1-.08-1.42-.03-.22-.06-.44-.06-.58,.04-.1,.1-.2,.15-.31,.21-.43,.51-1.02,.56-1.74,0-.04,0-.08,0-.12,.55-.01,1.03-.11,1.42-.19,.16-.03,.37-.08,.49-.09,1.02,.08,1.65,.2,1.65,.2l.26,.03c1.22,.07,1.99-.41,2.42-.81,.43-.41,.94-1.15,.96-2.4,.1-2.31-1.25-3.51-2.72-3.72Zm-28.25,8.92c.24-.16,.54-.35,.81-.59,.33-.29,.56-.62,.75-.88,.02-.02,.03-.05,.05-.07h.03c.37,0,.81,0,1.35-.13,.3-.08,.63-.14,1.01-.19v.15c-.02,.26-.03,.52-.05,.77-.04,.48,.02,.91,.07,1.25,.02,.12,.05,.25,.04,.41-.03,.27-.05,.55-.06,.83,0,.19-.02,.47-.03,.58-.13,.08-.35,.19-.51,.27-.23,.12-.46,.23-.67,.36-.4,.21-.73,.3-1.08,.3-.07,0-.22,0-.41,.05h0c-.22-.16-.44-.3-.71-.45-.32-.16-.37-.26-.39-.31-.13-.28-.17-.78-.2-1.15-.01-.33-.1-.61-.21-.84,.02-.11,.04-.19,.06-.25,.05-.03,.11-.07,.16-.1Zm19.09,7.23h.08s-.06,0-.08,0Z"/><path class="cls-3" d="M90.92,58.68h-.05c-.35-.22-1.01-.62-2.04-.56-.66,.03-1.06,.16-1.41,.28q-.14,.05-.27,.05h-.1c-.56,.03-.88,.09-1.2,.16-.19,.04-.3,.06-.59,.08l-1.84,.09c-.34,.02-.51,0-.69,0-.28-.02-.55-.03-1.1,0l-1.42,.08c.02-.61-.04-.99-.11-1.36-.04-.2-.05-.29-.04-.68,0-.09,0-.13,0-.13,.02-.05,.04-.09,.06-.13,.14-.32,.37-.85,.41-1.81,0-1.88-1.55-3.25-3.69-3.27-1.07-.05-2.04,.26-2.72,.88-.62,.55-.98,1.33-1.03,2.21-.02,.41-.05,.57-.09,.79-.05,.29-.12,.65-.15,1.42,0,.79,.13,1.28,.22,1.6,.06,.22,.08,.28,.06,.62,0,.09,0,.18,0,.26-.58,0-.91,.06-1.25,.12-.14,.03-.29,.06-.58,.07-.19,.01-.22,0-.38-.03-.36-.08-.76-.15-1.41-.11-.15,0-.16,0-.33-.04-.38-.1-.82-.19-1.51-.15-.91,.05-1.78,.5-2.47,1.27-.73,.82-1.12,1.85-1.06,2.81,.08,1.49,1.11,2.61,2.61,2.98,.41,.31,.89,.42,1.22,.42h.11c.46-.03,.71-.06,.94-.1,.17-.02,.31-.04,.64-.04h.1c.66-.04,1.05-.15,1.4-.27,.14-.05,.17-.06,.35-.07,.26-.02,.35,0,.52,.01,.16,.02,.37,.04,.65,.04,0,.5,.04,.82,.1,1.13,.03,.16,.04,.24,.05,.44-.03,.63,.04,1.02,.12,1.36,.02,.08,.03,.12,.03,.17-.24,.31-.65,.92-.71,1.89v.11c0,.9,.43,2.18,1.25,2.93,.98,.92,2.29,.78,2.97,.71,.21-.02,.42-.02,.64-.02,.39,0,.8,0,1.19-.03,.07,0,.29,.05,.43,.08,.33,.07,.75,.16,1.22,.16,.59,0,1.09-.15,1.46-.26,.08-.02,.15-.05,.23-.07,.3,.03,.61,.09,.93,.16l.54,.1c.51,.07,.97,.04,1.32,0,.18,.28,.44,.64,.89,.98,.16,.11,.32,.21,.48,.31,.06,.04,.13,.08,.19,.12,0,.06-.02,.13-.02,.19-.04,.33-.09,.75-.09,1.22v.28c0,.24,0,.57-.01,.65-.14,.24-.32,.45-.76,.73l-.1,.07c-.18,.13-.37,.29-.55,.45-.24,.21-.5,.42-.65,.47-.34,.1-.81,.15-1.3,.2l-.48,.06c-.24,.01-.53-.01-.87-.04-.71-.06-1.46-.07-2.3,.02-.31,.04-.62,.06-.83,.06-.09-.04-.25-.13-.36-.19-.4-.22-.9-.5-1.53-.63l-.17-.03c-1.91-.22-4.1,1.4-4.41,3.26-.14,.83,.07,1.69,.6,2.42,.63,.88,1.67,1.51,2.71,1.67,.16,.03,.32,.07,.48,.11,.36,.09,.78,.2,1.26,.24,.49,.04,.93,.03,1.31,.02,.13,0,.26,0,.39,0,.48,.03,.9-.02,1.24-.06,.15-.02,.29-.04,.38-.04,.08,.01,.29,.08,.44,.13,.42,.15,.99,.34,1.64,.34,.07,0,.15,0,.22,0,.67-.04,1.24-.2,1.75-.33,.19-.05,.37-.1,.53-.13,.88-.18,1.67-.4,2.42-.69,.21-.09,.42-.17,.63-.24,.47-.17,1.01-.37,1.52-.67,.73-.42,1.2-.99,1.58-1.45,.08-.09,.15-.18,.23-.27,.42-.42,.98-1.06,1.4-1.82,.42-.7,.54-1.41,.62-1.93,.02-.14,.04-.28,.06-.37,.03-.13,.09-.27,.14-.41,.17-.47,.4-1.12,.4-1.87,0-.79-.16-1.51-.32-2.18-.1-.63-.23-1.41-.57-2.23-.29-.64-.71-1.11-1.05-1.5-.1-.11-.2-.22-.28-.33-.06-.09-.11-.19-.16-.29-.23-.45-.57-1.13-1.3-1.66-.66-.46-1.37-.56-1.85-.63-.12-.02-.23-.03-.26-.02-.55-.25-1.08-.32-1.47-.38-.16-.02-.34-.05-.42-.08l-.19-.06c-.06-.03-.12-.07-.17-.11-.36-.22-.9-.56-1.62-.67l-.13-.02c-.16-.01-.32-.06-.49-.09-.38-.08-.86-.19-1.39-.2-.63-.04-1.16,.12-1.55,.24-.03,0-.06,.02-.1,.03,0-.85-.3-1.42-.52-1.8v-.12c.05,0,.11,0,.17,0h.1c.49-.03,.74-.05,.99-.08,.2-.02,.4-.04,.82-.06h.03c.31,.15,.88,.4,1.79,.38,.64,0,1.04-.09,1.39-.18,.17-.04,.21-.05,.49-.06,.18,0,.19,0,.35,.04,.38,.1,.8,.19,1.49,.15,.68-.03,1.07-.13,1.44-.24,.16-.05,.25-.07,.46-.1,.54-.03,.82-.07,1.09-.11,.17-.03,.35-.05,.69-.07,1.1-.06,2.18-.57,2.89-1.35,.59-.66,.89-1.48,.84-2.3-.04-.83-.41-1.59-1.03-2.15-.69-.62-1.71-.98-2.74-.98Z"/><path class="cls-3" d="M169.68,57.1l.58,.1c.38,.21,.86,.42,1.44,.48,.64,.09,1.33,.14,1.95,.19h.26c.5,.01,.94-.07,1.3-.14,.18-.04,.44-.08,.54-.08h.14c.58,0,1.07-.12,1.47-.22,.13-.03,.3-.08,.42-.1,.09,.04,.17,.08,.25,.13,.44,.22,1.05,.52,1.81,.52,2.14,0,3.41-1.95,3.41-3.84,0-2.03-1.43-3.5-3.33-3.5h0c-.11-.02-.22-.07-.34-.11-.39-.14-.93-.32-1.57-.32-.69,0-1.25,.21-1.66,.36-.11,.04-.21,.09-.26,.11-.33-.02-.68,0-1.02,0-.24,0-.48,.02-.73,0-.35-.02-.68-.04-1.01-.05-.29-.01-.58-.02-.88-.04-.29-.02-.63-.09-1-.17-.24-.05-.48-.1-.7-.14-1.08-.18-2.21,.06-3.03,.65-.7,.5-1.16,1.25-1.3,2.09v.09c-.24,2.02,1.49,3.69,3.25,3.98Z"/><path class="cls-3" d="M191.62,77.78l-.13-.06c-1.84-.76-3.81-.11-4.66,1.55-.07,.09-.16,.17-.26,.25-.17,.17-.35,.34-.55,.56-.17,.2-.45,.42-.88,.69-.22,.15-.43,.32-.65,.51-.09,.08-.22,.19-.28,.23-.16,.06-.32,.12-.47,.18-.28-.1-.53-.12-.69-.12-.25,0-.49,.02-.74,.04-.15,.01-.36,.03-.43,.02-.41-.1-.84-.21-1.02-.31-.1-.08-.17-.18-.25-.28-.17-.2-.38-.45-.66-.7-.2-.18-.41-.34-.63-.5-.14-.11-.34-.26-.4-.32l-.1-.12c-.46-.5-.94-.88-1.37-1.21-.13-.1-.27-.21-.47-.37-.44-.33-.88-.57-1.28-.77,.09-.16,.17-.3,.23-.44,.07-.15,.09-.19,.24-.36,.28-.32,.42-.52,.56-.69,.13-.17,.24-.31,.52-.61l.1-.11q.52-.65,1.13-1.31t1.13-1.26l.1-.11s.52-.65,1.08-1.25c.23-.24,.35-.36,.46-.46,.2-.19,.37-.35,.8-.84,.05-.05,.22-.18,.35-.27,.31-.22,.7-.5,1.06-.9l.07-.09c.31-.39,.51-.78,.67-1.1,.07-.14,.17-.33,.21-.38,.45-.51,.64-.82,.81-1.11,.07-.12,.09-.15,.24-.31l.1-.12c.87-1.09,1.03-2.41,.44-3.64-.32-.73-1.08-1.85-3.04-1.78-.36-.22-1.01-.61-2.03-.56-1.02,0-1.64,.37-1.97,.57h-.02l-.09-.02c-.42-.17-.95-.35-1.68-.31-.7,0-1.08,.07-1.47,.16-.18,.04-.29,.06-.46,.08-.42,0-.63-.01-.84-.02-.27-.01-.54-.04-1.19-.02-.94,.04-1.02,0-1.79,.04-.56,0-.87,.04-1.19,.09-.19,.03-.33,.05-.74,.05h-.15c-.44,.04-.83,.13-1.17,.22-.18,.04-.46,.11-.56,.11h-.02c-.33-.21-.93-.57-1.91-.57h-.11c-.92,.05-1.8,.5-2.48,1.25-.71,.79-1.1,1.82-1.07,2.78,.01,.92,.4,1.77,1.09,2.43,.75,.71,1.75,1.08,2.76,1.02l1.89-.2v-.03h.03q.94-.05,1.93-.05c.58-.03,.93-.09,1.18-.13,.22-.04,.33-.06,.66-.06h.04c.49,.25,1.07,.46,1.94,.42h.71c-.09,.09-.19,.2-.29,.31-.53,.57-.72,1.06-.86,1.56-.02,.02-.05,.05-.07,.08l-.12,.14c-.08,.1-.27,.27-.45,.44-.25,.23-.52,.48-.79,.78-.15,.17-.3,.36-.46,.55-.21,.25-.42,.52-.68,.78l-.15,.16c-.11,.14-.31,.32-.51,.51-.25,.23-.5,.47-.73,.72-.2,.22-.4,.43-.6,.64-.22,.24-.45,.47-.67,.72-.4,.44-.64,.91-.83,1.28-.05,.09-.11,.21-.16,.3-.07,.04-.15,.08-.23,.11-.4,.2-.95,.48-1.42,.99-.4,.44-.64,.91-.83,1.28-.06,.12-.15,.29-.21,.37-.15,.15-.3,.28-.45,.41-.28,.25-.6,.52-.9,.89l-.08,.09c-.4,.44-.76,.84-1.09,1.17l-.12,.12c-.45,.54-.57,.66-.73,.85l-.48,.55c-1.3,1.52-1.15,4.15,.31,5.41,.67,.58,1.69,.95,2.57,.95,1.41,0,2.15-1.13,2.47-1.61,.03-.04,.05-.08,.08-.12,.05-.05,.08-.07,.21-.13,.44-.22,.91-.49,1.48-1.13,.39-.44,.57-.68,.76-.91,.15-.19,.29-.38,.61-.73,.31-.35,.48-.52,.64-.68,.09-.09,.17-.17,.27-.28,.27-.11,.47-.26,.6-.37l.2-.17c.26-.23,.6-.54,.71-.6,.41,.01,.79,.1,1.1,.25,.24,.17,.56,.59,.84,.96l.3,.37c.13,.13,.24,.29,.35,.44,.24,.31,.53,.7,.91,1.06,.56,.54,1.21,.78,1.69,.95,.12,.04,.26,.1,.36,.14,.54,.39,1.1,.59,1.56,.76,.13,.05,.26,.09,.39,.15,.14,.06,.26,.14,.39,.21,.4,.23,.94,.55,1.59,.68,.63,.16,1.21,.15,1.73,.13,.25,.12,.55,.22,.92,.22h.13c.77-.06,1.55-.2,2.44-.45,.77-.22,1.39-.61,1.89-.92,.12-.08,.24-.15,.3-.19,.17-.09,.35-.17,.52-.25,.46-.21,1.04-.46,1.6-.92,.6-.5,.96-1.08,1.22-1.5,.09-.14,.17-.29,.26-.4,.08-.1,.23-.23,.38-.36,.4-.35,.95-.83,1.31-1.59,.8-1.72,.04-3.63-1.81-4.56Z"/><path class="cls-3" d="M236.66,80.03c-.68-.56-1.55-.82-2.48-.76-1,.08-1.95,.55-2.62,1.34-.2,.24-.37,.5-.54,.75-.11,.17-.27,.4-.34,.46l-.09,.08c-.32,.29-.77,.55-1.1,.73-.07,.03-.31,.06-.48,.09-.3,.04-.67,.09-1.01,.19-.28,.07-.55,.16-.83,.26-.27,.09-.5,.17-.71,.21-.45,.04-1.01,.08-1.56,.08-.11-.04-.32-.14-.48-.22-.29-.14-.65-.32-1.06-.47l-.15-.05c-.48-.13-1.02-.29-1.4-.56l-.11-.07c-.17-.1-.34-.19-.52-.29-.13-.07-.31-.17-.33-.17l-.09-.1c-.14-.14-.29-.27-.44-.41-.05-.04-.11-.09-.16-.14,.03-.31,.06-.72,0-1.19-.24-1.85-1.94-3.02-4.08-2.8-.84,.09-1.62,.42-2.2,.93-.8,.7-1.19,1.69-1.08,2.66,.06,.89,.47,1.55,.75,1.99,.06,.09,.12,.18,.18,.33,.06,.15,.09,.32,.12,.47,.1,.45,.24,1.07,.62,1.67,.44,.69,1.01,1.26,1.47,1.72,.54,.57,1.15,.86,1.6,1.06,.12,.06,.25,.11,.39,.2,.13,.08,.3,.23,.49,.39,.36,.32,.82,.71,1.42,.99l.1,.04c.21,.09,.42,.2,.61,.3,.48,.25,1.02,.54,1.71,.69,.87,.17,1.8,.27,2.56,.27,.24,0,.65-.04,1.06-.31,.4,.08,.88,.13,1.37,.05,.58-.08,1.09-.2,1.54-.31,.2-.05,.39-.1,.59-.14,.68-.14,1.27-.38,1.79-.59l.51-.21c.68-.31,1.28-.66,1.91-1.03l.17-.11c.15-.11,.32-.19,.48-.29,.4-.22,.9-.5,1.37-.93,.46-.42,.77-.87,1.03-1.27,.12-.18,.24-.36,.39-.54l.03-.04c.65-.83,.95-1.88,.81-2.88-.12-.86-.55-1.62-1.23-2.14Z"/><path class="cls-3" d="M214.48,72.1c.08,0,.3,.02,.47,.04,.35,.04,.79,.09,1.26,.06,.67-.05,1.19-.28,1.58-.45,.1-.04,.19-.09,.29-.12,.15,0,.3,0,.46-.01,.36,0,.77-.01,1.21-.07,.1,0,.28,.03,.42,.05,.37,.06,.82,.13,1.34,.09l1.61-.25c0,.06,0,.11-.01,.17-.03,.4-.06,.89,.01,1.43,.04,.31,.08,.62,.11,.92,.04,.35,.08,.7,.14,1.14,.26,1.38,1.45,2.37,3.07,2.61,.35,.19,.69,.24,.96,.24h.16l.16-.02c1.06-.17,2.01-.75,2.62-1.59,.53-.73,.74-1.61,.6-2.41-.09-.61-.31-1.1-.48-1.5-.06-.15-.16-.37-.18-.43,0-.08,.02-.3,.05-.46,.05-.38,.12-.85,.07-1.38,.37-.08,.71-.2,.99-.29,.22-.08,.44-.15,.57-.17l.14-.03c.49-.11,.92-.3,1.25-.45,.14-.06,.28-.12,.39-.16,.07,.01,.15,.03,.23,.04,.46,.09,1.08,.21,1.79,.06,.8-.15,1.49-.61,1.95-1.29,.57-.84,.75-2.01,.5-3.13-.17-.78-.53-1.52-1.01-2.08-.8-.94-1.91-1.33-3.07-1.07-.48,.12-.88,.32-1.2,.49-.13,.07-.33,.17-.36,.18l-.18,.04c-.47,.12-1.01,.2-1.61,.29l-.14,.03c-.07,.01-.27,0-.42,0-.29,0-.63-.02-1,.02-.17-.51-.46-.9-.66-1.17,0-.01-.02-.03-.03-.04,0-.03,.01-.07,.02-.1,.08-.41,.19-.96,.08-1.6h0c.34,.01,.75,.02,1.21-.06,.43-.08,.8-.21,1.1-.32,.17-.06,.36-.13,.42-.14,1.16-.19,2.1-.75,2.65-1.57,.45-.67,.61-1.49,.45-2.29-.34-1.84-2.15-3-4.21-2.67-.2,.04-.42,.05-.64,.07-.32,.03-.65,.06-1.01,.12-.29,.05-.58,.13-.88,.21-.16,.04-.33,.09-.5,.13v-.02c-.01-.09,0-.25,0-.37,0-.37,.02-.88-.1-1.43-.15-.82-.61-1.52-1.29-1.98-.79-.54-1.86-.71-2.93-.49-.79,.14-1.54,.49-2.11,.98-.9,.77-1.31,1.83-1.12,2.94,.06,.33,.16,.62,.25,.88-.42,.11-.77,.28-1.04,.41-.1,.05-.2,.1-.29,.14-.16,0-.37-.01-.58-.03-.36-.03-.77-.05-1.3,0-.33,.04-.63,.09-.92,.15-.3,.05-.59,.1-.91,.13-1.97,.22-3.58,2.21-3.37,4.2,.2,1.71,1.75,2.9,3.78,2.9,.12,0,.24-.01,.37-.03,.49,.19,1.2,.46,2.1,.34,.28-.04,.56-.09,.84-.15,.33-.06,.68-.13,1.09-.18,.71-.11,1.25-.45,1.64-.71,.03-.02,.05-.04,.08-.05v.03c.03,.16,.03,.38,.03,.61,0,.36,0,.76,.08,1.21,.07,.43,.2,.81,.31,1.14,.02,.05,.03,.1,.05,.15l-1.8,.26c-.55,.07-1.02,.23-1.4,.35-.23,.08-.46,.15-.58,.17-.1,.03-.33-.04-.5-.07-.4-.07-.89-.17-1.46-.13h-.12c-.46,.07-.86,.18-1.2,.28-.26,.07-.5,.14-.66,.15h-.12c-.67,.1-1.28,.14-1.98,.2-.85,.09-1.62,.52-2.16,1.2-.61,.77-.9,1.81-.78,2.86,.17,1.44,1.01,2.47,2.24,2.84,.45,.36,.94,.43,1.25,.43h.17c.43-.04,.81-.13,1.14-.22,.23-.05,.44-.11,.6-.12Z"/><path class="cls-3" d="M144.87,73.3c0-.09,.06-.35,.09-.52,.13-.62,.31-1.47,.03-2.38-.23-.75-.65-1.33-.99-1.81-.16-.22-.33-.46-.4-.61-.37-.81-.99-1.32-1.44-1.69-.11-.09-.28-.23-.36-.31-.02-.11-.04-.29-.05-.41-.07-.66-.18-1.56-.82-2.35-.49-.6-1.09-.99-1.58-1.3-.23-.15-.47-.3-.59-.41-.69-.64-1.42-1.18-2.12-1.67-.61-.44-1.25-.66-1.77-.84-.26-.09-.51-.18-.69-.27-.7-.37-1.37-.61-2.02-.85l-.32-.11c-.08-.07-.2-.21-.29-.31-.44-.48-1.1-1.2-2.13-1.44-1.09-.25-2.03,.19-2.65,.48-.09,.04-.2,.09-.29,.13-.11-.04-.25-.1-.35-.14-.55-.23-1.31-.54-2.22-.46-.74,.06-1.39,.27-1.95,.46-.23,.07-.46,.15-.69,.21-.13,.03-.4,.04-.65,.05-.59,.02-1.33,.05-2.09,.38-.21,.09-.44,.17-.67,.26-.59,.21-1.25,.45-1.88,.85-.87,.55-1.26,1.38-1.54,1.99-.06,.12-.14,.3-.19,.39-.16,.13-.32,.26-.48,.38-.47,.36-.99,.77-1.47,1.33-.51,.61-.88,1.25-1.2,1.81l-.52,.88c-.34,.55-.73,1.18-1.03,1.92-.08,.21-.18,.42-.27,.62-.25,.55-.54,1.17-.7,1.9-.21,.9-.33,1.8-.37,2.67,0,.16-.06,.41-.11,.67-.12,.58-.26,1.29-.15,2.08,.14,.97,.68,1.65,1.08,2.14,.08,.1,.2,.24,.26,.33,0,.11,0,.3,0,.43,0,.63-.02,1.5,.45,2.33,.48,.85,1.23,1.28,1.78,1.59,.11,.06,.27,.16,.36,.22,.04,.1,.11,.27,.16,.39,.22,.59,.53,1.4,1.28,2.01l.26,.21c.58,.48,1.24,1.02,2,1.43,.69,.38,1.42,.49,2,.58,.26,.04,.52,.08,.68,.13,.85,.27,1.59,.03,2.08-.18h0c.5,.35,1.25,.86,2.25,.86,.06,0,.11,0,.17,0,.84-.05,1.53-.39,2.03-.64,.19-.09,.4-.2,.51-.23,.98-.27,1.73-.55,2.44-.91,.18-.09,.37-.16,.57-.24,.53-.21,1.19-.46,1.8-.96,.72-.58,1.11-1.33,1.4-1.87,.11-.21,.23-.43,.31-.54,.65-.81,1.14-1.6,1.54-2.48,.09-.2,.22-.39,.33-.58,.35-.57,.79-1.27,.93-2.21l.07-.47c.12-.75,.28-1.69,.13-2.68-.13-.84-.49-1.54-.78-2.1-.09-.17-.18-.34-.25-.52-.41-.93-1.15-1.42-1.64-1.75-.11-.08-.28-.19-.32-.23-.49-.61-.99-1.25-1.79-1.84-.69-.52-1.34-.97-2.26-1.34-.08-.03-.25-.14-.41-.24-.49-.31-1.16-.74-2.08-.82-.99-.08-1.77,.33-2.28,.6-.06,.03-.12,.07-.18,.1-.06-.02-.13-.04-.2-.07-.65-.21-1.75-.56-2.84,.03-.68,.36-1.09,.89-1.38,1.33,.07-.25,.11-.48,.15-.68,.02-.09,.03-.19,.05-.27,.2-.14,.47-.28,.74-.43,.28-.15,.56-.3,.82-.46,.21-.13,.58-.24,.96-.36,.3-.09,.59-.18,.88-.29,.4-.15,.74-.34,1.05-.5,.21-.11,.47-.25,.64-.31,.1,.03,.26,.09,.37,.13,.45,.16,1,.36,1.66,.38,.81,.03,1.52-.3,2.03-.53,.01,0,.03-.01,.04-.02,.02,.02,.04,.04,.06,.06,.38,.41,.89,.97,1.65,1.28,.69,.27,1.34,.28,1.87,.29,.13,0,.33,0,.43,.02,.18,.11,.37,.21,.57,.32,.45,.25,.88,.49,1.16,.73,.45,.38,1.1,.94,1.54,1.44,.05,.09,.14,.38,.21,.57,.14,.44,.31,.99,.64,1.51,.35,.56,.66,1.16,.95,1.85,.24,.56,.59,1.01,.87,1.37,.07,.1,.17,.22,.24,.32-.03,.08-.06,.16-.09,.22-.22,.54-.53,1.27-.46,2.13,.03,.29-.02,.64-.08,1.05-.04,.31-.08,.62-.11,.94-.05,.66,.09,1.23,.2,1.69,.04,.17,.1,.42,.11,.42l-.35,1.54,1.42,.7c.37,.18,.63,.35,.89,.52,.91,.58,1.64,.97,3.32,.97l1.58-.02,.35-1.54c.16-.69,.19-1.55,.22-2.31,.01-.33,.02-.65,.05-.9,.03-.26,.07-.51,.12-.77,.1-.57,.21-1.21,.18-1.91-.02-.71-.17-1.35-.31-1.91-.06-.25-.12-.49-.15-.68Zm-24.27-.43l1.33,.85,1.13-1.1c.1-.09,.37-.15,.8-.25l.61-.14c.28-.07,.7-.17,.81-.17,.5,.2,1.42,.56,1.64,.85,.29,.37,.58,1.11,.68,1.77,.05,.31-.13,.98-.26,1.44-.07,.28-.13,.59-.18,.93-.01,.09-.03,.2-.05,.31-.6,.08-1.39,.21-2.07,.76-.43,.35-.73,.74-.98,1.05-.07,.09-.16,.21-.23,.29-.14,0-.4-.01-.59-.03-.35-.03-.69-.05-1.04-.04-.26,0-.52,.03-.78,.06-.32,.03-.69,.07-.83,.02-.51-.17-1.01-.21-1.41-.25-.1,0-.24-.02-.35-.04-.04-.08-.07-.16-.1-.23-.2-.44-.44-.98-.9-1.47-.32-.33-.64-.58-.93-.8-.16-.12-.4-.31-.45-.36-.07-.12-.13-.48-.18-.77-.06-.33-.12-.67-.21-.98-.13-.46-.32-.84-.48-1.18-.07-.15-.18-.37-.22-.47,.04-.11,.13-.29,.19-.42,.17-.36,.38-.8,.5-1.33,.17-.73,.06-1.39-.02-1.92h0c.29-.13,.64-.29,.98-.51l.89,1.42c.86,1.38,1.13,1.71,2.7,2.7Z"/></g></g><g><path class="cls-1" d="M85.79,22.21c-.03-.89-.22-6.11-.66-9.38-.3-2.17-1.94-3.94-4.09-4.4h-.01c-7.48-1.6-33.2-7.21-33.2-7.21-2.56-.56-5.21,.67-6.43,2.99l-3.36,6.36c-.3,.57-.86,.94-1.49,1l-2.31,.21c-3.81,.35-7.01,2.94-8.16,6.59l-.36,1.13c-.49,1.57-.3,3.28,.53,4.71,.83,1.42,2.22,2.44,3.83,2.79l.34,.07c.82,3.36,3.52,6.05,6.96,6.8s7.02-.59,9.16-3.31l15.27,3.31c.82,3.36,3.52,6.05,6.96,6.8s7.09-.62,9.22-3.39c2.78,.09,5.31-1.81,5.92-4.62l1.82-8.37c.15-.69,.17-1.38,.07-2.07Z"/><g><path class="cls-5" d="M83.15,13.1c-.19-1.36-1.21-2.45-2.55-2.74-7.49-1.6-33.2-7.21-33.2-7.21-1.7-.37-3.44,.44-4.25,1.98l-3.36,6.36c-.61,1.16-1.77,1.93-3.07,2.05l-2.3,.21c-3,.28-5.54,2.33-6.44,5.2l-.36,1.13c-.68,2.18,.65,4.47,2.88,4.95l46.85,10.16c2.09,.45,4.16-.88,4.61-2.97l1.82-8.37c.1-.48,.12-.98,.03-1.47,0,0-.18-5.84-.65-9.29Z"/><g><path class="cls-1" d="M53.94,16.52l-11.21-2.43,3.14-6.82c.52-1.12,1.74-1.73,2.94-1.47l7.11,1.54-1.99,9.17Z"/><rect class="cls-1" x="56.85" y="8.9" width="11.47" height="9.39" transform="translate(4.3 -12.95) rotate(12.23)"/><path class="cls-1" d="M69.23,19.84l11.21,2.43-.04-7.51c0-1.23-.87-2.29-2.07-2.55l-7.11-1.54-1.99,9.17Z"/></g><circle class="cls-1" cx="39.54" cy="24.38" r="4.95"/><circle class="cls-1" cx="70.65" cy="32.09" r="4.95"/><g><path class="cls-5" d="M69.18,38.72c-3.87-.84-6.34-4.67-5.5-8.54s4.67-6.34,8.54-5.5c3.87,.84,6.34,4.67,5.5,8.54s-4.67,6.34-8.54,5.5Zm2.35-10.82c-2.09-.45-4.17,.88-4.62,2.98s.88,4.17,2.98,4.62,4.17-.88,4.62-2.98-.88-4.17-2.98-4.62Z"/><path class="cls-5" d="M37.79,31.91c-3.87-.84-6.34-4.67-5.5-8.54,.84-3.87,4.67-6.34,8.54-5.5,3.87,.84,6.34,4.67,5.5,8.54s-4.67,6.34-8.54,5.5Zm2.35-10.82c-2.09-.45-4.17,.88-4.62,2.98s.88,4.17,2.98,4.62,4.17-.88,4.62-2.98c.45-2.09-.88-4.17-2.98-4.62Z"/></g></g></g></g></g></svg>