<?xml version="1.0" encoding="UTF-8"?><svg id="_イヤー_2" xmlns="http://www.w3.org/2000/svg" viewBox="0 0 384.08 608.59"><defs><style>.cls-1{fill:#fff;}.cls-2{fill:#88c1d8;}.cls-3{opacity:.8;}</style></defs><g id="_イヤー_1-2"><g><g class="cls-3"><path class="cls-1" d="M370.52,409.01c-.07,.62-.05,1.64,.03,3,.05-.67,.06-1.57-.03-3Z"/><path class="cls-1" d="M371.77,175.11c-.13-.14-.24,.07-.32,.45,.16,1.29,.3,2.36,.41,2.98-.06-.99-.13-1.93-.08-3.43Z"/><path class="cls-1" d="M370.93,146.89s.08-.18,.12-.21c-.07-1.03-.1-.73-.12,.21Z"/><path class="cls-1" d="M370.91,221.75c.33-.88,.6-1.6,.79-7.89-.26,2-.53,4.78-.79,7.89Z"/><polygon class="cls-1" points="371.41 156.43 371.21 153.56 371.64 164.26 371.41 156.43"/><path class="cls-1" d="M370.4,100.08c.07,1.25,.19,2.39,.4,3.06l-.4-3.06Z"/><path class="cls-1" d="M12.69,244.96l.02-2.46c-.07,.76-.06,1.64-.02,2.46Z"/><path class="cls-1" d="M13.73,404.6l-.17,.17c.07,1.41,.18,2.77,.31,3.99,.01-1.5-.01-2.94-.14-4.16Z"/><polygon class="cls-1" points="14.36 554.74 14.59 551.29 14.42 550.79 14.36 554.74"/><path class="cls-1" d="M370.98,493.93c.16-5.2,1.01-12.64,.87-21.1-.11-9.12-1.6-8.76-2.45-12.66v-.57c.99,.72,1.11,5,1.96,5.08l-.51-6.48c.4,2.02,.35-3.93,.76-1.94-1.26-12,.49-16.79-.08-29.23l-.19,6.93c-.07,0-.13-.07-.18-.18,.29-3.5,.26-7.2,.11-10.65,.18-1.91,.22-4.16,.44-7.97-.46-5.49-1.5-8.56-1.49-15.99,.27,.38,.44-.14,.56-1.16-.04,1.69-.04,2.92,.37,2.71,.08-3.07,.08-6.66,.03-10.61,.1-2.27,.25-4.2,.57-4.68-1.1-1.58-.39-14.4-1.03-15.44-.23-3.99-.11-9.45,.48-9.39,.03,.59,.14,1.75,.19,3l.04-3.97c.13,.38,.22,.25,.24,.7,.03-3.54-.77-3.57-.23-8.12,.29,.05,.28,2.5,.4,4.5,.19-9.41-1.66-16.52-.67-24.34-.45-1.34-.54-9.76-1.33-10.37,0-.45-.01-.9-.02-1.35,.43-1.31,.92-2.19,.8-8.15-.98-4.54,.36-8.88-.27-14.88,1.04,8.03,.29,.03,1.28,7.06,.41-5.41-.92-13.46-.74-22.88,.23-.94,.53-.92,.76-1.9-.05-.55-.12-1.11-.19-1.68,0-2.47-.13-3.68-.34-2.99-.21-2.14-.28-4.3,.19-6.24l-.7,.42c.36-6.43,.14-15.35,.9-22.22l-1.33-8.03c.61-4.7,.71-10.1,.54-15.4,.06-.69,.12-1.37,.17-2.03-.07,.18-.15,.38-.23,.63-.1-2.29-.24-4.55-.42-6.71,.19-.04,.38,.06,.52,.13,.09-2.88-.03-5.25-.21-7.37l.6-5.34-.65,.73c.07,1.46,.09,2.93,.02,4.31-.38-4.18-.99-7.39-.7-11.6,.11,.88,.24,2.02,.37,3.3,.05-5.82,.81-12.92-.3-16.18-.25-4.32,.26-4.69,.63-6.24,.08,2.38,.16,4.73,.3,6.11,.21-2.1,.27-6.53,.6-7.96-.33-2.77-.73-6.75-1.11-10.69,0-1.83,.01-3.71,.04-5.59,.51-1.47,.48-9.71,.54-12.39-.11,.14-.21,.4-.29,.76,.07-4.96-.01-9.08-.62-11.15,.2-.02,.44,.33,.67,.44-.14-2.06-.22-3.86-.27-5.5,.33-4.15,.35-8.19,.22-12.13,.01-.08,.02-.16,.04-.25l-.07-.74c-.09-2.27-.21-4.5-.34-6.7,.2,.35,.49,4.19,.58-1.08-.36-.81-.75-6.54-.66-12.05l.21,1.58c-.17-2.94-.08-6.74-.35-8.07,.1-.99,.22-1.97,.39-2.93-.02-.57-.04-1.16-.07-1.76l.08-.39-.09,.11c-.07-2.03-.15-4.19-.24-6.35,.54-7.04,1.36-12.25,.7-23.71-.15,2.52-.38,1.61-.54,.18,0-.9-.03-1.84-.08-2.79-.03,.31-.05,.68-.08,1.07v-.09c-.49,6.22,.51,7.68,.61,13.57-.4,.51-.85-2.64-1.23-3.98-.03-.48-.06-1-.1-1.54v-10.01c.15-1.9,.43-3.48,1.02-4.64,.03-2.37,0-4.37-.06-6.19-.02-.46-.04-.9-.05-1.34-.04-.47-.08-.94-.12-1.39-.05-.46-.07-.91-.14-1.35-.08-.44-.17-.88-.25-1.32-.09-.44-.15-.88-.26-1.31-.12-.43-.25-.86-.37-1.3-.12-.5-.29-1-.47-1.5-.89-3.72-2.59-7.11-4.92-9.94-1.74-2.62-3.86-4.45-5.94-5.66-2.18-1.25-4.27-2.01-6.28-2.35-1.42-.3-2.77-.42-4.11-.49-.24-.02-.49-.03-.73-.04-2.21-.1-4.43-.15-6.88-.75l.96-.05c-1.62-.15-4.33,.08-6.88,.26-9.97-.85-10.58,.32-18.34,.24-.21-.04-.43-.09-.68-.12-.28,.03-.51,.07-.71,.1-1.4-.04-3.01-.11-4.91-.24l-1.16,.54H176.95c-2.33-.23-5.12-.34-8.96-.15-.82,.05-1.48,.1-2,.15H39.5c-3.17,0-6.19,.65-8.95,1.83,.51-.28,.96-.55,1.31-.78,.73-.51,1.09-.74,.68-.87-.82,.28-1.7,.7-2.62,1.17-.89,.55-1.87,1.08-2.78,1.82-.67,.46-1.3,1-1.95,1.56-.13,.08-.26,.16-.39,.25-.74,.5-1.44,1.03-2.11,1.58,.59-.76,1.35-1.58,2.21-2.33,1.46-1.39,3.18-2.52,4.21-3.45-.99,.4-1.82,.74-2.46,1.15-.65,.39-1.21,.67-1.61,1.02-.83,.68-1.38,1.12-1.84,1.7-.24,.28-.48,.57-.76,.9-.28,.32-.61,.67-.96,1.14-.74,.9-1.76,2.09-3.05,4.08l-.52-.98c-1.13,1.91-2.02,3.97-2.64,6.1-.37,.65-.72,1.31-1.02,2-.36,1.05-.49,1.95-.63,2.65-.06,.35-.12,.66-.17,.92-.03,.27-.04,.5-.05,.68-.04,.75,0,.88,.08,.59,.11-.29,.19-1.02,.5-1.93,.13-.46,.28-.97,.44-1.52,.08-.24,.18-.49,.28-.74,.47-.67,.82-1.08,1.09-1.35-.3,.82-.54,1.8-.74,2.92-.1,.78-.28,1.6-.29,2.5-.06,.89-.14,1.83-.1,2.82-.02,.99,0,2.02,0,3.1,0,1.08-.05,2.21-.15,3.37-.78,4.41-.38-9.45-1.27-4.56,.98,2.07,.28,4.98,.57,9.96-.93-1.08-.13,10.39-1.17,7.33l1.72,17.49c-.53,2.81-.44,7.88-.3,11.6,0-4.18,.28-4.14,.62-3.73v3.74c-.16,1.02-.35,1.74-.54,2.08-.03-.62-.05-1.33-.08-2.1,0,.65,0,1.38,.02,2.22-.14,.19-.28,.15-.42-.16l.4,8.22c.04,.25,.09,.44,.15,.59-.58,1.95-1.32,6.76-1.62,7.1,.14,3.15,.32,5.89,.51,8.4-.16,5.2-1.01,12.64-.87,21.1,.11,9.12,1.6,8.76,2.45,12.66v.57c-.99-.72-1.11-5-1.96-5.08l.51,6.48c-.4-2.02-.35,3.93-.76,1.94,1.26,12-.49,16.79,.08,29.23l.19-6.93c.07,0,.13,.07,.18,.18-.29,3.5-.26,7.2-.11,10.65-.18,1.91-.22,4.16-.44,7.97,.46,5.49,1.5,8.56,1.49,15.99-.27-.38-.44,.14-.56,1.16,.04-1.69,.04-2.92-.37-2.71-.08,3.07-.08,6.66-.03,10.61-.1,2.27-.25,4.2-.57,4.68,1.1,1.58,.39,14.4,1.03,15.44,.23,3.99,.11,9.45-.48,9.39-.03-.59-.14-1.75-.19-3l-.04,3.97c-.13-.38-.22-.25-.24-.7-.03,3.54,.77,3.57,.23,8.12-.29-.05-.28-2.5-.4-4.5-.19,9.41,1.66,16.52,.67,24.34,.45,1.34,.54,9.76,1.33,10.37,0,.45,.01,.9,.02,1.35-.43,1.31-.92,2.19-.8,8.15,.98,4.54-.36,8.88,.27,14.88-1.04-8.03-.29-.03-1.28-7.06-.41,5.41,.92,13.46,.74,22.88-.23,.94-.53,.92-.76,1.9,.05,.55,.12,1.11,.19,1.68,0,2.47,.13,3.68,.34,2.99,.21,2.14,.28,4.3-.19,6.24l.7-.42c-.36,6.43-.14,15.35-.9,22.22l1.33,8.03c-.61,4.7-.71,10.1-.54,15.4-.06,.69-.12,1.37-.17,2.03,.07-.18,.15-.38,.23-.63,.1,2.29,.24,4.55,.42,6.71-.19,.04-.38-.06-.52-.13-.09,2.88,.03,5.25,.21,7.37l-.6,5.34,.65-.73c-.07-1.46-.09-2.93-.02-4.31,.38,4.18,.99,7.39,.7,11.6-.11-.88-.24-2.02-.37-3.3-.05,5.82-.81,12.92,.3,16.18,.24,4.32-.26,4.69-.63,6.24-.08-2.38-.16-4.73-.3-6.11-.21,2.1-.27,6.53-.6,7.96,.33,2.77,.73,6.75,1.11,10.69,0,1.83-.01,3.71-.04,5.59-.51,1.47-.48,9.71-.54,12.39,.11-.14,.21-.4,.29-.76-.07,4.96,.01,9.08,.62,11.15-.2,.02-.44-.33-.67-.44,.14,2.06,.22,3.86,.27,5.5-.33,4.15-.35,8.19-.22,12.13-.01,.08-.02,.16-.04,.25l.07,.74c.09,2.27,.21,4.5,.34,6.7-.2-.35-.49-4.19-.58,1.08,.35,.81,.75,6.54,.66,12.05l-.21-1.58c.17,2.94,.08,6.74,.35,8.07-.1,.99-.22,1.97-.39,2.93,.02,.57,.04,1.16,.07,1.76l-.08,.39,.09-.11c.07,2.03,.15,4.19,.24,6.35-.54,7.04-1.36,12.25-.7,23.71,.15-2.52,.38-1.61,.54-.18,0,.9,.03,1.84,.08,2.79,.03-.31,.05-.68,.08-1.07v.09c.49-6.22-.51-7.68-.61-13.57,.4-.51,.85,2.64,1.23,3.98,.03,.48,.06,1,.1,1.54v10.01c-.15,1.9-.43,3.48-1.02,4.64-.03,2.37,0,4.37,.06,6.19,.02,.46,.04,.9,.05,1.34l.12,1.39c.05,.46,.07,.91,.14,1.35,.08,.44,.17,.88,.25,1.32,.09,.44,.15,.88,.26,1.31,.12,.43,.25,.86,.37,1.3,.12,.5,.29,1,.47,1.5,.89,3.72,2.59,7.11,4.92,9.94,1.74,2.62,3.86,4.45,5.94,5.66,2.18,1.25,4.27,2.01,6.28,2.35,1.42,.3,2.77,.42,4.11,.49,.24,.02,.49,.03,.73,.04,2.21,.1,4.43,.15,6.88,.75l-.96,.05c1.62,.15,4.33-.08,6.88-.26,9.97,.85,10.58-.32,18.34-.24,.21,.04,.43,.09,.68,.12,.28-.03,.51-.07,.71-.1,1.4,.04,3.01,.11,4.91,.24l1.16-.54H207.13c2.33,.23,5.12,.34,8.96,.15,.82-.05,1.48-.1,2-.15h126.49c3.17,0,6.19-.65,8.95-1.83-.51,.28-.96,.55-1.31,.78-.73,.51-1.09,.74-.68,.87,.82-.28,1.7-.7,2.62-1.17,.89-.55,1.87-1.08,2.78-1.82,.67-.46,1.3-1,1.95-1.56,.13-.08,.26-.16,.39-.25,.74-.5,1.44-1.03,2.11-1.58-.59,.76-1.35,1.58-2.21,2.33-1.46,1.39-3.18,2.52-4.21,3.45,.99-.4,1.82-.74,2.46-1.15,.65-.39,1.21-.67,1.61-1.02,.83-.68,1.38-1.12,1.84-1.7,.24-.28,.48-.57,.76-.9,.28-.32,.61-.67,.96-1.14,.74-.9,1.76-2.09,3.05-4.08l.52,.98c1.13-1.91,2.02-3.97,2.64-6.1,.37-.65,.72-1.31,1.02-2,.36-1.05,.49-1.95,.63-2.65,.06-.35,.12-.66,.17-.92,.03-.27,.04-.5,.05-.68,.04-.75,0-.88-.08-.59-.11,.29-.19,1.02-.5,1.93-.13,.46-.28,.97-.44,1.52-.08,.24-.18,.49-.28,.74-.47,.67-.82,1.08-1.09,1.35,.3-.82,.54-1.8,.74-2.92,.1-.78,.28-1.6,.29-2.5,.06-.89,.14-1.83,.1-2.82,.02-.99,0-2.02,0-3.1,0-1.08,.05-2.21,.15-3.37,.78-4.41,.38,9.45,1.27,4.56-.98-2.07-.28-4.98-.57-9.96,.93,1.08,.13-10.39,1.17-7.33l-1.72-17.49c.53-2.81,.44-7.88,.3-11.6,0,4.18-.28,4.14-.62,3.73v-3.74c.16-1.02,.35-1.74,.54-2.08,.03,.62,.05,1.33,.08,2.1,0-.65,0-1.38-.02-2.22,.14-.19,.28-.15,.42,.16l-.4-8.22c-.04-.25-.09-.44-.15-.59,.58-1.95,1.32-6.76,1.62-7.1-.14-3.15-.32-5.89-.51-8.4Zm-1.42-48.21c-.01,.13-.04,.23-.05,.34l-.11-.18v-2.09l.16,1.93Zm-.16,24.63v-5.74c.02-.2,.03-.42,.05-.65l.82,12.09c-.32-2.24-.59-5.42-.87-5.71Zm0-85.38l.02,.29c0,.44,0,.89-.02,1.33v-1.62Zm.01-39.95c0,.1,0,.2-.01,.3v-.3Zm.03-200.3c0-.05-.01-.11-.02-.17,0,.06,0,.1,0,.16v-10.02c.1,.47,.18,1.51,.2,3.49-.04,1.88-.11,4.1-.17,6.55Zm1.51,287.96c-.11-1-.15-2.44-.2-3.88,.13-.08,.27-.44,.44-1.26-.02,2.45-.13,3.45-.24,5.15Zm.37-12.09c-.04,.29-.07,.54-.11,.75-.2-3.68-.5-6.98-.64-9.33-.07,.96-.23,1.5-.32,2.42-.19-1.97-.51-3.41-.83-5.07v-10.5c.12,.54,.19,1.57,.17,3.54-.03,.39-.06,.79-.1,1.17,.03-.02,.06-.03,.08-.04,.06,.08,.11,.08,.16,.04,.95,.77,1.49,10.59,1.6,17.01Zm-1.65-147.64c.12-1.18,.27-1.53,.46,.58-.12-.47-.27-.69-.46-.58Zm.04-20.69c-.11-.07-.21-.44-.31-.95v-5.77c.15,.35,.29,1.07,.43,2.5-.04,1.68-.08,3.06-.13,4.22Zm1.58,46.46c-1.3,6.58-.12-12.13-1.01-2.63,.15-2.35,.33-4.48,.55-6.28,.18,2.05,.35,4.66,.46,8.91Zm-.46-8.96c-.2,.58-.26-.69-.27-2.77,.09,.87,.18,1.75,.27,2.77Zm-1.37-92.45c.08-1.08,.18-1.79,.28-1.77,.02,.19,.05,.41,.07,.65l-.35,1.12Zm.68-88.04c-.11-1.89-.22-3.75-.29-5.58,.21,1.24,.33,2.94,.29,5.58ZM329.62,14.55c1.04-.05,2.15-.15,3.52-.33,.89,.13,2.36,.23,3.73,.33h-7.25ZM14.53,162.87c.01-.13,.04-.23,.05-.34l.11,.18v2.09l-.16-1.93Zm.16-24.63v5.74c-.02,.2-.03,.42-.05,.65l-.82-12.09c.32,2.24,.59,5.42,.87,5.71Zm0,85.38l-.02-.29c0-.44,0-.89,.02-1.33v1.62Zm-.01,39.95c0-.1,0-.2,.01-.3v.3Zm-.03,200.3c0,.05,.01,.11,.02,.17,0-.06,0-.1,0-.16v10.02c-.1-.47-.18-1.51-.2-3.49,.04-1.88,.11-4.1,.17-6.55Zm-1.51-287.96c.11,1,.15,2.44,.2,3.88-.13,.08-.27,.44-.44,1.26,.02-2.45,.13-3.45,.24-5.15Zm-.37,12.09c.04-.29,.07-.54,.11-.75,.2,3.68,.5,6.98,.64,9.33,.07-.96,.23-1.5,.32-2.42,.19,1.97,.51,3.41,.83,5.07v10.5c-.12-.54-.19-1.57-.17-3.54,.03-.39,.06-.79,.1-1.17-.03,.02-.06,.03-.08,.04-.06-.08-.11-.08-.16-.04-.95-.77-1.49-10.59-1.6-17.01Zm1.65,147.64c-.12,1.18-.27,1.53-.46-.58,.12,.47,.27,.69,.46,.58Zm-.04,20.69c.11,.07,.21,.44,.31,.95v5.77c-.15-.35-.29-1.07-.43-2.5,.04-1.68,.08-3.06,.13-4.22Zm-1.58-46.46c1.3-6.58,.12,12.13,1.01,2.63-.15,2.35-.33,4.48-.55,6.28-.18-2.05-.35-4.66-.46-8.91Zm.46,8.96c.2-.58,.26,.69,.27,2.77-.09-.87-.18-1.75-.27-2.77Zm1.37,92.45c-.08,1.08-.18,1.79-.28,1.77-.02-.19-.05-.41-.07-.65l.35-1.12Zm-.68,88.04c.11,1.89,.22,3.75,.29,5.58-.21-1.24-.33-2.94-.29-5.58Zm40.5,94.71c-1.04,.05-2.15,.15-3.52,.33-.89-.13-2.36-.23-3.73-.33h7.25Z"/><path class="cls-1" d="M13.57,199.58c.08-.62,.05-1.64-.03-3-.05,.67-.06,1.57,.03,3Z"/><path class="cls-1" d="M12.31,433.48c.13,.14,.24-.07,.32-.45-.16-1.29-.3-2.36-.41-2.98,.06,.99,.13,1.93,.08,3.43Z"/><path class="cls-1" d="M13.16,461.7s-.08,.18-.12,.21c.07,1.03,.1,.73,.12-.21Z"/><path class="cls-1" d="M13.18,386.84c-.33,.88-.6,1.6-.79,7.89,.26-2,.53-4.78,.79-7.89Z"/><polygon class="cls-1" points="12.67 452.16 12.87 455.03 12.44 444.33 12.67 452.16"/><path class="cls-1" d="M13.69,508.51c-.07-1.25-.19-2.39-.4-3.06l.4,3.06Z"/><path class="cls-1" d="M371.4,363.63l-.02,2.46c.07-.76,.06-1.64,.02-2.46Z"/><path class="cls-1" d="M370.35,203.99l.17-.17c-.07-1.41-.18-2.77-.31-3.99-.01,1.5,.01,2.94,.14,4.16Z"/><polygon class="cls-1" points="369.73 53.85 369.49 57.3 369.66 57.8 369.73 53.85"/></g><g><path class="cls-1" d="M77.74,12.12c-.79,.25-1.61,.51-1.46,.71,.81-.25,4.98-.57,1.46-.71Z"/><path class="cls-1" d="M105.56,12.03c-.93,.03-1.92,.04-2.95,.04,1.31,.11,2.18,.05,2.95-.04Z"/><path class="cls-1" d="M152.86,14.04c-.88,.04-1.63,.08-1.84,.16,.52-.08,1.14-.13,1.84-.16Z"/><path class="cls-1" d="M178.37,12.85c-8.36-.12-9.45,.46-16.33,.37-2.08-.86,12.16-.06,8.19-.83-4.85,.03-12.15,.06-16.04,.79l-7.72-.59,2.62,.94c3.14,.27,6.32-.74,8.25-.08,.97,.4-2.16,.48-4.37,.58,4.98-.19,13.64,.74,23.77,.61,10.68-.1,8.15-1.58,15.18-2.03l-18.89,.93c1.75-.3,1.06-.59,5.36-.69Z"/><polygon class="cls-1" points="193.01 13.52 192.62 13.65 193.88 14.02 193.01 13.52"/><path class="cls-1" d="M231.55,13.45l5.68-.28c-5.87-.68-10.9-.86-24-.75l-9.83,.59c-1.06-.08-1.64-.28-2.35-.45,.38,.22-2.26,.59-1.84,.76,4.54,.85,12.04-.27,17.31-.42,13.95,.38-.63,.46,4.79,1.26-3.91-.02-4.06-.22-9.47-.28,8.54,.96,19.27,.08,24.75-.16-1.6-.08-2.01-.35-5.03-.27Z"/><path class="cls-1" d="M200.78,12.5c-.93-.2-2.21-.33-5.12-.07,3.13-.05,4.56-.02,5.12,.07Z"/><path class="cls-1" d="M236.58,13.72c.66,.04,1.54,.04,2.95-.02-.61-.05-1.62-.03-2.95,.02Z"/><path class="cls-1" d="M233.95,12.69l6.88,.09-2.71-.4c-.96,.04-4.34,.11-4.17,.31Z"/><path class="cls-1" d="M369.18,126.19c.09,.14,.16-.07,.23-.46-.11-1.3-.21-2.37-.28-2.99,.04,.99,.09,1.94,.06,3.45Z"/><path class="cls-1" d="M369.77,154.53s-.05,.18-.08,.21c.05,1.04,.07,.73,.08-.21Z"/><path class="cls-1" d="M371.59,95.01l-.05,1.34c0,.58-.01,1.1-.02,1.71l.06-3.05Z"/><path class="cls-1" d="M369.79,79.34c-.23,.89-.42,1.6-.55,7.93,.18-2.01,.37-4.8,.55-7.93Z"/><path class="cls-1" d="M363.85,26.6c-1.16-1.4-.62-.49-1.54-1.34,1.12,1.45,1.87,2.44,2.15,2.74,.26,.31,.19-.13-.61-1.4Z"/><polygon class="cls-1" points="369.57 147.84 369.27 137.08 369.43 144.95 369.57 147.84"/><path class="cls-1" d="M370.14,201.56c-.05-1.25-.13-2.4-.28-3.07l.28,3.07Z"/><polygon class="cls-1" points="370.69 309.54 370.46 311.19 370.92 314.34 370.69 309.54"/><path class="cls-1" d="M370.82,392.2c-.2,.14-.29-1.78-.34-2.74l.16,7.84,.18-5.11Z"/><polygon class="cls-1" points="370.69 440.65 370.97 439.96 370.71 436.65 370.69 440.65"/><path class="cls-1" d="M383.15,426.24c-.05,.65-.03,1.71,.02,3.11,.03-.7,.04-1.63-.02-3.11Z"/><path class="cls-1" d="M384.02,183.37c-.09-.15-.16,.08-.23,.47,.11,1.34,.21,2.45,.28,3.09-.04-1.03-.09-2-.06-3.57Z"/><path class="cls-1" d="M383.43,154.07s.05-.19,.08-.22c-.05-1.07-.07-.76-.08,.22Z"/><path class="cls-1" d="M383.42,231.79c.23-.92,.42-1.66,.55-8.19-.18,2.08-.37,4.96-.55,8.19Z"/><polygon class="cls-1" points="383.77 163.97 383.63 160.99 383.93 172.1 383.77 163.97"/><path class="cls-1" d="M383.06,105.45c.05,1.3,.13,2.48,.28,3.18l-.28-3.18Z"/><path class="cls-1" d="M.32,228.72l.02-2.55c-.05,.79-.04,1.7-.02,2.55Z"/><path class="cls-1" d="M1.05,394.48l-.12,.17c.05,1.46,.13,2.88,.22,4.15,0-1.55,0-3.05-.1-4.32Z"/><polygon class="cls-1" points="1.49 550.39 1.65 546.81 1.53 546.29 1.49 550.39"/><path class="cls-1" d="M306.34,596.47c.79-.25,1.61-.51,1.46-.71-.81,.25-4.98,.57-1.46,.71Z"/><path class="cls-1" d="M278.52,596.56c.93-.03,1.92-.04,2.95-.04-1.31-.11-2.18-.05-2.95,.04Z"/><path class="cls-1" d="M233.06,594.39c-.52,.08-1.14,.13-1.84,.16,.88-.04,1.63-.08,1.84-.16Z"/><path class="cls-1" d="M226.76,595.13c-.97-.4,2.16-.48,4.37-.58-4.98,.19-13.64-.74-23.77-.61-10.68,.1-8.15,1.58-15.18,2.03l18.89-.93c-1.75,.3-1.06,.59-5.36,.69,8.36,.12,9.45-.46,16.33-.37,2.08,.86-12.16,.06-8.19,.83,4.85-.03,12.15-.06,16.04-.79l7.72,.59-2.62-.94c-3.14-.27-6.32,.74-8.25,.08Z"/><polygon class="cls-1" points="191.07 595.07 191.46 594.94 190.2 594.57 191.07 595.07"/><path class="cls-1" d="M184.88,595.26c-4.54-.85-12.04,.27-17.31,.42-13.95-.38,.63-.46-4.79-1.26,3.91,.02,4.06,.22,9.47,.28-8.54-.96-19.27-.08-24.75,.16,1.6,.08,2.01,.35,5.03,.27l-5.68,.28c5.87,.68,10.9,.86,24,.75l9.83-.59c1.06,.08,1.64,.28,2.35,.45-.38-.22,2.26-.59,1.84-.76Z"/><path class="cls-1" d="M183.3,596.09c.93,.2,2.21,.33,5.12,.07-3.13,.05-4.56,.02-5.12-.07Z"/><path class="cls-1" d="M144.55,594.89c.61,.05,1.62,.03,2.95-.02-.66-.04-1.54-.04-2.95,.02Z"/><path class="cls-1" d="M145.96,596.21c.96-.04,4.34-.11,4.17-.31l-6.88-.09,2.71,.4Z"/><path class="cls-1" d="M14.9,482.4c-.09-.14-.16,.07-.23,.46,.11,1.3,.21,2.37,.28,2.99-.04-.99-.09-1.94-.06-3.45Z"/><path class="cls-1" d="M14.31,454.06s.05-.18,.08-.21c-.05-1.04-.07-.73-.08,.21Z"/><path class="cls-1" d="M12.49,513.58l.05-1.34c0-.58,.01-1.1,.02-1.71l-.06,3.05Z"/><path class="cls-1" d="M14.3,529.25c.23-.89,.42-1.6,.55-7.93-.18,2.01-.37,4.8-.55,7.93Z"/><path class="cls-1" d="M20.23,581.99c1.16,1.4,.62,.49,1.54,1.34-1.12-1.45-1.87-2.44-2.15-2.74-.26-.31-.19,.13,.61,1.4Z"/><polygon class="cls-1" points="14.51 460.75 14.81 471.51 14.65 463.64 14.51 460.75"/><path class="cls-1" d="M13.94,407.03c.05,1.25,.13,2.4,.28,3.07l-.28-3.07Z"/><polygon class="cls-1" points="13.39 299.05 13.62 297.4 13.16 294.25 13.39 299.05"/><path class="cls-1" d="M13.27,216.39c.2-.14,.29,1.78,.34,2.74l-.16-7.84-.18,5.11Z"/><polygon class="cls-1" points="13.39 167.94 13.11 168.63 13.37 171.94 13.39 167.94"/><path class="cls-1" d="M383.46,514.99c.08-5.41,.72-13.37,.61-22.48-.03-4.09-.25-6.34-.53-7.9,.06,.11,.12,.19,.19,.2l-.36-6.73c.28,2.1,.24-4.08,.53-2.02-.88-12.46,.34-17.43-.05-30.35l-.13,7.2c-.07,0-.12-.14-.16-.34,.23-3.64,.23-7.5,.13-11.13,.11-1.94,.15-4.24,.29-8.05-.32-5.7-1.05-8.88-1.04-16.6,.18,.38,.3-.1,.38-1.08,0,1.28,.03,2.12,.27,1.94,.05-3.04,.05-6.55,.02-10.42,.07-2.29,.18-4.22,.39-4.7-.77-1.64-.27-14.96-.72-16.03-.16-4.14-.08-9.81,.34-9.75,.02,.61,.1,1.82,.13,3.11l.03-4.13c.09,.39,.15,.25,.17,.73,.02-3.68-.54-3.71-.16-8.44,.2,.05,.2,2.59,.28,4.68,.13-9.77-1.16-17.16-.47-25.27-.31-1.38-.38-10.04-.92-10.75,0-.48-.01-.96-.02-1.45,.3-1.34,.63-2.29,.55-8.43-.69-4.72,.25-9.22-.19-15.45,.72,8.34,.2,.03,.89,7.33,.29-5.62-.64-13.98-.51-23.76,.16-.98,.37-.96,.53-1.97-.04-.58-.08-1.17-.13-1.77,.02-3.27-.09-4.82-.27-3.64-.12-2.04-.13-4.08,.17-5.93l-.49,.44c.25-6.68,.1-15.93,.63-23.07l-.93-8.34c.44-5.04,.5-10.85,.36-16.53,.04-.79,.09-1.56,.13-2.31-.06,.21-.12,.44-.18,.75-.08-2.41-.18-4.78-.31-7.04,.15-.08,.29,.03,.4,.12,.06-2.8,0-5.13-.12-7.21l.39-5.24-.45,.76c.04,1.32,.06,2.65,.03,3.93-.25-4.28-.68-7.56-.52-11.76,.07,.95,.17,2.23,.28,3.69,.03-6.04,.56-13.42-.21-16.8-.17-4.58,.2-4.88,.45-6.57,.05,2.24,.11,4.38,.2,5.69,.15-2.18,.19-6.78,.42-8.26-.23-2.89-.51-7.04-.77-11.14,0-1.9,.02-3.86,.04-5.81,.34-1.64,.33-10.07,.37-12.82-.07,.14-.14,.39-.2,.75,.04-5.29-.05-9.56-.57-11.35,.15-.48,.39,.11,.6,.27-.09-1.92-.14-3.63-.18-5.18,.23-4.44,.23-8.78,.13-12.99,.01-.12,.03-.25,.04-.4l-.09-1.4c-.06-2.15-.14-4.26-.23-6.34,.14-.29,.37,4.78,.44-1.11-.25-.84-.52-6.79-.46-12.51l.15,1.64c-.11-2.88-.06-6.54-.21-8.11,.07-.86,.15-1.71,.24-2.56-.02-.8-.04-1.62-.06-2.46l.07-.52-.08,.15c-.05-2.05-.1-4.21-.16-6.37,.38-7.44,.97-12.84,.5-24.88-.1,2.68-.27,1.63-.39,.1,0-.67-.02-1.36-.05-2.06-.01,.21-.03,.45-.04,.7,0-.15-.02-.3-.02-.44-.12,2.22-.11,3.85-.05,5.29,.01,.89,.04,1.67,.1,2.19,0-.11,0-.24,0-.36,.14,1.97,.34,3.89,.37,6.98-.29,.56-.62-3.07-.9-4.32,0-.22-.02-.43-.03-.66v-11.15c.1-1.97,.3-3.62,.71-4.82,.02-2.46,0-4.54-.04-6.43-.06-1.9-.24-3.69-.4-5.43-.15-.87-.3-1.73-.46-2.62l-.23-1.36c-.07-.46-.23-.92-.34-1.39l-.17-.69c-.4-1.92-.93-3.8-1.58-5.62l.11,.08c-.05-.06-.11-.14-.16-.21-.45-1.26-.95-2.5-1.51-3.7-.48-1.23-.95-2.4-1.57-3.41-.72-1.31-1.4-2.54-2.22-3.57-1.49-2.17-3.15-3.79-4.67-5.3-.81-.7-1.59-1.38-2.36-2.06-.09-.08-.18-.14-.27-.22-.8-.68-1.63-1.33-2.49-1.95-.27-.22-.54-.44-.81-.66l-1.26-.9c-.86-.59-1.68-1.33-2.62-1.97,.31,.14,.62,.27,.91,.46-.84-.58-2.15-1.12-3.55-1.76-1.42-.59-3.05-1.01-4.49-1.52,.44,.25,1.36,.66,2.4,1.11,.51,.24,1.07,.44,1.59,.71h0c-.47-.2-.95-.39-1.43-.58h.04c-3.14-1.48-5.57-2.05-7.51-2.51-.99-.15-1.86-.26-2.69-.36l-1.21-.13c-.4-.04-.79-.01-1.19-.02-2.05-.05-4.08,.04-7.19,.02-.39-.07-.83-.13-1.36-.18-.7,.06-1.14,.1-1.41,.14-1.2-.03-2.54-.07-4.06-.14l-.89,.27H187.76c-2.05-.08-4.45-.1-7.47,0H44.67c-3.23,0-6.37,.39-9.4,1.09,.5-.19,.95-.35,1.31-.47,.85-.27,1.24-.47,.86-.56-.44,.08-.9,.16-1.38,.26-.47,.15-.96,.3-1.47,.47-.51,.17-1.04,.34-1.58,.51-.54,.17-1.1,.35-1.64,.61-1.1,.49-2.26,.94-3.42,1.47-1.13,.6-2.31,1.16-3.5,1.72,.44-.36,1.11-.76,1.88-1.21,.78-.43,1.63-1,2.58-1.36,.93-.41,1.88-.82,2.74-1.23,.87-.38,1.68-.65,2.29-.97-2.13,.38-3.46,.91-4.45,1.29-.99,.39-1.65,.65-2.27,1.06-.63,.38-1.28,.77-2.31,1.33-.53,.25-1.1,.62-1.81,1.07-.71,.44-1.56,.95-2.57,1.57,.01-.3,.05-.56,.07-.84-1.25,.91-2.44,1.92-3.65,2.88-1.1,1.1-2.26,2.13-3.3,3.27,1.1-.62,1.66-.83,2.01-.92-.18,.15-.35,.29-.54,.44-.4,.4-.76,.76-1.09,1.09,0-.09-.01-.14-.08-.15-.06,.13-.19,.33-.34,.56l-.39,.39c-.46,.53-.78,.95-1.01,1.24-.46,.58-.51,.7-.28,.5,.15-.14,.45-.44,.82-.83-.54,.83-.77,1.28,.68-.22,.13-.27,.26-.55,.36-.79,.61-.54,1.31-1.15,2.02-1.78l.69-.6,.1-.07c.16-.08,.35-.2,.63-.4-3.13,2.76-5.86,5.98-8.09,9.56-.56,.79-.54,.64-.39,.17,.04-.11,.09-.24,.14-.37,.98-1.53,1.64-2.53,.19-1-.18,.55-.47,1.08-.8,1.66-.3,.61-.67,1.25-1.11,1.98-.93,1.4-1.85,3.27-2.83,5.7-.05-.33-.32,.15-.68,1-.18,.43-.38,.95-.6,1.51-.22,.56-.45,1.16-.58,1.77-.65,2.4-1.21,4.58-1.19,2.91-.23,1.55-.29,3.12-.44,4.66-.02,1.56,.03,3.11,.05,4.65l.6,9.08c-.37,2.92-.31,8.18-.21,12.05,0-4.34,.19-4.3,.43-3.87v4.63c-.11,1.01-.23,1.74-.36,2.11-.02-.79-.05-1.78-.08-2.87,0,.85,.02,1.83,.02,3.01-.1,.23-.21,.21-.31-.12l.28,8.53c.01,.09,.02,.15,.03,.23-.39,2.2-.87,6.67-1.06,7,.1,3.34,.23,6.24,.37,8.91-.08,5.41-.72,13.37-.61,22.48,.03,4.09,.25,6.34,.53,7.9-.06-.11-.12-.19-.19-.2l.36,6.73c-.28-2.1-.24,4.08-.53,2.02,.88,12.46-.34,17.43,.05,30.35l.13-7.2c.07,0,.12,.14,.16,.34-.23,3.64-.23,7.5-.13,11.13-.11,1.94-.15,4.24-.29,8.05,.32,5.7,1.05,8.88,1.04,16.6-.18-.38-.3,.1-.38,1.08,0-1.28-.03-2.12-.27-1.94-.05,3.04-.05,6.55-.02,10.42-.07,2.29-.18,4.22-.39,4.7,.77,1.64,.27,14.96,.72,16.03,.16,4.14,.08,9.81-.34,9.75-.02-.61-.1-1.82-.13-3.11l-.03,4.13c-.09-.39-.15-.25-.17-.73-.02,3.68,.54,3.71,.16,8.44-.2-.05-.2-2.59-.28-4.68-.13,9.77,1.16,17.16,.47,25.27,.31,1.38,.38,10.04,.92,10.75,0,.48,.01,.96,.02,1.45-.3,1.34-.63,2.29-.55,8.43,.69,4.72-.25,9.22,.19,15.45-.72-8.34-.2-.03-.89-7.33-.29,5.62,.64,13.98,.51,23.76-.16,.98-.37,.96-.53,1.97,.04,.58,.08,1.17,.13,1.77-.02,3.27,.09,4.82,.27,3.64,.12,2.04,.13,4.08-.17,5.93l.49-.44c-.25,6.68-.1,15.93-.63,23.07l.93,8.34c-.44,5.04-.5,10.85-.36,16.53-.04,.79-.09,1.56-.13,2.31,.06-.21,.12-.44,.18-.75,.08,2.41,.18,4.78,.31,7.04-.15,.08-.29-.03-.4-.12-.06,2.8,0,5.13,.12,7.21l-.39,5.24,.45-.76c-.04-1.32-.06-2.65-.03-3.93,.25,4.28,.68,7.56,.52,11.76-.07-.95-.17-2.23-.28-3.69-.03,6.04-.56,13.42,.21,16.8,.17,4.58-.2,4.88-.45,6.57-.05-2.24-.11-4.38-.2-5.69-.15,2.18-.19,6.78-.42,8.26,.23,2.89,.51,7.04,.77,11.14,0,1.9-.02,3.86-.04,5.81-.34,1.64-.33,10.07-.37,12.82,.07-.14,.14-.39,.2-.75-.04,5.29,.05,9.56,.57,11.35-.15,.48-.39-.11-.6-.27,.09,1.92,.14,3.63,.18,5.18-.23,4.44-.23,8.78-.13,12.99-.01,.12-.03,.25-.04,.4l.09,1.4c.06,2.15,.14,4.26,.23,6.34-.14,.29-.37-4.78-.44,1.11,.25,.84,.52,6.79,.46,12.51l-.15-1.64c.11,2.88,.06,6.54,.21,8.11-.07,.86-.15,1.71-.24,2.56,.02,.8,.04,1.62,.06,2.46l-.07,.52,.08-.15c.05,2.05,.1,4.21,.16,6.37-.38,7.44-.97,12.84-.5,24.88,.1-2.68,.27-1.63,.39-.1,0,.67,.02,1.36,.05,2.06,.01-.21,.03-.45,.04-.7,0,.15,.02,.3,.02,.44,.12-2.22,.11-3.85,.05-5.29-.01-.89-.04-1.67-.1-2.19,0,.11,0,.24,0,.36-.14-1.97-.34-3.89-.37-6.98,.29-.56,.62,3.07,.9,4.32,0,.22,.02,.43,.03,.66v11.15c-.1,1.97-.3,3.62-.71,4.82-.02,2.46,0,4.54,.04,6.43,.06,1.9,.24,3.69,.4,5.43,.15,.87,.3,1.73,.46,2.62l.23,1.36c.07,.46,.23,.92,.34,1.39l.17,.69c.4,1.92,.93,3.8,1.58,5.62l-.11-.08c.05,.06,.11,.14,.16,.21,.45,1.26,.95,2.5,1.51,3.7,.48,1.23,.95,2.4,1.57,3.41,.72,1.31,1.4,2.54,2.22,3.57,1.49,2.17,3.15,3.79,4.67,5.3,.81,.7,1.59,1.38,2.36,2.06,.09,.08,.18,.14,.27,.22,.8,.68,1.63,1.33,2.49,1.95,.27,.22,.54,.44,.81,.66l1.26,.9c.86,.59,1.68,1.33,2.62,1.97-.31-.14-.62-.27-.91-.46,.84,.58,2.15,1.12,3.55,1.76,1.42,.59,3.05,1.01,4.49,1.52-.44-.25-1.36-.66-2.4-1.11-.51-.24-1.07-.44-1.59-.71h0c.47,.2,.95,.39,1.43,.58h-.04c3.14,1.48,5.57,2.05,7.51,2.51,.99,.15,1.86,.26,2.69,.36l1.21,.13c.4,.04,.79,.01,1.19,.02,2.05,.05,4.08-.04,7.19-.02,.39,.07,.83,.13,1.36,.18,.7-.06,1.14-.1,1.41-.14,1.2,.03,2.54,.07,4.06,.14l.89-.27H196.33c2.05,.08,4.45,.1,7.47,0h135.61c3.23,0,6.37-.39,9.4-1.09-.5,.19-.95,.35-1.31,.47-.85,.27-1.24,.47-.86,.56,.44-.08,.9-.16,1.38-.26,.47-.15,.96-.3,1.47-.47,.51-.17,1.04-.34,1.58-.51,.54-.17,1.1-.35,1.64-.61,1.1-.49,2.26-.94,3.42-1.47,1.13-.6,2.31-1.16,3.5-1.72-.44,.36-1.11,.76-1.88,1.21-.78,.43-1.63,1-2.58,1.36-.93,.41-1.88,.82-2.74,1.23-.87,.38-1.68,.65-2.29,.97,2.13-.38,3.46-.91,4.45-1.29,.99-.39,1.65-.65,2.27-1.06,.63-.38,1.28-.77,2.31-1.33,.53-.25,1.1-.62,1.81-1.07,.71-.44,1.56-.95,2.57-1.57-.01,.3-.05,.56-.07,.84,1.25-.91,2.44-1.92,3.65-2.88,1.1-1.1,2.26-2.13,3.3-3.27-1.1,.62-1.66,.83-2.01,.92,.18-.15,.35-.29,.54-.44,.4-.4,.76-.76,1.09-1.09,0,.09,.01,.14,.08,.15,.06-.13,.19-.33,.34-.56l.39-.39c.46-.53,.78-.95,1.01-1.24,.46-.58,.51-.7,.28-.5-.15,.14-.45,.44-.82,.83,.54-.83,.77-1.28-.68,.22-.13,.27-.26,.55-.36,.79-.61,.54-1.31,1.15-2.02,1.78l-.69,.6-.1,.07c-.16,.08-.35,.2-.63,.4,3.13-2.76,5.86-5.98,8.09-9.56,.56-.79,.54-.64,.39-.17-.04,.11-.09,.24-.14,.37-.98,1.53-1.64,2.53-.19,1,.18-.55,.47-1.08,.8-1.66,.3-.61,.67-1.25,1.11-1.98,.93-1.4,1.85-3.27,2.83-5.7,.05,.33,.32-.15,.68-1,.18-.43,.38-.95,.6-1.51,.22-.56,.45-1.16,.58-1.77,.65-2.4,1.21-4.58,1.19-2.91,.23-1.55,.29-3.12,.44-4.66,.02-1.56-.03-3.11-.05-4.65l-.6-9.08c.37-2.92,.31-8.18,.21-12.05,0,4.34-.19,4.3-.43,3.87v-4.63c.11-1.01,.23-1.74,.36-2.11,.02,.79,.05,1.78,.08,2.87,0-.85-.02-1.83-.02-3.01,.1-.23,.21-.21,.31,.12l-.28-8.53c-.01-.09-.02-.15-.03-.23,.39-2.2,.87-6.67,1.06-7-.1-3.34-.23-6.24-.37-8.91Zm-.55-19.05c-.2-2.25-.37-4.98-.54-5.25v-5.96c.02-.34,.04-.71,.04-1.13l.58,12.83c-.03-.19-.06-.35-.09-.49Zm-.54-102.6s.04-.02,.06-.03c-.02,.06-.04,.13-.06,.21v-.18Zm.11,71.03c-.03,.36-.07,.65-.11,.93h0v-2.93l.11,2Zm-.11-62.33v.19c0,.25,0,.5,0,.74v-.93Zm.02-42.14c0,.32-.01,.64-.02,.97v-1.11l.02,.14Zm0,119.69c.36,.47,.55,1.96,.75,3.24-.26-.98-.53-1.84-.75-3.24Zm1.02-28.28c-.07-1.2-.1-2.89-.14-4.49,.09-.05,.2-.42,.33-1.33-.01,2.76-.11,3.75-.19,5.82Zm.28-12.28c-.02,.23-.04,.42-.06,.6-.14-4.05-.36-7.7-.47-10.26-.06,1.13-.19,1.7-.25,2.92-.06-.9-.15-1.7-.24-2.47l-.05-1.14c-.01,.13-.03,.27-.04,.4-.07-.56-.15-1.12-.23-1.71v-11.65c.09,.64,.14,1.93,.11,4.58-.02,.35-.04,.71-.06,1.06,.77-.92,1.21,10.46,1.29,17.67Zm-1.08-154.09c.05-.31,.1-.3,.16,.23-.05-.15-.1-.22-.16-.23Zm-.02-21.44c-.08-.02-.16-.42-.23-1v-5.24c.1,.37,.2,1.12,.3,2.59-.02,1.4-.05,2.6-.07,3.65Zm1.08,48.99c-.94,7.06-.03-13.9-.77-1.66v-.05c.1-3,.25-5.71,.43-7.97,.13,2.19,.27,4.96,.34,9.68Zm-.36-9.93c-.09,.19-.13-.71-.14-2.18,.05,.7,.1,1.41,.14,2.18Zm-.85-96.45c.04-.49,.08-.78,.13-.77v.12l-.13,.64Zm-.08-54.12c0-.11-.01-.23-.02-.34,0,.06,0,.11,0,.16v-10.41c.08,.52,.13,1.68,.14,3.96,0-.08,0-.14,0-.21-.02,1.93-.07,4.25-.12,6.83Zm.48-36.4c-.09-2.23-.17-4.42-.22-6.57,.17,1.39,.27,3.34,.22,6.57Zm-25.67,476.15c-.27,.17-.55,.33-.82,.49-.1,.06-.2,.12-.3,.18-.36,.2-.72,.39-1.08,.55l1.07-1.1c-1.55,1.15-3.29,2.12-5.13,2.91-3.33,1.19-6.9,1.84-10.63,1.84h-9.37c1.84-.18,2.95-.39,2.44-.6-3.38,.06-8.35,.62-13.39,.44,2.16-.42,7.57-.37,10.09-.92-8.12-.45-5.1,.36-14.03,.15l.49-.67-8.62,.21c3.19,.95,1.56,1.11,3.61,1.38h-11.44c-3.62-.11,1.08-.53,.56-.6l-3.93,.6h-6.13l2.11-.1-.68-.29-1.95,.39h-11.88c.12-.01,.23-.03,.36-.04l-1.25,.04h-1.53l-.09-.02c-3.11-.28-.18-.95,4.84-.78,5.25-.15,4.77,.52,9.32,.08l-6.24-.55c-7.67,.08-12.25,.92-15.44,1.26h-18.95c2.2-.7,13.04,.18,14.4-.5-7.29,.04-13.14-.63-11.54-1.14l-8.09,.29c-2.47,.32,.16,.92,3.84,1.35H44.67c-16.16,0-29.59-12.18-31.95-28.01-.03-.41-.03-.82-.04-1.22-.01-.95-.07-1.86-.02-2.83,.02-.5,.04-.98,.06-1.47,0,1.1,.09,2.18,.13,3.27,.35,4.41,1.61,8.75,3.68,12.68,2.07,3.93,4.99,7.41,8.46,10.18,3.47,2.77,7.52,4.81,11.83,5.93,.54,.13,1.07,.3,1.62,.41l1.65,.26c.55,.07,1.1,.21,1.66,.22l1.67,.09c1.11,.08,2.25,.07,3.38,.07h3.4c9.09,.03,18.25,.08,27.48,.19l5.22-.9c1.8,.45,8.8,0,7.76,.58-2.02-.11-3.94-.02-6.36,0,7.9,.79,20.96-.07,30.43,.22-1.08-.16-2.62-.94,.22-1.08-.76,1,11.2-.02,13.97,1.13,9.49,.29,.37-.87,10.24-.71,1.05-.59-9.47-.28-11.26-.73,3.1-.48,8.94,.2,8.51-.42-15.84-.29-45.25,.93-69.44,1.27l2.54-.55c-12.21-.12-33.25,2.44-40.51-4.97,.41,.4-.31,.04-1.58-.77-.6-.45-1.34-1.01-2.14-1.63-.75-.68-1.56-1.43-2.36-2.2-.72-.84-1.52-1.62-2.16-2.44-.64-.82-1.22-1.57-1.71-2.19-.89-1.3-1.51-2.01-1.54-1.48-.36-.68-.55-1.29-.78-1.84-.22-.55-.43-1.04-.66-1.57-.2-.54-.38-1.14-.63-1.85l-.39-1.16c-.1-.44-.21-.92-.34-1.45l-.65-1.05c-.33-1.54-.39-2.67-.49-3.56-.02-.9,.04-1.59,.07-2.31l.05-1.12c.03-.42,.05-.87,.09-1.39,.05-1.05,.08-2.38,.07-4.24-.5,4.86-.65-.52-1.07-2.69,.56-8.53,1.06-18.45,1.52-26.01-.16,.6-.35,1.27-.57,3.87,.18-5.13-.3-4.26-.48-5.64-.03-4.97,.63-4.44,.95-4.2,.2-9.11-1.04-13.17-.62-19.97l-.52,2.37c-.13-9.36,.44-17.28,.27-27.61,.71-5.01,.61,8.51,.92,12.79,.15-2.11,.19-6.55,.42-7.99-.36-4.4-.86-11.85-1.2-17.36,.83,5.27,.78-7.92,.83-11.45-.34,.63-.51,3.21-.44,8.64-.45-.65-.36-7.69-.62-10.99-.27,6.8-.5,.65-.9,1.49v-14.99c.04-1.97,.04-3.91,.01-5.83,.1,4.11,.17,7.86,.15,10.41,.33,.23,.83-4.63,.87,2.83,.07-3.02,.44-1.8,.76-1.56-.36-7.7-.14-11.87-.57-16.55,.43-4.29,.14,2.91,.56-1.41l-.39-6.17c.1-4.56,.43,4.68,.52-2.39-.25-.81-.52-6.57-.46-12.11l.15,1.59c-.17-4.23,.04-10.24-.67-8.18l.71-5.02-.48,.89c.19-11.63,1.34-15.98,.74-30.97-.14,3.58-.41,.29-.5-1.64-.34,6.24,.36,7.72,.43,13.63-.43,.78-.93-6.96-1.24-3.82,.37-7.14-.09-13.32,1.02-16.44,.08-9.53-.51-13.09-.23-22.76l.18,.27c-.8-1.8,.36-7.86-.46-15.01l-.18,5.1c-.33-.24-.34-2.73-.4-6.17q.13,.4,.28-.72c-.53-.98-.65-10.29-.8-12.82v-20.06l.9-5.08c-.07,3.03,.07,5.93-.26,5.69,.39,3.69,.62,2.02,.93-.2,.16,7.84-.2,9.12,.4,15.16,.75-13.02-.62-11,.03-25.94l-1.24-4.08c.13-6.08,.49,1.64,.75-4.03-.4-6.19-.82,7.07-1.42,1.05,.23-2.44,.05-5.85-.1-8.63v-2.76c.38,1.43,.96,.13,1.1-.83-.21-2.34,.16-7.59,.19-11.6-.48,9.82-.28-8.26-.81,.6-.2-.29-.38-2.24-.48-4.64v-8.43c.01-.2,.03-.4,.04-.58,.33,.28,.26,3.31,.27,5.79,.62,2.03,.33-6.22,.9-7.64-.58-6.32-.74-22.03-1.22-28.93v-6.04c.2-.83,.39-1.41,.59-.46,.08-3.73-.27-4.9-.59-6.69v-16.9c.39-.9,.73-10.46,1.11-12.2-1.13-15.11,1.11-15.21,.64-29.73-.36-8.99-.57,.93-.9,.38,0-4.97-.39-9.99-.15-13.94,.32,.55,.44,3.53,.36,6.52,.73-1.89-.11-5.5,.38-10.89-.08,.48-.2,2.44-.36,.93,.17-13.4-.6-7.53-.18-24.9-.2-2.52-.2-5-.69-4.58,.62-9.86,.61-4.88,1.15-16.75-.25,.41-.8,3.55-1.35,4.16v-4.2c.22-5.66,.19-9.02,.15-11.89-.03-1.76-.06-3.33-.05-5.13,.01-.9,.01-1.86,.07-2.92,.11-1.06,.16-2.23,.39-3.53-.1,.58-.02,1.25-.05,2.1-.02,.86-.04,1.94-.07,3.36,.22-.34,.29-1.09,.36-2.07,.04-.49,.06-1.04,.08-1.64,.03-.6-.01-1.26,.09-1.94,.16-2.75,.86-6.05,2.01-8.74l.49,.8c.93-2.45,2.46-5.78,4.84-8.75,1.72-2.22,3.89-4.19,6.11-5.63,.05-.03,.09-.06,.13-.09,.27-.17,.55-.33,.82-.49,.1-.06,.2-.12,.3-.18,.36-.2,.72-.39,1.08-.55l-1.07,1.1c1.55-1.15,3.29-2.12,5.13-2.91,3.33-1.19,6.9-1.84,10.63-1.84h9.37c-1.84,.18-2.95,.39-2.44,.6,3.38-.06,8.35-.62,13.39-.44-2.16,.42-7.57,.37-10.09,.92,8.12,.45,5.1-.36,14.03-.15l-.49,.67,8.62-.21c-3.19-.95-1.56-1.11-3.61-1.38h11.44c3.62,.11-1.08,.53-.56,.6l3.93-.6h6.13l-2.11,.1,.68,.29,1.95-.39h11.88c-.12,.01-.23,.03-.36,.04l1.25-.04h1.53l.09,.02c3.11,.28,.18,.95-4.84,.78-5.25,.15-4.77-.52-9.32-.08l6.24,.55c7.67-.08,12.25-.92,15.44-1.26h18.95c-2.2,.7-13.04-.18-14.4,.5,7.29-.04,13.14,.63,11.54,1.14l8.09-.29c2.47-.32-.16-.92-3.84-1.35h203.13c16.16,0,29.59,12.18,31.95,28.01,.03,.41,.03,.82,.04,1.22,.01,.95,.07,1.86,.02,2.83-.02,.5-.04,.98-.06,1.47,0-1.1-.09-2.18-.13-3.27-.35-4.41-1.61-8.75-3.68-12.68-2.07-3.93-4.99-7.41-8.46-10.18-3.47-2.77-7.52-4.81-11.83-5.93-.54-.13-1.07-.3-1.62-.41l-1.65-.26c-.55-.07-1.1-.21-1.66-.22l-1.67-.09c-1.11-.08-2.25-.07-3.38-.07h-3.4c-9.09-.03-18.25-.08-27.48-.19l-5.22,.9c-1.8-.45-8.8,0-7.76-.58,2.02,.11,3.94,.02,6.36,0-7.9-.79-20.96,.07-30.43-.22,1.08,.16,2.62,.94-.22,1.08,.76-1-11.2,.02-13.97-1.13-9.49-.29-.37,.87-10.24,.71-1.05,.59,9.47,.28,11.26,.73-3.1,.48-8.94-.2-8.51,.42,15.84,.29,45.25-.93,69.44-1.27l-2.54,.55c12.21,.12,33.25-2.44,40.51,4.97-.41-.4,.31-.04,1.58,.77,.6,.45,1.34,1.01,2.14,1.63,.75,.68,1.56,1.43,2.36,2.2,.72,.84,1.52,1.62,2.16,2.44,.64,.82,1.22,1.57,1.71,2.19,.89,1.3,1.51,2.01,1.54,1.48,.36,.68,.55,1.29,.78,1.84,.22,.55,.43,1.04,.66,1.57,.2,.54,.38,1.14,.63,1.85l.39,1.16c.1,.44,.21,.92,.34,1.45l.65,1.05c.33,1.54,.39,2.67,.49,3.56,.02,.9-.04,1.59-.07,2.31l-.05,1.12c-.03,.42-.05,.87-.09,1.39-.05,1.05-.08,2.38-.07,4.24,.5-4.86,.65,.52,1.07,2.69-.56,8.53-1.06,18.45-1.52,26.01,.16-.6,.35-1.27,.57-3.87-.18,5.13,.3,4.26,.48,5.64,.03,4.97-.63,4.44-.95,4.2-.2,9.11,1.04,13.17,.62,19.97l.52-2.37c.13,9.36-.44,17.28-.27,27.61-.71,5.01-.61-8.51-.92-12.79-.15,2.11-.19,6.55-.42,7.99,.36,4.4,.86,11.85,1.2,17.36-.83-5.27-.78,7.92-.83,11.45,.34-.63,.51-3.21,.44-8.64,.45,.65,.36,7.69,.62,10.99,.27-6.8,.5-.65,.9-1.49v14.99c-.04,1.97-.04,3.91-.01,5.83-.1-4.11-.17-7.86-.15-10.41-.33-.23-.83,4.63-.87-2.83-.07,3.02-.44,1.8-.76,1.56,.36,7.7,.14,11.87,.57,16.55-.43,4.29-.14-2.91-.56,1.41l.39,6.17c-.1,4.56-.43-4.68-.52,2.39,.25,.81,.52,6.57,.46,12.11l-.15-1.59c.17,4.23-.04,10.24,.67,8.18l-.71,5.02,.48-.89c-.19,11.63-1.34,15.98-.74,30.97,.14-3.58,.41-.29,.5,1.64,.34-6.24-.36-7.72-.43-13.63,.43-.78,.93,6.96,1.24,3.82-.37,7.14,.09,13.32-1.02,16.44-.08,9.53,.51,13.09,.23,22.76l-.18-.27c.8,1.8-.36,7.86,.46,15.01l.18-5.1c.33,.24,.34,2.73,.4,6.17q-.13-.4-.28,.72c.53,.98,.65,10.29,.8,12.82v20.06l-.9,5.08c.07-3.03-.07-5.93,.26-5.69-.39-3.69-.62-2.02-.93,.2-.16-7.84,.2-9.12-.4-15.16-.75,13.02,.62,11-.03,25.94l1.24,4.08c-.13,6.08-.49-1.64-.75,4.03,.4,6.19,.82-7.07,1.42-1.05-.23,2.44-.05,5.85,.1,8.63v2.76c-.38-1.43-.96-.13-1.1,.83,.21,2.34-.16,7.59-.19,11.6,.48-9.82,.28,8.26,.81-.6,.2,.29,.38,2.24,.48,4.64v8.43c-.01,.2-.03,.4-.04,.58-.33-.28-.26-3.31-.27-5.79-.62-2.03-.33,6.22-.9,7.64,.58,6.32,.74,22.03,1.22,28.93v6.04c-.2,.83-.39,1.41-.59,.46-.08,3.73,.27,4.9,.59,6.69v16.9c-.39,.9-.73,10.46-1.11,12.2,1.13,15.11-1.11,15.21-.64,29.73,.36,8.99,.57-.93,.9-.38,0,4.97,.39,9.99,.15,13.94-.32-.55-.44-3.53-.36-6.52-.73,1.89,.11,5.5-.38,10.89,.08-.48,.2-2.44,.36-.93-.17,13.4,.6,7.53,.18,24.9,.2,2.52,.2,5,.69,4.58-.62,9.86-.61,4.88-1.15,16.75,.25-.41,.8-3.55,1.35-4.16v4.2c-.22,5.66-.19,9.02-.15,11.89,.03,1.76,.06,3.33,.05,5.13-.01,.9-.01,1.86-.07,2.92-.11,1.06-.16,2.23-.39,3.53,.1-.58,.02-1.25,.05-2.1,.02-.86,.04-1.94,.07-3.36-.22,.34-.29,1.09-.36,2.07-.04,.49-.06,1.04-.08,1.64-.03,.6,.01,1.26-.09,1.94-.16,2.75-.86,6.05-2.01,8.74l-.49-.8c-.93,2.45-2.46,5.78-4.84,8.75-1.72,2.22-3.89,4.19-6.11,5.63-.05,.03-.09,.06-.13,.09ZM12.49,144.41l.52,4.37c-.16-1.27-.41-.5-.67-.06v-40.76l.09-.36c-.34,14.36,1.36,24.07,.05,36.81Zm-.14,16.09v-5.17c.08,1.84,.07,3.63,0,5.17Zm0,55.89v-10.87c.05,.48,.1,.85,.14,.99-.19,3.65,.12,9.58-.14,9.89Zm.37,340.71l-.37-3.22v-8.37c.14-3.76,.12-7.73,0-11.62v-14.7l.13-1.68c-.03,7.27,.14,13.64,.3,22.29-.02,4.38-.04,8.78-.06,13.21,0,1.36,0,2.72,0,4.08Zm-.18-44.86c-.02,.96-.03,1.89-.04,2.81l-.15,.24v-27c.06-.5,.1-1.12,.13-1.95-.05-.54-.09-1.12-.13-1.7v-5.28c.26,10.32,.52,24.29,.19,32.88Zm.16-38.69c-.09-.3-.23-.29-.35,.17v-14.82c.14,4.7,.44,8.3,.35,14.65Zm-.35-72.15v-8.37c.12,2.76,.28,5.34,.48,7.64-.14,1-.31,3.28-.48,.73Zm1.34,17.56c-.72-11.24-.75,1.27-1.34,1.13v-17.32c.29,7.03,1.73,4.05,1.34,16.19Zm-1.34-66.06v-6.84c.38,.96,.78-.59,.83,8.5l-.83-1.67Zm0-36.85v-8.99c.11,3.6,.38,7.54,.49,11.35-.15-1.24-.34-1.74-.49-2.36Zm358.56-62.02l.83,1.67v6.84c-.38-.96-.78,.59-.83-8.5Zm.83,38.51v8.99c-.11-3.6-.38-7.54-.49-11.35,.15,1.24,.34,1.74,.49,2.36Zm-.48-84.63c.14-1,.31-3.28,.48-.73v8.37c-.12-2.76-.28-5.34-.48-7.64Zm-.86-18.29c.72,11.24,.75-1.27,1.34-1.13v17.32c-.29-7.03-1.73-4.05-1.34-16.19Zm1.34-69.34c-.06,.5-.1,1.12-.13,1.95,.05,.54,.09,1.12,.13,1.7v5.28c-.26-10.32-.52-24.29-.19-32.88,.02-.96,.03-1.89,.04-2.81l.15-.24v27Zm0,14.57v14.82c-.14-4.7-.44-8.3-.35-14.65,.09,.3,.23,.29,.35-.17Zm0-71.78c-.14,3.76-.12,7.73,0,11.62v14.7l-.13,1.68c.03-7.27-.14-13.64-.3-22.29,.02-4.38,.04-8.78,.06-13.21,0-1.36,0-2.72,0-4.08l.37,3.22v8.37Zm0,329.12v10.87c-.05-.48-.1-.85-.14-.99,.19-3.65-.12-9.58,.14-9.89Zm-.14,71.98l-.52-4.37c.16,1.27,.41,.5,.67,.06v40.76l-.09,.36c.34-14.36-1.36-24.07-.05-36.81Zm.14-16.09v5.17c-.08-1.84-.07-3.63,0-5.17ZM8.21,21.14c.17-.27,.34-.55,.51-.81-.3,.71-.6,1.43-.87,2.14-.13,.24-.24,.5-.37,.74-.08,.12-.15,.23-.23,.34-1.4,1.83-.21-.31,.96-2.42ZM1.18,112.65c.2,2.25,.37,4.98,.54,5.25v5.96c-.02,.34-.04,.71-.04,1.13l-.58-12.83c.03,.19,.06,.35,.09,.49Zm.43,31.58c.03-.36,.07-.65,.11-.93h0v2.93l-.11-2Zm.11,71.03s-.04,.02-.06,.03c.02-.06,.04-.13,.06-.21v.18Zm0-8.7v-.19c0-.25,0-.5,0-.74v.93Zm-.02,42.14c0-.32,.01-.64,.02-.97v1.11l-.02-.14Zm0-119.69c-.36-.47-.55-1.96-.75-3.24,.26,.98,.53,1.84,.75,3.24Zm-1.02,28.28c.07,1.2,.1,2.89,.14,4.49-.09,.05-.2,.42-.33,1.33,.01-2.76,.11-3.75,.19-5.82Zm-.28,12.28c.02-.23,.04-.42,.06-.6,.14,4.05,.36,7.7,.47,10.26,.06-1.13,.19-1.7,.25-2.92,.06,.9,.15,1.7,.24,2.47l.05,1.14c.01-.13,.03-.27,.04-.4,.07,.56,.15,1.12,.23,1.71v11.65c-.09-.64-.14-1.93-.11-4.58,.02-.35,.04-.71,.06-1.06-.77,.92-1.21-10.46-1.29-17.67Zm1.08,154.09c-.05,.31-.1,.3-.16-.23,.05,.15,.1,.22,.16,.23Zm.02,21.44c.08,.02,.16,.42,.23,1v5.24c-.1-.37-.2-1.12-.3-2.59,.02-1.4,.05-2.6,.07-3.65Zm-1.08-48.99c.94-7.06,.03,13.9,.77,1.66v.05c-.1,3-.25,5.71-.43,7.97-.13-2.19-.27-4.96-.34-9.68Zm.36,9.93c.09-.19,.13,.71,.14,2.18-.05-.7-.1-1.41-.14-2.18Zm.85,96.45c-.04,.49-.08,.78-.13,.77v-.12l.13-.64Zm.08,54.12c0,.11,.01,.23,.02,.34,0-.06,0-.11,0-.16v10.41c-.08-.52-.13-1.68-.14-3.96,0,.08,0,.14,0,.21,.02-1.93,.07-4.25,.12-6.83Zm-.48,36.4c.09,2.23,.17,4.42,.22,6.57-.17-1.39-.27-3.34-.22-6.57Zm374.66,94.43c-.17,.27-.34,.55-.51,.81,.3-.71,.6-1.43,.87-2.14,.13-.24,.24-.5,.37-.74,.08-.12,.15-.23,.23-.34,1.4-1.83,.21,.31-.96,2.42Z"/><path class="cls-1" d="M.94,182.35c.05-.65,.03-1.71-.02-3.11-.03,.7-.04,1.63,.02,3.11Z"/><path class="cls-1" d="M.06,425.22c.09,.15,.16-.08,.23-.47-.11-1.34-.21-2.45-.28-3.09,.04,1.03,.09,2,.06,3.57Z"/><path class="cls-1" d="M.65,454.52s-.05,.19-.08,.22c.05,1.07,.07,.76,.08-.22Z"/><path class="cls-1" d="M.67,376.8c-.23,.92-.42,1.66-.55,8.19,.18-2.08,.37-4.96,.55-8.19Z"/><polygon class="cls-1" points=".31 444.62 .45 447.6 .15 436.48 .31 444.62"/><path class="cls-1" d="M1.02,503.14c-.05-1.3-.13-2.48-.28-3.18l.28,3.18Z"/><path class="cls-1" d="M383.76,379.87l-.02,2.55c.05-.79,.04-1.7,.02-2.55Z"/><path class="cls-1" d="M383.03,214.11l.12-.17c-.05-1.46-.13-2.88-.22-4.15,0,1.55,0,3.05,.1,4.32Z"/><polygon class="cls-1" points="382.59 58.2 382.43 61.78 382.55 62.3 382.59 58.2"/></g><g><path class="cls-2" d="M81.23,21.05c-.76,.24-1.56,.49-1.42,.69,.78-.24,4.83-.55,1.42-.69Z"/><path class="cls-2" d="M108.2,20.97c-.9,.02-1.86,.04-2.86,.04,1.27,.11,2.12,.04,2.86-.04Z"/><path class="cls-2" d="M154.06,22.91c-.85,.04-1.58,.08-1.78,.15,.51-.07,1.1-.13,1.78-.15Z"/><path class="cls-2" d="M178.79,21.76c-8.11-.12-9.16,.45-15.83,.36-2.02-.83,11.79-.06,7.94-.8-4.7,.02-11.78,.06-15.55,.77l-7.49-.57,2.54,.92c3.04,.26,6.13-.72,8-.08,.94,.39-2.09,.47-4.24,.56,4.83-.18,13.22,.71,23.04,.59,10.35-.09,7.9-1.53,14.72-1.97l-18.31,.9c1.7-.29,1.02-.57,5.2-.67Z"/><polygon class="cls-2" points="192.98 22.41 192.6 22.53 193.82 22.89 192.98 22.41"/><path class="cls-2" d="M230.35,22.34l5.51-.27c-5.69-.65-10.57-.83-23.27-.73l-9.53,.57c-1.03-.08-1.59-.27-2.28-.44,.36,.21-2.19,.57-1.78,.74,4.4,.82,11.67-.26,16.78-.41,13.52,.37-.61,.44,4.64,1.22-3.79-.02-3.93-.22-9.18-.27,8.28,.93,18.68,.08,23.99-.15-1.55-.08-1.94-.34-4.88-.26Z"/><path class="cls-2" d="M200.51,21.42c-.9-.2-2.14-.32-4.96-.07,3.03-.05,4.42-.01,4.96,.07Z"/><path class="cls-2" d="M235.22,22.6c.64,.03,1.5,.04,2.86-.02-.59-.05-1.57-.03-2.86,.02Z"/><path class="cls-2" d="M232.67,21.6l6.67,.09-2.63-.39c-.93,.04-4.21,.1-4.05,.3Z"/><path class="cls-2" d="M363.77,131.63c.09,.14,.16-.07,.22-.44-.11-1.26-.2-2.3-.28-2.9,.04,.96,.09,1.88,.06,3.34Z"/><path class="cls-2" d="M364.34,159.11s-.05,.18-.08,.21c.05,1,.07,.71,.08-.21Z"/><path class="cls-2" d="M366.1,101.41l-.04,1.3c0,.56-.01,1.07-.02,1.66l.06-2.96Z"/><path class="cls-2" d="M364.36,86.22c-.23,.86-.4,1.56-.54,7.68,.18-1.95,.36-4.65,.54-7.68Z"/><path class="cls-2" d="M358.6,35.08c-1.12-1.35-.61-.48-1.5-1.3,1.09,1.41,1.81,2.36,2.09,2.66,.26,.31,.18-.13-.59-1.36Z"/><polygon class="cls-2" points="364.15 152.62 363.86 142.19 364.01 149.82 364.15 152.62"/><path class="cls-2" d="M364.7,204.7c-.05-1.22-.13-2.33-.27-2.98l.27,2.98Z"/><polygon class="cls-2" points="365.23 309.38 365.01 310.98 365.45 314.03 365.23 309.38"/><path class="cls-2" d="M365.35,389.51c-.2,.14-.28-1.73-.33-2.65l.15,7.6,.17-4.95Z"/><polygon class="cls-2" points="365.23 436.48 365.5 435.81 365.25 432.61 365.23 436.48"/><path class="cls-2" d="M377.3,422.51c-.05,.63-.03,1.65,.02,3.02,.03-.68,.04-1.58-.02-3.02Z"/><path class="cls-2" d="M378.15,187.07c-.09-.14-.16,.07-.22,.46,.11,1.3,.2,2.37,.28,3-.04-1-.09-1.94-.06-3.46Z"/><path class="cls-2" d="M377.58,158.66s.05-.18,.08-.21c-.05-1.04-.07-.73-.08,.21Z"/><path class="cls-2" d="M377.57,234.01c.23-.89,.4-1.61,.54-7.94-.18,2.02-.36,4.81-.54,7.94Z"/><polygon class="cls-2" points="377.91 168.26 377.77 165.37 378.07 176.15 377.91 168.26"/><path class="cls-2" d="M377.22,111.53c.05,1.26,.13,2.41,.27,3.08l-.27-3.08Z"/><path class="cls-2" d="M6.18,231.03l.02-2.48c-.05,.76-.04,1.65-.02,2.48Z"/><path class="cls-2" d="M6.89,391.73l-.11,.17c.05,1.42,.12,2.79,.21,4.02,0-1.51,0-2.96-.1-4.19Z"/><polygon class="cls-2" points="7.31 542.87 7.47 539.39 7.36 538.89 7.31 542.87"/><path class="cls-2" d="M302.85,587.54c.76-.24,1.56-.49,1.42-.69-.78,.24-4.83,.55-1.42,.69Z"/><path class="cls-2" d="M275.88,587.62c.9-.02,1.86-.04,2.86-.04-1.27-.11-2.12-.04-2.86,.04Z"/><path class="cls-2" d="M231.81,585.53c-.51,.07-1.1,.13-1.78,.15,.85-.04,1.58-.08,1.78-.15Z"/><path class="cls-2" d="M225.7,586.24c-.94-.39,2.09-.47,4.24-.56-4.83,.18-13.22-.71-23.04-.59-10.35,.09-7.9,1.53-14.72,1.97l18.31-.9c-1.7,.29-1.02,.57-5.2,.67,8.11,.12,9.16-.45,15.83-.36,2.02,.83-11.79,.06-7.94,.8,4.7-.02,11.78-.06,15.55-.77l7.49,.57-2.54-.92c-3.04-.26-6.13,.72-8,.08Z"/><polygon class="cls-2" points="191.1 586.18 191.48 586.06 190.26 585.7 191.1 586.18"/><path class="cls-2" d="M185.1,586.37c-4.4-.82-11.67,.26-16.78,.41-13.52-.37,.61-.44-4.64-1.22,3.79,.02,3.93,.22,9.18,.27-8.28-.93-18.68-.08-23.99,.15,1.55,.08,1.94,.34,4.88,.26l-5.51,.27c5.69,.65,10.57,.83,23.27,.73l9.53-.57c1.03,.08,1.59,.27,2.28,.44-.36-.21,2.19-.57,1.78-.74Z"/><path class="cls-2" d="M183.57,587.17c.9,.2,2.14,.32,4.96,.07-3.03,.05-4.42,.01-4.96-.07Z"/><path class="cls-2" d="M146,586.01c.59,.05,1.57,.03,2.86-.02-.64-.03-1.5-.04-2.86,.02Z"/><path class="cls-2" d="M147.36,587.29c.93-.04,4.21-.1,4.05-.3l-6.67-.09,2.63,.39Z"/><path class="cls-2" d="M20.31,476.96c-.09-.14-.16,.07-.22,.44,.11,1.26,.2,2.3,.28,2.9-.04-.96-.09-1.88-.06-3.34Z"/><path class="cls-2" d="M19.74,449.48s.05-.18,.08-.21c-.05-1-.07-.71-.08,.21Z"/><path class="cls-2" d="M17.98,507.18l.04-1.3c0-.56,.01-1.07,.02-1.66l-.06,2.96Z"/><path class="cls-2" d="M19.73,522.37c.23-.86,.4-1.56,.54-7.68-.18,1.95-.36,4.65-.54,7.68Z"/><path class="cls-2" d="M25.48,573.51c1.12,1.35,.61,.48,1.5,1.3-1.09-1.41-1.81-2.36-2.09-2.66-.26-.31-.18,.13,.59,1.36Z"/><polygon class="cls-2" points="19.94 455.97 20.23 466.4 20.07 458.76 19.94 455.97"/><path class="cls-2" d="M19.38,403.89c.05,1.22,.13,2.33,.27,2.98l-.27-2.98Z"/><polygon class="cls-2" points="18.85 299.21 19.08 297.61 18.63 294.56 18.85 299.21"/><path class="cls-2" d="M18.73,219.08c.2-.14,.28,1.73,.33,2.65l-.15-7.6-.17,4.95Z"/><polygon class="cls-2" points="18.85 172.1 18.58 172.78 18.84 175.98 18.85 172.1"/><path class="cls-2" d="M377.61,508.55c.08-5.25,.7-12.97,.6-21.79-.03-3.96-.24-6.14-.51-7.66,.06,.11,.11,.18,.18,.19l-.35-6.52c.27,2.04,.24-3.95,.51-1.95-.85-12.08,.33-16.9-.05-29.42l-.13,6.98c-.06,0-.12-.13-.16-.33,.22-3.53,.22-7.27,.13-10.79,.11-1.88,.14-4.11,.28-7.8-.31-5.53-1.02-8.61-1.01-16.09,.17,.37,.29-.1,.37-1.05,0,1.24,.03,2.05,.26,1.88,.05-2.94,.05-6.35,.02-10.1,.07-2.22,.17-4.09,.38-4.56-.74-1.59-.27-14.5-.69-15.54-.15-4.01-.07-9.51,.33-9.45,.02,.59,.1,1.76,.13,3.02l.02-4c.09,.38,.15,.25,.16,.71,.02-3.57-.52-3.6-.15-8.18,.2,.05,.19,2.51,.27,4.53,.13-9.48-1.13-16.63-.45-24.5-.3-1.34-.37-9.73-.89-10.42,0-.47-.01-.93-.01-1.41,.29-1.3,.61-2.22,.53-8.18-.67-4.57,.24-8.93-.18-14.98,.7,8.08,.2,.03,.86,7.1,.28-5.45-.62-13.55-.5-23.03,.16-.95,.36-.93,.52-1.91-.04-.56-.08-1.13-.13-1.71,.01-3.17-.09-4.67-.26-3.53-.11-1.98-.13-3.95,.16-5.75l-.47,.42c.24-6.47,.09-15.45,.61-22.37l-.9-8.08c.43-4.89,.49-10.52,.35-16.03,.04-.76,.09-1.52,.13-2.24-.05,.21-.11,.43-.17,.73-.07-2.34-.18-4.64-.3-6.83,.14-.08,.28,.03,.39,.12,.06-2.71,0-4.97-.12-6.99l.38-5.08-.44,.74c.04,1.28,.06,2.57,.03,3.81-.25-4.15-.65-7.33-.51-11.4,.07,.92,.16,2.16,.27,3.57,.03-5.86,.55-13.01-.2-16.28-.17-4.44,.19-4.73,.44-6.37,.05,2.17,.1,4.25,.19,5.51,.14-2.11,.18-6.57,.41-8.01-.22-2.8-.5-6.82-.75-10.8,0-1.85,.02-3.74,.04-5.63,.33-1.59,.32-9.76,.36-12.43-.07,.14-.14,.38-.19,.72,.04-5.12-.05-9.26-.55-11,.15-.47,.37,.1,.58,.26-.08-1.86-.14-3.52-.17-5.03,.22-4.31,.22-8.51,.13-12.59,.01-.12,.02-.24,.04-.38l-.08-1.35c-.06-2.08-.14-4.13-.22-6.14,.13-.28,.35,4.64,.42-1.08-.24-.81-.51-6.58-.45-12.13l.14,1.59c-.11-2.79-.06-6.34-.21-7.86,.06-.83,.14-1.66,.23-2.48-.02-.77-.04-1.57-.06-2.39l.07-.5-.08,.15c-.05-1.99-.1-4.08-.16-6.18,.36-7.21,.94-12.45,.48-24.12-.1,2.59-.26,1.58-.38,.09,0-.65-.02-1.32-.05-1.99-.01,.21-.02,.44-.04,.68,0-.15-.01-.29-.02-.42-.11,2.15-.1,3.73-.04,5.13,.01,.86,.04,1.62,.09,2.12,0-.1,0-.23,0-.35,.14,1.91,.33,3.77,.36,6.76-.28,.54-.6-2.98-.87-4.19,0-.21-.02-.42-.03-.64v-10.81c.1-1.91,.29-3.51,.69-4.67,.02-2.39,0-4.4-.04-6.23-.06-1.84-.24-3.58-.38-5.26-.15-.84-.3-1.68-.45-2.54l-.22-1.32c-.07-.45-.22-.89-.33-1.35l-.17-.67c-.39-1.86-.9-3.68-1.53-5.44l.11,.08c-.05-.06-.1-.13-.15-.21-.44-1.22-.92-2.42-1.46-3.58-.47-1.19-.92-2.33-1.52-3.31-.7-1.27-1.35-2.46-2.15-3.46-1.45-2.1-3.05-3.68-4.52-5.14-.78-.68-1.54-1.34-2.29-1.99-.08-.08-.18-.14-.26-.21-.78-.66-1.58-1.29-2.41-1.89-.26-.21-.52-.42-.79-.64l-1.22-.87c-.83-.58-1.63-1.29-2.54-1.91,.3,.13,.61,.27,.89,.44-.82-.56-2.09-1.09-3.44-1.71-1.38-.58-2.95-.98-4.35-1.47,.43,.25,1.32,.64,2.32,1.08,.5,.23,1.04,.42,1.54,.69h0c-.46-.2-.92-.38-1.39-.56h.04c-3.05-1.44-5.4-1.98-7.28-2.43-.96-.15-1.81-.25-2.61-.35l-1.17-.13c-.38-.03-.77-.01-1.15-.02-1.98-.05-3.95,.04-6.97,.02-.38-.07-.8-.13-1.32-.18-.68,.05-1.1,.1-1.36,.14-1.17-.03-2.46-.07-3.94-.14l-.86,.26H187.89c-1.99-.08-4.31-.1-7.25,0H49.17c-3.13,0-6.18,.37-9.11,1.06,.48-.18,.92-.34,1.27-.45,.83-.26,1.2-.45,.83-.54-.42,.08-.87,.16-1.34,.26-.46,.14-.93,.3-1.43,.45-.49,.16-1,.33-1.53,.5-.53,.16-1.07,.34-1.59,.59-1.06,.48-2.2,.91-3.32,1.43-1.1,.58-2.24,1.12-3.39,1.67,.43-.35,1.08-.74,1.83-1.18,.76-.42,1.58-.97,2.5-1.32,.9-.4,1.82-.8,2.66-1.19,.84-.37,1.63-.63,2.22-.94-2.07,.36-3.35,.88-4.32,1.25-.96,.38-1.6,.63-2.2,1.03-.61,.37-1.25,.75-2.24,1.29-.51,.25-1.07,.6-1.75,1.04-.69,.42-1.51,.92-2.49,1.52,.01-.29,.04-.55,.07-.82-1.21,.89-2.37,1.86-3.54,2.8-1.07,1.06-2.19,2.06-3.2,3.17,1.06-.6,1.61-.81,1.95-.89-.17,.14-.34,.29-.52,.42-.39,.39-.74,.74-1.06,1.05,0-.09-.01-.14-.07-.14-.06,.13-.18,.32-.33,.54l-.38,.38c-.45,.52-.76,.92-.98,1.2-.44,.57-.49,.68-.28,.48,.15-.13,.43-.42,.8-.8-.53,.8-.74,1.24,.66-.22,.12-.26,.25-.53,.35-.77,.59-.52,1.27-1.12,1.96-1.73l.67-.58,.09-.07c.15-.08,.34-.2,.61-.39-3.04,2.67-5.68,5.8-7.84,9.27-.54,.77-.52,.62-.38,.16,.04-.11,.08-.23,.13-.36,.95-1.48,1.59-2.45,.18-.97-.17,.53-.45,1.04-.77,1.61-.29,.59-.65,1.22-1.08,1.92-.9,1.36-1.79,3.17-2.74,5.53-.05-.32-.31,.14-.66,.97-.17,.41-.37,.92-.58,1.46-.21,.54-.43,1.12-.57,1.71-.63,2.33-1.18,4.44-1.15,2.83-.22,1.5-.28,3.03-.43,4.52-.02,1.51,.03,3.02,.05,4.51l.58,8.81c-.36,2.83-.3,7.93-.21,11.68,0-4.21,.19-4.17,.42-3.75v4.49c-.11,.98-.22,1.68-.34,2.05-.02-.77-.05-1.72-.07-2.79,0,.82,.01,1.77,.02,2.92-.1,.22-.2,.2-.3-.12l.27,8.27c0,.08,.02,.15,.03,.22-.38,2.13-.84,6.46-1.03,6.79,.09,3.24,.22,6.05,.36,8.63-.08,5.25-.7,12.97-.6,21.79,.03,3.96,.24,6.14,.51,7.66-.06-.11-.11-.18-.18-.19l.35,6.52c-.27-2.04-.24,3.95-.51,1.95,.85,12.08-.33,16.9,.05,29.42l.13-6.98c.06,0,.12,.13,.16,.33-.22,3.53-.22,7.27-.13,10.79-.11,1.88-.14,4.11-.28,7.8,.31,5.53,1.02,8.61,1.01,16.09-.17-.37-.29,.1-.37,1.05,0-1.24-.03-2.05-.26-1.88-.05,2.94-.05,6.35-.02,10.1-.07,2.22-.17,4.09-.38,4.56,.74,1.59,.27,14.5,.69,15.54,.15,4.01,.07,9.51-.33,9.45-.02-.59-.1-1.76-.13-3.02l-.02,4c-.09-.38-.15-.25-.16-.71-.02,3.57,.52,3.6,.15,8.18-.2-.05-.19-2.51-.27-4.53-.13,9.48,1.13,16.63,.45,24.5,.3,1.34,.37,9.73,.89,10.42,0,.47,.01,.93,.01,1.41-.29,1.3-.61,2.22-.53,8.18,.67,4.57-.24,8.93,.18,14.98-.7-8.08-.2-.03-.86-7.1-.28,5.45,.62,13.55,.5,23.03-.16,.95-.36,.93-.52,1.91,.04,.56,.08,1.13,.13,1.71-.01,3.17,.09,4.67,.26,3.53,.11,1.98,.13,3.95-.16,5.75l.47-.42c-.24,6.47-.09,15.45-.61,22.37l.9,8.08c-.43,4.89-.49,10.52-.35,16.03-.04,.76-.09,1.52-.13,2.24,.05-.21,.11-.43,.17-.73,.07,2.34,.18,4.64,.3,6.83-.14,.08-.28-.03-.39-.12-.06,2.71,0,4.97,.12,6.99l-.38,5.08,.44-.74c-.04-1.28-.06-2.57-.03-3.81,.25,4.15,.65,7.33,.51,11.4-.07-.92-.16-2.16-.27-3.57-.03,5.86-.55,13.01,.2,16.28,.17,4.44-.19,4.73-.44,6.37-.05-2.17-.1-4.25-.19-5.51-.14,2.11-.18,6.57-.41,8.01,.22,2.8,.5,6.82,.75,10.8,0,1.85-.02,3.74-.04,5.63-.33,1.59-.32,9.76-.36,12.43,.07-.14,.14-.38,.19-.72-.04,5.12,.05,9.26,.55,11-.15,.47-.37-.1-.58-.26,.08,1.86,.14,3.52,.17,5.03-.22,4.31-.22,8.51-.13,12.59-.01,.12-.02,.24-.04,.38l.08,1.35c.06,2.08,.14,4.13,.22,6.14-.13,.28-.35-4.64-.42,1.08,.24,.81,.51,6.58,.45,12.13l-.14-1.59c.11,2.79,.06,6.34,.21,7.86-.06,.83-.14,1.66-.23,2.48,.02,.77,.04,1.57,.06,2.39l-.07,.5,.08-.15c.05,1.99,.1,4.08,.16,6.18-.36,7.21-.94,12.45-.48,24.12,.1-2.59,.26-1.58,.38-.09,0,.65,.02,1.32,.05,1.99,.01-.21,.02-.44,.04-.68,0,.15,.01,.29,.02,.42,.11-2.15,.1-3.73,.04-5.13-.01-.86-.04-1.62-.09-2.12,0,.1,0,.23,0,.35-.14-1.91-.33-3.77-.36-6.76,.28-.54,.6,2.98,.87,4.19,0,.21,.02,.42,.03,.64v10.81c-.1,1.91-.29,3.51-.69,4.67-.02,2.39,0,4.4,.04,6.23,.06,1.84,.24,3.58,.38,5.26,.15,.84,.3,1.68,.45,2.54l.22,1.32c.07,.45,.22,.89,.33,1.35l.17,.67c.39,1.86,.9,3.68,1.53,5.44l-.11-.08c.05,.06,.1,.13,.15,.21,.44,1.22,.92,2.42,1.46,3.58,.47,1.19,.92,2.33,1.52,3.31,.7,1.27,1.35,2.46,2.15,3.46,1.45,2.1,3.05,3.68,4.52,5.14,.78,.68,1.54,1.34,2.29,1.99,.08,.08,.18,.14,.26,.21,.78,.66,1.58,1.29,2.41,1.89,.26,.21,.52,.42,.79,.64l1.22,.87c.83,.58,1.63,1.29,2.54,1.91-.3-.13-.61-.27-.89-.44,.82,.56,2.09,1.09,3.44,1.71,1.38,.58,2.95,.98,4.35,1.47-.43-.25-1.32-.64-2.32-1.08-.5-.23-1.04-.42-1.54-.69h0c.46,.2,.92,.38,1.39,.56h-.04c3.05,1.44,5.4,1.98,7.28,2.43,.96,.15,1.81,.25,2.61,.35l1.17,.13c.38,.03,.77,.01,1.15,.02,1.98,.05,3.95-.04,6.97-.02,.38,.07,.8,.13,1.32,.18,.68-.05,1.1-.1,1.36-.14,1.17,.03,2.46,.07,3.94,.14l.86-.26H196.19c1.99,.08,4.31,.1,7.25,0h131.47c3.13,0,6.18-.37,9.11-1.06-.48,.18-.92,.34-1.27,.45-.83,.26-1.2,.45-.83,.54,.42-.08,.87-.16,1.34-.26,.46-.14,.93-.3,1.43-.45,.49-.16,1-.33,1.53-.5,.53-.16,1.07-.34,1.59-.59,1.06-.48,2.2-.91,3.32-1.43,1.1-.58,2.24-1.12,3.39-1.67-.43,.35-1.08,.74-1.83,1.18-.76,.42-1.58,.97-2.5,1.32-.9,.4-1.82,.8-2.66,1.19-.84,.37-1.63,.63-2.22,.94,2.07-.36,3.35-.88,4.32-1.25,.96-.38,1.6-.63,2.2-1.03,.61-.37,1.25-.75,2.24-1.29,.51-.25,1.07-.6,1.75-1.04,.69-.42,1.51-.92,2.49-1.52-.01,.29-.04,.55-.07,.82,1.21-.89,2.37-1.86,3.54-2.8,1.07-1.06,2.19-2.06,3.2-3.17-1.06,.6-1.61,.81-1.95,.89,.17-.14,.34-.29,.52-.42,.39-.39,.74-.74,1.06-1.05,0,.09,.01,.14,.07,.14,.06-.13,.18-.32,.33-.54l.38-.38c.45-.52,.76-.92,.98-1.2,.44-.57,.49-.68,.28-.48-.15,.13-.43,.42-.8,.8,.53-.8,.74-1.24-.66,.22-.12,.26-.25,.53-.35,.77-.59,.52-1.27,1.12-1.96,1.73l-.67,.58-.09,.07c-.15,.08-.34,.2-.61,.39,3.04-2.67,5.68-5.8,7.84-9.27,.54-.77,.52-.62,.38-.16-.04,.11-.08,.23-.13,.36-.95,1.48-1.59,2.45-.18,.97,.17-.53,.45-1.04,.77-1.61,.29-.59,.65-1.22,1.08-1.92,.9-1.36,1.79-3.17,2.74-5.53,.05,.32,.31-.14,.66-.97,.17-.41,.37-.92,.58-1.46,.21-.54,.43-1.12,.57-1.71,.63-2.33,1.18-4.44,1.15-2.83,.22-1.5,.28-3.03,.43-4.52,.02-1.51-.03-3.02-.05-4.51l-.58-8.81c.36-2.83,.3-7.93,.21-11.68,0,4.21-.19,4.17-.42,3.75v-4.49c.11-.98,.22-1.68,.34-2.05,.02,.77,.05,1.72,.07,2.79,0-.82-.01-1.77-.02-2.92,.1-.22,.2-.2,.3,.12l-.27-8.27c0-.08-.02-.15-.03-.22,.38-2.13,.84-6.46,1.03-6.79-.09-3.24-.22-6.05-.36-8.63Zm-.54-18.47c-.19-2.18-.36-4.83-.52-5.09v-5.78c.02-.33,.03-.69,.04-1.1l.57,12.44c-.03-.18-.06-.33-.09-.47Zm-.52-99.47s.04-.02,.06-.03c-.02,.06-.04,.12-.06,.2v-.17Zm.11,68.85c-.02,.35-.06,.63-.11,.9h0v-2.84l.11,1.94Zm-.11-60.42v.18c0,.24,0,.48,0,.72v-.9Zm.02-40.86c0,.31-.01,.62-.02,.94v-1.08l.02,.14Zm0,116.03c.35,.45,.54,1.9,.73,3.14-.25-.95-.52-1.79-.73-3.14Zm.99-27.42c-.07-1.16-.09-2.8-.13-4.35,.09-.05,.19-.41,.32-1.29-.01,2.68-.1,3.64-.18,5.64Zm.27-11.9c-.02,.22-.04,.41-.06,.58-.13-3.93-.35-7.47-.45-9.95-.05,1.1-.18,1.65-.24,2.83-.06-.87-.14-1.65-.23-2.39l-.05-1.11c-.01,.13-.03,.26-.04,.39-.07-.55-.14-1.09-.22-1.65v-11.29c.09,.62,.14,1.87,.11,4.44-.02,.34-.03,.69-.06,1.02,.75-.89,1.17,10.14,1.25,17.13Zm-1.05-149.38c.05-.3,.1-.29,.16,.22-.05-.14-.1-.22-.16-.22Zm-.02-20.79c-.08-.02-.15-.41-.22-.97v-5.08c.1,.36,.2,1.08,.29,2.52-.02,1.36-.04,2.52-.07,3.53Zm1.05,47.49c-.91,6.84-.03-13.48-.75-1.61v-.05c.1-2.91,.24-5.54,.41-7.72,.13,2.12,.26,4.81,.33,9.39Zm-.35-9.63c-.09,.18-.13-.68-.14-2.11,.05,.68,.09,1.36,.14,2.11Zm-.83-93.5c.04-.47,.08-.75,.12-.74v.12l-.12,.62Zm-.07-52.46c0-.11-.01-.22-.02-.32,0,.06,0,.1,0,.16v-10.09c.07,.5,.12,1.63,.14,3.84,0-.07,0-.13,0-.2-.02,1.87-.07,4.12-.11,6.62Zm.46-35.29c-.09-2.16-.16-4.28-.21-6.37,.16,1.35,.26,3.23,.21,6.37Zm-24.88,461.59c-.26,.17-.53,.32-.79,.48-.1,.06-.2,.12-.29,.17-.35,.19-.7,.37-1.05,.54l1.04-1.07c-1.5,1.12-3.19,2.05-4.98,2.83-3.23,1.15-6.69,1.78-10.3,1.78h-9.09c1.78-.18,2.86-.38,2.37-.59-3.28,.06-8.1,.6-12.98,.43,2.1-.41,7.33-.36,9.78-.9-7.87-.44-4.94,.35-13.6,.15l.48-.65-8.36,.21c3.09,.92,1.51,1.08,3.5,1.34h-11.09c-3.51-.1,1.04-.51,.54-.59l-3.81,.59h-5.94l2.04-.1-.66-.28-1.89,.38h-11.52c.12-.01,.23-.03,.35-.04l-1.21,.04h-1.49l-.09-.02c-3.01-.27-.17-.92,4.69-.75,5.09-.15,4.63,.5,9.04,.08l-6.05-.53c-7.43,.07-11.88,.9-14.96,1.22h-18.38c2.13-.68,12.64,.18,13.96-.48-7.07,.04-12.74-.61-11.19-1.11l-7.84,.28c-2.39,.31,.16,.89,3.72,1.31H49.17c-15.67,0-28.69-11.8-30.97-27.16-.03-.4-.03-.79-.04-1.19-.01-.92-.07-1.8-.02-2.74,.02-.48,.04-.95,.06-1.42,0,1.07,.09,2.11,.13,3.17,.34,4.27,1.56,8.49,3.57,12.3,2.01,3.81,4.83,7.19,8.2,9.87,3.37,2.69,7.29,4.67,11.47,5.74,.52,.13,1.04,.29,1.57,.39l1.6,.25c.54,.07,1.06,.2,1.61,.22l1.62,.08c1.07,.08,2.18,.07,3.28,.07h3.3c8.81,.03,17.69,.07,26.64,.18l5.06-.87c1.74,.44,8.53,0,7.52,.56-1.96-.11-3.82-.02-6.17,0,7.66,.77,20.31-.06,29.5,.21-1.04-.16-2.54-.91,.22-1.05-.74,.97,10.85-.02,13.54,1.1,9.2,.28,.36-.85,9.92-.69,1.01-.57-9.18-.28-10.91-.71,3.01-.46,8.67,.2,8.25-.4-15.35-.28-43.87,.91-67.32,1.23l2.46-.54c-11.83-.12-32.23,2.36-39.27-4.82,.4,.39-.3,.03-1.53-.75-.58-.44-1.29-.98-2.08-1.58-.73-.66-1.52-1.39-2.29-2.13-.7-.82-1.47-1.58-2.09-2.36-.62-.79-1.19-1.52-1.66-2.13-.86-1.26-1.47-1.95-1.49-1.43-.35-.66-.54-1.25-.76-1.78-.21-.53-.42-1.01-.64-1.52-.2-.53-.37-1.1-.61-1.79l-.38-1.13c-.1-.42-.21-.89-.33-1.4l-.63-1.02c-.32-1.49-.37-2.58-.47-3.45-.01-.88,.04-1.55,.07-2.24l.04-1.08c.02-.4,.05-.84,.08-1.35,.05-1.02,.08-2.31,.07-4.11-.49,4.71-.63-.5-1.04-2.6,.55-8.27,1.02-17.88,1.47-25.21-.16,.58-.34,1.23-.55,3.75,.17-4.98-.3-4.13-.46-5.47-.02-4.81,.61-4.31,.93-4.07,.19-8.83-1.01-12.77-.61-19.36l-.5,2.3c-.12-9.08,.43-16.75,.26-26.76,.69-4.86,.6,8.25,.89,12.4,.14-2.04,.18-6.35,.41-7.75-.35-4.27-.83-11.49-1.16-16.82,.8,5.11,.76-7.67,.81-11.1-.33,.61-.49,3.11-.43,8.38-.44-.63-.35-7.46-.6-10.65-.27,6.59-.49,.63-.87,1.45v-14.53c.04-1.91,.04-3.79,.01-5.65,.09,3.99,.17,7.62,.14,10.1,.32,.22,.8-4.49,.84,2.74,.06-2.93,.42-1.75,.74-1.51-.35-7.46-.13-11.51-.55-16.04,.42-4.16,.14,2.82,.55-1.37l-.38-5.98c.1-4.43,.42,4.54,.5-2.32-.24-.79-.51-6.37-.45-11.74l.14,1.54c-.17-4.1,.04-9.93-.65-7.93l.68-4.87-.47,.86c.18-11.27,1.3-15.49,.72-30.02-.14,3.47-.39,.28-.48-1.59-.33,6.05,.35,7.48,.42,13.21-.41,.76-.9-6.75-1.2-3.7,.36-6.92-.09-12.91,.99-15.94,.07-9.24-.5-12.69-.23-22.07l.18,.26c-.77-1.74,.35-7.62-.44-14.55l-.17,4.95c-.32-.24-.33-2.65-.38-5.98q.12,.39,.27-.7c-.51-.95-.63-9.97-.78-12.43v-19.44l.87-4.92c-.06,2.94,.07,5.75-.25,5.51,.37,3.58,.6,1.95,.91-.19,.15,7.6-.19,8.84,.39,14.7,.73-12.62-.6-10.66,.03-25.15l-1.2-3.95c.13-5.89,.48,1.59,.73-3.91-.39-6-.8,6.85-1.38,1.02,.22-2.36,.05-5.67-.1-8.36v-2.68c.37,1.38,.93,.13,1.07-.81-.21-2.26,.16-7.36,.18-11.24-.46,9.52-.28-8.01-.78,.58-.19-.28-.36-2.17-.47-4.5v-8.17c.01-.19,.03-.39,.04-.56,.32,.27,.25,3.21,.26,5.61,.6,1.97,.32-6.03,.87-7.4-.56-6.13-.72-21.35-1.18-28.05v-5.86c.19-.8,.38-1.36,.57-.44,.08-3.61-.26-4.75-.57-6.48v-16.39c.38-.87,.71-10.14,1.07-11.82-1.1-14.65,1.08-14.75,.62-28.82-.35-8.71-.55,.9-.87,.37,0-4.81-.38-9.69-.14-13.51,.31,.53,.43,3.42,.35,6.32,.71-1.83-.11-5.33,.36-10.56-.08,.46-.2,2.37-.35,.9,.17-12.99-.58-7.3-.18-24.14-.2-2.45-.19-4.85-.66-4.44,.6-9.56,.59-4.73,1.12-16.24-.25,.4-.78,3.44-1.31,4.03v-4.07c.21-5.49,.19-8.75,.14-11.52-.03-1.71-.06-3.23-.05-4.98,.01-.87,.01-1.8,.07-2.83,.1-1.03,.16-2.16,.38-3.42-.09,.57-.02,1.21-.05,2.04-.02,.84-.04,1.88-.07,3.26,.21-.33,.28-1.06,.35-2.01,.04-.47,.06-1.01,.08-1.59,.03-.58-.01-1.22,.09-1.88,.15-2.67,.84-5.86,1.95-8.47l.47,.78c.91-2.38,2.39-5.6,4.69-8.48,1.67-2.15,3.77-4.06,5.93-5.46,.04-.03,.09-.06,.13-.09,.26-.17,.53-.32,.79-.48,.1-.06,.2-.12,.29-.17,.35-.19,.7-.37,1.05-.54l-1.04,1.07c1.5-1.12,3.19-2.05,4.98-2.82,3.23-1.15,6.69-1.78,10.3-1.78h9.09c-1.78,.18-2.86,.38-2.37,.59,3.28-.06,8.1-.6,12.98-.43-2.1,.41-7.33,.36-9.78,.9,7.87,.44,4.94-.35,13.6-.15l-.48,.65,8.36-.21c-3.09-.92-1.51-1.08-3.5-1.34h11.09c3.51,.1-1.04,.51-.54,.59l3.81-.59h5.94l-2.04,.1,.66,.28,1.89-.38h11.52c-.12,.01-.23,.03-.35,.04l1.21-.04h1.49l.09,.02c3.01,.27,.17,.92-4.69,.75-5.09,.15-4.63-.5-9.04-.08l6.05,.53c7.43-.07,11.88-.9,14.96-1.22h18.38c-2.13,.68-12.64-.18-13.96,.48,7.07-.04,12.74,.61,11.19,1.11l7.84-.28c2.39-.31-.16-.89-3.72-1.31h196.92c15.67,0,28.69,11.8,30.97,27.16,.03,.4,.03,.79,.04,1.19,.01,.92,.07,1.8,.02,2.74-.02,.48-.04,.95-.06,1.42,0-1.07-.09-2.11-.13-3.17-.34-4.27-1.56-8.49-3.57-12.3-2.01-3.81-4.83-7.19-8.2-9.87-3.37-2.69-7.29-4.67-11.47-5.74-.52-.13-1.04-.29-1.57-.39l-1.6-.25c-.54-.07-1.06-.2-1.61-.22l-1.62-.08c-1.07-.08-2.18-.07-3.28-.07h-3.3c-8.81-.03-17.69-.07-26.64-.18l-5.06,.87c-1.74-.44-8.53,0-7.52-.56,1.96,.11,3.82,.02,6.17,0-7.66-.77-20.31,.06-29.5-.21,1.04,.16,2.54,.91-.22,1.05,.74-.97-10.85,.02-13.54-1.1-9.2-.28-.36,.85-9.92,.69-1.01,.57,9.18,.28,10.91,.71-3.01,.46-8.67-.2-8.25,.4,15.35,.28,43.87-.91,67.32-1.23l-2.46,.54c11.83,.12,32.23-2.36,39.27,4.82-.4-.39,.3-.03,1.53,.75,.58,.44,1.29,.98,2.08,1.58,.73,.66,1.52,1.39,2.29,2.13,.7,.82,1.47,1.58,2.09,2.36,.62,.79,1.19,1.52,1.66,2.13,.86,1.26,1.47,1.95,1.49,1.43,.35,.66,.54,1.25,.76,1.78,.21,.53,.42,1.01,.64,1.52,.2,.53,.37,1.1,.61,1.79l.38,1.13c.1,.42,.21,.89,.33,1.4l.63,1.02c.32,1.49,.37,2.58,.47,3.45,.01,.88-.04,1.55-.07,2.24l-.04,1.08c-.02,.4-.05,.84-.08,1.35-.05,1.02-.08,2.31-.07,4.11,.49-4.71,.63,.5,1.04,2.6-.55,8.27-1.02,17.88-1.47,25.21,.16-.58,.34-1.23,.55-3.75-.17,4.98,.3,4.13,.46,5.47,.02,4.81-.61,4.31-.93,4.07-.19,8.83,1.01,12.77,.61,19.36l.5-2.3c.12,9.08-.43,16.75-.26,26.76-.69,4.86-.6-8.25-.89-12.4-.14,2.04-.18,6.35-.41,7.75,.35,4.27,.83,11.49,1.16,16.82-.8-5.11-.76,7.67-.81,11.1,.33-.61,.49-3.11,.43-8.38,.44,.63,.35,7.46,.6,10.65,.27-6.59,.49-.63,.87-1.45v14.53c-.04,1.91-.04,3.79-.01,5.65-.09-3.99-.17-7.62-.14-10.1-.32-.22-.8,4.49-.84-2.74-.06,2.93-.42,1.75-.74,1.51,.35,7.46,.13,11.51,.55,16.04-.42,4.16-.14-2.82-.55,1.37l.38,5.98c-.1,4.43-.42-4.54-.5,2.32,.24,.79,.51,6.37,.45,11.74l-.14-1.54c.17,4.1-.04,9.93,.65,7.93l-.68,4.87,.47-.86c-.18,11.27-1.3,15.49-.72,30.02,.14-3.47,.39-.28,.48,1.59,.33-6.05-.35-7.48-.42-13.21,.41-.76,.9,6.75,1.2,3.7-.36,6.92,.09,12.91-.99,15.94-.07,9.24,.5,12.69,.23,22.07l-.18-.26c.77,1.74-.35,7.62,.44,14.55l.17-4.95c.32,.24,.33,2.65,.38,5.98q-.12-.39-.27,.7c.51,.95,.63,9.97,.78,12.43v19.44l-.87,4.92c.06-2.94-.07-5.75,.25-5.51-.37-3.58-.6-1.95-.91,.19-.15-7.6,.19-8.84-.39-14.7-.73,12.62,.6,10.66-.03,25.15l1.2,3.95c-.13,5.89-.48-1.59-.73,3.91,.39,6,.8-6.85,1.38-1.02-.22,2.36-.05,5.67,.1,8.36v2.68c-.37-1.38-.93-.13-1.07,.81,.21,2.26-.16,7.36-.18,11.24,.46-9.52,.28,8.01,.78-.58,.19,.28,.36,2.17,.47,4.5v8.17c-.01,.19-.03,.39-.04,.56-.32-.27-.25-3.21-.26-5.61-.6-1.97-.32,6.03-.87,7.4,.56,6.13,.72,21.35,1.18,28.05v5.86c-.19,.8-.38,1.36-.57,.44-.08,3.61,.26,4.75,.57,6.48v16.39c-.38,.87-.71,10.14-1.07,11.82,1.1,14.65-1.08,14.75-.62,28.82,.35,8.71,.55-.9,.87-.37,0,4.81,.38,9.69,.14,13.51-.31-.53-.43-3.42-.35-6.32-.71,1.83,.11,5.33-.36,10.56,.08-.46,.2-2.37,.35-.9-.17,12.99,.58,7.3,.18,24.14,.2,2.45,.19,4.85,.66,4.44-.6,9.56-.59,4.73-1.12,16.24,.25-.4,.78-3.44,1.31-4.03v4.07c-.21,5.49-.19,8.75-.14,11.52,.03,1.71,.06,3.23,.05,4.98-.01,.87-.01,1.8-.07,2.83-.1,1.03-.16,2.16-.38,3.42,.09-.57,.02-1.21,.05-2.04,.02-.84,.04-1.88,.07-3.26-.21,.33-.28,1.06-.35,2.01-.04,.47-.06,1.01-.08,1.59-.03,.58,.01,1.22-.09,1.88-.15,2.67-.84,5.86-1.95,8.47l-.47-.78c-.91,2.38-2.39,5.6-4.69,8.48-1.67,2.15-3.77,4.06-5.93,5.46-.04,.03-.09,.06-.13,.09ZM17.98,149.3l.51,4.23c-.15-1.23-.39-.49-.65-.06v-39.51l.09-.35c-.33,13.92,1.32,23.33,.05,35.68Zm-.14,15.6v-5.02c.08,1.78,.07,3.52,0,5.02Zm0,54.18v-10.54c.05,.47,.09,.83,.13,.96-.19,3.53,.12,9.29-.13,9.59Zm.36,330.3l-.36-3.12v-8.11c.13-3.65,.11-7.5,0-11.26v-14.25l.13-1.63c-.03,7.05,.14,13.23,.3,21.61-.02,4.25-.04,8.52-.06,12.81,0,1.32,0,2.64,0,3.96Zm-.18-43.49c-.02,.93-.03,1.83-.04,2.72l-.15,.24v-26.17c.06-.48,.1-1.09,.12-1.89-.05-.53-.09-1.08-.12-1.65v-5.12c.25,10,.5,23.55,.18,31.88Zm.16-37.5c-.09-.29-.22-.29-.34,.17v-14.37c.14,4.55,.43,8.04,.34,14.2Zm-.34-69.95v-8.11c.12,2.68,.27,5.18,.47,7.41-.14,.97-.3,3.18-.47,.71Zm1.3,17.02c-.7-10.89-.73,1.23-1.3,1.09v-16.79c.28,6.81,1.68,3.93,1.3,15.7Zm-1.3-64.04v-6.63c.37,.93,.76-.57,.8,8.24l-.8-1.61Zm0-35.72v-8.72c.11,3.49,.37,7.31,.47,11.01-.15-1.2-.33-1.69-.47-2.29Zm347.6-60.12l.8,1.61v6.63c-.37-.93-.76,.57-.8-8.24Zm.8,37.34v8.72c-.11-3.49-.37-7.31-.47-11.01,.15,1.2,.33,1.69,.47,2.29Zm-.47-82.04c.14-.97,.3-3.18,.47-.71v8.11c-.12-2.68-.27-5.18-.47-7.41Zm-.84-17.73c.7,10.89,.73-1.23,1.3-1.09v16.79c-.28-6.81-1.68-3.93-1.3-15.7Zm1.3-67.22c-.06,.48-.1,1.09-.12,1.89,.05,.53,.09,1.08,.12,1.65v5.12c-.25-10-.5-23.55-.18-31.88,.02-.93,.03-1.83,.04-2.72l.15-.24v26.17Zm0,14.12v14.37c-.14-4.55-.43-8.04-.34-14.2,.09,.29,.22,.29,.34-.17Zm0-69.59c-.13,3.65-.11,7.5,0,11.26v14.25l-.13,1.63c.03-7.05-.14-13.23-.3-21.61,.02-4.25,.04-8.52,.06-12.81,0-1.32,0-2.64,0-3.96l.36,3.12v8.11Zm0,319.06v10.54c-.05-.47-.09-.83-.13-.96,.19-3.53-.12-9.29,.13-9.59Zm-.14,69.78l-.51-4.23c.15,1.23,.39,.49,.65,.06v39.51l-.09,.35c.33-13.92-1.32-23.33-.05-35.68Zm.14-15.6v5.02c-.08-1.78-.07-3.52,0-5.02ZM13.83,29.8c.17-.27,.33-.53,.5-.78-.29,.69-.58,1.38-.84,2.08-.13,.23-.23,.48-.36,.72-.08,.11-.15,.22-.22,.33-1.36,1.77-.21-.3,.93-2.35ZM7.01,118.51c.19,2.18,.36,4.83,.52,5.09v5.78c-.02,.33-.03,.69-.04,1.1l-.57-12.44c.03,.18,.06,.33,.09,.47Zm.42,30.61c.02-.35,.06-.63,.11-.9h0v2.84l-.11-1.94Zm.11,68.85s-.04,.02-.06,.03c.02-.06,.04-.12,.06-.2v.17Zm0-8.43v-.18c0-.24,0-.48,0-.72v.9Zm-.02,40.86c0-.31,.01-.62,.02-.94v1.08l-.02-.14Zm0-116.03c-.35-.45-.54-1.9-.73-3.14,.25,.95,.52,1.79,.73,3.14Zm-.99,27.42c.07,1.16,.09,2.8,.13,4.35-.09,.05-.19,.41-.32,1.29,.01-2.68,.1-3.64,.18-5.64Zm-.27,11.9c.02-.22,.04-.41,.06-.58,.13,3.93,.35,7.47,.45,9.95,.05-1.1,.18-1.65,.24-2.83,.06,.87,.14,1.65,.23,2.39l.05,1.11c.01-.13,.03-.26,.04-.39,.07,.55,.14,1.09,.22,1.65v11.29c-.09-.62-.14-1.87-.11-4.44,.02-.34,.03-.69,.06-1.02-.75,.89-1.17-10.14-1.25-17.13Zm1.05,149.38c-.05,.3-.1,.29-.16-.22,.05,.14,.1,.22,.16,.22Zm.02,20.79c.08,.02,.15,.41,.22,.97v5.08c-.1-.36-.2-1.08-.29-2.52,.02-1.36,.04-2.52,.07-3.53Zm-1.05-47.49c.91-6.84,.03,13.48,.75,1.61v.05c-.1,2.91-.24,5.54-.41,7.72-.13-2.12-.26-4.81-.33-9.39Zm.35,9.63c.09-.18,.13,.68,.14,2.11-.05-.68-.09-1.36-.14-2.11Zm.83,93.5c-.04,.47-.08,.75-.12,.74v-.12l.12-.62Zm.07,52.46c0,.11,.01,.22,.02,.32,0-.06,0-.1,0-.16v10.09c-.07-.5-.12-1.63-.14-3.84,0,.07,0,.13,0,.2,.02-1.87,.07-4.12,.11-6.62Zm-.46,35.29c.09,2.16,.16,4.28,.21,6.37-.16-1.35-.26-3.23-.21-6.37Zm363.21,91.55c-.17,.27-.33,.53-.5,.78,.29-.69,.58-1.38,.84-2.08,.13-.23,.23-.48,.36-.72,.08-.11,.15-.22,.22-.33,1.36-1.77,.21,.3-.93,2.35Z"/><path class="cls-2" d="M6.78,186.08c.05-.63,.03-1.65-.02-3.02-.03,.68-.04,1.58,.02,3.02Z"/><path class="cls-2" d="M5.93,421.52c.09,.14,.16-.07,.22-.46-.11-1.3-.2-2.37-.28-3,.04,1,.09,1.94,.06,3.46Z"/><path class="cls-2" d="M6.5,449.93s-.05,.18-.08,.21c.05,1.04,.07,.73,.08-.21Z"/><path class="cls-2" d="M6.52,374.58c-.23,.89-.4,1.61-.54,7.94,.18-2.02,.36-4.81,.54-7.94Z"/><polygon class="cls-2" points="6.17 440.33 6.31 443.22 6.02 432.44 6.17 440.33"/><path class="cls-2" d="M6.86,497.06c-.05-1.26-.13-2.41-.27-3.08l.27,3.08Z"/><path class="cls-2" d="M377.9,377.56l-.02,2.48c.05-.76,.04-1.65,.02-2.48Z"/><path class="cls-2" d="M377.19,216.86l.11-.17c-.05-1.42-.12-2.79-.21-4.02,0,1.51,0,2.96,.1,4.19Z"/><polygon class="cls-2" points="376.77 65.72 376.61 69.19 376.73 69.7 376.77 65.72"/></g></g></g></svg>