<?xml version="1.0" encoding="UTF-8"?><svg id="_イヤー_2" xmlns="http://www.w3.org/2000/svg" viewBox="0 0 500 500"><defs><style>.cls-1{fill:#fff;}.cls-2{opacity:.8;}</style></defs><g id="_イヤー_1-2"><g><g class="cls-2"><path class="cls-1" d="M482.34,338.81c-.1,.52-.06,1.38,.04,2.53,.06-.57,.08-1.32-.04-2.53Z"/><path class="cls-1" d="M483.97,141.74c-.17-.12-.31,.06-.42,.38,.21,1.09,.39,1.99,.53,2.51-.08-.83-.17-1.63-.11-2.89Z"/><path class="cls-1" d="M482.87,117.96c.06-.04,.1-.15,.16-.18-.09-.87-.13-.61-.16,.18Z"/><path class="cls-1" d="M482.85,181.03c.44-.74,.78-1.35,1.03-6.65-.34,1.69-.69,4.02-1.03,6.65Z"/><polygon class="cls-1" points="483.51 125.99 483.24 123.57 483.8 132.59 483.51 125.99"/><path class="cls-1" d="M482.18,78.51c.09,1.05,.24,2.02,.52,2.58l-.52-2.58Z"/><path class="cls-1" d="M16.52,200.59l.03-2.07c-.09,.64-.08,1.38-.03,2.07Z"/><path class="cls-1" d="M17.88,335.09l-.22,.14c.09,1.19,.24,2.33,.4,3.36,.02-1.26-.02-2.48-.18-3.51Z"/><polygon class="cls-1" points="18.69 461.6 19 458.7 18.77 458.27 18.69 461.6"/><path class="cls-1" d="M482.94,410.36c.21-4.38,1.31-10.65,1.13-17.77-.15-7.69-2.09-7.38-3.19-10.67v-.48c1.28,.61,1.45,4.22,2.56,4.28l-.67-5.46c.52,1.7,.46-3.31,.99-1.64-1.64-10.11,.64-14.14-.1-24.62l-.24,5.84c-.09,0-.16-.06-.23-.15,.38-2.95,.34-6.06,.15-8.97,.23-1.61,.29-3.51,.57-6.72-.6-4.63-1.95-7.21-1.94-13.47,.35,.32,.57-.12,.73-.98-.05,1.42-.05,2.46,.49,2.28,.1-2.59,.1-5.61,.03-8.94,.14-1.91,.33-3.54,.74-3.94-1.43-1.33-.51-12.14-1.33-13.01-.29-3.36-.14-7.96,.63-7.91,.04,.5,.18,1.47,.25,2.53l.05-3.35c.17,.32,.29,.21,.31,.59,.04-2.98-1.01-3.01-.3-6.85,.38,.04,.37,2.11,.52,3.79,.24-7.93-2.17-13.92-.87-20.51-.59-1.13-.71-8.23-1.73-8.73,0-.38-.02-.76-.03-1.14,.56-1.1,1.2-1.85,1.04-6.87-1.28-3.83,.47-7.48-.36-12.54,1.35,6.77,.38,.02,1.66,5.95,.53-4.56-1.19-11.34-.96-19.28,.31-.79,.69-.78,.99-1.6-.07-.46-.16-.94-.25-1.42,0-2.09-.17-3.1-.44-2.52-.27-1.81-.36-3.62,.25-5.26l-.91,.36c.47-5.42,.18-12.93,1.18-18.72l-1.73-6.77c.8-3.96,.93-8.51,.7-12.98,.08-.58,.15-1.15,.23-1.71-.09,.15-.19,.32-.29,.53-.13-1.93-.32-3.83-.55-5.65,.25-.03,.49,.05,.68,.11,.12-2.43-.04-4.42-.27-6.21l.78-4.5-.85,.62c.1,1.23,.12,2.47,.03,3.63-.49-3.52-1.29-6.23-.91-9.77,.14,.74,.31,1.7,.48,2.78,.06-4.9,1.05-10.89-.39-13.63-.32-3.64,.34-3.95,.82-5.26,.1,2,.21,3.98,.4,5.15,.28-1.77,.35-5.5,.79-6.7-.43-2.33-.95-5.69-1.44-9.01-.01-1.54,.01-3.12,.06-4.71,.66-1.24,.63-8.18,.7-10.44-.14,.12-.27,.33-.38,.64,.09-4.18-.02-7.65-.8-9.39,.26-.02,.58,.27,.87,.37-.18-1.74-.28-3.26-.35-4.63,.43-3.49,.45-6.9,.29-10.22,.02-.07,.03-.14,.05-.21l-.09-.63c-.11-1.91-.27-3.79-.44-5.64,.26,.29,.63,3.53,.76-.91-.46-.68-.97-5.51-.87-10.15l.27,1.33c-.22-2.48-.1-5.68-.46-6.8,.13-.83,.29-1.66,.51-2.47-.03-.48-.06-.98-.09-1.48l.1-.32-.11,.09c-.1-1.71-.2-3.53-.31-5.35,.7-5.93,1.77-10.32,.91-19.98-.19,2.13-.49,1.36-.71,.16,0-.76-.04-1.55-.11-2.35-.04,.26-.07,.57-.1,.9v-.08c-.63,5.24,.67,6.47,.79,11.43-.52,.43-1.1-2.23-1.61-3.35-.04-.41-.08-.84-.12-1.3v-8.44c.19-1.6,.55-2.93,1.33-3.91,.03-2,0-3.68-.08-5.22-.02-.39-.05-.76-.07-1.13-.05-.4-.1-.79-.16-1.17-.06-.38-.09-.76-.18-1.14-.11-.37-.22-.74-.32-1.11-.12-.37-.2-.74-.34-1.1-.16-.36-.32-.73-.48-1.1-.16-.42-.37-.84-.61-1.26-1.16-3.14-3.37-5.99-6.4-8.38-2.27-2.21-5.03-3.75-7.73-4.77-2.83-1.05-5.56-1.69-8.17-1.98-1.84-.25-3.6-.35-5.35-.42-.32-.01-.64-.02-.95-.03-2.88-.09-5.76-.13-8.96-.63l1.24-.05c-2.11-.13-5.64,.07-8.96,.22-12.98-.72-13.78,.27-23.87,.21-.27-.04-.56-.07-.89-.1-.37,.03-.66,.06-.93,.08-1.83-.03-3.92-.1-6.4-.2l-1.51,.45H230.35c-3.04-.19-6.66-.28-11.66-.12-1.07,.04-1.92,.08-2.6,.12H51.43c-4.12,0-8.06,.55-11.65,1.54,.66-.24,1.24-.46,1.7-.65,.95-.43,1.41-.62,.89-.73-1.06,.23-2.21,.59-3.42,.98-1.16,.47-2.43,.91-3.62,1.53-.87,.38-1.7,.85-2.53,1.31-.17,.07-.34,.13-.5,.21-.96,.42-1.88,.86-2.74,1.33,.77-.64,1.76-1.33,2.88-1.96,1.9-1.17,4.14-2.12,5.49-2.91-1.29,.33-2.37,.63-3.2,.97-.84,.33-1.57,.56-2.1,.86-1.07,.57-1.79,.95-2.4,1.43-.31,.24-.63,.48-.99,.75-.37,.27-.79,.57-1.25,.96-.96,.76-2.29,1.76-3.97,3.44l-.67-.83c-1.47,1.61-2.63,3.34-3.44,5.14-.48,.55-.94,1.1-1.33,1.69-.46,.88-.64,1.64-.82,2.23-.08,.3-.16,.55-.22,.78-.04,.23-.05,.42-.07,.58-.06,.63,0,.74,.11,.49,.14-.24,.25-.86,.65-1.63,.17-.39,.37-.82,.58-1.28,.11-.2,.23-.41,.36-.62,.61-.57,1.07-.91,1.42-1.13-.39,.69-.71,1.52-.97,2.46-.13,.66-.36,1.35-.38,2.11-.08,.75-.18,1.54-.13,2.38-.02,.83,0,1.7,0,2.61,0,.91-.07,1.86-.19,2.84-1.01,3.72-.5-7.96-1.66-3.84,1.28,1.74,.37,4.19,.74,8.39-1.21-.91-.16,8.75-1.53,6.18l2.24,14.74c-.69,2.37-.57,6.64-.4,9.78,0-3.52,.36-3.49,.8-3.14v3.15c-.21,.86-.45,1.47-.7,1.76-.03-.53-.07-1.12-.11-1.77,0,.54,0,1.16,.02,1.87-.18,.16-.37,.13-.54-.13l.52,6.92c.06,.21,.12,.37,.19,.49-.76,1.64-1.72,5.69-2.11,5.98,.18,2.65,.41,4.96,.67,7.08-.21,4.38-1.31,10.65-1.13,17.77,.15,7.69,2.09,7.38,3.19,10.67v.48c-1.28-.61-1.45-4.22-2.56-4.28l.67,5.46c-.52-1.7-.46,3.31-.99,1.64,1.64,10.11-.64,14.14,.1,24.62l.24-5.84c.09,0,.16,.06,.23,.15-.38,2.95-.34,6.06-.15,8.97-.23,1.61-.29,3.51-.57,6.72,.6,4.63,1.95,7.21,1.94,13.47-.35-.32-.57,.12-.73,.98,.05-1.42,.05-2.46-.49-2.28-.1,2.59-.1,5.61-.03,8.94-.14,1.91-.33,3.54-.74,3.94,1.43,1.33,.51,12.14,1.33,13.01,.29,3.36,.14,7.96-.63,7.91-.04-.5-.18-1.47-.25-2.53l-.05,3.35c-.17-.32-.29-.21-.31-.59-.04,2.98,1.01,3.01,.3,6.85-.38-.04-.37-2.11-.52-3.79-.24,7.93,2.17,13.92,.87,20.51,.59,1.13,.71,8.23,1.73,8.73,0,.38,.02,.76,.03,1.14-.56,1.1-1.2,1.85-1.04,6.87,1.28,3.83-.47,7.48,.35,12.54-1.35-6.77-.38-.02-1.66-5.95-.53,4.56,1.19,11.34,.96,19.28-.31,.79-.69,.78-.99,1.6,.07,.46,.16,.94,.25,1.42,0,2.09,.17,3.1,.44,2.52,.27,1.81,.36,3.62-.25,5.26l.91-.36c-.47,5.42-.18,12.93-1.18,18.72l1.73,6.77c-.8,3.96-.93,8.51-.7,12.98-.08,.58-.15,1.15-.23,1.71,.09-.15,.19-.32,.29-.53,.13,1.93,.32,3.83,.55,5.65-.25,.03-.49-.05-.68-.11-.12,2.43,.04,4.42,.27,6.21l-.78,4.5,.85-.62c-.1-1.23-.12-2.47-.03-3.63,.49,3.52,1.29,6.23,.91,9.77-.14-.74-.31-1.7-.48-2.78-.06,4.9-1.05,10.89,.39,13.63,.32,3.64-.34,3.95-.82,5.26-.1-2-.21-3.98-.4-5.15-.28,1.77-.35,5.5-.79,6.7,.43,2.33,.95,5.69,1.44,9.01,.01,1.54-.01,3.12-.06,4.71-.66,1.24-.63,8.18-.7,10.44,.14-.12,.27-.33,.38-.64-.09,4.18,.02,7.65,.8,9.39-.26,.02-.58-.27-.87-.37,.18,1.74,.28,3.26,.35,4.63-.43,3.49-.45,6.9-.29,10.22-.02,.07-.03,.14-.05,.21l.09,.63c.11,1.91,.27,3.79,.44,5.64-.26-.29-.63-3.53-.76,.91,.46,.68,.97,5.51,.87,10.15l-.27-1.33c.22,2.48,.1,5.68,.46,6.8-.13,.83-.29,1.66-.51,2.47,.03,.48,.06,.98,.09,1.48l-.1,.32,.11-.09c.1,1.71,.2,3.53,.31,5.35-.7,5.93-1.77,10.32-.91,19.98,.19-2.13,.49-1.36,.71-.16,0,.76,.04,1.55,.11,2.35,.04-.26,.07-.57,.1-.9v.08c.63-5.24-.67-6.47-.79-11.43,.52-.43,1.1,2.23,1.61,3.35,.04,.41,.08,.84,.12,1.29v8.44c-.19,1.6-.55,2.93-1.33,3.91-.04,2,0,3.68,.08,5.22,.02,.39,.05,.76,.07,1.13l.16,1.17c.06,.38,.09,.76,.18,1.14,.11,.37,.22,.74,.32,1.11,.12,.37,.2,.74,.34,1.1,.16,.36,.32,.73,.48,1.1,.16,.42,.37,.84,.61,1.26,1.16,3.14,3.37,5.99,6.4,8.38,2.27,2.21,5.03,3.75,7.73,4.77,2.83,1.05,5.56,1.69,8.17,1.98,1.84,.25,3.6,.35,5.35,.42,.32,.01,.64,.02,.95,.03,2.88,.09,5.76,.13,8.96,.63l-1.24,.05c2.11,.13,5.64-.07,8.96-.22,12.98,.72,13.78-.27,23.87-.21,.27,.04,.56,.07,.89,.1,.37-.03,.66-.06,.93-.08,1.83,.03,3.92,.1,6.4,.2l1.51-.45h170.72c3.04,.19,6.66,.28,11.66,.12,1.07-.04,1.92-.08,2.6-.12h164.67c4.12,0,8.06-.55,11.65-1.54-.66,.24-1.24,.46-1.7,.65-.95,.43-1.41,.62-.89,.73,1.06-.23,2.21-.59,3.42-.98,1.16-.47,2.43-.91,3.62-1.53,.87-.38,1.7-.85,2.53-1.31,.17-.07,.34-.14,.5-.21,.96-.42,1.88-.86,2.74-1.33-.77,.64-1.76,1.33-2.88,1.96-1.9,1.17-4.14,2.12-5.49,2.91,1.29-.33,2.37-.63,3.2-.97,.84-.33,1.57-.56,2.1-.86,1.07-.57,1.79-.95,2.4-1.43,.31-.24,.63-.48,.99-.75,.37-.27,.79-.57,1.25-.96,.96-.76,2.29-1.76,3.97-3.44l.67,.83c1.47-1.61,2.63-3.34,3.44-5.14,.48-.55,.94-1.1,1.33-1.69,.46-.88,.64-1.64,.82-2.23,.08-.3,.16-.55,.22-.78,.04-.23,.05-.42,.07-.58,.06-.63,0-.74-.11-.49-.14,.24-.25,.86-.65,1.63-.17,.39-.37,.82-.58,1.28-.11,.2-.23,.41-.36,.62-.61,.57-1.07,.91-1.42,1.13,.39-.69,.71-1.52,.97-2.46,.13-.66,.36-1.35,.38-2.11,.08-.75,.18-1.54,.13-2.38,.02-.83,0-1.7,0-2.61,0-.91,.07-1.86,.19-2.84,1.01-3.72,.5,7.96,1.66,3.84-1.28-1.74-.37-4.19-.74-8.39,1.21,.91,.16-8.75,1.53-6.18l-2.24-14.74c.69-2.37,.57-6.64,.4-9.78,0,3.52-.36,3.49-.8,3.14v-3.15c.21-.86,.45-1.47,.7-1.76,.03,.53,.07,1.12,.11,1.77,0-.54,0-1.16-.02-1.87,.18-.16,.37-.13,.54,.13l-.52-6.92c-.06-.21-.12-.37-.19-.49,.76-1.64,1.72-5.69,2.11-5.98-.18-2.65-.41-4.96-.67-7.08Zm-1.85-40.62c-.02,.11-.05,.19-.07,.29l-.14-.15v-1.76l.21,1.62Zm-.21,20.75v-4.84c.02-.17,.04-.35,.06-.54l1.07,10.19c-.42-1.89-.77-4.57-1.13-4.81Zm0-71.94l.02,.24c0,.37-.01,.75-.02,1.12v-1.37Zm.01-33.66c0,.09,0,.17-.01,.25v-.25Zm.03-168.77s-.01-.1-.02-.14c0,.05,0,.09-.01,.13v-8.45c.13,.4,.23,1.27,.26,2.94-.05,1.59-.14,3.46-.22,5.52Zm1.97,242.63c-.14-.84-.19-2.06-.26-3.27,.17-.07,.35-.37,.57-1.06-.02,2.07-.18,2.91-.31,4.34Zm.49-10.19c-.05,.24-.1,.45-.15,.63-.26-3.1-.65-5.88-.83-7.86-.09,.81-.3,1.27-.42,2.04-.24-1.66-.66-2.87-1.08-4.27v-8.84c.15,.46,.24,1.32,.22,2.98-.04,.33-.08,.66-.13,.98,.04-.02,.07-.03,.11-.03,.08,.06,.15,.07,.21,.04,1.24,.64,1.94,8.93,2.08,14.33Zm-2.15-124.4c.15-1,.35-1.29,.6,.49-.15-.4-.35-.58-.6-.49Zm.06-17.43c-.14-.06-.27-.37-.4-.8v-4.86c.19,.3,.38,.91,.56,2.11-.05,1.42-.11,2.58-.16,3.56Zm2.06,39.15c-1.7,5.54-.16-10.22-1.31-2.22,.19-1.98,.43-3.77,.72-5.29,.23,1.72,.46,3.92,.59,7.51Zm-.6-7.55c-.26,.49-.33-.58-.35-2.34,.11,.74,.23,1.48,.35,2.34Zm-1.79-77.9c.11-.91,.23-1.5,.36-1.49,.03,.16,.06,.35,.1,.55l-.46,.95Zm.89-74.18c-.15-1.59-.28-3.16-.38-4.7,.27,1.04,.43,2.47,.38,4.7ZM429.1,6.45c1.35-.04,2.8-.13,4.58-.28,1.16,.11,3.07,.19,4.85,.28h-9.43ZM18.91,131.42c.02-.11,.05-.19,.07-.29l.14,.15v1.76l-.21-1.62Zm.21-20.75v4.84c-.02,.17-.04,.35-.06,.54l-1.07-10.19c.42,1.89,.77,4.57,1.13,4.81Zm0,71.94c0-.08-.01-.16-.02-.24,0-.37,.01-.75,.02-1.12v1.37Zm-.01,33.66c0-.09,0-.17,.01-.25v.25Zm-.03,168.77s.01,.1,.02,.14c0-.05,0-.09,.01-.13v8.45c-.13-.4-.23-1.27-.26-2.94,.05-1.59,.14-3.46,.22-5.52Zm-1.97-242.63c.14,.84,.19,2.06,.26,3.27-.17,.07-.35,.37-.57,1.06,.02-2.07,.18-2.91,.31-4.34Zm-.49,10.19c.05-.24,.1-.45,.15-.63,.26,3.1,.65,5.88,.83,7.86,.09-.81,.3-1.27,.42-2.04,.24,1.66,.66,2.87,1.08,4.27v8.84c-.15-.46-.24-1.32-.22-2.98,.04-.33,.08-.66,.13-.98-.04,.02-.07,.03-.11,.03-.08-.06-.15-.07-.21-.04-1.24-.64-1.94-8.93-2.08-14.33Zm2.15,124.4c-.15,1-.35,1.29-.6-.49,.15,.4,.35,.58,.6,.49Zm-.06,17.43c.14,.06,.27,.37,.4,.8v4.86c-.19-.3-.38-.91-.56-2.11,.05-1.42,.11-2.58,.16-3.56Zm-2.06-39.15c1.7-5.54,.16,10.22,1.31,2.22-.19,1.98-.43,3.77-.72,5.29-.23-1.72-.46-3.92-.59-7.51Zm.6,7.55c.26-.49,.33,.58,.35,2.34-.11-.74-.23-1.48-.35-2.34Zm1.79,77.9c-.11,.91-.23,1.5-.36,1.49-.03-.16-.06-.35-.1-.55l.46-.95Zm-.89,74.18c.15,1.59,.28,3.16,.38,4.7-.27-1.04-.43-2.47-.38-4.7Zm52.73,79.8c-1.35,.04-2.8,.13-4.58,.28-1.16-.11-3.07-.19-4.85-.28h9.43Z"/><path class="cls-1" d="M17.66,162.35c.1-.52,.06-1.38-.04-2.53-.06,.57-.08,1.32,.04,2.53Z"/><path class="cls-1" d="M16.03,359.43c.17,.12,.31-.06,.42-.38-.21-1.09-.39-1.99-.53-2.51,.08,.83,.17,1.63,.11,2.89Z"/><path class="cls-1" d="M17.13,383.2c-.06,.04-.1,.15-.16,.18,.09,.87,.13,.61,.16-.18Z"/><path class="cls-1" d="M17.15,320.13c-.44,.74-.78,1.35-1.03,6.65,.34-1.69,.69-4.02,1.03-6.65Z"/><polygon class="cls-1" points="16.49 375.17 16.76 377.59 16.2 368.57 16.49 375.17"/><path class="cls-1" d="M17.82,422.65c-.09-1.05-.24-2.02-.52-2.58l.52,2.58Z"/><path class="cls-1" d="M483.48,300.57l-.03,2.07c.09-.64,.08-1.38,.03-2.07Z"/><path class="cls-1" d="M482.12,166.07l.22-.14c-.09-1.19-.24-2.33-.4-3.36-.02,1.26,.02,2.48,.18,3.51Z"/><polygon class="cls-1" points="481.31 39.56 481 42.47 481.23 42.89 481.31 39.56"/></g><g><path class="cls-1" d="M101.2,9.96c-1.02,.21-2.1,.41-1.9,.58,1.05-.21,6.49-.46,1.9-.58Z"/><path class="cls-1" d="M137.42,9.89c-1.21,.02-2.5,.04-3.84,.04,1.7,.09,2.84,.04,3.84-.04Z"/><path class="cls-1" d="M198.99,11.53c-1.15,.03-2.12,.07-2.39,.13,.68-.06,1.48-.11,2.39-.13Z"/><path class="cls-1" d="M232.2,10.56c-10.89-.1-12.3,.38-21.26,.3-2.71-.71,15.83-.05,10.66-.68-6.31,.02-15.82,.05-20.89,.65l-10.06-.48,3.41,.78c4.09,.22,8.23-.61,10.74-.07,1.27,.33-2.81,.39-5.69,.47,6.49-.16,17.75,.6,30.94,.5,13.9-.08,10.6-1.3,19.76-1.67l-24.59,.76c2.28-.24,1.37-.48,6.98-.57Z"/><polygon class="cls-1" points="251.26 11.11 250.75 11.21 252.39 11.52 251.26 11.11"/><path class="cls-1" d="M301.44,11.05l7.4-.23c-7.65-.56-14.19-.7-31.25-.62l-12.8,.49c-1.38-.07-2.14-.23-3.06-.37,.49,.18-2.94,.48-2.4,.63,5.91,.7,15.67-.22,22.53-.35,18.16,.32-.82,.37,6.23,1.04-5.09-.02-5.28-.18-12.32-.23,11.12,.79,25.08,.06,32.21-.13-2.08-.07-2.61-.29-6.55-.22Z"/><path class="cls-1" d="M261.38,10.27c-1.21-.17-2.87-.27-6.66-.06,4.07-.04,5.94-.01,6.66,.06Z"/><path class="cls-1" d="M307.98,11.27c.86,.03,2.01,.04,3.84-.02-.8-.04-2.1-.03-3.84,.02Z"/><path class="cls-1" d="M304.56,10.43l8.96,.07-3.53-.33c-1.25,.04-5.65,.09-5.43,.26Z"/><path class="cls-1" d="M480.6,103.67c.12,.12,.21-.06,.29-.37-.15-1.07-.27-1.95-.37-2.46,.06,.82,.12,1.59,.08,2.83Z"/><path class="cls-1" d="M481.37,126.96s-.07,.15-.11,.18c.06,.85,.09,.6,.11-.18Z"/><path class="cls-1" d="M483.74,78.06c-.02,.33-.04,.74-.06,1.1,0,.48-.02,.9-.02,1.41l.08-2.51Z"/><path class="cls-1" d="M481.39,65.19c-.3,.73-.54,1.32-.72,6.51,.24-1.65,.48-3.94,.72-6.51Z"/><path class="cls-1" d="M473.66,21.85c-1.51-1.15-.81-.4-2.01-1.1,1.46,1.19,2.43,2,2.8,2.25,.34,.26,.24-.11-.79-1.15Z"/><polygon class="cls-1" points="481.11 121.46 480.72 112.62 480.93 119.09 481.11 121.46"/><path class="cls-1" d="M481.85,165.6c-.06-1.03-.17-1.97-.36-2.52l.36,2.52Z"/><polygon class="cls-1" points="482.57 254.31 482.27 255.67 482.87 258.25 482.57 254.31"/><path class="cls-1" d="M482.73,322.22c-.26,.11-.38-1.46-.44-2.25l.21,6.44,.23-4.19Z"/><polygon class="cls-1" points="482.56 362.03 482.93 361.46 482.59 358.74 482.56 362.03"/><path class="cls-1" d="M498.78,350.19c-.07,.53-.04,1.4,.03,2.56,.04-.57,.06-1.34-.03-2.56Z"/><path class="cls-1" d="M499.92,150.65c-.12-.12-.21,.06-.29,.39,.15,1.1,.27,2.01,.37,2.54-.06-.84-.12-1.65-.08-2.93Z"/><path class="cls-1" d="M499.15,126.58s.07-.15,.11-.18c-.06-.88-.09-.62-.11,.18Z"/><path class="cls-1" d="M499.13,190.43c.3-.75,.54-1.36,.72-6.73-.24,1.71-.48,4.07-.72,6.73Z"/><polygon class="cls-1" points="499.59 134.71 499.41 132.26 499.8 141.4 499.59 134.71"/><path class="cls-1" d="M498.67,86.64c.06,1.07,.17,2.04,.36,2.61l-.36-2.61Z"/><path class="cls-1" d="M.42,187.91l.02-2.1c-.06,.65-.05,1.4-.02,2.1Z"/><path class="cls-1" d="M1.37,324.1l-.15,.14c.06,1.2,.17,2.36,.28,3.41,.01-1.28-.01-2.51-.13-3.55Z"/><polygon class="cls-1" points="1.94 452.18 2.15 449.24 2 448.81 1.94 452.18"/><path class="cls-1" d="M398.8,490.04c1.02-.21,2.1-.41,1.9-.58-1.05,.21-6.49,.46-1.9,.58Z"/><path class="cls-1" d="M362.58,490.11c1.21-.02,2.5-.04,3.84-.04-1.7-.09-2.84-.04-3.84,.04Z"/><path class="cls-1" d="M303.4,488.34c-.68,.06-1.48,.11-2.39,.13,1.15-.03,2.12-.07,2.39-.13Z"/><path class="cls-1" d="M295.2,488.94c-1.27-.33,2.81-.39,5.69-.47-6.49,.16-17.75-.6-30.94-.5-13.9,.08-10.6,1.3-19.76,1.67l24.59-.76c-2.28,.24-1.37,.48-6.98,.57,10.89,.1,12.3-.38,21.26-.3,2.71,.71-15.83,.05-10.66,.68,6.31-.02,15.82-.05,20.89-.65l10.06,.48-3.41-.78c-4.09-.22-8.23,.61-10.74,.07Z"/><polygon class="cls-1" points="248.74 488.89 249.25 488.79 247.61 488.48 248.74 488.89"/><path class="cls-1" d="M240.67,489.05c-5.91-.7-15.67,.22-22.53,.35-18.16-.32,.82-.37-6.23-1.04,5.09,.02,5.28,.18,12.32,.23-11.12-.79-25.08-.06-32.21,.13,2.08,.07,2.61,.29,6.55,.22l-7.4,.23c7.65,.56,14.19,.7,31.25,.62l12.8-.49c1.38,.07,2.14,.23,3.06,.37-.49-.18,2.94-.48,2.4-.63Z"/><path class="cls-1" d="M238.62,489.73c1.21,.17,2.87,.27,6.66,.06-4.07,.04-5.94,.01-6.66-.06Z"/><path class="cls-1" d="M188.17,488.75c.8,.04,2.1,.03,3.84-.02-.86-.03-2.01-.04-3.84,.02Z"/><path class="cls-1" d="M190.01,489.83c1.25-.04,5.65-.09,5.43-.26l-8.96-.07,3.53,.33Z"/><path class="cls-1" d="M19.4,396.33c-.12-.12-.21,.06-.29,.37,.15,1.07,.27,1.95,.37,2.46-.06-.82-.12-1.59-.08-2.83Z"/><path class="cls-1" d="M18.63,373.04s.07-.15,.11-.18c-.06-.85-.09-.6-.11,.18Z"/><path class="cls-1" d="M16.26,421.94c.02-.33,.04-.74,.06-1.1,0-.48,.02-.9,.02-1.41l-.08,2.51Z"/><path class="cls-1" d="M18.61,434.81c.3-.73,.54-1.32,.72-6.51-.24,1.65-.48,3.94-.72,6.51Z"/><path class="cls-1" d="M26.34,478.15c1.51,1.15,.81,.4,2.01,1.1-1.46-1.19-2.43-2-2.8-2.25-.34-.26-.24,.11,.79,1.15Z"/><polygon class="cls-1" points="18.89 378.54 19.28 387.38 19.07 380.91 18.89 378.54"/><path class="cls-1" d="M18.15,334.4c.06,1.03,.17,1.97,.36,2.52l-.36-2.52Z"/><polygon class="cls-1" points="17.43 245.69 17.73 244.33 17.13 241.75 17.43 245.69"/><path class="cls-1" d="M17.27,177.78c.26-.11,.38,1.46,.44,2.25l-.21-6.44-.23,4.19Z"/><polygon class="cls-1" points="17.44 137.97 17.07 138.54 17.41 141.26 17.44 137.97"/><path class="cls-1" d="M499.19,423.1c.1-4.45,.93-10.99,.8-18.47-.04-3.36-.32-5.21-.69-6.49,.07,.09,.15,.15,.24,.16l-.46-5.53c.37,1.73,.32-3.35,.69-1.66-1.15-10.23,.45-14.32-.07-24.93l-.17,5.92c-.09,0-.15-.11-.21-.28,.3-2.99,.3-6.16,.17-9.15,.14-1.59,.19-3.49,.38-6.61-.42-4.68-1.36-7.3-1.36-13.64,.23,.32,.39-.08,.49-.89-.01,1.05,.04,1.74,.35,1.59,.07-2.5,.07-5.38,.03-8.56,.09-1.88,.23-3.46,.51-3.86-1-1.35-.36-12.29-.93-13.17-.21-3.4-.1-8.06,.44-8.01,.03,.5,.13,1.49,.17,2.56l.03-3.39c.12,.32,.2,.21,.22,.6,.03-3.02-.7-3.05-.21-6.93,.26,.04,.26,2.13,.37,3.84,.17-8.03-1.51-14.1-.61-20.76-.41-1.13-.49-8.25-1.2-8.83,0-.39-.01-.79-.02-1.19,.39-1.1,.82-1.88,.71-6.93-.89-3.88,.33-7.57-.25-12.7,.94,6.85,.26,.02,1.16,6.02,.37-4.62-.83-11.48-.67-19.52,.21-.8,.48-.79,.69-1.62-.05-.47-.11-.96-.17-1.45,.02-2.69-.12-3.96-.35-2.99-.15-1.68-.17-3.35,.22-4.87l-.64,.36c.33-5.48,.12-13.09,.82-18.96l-1.21-6.85c.57-4.14,.66-8.92,.47-13.58,.06-.65,.12-1.29,.17-1.9-.07,.18-.15,.36-.23,.62-.1-1.98-.24-3.93-.41-5.79,.19-.06,.38,.03,.52,.1,.08-2.3-.01-4.21-.16-5.92l.51-4.3-.59,.63c.06,1.09,.07,2.18,.04,3.23-.33-3.52-.88-6.21-.68-9.66,.09,.78,.22,1.83,.36,3.03,.04-4.97,.73-11.02-.27-13.8-.23-3.76,.26-4.01,.59-5.4,.07,1.84,.14,3.6,.26,4.67,.19-1.79,.25-5.57,.55-6.79-.3-2.37-.67-5.78-1.01-9.15,0-1.56,.02-3.17,.06-4.77,.45-1.34,.43-8.27,.48-10.53-.1,.12-.18,.32-.26,.61,.05-4.34-.07-7.85-.74-9.32,.2-.4,.5,.09,.78,.22-.11-1.58-.18-2.98-.23-4.26,.3-3.65,.3-7.21,.17-10.67,.02-.1,.03-.21,.05-.33l-.11-1.15c-.08-1.76-.19-3.5-.3-5.21,.18-.24,.48,3.93,.57-.92-.32-.69-.68-5.58-.6-10.28l.19,1.35c-.15-2.37-.08-5.38-.28-6.66,.09-.71,.19-1.41,.32-2.1-.03-.65-.05-1.33-.08-2.02l.09-.42-.1,.12c-.07-1.69-.13-3.46-.21-5.23,.49-6.11,1.26-10.55,.65-20.44-.14,2.2-.35,1.34-.5,.08-.01-.55-.03-1.12-.07-1.69-.02,.17-.03,.37-.05,.58-.01-.12-.02-.24-.03-.36-.15,1.82-.14,3.16-.06,4.34,.02,.73,.06,1.37,.13,1.8,0-.09,0-.2,.01-.3,.18,1.62,.44,3.19,.48,5.73-.38,.46-.81-2.52-1.17-3.55-.01-.18-.02-.36-.04-.54v-9.16c.13-1.62,.39-2.97,.93-3.96,.02-2.02,0-3.73-.06-5.28-.08-1.56-.32-3.03-.51-4.46-.2-.71-.4-1.42-.6-2.16l-.3-1.12c-.09-.38-.3-.75-.44-1.15l-.23-.57c-.52-1.58-1.21-3.12-2.05-4.61l.14,.07c-.07-.05-.14-.11-.21-.17-.59-1.03-1.23-2.05-1.96-3.04-.63-1.01-1.23-1.97-2.04-2.81-.94-1.08-1.82-2.09-2.89-2.93-1.94-1.78-4.1-3.12-6.08-4.36-1.05-.58-2.07-1.14-3.07-1.69-.11-.06-.24-.12-.35-.18-1.04-.56-2.13-1.09-3.24-1.6-.35-.18-.7-.36-1.06-.54l-1.64-.74c-1.12-.49-2.18-1.1-3.41-1.62,.41,.11,.81,.23,1.19,.37-1.1-.47-2.8-.92-4.63-1.45-1.85-.49-3.97-.83-5.84-1.25,.58,.21,1.77,.55,3.12,.92,.67,.19,1.4,.36,2.07,.59h0c-.61-.17-1.24-.32-1.86-.48h.05c-4.09-1.22-7.26-1.68-9.78-2.06-1.29-.12-2.43-.22-3.5-.29l-1.57-.11c-.52-.03-1.03,0-1.55-.02-2.66-.04-5.31,.03-9.36,.02-.51-.06-1.08-.11-1.78-.15-.91,.05-1.48,.08-1.83,.12-1.57-.02-3.31-.06-5.28-.12l-1.16,.22H244.42c-2.67-.07-5.79-.08-9.73,0H58.15c-4.21,0-8.3,.32-12.23,.9,.65-.15,1.24-.29,1.71-.39,1.11-.22,1.61-.39,1.11-.46-.57,.06-1.17,.13-1.8,.22-.61,.12-1.25,.25-1.92,.38-.66,.14-1.35,.28-2.06,.42-.71,.14-1.43,.29-2.14,.5-1.43,.41-2.95,.77-4.45,1.21-1.47,.49-3.01,.95-4.55,1.41,.58-.3,1.45-.62,2.45-1,1.02-.35,2.12-.82,3.36-1.12,1.21-.33,2.44-.68,3.57-1.01,1.13-.31,2.19-.53,2.99-.79-2.78,.31-4.5,.75-5.8,1.06-1.29,.32-2.14,.54-2.95,.87-.82,.31-1.67,.64-3.01,1.09-.68,.21-1.44,.51-2.36,.88-.93,.36-2.02,.78-3.34,1.29,.02-.24,.06-.46,.1-.69-1.63,.75-3.18,1.58-4.75,2.37-1.43,.9-2.94,1.75-4.3,2.69,1.43-.51,2.16-.69,2.62-.75-.23,.12-.46,.24-.7,.36-.53,.33-.99,.63-1.42,.89,0-.07-.02-.12-.1-.12-.08,.11-.24,.27-.44,.46l-.51,.32c-.6,.44-1.02,.78-1.32,1.02-.6,.48-.66,.58-.37,.41,.2-.11,.58-.36,1.07-.68-.71,.68-1,1.05,.89-.18,.16-.22,.33-.45,.47-.65,.8-.44,1.7-.95,2.63-1.46l.89-.49,.13-.06c.21-.06,.45-.17,.82-.33-4.08,2.27-7.63,4.91-10.53,7.85-.73,.65-.7,.52-.51,.14,.05-.09,.11-.19,.18-.3,1.28-1.25,2.14-2.08,.25-.82-.23,.45-.61,.88-1.04,1.37-.39,.5-.88,1.03-1.45,1.62-1.21,1.15-2.41,2.69-3.68,4.68-.07-.27-.41,.12-.88,.82-.23,.35-.5,.78-.78,1.24-.28,.46-.58,.95-.76,1.45-.85,1.97-1.58,3.76-1.55,2.39-.29,1.27-.38,2.56-.58,3.83-.03,1.28,.04,2.56,.06,3.82l.78,7.46c-.48,2.4-.4,6.72-.28,9.9,0-3.57,.25-3.53,.56-3.18v3.81c-.14,.83-.3,1.43-.46,1.73-.03-.65-.07-1.46-.1-2.36,0,.7,.02,1.5,.03,2.48-.14,.19-.27,.17-.4-.1l.36,7.01c.01,.07,.03,.12,.04,.19-.51,1.81-1.13,5.48-1.39,5.75,.13,2.74,.3,5.13,.48,7.32-.1,4.45-.93,10.99-.8,18.47,.04,3.36,.32,5.21,.69,6.49-.07-.09-.15-.15-.24-.16l.46,5.53c-.37-1.73-.32,3.35-.69,1.66,1.15,10.23-.45,14.32,.07,24.93l.17-5.92c.09,0,.15,.11,.21,.28-.3,2.99-.3,6.16-.17,9.15-.14,1.59-.19,3.49-.38,6.61,.42,4.68,1.36,7.3,1.36,13.64-.23-.32-.39,.08-.49,.89,.01-1.05-.04-1.74-.35-1.59-.07,2.5-.07,5.38-.03,8.56-.09,1.88-.23,3.46-.51,3.86,1,1.35,.36,12.29,.93,13.17,.21,3.4,.1,8.06-.44,8.01-.03-.5-.13-1.49-.17-2.56l-.03,3.39c-.12-.32-.2-.21-.22-.6-.03,3.02,.7,3.05,.21,6.93-.26-.04-.26-2.13-.37-3.84-.17,8.03,1.51,14.1,.61,20.76,.41,1.13,.49,8.25,1.2,8.83,0,.39,.01,.79,.02,1.19-.39,1.1-.82,1.88-.71,6.93,.89,3.88-.33,7.57,.25,12.7-.94-6.85-.26-.02-1.16-6.02-.37,4.62,.83,11.48,.67,19.52-.21,.8-.48,.79-.69,1.62,.05,.47,.11,.96,.17,1.45-.02,2.69,.12,3.96,.35,2.99,.15,1.68,.17,3.35-.22,4.87l.64-.36c-.33,5.48-.12,13.09-.82,18.96l1.21,6.85c-.57,4.14-.66,8.92-.47,13.58-.06,.65-.12,1.29-.17,1.9,.07-.18,.15-.36,.23-.62,.1,1.98,.24,3.93,.41,5.79-.19,.06-.38-.03-.52-.1-.08,2.3,.01,4.21,.16,5.92l-.51,4.3,.59-.63c-.06-1.09-.07-2.18-.04-3.23,.33,3.52,.88,6.21,.68,9.66-.09-.78-.22-1.83-.36-3.03-.04,4.97-.73,11.02,.27,13.8,.23,3.76-.26,4.01-.59,5.4-.07-1.84-.14-3.6-.26-4.67-.19,1.79-.25,5.57-.55,6.79,.3,2.37,.67,5.78,1.01,9.15,0,1.56-.02,3.17-.06,4.77-.45,1.34-.43,8.27-.48,10.53,.1-.12,.18-.32,.26-.61-.05,4.34,.07,7.85,.74,9.32-.2,.4-.5-.09-.78-.22,.11,1.58,.18,2.98,.23,4.26-.3,3.65-.3,7.21-.17,10.67-.02,.1-.03,.21-.05,.33l.11,1.15c.08,1.76,.19,3.5,.3,5.21-.18,.24-.48-3.93-.57,.92,.32,.69,.68,5.58,.6,10.28l-.19-1.35c.15,2.37,.08,5.38,.28,6.66-.09,.71-.19,1.41-.32,2.1,.03,.65,.05,1.33,.08,2.02l-.09,.42,.1-.12c.07,1.69,.13,3.46,.21,5.23-.49,6.11-1.26,10.55-.65,20.44,.14-2.2,.35-1.34,.5-.08,.01,.55,.03,1.12,.07,1.69,.02-.17,.03-.37,.05-.58,.01,.12,.02,.24,.03,.36,.15-1.82,.14-3.16,.06-4.34-.02-.73-.06-1.37-.13-1.8,0,.09,0,.2-.01,.3-.18-1.62-.44-3.19-.48-5.73,.38-.46,.81,2.52,1.17,3.55,.01,.18,.02,.36,.04,.54v9.16c-.13,1.62-.39,2.97-.93,3.96-.02,2.02,0,3.73,.06,5.28,.08,1.56,.32,3.03,.51,4.46,.2,.71,.4,1.42,.6,2.16l.3,1.12c.09,.38,.3,.75,.44,1.15l.23,.57c.52,1.58,1.21,3.12,2.05,4.61l-.14-.07c.07,.05,.14,.11,.21,.17,.59,1.03,1.23,2.05,1.96,3.04,.63,1.01,1.23,1.97,2.04,2.81,.94,1.08,1.82,2.09,2.89,2.93,1.94,1.78,4.1,3.12,6.08,4.36,1.05,.58,2.07,1.14,3.07,1.69,.11,.06,.24,.12,.35,.18,1.04,.56,2.13,1.09,3.24,1.6,.35,.18,.7,.36,1.06,.54l1.64,.74c1.12,.49,2.18,1.1,3.41,1.62-.41-.11-.81-.23-1.19-.37,1.1,.47,2.8,.92,4.63,1.45,1.85,.49,3.97,.83,5.84,1.25-.58-.21-1.77-.55-3.12-.92-.67-.19-1.4-.36-2.07-.59h0c.61,.17,1.24,.32,1.86,.48h-.05c4.09,1.22,7.26,1.68,9.78,2.06,1.29,.12,2.43,.22,3.5,.29l1.57,.11c.52,.03,1.03,0,1.55,.02,2.66,.04,5.31-.03,9.36-.02,.51,.06,1.08,.11,1.78,.15,.91-.05,1.48-.08,1.83-.12,1.57,.02,3.31,.06,5.28,.12l1.16-.22H255.58c2.67,.07,5.79,.08,9.73,0h176.54c4.21,0,8.3-.32,12.23-.9-.65,.15-1.24,.29-1.71,.39-1.11,.22-1.61,.39-1.11,.46,.57-.06,1.17-.13,1.8-.22,.61-.12,1.25-.25,1.92-.38,.66-.14,1.35-.28,2.06-.42,.71-.14,1.43-.29,2.14-.5,1.43-.41,2.95-.77,4.45-1.21,1.47-.49,3.01-.95,4.55-1.41-.58,.3-1.45,.62-2.45,1-1.02,.35-2.12,.82-3.36,1.12-1.21,.33-2.44,.68-3.57,1.01-1.13,.31-2.19,.53-2.99,.79,2.78-.31,4.5-.75,5.8-1.06,1.29-.32,2.14-.54,2.95-.87,.82-.31,1.67-.64,3.01-1.09,.68-.21,1.44-.51,2.36-.88,.93-.36,2.02-.78,3.34-1.29-.02,.24-.06,.46-.1,.69,1.63-.75,3.18-1.58,4.75-2.37,1.43-.9,2.94-1.75,4.3-2.69-1.43,.51-2.16,.69-2.62,.75,.23-.12,.46-.24,.7-.36,.53-.33,.99-.63,1.42-.89,0,.07,.02,.12,.1,.12,.08-.11,.24-.27,.44-.46l.51-.32c.6-.44,1.02-.78,1.32-1.02,.6-.48,.66-.58,.37-.41-.2,.11-.58,.36-1.07,.68,.71-.68,1-1.05-.89,.18-.16,.22-.33,.45-.47,.65-.8,.44-1.7,.95-2.63,1.46l-.89,.49-.13,.06c-.21,.06-.45,.17-.82,.33,4.08-2.27,7.63-4.91,10.53-7.85,.73-.65,.7-.52,.51-.14-.05,.09-.11,.19-.18,.3-1.28,1.25-2.14,2.08-.25,.82,.23-.45,.61-.88,1.04-1.37,.39-.5,.88-1.03,1.45-1.62,1.21-1.15,2.41-2.69,3.68-4.68,.07,.27,.41-.12,.88-.82,.23-.35,.5-.78,.78-1.24,.28-.46,.58-.95,.76-1.45,.85-1.97,1.58-3.76,1.55-2.39,.29-1.27,.38-2.56,.58-3.83,.03-1.28-.04-2.56-.06-3.82l-.78-7.46c.48-2.4,.4-6.72,.28-9.9,0,3.57-.25,3.53-.56,3.18v-3.81c.14-.83,.3-1.43,.46-1.73,.03,.65,.07,1.46,.1,2.36,0-.7-.02-1.5-.03-2.48,.14-.19,.27-.17,.4,.1l-.36-7.01c-.01-.07-.03-.12-.04-.19,.51-1.81,1.13-5.48,1.39-5.75-.13-2.74-.3-5.13-.48-7.32Zm-.72-15.65c-.26-1.85-.48-4.09-.7-4.31v-4.9c.03-.28,.05-.58,.06-.93l.76,10.54c-.04-.15-.08-.28-.11-.4Zm-.7-84.29s.06-.02,.08-.02c-.03,.05-.06,.1-.08,.17v-.15Zm.15,58.35c-.03,.29-.08,.54-.14,.76h0v-2.41l.15,1.64Zm-.15-51.21v.15c0,.2,0,.41,0,.61v-.77Zm.03-34.62c0,.26-.02,.53-.03,.8v-.91l.03,.12Zm.01,98.33c.47,.38,.72,1.61,.98,2.66-.34-.8-.69-1.52-.98-2.66Zm1.33-23.24c-.09-.99-.12-2.38-.18-3.69,.12-.04,.26-.35,.42-1.09-.02,2.27-.14,3.08-.24,4.78Zm.36-10.09c-.02,.19-.05,.34-.08,.49-.18-3.33-.47-6.33-.61-8.43-.07,.93-.25,1.4-.33,2.4-.08-.74-.19-1.4-.31-2.03l-.07-.94c-.02,.11-.04,.22-.05,.33-.1-.46-.19-.92-.29-1.4v-9.57c.12,.53,.19,1.59,.14,3.76-.03,.29-.05,.59-.08,.87,1-.76,1.57,8.59,1.67,14.52Zm-1.4-126.59c.06-.25,.13-.25,.21,.19-.06-.12-.13-.18-.21-.19Zm-.03-17.62c-.11-.02-.21-.35-.3-.82v-4.3c.13,.3,.27,.92,.39,2.13-.03,1.15-.06,2.14-.09,2.99Zm1.41,40.25c-1.22,5.8-.04-11.42-1-1.37v-.04c.14-2.47,.32-4.69,.55-6.55,.18,1.8,.35,4.08,.45,7.95Zm-.47-8.16c-.12,.15-.17-.58-.19-1.79,.06,.57,.12,1.15,.19,1.79Zm-1.11-79.24c.05-.4,.11-.64,.17-.63v.1l-.17,.53Zm-.1-44.46c0-.09-.02-.19-.03-.28,0,.05,0,.09,0,.13v-8.55c.1,.43,.17,1.38,.18,3.25,0-.06,0-.11,0-.17-.03,1.59-.09,3.5-.15,5.61Zm.62-29.9c-.12-1.83-.22-3.63-.29-5.4,.22,1.14,.35,2.74,.29,5.4Zm-33.42,391.19c-.35,.14-.71,.27-1.07,.4-.13,.05-.26,.1-.39,.15-.47,.16-.94,.32-1.41,.46l1.39-.9c-2.02,.95-4.29,1.74-6.68,2.39-4.34,.98-8.99,1.51-13.83,1.51h-12.2c2.39-.15,3.84-.32,3.18-.5-4.41,.05-10.88,.51-17.43,.36,2.81-.35,9.85-.31,13.13-.76-10.57-.37-6.64,.29-18.27,.13l.64-.55-11.23,.18c4.15,.78,2.03,.91,4.7,1.14h-14.89c-4.71-.09,1.4-.43,.73-.5l-5.12,.5h-7.97l2.74-.09-.89-.24-2.54,.32h-15.47c.15-.01,.3-.02,.47-.04-.56,.01-1.1,.02-1.63,.04h-2.11c-4.05-.24-.23-.8,6.3-.65,6.84-.12,6.21,.42,12.14,.06l-8.12-.45c-9.98,.06-15.95,.76-20.09,1.03h-24.68c2.86-.57,16.98,.15,18.75-.41-9.49,.03-17.11-.52-15.02-.94l-10.53,.23c-3.21,.26,.21,.75,5,1.11H58.15c-21.04,0-38.53-10-41.59-23.01-.03-.33-.04-.67-.06-1.01-.02-.78-.1-1.53-.03-2.32,.02-.41,.05-.8,.08-1.21,0,.9,.12,1.79,.17,2.68,.46,3.62,2.1,7.19,4.8,10.42,2.69,3.23,6.49,6.09,11.01,8.37,4.52,2.28,9.79,3.95,15.4,4.87,.7,.11,1.4,.25,2.11,.33l2.15,.21c.72,.06,1.43,.17,2.16,.18l2.18,.07c1.44,.07,2.92,.06,4.4,.06h4.43c11.83,.02,23.76,.06,35.78,.15l6.8-.74c2.34,.37,11.46,0,10.1,.48-2.64-.09-5.13-.01-8.28,0,10.29,.65,27.28-.05,39.62,.18-1.4-.13-3.42-.77,.29-.89-.99,.82,14.58-.01,18.18,.93,12.36,.23,.49-.72,13.33-.59,1.36-.48-12.33-.23-14.65-.6,4.04-.39,11.64,.17,11.07-.34-20.62-.24-58.91,.77-90.4,1.04l3.31-.45c-15.89-.1-43.28,2-52.73-4.09,.53,.33-.41,.03-2.06-.63-.78-.37-1.74-.83-2.79-1.34-.98-.56-2.04-1.17-3.07-1.81-.94-.69-1.98-1.33-2.81-2-.83-.67-1.59-1.29-2.22-1.8-1.16-1.07-1.97-1.65-2-1.21-.47-.56-.72-1.06-1.02-1.51-.28-.45-.56-.86-.86-1.29-.26-.45-.5-.94-.82-1.52l-.51-.95c-.13-.36-.28-.75-.44-1.19l-.85-.86c-.43-1.26-.5-2.19-.64-2.92-.02-.74,.05-1.31,.09-1.89l.06-.92c.03-.34,.07-.71,.11-1.15,.06-.86,.1-1.95,.09-3.48-.65,3.99-.85-.43-1.39-2.21,.73-7.01,1.37-15.15,1.98-21.37-.21,.49-.45,1.04-.74,3.18,.23-4.22-.4-3.5-.62-4.63-.03-4.08,.82-3.65,1.24-3.45,.26-7.48-1.36-10.82-.81-16.41l-.68,1.95c-.16-7.69,.58-14.2,.35-22.68,.93-4.12,.8,6.99,1.2,10.51,.19-1.73,.25-5.39,.55-6.57-.47-3.62-1.11-9.74-1.56-14.26,1.07,4.33,1.02-6.5,1.08-9.41-.44,.52-.66,2.64-.57,7.1-.59-.53-.47-6.32-.81-9.03-.36,5.58-.66,.54-1.17,1.23v-12.32c.05-1.62,.05-3.21,.02-4.79,.13,3.38,.23,6.46,.19,8.56,.43,.19,1.08-3.8,1.13,2.32,.08-2.48,.57-1.48,.99-1.28-.47-6.32-.18-9.75-.74-13.6,.56-3.52,.18,2.39,.73-1.16l-.51-5.07c.13-3.75,.56,3.85,.67-1.96-.32-.67-.68-5.4-.6-9.95l.19,1.31c-.22-3.47,.05-8.41-.87-6.72l.92-4.13-.63,.73c.25-9.55,1.75-13.13,.96-25.45-.19,2.94-.53,.24-.65-1.34-.44,5.13,.47,6.34,.56,11.2-.55,.64-1.21-5.72-1.61-3.14,.48-5.87-.12-10.94,1.33-13.51,.1-7.83-.67-10.76-.31-18.7l.24,.22c-1.04-1.48,.47-6.46-.59-12.33l-.23,4.19c-.42-.2-.44-2.24-.51-5.07q.17,.33,.37-.59c-.69-.81-.85-8.45-1.04-10.53v-16.48l1.17-4.17c-.09,2.49,.09,4.87-.34,4.67,.5,3.03,.81,1.66,1.22-.16,.21,6.44-.26,7.49,.52,12.45,.97-10.7-.81-9.04,.04-21.32l-1.61-3.35c.17-4.99,.64,1.34,.98-3.31-.52-5.08-1.07,5.81-1.85,.87,.3-2,.07-4.81-.13-7.09v-2.27c.49,1.17,1.26,.11,1.43-.68-.28-1.92,.21-6.24,.24-9.53-.62,8.07-.37-6.79-1.05,.49-.26-.24-.49-1.84-.63-3.81v-6.92c.02-.16,.04-.33,.06-.47,.43,.23,.34,2.72,.35,4.76,.81,1.67,.43-5.11,1.17-6.27-.76-5.19-.97-18.1-1.58-23.77v-4.96c.26-.68,.51-1.16,.77-.38,.11-3.06-.35-4.03-.77-5.49v-13.89c.51-.74,.95-8.59,1.44-10.02-1.47-12.41,1.44-12.5,.83-24.43-.46-7.38-.74,.77-1.17,.31,0-4.08-.51-8.21-.19-11.45,.42,.45,.58,2.9,.46,5.36,.96-1.55-.15-4.52,.49-8.95-.1,.39-.27,2.01-.47,.77,.23-11.01-.78-6.19-.24-20.46-.26-2.07-.26-4.11-.89-3.77,.8-8.1,.8-4.01,1.5-13.76-.33,.34-1.05,2.91-1.76,3.42v-3.45c.29-4.65,.25-7.41,.19-9.77-.04-1.45-.08-2.74-.07-4.22,.01-.74,.02-1.53,.09-2.4,.14-.87,.21-1.83,.51-2.9-.13,.48-.03,1.02-.06,1.73-.02,.71-.05,1.59-.09,2.76,.29-.28,.38-.9,.46-1.7,.05-.4,.08-.85,.1-1.35,.03-.49-.02-1.04,.12-1.59,.2-2.26,1.13-4.97,2.61-7.18l.63,.66c1.22-2.01,3.21-4.74,6.3-7.19,2.24-1.82,5.07-3.44,7.96-4.62,.06-.02,.12-.05,.18-.07,.35-.14,.71-.27,1.07-.4,.13-.05,.26-.1,.39-.15,.47-.16,.94-.32,1.41-.46l-1.39,.9c2.02-.95,4.29-1.74,6.68-2.39,4.34-.98,8.99-1.51,13.83-1.51h12.2c-2.39,.15-3.84,.32-3.18,.5,4.41-.05,10.88-.51,17.43-.36-2.81,.35-9.85,.31-13.13,.76,10.57,.37,6.64-.29,18.27-.13l-.64,.55,11.23-.18c-4.15-.78-2.03-.91-4.7-1.14h14.89c4.71,.09-1.4,.43-.73,.5l5.12-.5h7.97l-2.74,.09,.89,.24,2.54-.32h15.47c-.15,.01-.3,.02-.47,.04,.56-.01,1.1-.02,1.63-.04h2.11c4.05,.24,.23,.8-6.3,.65-6.84,.12-6.21-.42-12.14-.06l8.12,.45c9.98-.06,15.95-.76,20.09-1.03h24.68c-2.86,.57-16.98-.15-18.75,.41,9.49-.03,17.11,.52,15.02,.94l10.53-.23c3.21-.26-.21-.75-5-1.11H441.85c21.04,0,38.53,10,41.59,23.01,.03,.33,.04,.67,.06,1.01,.02,.78,.1,1.53,.03,2.32-.02,.41-.05,.8-.08,1.21,0-.9-.12-1.79-.17-2.68-.46-3.62-2.1-7.19-4.8-10.42-2.69-3.23-6.49-6.09-11.01-8.37-4.52-2.28-9.79-3.95-15.4-4.87-.7-.11-1.4-.25-2.11-.33l-2.15-.21c-.72-.06-1.43-.17-2.16-.18l-2.18-.07c-1.44-.07-2.92-.06-4.4-.06h-4.43c-11.83-.02-23.76-.06-35.78-.15l-6.8,.74c-2.34-.37-11.46,0-10.1-.48,2.64,.09,5.13,.01,8.28,0-10.29-.65-27.28,.05-39.62-.18,1.4,.13,3.42,.77-.29,.89,.99-.82-14.58,.01-18.18-.93-12.36-.23-.49,.72-13.33,.59-1.36,.48,12.33,.23,14.65,.6-4.04,.39-11.64-.17-11.07,.34,20.62,.24,58.91-.77,90.4-1.04l-3.31,.45c15.89,.1,43.28-2,52.73,4.09-.53-.33,.41-.03,2.06,.63,.78,.37,1.74,.83,2.79,1.34,.98,.56,2.04,1.17,3.07,1.81,.94,.69,1.98,1.33,2.81,2,.83,.67,1.59,1.29,2.22,1.8,1.16,1.07,1.97,1.65,2,1.21,.47,.56,.72,1.06,1.02,1.51,.28,.45,.56,.86,.86,1.29,.26,.45,.5,.94,.82,1.52l.51,.95c.13,.36,.28,.75,.44,1.19l.85,.86c.43,1.26,.5,2.19,.64,2.92,.02,.74-.05,1.31-.09,1.89l-.06,.92c-.03,.34-.07,.71-.11,1.15-.06,.86-.1,1.95-.09,3.48,.65-3.99,.85,.43,1.39,2.21-.73,7.01-1.37,15.15-1.98,21.37,.21-.49,.45-1.04,.74-3.18-.23,4.22,.4,3.5,.62,4.63,.03,4.08-.82,3.65-1.24,3.45-.26,7.48,1.36,10.82,.81,16.41l.68-1.95c.16,7.69-.58,14.2-.35,22.68-.93,4.12-.8-6.99-1.2-10.51-.19,1.73-.25,5.39-.55,6.57,.47,3.62,1.11,9.74,1.56,14.26-1.07-4.33-1.02,6.5-1.08,9.41,.44-.52,.66-2.64,.57-7.1,.59,.53,.47,6.32,.81,9.03,.36-5.58,.66-.54,1.17-1.23v12.32c-.05,1.62-.05,3.21-.02,4.79-.13-3.38-.23-6.46-.19-8.56-.43-.19-1.08,3.8-1.13-2.32-.08,2.48-.57,1.48-.99,1.28,.47,6.32,.18,9.75,.74,13.6-.56,3.52-.18-2.39-.73,1.16l.51,5.07c-.13,3.75-.56-3.85-.67,1.96,.32,.67,.68,5.4,.6,9.95l-.19-1.31c.22,3.47-.05,8.41,.87,6.72l-.92,4.13,.63-.73c-.25,9.55-1.75,13.13-.96,25.45,.19-2.94,.53-.24,.65,1.34,.44-5.13-.47-6.34-.56-11.2,.55-.64,1.21,5.72,1.61,3.14-.48,5.87,.12,10.94-1.33,13.51-.1,7.83,.67,10.76,.31,18.7l-.24-.22c1.04,1.48-.47,6.46,.59,12.33l.23-4.19c.42,.2,.44,2.24,.51,5.07q-.17-.33-.37,.59c.69,.81,.85,8.45,1.04,10.53v16.48l-1.17,4.17c.09-2.49-.09-4.87,.34-4.67-.5-3.03-.81-1.66-1.22,.16-.21-6.44,.26-7.49-.52-12.45-.97,10.7,.81,9.04-.04,21.32l1.61,3.35c-.17,4.99-.64-1.34-.98,3.31,.52,5.08,1.07-5.81,1.85-.87-.3,2-.07,4.81,.13,7.09v2.27c-.49-1.17-1.26-.11-1.43,.68,.28,1.92-.21,6.24-.24,9.53,.62-8.07,.37,6.79,1.05-.49,.26,.24,.49,1.84,.63,3.81v6.92c-.02,.16-.04,.33-.06,.47-.43-.23-.34-2.72-.35-4.76-.81-1.67-.43,5.11-1.17,6.27,.76,5.19,.97,18.1,1.58,23.77v4.96c-.26,.68-.51,1.16-.77,.38-.11,3.06,.35,4.03,.77,5.49v13.89c-.51,.74-.95,8.59-1.44,10.02,1.47,12.41-1.44,12.5-.83,24.43,.46,7.38,.74-.77,1.17-.31,0,4.08,.51,8.21,.19,11.45-.42-.45-.58-2.9-.46-5.36-.96,1.55,.15,4.52-.49,8.95,.1-.39,.27-2.01,.47-.77-.23,11.01,.78,6.19,.24,20.46,.26,2.07,.26,4.11,.89,3.77-.8,8.1-.8,4.01-1.5,13.76,.33-.34,1.05-2.91,1.76-3.42v3.45c-.29,4.65-.25,7.41-.19,9.77,.04,1.45,.08,2.74,.07,4.22-.01,.74-.02,1.53-.09,2.4-.14,.87-.21,1.83-.51,2.9,.13-.48,.03-1.02,.06-1.73,.02-.71,.05-1.59,.09-2.76-.29,.28-.38,.9-.46,1.7-.05,.4-.08,.85-.1,1.35-.03,.49,.02,1.04-.12,1.59-.2,2.26-1.13,4.97-2.61,7.18l-.63-.66c-1.22,2.01-3.21,4.74-6.3,7.19-2.24,1.82-5.07,3.44-7.96,4.62-.06,.02-.12,.05-.18,.07ZM16.26,118.64l.68,3.59c-.21-1.05-.53-.41-.87-.05v-33.48l.12-.3c-.44,11.8,1.77,19.77,.06,30.24Zm-.19,13.22v-4.25c.11,1.51,.09,2.98,0,4.25Zm0,45.92v-8.93c.06,.4,.12,.7,.18,.81-.25,2.99,.16,7.87-.18,8.12Zm.48,279.92l-.48-2.65v-6.87c.18-3.09,.15-6.35,0-9.55v-12.08l.17-1.38c-.04,5.98,.18,11.21,.4,18.32-.03,3.6-.05,7.22-.08,10.85,0,1.12,0,2.24,0,3.35Zm-.24-36.86c-.02,.79-.04,1.55-.05,2.31l-.2,.2v-22.18c.07-.41,.13-.92,.16-1.61-.06-.45-.12-.92-.16-1.4v-4.34c.34,8.48,.68,19.95,.25,27.02Zm.21-31.78c-.12-.25-.3-.24-.46,.14v-12.18c.19,3.86,.58,6.82,.46,12.04Zm-.46-59.28v-6.87c.16,2.27,.36,4.39,.63,6.28-.19,.83-.41,2.69-.63,.6Zm1.75,14.43c-.94-9.23-.98,1.04-1.75,.92v-14.23c.37,5.77,2.25,3.33,1.75,13.3Zm-1.75-54.28v-5.62c.49,.79,1.02-.48,1.07,6.99l-1.07-1.37Zm0-30.27v-7.39c.15,2.96,.49,6.19,.63,9.33-.2-1.02-.44-1.43-.63-1.94Zm466.77-50.95l1.07,1.37v5.62c-.49-.79-1.02,.48-1.07-6.99Zm1.07,31.64v7.39c-.15-2.96-.49-6.19-.63-9.33,.2,1.02,.44,1.43,.63,1.94Zm-.63-69.53c.19-.83,.41-2.69,.63-.6v6.87c-.16-2.27-.36-4.39-.63-6.28Zm-1.12-15.02c.94,9.23,.98-1.04,1.75-.92v14.23c-.37-5.77-2.25-3.33-1.75-13.3Zm1.75-56.97c-.07,.41-.13,.92-.16,1.61,.06,.45,.12,.92,.16,1.4v4.34c-.34-8.48-.68-19.95-.25-27.02,.02-.79,.04-1.55,.05-2.31l.2-.2v22.18Zm0,11.97v12.18c-.19-3.86-.58-6.82-.46-12.04,.12,.25,.3,.24,.46-.14Zm0-58.97c-.18,3.09-.15,6.35,0,9.55v12.08l-.17,1.38c.04-5.98-.18-11.21-.4-18.32,.03-3.6,.05-7.22,.08-10.85,0-1.12,0-2.24,0-3.35l.48,2.65v6.87Zm0,270.39v8.93c-.06-.4-.12-.7-.18-.81,.25-2.99-.16-7.87,.18-8.12Zm-.19,59.14l-.68-3.59c.21,1.05,.53,.41,.87,.05v33.48l-.12,.3c.44-11.8-1.77-19.77-.06-30.24Zm.19-13.22v4.25c-.11-1.51-.09-2.98,0-4.25ZM10.68,17.37c.22-.23,.45-.45,.67-.66-.39,.59-.78,1.17-1.13,1.76-.17,.2-.31,.41-.48,.61-.1,.09-.19,.19-.3,.28-1.83,1.5-.28-.25,1.24-1.99ZM1.54,92.55c.26,1.85,.48,4.09,.7,4.31v4.9c-.03,.28-.05,.58-.06,.93l-.76-10.54c.04,.15,.08,.28,.11,.4Zm.56,25.94c.03-.29,.08-.54,.14-.76h0v2.41l-.15-1.64Zm.15,58.35s-.06,.02-.08,.02c.03-.05,.06-.1,.08-.17v.15Zm0-7.15v-.15c0-.2,0-.41,0-.61v.77Zm-.03,34.62c0-.26,.02-.53,.03-.8v.91l-.03-.12Zm-.01-98.33c-.47-.38-.72-1.61-.98-2.66,.34,.8,.69,1.52,.98,2.66Zm-1.33,23.24c.09,.99,.12,2.38,.18,3.69-.12,.04-.26,.35-.42,1.09,.02-2.27,.14-3.08,.24-4.78Zm-.36,10.09c.02-.19,.05-.34,.08-.49,.18,3.33,.47,6.33,.61,8.43,.07-.93,.25-1.4,.33-2.4,.08,.74,.19,1.4,.31,2.03l.07,.94c.02-.11,.04-.22,.05-.33,.1,.46,.19,.92,.29,1.4v9.57c-.12-.53-.19-1.59-.14-3.76,.03-.29,.05-.59,.08-.87-1,.76-1.57-8.59-1.67-14.52Zm1.4,126.59c-.06,.25-.13,.25-.21-.19,.06,.12,.13,.18,.21,.19Zm.03,17.62c.11,.02,.21,.35,.3,.82v4.3c-.13-.3-.27-.92-.39-2.13,.03-1.15,.06-2.14,.09-2.99Zm-1.41-40.25c1.22-5.8,.04,11.42,1,1.37v.04c-.14,2.47-.32,4.69-.55,6.55-.18-1.8-.35-4.08-.45-7.95Zm.47,8.16c.12-.15,.17,.58,.19,1.79-.06-.57-.12-1.15-.19-1.79Zm1.11,79.24c-.05,.4-.11,.64-.17,.63v-.1l.17-.53Zm.1,44.46c0,.09,.02,.19,.03,.28,0-.05,0-.09,0-.13v8.55c-.1-.43-.17-1.38-.18-3.25,0,.06,0,.11,0,.17,.03-1.59,.09-3.5,.15-5.61Zm-.62,29.9c.12,1.83,.22,3.63,.29,5.4-.22-1.14-.35-2.74-.29-5.4Zm487.73,77.58c-.22,.23-.45,.45-.67,.66,.39-.59,.78-1.17,1.13-1.76,.17-.2,.31-.41,.48-.61,.1-.09,.19-.19,.3-.28,1.83-1.5,.28,.25-1.24,1.99Z"/><path class="cls-1" d="M1.22,149.81c.07-.53,.04-1.4-.03-2.56-.04,.57-.06,1.34,.03,2.56Z"/><path class="cls-1" d="M.08,349.35c.12,.12,.21-.06,.29-.39-.15-1.1-.27-2.01-.37-2.54,.06,.84,.12,1.65,.08,2.93Z"/><path class="cls-1" d="M.85,373.42s-.07,.15-.11,.18c.06,.88,.09,.62,.11-.18Z"/><path class="cls-1" d="M.87,309.57c-.3,.75-.54,1.36-.72,6.73,.24-1.71,.48-4.07,.72-6.73Z"/><polygon class="cls-1" points=".41 365.29 .59 367.74 .2 358.6 .41 365.29"/><path class="cls-1" d="M1.33,413.36c-.06-1.07-.17-2.04-.36-2.61l.36,2.61Z"/><path class="cls-1" d="M499.58,312.09l-.02,2.1c.06-.65,.05-1.4,.02-2.1Z"/><path class="cls-1" d="M498.63,175.9l.15-.14c-.06-1.2-.17-2.36-.28-3.41-.01,1.28,.01,2.51,.13,3.55Z"/><polygon class="cls-1" points="498.06 47.82 497.85 50.76 498 51.19 498.06 47.82"/></g></g></g></svg>