<?xml version="1.0" encoding="UTF-8"?><svg id="_イヤー_2" xmlns="http://www.w3.org/2000/svg" viewBox="0 0 53.17 60.59"><defs><style>.cls-1{fill:#fff;}</style></defs><g id="_イヤー_1-2"><g><path class="cls-1" d="M18.55,.49s.01,0,.02,0c.09-.08,.03-.06-.02,0Z"/><path class="cls-1" d="M.6,28.55c.43-.51,.84,.49,1.28-.23-.22,.11-1.06-.34-1.28,.23Z"/><path class="cls-1" d="M10.38,4.59s-.1-.1-.22-.16c.08,.08,.15,.12,.22,.16Z"/><path class="cls-1" d="M16.59,2.25l-.18-.02c.08,.03,.13,.03,.18,.02Z"/><path class="cls-1" d="M5.55,9.94s.09,.01,.14,.02l.04-.11-.18,.09Z"/><path class="cls-1" d="M11.14,10.86l-.4,.24c.14-.04,.28-.13,.4-.24Z"/><path class="cls-1" d="M18.22,41.13l.12-.04s-.08-.02-.12,.04Z"/><polygon class="cls-1" points="19.22 41.08 19.18 41.23 19.29 41.12 19.22 41.08"/><path class="cls-1" d="M11.19,10.84h0s-.02,.01-.04,.03l.04-.03Z"/><polygon class="cls-1" points="28.43 1.03 27.94 1.11 28.3 1.08 28.43 1.03"/><polygon class="cls-1" points="14.88 45.68 15.34 45.64 15.17 45.54 14.88 45.68"/><path class="cls-1" d="M27.47,46.98s-.01,0-.02,0c-.09,.08-.03,.06,.02,0Z"/><path class="cls-1" d="M45.42,18.93c-.43,.51-.84-.49-1.28,.23,.22-.11,1.06,.34,1.28-.23Z"/><path class="cls-1" d="M29.43,45.22l.18,.02c-.08-.03-.13-.03-.18-.02Z"/><path class="cls-1" d="M40.46,37.54s-.09-.01-.14-.02l-.04,.11,.18-.09Z"/><path class="cls-1" d="M34.87,36.61l.4-.24c-.14,.04-.28,.13-.4,.24Z"/><path class="cls-1" d="M27.8,6.34l-.12,.04s.08,.02,.12-.04Z"/><path class="cls-1" d="M11.15,4.61s-.01,.05-.04,.07c.06,.03,.11,.05,.16,.06l-.05-.19-.07,.06Z"/><polygon class="cls-1" points="26.8 6.4 26.83 6.25 26.73 6.36 26.8 6.4"/><path class="cls-1" d="M34.83,36.64h0s.02-.01,.04-.03l-.04,.03Z"/><polygon class="cls-1" points="17.58 46.44 18.08 46.36 17.72 46.39 17.58 46.44"/><polygon class="cls-1" points="31.14 1.8 30.67 1.83 30.84 1.93 31.14 1.8"/><path class="cls-1" d="M47.37,50.73s.07,0,.11-.02c-.04,0-.08,0-.11,.02Z"/><path class="cls-1" d="M47.33,49.82s0,.04,0,.05c.02-.04,.03-.07,0-.05Z"/><path class="cls-1" d="M49.87,54.11c-.13,.09-.05,.12-.05,.18l.05-.18Z"/><path class="cls-1" d="M51.41,55.69l.03,.04,.2-.06-.23,.02Z"/><path class="cls-1" d="M52.05,57.3c.22,.02,.34,.04,.41,.07,.1,0,.21,0,.35-.01,0-.04-.53-.05-.76-.06Z"/><polygon class="cls-1" points="48.77 60.02 48.74 60.02 48.55 60.15 48.77 60.02"/><path class="cls-1" d="M46.9,48.44h0c.06,0,.04,0,0,0Z"/><path class="cls-1" d="M44.79,46.14c-.05,.05-.09,.09-.12,.13,.03-.03,.07-.06,.12-.13Z"/><path class="cls-1" d="M43.6,45.54s.04-.09-.03-.09c-.01,.02-.02,.03-.03,.04,.05-.02,.09-.02,.06,.05Z"/><path class="cls-1" d="M42.83,44.56l-.05,.07,.04,.02v-.09Z"/><path class="cls-1" d="M52.46,57.38c-.67,0-.48-.26-.85-.44,.22,0,.03-.43,.05-.7l.09-.02c-.56,.14-.61-.08-.82-.17,.29-.14,.42-.18,.62-.15l-.12-.15c-.18,.04-.29,.04-.42-.01l.37-.17c-.09-.1-.27-.14-.42-.2-.12-.03-.22-.08-.19-.25-.2,.15-.45,.45-.7,.62l-.08-.1c.1-.07,.2-.13,.25-.13-.03,0-.18,.04-.14-.04l.32-.13c.05-.17-.25,.13-.28,.04,.22-.17,.12-.17,.31-.3,.03,0-.05,.13,.06,.09-.02-.11,.04-.3,.19-.46-.12,.11-.3,.24-.37,.2-.13-.13,.23-.26,.28-.43-.18,.09-.09-.13-.43,.13-.03-.04,.12-.17,.2-.26-.2,.04-.31-.31-.6,.05v.04s-.02,0-.03,0c-.52,.02-.2-.64-.53-.77l.11-.09c-.24-.04-.32-.26-.64-.17-.03-.04,.13-.26,.27-.34-.17-.04-.3,.04-.24-.26,.28-.04,.14-.17,.23,0-.01-.22,.14-.39-.28-.3,.33-.17,.28-.39,.14-.39l-.13,.26c-.1-.04-.13-.13-.15-.21l.4-.26c.23-.65-1.19,.09-.59-.73-.32,.13-.06,.3-.42,.47-.05-.17,.38-.73,.35-.78,.07-.34-.68,.26-.69-.04-.12,.13-.46,.43-.69,.39-.05-.17,.44-.6,.61-.6,.04,.02,0,.07-.04,.11,.08,0,.18,.02,.29-.15l-.15,.09c.09-.17-.07-.34,.18-.47-.21,0-.25,.13-.27,.26,.06-.32-.2-.27-.21-.55-.05,.09-.19,.23-.21,.21-.03-.39-.34,.09-.54-.04,.13-.26,.52-.35,.21-.39,.06-.22,.34-.3,.48-.34-.38,.04-.06-.43-.09-.56h.17c-.1,0-.13-.04-.17-.09l-.23,.26c0-.09-.02-.13,.09-.22-.22,.09-.42,.39-.74,.48,.09-.17-.3-.09,.04-.39,.04,.3,.34-.3,.53-.17-.07,0-.1-.04-.09-.13,.03-.04,.08-.05,.11-.05,.16-.45-.47,.22-.63,.01,.22-.13,.34-.35,.28-.35,.06,.09-.3,.3-.52,.35,.05-.25-.23-.05-.26-.13v.14c-.23,.13-.26,.04-.39,0,.15-.13,.17,0,.22-.09-.43,.17,.19-.52-.16-.47,.08-.17,.37-.3,.42-.43-.39,.05,.14-.39-.21-.39-.23,.26-.16,.22-.52,.3l.41,.13-.53,.13c.06,.09,.31,.04,.3,.13-.29,.09-.21,.04-.41,.26,.32-.43-.41-.04-.24-.39l.67-.52c.14-.43-.62-.08-.65-.47l-.05,.17c-.29,.17-.16-.13-.33-.13,.23-.17,.27-.28,.38-.43-.16,.13-.13-.2-.6,.13l.21-.34c-.04-.3-.82,.26-.9,0,.29-.13,.38-.34,.66-.35-.05-.07-.06-.16-.21-.04,.11-.15-.45,.05-.28-.18-.12,.05-.36,.22-.4,.13,.04-.04,.11-.09,.11-.09-.11,.09-.24,0-.44,.26,.54-.75-.5-.53-.04-1.18-.19-.09-.4-.2-.52-.32,.07-.04,.11-.09,.11-.04,.07-.34-.73,.39-.66,0,.28-.39,.28-.04,.37-.22,.71-.6-.3-.17,.03-.65h.07c.17-.3-.48-.04-.56-.26,0,0,.07-.04,.11-.09-.47,.18-.77,.05-1-.04,.33-.17,.21-.04,.48-.3-.1-.04-.45,.39-.65,.3,.12-.17,.17-.39,.47-.65l.13,.13c.17-.19,.13-.24,.05-.25-.09-.02-.24-.03-.24-.11l.18-.13c-.33-.3-.71,.13-.92-.21l-.08,.18c-.45,.33,.07-.42-.28-.2l.26-.59c-.18,0-.58,.15-.75,.1,.23-.39,.52-.37,.78-.44-.1-.13-.37-.4-.52-.14,.06-.02,.16-.11,.17,.04-.31,.33-.5,.44-.65,.23,.23-.87-.02-1.02-.2-1.38-.13,.04-.24,0-.28-.33-.06,.1-.11,.17-.16,.24,0-.12-.05-.25-.15-.38,.65-.11,.3,.74,.74,.12l.1,.25c.69-.08,.92-.53,1.01-1.05,.13,.1,.27,.13,.29-.05l-.26-.17c.02-.14,.03-.28,.04-.42,0-.1,0-.19,.01-.29,.01,0,.03,0,.04,0,.16-.41,.37-.86,.57-1.23,.08-.04,.16-.08,.26-.11,0,0,0,.02-.03,.03,.02-.01,.03-.02,.05-.03,.09-.03,.19-.06,.3-.07-.1,.02-.17,.03-.23,.02,.05-.05,.06-.1,.06-.15,.21-.16,.37-.35,.51-.56,.77,.22,.1-.98,.95-1.02l.02,.15c.6-.14-.06-1.1,.3-1.61,0,0,.1,.08,.19,.09-.07-.11-.13-.23-.18-.36,.04-.08,.07-.17,.12-.24,.25-.4,.49-.8,.93-1.14,.18-.19,.18-.34,.1-.49,.19-.1,.13-.3,.07-.49l.16,.02c-.06-.08-.13-.16-.19-.24,0-.03,0-.06,.03-.08l.31,.13c.06-.55-.29-.82-.44-1.18,.13-.09,.28-.18,.42-.27,.21-.14,.41-.29,.5-.48,.08-.19,.05-.43-.16-.71l-.22,.02c-.04-.09-.1-.21-.17-.34,0-.24,0-.49,.13-.59,.16,.26,.29,.54,.45,.76,.04-.24,.07-.74-.11-1.04h.04c-.14-.3-.31-.6-.5-.9,.28-.64,1.34,.21,1.46-.79-.08-.27-.5-.68-.83-.86,.07-.28,.2-.54,.6-.7-.34-.53-.29-1.06-.2-1.64,.05-.57,.15-1.18,0-1.81-1.19,.67-.09-.36-1.38-.03-.12-.26-.15-.36-.07-.41l-.04,.07,.05-.07h0c.19-.33,.37-.67,.55-1.02,.32-.3,.35,.2,.63,.1-.07-.66,.47-.41,.7-.93-.43,.21-.71-.04-.63-.46l-.45,.68c-.89-.67,.82-1.09-.14-1.76l.49,.14c-.39-.37-.61-1.71-1.81-1.66,.1-.14,.38-.39,.56-.24-.19-.54-.68-1.01-1.18-1.41-.5-.4-.92-.78-.87-1.33l.31-.1c-.19-.13-.68,.02-.58-.37,.12-.06,.32-.11,.27-.2-.16-.03-.79-.12-.81-.45l.43-.02c-.16-.57-.6-.78-1.07-.91-.07-.02-.14-.03-.21-.04,.04-.02,.08-.03,.12-.06l-.23,.04c-.16-.03-.31-.05-.46-.09l.26-.17c-.17-.16-.42-.23-.66-.33,.38-.59,.1-1.3-.09-1.64l.11-.09c-.44-.49-.99-.72-1.56-.88-.57-.16-1.2-.19-1.76-.4,0-.32-.1-.59-.27-.84-.18-.25-.44-.44-.72-.64-.56-.39-1.18-.8-1.6-1.29,.09,.23-.37,.64-.59,.64-.1-.17-.4-.06-.56-.08l.17-.32c-.22-.04-.15,.11-.19,.32-.1-.02-.13-.12,.03-.42l.08,.06c.17-.86-.45-.93-.87-1.09l-.45,.95s-.04,0-.07,.02c-.16-.54-.49-.81-.89-.94l.03-.06c-.38-.58-.97-.33-1.47-.15-.05,.02-.11,.04-.16,.05-.36-.07-.63-.24-.72-.73-.28,.16-.56,.16-.83,.29-.04-.07-.07-.14-.11-.2l.06-.3c-.75-.26-1.14-.44-2.12-.38L25.06,0c-.3-.04-.52,.45-.72,.91-.09-.07-.14-.17-.08-.31-.33,.2-.22,.36,0,.5h0c-.22-.11-.4-.15-.59-.16l-.02-.13c-.79-.06-1.66-.58-2.45-.17,.03-.06,.07-.11,.1-.16-.15,.13-.29,.18-.44,.18,.02-.09,.06-.18,.14-.2-.19-.02-.56-.09-.88-.08-.12-.07-.23-.12-.33-.14l.29-.25c-.18,.15-.33,.17-.49,.19l.15,.28c-.06,.03-.11,.08-.16,.13-.06-.03-.11-.07-.12-.17-.05,.13-.02,.28,.01,.44,0,.11,0,.24,.05,.4-.07-.45-.37-.37-.7-.14-.07-.19-.14-.41,.16-.51-.11,.1-.27,.12-.47,.06-.04-.07,0-.15,.04-.19-.87-.42-.18,.83-.92,1,0-.4-.35-.66-.46-.55,.31-.07,.3,.58,.11,.93-.55-.17-.45,.34-.7,.37l.32,.06c0,.23-.08,.33-.2,.42-.05,0-.11,0-.18-.02l.09-.42c-.39,.07-.4,.2-.45,.54-.32-.06-.8-.45-1.03-.03-.32-.16-.28-.66-.55-.75-.37,.66-.81-.23-1.22,.41,.25,.25,.32,.29,.29,.46-.23-.2-.48-.31-.43-.94-.12,.29-.24,.71-.4,1.06-.28,.05-.46,.27-.62,.54-.01,.02-.03,.05-.04,.07-.04-.03-.08-.07-.13-.13l.02-.08c-.13,0-.2,.09-.25,.22-.18,0-.3,0-.44,.07-.28-.37-.64,.1-.88,.22,.34,.51,0,.6,.53,.86-.06-.02,0-.09,.13-.2,.02-.04,.06-.07,.06-.11v.05c.07-.04,.13-.09,.2-.13l.28,.02s.01,.06,.01,.09c-.05,.2-.16,.31-.43,.21,.01,.06,.03,.12,.04,.19-.09,.04-.18,.1-.22,.2-.21-.37-.46-.4-.72-.55,.12,.16-.16,.28-.25,.55-.23-.08-.43-.17-.56-.3-.28,.49-.77,.88-.99,1.42h0c-.18,.15-.4,.24-.21,.46-.18-.06-.18,.28-.25,.52-.04-.03-.09-.06-.12-.07,.02-.17,.14-.26,.09-.43-.13,.52-.89,.97-.41,1.6-.65,.11-.3-.74-.74-.12l-.1-.25c-.69,.08-.92,.53-1.01,1.05-.13-.1-.27-.13-.29,.05l.26,.17c-.02,.14-.03,.28-.04,.42,0,.1,0,.19-.01,.29-.01,0-.03,0-.04,0-.16,.41-.37,.86-.57,1.23-.08,.04-.16,.08-.26,.11,0,0,0-.02,.03-.03-.02,.01-.03,.02-.05,.03-.09,.03-.19,.06-.3,.07,.1-.02,.17-.03,.23-.02-.05,.05-.06,.1-.06,.15-.21,.16-.37,.35-.51,.56-.77-.22-.1,.98-.95,1.02l-.02-.15c-.6,.14,.06,1.1-.3,1.61,0,0-.1-.08-.19-.09,.07,.11,.13,.23,.18,.36-.04,.08-.07,.17-.12,.24-.25,.4-.49,.8-.93,1.14-.18,.19-.18,.34-.1,.49-.19,.1-.13,.3-.07,.49l-.16-.02c.06,.08,.13,.16,.19,.24,0,.03,0,.06-.03,.08l-.31-.13c-.07,.55,.29,.82,.44,1.18-.13,.09-.28,.18-.42,.27-.21,.14-.41,.29-.5,.48-.08,.19-.05,.43,.16,.71l.22-.02c.04,.09,.11,.21,.17,.34,0,.24,0,.49-.13,.59-.16-.26-.29-.54-.45-.76-.04,.24-.07,.74,.11,1.04h-.04c.14,.3,.31,.6,.5,.9-.28,.64-1.34-.21-1.46,.79,.08,.27,.5,.68,.83,.86-.07,.28-.2,.54-.6,.7,.34,.53,.29,1.06,.2,1.64-.05,.57-.15,1.18,0,1.81,1.19-.67,.09,.36,1.38,.03,.12,.26,.15,.36,.07,.41l.04-.07-.05,.07h0c-.19,.33-.37,.67-.55,1.02-.32,.3-.35-.2-.63-.1,.07,.66-.47,.41-.7,.93,.43-.21,.71,.04,.63,.46l.45-.68c.89,.67-.82,1.09,.14,1.76l-.49-.14c.39,.37,.61,1.71,1.81,1.66-.1,.14-.38,.39-.56,.24,.19,.54,.68,1.01,1.18,1.41,.5,.4,.92,.78,.87,1.33l-.31,.1c.19,.13,.68-.02,.58,.37-.12,.06-.32,.11-.27,.2,.16,.03,.79,.12,.81,.45l-.43,.02c.16,.57,.6,.78,1.07,.91,.07,.02,.14,.03,.21,.04-.04,.02-.08,.03-.12,.06l.23-.04c.16,.03,.31,.05,.46,.09l-.26,.17c.17,.16,.42,.23,.66,.33-.38,.59-.1,1.3,.09,1.64l-.11,.09c.44,.49,.99,.72,1.56,.88,.57,.16,1.2,.19,1.76,.4,0,.32,.1,.59,.27,.84,.18,.25,.44,.44,.72,.64,.56,.39,1.18,.8,1.6,1.29-.09-.23,.37-.64,.59-.64,.1,.17,.4,.06,.56,.08l-.17,.32c.22,.04,.15-.11,.19-.32,.1,.02,.13,.12-.03,.42l-.08-.06c-.17,.86,.45,.93,.87,1.09l.45-.95s.04,0,.07-.02c.16,.54,.49,.81,.89,.94l-.03,.06c.38,.58,.97,.33,1.47,.15,.05-.02,.11-.04,.16-.05,.36,.07,.63,.24,.72,.73,.28-.16,.56-.16,.83-.29,.04,.07,.07,.14,.11,.2l-.06,.3c.75,.26,1.14,.44,2.12,.38l-.24,.42c.3,.04,.51-.45,.72-.91,.09,.07,.14,.17,.08,.31,.33-.2,.22-.36,0-.5h0c.22,.11,.4,.15,.59,.16l.02,.13c.79,.06,1.66,.58,2.45,.17-.03,.06-.07,.11-.1,.16,.15-.13,.29-.18,.44-.18-.02,.09-.06,.18-.14,.2,.19,.02,.56,.09,.88,.08,.12,.07,.23,.12,.33,.14l-.29,.25c.18-.15,.33-.17,.49-.19l-.15-.28c.06-.03,.11-.08,.16-.13,.06,.03,.11,.07,.12,.17,.05-.13,.02-.28-.01-.44,0-.11,0-.24-.05-.4,.07,.45,.37,.37,.7,.14,.07,.19,.14,.41-.16,.51,.11-.1,.27-.12,.47-.06,.04,.07,0,.15-.04,.19,.87,.42,.18-.83,.92-1,0,.4,.35,.66,.46,.55-.31,.07-.3-.58-.11-.93,.55,.17,.45-.34,.7-.37l-.32-.06c0-.23,.08-.33,.2-.42,.05,0,.11,0,.18,.02l-.09,.42c.39-.07,.4-.2,.45-.54,.32,.06,.8,.45,1.03,.03,.32,.16,.28,.66,.55,.75,.37-.66,.81,.23,1.22-.41-.25-.25-.32-.29-.29-.46,.23,.2,.48,.31,.43,.94,.12-.29,.24-.71,.4-1.06,.28-.05,.46-.27,.62-.54l.04-.07s.08,.07,.13,.13l-.02,.08c.13,0,.2-.09,.25-.22,.04,0,.07,0,.11,0h0c.29,.22,.48,.39,.4,.57h-.28c.15,.08,.59,.09,.44,.25-.1,.01-.27,0-.25,.05,.13,.04,.61,.16,.57,.32l-.34-.04c.06,.3,.37,.47,.7,.55,.33,.09,.67,.11,.86,.25-.27,.17-.34,.42-.39,.58-.06,.16-.05,.29-.05,.38l-.07,.05c.21,.39,.87,.26,1.31,.42-.39,.62,.29,.84,.24,1.39,.05-.12,.39-.3,.49-.28-.04,.15,.51-.07,.04,.28v-.03c-.42,.41-.18,.47-.1,.59l.61-.45c-.63,.99,.96,.56,.31,1.34,.21-.04,.28,.05,.49,0l-.32,.25c.08,.27,.12,.41,.4,.6l-.27,.13c.09,.16,1.07-.54,1.19-.42l-.45,.41c.2,.25-.02,.83,.61,.74-.07,.05-.22,.15-.27,.13,.08,.13,.04,.71,.66,.16-.43,.34,.16,.29,.46,.28l-.33,.23c.49-.2,.61-.28,.84-.21-.01,.07-.23,.23-.19,.12-.07,.26,.38-.14,.33,.15l-.25,.1c.08,.15,.18,.05,.47-.06,.19-.02,.11,.31-.16,.55,.19-.12,.48-.23,.45-.09-.1,.09-.19,.12-.23,.13-.04,.39,.62,.04,.43,.43-.1,.08-.15,.14-.17,.17-.13-.18-.22-.33-.19-.34-.29,.23-.23,.41-.72,.61,.31-.06,.93-.24,.9,0-.02,.03-.05,.06-.09,.1h-.04c0,.07,.04,.07,.11,.06-.01,.08-.03,.14,0,.18-.23,.2,0,.26,.04,.34,.31-.26,.33-.12,.53-.41-.01,.03-.05,.02-.1-.02-.02,0-.03-.01-.06,0l.03-.02s-.1-.09-.16-.16c.2-.07,.39-.12,.27,.1l.59-.3c-.37,.44-.47,.81-.72,1.05,.35,.07,.51,.41,1.21,.08,.12,0-.12,.2-.19,.3-.09,.01-.11-.04-.21,.01,.25,0,.34,.31,.78,.01-.07,.3-.45,.22-.22,.37l-.15,.07c-.34,.94,1.59-.16,1.09,.96,.03-.07,.04-.11,.1-.17,.03,.82,1.2,.8,1,1.78,0,.24,.27,.05,.55-.02l-.32,.3,.51-.16c.46,0-.55,1.03,.21,.88l.2-.22c.03,.13,.38,.21,.1,.4,.05-.02,.26-.16,.17-.02l-.18,.14h.5c.02,.29-.73,.53-.55,.83,.15,.05,.75-.12,.84-.25-.02-.05,.03-.19,.21-.34l.17,.02s.07-.05,.1-.07h.01l.39-.29c.11-.08,.22-.17,.32-.25l.39-.3s.04,.06,.06,.09c-.01-.04-.03-.07-.05-.11l.14-.11c.06,.06,.1,.12,.09,.17,.33,.12-.06-.22,.29-.08,.05,.02,.07,.05,.08,.07,0-.07-.02-.14-.03-.2,.08,.1,.37,.25,.22,.25,.54,.02-.05-.53,.45-.35l.02,.03c.08-.25-.18-.27-.45-.42l.13-.1c.29,.09,.58,.17,.89,.24l-.46-.2s.14-.05,.33,.02c-.23-.2-.24-.06-.5-.21,.62,.02,.11-.32,1.06-.18-.39-.12-.47,.04-.63-.13,.77,.1,.41-.04,.39-.12-.06-.04-.07-.07,.02-.09,.56,.09,.39,.21,.76,.11-.97-.17-.03-.27-.31-.43Zm-7.75-31.13l.22,.02c.05,.08,.08,.17,0,.23-.1-.07-.17-.15-.25-.22,.01,0,.02-.02,.04-.02Zm-.64,4.11c0,.05-.02,.1-.04,.15-.04-.05-.09-.1-.13-.16,.06,0,.11,0,.17,.01ZM11.09,3.99l.02,.07c-.04-.11-.08-.21-.1-.3,.11-.16,.22-.09,.3,0-.07,.05-.14,.12-.22,.22ZM1.3,21.23l-.22-.02c-.05-.08-.07-.17,0-.23,.1,.07,.17,.15,.25,.22-.01,0-.02,.02-.04,.02Zm.64-4.11c0-.05,.02-.1,.04-.15,.04,.05,.09,.1,.13,.16-.06,0-.11,0-.17-.01ZM42.47,54.61c-.08-.01-.03-.08,.03-.13,.02,.02,.05,.03,.1,.05l.04-.03c-.06,.04-.13,.08-.17,.11ZM14.67,3c-.03,.14-.06,.22-.07,.29,0-.08,.02-.14,.03-.18-.06,0-.11,0-.16,0,.07-.07,.13-.12,.2-.11Zm-1.11,.32v.04l.05-.06c.19-.07,.31-.11,.29-.08-.02-.05-.05-.1-.08-.14l.49-.49-.18,.62c-.27,.18-.38,.54-.6,.68l-.22-.47c.09-.04,.17-.07,.25-.1ZM31.35,44.47c.03-.14,.06-.22,.07-.29,0,.08-.02,.14-.03,.18,.06,0,.11,0,.16,0-.07,.07-.13,.12-.2,.11Zm1.11-.32v-.04l-.05,.06c-.19,.07-.31,.11-.29,.08,.02,.05,.05,.1,.08,.14l-.49,.49,.18-.62c.27-.18,.38-.54,.6-.68l.22,.47c-.09,.04-.17,.07-.25,.1Zm.44-5.29c-.15,.22-.3,.43-.45,.63-.2,.24-.39,.49-.6,.71-.03-.13-.08-.26-.2-.35,.19-.15,.35-.3,.09-.72-.13,.2-.23,.41-.32,.62-.06,.12-.11,.22-.17,.33-.27,.19-.59,.31-.93,.37-.05,0-.1,0-.16,0,0-.01,0-.03,0-.04-.01,.02-.03,.03-.04,.04-.44,.02-.89,0-1.29-.06l-.11,.72c-.08,.02-.22-.24-.18-.37-.33-.13-.04,.24,.01,.52-.06,.03-.11,.07-.16,.11-.1-.1-.17-.32-.12-.46-.21,.33-.56,.72-.96,.96-.11,.07-.22,.12-.33,.15-.01-.11-.02-.25-.01-.41-.06,.08-.12,.24-.1,.43-.05,0-.09,.02-.14,.02-.03-.09-.03-.22,0-.4-.16,.12-.23,.25-.28,.36-.13-.03-.25-.08-.37-.16l.09-.2c-.52-.18-.39,1.37-.93,.86h0l.05-.08s.01-.01,.02-.01c0,0-.01,0-.02,0l.03-.04c-.56-.08-1.14,0-1.69,.03-.23,.02-.45-.01-.66-.08,0-.04-.02-.08-.02-.14-.05,.03-.1,.05-.15,.08-.23-.1-.45-.26-.63-.48-.23,.91-1.02-.45-1.23,.77-.55-.72-.34-.92-1.1-1.46-.21-.08-.49,.71-.8,.77l.14-.65-.54,.58v-.82l-.3,.1c.09,.06,.14,.34,.08,.53-.25,.09-.47-.08-.61-.32-.14-.25-.19-.57-.14-.73l-1.11,.19c.12-.24,.31-.27,.49-.39-.73,.46,.17-.68-.5-.27,0,.16-.18,.36-.24,.48-.08-.44-.54-.7-.98-.72l.27-.38c-.6-.38-1.42-.52-2.11-.94,.13,.33-.35,.97-.61,.9l.3-.64c-.38,.28,.07,.35-.5,.63-.22-.25,.28-.78,.55-.87l-.43-.02c.1-.18,.24-.22,.41-.43-.38,.26-.08-.94-.7-.46l.11-.18c-.64-.45-1.02-.57-1.54-.96-.43,.43-.53,.16-1.02,.37-.21-.52-.22-1.24-.65-1.64-.5-.13-.47,.23-.87,.31,.41-.38,.01-.82,.51-.82-.25-.26-.4-.42-.61-.58-.1-.08-.22-.16-.37-.25-.14-.1-.3-.21-.52-.34-.14,.21-.16,.36-.35,.41-.17-.1,0-.46,.23-.57h.07c-.62-.22-.61-.94-.5-1.61,.1-.67,.13-1.23-.52-1.39l.07,.02-.85-.58c-.04-.4,.47,.08,.7-.3-.29-.13-.47-.29-.57-.45-.08-.17-.1-.35-.11-.52-.01-.35,.02-.67-.38-.96,.7-.45,.64-.92,.45-1.42-.09-.25-.2-.5-.23-.75,0-.25,.07-.49,.32-.69l-.38,.07c-.39-.17,.21-.25,.29-.39-.3,.03-.33,.23-.55,.12-.32-.83-.08-1.73,.19-2.57,.15-.42,.39-.82,.58-1.22l.28-.59c.11-.19,.22-.38,.31-.56,.15-.33-.55-.57-.89-.83,.1,0,.22,.02,.39,.08-.28-.18-.4-.35-.44-.52,.05-.04,.11-.08,.19-.11l.63,.42c-.24-.72,.03-1.32,.26-1.92,.05-.09,.09-.18,.14-.27,.04,.01,.07,.03,.11,.04-.04-.02-.07-.04-.1-.06,.24-.47,.44-.95,.42-1.54h.03c.11,.13,.26,.23,.21,.33,.18,0,.29-.07,.35-.18,.03,.07,.04,.12,.04,.12,.06-.09,.05-.16,0-.24,.05-.18,0-.4-.1-.57,.08,.04,.16,.08,.24,.09,0-.05-.02-.11-.03-.17,.07,.04,.15,.08,.23,.08,.39-.05-.23-.93,.29-.75,.08,.03,.09,.15,.1,.21-.11-.28,.52-.59-.06-.81,.51-.2,.32-.89,.84-.95,0-.01-.01-.02-.02-.04,.02,.01,.05,.03,.07,.04-.02,0-.04,0-.06,0,.02,.04,.04,.09,.08,.14l.41-.06c-.12-.04-.21-.07-.3-.08,.37-.23,.26-.55,.45-.81,.37,0,.57-.48,.52-.85,.13,.28,.4,.05,.6,.42,.19-.18,.29-.44,.13-.7,0-.04,0-.09,0-.15h0c.47,.1,.53-.25,.64-.53,.1-.32,.22-.59,.8-.1,.12-.25,.24-.5,.38-.74,.15-.22,.3-.43,.45-.63,.2-.24,.39-.49,.6-.71,.03,.13,.08,.26,.2,.35-.19,.15-.35,.3-.09,.72,.13-.2,.23-.41,.32-.62,.06-.12,.11-.22,.17-.33,.27-.18,.59-.31,.93-.37,.05,0,.1,0,.16,0,0,.01,0,.03,0,.04,.01-.02,.03-.03,.04-.04,.44-.02,.89,0,1.3,.06l.11-.72c.08-.02,.22,.24,.18,.37,.33,.13,.04-.24-.01-.52,.06-.03,.11-.07,.16-.11,.1,.1,.17,.31,.12,.46,.21-.33,.56-.72,.96-.96,.11-.07,.22-.12,.33-.15,.01,.11,.02,.25,.01,.41,.06-.08,.12-.24,.1-.43,.05,0,.09-.02,.14-.02,.03,.09,.03,.22,0,.4,.16-.12,.23-.25,.28-.36,.13,.03,.25,.08,.37,.16l-.09,.2c.52,.18,.39-1.37,.93-.86h0l-.05,.08s-.01,.01-.02,.01c0,0,.01,0,.02,0l-.03,.04c.56,.08,1.14,0,1.69-.03,.23-.02,.45,.01,.66,.08,0,.04,.02,.08,.02,.14,.05-.03,.1-.05,.15-.08,.23,.1,.45,.26,.63,.48,.23-.91,1.02,.45,1.23-.77,.55,.72,.34,.92,1.1,1.46,.21,.08,.49-.71,.8-.77l-.14,.65,.54-.58v.82l.3-.1c-.09-.06-.14-.34-.08-.53,.25-.09,.47,.08,.61,.32,.14,.25,.19,.57,.14,.73l1.11-.19c-.12,.24-.31,.27-.49,.39,.73-.46-.17,.68,.5,.27,0-.16,.18-.36,.24-.48,.08,.44,.54,.7,.98,.72l-.27,.38c.6,.38,1.41,.52,2.11,.94-.13-.33,.35-.97,.61-.9l-.3,.64c.38-.28-.07-.35,.5-.63,.22,.25-.28,.78-.55,.87l.43,.02c-.1,.18-.24,.22-.41,.43,.38-.26,.08,.94,.7,.46l-.11,.18c.64,.45,1.02,.57,1.54,.96,.43-.43,.53-.16,1.02-.37,.21,.52,.22,1.24,.65,1.64,.5,.13,.47-.23,.87-.31-.41,.38-.01,.82-.51,.82,.25,.26,.4,.42,.61,.58,.1,.08,.22,.16,.37,.25,.14,.1,.3,.21,.52,.34,.14-.21,.16-.36,.35-.41,.17,.1,0,.46-.23,.57h-.07c.62,.22,.61,.94,.5,1.61-.1,.67-.13,1.23,.52,1.39l-.07-.02,.85,.58c.04,.4-.47-.08-.7,.3,.29,.13,.47,.29,.57,.45,.08,.17,.1,.35,.11,.52,.01,.35-.02,.67,.38,.96-.7,.45-.64,.92-.45,1.42,.09,.25,.2,.5,.23,.75,0,.25-.07,.49-.32,.69l.38-.07c.39,.17-.21,.25-.29,.39,.3-.03,.33-.23,.55-.12,.32,.83,.08,1.73-.19,2.57-.15,.42-.39,.82-.58,1.22l-.28,.59c-.11,.19-.22,.38-.31,.56-.15,.33,.55,.57,.89,.83-.1,0-.22-.02-.39-.08,.28,.18,.4,.35,.44,.52-.05,.04-.11,.08-.19,.11l-.63-.42c.24,.72-.03,1.32-.26,1.92-.05,.09-.09,.18-.14,.27-.04-.01-.07-.03-.11-.04,.04,.02,.07,.04,.1,.06-.24,.47-.44,.95-.42,1.54h-.03c-.11-.13-.26-.23-.21-.33-.18,0-.29,.07-.35,.18-.03-.07-.04-.12-.04-.12-.06,.09-.05,.16,0,.24-.05,.18,0,.4,.1,.57-.08-.04-.16-.08-.24-.09,0,.05,.02,.11,.03,.17-.07-.04-.15-.08-.23-.08-.39,.05,.23,.93-.29,.75-.08-.03-.09-.15-.1-.21,.11,.28-.52,.59,.06,.81-.51,.2-.32,.89-.84,.95,0,.01,.01,.02,.02,.04-.02-.01-.05-.03-.07-.04,.02,0,.04,0,.06,0-.02-.04-.04-.09-.08-.14l-.41,.06c.12,.04,.21,.07,.3,.08-.37,.23-.26,.55-.45,.81-.37,0-.57,.48-.52,.85-.13-.28-.4-.05-.6-.42-.19,.18-.29,.44-.13,.7,0,.04,0,.09,0,.15h0c-.47-.1-.53,.25-.64,.53-.1,.32-.22,.59-.8,.1-.12,.25-.24,.5-.38,.74Zm17.43,20.02s-.04-.02-.06-.04l.04-.03s.02,.04,.02,.07Z"/><path class="cls-1" d="M42.95,54.37s.03,0,.04,0l.05-.08-.11,.06,.02,.02Z"/><path class="cls-1" d="M49.81,54.36s-.02,.03-.04,.05l.03-.04h0Z"/><path class="cls-1" d="M52.21,58.22l-.37,.14c.22,.02,.54,.05,.46,.15,.88-.1-.48-.07-.09-.29Z"/><path class="cls-1" d="M52.74,57.6c.2,.14,.3,.02,.42,.03-.26-.11-.32-.12-.42-.03Z"/><path class="cls-1" d="M49.07,52.91l.3-.22c-.1-.04-.11,.09-.3,.22Z"/><polygon class="cls-1" points="48.74 51.24 48.54 51.19 48.67 51.24 48.74 51.24"/><path class="cls-1" d="M42.91,44.82c.1,0,.51-.3,.34-.3l-.34,.3Z"/><path class="cls-1" d="M40.4,41.62c.1-.23,.08-.5-.11-.38,.06,.13,.03,.38,.11,.38Z"/><polygon class="cls-1" points="37.99 49.23 38.18 49.27 38.16 49.2 37.99 49.23"/></g></g></svg>