<?xml version="1.0" encoding="UTF-8"?><svg id="_イヤー_2" xmlns="http://www.w3.org/2000/svg" viewBox="0 0 143.52 171.08"><defs><style>.cls-1{fill:#fff;}.cls-2{fill:#88c1d8;}.cls-3{fill:#efab91;}.cls-4{fill:#cae7f2;}</style></defs><g id="_イヤー_1-2"><g><g><g><g><g><rect class="cls-1" x="1.64" y="29.15" width="140.25" height="140.25" rx="12.71" ry="12.71"/><g><path class="cls-3" d="M113.7,164.14c1.47,.23-2.4,.29-.18,.55-.21-.1,2.02-.4,.18-.55Z"/><path class="cls-3" d="M6.7,113.97l.08,.22v-.33c0-.09-.02-.14-.02-.25l-.06,.37Z"/><polygon class="cls-3" points="32.02 163.97 30.53 164.05 31.23 164.07 32.02 163.97"/><path class="cls-3" d="M143.16,37.93c0-.2-.01-.4-.07-.52,.04,.18,.05,.35,.07,.52Z"/><path class="cls-3" d="M143.12,114.7v.39c.03,.11,.08,.22,.12,.32l-.12-.71Z"/><path class="cls-3" d="M131.52,27.53h.07c.44,0,.19,0-.07,0Z"/><path class="cls-3" d="M97.39,27.78s-.09-.06-.35-.11c.07,.05,.21,.08,.35,.11Z"/><path class="cls-3" d="M122.71,28.04l-.64-.03c.25,.02,.46,.03,.64,.03Z"/><path class="cls-3" d="M82.78,28.01s.09,.02,.14,.03c.12-.03,.28-.04,.51-.03-.17-.01-.33-.02-.65,0Z"/><path class="cls-3" d="M69.85,28.03l.26,.05h.44l-.7-.05Z"/><path class="cls-3" d="M132.41,27.69c.26,.02,.5,.04,.72,.07-.32-.05-.55-.07-.72-.07Z"/><polygon class="cls-3" points="143.49 59.1 143.52 59.56 143.44 57.8 143.49 59.1"/><path class="cls-3" d="M72.31,27.81l.32,.29c.71-.05,.86-.37-.32-.29Z"/><path class="cls-3" d="M31.03,28.1c-.45-.14-1.61-.24-2.33-.09,.93,.02,1.85,.13,2.33,.09Z"/><path class="cls-3" d="M29.83,34.4c-1.47-.23,2.4-.29,.18-.55,.21,.1-2.02,.4-.18,.55Z"/><path class="cls-3" d="M136.82,84.57l-.08-.22v.33c0,.09,.02,.14,.02,.25l.06-.37Z"/><polygon class="cls-3" points="112.3 34.47 111.51 34.57 112.99 34.49 112.3 34.47"/><path class="cls-3" d="M.36,160.61c0,.2,.01,.4,.07,.52-.04-.18-.05-.35-.07-.52Z"/><path class="cls-3" d="M.41,83.84v-.39c-.03-.11-.08-.22-.12-.32l.12,.71Z"/><path class="cls-3" d="M12,171.01h-.07c-.44,0-.19,0,.07,0Z"/><path class="cls-3" d="M46.13,170.76s.09,.06,.35,.11c-.07-.05-.21-.08-.35-.11Z"/><path class="cls-3" d="M20.82,170.51l.64,.03c-.25-.02-.46-.03-.64-.03Z"/><path class="cls-3" d="M60.74,170.53s-.09-.02-.14-.03c-.12,.03-.28,.04-.51,.03,.17,.01,.33,.02,.65,0Z"/><path class="cls-3" d="M73.68,170.51l-.26-.05h-.44l.7,.05Z"/><path class="cls-3" d="M143.32,150.22l-.26,1.96c-.3-3.41,.47-2.95,.17-6.39l.17,1.09c-.1-1.76,0-6.51-.44-8.24,.06-.31,.22-.72,.26,.05,.02-1.52-.03-3.15-.1-4.78,.04-.15,.08-.53,.11-.49-.07-.69-.1-.95-.15-.52-.03-.63-.05-1.24-.07-1.85,.04,0,.09-.05,.16-.15,0-.22-.08-.35-.18-.45-.05-1.64-.07-3.16,.04-4.41l.14,.32c-.04-.79-.26-1.37-.12-2.35,.06,.05,.14,.32,.14-.05-.05-.42-.24-2.09-.16-3.13l.15,.89c.11-2.49-.05-4.28-.22-6.07,.06,.18,.11,.48,.16,.95v-1.49c-.11-.35-.16-.82-.2-1.78l.25,.37c0-.91-.07-1.83-.12-2.79,.15-1.09,.21-2.77,.26-3.79l.06,.06c.02-2.4-.06-4.43-.17-6.43,0-.06,.02-.13,.02-.21-.09-.35-.05-1.11-.12-1.51-.02-.3-.03-.6-.05-.9,.04-.1,.08-.18,.11-.28-.1-.85-.06-3.58-.2-3.83,.33-3.01,.12-9.03,.35-13.17-.07,.68-.31-.11-.35-.9,.08-1.04-.28-2.87,.09-2.71v.37c.1-.24,.17-.62,.21-1.06h.02c0-.07,0-.12,0-.18,.07-.98,.04-2.26,.04-3.35l-.17-.1c.04-.74,.03-1.39-.09-2.53,0-.06,0-.12,0-.18,.06,.12,.11,0,.15-.26l-.02,.72,.1,.83-.08-1.55c.07-.54,.08-1.66,.04-2.26l-.15,1.26c0-.77,0-1.55-.02-2.33,0-.15,0-.31,0-.47l.3,.51c.26-2.88-.16-5.35-.21-7.64,0-.02,0-.05,.02-.08-.01-.1-.02-.21-.03-.31,0-.8,.05-1.58,.21-2.35-.17-.85-.16,1.02-.28,1.36-.02-.37-.04-.75-.06-1.11,.03-.32,.06-.64,.1-.94l.08,.02c0-.26,.01-.5,.02-.74,.11-.79,.22-1.43,.22-1.72,.09-1.38-.05-1.96-.17-2.63,0-.82-.01-1.74-.03-2.88l.18,.73c0-.56-.05-.99-.13-1.38v-.03l-.02-.07c-.02-.1-.04-.2-.07-.29,.1-1,.09-3.35,.26-2.77-.1-1.41-.18-.6-.23,.44,.08-1.19,.08-2.13,.07-3.07,0-.48,0-.92-.02-1.47-.01-.27-.02-.56-.03-.85-.02-.3-.07-.61-.1-.94,0,.43-.06,.82-.12,.41h0c-.02-.17-.04-.34-.06-.5-.21-1.47-.77-2.89-1.59-4.11,0-.08-.12-.33-.72-1.04,.1,.05,.25,.17,.49,.49-.22-.34-.56-.81-.97-1.3,.02,0,.03,0,.06,.02,.19,.09,.56,.42,.78,.66-1.62-1.83-3.26-3.24-4.54-3.89,.41,.16,.82,.33,1.2,.54-.35-.19-.67-.35-.98-.48-.31-.14-.6-.3-.91-.4,.21,.15,.41,.32,.6,.49-.67-.37-1.3-.54-1.25-.64-.39-.07-.28,.07-.26,.18,0,.03,0,.05,0,.07-.21-.07-.43-.14-.68-.19-.65-.19-1.4-.26-2.11-.28,.16-.01,.11-.05,.03-.11-.07-.05-.16-.1-.06-.14,.05-.02,.16-.04,.34-.03-.36-.03-.75-.06-1.2-.1-.11-.03,.1-.06,.32-.06-2.84-.29-1.3,.32-4.19,.3,.37-.16-.67-.31-1.14-.27,1.16,0,.56,.27-.51,.39-1.85-.13-2.01,.09-2.98,.08l.61,.03c-.69,.02-.87,.09-1.39,.2-.22,0-.45,.01-.7,.02-.11-.13,1.17-.09,.71-.14-1.43,.28-3.23-.29-5.23-.1-.92-.11-.09-.3-.9-.38-1.73,.16-2.24-.06-3.48-.08,.1-.04,.24-.08,.47-.12-.32,.04-.69,.08-1.08,.13-.21,0-.43,.02-.68,.03,.04,.01,.07,.02,.11,.03-.6,.07-1.24,.13-1.88,.19v-.04c-1.42-.12-2.68-.05-4.06,.04-.54-.03-.92-.06-1.46-.06-.23-.19-2.26-.1-3.24-.11,.08,.26-1.2,.21,0,.43-.16-.02,.19-.03,.84-.04,.14,0,.3-.01,.4-.02h.01l-.06,.02h.18c-.09,.03-.23,.06-.38,.07l.21-.07h-.35c-.09,0-.15,.02-.27,.02l.37,.05c-.73,.06-2.01-.04-2.93,.03,.11-.18-.62-.24-1.12-.36,.03,.06-.56,.06-1.21,.08-.18-.04-.31-.07-.37-.11-2.99,.14-7.06,.09-8.94,.57-.05,0-.08,0-.12,0,.77-.19-.43-.32,1.41-.45-.93,0-1.77-.03-1.79,.09-.55-.11-2.59,.24-3.44,.07-.18,.04-.31,.09-.49,.15-.3,.03-.55,.06-.72,.1-.11,0-.22,0-.36,0-.07-.02-.05-.05-.03-.07-.08,.03-.33,.05-.56,.08-.44-.12,1.36-.22-1.05-.17l.4-.1c-3.25-.3-5.81,0-8.57,.21-.54-.03-1.03-.08-1.44-.16-1.83,.05-3.99,.11-5.75,.13-.03,0-.06,0-.1,0h.09c-.2,.01-.39,.01-.58,.01,.12-.05,0-.09,.36-.07-1.03-.07-1.48,0-1.84,.1-.61,0-1.23,0-1.85-.01-.02,0-.07-.02-.16-.03-.4-.59-3.5,.08-5.45-.26l.47-.03c-1.49-.2-3.64,.22-6.08,.18,0,0,.12-.05,.01-.09-.68,.12-1.62,.21-2.65,.28-1.31-.03-2.62-.07-3.9-.16-1.88-.09-2.24,.08-3.24,.24-.19-.03-.37-.06-.52-.1l-.21-.13-.11,.02s-.08-.04-.09-.06h1.98c-1.01-.34-2.56,0-3.61-.06l.13-.14c-2.47,.04-2.96,.28-4.82,.36-1.39-.14-2.87-.24-4.75-.03l.5,.18c-.08,0-.17,0-.26,0l-.48-.32c-.7,.05-2.01,.16-3.41,.26-.02-.01-.02-.03,0-.04-.04,.01-.11,.03-.19,.06-.24,.02-.49,.03-.73,.05-.03,0-.05,0-.07,0l-.04-.14-.26,.02c1.2-.13,2.65-.23,3.67-.34-1.17,0-3.96,.03-4.57,.2,.47-.03,1.06-.12,1.53-.07-1.14,.22-2.57,.35-4.27,.4-1.7-.14,.62-.54-2.93-.57-.54,.02-1.26,.09-1.91,.16-.77-.01-1.56-.02-2.34,0-.89,.05-1.66,.14-2.14,.14-1.06,.35-2.08,.81-3.03,1.39-.96,.56-1.85,1.27-2.66,2.09-1.6,1.63-2.89,3.83-3.26,6.44,.8-1.73-.21,1.5,.45,1.23,0,.19,0,.35,0,.5,0-.09-.02-.21-.02-.36-.15,.89-.07,1.17-.04,1.54-.12-.09-.39-2.01-.52-.2,.17-1.14,.25,.75,.38,.91l.02,.23-.02-.23c.04,.05,.09-.09,.15-.59v.04l-.09,.89c-.02,.05-.04,0-.05-.1l.03,.33-.1,.97s-.05-.16-.03-.52c-.04,.49-.05,.94-.05,1.36l-.03,.28c-.16,.8-.12-1.06-.25-.96-.04,2.44-.24,1.02-.38,2.64,.2-.33,.28,.85,.21,2.24l.26-1.96c.3,3.41-.47,2.95-.17,6.39l-.17-1.09c.1,1.76,0,6.51,.44,8.24-.06,.31-.22,.72-.26-.05-.02,1.52,.03,3.15,.1,4.78-.04,.15-.08,.53-.11,.49,.07,.69,.1,.95,.15,.52,.03,.63,.05,1.24,.07,1.85-.04,0-.09,.05-.16,.15,0,.22,.08,.35,.18,.45,.05,1.64,.07,3.16-.04,4.41l-.14-.32c.04,.79,.26,1.37,.12,2.35-.06-.05-.14-.32-.14,.05,.05,.42,.24,2.09,.16,3.13l-.15-.89c-.11,2.49,.05,4.28,.22,6.07-.06-.18-.11-.48-.16-.95v1.49c.11,.35,.16,.82,.2,1.78l-.25-.37c0,.91,.07,1.83,.12,2.79-.15,1.09-.21,2.77-.26,3.79l-.06-.06c-.02,2.4,.06,4.43,.17,6.43,0,.06-.02,.13-.02,.21,.09,.35,.05,1.11,.12,1.51,.02,.3,.03,.6,.05,.9-.04,.1-.08,.18-.11,.28,.1,.85,.06,3.58,.2,3.83-.33,3.01-.12,9.03-.35,13.17,.07-.68,.31,.11,.35,.9-.08,1.04,.28,2.87-.09,2.71v-.37c-.1,.24-.17,.62-.21,1.06h-.02c0,.07,0,.12,0,.18-.07,.98-.04,2.26-.04,3.35l.17,.1c-.04,.74-.03,1.39,.09,2.53,0,.06,0,.12,0,.18-.06-.12-.11,0-.15,.26l.02-.72-.1-.83,.08,1.55c-.07,.54-.08,1.66-.04,2.26l.15-1.26c0,.77,0,1.55,.02,2.33,0,.15,0,.31,0,.47l-.3-.51c-.26,2.88,.16,5.35,.21,7.64,0,.02,0,.05-.02,.08,.01,.1,.02,.21,.03,.31,0,.8-.05,1.58-.21,2.35,.17,.85,.16-1.02,.28-1.36,.02,.37,.04,.75,.06,1.11-.03,.32-.06,.64-.1,.94l-.08-.02c0,.26-.01,.5-.02,.74-.11,.79-.22,1.43-.22,1.72-.09,1.38,.05,1.96,.17,2.63,0,.82,.01,1.74,.03,2.88l-.18-.73c0,.56,.05,.99,.13,1.38v.03l.02,.07c.02,.1,.04,.2,.07,.29-.1,1-.09,3.35-.26,2.77,.1,1.41,.18,.6,.23-.44-.08,1.19-.08,2.13-.07,3.07,0,.48,0,.92,.02,1.47,.01,.27,.02,.56,.03,.85,.02,.3,.07,.61,.1,.94,0-.43,.06-.82,.12-.41h0c.02,.17,.04,.34,.06,.5,.21,1.47,.77,2.89,1.59,4.11,0,.08,.12,.33,.72,1.04-.1-.05-.25-.17-.49-.49,.22,.34,.56,.81,.97,1.3-.02,0-.03,0-.06-.02-.19-.09-.56-.42-.78-.66,1.62,1.83,3.26,3.24,4.54,3.89-.41-.16-.82-.33-1.2-.54,.35,.19,.67,.35,.98,.48,.31,.14,.6,.3,.91,.4-.21-.15-.41-.32-.6-.49,.67,.37,1.3,.54,1.25,.64,.39,.07,.28-.07,.26-.18,0-.03,0-.05,0-.07,.21,.07,.43,.14,.68,.19,.65,.19,1.4,.26,2.11,.28-.16,.01-.11,.05-.03,.11,.07,.05,.16,.1,.06,.14-.05,.02-.16,.04-.34,.03,.36,.03,.75,.06,1.2,.1,.11,.03-.1,.06-.32,.06,2.84,.29,1.3-.32,4.19-.3-.37,.16,.67,.31,1.14,.27-1.16,0-.56-.27,.51-.39,1.85,.13,2.01-.09,2.98-.08l-.61-.03c.69-.02,.87-.09,1.39-.2,.22,0,.45-.01,.7-.02,.11,.13-1.17,.09-.71,.14,1.43-.28,3.23,.29,5.23,.1,.92,.11,.09,.3,.9,.38,1.73-.16,2.24,.06,3.48,.08-.1,.04-.24,.08-.47,.12,.32-.04,.69-.08,1.08-.13,.21,0,.43-.02,.68-.03-.04-.01-.07-.02-.11-.03,.6-.07,1.24-.13,1.88-.19v.04c1.42,.12,2.68,.05,4.06-.04,.54,.03,.92,.06,1.46,.06,.23,.19,2.26,.1,3.24,.11-.08-.26,1.2-.21,0-.43,.16,.02-.19,.03-.84,.04-.14,0-.3,.01-.4,.02h-.01l.06-.02h-.18c.09-.03,.23-.06,.38-.07l-.21,.07h.35c.09,0,.15-.02,.27-.02l-.37-.05c.73-.06,2.01,.04,2.93-.03-.11,.18,.62,.24,1.12,.36-.03-.06,.55-.06,1.21-.08,.18,.04,.31,.07,.37,.11,2.99-.14,7.06-.09,8.94-.57,.05,0,.08,0,.12,0-.77,.19,.43,.32-1.41,.45,.93,0,1.77,.03,1.79-.09,.55,.11,2.59-.24,3.44-.07,.18-.04,.31-.09,.49-.15,.3-.03,.55-.06,.72-.1,.11,0,.22,0,.36,0,.07,.02,.05,.05,.03,.07,.08-.03,.33-.05,.56-.08,.44,.12-1.36,.22,1.05,.17l-.4,.1c3.25,.3,5.81,0,8.57-.21,.54,.03,1.03,.08,1.44,.16,1.83-.05,3.99-.11,5.75-.13,.03,0,.06,0,.1,0h-.09c.2-.01,.39-.01,.58-.01-.12,.05,0,.09-.36,.07,1.03,.07,1.48,0,1.84-.1,.61,0,1.23,0,1.85,.01,.02,0,.07,.02,.16,.03,.4,.59,3.5-.08,5.45,.26l-.47,.03c1.49,.2,3.64-.22,6.08-.18,0,0-.12,.05-.01,.09,.68-.12,1.62-.21,2.65-.28,1.31,.03,2.62,.07,3.9,.16,1.88,.09,2.24-.08,3.24-.24,.19,.03,.37,.06,.52,.1l.21,.13,.11-.02s.08,.04,.09,.06h-1.98c1.01,.34,2.56,0,3.61,.06l-.13,.14c2.48-.04,2.96-.28,4.83-.36,1.39,.14,2.87,.24,4.75,.03l-.5-.18c.08,0,.17,0,.26,0l.48,.32c.7-.05,2.01-.16,3.41-.26,.02,.01,.02,.03,0,.04,.04-.01,.11-.03,.19-.06,.24-.02,.49-.03,.73-.05,.03,0,.05,0,.07,0l.04,.14,.26-.02c-1.2,.13-2.65,.23-3.67,.34,1.17,0,3.96-.03,4.57-.2-.47,.03-1.06,.12-1.53,.07,1.14-.22,2.57-.35,4.27-.4,1.7,.14-.62,.54,2.93,.57,.54-.02,1.26-.09,1.91-.16,.77,.01,1.56,.02,2.34,0,.89-.05,1.66-.14,2.14-.14,1.06-.35,2.08-.81,3.03-1.39,.96-.56,1.85-1.27,2.66-2.09,1.6-1.63,2.89-3.83,3.26-6.44-.8,1.73,.21-1.5-.45-1.23,0-.19,0-.35,0-.5,0,.09,.02,.21,.02,.36,.15-.89,.07-1.17,.04-1.54,.12,.09,.39,2.01,.52,.2-.17,1.14-.25-.75-.38-.91l-.02-.23,.02,.23c-.04-.05-.09,.09-.15,.59v-.04l.09-.89c.02-.05,.04,0,.05,.1l-.03-.33,.1-.97s.05,.16,.03,.52c.04-.49,.05-.94,.05-1.36l.03-.28c.16-.8,.12,1.06,.25,.96,.04-2.44,.24-1.02,.38-2.64-.2,.33-.28-.85-.21-2.24Zm-.15-104.57c0,.38-.02,.58-.05,.63l-.02-.07c-.02-.29-.04-.52-.06-.44,0,.12,0,.22,.01,.29-.08-.27-.17-.55-.23-.84,.13-.37,.29-.24,.34,.44ZM23.47,164.28c-1.42,.02-2.62-.02-3.35-.22-1,.12-2.23,.12-3.22,.24l.05-.26c-1.38-.03-2.42-.05-3.53-.07-.27,0-.59,0-.83-.01-.24-.01-.49-.02-.76-.07-.52-.08-1.11-.23-1.73-.55,.2,.02,.39,.06,.59,.07-.7-.3-1.18-.45-1.69-.62-.5-.18-1.01-.44-1.45-1.12,.03-.21,.05-.4,.1-.6-.33-.63-.51-1.34-.55-2.05v-1.17l.05-1.26c.04-1.68,.04-3.36-.14-5.02,.06,.05,.17,.15,.18,.7,0-1.57,.26-6.05-.26-5.55h0c.28-.1,.1-2.57-.05-4.41,0,.08,0-.08-.01-.24v.06l-.03-.26c.01,.06,.02,.13,.03,.21,.02-.19,.03-.36,.04-.51l.15,.17c-.05-.23-.09-.42-.13-.6,.02-.86-.14-.91-.26-1.43-.04-.37-.07-.85-.1-1.56,.05,.09,.1,.05,.14-.06,0,.05,0,.1,0,.16,0-.06,0-.11,.01-.16,.08-.23,.14-.74,.12-1.03,0,.43-.04,.6-.1,.59,0-1.03-.25-1-.13-2.76l.16,.76c.02-1.74-.07-1.6-.26-2.56-.1-1.09,.06-3.3,.29-3.55-.13-.21-.29-1.02-.27-1.93,.05-.01,.1,0,.14-.09,.02,.08,.03,.16,.04,.23,.01-.17,.01-.32,.02-.48,0-.02,0-.03,0-.06,0-.02,0-.04,0-.06,.02-.69,.01-1.3-.01-1.85,.03-.28,.06-.56,.08-.86,0,.46-.01,.72-.02,.65,.23,0,.27-1.86,.6-.38-.18-1.5-.56-4.05-.45-5.87,.02-.09,.04-.17,.08-.24l.03,.19c.02-.42,0-.79-.04-1.15,.04-.58,.07-.95,.07-1.5,.19-.21,.1-2.14,.11-3.07-.26,.08-.21-1.14-.43,0,.02-.15,.03,.18,.04,.79,0,.14,.01,.3,.03,.4l-.02-.06c0,.61,.01,1.41,.02,2.31-.13-.73-.24-1.5-.1-2.53-.09-.26-.18-.52-.25-.77,0-.09,0-.17,0-.27l-.02,.22c-.06-.19-.11-.36-.15-.49,.36-1.27,.55-3.72,.77-4.06-.14-2.79-.1-6.53-.55-8.36,0-.28,0-.51-.02-.68,.04-.33,.15-.46,.21-.67,.05,.47,.04,1.02,.11,1.27-.12-1.61-.05-4.78-.38-5.16,.15-2.03,.31,1.14,.25-1.65l.1,.38c.54-5.5-.86-8.94-.17-15.03-.04,.42-.06,.63-.12,.72,.15-3.48,.08-7.07,.03-10.64,0-.04,0-.09,0-.13-.05-3.52-.07-7.02,.17-10.4,.09-1.83-.09-2.14-.25-3.15,0-.09,0-.17,.01-.26l.23-.36-.32-2.03s0-.03,0-.04l.13,.12c-.02-.98-.07-1.63-.13-2.18,.14-1.96,.56-3.83,.23-6.54l-.18,.47c.02-.66-.01-1.71-.01-2.56,.02,.19,.04,.37,.05,.54,0-.42-.01-1.07-.02-1.74,.02-.14,.05-.21,.09-.17-.02-.07-.06-.17-.09-.31v-.13c0-.11,0-.22,0-.33,0-.05,0-.09,.02-.14l.14-.02c.01-.99,.28-1.99,.76-2.89,.36-.48,.58-.65,.71-.7,.13-.06,.17,0,.23,.03,.07,.04,.13,.02,.36-.1,.22-.12,.55-.42,1.24-.8,.45-.29,1.13-.63,1.73-.84,.52-.05,1.07-.03,1.63,0,.79,.04,1.47,.11,1.87,.24,3.89-.26,7.72,.11,12.26,.07-1.61-.54,1.32-.02,1.05-.57,1.05-.03,1.45-.03,1.55,0l-.22-.02,.23,.03h0l3.2,.33c.76,.16-1,.12-.91,.25,2.31,.04,.97,.24,2.5,.38-.31-.2,.8-.28,2.12-.21l-1.86-.26c3.23-.3,2.79,.47,6.05,.17l-1.03,.18c1.67-.1,6.17,0,7.81-.44,.3,.06,.69,.22-.05,.26,4,.07,8.89-.48,12-.2l-.3,.14c.75-.04,1.3-.26,2.23-.12-.05,.06-.3,.14,.04,.14,.39-.05,1.98-.24,2.97-.16l-.84,.15c3.9,.18,5.98-.37,9.25-.47,0,.4,3.06,.53,4.59,.6l-.05,.06c4.54,.05,7.71-.33,11.91-.49,2.61,.43,8.84,.18,13.03,.43-.64-.07,.1-.31,.85-.35,.98,.08,2.72-.28,2.56,.09h-.35c.74,.35,2.76,.26,4.34,.27l.26-.48c2.13,.36,4.93,.28,7.46,.21,.78,.02,1.53-.01,2.26-.06,1.42-.02,2.62,.02,3.35,.22,1-.12,2.23-.12,3.22-.24l-.05,.26c1.38,.03,2.42,.05,3.53,.07,.27,0,.59,0,.83,.01,.24,.01,.49,.02,.76,.07,.52,.08,1.11,.23,1.73,.55-.2-.02-.39-.06-.59-.07,.7,.3,1.18,.45,1.69,.62,.5,.18,1.01,.44,1.45,1.12-.03,.21-.05,.4-.1,.6,.33,.63,.51,1.34,.55,2.05v1.17l-.05,1.26c-.04,1.68-.04,3.36,.14,5.02-.06-.05-.17-.15-.18-.7,0,1.57-.26,6.05,.26,5.55h0c-.28,.1-.1,2.57,.05,4.41,0-.08,0,.08,.01,.24v-.06l.03,.26c-.01-.06-.02-.13-.03-.21-.02,.19-.03,.36-.04,.51l-.15-.17c.05,.23,.09,.42,.13,.6-.02,.86,.14,.91,.26,1.43,.04,.37,.07,.85,.1,1.56-.05-.09-.1-.05-.14,.06,0-.05,0-.1,0-.16,0,.06,0,.11-.01,.16-.08,.23-.14,.74-.12,1.03,0-.43,.04-.6,.1-.59,0,1.03,.25,1,.13,2.76l-.16-.76c-.02,1.74,.07,1.6,.26,2.56,.1,1.09-.06,3.3-.29,3.55,.13,.21,.29,1.02,.27,1.93-.05,.01-.1,0-.14,.09-.02-.08-.03-.16-.04-.23-.01,.17-.01,.32-.02,.48,0,.02,0,.03,0,.06,0,.02,0,.04,0,.06-.02,.69-.01,1.3,.01,1.85-.03,.28-.06,.56-.08,.86,0-.46,.01-.72,.02-.65-.23,0-.27,1.86-.6,.38,.18,1.5,.56,4.05,.45,5.87-.02,.09-.04,.17-.08,.24l-.03-.19c-.02,.42,0,.79,.04,1.15-.04,.58-.07,.95-.07,1.5-.19,.21-.1,2.14-.11,3.07,.26-.08,.21,1.14,.43,0-.02,.15-.03-.18-.04-.79,0-.14-.01-.3-.03-.4l.02,.06c0-.61-.01-1.41-.02-2.31,.13,.73,.24,1.5,.1,2.53,.09,.26,.18,.52,.25,.77,0,.09,0,.17,0,.27l.02-.22c.06,.19,.11,.36,.15,.49-.36,1.27-.55,3.72-.77,4.06,.14,2.79,.1,6.53,.55,8.36,0,.28,0,.51,.02,.68-.04,.33-.15,.46-.21,.67-.05-.47-.04-1.02-.11-1.27,.12,1.61,.05,4.78,.38,5.16-.15,2.03-.31-1.14-.25,1.65l-.1-.38c-.54,5.5,.86,8.94,.17,15.03,.04-.42,.06-.63,.12-.72-.15,3.48-.08,7.07-.03,10.64,0,.05,0,.09,0,.14,.05,3.52,.07,7.02-.17,10.4-.09,1.83,.09,2.14,.25,3.15,0,.09,0,.17-.01,.26l-.23,.36,.32,2.03s0,.03,0,.04l-.13-.12c.02,.98,.07,1.63,.13,2.18-.14,1.96-.56,3.83-.23,6.54l.18-.47c-.02,.66,.01,1.71,.01,2.56-.02-.19-.04-.37-.05-.54,0,.42,.01,1.07,.02,1.74-.02,.14-.05,.21-.09,.17,.02,.07,.06,.17,.09,.31v.13c0,.11,0,.22,0,.33,0,.05,0,.09-.02,.14l-.14,.02c-.01,.99-.28,1.99-.76,2.89-.36,.48-.58,.65-.71,.7-.13,.06-.17,0-.23-.03-.07-.04-.13-.02-.36,.1-.22,.12-.55,.42-1.24,.8-.45,.29-1.13,.63-1.73,.84-.52,.05-1.07,.03-1.63,0-.79-.04-1.47-.11-1.87-.24-3.89,.26-7.72-.11-12.26-.07,1.61,.54-1.32,.02-1.05,.57-1.05,.03-1.45,.03-1.55,0l.22,.02-.23-.03h0l-3.2-.33c-.76-.16,1-.12,.91-.25-2.31-.04-.97-.24-2.5-.38,.31,.2-.8,.28-2.12,.21l1.86,.26c-3.23,.3-2.79-.47-6.05-.17l1.03-.18c-1.67,.1-6.17,0-7.81,.44-.3-.06-.69-.22,.05-.26-4-.07-8.89,.48-12,.2l.3-.14c-.75,.04-1.3,.26-2.23,.12,.05-.06,.3-.14-.04-.14-.39,.05-1.98,.24-2.97,.16l.84-.15c-3.9-.18-5.98,.37-9.25,.47,0-.4-3.06-.53-4.59-.6l.05-.06c-4.54-.05-7.71,.33-11.91,.49-2.61-.43-8.84-.18-13.03-.43,.64,.07-.1,.31-.85,.35-.98-.08-2.72,.28-2.56-.09h.35c-.74-.35-2.76-.26-4.34-.27l-.26,.48c-2.13-.36-4.93-.28-7.46-.21-.78-.02-1.53,.01-2.26,.06ZM6.79,123.12c0-.14,0-.27-.02-.43-.1,.31-.15,.49-.18,.42-.02-.55,0-1.09,.06-1.68,.08-.04,.13-.17,.15-.34,0,.74,0,1.43,0,2.03Zm.19-8.4c.05,.06,.09,.13,.13,.24,.04,.62-.01,.83-.07,.91,0-.29-.02-.63-.03-1.08l-.03-.07Zm129.75-39.31c0,.14,0,.27,.02,.43,.1-.31,.15-.49,.18-.42,.02,.55,0,1.09-.06,1.68-.08,.04-.13,.17-.15,.34,0-.74,0-1.43,0-2.03Zm-.19,8.4c-.05-.06-.09-.13-.13-.24-.04-.62,.01-.83,.07-.91,0,.29,.02,.63,.03,1.08l.03,.07Zm-5.04-55.85c-.2,0-.4,0-.58,.02-.04-.02-.09-.03-.11-.05,.29,.02,.5,.03,.69,.03Zm-18.42,0c-.07-.03-.15-.05-.25-.07l1.21-.05-.96,.12Zm-.58,.07l-.94,.12c1.17,0,2.46-.14,3.16-.1-.08,.01-.14,.02-.21,.03-2.11,.01-3.44,.28-5.16,.08-.02-.03-.06-.06-.11-.08v-.07c1.37,0,2.56,0,3.27,.02Zm-9.99-.33c.65-.04,.87,.01,.96,.07l-1.14,.03-.08,.03c.06-.05,.13-.09,.26-.13ZM.36,152.89c0-.38,.02-.58,.05-.63l.02,.07c.02,.29,.04,.52,.06,.44,0-.12,0-.22-.01-.29,.08,.27,.17,.55,.23,.84-.13,.37-.29,.24-.34-.44Zm11.66,17.69c.2,0,.4,0,.58-.02,.04,.02,.09,.03,.11,.05-.29-.02-.5-.03-.69-.03Zm18.42,0c.07,.03,.15,.05,.25,.07l-1.21,.05,.96-.12Zm.58-.07l.94-.12c-1.17,0-2.46,.14-3.16,.1,.08-.01,.14-.02,.21-.03,2.11-.01,3.44-.28,5.16-.08,.02,.03,.06,.06,.11,.08v.07c-1.37,0-2.56,0-3.27-.02Zm9.99,.33c-.65,.04-.87-.01-.96-.07l1.14-.03,.08-.03c-.06,.05-.13,.09-.26,.13Z"/><path class="cls-3" d="M11.12,170.85c-.26-.02-.5-.04-.72-.07,.32,.05,.55,.07,.72,.07Z"/><polygon class="cls-3" points=".03 139.44 0 138.98 .08 140.74 .03 139.44"/><path class="cls-3" d="M71.21,170.73l-.32-.29c-.71,.05-.86,.37,.32,.29Z"/><path class="cls-3" d="M112.5,170.44c.45,.14,1.61,.24,2.33,.09-.93-.02-1.85-.13-2.33-.09Z"/></g></g><g><g><g><path class="cls-3" d="M38.28,.54h.02c.13-.05,.05-.04-.02,0Z"/><path class="cls-3" d="M65.65,49.99l-.54,.52c.16-.13,.36-.32,.54-.52Z"/><polygon class="cls-3" points="15.55 36.3 15.63 36.28 15.53 36.18 15.55 36.3"/><polygon class="cls-3" points="65.71 49.94 65.7 49.93 65.65 49.99 65.71 49.94"/><path class="cls-3" d="M73.56,23.72v.02c.05,.13,.04,.05,0-.02Z"/><path class="cls-3" d="M68.74,13.12s.04-.07,.05-.18c-.03,.05-.04,.11-.05,.18Z"/><path class="cls-3" d="M73.84,27.19c-.08-.19-.11-.37-.11-.55-.02-.18-.02-.35,0-.51,.03-.32,.11-.62,.1-.84l.17,.39c-.1-.23-.13-.43-.16-.63l-.24,.27c.01-.24-.02-.44,.1-.46-.22-.21-.42,.26-.74-.18,.04-.17-.03-.4-.07-.6,0-.01,0-.02,0-.03,0-.09,0-.17-.02-.26,.01-.08,.05-.14,.12-.18,.06,.99,.35-.18,.55,.64-.07-.15-.09-.35-.09-.6,.03-.04,.08,.02,.11,.08,.09-1-.51-.34-.74-1.29,.23,.07,.32-.32,.24-.47,.1,.39-.29,.27-.53-.04,0-.31-.06-.46-.14-.57-.07-.36-.14-.7-.19-1.02-.01,.23-.34,.11-.49-.1-.02-.3,.03-.66-.12-.97,.06-.13,.07-.27,.05-.43,.09-.04,.18-.06,.18-.22-.5-.62-.07-.88-.61-1.52-.1,.23-.1,.29-.25,.19l-.26-.36,.08,.22s-.08-.07-.13-.11l.55,.81-.12,.03-.41-.33c.06,.13,.15,.26,.24,.38l-.09,.02-.14-.18c0-.33-.08-.66-.2-.99l.28-.13c-.08-.49-.32-.85-.64-1.19-.33-.34-.68-.69-.93-1.26l.1,.4c-.08,0-.15-.05-.22-.12-.16-.3-.24-.58-.17-.85-.06-.05-.12-.1-.18-.16,.02-.11,.01-.24,.03-.35-.08,.07-.27-.23-.5-.43l.03-.02c-.26-.43-.46-.75-.69-1.08-.12-.17-.24-.33-.38-.52-.07-.09-.15-.19-.23-.29l-.31-.3,.35,.04c-.19-.22-.45-.27-.72-.27-.05-.1-.1-.2-.13-.3l-.1,.18s-.08-.06-.13-.08c-.02-.07-.06-.14-.12-.24,0-.08,0-.17-.05-.24-.03,.04-.03,.09-.03,.13-.03-.04-.06-.08-.1-.12-.07-.06-.16-.11-.26-.17-.67-.83-1.31-1.75-2.3-2.23,.05-.04,.07-.09,.07-.14,.03,0,.06,.02,.09,.04-.32-.36-1.19-1.27-1.6-1.15-.18-.16-.35-.31-.53-.48-.27-.24-.54-.48-.81-.72-.29-.21-.58-.42-.87-.62-.48-.32-.75-.09-1.04-.01-.19-.09-.36-.21-.46-.4l.17,.03c-.06-.08-.14-.13-.23-.18l.16-.05c-1.02-.3-1.99-.7-2.94-1.17-.17-.06-.33-.12-.5-.18-.08-.15-.12-.28,.25-.4-.33,.01-.8,.07-1.24,.06-.12-.04-.25-.06-.38-.09-.1-.07-.22-.11-.34-.12h-.03c-.08-.04-.16-.07-.24-.1,0-.01,0-.02-.01-.03h.07c-.11-.07-.22-.09-.33-.09h0s-.03,0-.05,0c.04-.02,.09-.02,.17,0-.14-.17-.43-.26-.72-.3-.15-.18-.72-.24-1-.32,0,.04-.02,.06-.03,.09,0-.01-.01-.02-.02-.03-.39-.26-1.12,.08-1.29-.22-.02-.04,.06-.06,.14-.07-.31,.03-.95-.14-1.01,.01-.19,0-.39-.01-.59-.02-.51-.06-1-.02-1.42-.19-.06,.05-.12,.07-.19,.09,.03-.04,.07-.08,.1-.12l-.24,.14c-.12,0-.25,0-.37-.02l.02-.05c-.11,0-.21,0-.32,.02-.02,0-.02,0-.04,0,0-.02,0-.05,.02-.08-.17,.04-.24,.07-.25,.11-.06,0-.13,.02-.19,.03-.17-.31-1.04-.32-1.54-.15-.13-.04-.24-.1-.32-.2-.05,.02-.11,.03-.16,.04-.02-.03-.01-.07,.03-.12-.41,.02-.79,.1-.91,.24-.14,0-.28,.01-.42,.01h0s-.09,0-.13,0c-.06,0-.13,0-.19,0-.11,0-.21,0-.32,0-.27,.01-.55,.03-.83,.04-.15-.02-.28-.04-.39-.04l.39-.17c-.23,.1-.43,.13-.63,.16l.1,.09c-.3,.03-.61,.06-.93,.12,.06,.05,.1,.09,.14,.13l-.42,.13c.01-.06,.09-.12,.3-.17-.15,.07-.35,.09-.59,.09-.04-.03,.02-.08,.08-.11-.96-.09-.39,.47-1.2,.71h-.08c.01-.11-.07-.18-.17-.22,.11-.06,.25-.13,.21-.2-.83,.16-.42-.2-1.01-.24,.18,.22-.18,.42-.68,.45l.75,.14c-.05,.03-.11,.06-.16,.09l-.05,.03s-.1,.04-.14,.06c-.01-.03-.02-.06-.02-.1-.02,.05-.06,.1-.1,.14-.24,.06-.42,.02-.61,0-.28-.06-.58-.11-1.07,.27l.28-.34c-.27,.17-.8,.36-1.3,.6-.13,.06-.25,.12-.37,.19-.11,.08-.22,.16-.32,.25-.12,.1-.21,.22-.29,.33-.06,.03-.12,.08-.19,.13,0,0,0-.01-.02-.02,0,0,0,.02,0,.03-.02,.01-.03,.02-.05,.03-.09-.05-.16-.14,0-.26-.34,.14-.67,.33-1,.54-.12,.08-.23,.16-.35,.23v-.09c-.73,.11-1.16,.63-1.58,1.05-.14,.15-.28,.28-.43,.4-.02-.01-.04-.03-.07-.03-.06,.05-.1,.12-.15,.18-.03,.01-.07,.03-.1,.04v-.2c-.1,.09-.16,.22-.23,.33-.14,.05-.3,.07-.47,.08,0,.01,0,.01,0,.02h0c-.04,.07-.14,.24-.28,.41-.3,.04-.56,.06-.64,.12-.37,.16-.47,.36-.55,.58-.17,.18-.32,.36-.45,.55-.18,.3-.34,.6-.52,.89-.05-.02-.12-.05-.25-.07,0-.02,.01-.05,.03-.07,.1-.11,.19-.13,.21-.09,.12-.17,.28-.4,0-.34l.03,.16c-.32,.1-.96,.7-.96,.39-.27,.42,0,.3,.31,.12-.27,.15-.47,.3-.65,.46-.3,.15-.6,.35-.8,.51l-.04-.06c-.58,.59-.98,1.19-1.33,1.78-.06,.1-.12,.21-.17,.32-.12-.05-.07-.3-.03-.46-.08,.19-.19,.34-.31,.47-.11,.14-.23,.26-.36,.36-.25,.2-.52,.36-.67,.52l.15-.4c-.09,.24-.21,.4-.33,.56l.36-.02c-.18,.16-.3,.33-.39,.25,0,.28,.4,.15,.4,.54-.13,.1-.26,.22-.39,.35-.07,.08-.14,.16-.21,.25,.18-.33-.5,.02-.13-.58-.06,.16-.18,.31-.36,.48-.05,0-.05-.07-.02-.14-.78,.64,.12,.6-.39,1.44-.11-.21-.45,0-.5,.16,.17-.28,.32-.09,.35,.2-.31,.47-.62,.93-.89,1.32,.18-.17,.34,.22,.27,.48-.07,.08-.11,.2-.14,.33-.11,.11-.22,.22-.31,.34-.27,.03-.46,.23-.61,.5-.05,0-.1,.01-.15,.07-.09,.79-.57,.67-.65,1.51,.17-.06,.24-.11,.28-.06l-.05,.33,.09-.19c.01,.07,.02,.18,.04,.33-.05,.1-.1,.21-.14,.32l-.2-.07c-.29,.4-.37,.82-.39,1.29,0,.47,0,.97-.23,1.55l.21-.35s.03,.04,.04,.07c-.1,.31-.24,.56-.47,.7,.02,.14,.02,.29,.02,.43-.08,.06-.16,.15-.25,.22,.09,0,.05,.23,.05,.48h-.06c-.12,.47-.21,.84-.28,1.24-.04,.2-.07,.41-.1,.64l-.04,.38v.44l-.22-.28c-.03,.31,.15,.53,.35,.74,.01,.06,.04,.1,.09,.1-.11,.13,.08,.53,.1,.86l-.15,.05c-.11,1.18-.38,2.41,.07,3.56-.04,0-.08,0-.12,.01-.05-.03-.09-.09-.11-.18-.04,.57-.06,2.25,.56,1.95-.36,.06-.03,.89,.28,1.5,.02,.06,.04,.11,.08,.15,.02,.05,.05,.1,.07,.14-.01,.01-.02,.02-.03,.04l-.29-.03c.1,.08,.18,.15,.26,.21h0c.16,.13,.27,.22,.37,.34l-.11,.03,.06,.06c-.33,.15-.25,.43-.11,.75,0,.4-.25,.2-.28,.7,.22-.18,.42,.18,.45,.67l.02-.12c.05,.18,.17,.36,.3,.56-.04,.25-.04,.53,.29,.95l-.34-.28c.17,.26,.36,.79,.6,1.29,.06,.13,.12,.25,.19,.37,.08,.11,.16,.22,.25,.32,.01,.01,.03,.02,.04,.04-.05,.16-.12,.29-.46,.11,.23,.21,.56,.47,.84,.76,.09,.17,.18,.33,.28,.49,.02,.11,.08,.21,.16,.3h.01l.02,.04c.02,.07,.05,.13,.08,.19h0l-.06-.04c.04,.14,.11,.24,.21,.33h-.04c.03,.06,.06,.09,.09,.13,.05,.14,.09,.26,.17,.4-.17,.19,.29,.73,.45,1.02,.06-.04,.11-.05,.16-.05l.32,.37-.28-.34-.03-.02c.09,0,.16,.04,.21,.02,.05,.08,.1,.16,.15,.24,0,.07,0,.14,.03,.21h-.02s.01,.01,.02,.02c.06,.15,.16,.29,.32,.34-.02-.03-.03-.06-.04-.09,.04,.01,.05,0,.07,0,.03,.02,.05,.05,.08,.07h0s-.02,0-.03,0l.03,.03c0,.09,.01,.17,.02,.24-.05,.01-.09,.03-.05,.09l.05,.03c0,.05-.02,.1-.04,.14,.15,.14,.3,.3,.45,.46,.09,.23,.2,.46,.39,.55,.03,.04,.06,.08,.09,.11l-.02,.03c.2,.27,.38,.49,.55,.7,.17,.19,.35,.35,.52,.51,.15,.14,.29,.27,.44,.42h0s.02,.01,.03,.02c.18,.17,.36,.35,.55,.56h0c.14,.36,.4,.75,.6,.98l-.06,.04c.58,.57,1.16,.96,1.75,1.31,.08,.08,.16,.16,.24,.24,.2,.18,.41,.37,.62,.56,.09,.12,.17,.23,.25,.3l-.39-.15c.24,.09,.39,.21,.56,.33v-.13c.22,.2,.47,.39,.73,.57-.04-.47,.07-.38,.23-.28,.06,.08,.13,.15,.21,.23-.03,.09-.11,.14-.38-.03,.16,.06,.31,.18,.48,.36,0,.05-.07,.05-.13,.02,.41,.5,.54,.31,.81,.24,.09,.06,.18,.12,.27,.18,.1,.06,.19,.13,.29,.19,0,.02,0,.04,.02,.06-.12-.03-.27-.09-.29,0,.69,.47,.15,.44,.54,.89,.03-.28,.43-.17,.8,.16l-.42-.63c.05,.01,.1,.03,.15,.04,.06,.04,.13,.09,.19,.13,0,.01-.01,.03-.03,.04,.02,0,.05,0,.07-.01,.14,.1,.28,.19,.42,.28,.03,.05,.07,.09,.1,.14,.16,.24,.33,.48,.95,.57l-.44,.04c.31,.07,.82,.31,1.35,.49,.13,.05,.27,.09,.4,.13,.14,.02,.27,.04,.4,.05,.16,.01,.3,0,.44-.03,.06,.02,.14,.03,.23,.04,0,0,0,.02,0,.03,0,0,.01-.01,.02-.02,.02,0,.03,0,.06,0,0,.03,.01,.07,0,.1h-.16l.15,.03s-.07,.07-.18,.05c.34,.14,.71,.24,1.09,.32,.38,.08,.77,.16,1.16,.18,.32,.03,.63,.06,.92,.11-.03,.13-.44,.17-.44,.17,.38,.1,.47,0,.51-.15,.22,.04,.42,.09,.61,.16,0,.05,.02,.1,.06,.15,.05,0,.1,0,.15-.01,.04,.04,.07,.08,.1,.12l-.06,.06c.13,0,.26-.04,.39-.07,.08,0,.16,0,.23,0,.06,.01,.13,.04,.19,.08-.03,.07-.14,.15-.02,.18,.07-.02,.23-.06,.41-.08l-.02,.08c.14,.03,.28,.07,.4,.1h-.03c.25,.09,.49,.13,.71,.15,.05,.01,.11,.02,.16,.03,.2,.04,.41,.07,.64,.1l.37,.04h.43l-.27,.22c.29,.02,.51-.13,.7-.31,.11,.03,.21,.07,.31,.12l-.06-.21s.07-.03,.1-.04h0c.06,.04,.16,.08,.3,.1,.06,.06,.12,.11,.21,.14,0-.05-.04-.08-.08-.11,.05,0,.1,.01,.16,.02,.02,0,.04-.01,.07-.01,.37,.19,.9,.31,1.24,.34l-.02,.07c.83,0,1.53-.15,2.2-.32h0c.5,.03,1.71,.04,1.91-.32,.24-.01,.47-.03,.71-.03l1.08-.06c.35-.05,.7-.12,1.05-.18,.32-.07,.47-.21,.57-.37,.49-.1,.97-.19,1.4-.27-.1,0-.13-.07-.12-.15,.36-.18,.73-.36,1.11-.51,.41,.28,1.05-.03,1.55-.27l-.08-.29c.13-.06,.26-.12,.38-.18,.1,.03,.18,.08,.18,.19l-.03,.03,.03-.02c0,.06-.02,.14-.08,.26,.14-.15,.3-.35,.48-.55h0c.08-.1,.17-.2,.26-.29,.35-.15,.69-.34,1.01-.56,0,0,.01,0,.02,0l-.04,.06c.15-.04,.26-.12,.34-.22-.02,.05-.05,.1-.13,.13,.21,.02,.49-.12,.72-.3,.23,.03,.68-.34,.93-.48-.02-.03-.03-.06-.04-.08,.01,0,.02,0,.04,0,.46-.09,.74-.85,1.07-.76,.04,0,0,.08-.05,.15,.04-.04,.09-.09,.14-.14v.02c.44-.26,.77-.46,1.1-.69,.17-.12,.34-.24,.52-.39l.3-.24,.31-.31-.04,.35c.21-.18,.26-.41,.28-.66l.13-.06s-.08,.01-.12,.02c0-.13,0-.25,0-.38,.04-.03,.07-.06,.1-.09l.02,.05c.07-.07,.14-.15,.21-.24,.08-.07,.13-.13,.16-.21l.02-.03,.17,.08c.54-.45,1.13-.87,1.63-1.38,0,.01,.01,.03,.01,.05,.13-.14,.24-.29,.32-.42,.18-.23,.34-.47,.47-.74,.04-.03,.07-.06,.1-.09,.04,.07,.07,.16-.02,.29,.42-.37,1.57-1.48,1.03-1.75h.01c.06,0,.12,0,.19-.06,.04,0,.08-.02,.13-.01,.19-.36,.38-.72,.56-1.07l.16-.37,.11,.13c-.01-.12-.02-.22-.03-.31l.23-.53c.1-.21,.19-.42,.29-.63,0,.12-.12,.35-.02,.39,.12-.18,.21-.27,.28-.32,0,.07,.04,.13,.12,.17,.03-.08,.06-.15,.08-.22,.1,0,.2,.02,.4-.16-.28-.03-.17-.43,.16-.79l-.3,.2c.05-.19,.09-.38,.12-.56,.06-.04,.11-.08,.17-.12,.24-.16,.48-.33,.56-.94l.04,.43c.07-.3,.31-.81,.49-1.34,.05-.13,.09-.26,.12-.4,.02-.14,.04-.27,.05-.4,0-.02,0-.03,0-.05,.15-.08,.29-.12,.4,.25-.01-.28-.05-.66-.06-1.04,.11-.17,.19-.41,.2-.57l-.1,.11c.03-.1,.06-.19,.08-.29,.03-.1,.06-.2,.09-.3l.23,.21c.33-.46,.37-.97,.37-1.45,.09-.24,.13-.59,.19-.8-.1-.01-.15-.06-.19-.11,.03-.4,.15-.76,.47-1.08-.16-.3-.25,.23-.39,.36-.02-.11-.05-.22-.06-.33,.05-.1,.11-.2,.17-.29,.04,.03,.08,.04,.1-.03v-.05s.07-.06,.11-.07c0-.04,0-.09,0-.14,.17-.22,.32-.39,.33-.49,.21-.52,0-.73-.14-1.03,.03-.25,.06-.48,.08-.68,0-.11,0-.22,0-.32,.03,0,.07-.01,.12-.09l-.12-.09v-.03c.15-.32,.18-1.15,.39-.94-.11-.49-.22-.21-.3,.14,.21-.75,.13-1.2,.17-1.94l.07,.02c0-.82-.15-1.52-.32-2.19,0-.02-.01-.03-.01-.05,.13-.25,.32,.05,.43,.22ZM51.39,.96c.14,0,.21,.04,.25,.08-.11-.01-.22-.02-.33-.01,.02-.03,.05-.05,.07-.07Zm-14.63,.11s.02,.07,0,.12c-.07-.04-.06-.08,0-.12Zm-9.1,4.11c-.06,.05-.13,.08-.23,.1,0,0,0-.02,0-.03,.07-.01,.15-.05,.23-.08Zm-8.07,40.57l-.02-.04s0-.06,0-.08c.01,.04,.04,.08,.05,.12h-.03Zm-.27-32.33l-.03,.05h0s.03-.03,.04-.05Zm-2.38,5.46c-.08,.06-.15,.14-.22,.21,.02-.11,.03-.21,.05-.31l.17,.1Zm-.43-.25l.05,.03,.06,.56c-.12,.15-.22,.31-.31,.49l.21-1.07Zm-.54,17.99h0c-.07,.05-.12-.04-.16-.15l.15,.15Zm-.12,1.6l-.03-.04,.05-.26c0,.1,0,.2-.02,.3Zm2.7,6.51c-.16-.17-.14-.26-.1-.32,.06,.09,.13,.19,.24,.31,.01,0,.03,0,.05,0-.06,.01-.13,.02-.19,0Zm1.15,1.3s-.02-.04-.03-.07l.02,.02s0,.03,0,.05Zm9.27,9.01s0,0,.01-.01h.01s-.01,.01-.02,.01Zm30.16,.13c-.1,.1-.18,.12-.23,.12,.09-.07,.17-.15,.24-.22,0,.03,0,.07,0,.1Zm10.5-11.31c.07-.33,.19-.52,.31-.65,0,.16-.08,.37-.19,.57l-.12,.08Z"/><polygon class="cls-3" points="73.16 36.33 73.21 35.73 73.16 36.17 73.16 36.33"/><path class="cls-3" d="M27.51,54.33v-.02c-.14-.05-.08,0,0,.02Z"/><path class="cls-3" d="M43.13,0h.75c-.21,0-.48-.01-.75,0Z"/><path class="cls-3" d="M46.11,.07c.13,.12,.26,.19,.4,.25,.03-.02,.07-.04,.09-.08l-.5-.17Z"/><polygon class="cls-3" points="43.05 0 43.05 .01 43.13 0 43.05 0"/><path class="cls-3" d="M24.78,7.65c.08-.09,.1-.15,.08-.18-.07,.1-.12,.18-.08,.18Z"/><path class="cls-3" d="M18.96,12.99l.02-.02c.05-.13,0-.06-.02,.02Z"/><path class="cls-3" d="M14.86,23.89s-.08,.02-.16,.09c.06-.01,.11-.05,.16-.09Z"/><polygon class="cls-3" points="28.15 4.35 27.69 4.75 28.04 4.47 28.15 4.35"/></g><g><path class="cls-3" d="M75.17,10.83h.02c.08-.04,.03-.02-.02,0Z"/><path class="cls-3" d="M92.91,42.88l-.35,.34c.11-.09,.23-.21,.35-.34Z"/><polygon class="cls-3" points="60.45 34 60.5 33.99 60.43 33.93 60.45 34"/><polygon class="cls-3" points="92.94 42.84 92.94 42.84 92.91 42.88 92.94 42.84"/><path class="cls-3" d="M98.03,25.85v.02c.04,.08,.02,.03,0-.02Z"/><path class="cls-3" d="M94.91,18.98s.03-.04,.03-.11c-.02,.03-.03,.07-.03,.11Z"/><path class="cls-3" d="M98.21,28.1c-.05-.12-.07-.24-.07-.35-.01-.11-.01-.22,0-.33,.02-.21,.07-.4,.07-.54l.11,.25c-.07-.15-.08-.28-.1-.41l-.15,.18c0-.16-.01-.29,.06-.3-.14-.14-.27,.17-.48-.11,.03-.11-.02-.26-.04-.39v-.02c0-.06,0-.11-.01-.17,0-.05,.03-.09,.08-.12,.04,.64,.23-.12,.35,.41-.04-.1-.06-.23-.06-.39,.02-.03,.05,.01,.07,.05,.06-.65-.33-.22-.48-.84,.15,.05,.21-.21,.15-.3,.06,.25-.18,.17-.34-.02,0-.2-.04-.3-.09-.37-.05-.23-.09-.46-.13-.66,0,.15-.22,.07-.32-.06-.01-.2,.02-.43-.08-.63,.04-.08,.05-.18,.03-.28,.06-.03,.12-.04,.11-.14-.32-.4-.04-.57-.39-.99-.07,.15-.07,.19-.16,.12l-.17-.23,.05,.14s-.05-.04-.09-.07l.35,.52-.08,.02-.26-.21c.04,.09,.1,.17,.15,.24l-.06,.02-.09-.12c0-.21-.05-.43-.13-.64l.18-.08c-.05-.32-.21-.55-.41-.77-.21-.22-.44-.45-.6-.82l.07,.26c-.05,0-.1-.03-.14-.07-.1-.19-.15-.37-.11-.55-.04-.03-.08-.07-.11-.1,.01-.07,0-.15,.02-.23-.05,.05-.17-.15-.32-.28h.02c-.17-.29-.3-.5-.45-.71-.07-.11-.16-.22-.25-.34l-.15-.19-.2-.2,.23,.02c-.12-.15-.29-.17-.46-.18-.03-.06-.06-.13-.09-.19l-.07,.12s-.05-.04-.08-.05c-.01-.04-.04-.09-.08-.16,0-.05,0-.11-.03-.16-.02,.03-.02,.06-.02,.09-.02-.03-.04-.05-.06-.08-.04-.04-.1-.07-.17-.11-.44-.54-.85-1.14-1.49-1.45,.03-.02,.05-.06,.04-.09,.02,0,.04,.01,.06,.03-.21-.24-.77-.82-1.03-.75-.11-.1-.23-.2-.34-.31l-.52-.47c-.19-.14-.38-.27-.57-.4-.31-.21-.49-.06-.67,0-.12-.06-.23-.14-.3-.26l.11,.02c-.04-.05-.09-.09-.15-.12l.1-.03c-.66-.19-1.29-.45-1.9-.76-.11-.04-.21-.08-.32-.12-.05-.09-.07-.18,.16-.26-.22,0-.52,.04-.8,.04-.08-.03-.16-.04-.24-.06-.06-.05-.14-.07-.22-.08h-.02c-.05-.03-.1-.05-.15-.06,0,0,0-.01,0-.02h.05c-.07-.05-.14-.06-.21-.06h0s-.02,0-.03,0c.03-.01,.06-.02,.11,0-.09-.11-.28-.17-.47-.19-.09-.12-.47-.15-.65-.2,0,.02-.01,.04-.02,.06,0,0,0-.01-.02-.02-.25-.17-.73,.05-.84-.14-.01-.02,.04-.04,.09-.04-.2,.02-.62-.09-.66,0-.13,0-.25,0-.38-.01-.33-.04-.65-.01-.92-.12-.04,.03-.08,.05-.12,.06,.02-.02,.04-.05,.06-.08l-.16,.09c-.08,0-.16,0-.24-.01l.02-.03c-.07,0-.14,0-.21,.01,0,0-.02,0-.03,0,0-.02,0-.03,.02-.05-.11,.02-.15,.05-.16,.07l-.13,.02c-.11-.2-.67-.21-1-.09-.08-.03-.16-.07-.21-.13-.03,.01-.07,.02-.1,.03,0-.02,0-.04,.02-.08-.27,.02-.51,.06-.59,.16-.09,0-.18,0-.27,0h0s-.06,0-.08,0c-.04,0-.08,0-.12,0-.07,0-.14,0-.21,0-.18,0-.36,.02-.54,.03-.09-.02-.18-.03-.25-.03l.25-.11c-.15,.07-.28,.08-.41,.1l.07,.06c-.2,.02-.4,.04-.6,.08,.04,.03,.07,.06,.09,.08l-.27,.09s.06-.08,.2-.11c-.1,.04-.23,.06-.38,.06-.03-.02,.01-.05,.05-.07-.63-.06-.25,.3-.78,.46h-.05c0-.07-.04-.12-.11-.14,.07-.04,.16-.08,.14-.13-.54,.1-.27-.13-.65-.16,.12,.14-.12,.27-.44,.29l.48,.09s-.07,.04-.1,.06l-.03,.02s-.06,.03-.09,.04c0-.02-.01-.04-.01-.07-.02,.03-.04,.06-.07,.09-.16,.04-.27,.01-.39,0-.18-.04-.37-.07-.69,.18l.18-.22c-.17,.11-.52,.23-.84,.39-.08,.04-.16,.08-.24,.13-.07,.05-.14,.1-.21,.16-.08,.07-.14,.14-.19,.21-.04,.02-.08,.05-.12,.08h-.01s0,0,0,0c-.01,0-.02,.01-.03,.02-.06-.03-.1-.09,0-.17-.22,.09-.43,.21-.65,.35-.08,.05-.15,.1-.23,.15v-.06c-.47,.07-.75,.41-1.02,.68-.09,.1-.18,.18-.28,.26-.01,0-.03-.02-.05-.02-.04,.03-.06,.08-.09,.11-.02,0-.04,.02-.07,.03v-.13c-.07,.06-.1,.14-.15,.21-.09,.03-.19,.05-.3,.05,0,0,0,0,0,.02h0s-.09,.16-.18,.27c-.19,.03-.36,.04-.41,.08-.24,.1-.31,.23-.35,.37-.11,.12-.21,.23-.29,.36-.12,.19-.22,.39-.34,.58-.03-.02-.08-.03-.16-.04,0-.02,0-.03,.02-.05,.07-.07,.12-.08,.14-.06,.08-.11,.18-.26,0-.22l.02,.1c-.21,.07-.62,.45-.62,.26-.17,.27,0,.2,.2,.08-.17,.1-.3,.2-.42,.3-.2,.1-.39,.23-.52,.33l-.02-.04c-.38,.38-.63,.77-.86,1.15-.04,.07-.07,.14-.11,.21-.08-.03-.04-.2-.02-.3-.05,.12-.12,.22-.2,.3-.07,.09-.15,.17-.23,.23-.16,.13-.33,.23-.43,.34l.1-.26c-.06,.15-.14,.26-.22,.36l.23-.02c-.12,.11-.19,.21-.25,.17,0,.18,.26,.1,.26,.35-.08,.06-.17,.14-.25,.23-.05,.05-.09,.1-.14,.16,.12-.21-.33,.02-.08-.38-.04,.1-.12,.2-.23,.31-.03,0-.03-.05-.02-.09-.5,.42,.08,.39-.25,.93-.07-.14-.29,0-.32,.1,.11-.18,.21-.06,.23,.13-.2,.3-.4,.6-.58,.86,.12-.11,.22,.14,.17,.31-.05,.05-.07,.13-.09,.21-.07,.07-.14,.14-.2,.22-.17,.02-.3,.15-.4,.32-.03,0-.06,0-.1,.05-.06,.51-.37,.43-.42,.98,.11-.04,.16-.07,.18-.04l-.04,.21,.06-.13s.01,.12,.02,.21c-.03,.07-.06,.14-.09,.21l-.13-.05c-.19,.26-.24,.53-.25,.84,0,.31,0,.63-.15,1l.14-.23s.02,.03,.03,.04c-.07,.2-.16,.36-.3,.45,.01,.09,.01,.19,.01,.28-.05,.04-.11,.1-.16,.14,.06,0,.03,.15,.03,.31h-.04c-.08,.31-.13,.55-.18,.81-.02,.13-.04,.26-.06,.42l-.03,.24v.28l-.14-.18c-.02,.2,.1,.35,.22,.48,0,.04,.02,.06,.06,.07-.07,.08,.05,.35,.07,.55l-.1,.03c-.07,.76-.25,1.56,.05,2.31-.03,0-.05,0-.08,0-.03-.02-.06-.06-.07-.12-.02,.37-.04,1.46,.36,1.26-.23,.04-.02,.58,.18,.97,.01,.04,.03,.07,.05,.1,.02,.03,.03,.06,.05,.09,0,0-.02,.01-.02,.03l-.18-.02c.06,.05,.12,.1,.17,.13h0c.1,.08,.18,.14,.24,.22l-.07,.02,.04,.04c-.21,.1-.16,.28-.07,.49,0,.26-.16,.13-.18,.45,.14-.12,.27,.12,.29,.44l.02-.08c.03,.12,.11,.24,.19,.36-.03,.16-.03,.34,.19,.62l-.22-.18c.11,.17,.23,.51,.39,.84,.04,.08,.08,.16,.12,.24,.05,.07,.1,.14,.16,.2,0,0,.02,.01,.02,.02-.03,.11-.08,.19-.3,.07,.15,.14,.36,.3,.55,.49,.06,.11,.12,.21,.18,.32,.02,.07,.05,.14,.1,.19h0v.03s.04,.08,.06,.12h0l-.04-.03c.02,.09,.07,.16,.13,.21h-.02s.04,.06,.06,.09c.03,.09,.06,.17,.11,.26-.11,.12,.19,.47,.29,.66,.04-.03,.07-.03,.1-.04l.21,.24-.18-.22-.02-.02c.06,0,.1,.02,.14,.01,.03,.05,.07,.1,.1,.15,0,.04,0,.09,.02,.14h0c.04,.11,.11,.2,.21,.23-.01-.02-.02-.04-.03-.06,.02,0,.03,0,.05,0,.02,.01,.04,.03,.05,.05h0c0,.07,0,.12,.01,.17-.03,0-.06,.02-.03,.06l.03,.02s-.01,.07-.03,.09c.1,.09,.19,.19,.29,.3,.06,.15,.13,.3,.25,.36,.02,.02,.04,.05,.06,.07v.02c.12,.17,.23,.32,.34,.45,.11,.13,.23,.23,.33,.33,.1,.09,.19,.18,.28,.27h.01c.11,.12,.23,.24,.36,.38h0c.09,.23,.26,.49,.39,.64l-.04,.03c.38,.37,.75,.62,1.13,.85,.05,.05,.1,.1,.16,.16,.13,.12,.26,.24,.4,.36,.06,.08,.11,.15,.16,.2l-.26-.1c.15,.06,.26,.14,.36,.21v-.09c.15,.13,.3,.25,.47,.37-.02-.31,.05-.25,.15-.18,.04,.05,.09,.1,.13,.15-.02,.06-.07,.09-.25-.02,.1,.04,.2,.12,.31,.23,0,.03-.05,.03-.09,.02,.27,.32,.35,.2,.52,.16,.06,.04,.11,.08,.17,.12,.06,.04,.13,.08,.19,.12,0,.01,0,.03,0,.04-.08-.02-.17-.06-.19,0,.45,.31,.1,.28,.35,.57,.02-.18,.28-.11,.52,.1l-.28-.41s.07,.02,.1,.03c.04,.03,.08,.06,.12,.08,0,0,0,.02-.02,.03,.01,0,.03,0,.05,0,.09,.06,.18,.12,.27,.18,.02,.03,.04,.06,.06,.09,.1,.16,.22,.31,.62,.37l-.28,.03c.2,.05,.53,.2,.87,.32,.09,.03,.17,.06,.26,.08,.09,.02,.18,.03,.26,.03,.1,0,.2,0,.28-.02,.04,.01,.09,.02,.15,.03,0,0,0,.01,0,.02,0,0,0,0,.01-.01,.01,0,.02,0,.04,0,0,.02,0,.04,0,.06h-.1l.1,.02s-.05,.04-.11,.03c.22,.09,.46,.16,.71,.21,.25,.05,.5,.1,.75,.12,.21,.02,.41,.04,.6,.07-.02,.09-.28,.11-.28,.11,.24,.06,.3,0,.33-.1,.14,.03,.27,.06,.39,.1,0,.03,.01,.07,.04,.1,.03,0,.06,0,.1,0,.02,.02,.05,.05,.06,.08l-.04,.04c.09,0,.17-.03,.25-.04,.05,0,.1,0,.15,0,.04,0,.08,.02,.13,.05-.02,.04-.09,.1-.01,.12,.04-.01,.15-.04,.26-.05v.05c.08,.02,.17,.04,.25,.06h-.02c.16,.06,.31,.08,.46,.1,.04,0,.07,.01,.11,.02,.13,.02,.26,.04,.41,.06l.24,.03h.28l-.18,.14c.19,.02,.33-.08,.45-.2,.07,.02,.14,.05,.2,.08l-.04-.14s.05-.02,.07-.03h0s.1,.05,.19,.07c.04,.04,.08,.07,.14,.09,0-.03-.03-.05-.05-.07,.03,0,.06,0,.1,.01,.01,0,.03,0,.04,0,.24,.13,.58,.2,.8,.22v.05c.53,0,.98-.09,1.41-.21h0c.32,.02,1.11,.03,1.24-.21,.15,0,.31-.02,.46-.02l.7-.04c.23-.04,.46-.08,.68-.12,.21-.04,.31-.13,.37-.24,.32-.06,.63-.12,.91-.18-.06,0-.08-.04-.08-.1,.24-.12,.47-.23,.72-.33,.27,.18,.68-.02,1-.18l-.05-.19c.08-.04,.17-.08,.25-.11,.07,.02,.12,.05,.12,.12l-.02,.02h.02s-.01,.08-.05,.16c.09-.1,.2-.23,.31-.35h0c.05-.07,.11-.13,.17-.19,.23-.09,.45-.22,.65-.36h.01l-.03,.04c.1-.03,.17-.08,.22-.14-.01,.03-.03,.06-.08,.09,.14,.01,.31-.08,.47-.19,.15,.02,.44-.22,.6-.31-.01-.02-.02-.04-.03-.05,0,0,.02,0,.03,0,.3-.06,.48-.55,.69-.49,.03,0,0,.05-.03,.09,.02-.03,.06-.06,.09-.09h0c.28-.15,.49-.28,.7-.43,.11-.08,.22-.16,.34-.25l.19-.15,.2-.2-.02,.23c.14-.11,.17-.27,.18-.43l.08-.04s-.05,0-.08,.01c0-.08,0-.16,0-.24,.02-.02,.04-.04,.07-.06v.03c.06-.05,.11-.1,.15-.15,.05-.04,.08-.09,.1-.13l.02-.02,.11,.05c.35-.29,.73-.56,1.06-.89,0,0,0,.02,0,.03,.08-.09,.15-.19,.21-.27,.12-.15,.22-.31,.3-.48,.02-.02,.04-.04,.07-.06,.02,.04,.04,.11-.01,.19,.27-.24,1.02-.96,.66-1.14h0s.08,0,.12-.04c.03,0,.05-.01,.08,0l.36-.7,.1-.24,.07,.09c0-.08-.01-.14-.02-.2l.15-.34,.19-.41c0,.08-.08,.23-.01,.25,.08-.11,.13-.18,.18-.21,0,.05,.03,.08,.08,.11,.02-.05,.04-.1,.06-.14,.06,0,.13,.01,.26-.1-.18-.02-.11-.28,.1-.51l-.2,.13c.03-.12,.06-.24,.08-.36,.04-.03,.07-.05,.11-.08,.16-.1,.31-.21,.36-.61l.03,.28c.04-.2,.2-.53,.32-.87,.03-.09,.06-.17,.08-.26,.02-.09,.03-.17,.03-.26,0-.01,0-.02,0-.03,.1-.05,.19-.08,.26,.16,0-.18-.03-.43-.04-.68,.07-.11,.12-.27,.13-.37l-.07,.07c.02-.06,.04-.12,.05-.19,.02-.06,.04-.13,.06-.19l.15,.13c.22-.3,.24-.63,.24-.94,.06-.15,.09-.38,.12-.52-.06,0-.1-.04-.12-.07,.02-.26,.1-.49,.3-.7-.1-.2-.16,.15-.25,.23-.01-.07-.03-.14-.04-.21,.03-.07,.07-.13,.11-.19,.03,.02,.05,.03,.06-.02v-.04s.04-.04,.07-.05c0-.03,0-.06,0-.09,.11-.14,.21-.25,.22-.32,.13-.34,0-.47-.09-.67,.02-.16,.04-.31,.05-.44,0-.07,0-.14,0-.21,.02,0,.05,0,.08-.06l-.08-.06v-.02c.1-.21,.12-.74,.25-.61-.07-.31-.14-.14-.2,.09,.14-.49,.08-.78,.11-1.26h.04c0-.52-.09-.97-.21-1.41v-.03c.07-.16,.2,.03,.27,.14Zm-14.54-16.99c.09,0,.14,.03,.16,.05-.07,0-.15-.01-.21,0,.01-.02,.03-.03,.05-.04Zm-9.48,.07s.01,.05,0,.08c-.04-.03-.04-.05,0-.08Zm-5.9,2.66s-.08,.05-.15,.07v-.02s.09-.03,.15-.05Zm-5.23,26.29v-.03s-.02-.04-.01-.05c0,.03,.02,.05,.03,.08h-.02Zm-.17-20.95l-.02,.03h0l.03-.03Zm-1.54,3.54c-.05,.04-.1,.09-.14,.14,.01-.07,.02-.14,.03-.2l.11,.07Zm-.28-.16l.03,.02,.04,.36c-.08,.1-.15,.2-.2,.32l.13-.7Zm-.35,11.65h0s-.08-.03-.1-.1l.1,.1Zm-.08,1.03l-.02-.03,.03-.17c0,.06,0,.13-.02,.19Zm1.75,4.22c-.1-.11-.09-.17-.06-.21,.04,.06,.09,.12,.15,.2,0,0,.02,0,.03,0-.04,0-.08,.01-.12,0Zm.75,.84s-.01-.03-.02-.04h.02s0,.03,0,.04Zm6.01,5.84h.02s0,0-.02,0Zm19.54,.09c-.07,.06-.11,.08-.15,.08,.06-.05,.11-.1,.16-.14,0,.02,0,.04,0,.06Zm6.81-7.33c.05-.21,.12-.33,.2-.42,0,.11-.05,.24-.12,.37l-.08,.05Z"/><polygon class="cls-3" points="97.78 34.02 97.81 33.63 97.78 33.92 97.78 34.02"/><path class="cls-3" d="M68.19,45.69h0c-.08-.04-.04-.02,0,0Z"/><path class="cls-3" d="M78.32,10.48h.49c-.14,0-.31,0-.49,0Z"/><path class="cls-3" d="M80.24,10.53c.08,.08,.17,.13,.26,.16,.02-.02,.05-.03,.06-.05l-.32-.11Z"/><polygon class="cls-3" points="78.26 10.48 78.26 10.49 78.32 10.48 78.26 10.48"/><path class="cls-3" d="M66.42,15.43c.05-.06,.06-.1,.05-.12-.04,.06-.08,.11-.05,.12Z"/><path class="cls-3" d="M62.65,18.9h.01c.03-.09,0-.05-.01,0Z"/><path class="cls-3" d="M60,25.96s-.05,.01-.1,.06c.04,0,.07-.03,.1-.06Z"/><polygon class="cls-3" points="68.61 13.3 68.31 13.56 68.54 13.38 68.61 13.3"/></g></g><g><g><path class="cls-1" d="M39.37,5.43h.02c.1-.05,.04-.03-.02,0Z"/><path class="cls-1" d="M62.16,46.61l-.45,.43c.14-.11,.3-.27,.45-.43Z"/><polygon class="cls-1" points="20.45 35.21 20.52 35.19 20.43 35.11 20.45 35.21"/><polygon class="cls-1" points="62.21 46.56 62.21 46.56 62.16 46.61 62.21 46.56"/><path class="cls-1" d="M68.75,24.74v.02c.05,.11,.03,.04,0-.02Z"/><path class="cls-1" d="M64.74,15.9s.04-.06,.04-.15c-.03,.04-.03,.09-.04,.15Z"/><path class="cls-1" d="M68.98,27.62c-.06-.16-.09-.31-.1-.45-.02-.15-.01-.29,0-.42,.03-.27,.09-.51,.09-.7l.14,.32c-.09-.19-.11-.36-.13-.53l-.2,.23c0-.2-.01-.37,.08-.38-.18-.18-.35,.21-.62-.15,.03-.14-.02-.33-.06-.5v-.03c0-.07,0-.15-.01-.22,.01-.06,.04-.12,.1-.15,.05,.83,.29-.15,.45,.53-.06-.13-.08-.29-.07-.5,.03-.04,.07,.01,.09,.07,.08-.84-.42-.29-.62-1.08,.19,.06,.27-.27,.2-.39,.08,.32-.24,.22-.44-.03,0-.25-.05-.38-.11-.48-.06-.3-.11-.59-.16-.85,0,.19-.28,.09-.41-.08-.01-.25,.02-.55-.1-.81,.05-.11,.06-.23,.04-.36,.07-.03,.15-.05,.15-.19-.42-.52-.06-.73-.51-1.27-.09,.19-.09,.24-.21,.16l-.22-.3,.07,.19s-.07-.06-.11-.09l.46,.67-.1,.03-.34-.28c.05,.11,.12,.21,.2,.31l-.07,.02-.12-.15c0-.27-.07-.55-.17-.82l.23-.11c-.06-.41-.27-.7-.53-.99-.27-.28-.57-.58-.77-1.05l.09,.33c-.07,0-.13-.04-.18-.1-.13-.25-.2-.48-.15-.7-.05-.04-.1-.08-.15-.13,.02-.09,.01-.2,.02-.3-.07,.06-.22-.19-.42-.36l.03-.02c-.22-.35-.38-.62-.57-.9-.1-.14-.2-.28-.32-.43l-.2-.24-.25-.25,.29,.03c-.16-.19-.37-.22-.6-.23-.04-.08-.08-.17-.11-.25l-.08,.15s-.07-.05-.11-.07c-.02-.06-.05-.12-.1-.2,0-.07,0-.14-.04-.2-.02,.03-.03,.07-.02,.11-.03-.03-.05-.07-.08-.1-.06-.05-.13-.1-.21-.14-.56-.69-1.09-1.46-1.92-1.86,.04-.03,.06-.07,.06-.12,.02,0,.05,.02,.07,.04-.27-.3-.99-1.06-1.33-.96-.15-.13-.29-.26-.44-.4-.22-.2-.45-.4-.67-.6-.24-.18-.48-.35-.73-.51-.4-.27-.62-.08-.87,0-.16-.08-.3-.18-.39-.33l.14,.03c-.05-.06-.12-.11-.19-.15l.13-.04c-.85-.25-1.66-.58-2.45-.97-.14-.05-.28-.1-.41-.15-.07-.12-.1-.24,.21-.33-.28,.01-.66,.06-1.03,.05-.1-.03-.21-.05-.31-.08-.08-.06-.18-.09-.29-.1h-.02c-.06-.03-.13-.06-.2-.08,0,0,0-.01,0-.02h.06c-.09-.06-.18-.08-.27-.08h0s-.03,0-.04,0c.04-.01,.08-.02,.14,0-.11-.14-.36-.22-.6-.25-.12-.15-.6-.2-.83-.26,0,.03-.01,.05-.02,.07,0,0-.01-.02-.02-.03-.32-.21-.93,.07-1.08-.18-.02-.03,.05-.05,.11-.06-.26,.02-.79-.12-.84,.01-.16,0-.33-.01-.49-.02-.43-.05-.83-.02-1.18-.16-.05,.04-.1,.06-.16,.08,.03-.03,.06-.06,.08-.1l-.2,.12c-.1,0-.2,0-.31-.02l.02-.04c-.09,0-.18,0-.26,.02-.01,0-.02,0-.03,0,0-.02,0-.04,.02-.07-.14,.03-.2,.06-.21,.09-.05,0-.11,.02-.16,.02-.14-.26-.86-.27-1.28-.12-.11-.04-.2-.09-.27-.16-.04,.01-.09,.02-.13,.03-.01-.03,0-.06,.02-.1-.34,.02-.66,.08-.76,.2-.12,0-.23,.01-.35,.01h0s-.07,0-.11,0c-.05,0-.11,0-.16,0-.09,0-.18,0-.27,0-.23,.01-.46,.02-.69,.04-.12-.02-.23-.04-.33-.03l.32-.14c-.19,.08-.36,.11-.52,.13l.08,.07c-.25,.02-.51,.05-.77,.1,.05,.04,.08,.08,.11,.11l-.35,.11s.07-.1,.25-.14c-.13,.06-.29,.08-.49,.07-.04-.03,.01-.07,.06-.09-.8-.08-.32,.39-1,.59h-.07c0-.09-.06-.15-.14-.18,.09-.05,.21-.11,.18-.17-.69,.13-.35-.17-.84-.2,.15,.18-.15,.35-.56,.38l.62,.12s-.09,.05-.13,.07l-.04,.02s-.08,.04-.12,.05c-.01-.02-.02-.05-.02-.09-.02,.04-.05,.08-.08,.12-.2,.05-.35,.02-.5,0-.24-.05-.48-.09-.89,.23l.23-.28c-.22,.14-.66,.3-1.08,.5-.11,.05-.21,.1-.31,.16-.09,.07-.18,.13-.27,.21-.1,.09-.18,.18-.24,.27-.05,.03-.1,.06-.16,.11,0,0,0-.01-.01-.02,0,0,0,.02,0,.02-.01,.01-.02,.02-.04,.03-.08-.04-.13-.12,0-.21-.28,.11-.56,.27-.83,.45-.1,.06-.19,.13-.29,.2v-.07c-.6,.09-.97,.52-1.31,.88-.12,.13-.23,.23-.36,.33-.02,0-.03-.02-.06-.03-.05,.04-.08,.1-.12,.15-.03,0-.06,.02-.09,.03v-.17c-.08,.08-.13,.18-.19,.27-.12,.04-.25,.06-.39,.06,0,0,0,.01,0,.02h0c-.03,.06-.12,.2-.23,.34-.25,.03-.46,.05-.53,.1-.31,.13-.39,.3-.45,.48-.14,.15-.27,.3-.38,.46-.15,.25-.28,.5-.44,.74-.04-.02-.1-.04-.21-.06,0-.02,0-.04,.02-.06,.09-.09,.16-.1,.18-.07,.1-.14,.23-.33,0-.29l.02,.13c-.27,.09-.8,.58-.8,.33-.22,.35,0,.25,.26,.1-.22,.13-.39,.25-.54,.38-.25,.12-.5,.29-.66,.43l-.03-.05c-.48,.49-.82,.99-1.11,1.48-.05,.09-.1,.18-.14,.27-.1-.04-.05-.25-.02-.38-.06,.15-.15,.28-.25,.39-.09,.12-.19,.21-.3,.3-.21,.17-.43,.3-.56,.43l.13-.33c-.08,.2-.18,.33-.28,.47l.3-.02c-.15,.14-.25,.27-.32,.21,0,.23,.33,.13,.34,.45-.11,.08-.22,.18-.33,.29-.06,.06-.12,.13-.18,.21,.15-.28-.42,.02-.11-.49-.05,.13-.15,.26-.3,.4-.04,0-.04-.06-.02-.11-.65,.54,.1,.5-.32,1.2-.09-.18-.38,0-.41,.13,.14-.24,.27-.08,.29,.17-.26,.39-.51,.77-.74,1.1,.15-.14,.28,.18,.22,.4-.06,.07-.09,.17-.12,.28-.09,.09-.18,.18-.26,.29-.22,.03-.39,.19-.51,.42-.04,0-.08,0-.13,.06-.07,.66-.48,.56-.54,1.25,.14-.05,.2-.09,.23-.05l-.05,.27,.07-.16c0,.06,.02,.15,.03,.27-.04,.09-.08,.17-.12,.27l-.17-.06c-.24,.33-.31,.69-.32,1.07,0,.39,0,.81-.19,1.29l.17-.29s.02,.04,.03,.06c-.08,.26-.2,.46-.39,.58,.01,.12,.01,.24,.01,.36-.07,.05-.14,.13-.21,.18,.07,0,.04,.19,.04,.4h-.05c-.1,.4-.17,.7-.23,1.04-.03,.17-.06,.34-.08,.54l-.04,.31v.36l-.18-.23c-.02,.26,.12,.45,.29,.62,.01,.05,.03,.08,.08,.09-.09,.11,.06,.45,.08,.71l-.13,.04c-.09,.98-.32,2.01,.06,2.97-.04,0-.07,0-.1,.01-.04-.03-.08-.07-.09-.15-.03,.48-.05,1.88,.47,1.62-.3,.05-.02,.74,.23,1.25,.01,.05,.03,.09,.06,.13,.02,.04,.04,.08,.06,.12,0,.01-.02,.02-.03,.03l-.24-.02c.08,.07,.15,.12,.21,.17h0c.13,.11,.23,.18,.31,.28l-.1,.03,.05,.05c-.27,.13-.21,.36-.09,.63,0,.33-.2,.17-.23,.58,.18-.15,.35,.15,.37,.56l.02-.1c.04,.15,.14,.3,.25,.47-.03,.21-.03,.44,.24,.79l-.28-.23c.14,.22,.3,.66,.5,1.08,.05,.1,.1,.21,.16,.31,.07,.09,.13,.18,.2,.26,.01,.01,.02,.02,.03,.03-.04,.14-.1,.24-.39,.09,.19,.17,.46,.39,.7,.63,.07,.14,.15,.28,.23,.41,.02,.09,.07,.18,.13,.25h.01v.04c.03,.06,.05,.11,.08,.16h0l-.05-.03c.03,.12,.09,.2,.17,.27h-.03s.05,.08,.08,.11c.04,.12,.07,.21,.14,.33-.15,.16,.24,.61,.38,.85,.05-.04,.09-.04,.13-.05l.27,.31-.23-.29-.02-.02c.07,0,.13,.03,.18,.02,.04,.07,.08,.13,.13,.2,0,.06,0,.12,.03,.17h-.01l.02,.02c.05,.13,.14,.24,.27,.28-.01-.02-.02-.05-.04-.07,.03,0,.04,0,.06,0,.02,.02,.05,.04,.07,.06h0s-.02,0-.02,0l.02,.02c0,.07,.01,.14,.01,.2-.04,0-.07,.02-.04,.08l.04,.02s-.01,.08-.03,.11c.12,.12,.25,.25,.38,.38,.07,.19,.16,.38,.32,.46,.03,.03,.05,.06,.08,.09l-.02,.02c.17,.22,.32,.41,.45,.58,.15,.16,.29,.29,.43,.43,.12,.12,.24,.23,.36,.35h0l.03,.02c.15,.14,.3,.29,.46,.46h0c.12,.3,.33,.62,.5,.82l-.05,.03c.48,.48,.97,.8,1.46,1.09,.07,.07,.13,.13,.2,.2,.17,.15,.34,.31,.52,.47,.07,.1,.14,.19,.21,.25l-.33-.13c.2,.08,.33,.18,.46,.28v-.11c.19,.16,.39,.32,.61,.47-.03-.39,.06-.32,.19-.23,.05,.06,.11,.13,.17,.19-.03,.07-.09,.12-.32-.02,.13,.05,.26,.15,.4,.3,0,.04-.06,.04-.11,.02,.34,.41,.45,.26,.67,.2,.07,.05,.15,.1,.22,.15,.08,.05,.16,.1,.24,.16,0,.02,0,.04,.01,.05-.1-.03-.22-.07-.24,0,.58,.39,.12,.36,.45,.74,.02-.23,.36-.14,.66,.13l-.35-.52s.08,.02,.12,.03c.05,.04,.11,.07,.16,.11,0,.01-.01,.02-.02,.04,.02,0,.04,0,.06,0,.12,.08,.24,.16,.35,.24,.03,.04,.06,.08,.08,.11,.13,.2,.28,.4,.79,.47l-.36,.04c.25,.06,.68,.26,1.12,.41,.11,.04,.22,.07,.33,.1,.11,.02,.23,.04,.33,.04,.13,0,.25,0,.37-.02,.05,.02,.12,.03,.19,.04,0,0,0,.01,0,.02,0,0,.01-.01,.01-.02,.02,0,.03,0,.05,0,0,.03,0,.06,0,.08h-.13l.12,.03s-.06,.06-.15,.04c.28,.12,.59,.2,.91,.27,.32,.07,.64,.13,.96,.15,.27,.02,.53,.05,.77,.09-.03,.11-.36,.14-.36,.14,.31,.08,.39,0,.43-.13,.18,.03,.35,.07,.51,.13,0,.04,.02,.08,.05,.13,.04,0,.08,0,.12-.01,.03,.03,.06,.06,.08,.1l-.05,.05c.11,0,.22-.03,.32-.05,.06,0,.13,0,.19,0,.05,.01,.11,.03,.16,.07-.03,.06-.12,.13-.01,.15,.06-.01,.19-.05,.34-.07l-.02,.06c.12,.03,.23,.06,.34,.08h-.02c.21,.08,.4,.11,.59,.12,.05,0,.09,.02,.14,.03,.17,.03,.34,.06,.53,.08l.31,.03h.36l-.23,.18c.24,.02,.42-.11,.58-.26,.09,.03,.18,.06,.26,.1l-.05-.17s.06-.03,.08-.04h0c.05,.04,.13,.06,.25,.09,.05,.05,.1,.09,.18,.11,0-.04-.03-.07-.06-.09,.04,0,.08,.01,.13,.01,.02,0,.04,0,.05-.01,.3,.16,.75,.26,1.03,.28l-.02,.06c.69,0,1.28-.12,1.83-.26h0c.42,.02,1.43,.04,1.59-.27,.2-.01,.39-.02,.59-.03l.9-.05c.29-.05,.59-.1,.88-.15,.27-.05,.39-.17,.47-.31,.41-.08,.81-.16,1.17-.23-.08,0-.11-.06-.1-.12,.3-.15,.61-.3,.92-.43,.34,.23,.87-.02,1.29-.23l-.06-.24c.11-.05,.21-.1,.32-.15,.09,.03,.15,.07,.15,.16l-.02,.02,.02-.02c0,.05-.01,.12-.07,.22,.12-.13,.25-.29,.4-.46h0c.07-.09,.14-.16,.22-.24,.29-.12,.58-.28,.84-.46,0,0,.01,0,.02,0l-.04,.05c.12-.03,.21-.1,.29-.18-.01,.04-.04,.08-.11,.11,.18,.02,.4-.1,.6-.25,.19,.02,.56-.28,.78-.4-.02-.02-.03-.05-.03-.07,.01,0,.02,0,.03,0,.38-.08,.61-.71,.89-.63,.03,0,0,.07-.04,.12,.03-.04,.07-.08,.12-.12v.02c.37-.22,.64-.38,.92-.58,.14-.1,.28-.2,.44-.32l.25-.2,.26-.26-.03,.29c.17-.15,.22-.34,.23-.55l.1-.05s-.07,0-.1,.01c0-.1,0-.21,0-.31,.03-.02,.05-.05,.08-.08l.02,.04c.06-.06,.12-.13,.18-.2,.06-.05,.11-.11,.13-.17l.02-.03,.14,.07c.45-.37,.94-.73,1.36-1.15,0,.01,0,.02,.01,.04,.11-.12,.2-.24,.27-.35,.15-.19,.28-.39,.39-.62,.03-.02,.06-.05,.08-.07,.03,.06,.06,.14-.02,.24,.35-.31,1.31-1.24,.85-1.46h.01c.05,0,.1,0,.16-.05,.04,0,.07-.01,.11-.01l.46-.89,.13-.31,.09,.11c0-.1-.02-.18-.03-.26l.19-.44,.24-.52c0,.1-.1,.3-.02,.32,.1-.15,.17-.23,.23-.27,0,.06,.03,.11,.1,.14,.03-.06,.05-.12,.07-.19,.08,0,.17,.02,.33-.13-.23-.02-.14-.36,.13-.66l-.25,.17c.04-.16,.07-.31,.1-.46,.05-.04,.09-.07,.14-.1,.2-.13,.4-.27,.47-.79l.04,.36c.06-.25,.25-.68,.41-1.12,.04-.11,.07-.22,.1-.33,.02-.11,.04-.22,.04-.33,0-.02,0-.03,0-.04,.12-.07,.24-.1,.34,.21,0-.24-.04-.55-.05-.87,.09-.14,.16-.34,.17-.47l-.09,.09c.02-.08,.05-.16,.07-.24,.03-.08,.05-.16,.08-.25l.19,.17c.28-.38,.31-.81,.31-1.21,.07-.2,.11-.49,.16-.66-.08-.01-.12-.05-.15-.09,.03-.33,.13-.63,.39-.9-.13-.25-.21,.19-.33,.3-.02-.09-.04-.18-.05-.27,.04-.08,.09-.17,.14-.24,.04,.02,.07,.03,.08-.03v-.05s.06-.05,.09-.06c0-.04,0-.08,0-.12,.14-.18,.26-.33,.28-.41,.17-.43,0-.61-.11-.86,.03-.21,.05-.4,.07-.57,0-.09,0-.18,0-.27,.03,0,.06,0,.1-.07l-.1-.07v-.02c.12-.26,.15-.95,.33-.78-.09-.4-.18-.18-.25,.11,.17-.62,.11-1,.14-1.62h.06c0-.67-.12-1.25-.26-1.81,0-.01,0-.03-.01-.04,.1-.21,.27,.04,.35,.18ZM50.29,5.78c.12,0,.18,.03,.21,.07-.09,0-.19-.01-.27-.01,.02-.02,.04-.04,.06-.06Zm-12.19,.09s.02,.06,0,.1c-.06-.03-.05-.07,0-.1Zm-7.58,3.42s-.11,.07-.19,.08v-.02c.05-.01,.12-.04,.19-.06Zm-6.72,33.78v-.04s-.02-.05-.02-.07c.01,.03,.03,.07,.04,.1h-.02Zm-.22-26.92l-.03,.04h0s.02-.03,.03-.04Zm-1.98,4.54c-.07,.05-.13,.11-.18,.18,.02-.09,.03-.18,.04-.26l.15,.09Zm-.36-.21l.04,.02,.05,.46c-.1,.12-.19,.26-.26,.4l.17-.89Zm-.45,14.98h0c-.06,.04-.1-.04-.13-.12l.13,.12Zm-.1,1.33l-.02-.03,.04-.22c0,.08,0,.17-.02,.25Zm2.25,5.42c-.13-.14-.12-.22-.08-.27,.05,.07,.11,.16,.2,.26,.01,0,.03,0,.04,0-.05,.01-.11,.02-.16,0Zm.96,1.08s-.02-.04-.03-.05h.02s0,.04,0,.05Zm7.72,7.5s0,0,0-.01h.01s-.01,.01-.02,.01Zm25.11,.11c-.09,.08-.15,.1-.2,.1,.07-.06,.14-.12,.2-.18,0,.03,0,.06,0,.08Zm8.75-9.42c.06-.27,.16-.43,.26-.54,0,.14-.06,.31-.16,.47l-.1,.07Z"/><polygon class="cls-1" points="68.42 35.23 68.46 34.73 68.42 35.1 68.42 35.23"/><path class="cls-1" d="M30.4,50.22v-.02c-.12-.04-.07,0,0,.02Z"/><path class="cls-1" d="M43.41,4.99h.62c-.17,0-.4-.01-.62,0Z"/><path class="cls-1" d="M45.89,5.04c.1,.1,.22,.16,.34,.2,.03-.02,.06-.04,.08-.07l-.41-.14Z"/><polygon class="cls-1" points="43.34 4.98 43.34 4.99 43.41 4.99 43.34 4.98"/><path class="cls-1" d="M28.13,11.35c.07-.07,.08-.13,.07-.15-.06,.08-.1,.15-.07,.15Z"/><path class="cls-1" d="M23.28,15.79h.02c.04-.12,0-.07-.02,0Z"/><path class="cls-1" d="M19.88,24.88s-.06,.01-.13,.08c.05-.01,.09-.04,.13-.08Z"/><polygon class="cls-1" points="30.94 8.6 30.56 8.94 30.85 8.7 30.94 8.6"/></g><g><path class="cls-1" d="M75.92,14h.01c.07-.03,.03-.02-.01,0Z"/><path class="cls-1" d="M90.69,40.68l-.29,.28c.09-.07,.19-.17,.29-.28Z"/><polygon class="cls-1" points="63.66 33.3 63.7 33.29 63.65 33.23 63.66 33.3"/><polygon class="cls-1" points="90.72 40.65 90.72 40.65 90.69 40.68 90.72 40.65"/><path class="cls-1" d="M94.96,26.51h0c.03,.08,.02,.04,0,0Z"/><path class="cls-1" d="M92.36,20.79s.02-.04,.02-.1c-.02,.03-.02,.06-.02,.1Z"/><path class="cls-1" d="M95.11,28.38c-.04-.1-.06-.2-.06-.29-.01-.09,0-.19,0-.27,.02-.17,.06-.33,.06-.45l.09,.21c-.06-.13-.07-.23-.09-.34l-.13,.15c0-.13,0-.24,.05-.25-.12-.11-.23,.14-.4-.1,.02-.09-.01-.21-.04-.33v-.02s0-.09,0-.14c0-.04,.03-.08,.06-.1,.03,.54,.19-.1,.29,.34-.04-.08-.05-.19-.05-.32,.02-.02,.05,0,.06,.04,.05-.54-.28-.18-.4-.7,.12,.04,.17-.17,.13-.25,.05,.21-.15,.15-.28-.02,0-.16-.03-.25-.07-.31-.04-.19-.07-.38-.1-.55,0,.12-.18,.06-.27-.05,0-.16,.02-.36-.06-.52,.03-.07,.04-.15,.03-.23,.05-.02,.1-.03,.1-.12-.27-.33-.04-.47-.33-.82-.06,.12-.06,.16-.13,.1l-.14-.2,.04,.12-.07-.06,.3,.44-.07,.02-.22-.18c.03,.07,.08,.14,.13,.2h-.05l-.08-.09c0-.18-.04-.36-.11-.53l.15-.07c-.04-.27-.17-.46-.34-.64-.18-.18-.37-.37-.5-.68l.06,.21s-.08-.02-.12-.06c-.08-.16-.13-.31-.09-.46-.03-.03-.06-.05-.1-.08,.01-.06,0-.13,.01-.19-.04,.04-.14-.13-.27-.23h.02c-.14-.24-.25-.41-.37-.59-.06-.09-.13-.18-.21-.28l-.13-.16-.17-.16,.19,.02c-.1-.12-.24-.14-.39-.15-.03-.05-.05-.11-.07-.16l-.05,.1s-.04-.03-.07-.05c-.01-.04-.03-.08-.07-.13,0-.04,0-.09-.03-.13-.01,.02-.02,.05-.01,.07-.02-.02-.03-.04-.05-.07-.04-.03-.09-.06-.14-.09-.36-.45-.71-.95-1.24-1.2,.03-.02,.04-.05,.04-.08,.02,0,.03,.01,.05,.02-.17-.2-.64-.69-.86-.62-.1-.09-.19-.17-.28-.26l-.43-.39c-.16-.11-.31-.22-.47-.33-.26-.17-.4-.05-.56,0-.1-.05-.2-.12-.25-.21l.09,.02s-.08-.07-.12-.1l.09-.03c-.55-.16-1.08-.38-1.59-.63-.09-.03-.18-.07-.27-.1-.04-.08-.06-.15,.14-.22-.18,0-.43,.04-.67,.03-.07-.02-.14-.03-.2-.05-.05-.04-.12-.06-.19-.06h-.01s-.08-.04-.13-.05c0,0,0,0,0-.02h.04c-.06-.04-.12-.05-.18-.05h-.03s.05-.02,.09,0c-.07-.09-.23-.14-.39-.16-.08-.1-.39-.13-.54-.17,0,.02,0,.03-.02,.05,0,0,0-.01-.01-.02-.21-.14-.6,.04-.7-.12-.01-.02,.03-.03,.07-.04-.17,.01-.51-.08-.55,0-.11,0-.21,0-.32-.01-.28-.03-.54-.01-.76-.1-.03,.02-.07,.04-.1,.05,.02-.02,.04-.04,.05-.07l-.13,.08c-.06,0-.13,0-.2-.01v-.03s-.1,0-.16,0c0,0-.01,0-.02,0,0-.01,0-.03,.01-.04-.09,.02-.13,.04-.14,.06l-.1,.02c-.09-.17-.56-.17-.83-.08-.07-.02-.13-.06-.17-.11-.03,0-.06,.01-.09,.02,0-.02,0-.04,.01-.06-.22,.01-.43,.05-.49,.13-.07,0-.15,0-.23,0h0s-.05,0-.07,0c-.03,0-.07,0-.1,0-.06,0-.12,0-.17,0-.15,0-.3,.01-.45,.02-.08-.01-.15-.02-.21-.02l.21-.09c-.13,.05-.23,.07-.34,.09l.05,.05c-.16,.01-.33,.03-.5,.06,.03,.03,.05,.05,.07,.07l-.23,.07s.05-.06,.16-.09c-.08,.04-.19,.05-.32,.05-.02-.02,0-.05,.04-.06-.52-.05-.21,.25-.65,.39h-.04c0-.06-.04-.1-.09-.12,.06-.03,.13-.07,.11-.11-.45,.08-.22-.11-.54-.13,.1,.12-.1,.23-.37,.24l.4,.08s-.06,.03-.08,.05h-.03s-.05,.04-.08,.05c0-.02-.01-.03-.01-.06-.01,.03-.03,.05-.05,.08-.13,.03-.23,.01-.33,0-.15-.03-.31-.06-.58,.15l.15-.18c-.14,.09-.43,.19-.7,.33-.07,.03-.14,.07-.2,.1-.06,.04-.12,.09-.17,.13-.06,.06-.12,.12-.16,.18-.03,.02-.07,.04-.1,.07h0s0,0,0,0c0,0-.02,.01-.02,.02-.05-.03-.08-.08,0-.14-.18,.07-.36,.18-.54,.29-.06,.04-.13,.08-.19,.13v-.05c-.39,.06-.63,.34-.85,.57-.07,.08-.15,.15-.23,.21-.01,0-.02-.01-.04-.02-.03,.03-.05,.06-.08,.09-.02,0-.04,.02-.06,.02v-.11c-.05,.05-.08,.12-.13,.18-.08,.02-.16,.04-.25,.04,0,0,0,0,0,.01h0s-.08,.13-.15,.22c-.16,.02-.3,.03-.35,.06-.2,.09-.26,.2-.29,.31-.09,.1-.17,.2-.25,.3-.1,.16-.18,.32-.28,.48-.02-.01-.07-.03-.14-.04,0-.01,0-.03,.01-.04,.06-.06,.1-.07,.11-.05,.06-.09,.15-.21,0-.19l.02,.09c-.17,.06-.52,.38-.52,.21-.14,.23,0,.16,.17,.06-.14,.08-.25,.16-.35,.25-.16,.08-.33,.19-.43,.28l-.02-.04c-.31,.32-.53,.64-.72,.96-.03,.06-.06,.11-.09,.17-.06-.03-.04-.16-.02-.25-.04,.1-.1,.18-.16,.25-.06,.08-.13,.14-.19,.19-.14,.11-.28,.19-.36,.28l.08-.21c-.05,.13-.11,.21-.18,.3h.19c-.1,.08-.16,.16-.21,.12,0,.15,.22,.08,.22,.29-.07,.05-.14,.12-.21,.19-.04,.04-.08,.09-.11,.13,.1-.18-.27,.01-.07-.32-.03,.08-.1,.17-.19,.26-.03,0-.03-.04-.01-.07-.42,.35,.06,.33-.21,.78-.06-.12-.24,0-.27,.09,.09-.15,.17-.05,.19,.11-.17,.25-.33,.5-.48,.71,.1-.09,.18,.12,.14,.26-.04,.04-.06,.11-.08,.18-.06,.06-.12,.12-.17,.18-.15,.02-.25,.13-.33,.27-.03,0-.05,0-.08,.04-.05,.43-.31,.36-.35,.81,.09-.03,.13-.06,.15-.03l-.03,.18,.05-.11s.01,.1,.02,.18c-.03,.06-.05,.11-.08,.17l-.11-.04c-.16,.22-.2,.44-.21,.7,0,.25,0,.53-.13,.83l.11-.19s.02,.02,.02,.04c-.05,.17-.13,.3-.25,.38,0,.07,0,.15,0,.23-.05,.03-.09,.08-.14,.12,.05,0,.03,.13,.02,.26h-.03c-.06,.26-.11,.45-.15,.67-.02,.11-.04,.22-.05,.35l-.02,.2v.23l-.12-.15c-.01,.17,.08,.29,.19,.4,0,.03,.02,.05,.05,.06-.06,.07,.04,.29,.05,.46l-.08,.03c-.06,.64-.21,1.3,.04,1.92-.02,0-.05,0-.06,0-.03-.02-.05-.05-.06-.1-.02,.31-.03,1.22,.3,1.05-.19,.03-.01,.48,.15,.81,0,.03,.02,.06,.04,.08l.04,.07s-.01,.01-.02,.02h-.15c.05,.03,.1,.06,.14,.1h0c.09,.07,.15,.12,.2,.18l-.06,.02,.03,.03c-.18,.08-.13,.23-.06,.41,0,.22-.13,.11-.15,.38,.12-.1,.23,.1,.24,.36v-.06c.04,.1,.1,.2,.17,.3-.02,.14-.02,.28,.16,.51l-.18-.15c.09,.14,.19,.43,.32,.7,.03,.07,.07,.13,.1,.2,.04,.06,.09,.12,.13,.17,0,0,.01,.01,.02,.02-.03,.09-.06,.16-.25,.06,.12,.11,.3,.25,.46,.41,.05,.09,.1,.18,.15,.27,.01,.06,.04,.11,.08,.16h0v.02s.04,.07,.05,.1h0l-.03-.02c.02,.08,.06,.13,.11,.18h-.02s.03,.05,.05,.07c.02,.08,.05,.14,.09,.21-.09,.1,.15,.39,.24,.55,.03-.02,.06-.03,.09-.03l.17,.2-.15-.19h-.01s.09,0,.11,0c.03,.04,.06,.09,.08,.13,0,.04,0,.07,.02,.11h0c.03,.09,.09,.17,.17,.19,0-.01-.02-.03-.02-.05,.02,0,.03,0,.04,0,.01,.01,.03,.02,.04,.04h0c0,.06,0,.1,0,.14-.03,0-.05,.02-.03,.05l.03,.02s0,.05-.02,.07c.08,.08,.16,.16,.24,.25,.05,.12,.11,.25,.21,.3,.02,.02,.03,.04,.05,.06v.02c.1,.14,.19,.27,.28,.38,.09,.11,.19,.19,.28,.28,.08,.08,.16,.15,.24,.22h.01c.09,.1,.19,.2,.3,.31h0c.08,.19,.22,.4,.32,.53l-.03,.02c.31,.31,.63,.52,.94,.71,.04,.04,.09,.09,.13,.13,.11,.1,.22,.2,.33,.3,.05,.06,.09,.12,.14,.16l-.21-.08c.13,.05,.21,.11,.3,.18v-.07c.12,.11,.25,.21,.39,.31-.02-.25,.04-.21,.12-.15,.03,.04,.07,.08,.11,.12-.02,.05-.06,.08-.21-.02,.08,.03,.17,.1,.26,.19,0,.03-.04,.03-.07,.01,.22,.27,.29,.17,.43,.13,.05,.03,.09,.06,.14,.1,.05,.03,.11,.07,.16,.1,0,.01,0,.02,0,.03-.07-.02-.14-.05-.16,0,.37,.26,.08,.24,.29,.48,.01-.15,.23-.09,.43,.09l-.23-.34s.05,.01,.08,.02l.1,.07s0,.02-.01,.02c.01,0,.03,0,.04,0,.08,.05,.15,.1,.23,.15,.02,.02,.04,.05,.05,.07,.09,.13,.18,.26,.51,.3l-.24,.02c.17,.04,.44,.17,.73,.27,.07,.02,.14,.05,.21,.07,.07,.01,.15,.02,.22,.03,.09,0,.16,0,.24-.01,.03,.01,.08,.02,.12,.02,0,0,0,0,0,.01,0,0,0,0,0-.01,.01,0,.02,0,.03,0,0,.02,0,.04,0,.05h-.09l.08,.02s-.04,.04-.1,.03c.18,.08,.38,.13,.59,.17,.21,.04,.41,.09,.62,.1,.17,.02,.34,.03,.5,.06-.02,.07-.24,.09-.24,.09,.2,.05,.25,0,.28-.08,.12,.02,.23,.05,.33,.08,0,.03,0,.05,.03,.08,.03,0,.05,0,.08,0,.02,.02,.04,.04,.05,.06l-.03,.03c.07,0,.14-.02,.21-.04,.04,0,.08,0,.13,0,.03,0,.07,.02,.1,.05-.02,.04-.08,.08,0,.1,.04,0,.12-.03,.22-.04v.04c.07,.02,.14,.04,.21,.05h-.02c.14,.05,.26,.07,.38,.08,.03,0,.06,.01,.09,.02,.11,.02,.22,.04,.35,.05l.2,.02h.23l-.15,.12c.16,.01,.27-.07,.38-.17,.06,.02,.11,.04,.17,.06l-.03-.11s.04-.02,.05-.02h0s.09,.04,.16,.06c.03,.03,.07,.06,.11,.07,0-.03-.02-.04-.04-.06,.03,0,.05,0,.09,0,.01,0,.02,0,.04,0,.2,.1,.48,.17,.67,.18v.04c.44,0,.82-.08,1.18-.17h0c.27,.01,.92,.02,1.03-.17,.13,0,.25-.01,.38-.02l.58-.03c.19-.03,.38-.06,.57-.1,.18-.04,.26-.11,.31-.2,.27-.05,.53-.1,.76-.15-.05,0-.07-.04-.07-.08,.2-.1,.39-.19,.6-.28,.22,.15,.57-.02,.83-.15l-.04-.16c.07-.03,.14-.06,.21-.09,.06,.02,.1,.04,.1,.1v.02h0s0,.07-.04,.13c.07-.08,.16-.19,.26-.29h0c.05-.06,.09-.11,.14-.15,.19-.08,.37-.18,.54-.3h.01l-.02,.04c.08-.02,.14-.06,.19-.12,0,.03-.03,.05-.07,.07,.12,.01,.26-.06,.39-.16,.13,.01,.36-.18,.5-.26-.01-.02-.02-.03-.02-.04,0,0,.01,0,.02,0,.25-.05,.4-.46,.58-.41,.02,0,0,.04-.03,.08,.02-.02,.05-.05,.08-.07h0c.23-.13,.41-.24,.59-.36,.09-.06,.18-.13,.28-.21l.16-.13,.17-.17-.02,.19c.11-.1,.14-.22,.15-.36l.07-.03s-.05,0-.07,0c0-.07,0-.14,0-.2,.02-.02,.04-.03,.06-.05v.03c.05-.04,.09-.08,.12-.13,.04-.04,.07-.07,.09-.11v-.02l.1,.04c.29-.24,.61-.47,.88-.74,0,0,0,.01,0,.02,.07-.08,.13-.16,.17-.23,.1-.12,.18-.25,.25-.4,.02-.01,.04-.03,.05-.05,.02,.04,.04,.09-.01,.16,.23-.2,.85-.8,.55-.95h0s.07,0,.1-.03c.02,0,.04,0,.07,0l.3-.58,.09-.2,.06,.07c0-.07-.01-.12-.02-.17l.12-.29,.15-.34c0,.06-.07,.19-.01,.21,.07-.1,.11-.15,.15-.17,0,.04,.02,.07,.07,.09,.02-.04,.03-.08,.05-.12,.05,0,.11,0,.22-.08-.15-.01-.09-.23,.09-.43l-.16,.11c.03-.1,.05-.2,.07-.3,.03-.02,.06-.04,.09-.07,.13-.09,.26-.18,.3-.51l.02,.23c.04-.16,.16-.44,.26-.72,.02-.07,.05-.14,.07-.21,.01-.07,.02-.15,.03-.21,0,0,0-.02,0-.03,.08-.04,.15-.07,.22,.14,0-.15-.03-.36-.03-.56,.06-.09,.1-.22,.11-.31l-.06,.06c.01-.05,.03-.1,.04-.16,.02-.05,.03-.11,.05-.16l.12,.11c.18-.25,.2-.52,.2-.78,.05-.13,.07-.32,.1-.43-.05,0-.08-.03-.1-.06,.02-.21,.08-.41,.25-.58-.08-.16-.13,.12-.21,.19,0-.06-.03-.12-.03-.18,.03-.05,.06-.11,.09-.16,.02,.01,.04,.02,.05-.02v-.03s.04-.03,.06-.04c0-.02,0-.05,0-.08,.09-.12,.17-.21,.18-.26,.11-.28,0-.4-.07-.55,.02-.13,.03-.26,.04-.37,0-.06,0-.12,0-.17,.02,0,.04,0,.07-.05l-.07-.05v-.02c.08-.17,.1-.62,.21-.51-.06-.26-.12-.11-.16,.07,.11-.4,.07-.65,.09-1.05h.04c0-.44-.08-.81-.17-1.17v-.03c.06-.14,.16,.03,.22,.12Zm-12.11-14.15c.08,0,.11,.02,.14,.04-.06,0-.12,0-.18,0,.01-.01,.02-.03,.04-.04Zm-7.9,.06s.01,.04,0,.06c-.04-.02-.03-.04,0-.06Zm-4.91,2.22s-.07,.05-.12,.05h0s.08-.04,.13-.05Zm-4.36,21.89v-.02s-.01-.03-.01-.04c0,.02,.02,.04,.02,.07h-.01Zm-.14-17.44l-.02,.03h0l.02-.03Zm-1.29,2.94s-.08,.07-.12,.11c0-.06,.02-.11,.03-.17l.09,.06Zm-.23-.14l.03,.02,.03,.3c-.06,.08-.12,.17-.17,.26l.11-.58Zm-.29,9.7h0s-.06-.02-.08-.08l.08,.08Zm-.07,.86v-.16c.02,.05,.02,.11,0,.16Zm1.46,3.51c-.08-.09-.08-.14-.05-.17,.03,.05,.07,.1,.13,.17,0,0,.02,0,.03,0-.03,0-.07,.01-.1,0Zm.62,.7s-.01-.02-.02-.04h.01s0,.03,0,.04Zm5,4.86h.01s0,0-.01,0Zm16.27,.07c-.06,.05-.1,.07-.13,.07,.05-.04,.09-.08,.13-.12,0,.02,0,.04,0,.05Zm5.67-6.1c.04-.18,.1-.28,.17-.35,0,.09-.04,.2-.1,.31l-.07,.04Z"/><polygon class="cls-1" points="94.75 33.31 94.77 32.98 94.75 33.22 94.75 33.31"/><path class="cls-1" d="M70.11,43.02h0c-.07-.04-.03-.01,0,0Z"/><path class="cls-1" d="M78.54,13.71h.4c-.11,0-.26,0-.4,0Z"/><path class="cls-1" d="M80.15,13.75c.07,.07,.14,.11,.22,.13,.02-.01,.04-.02,.05-.04l-.27-.09Z"/><polygon class="cls-1" points="78.5 13.71 78.5 13.71 78.54 13.71 78.5 13.71"/><path class="cls-1" d="M68.64,17.83s.05-.08,.04-.1c-.04,.05-.07,.09-.04,.1Z"/><path class="cls-1" d="M65.5,20.71h.01c.03-.08,0-.04-.01,0Z"/><path class="cls-1" d="M63.29,26.6s-.04,0-.09,.05c.03,0,.06-.03,.09-.05Z"/><polygon class="cls-1" points="70.46 16.06 70.21 16.27 70.4 16.12 70.46 16.06"/></g></g></g></g><path class="cls-2" d="M79.73,27.53c.32,0,.59,.12,.82,.35s.34,.5,.34,.81-.11,.58-.34,.81c-.22,.23-.5,.35-.82,.35h-8.65c-.32,0-.6-.12-.82-.35-.22-.23-.34-.5-.34-.81s.11-.58,.34-.81,.5-.35,.82-.35h.82c.11,0,.15-.06,.13-.17-.29-1.25-.57-2.3-.82-3.17-.01-.08-.07-.13-.17-.13-.25,0-.47-.09-.64-.26-.17-.17-.26-.39-.26-.64v-.23c0-.31,.11-.57,.34-.79s.49-.33,.8-.33h2.48c.11,0,.17-.06,.17-.19v-.44c0-.32,.12-.6,.36-.84,.24-.24,.52-.36,.84-.36h.42c.32,0,.6,.12,.84,.36,.24,.24,.36,.52,.36,.84v.44c0,.13,.06,.19,.17,.19h2.67c.31,0,.57,.11,.79,.33,.22,.22,.33,.48,.33,.79v.29c0,.22-.08,.42-.25,.59s-.36,.25-.59,.25c-.07,0-.12,.04-.15,.1-.21,.97-.49,2.03-.84,3.19-.03,.11,.02,.17,.15,.17h.74Zm-6.87,11.82h-.86c-.32,0-.6-.12-.84-.36-.24-.24-.36-.52-.36-.84v-5.84c0-.32,.12-.6,.36-.84,.24-.24,.52-.36,.84-.36h6.95c.32,0,.6,.12,.84,.36,.24,.24,.36,.52,.36,.84v5.84c0,.32-.12,.6-.36,.84-.24,.24-.52,.36-.84,.36h-.76c-.2,0-.36-.06-.48-.19s-.19-.29-.19-.48c0-.07-.04-.1-.11-.1h-3.78c-.07,0-.1,.04-.1,.1,0,.2-.06,.36-.19,.48s-.29,.19-.48,.19Zm.67-5.8v2.69c0,.11,.06,.17,.19,.17h3.63c.11,0,.17-.06,.17-.17v-2.69c0-.13-.06-.19-.17-.19h-3.63c-.13,0-.19,.06-.19,.19Zm2.86-6.2c.29-.92,.57-1.97,.82-3.13,.03-.11-.02-.17-.15-.17h-3.17c-.13,0-.17,.05-.15,.15,.39,1.43,.66,2.48,.8,3.15,.03,.11,.1,.17,.21,.17h1.41c.11,0,.19-.06,.23-.17Zm10.98,1.22c.7,.66,1.25,1.42,1.64,2.29,.39,.87,.59,1.76,.59,2.67,0,1.3-.26,2.24-.78,2.8-.52,.57-1.34,.85-2.48,.85h-.15c-.34,0-.64-.12-.91-.35-.27-.23-.44-.51-.51-.85-.06-.29,.01-.56,.2-.8,.19-.24,.44-.37,.75-.4,.48-.06,.79-.19,.96-.39,.16-.2,.24-.55,.24-1.04,0-1.22-.57-2.52-1.72-3.91-.24-.28-.38-.59-.42-.94s.01-.69,.17-1.01c.66-1.34,1.22-2.77,1.7-4.28,.03-.13-.01-.19-.13-.19h-2.16c-.11,0-.17,.06-.17,.19v14.93c0,.32-.12,.6-.36,.84-.24,.24-.52,.36-.84,.36h-.27c-.32,0-.6-.12-.84-.36-.24-.24-.36-.52-.36-.84V22.07c0-.32,.12-.6,.36-.84,.24-.24,.52-.36,.84-.36h5.63c.31,0,.57,.1,.78,.31s.31,.47,.31,.78c0,.7-.12,1.41-.36,2.12-.53,1.57-1.12,2.98-1.76,4.22-.06,.11-.03,.2,.06,.27Z"/></g><path class="cls-2" d="M29.75,20.19c-.55,0-1.03-.2-1.44-.61-.41-.41-.61-.89-.61-1.44s.2-1.03,.61-1.44,.89-.61,1.44-.61h28.3c.55,0,1.03,.21,1.44,.61,.41,.41,.61,.89,.61,1.44s-.2,1.03-.61,1.44-.89,.61-1.44,.61h-8.5c-.22,0-.32,.1-.32,.29v3.13c0,.19,.11,.29,.32,.29h7.06c.55,0,1.03,.2,1.44,.61,.41,.41,.61,.89,.61,1.44v18.72c0,.55-.2,1.03-.61,1.42-.41,.4-.89,.59-1.44,.59h-1.12c-.38,0-.72-.14-1.01-.41-.29-.28-.43-.62-.43-1.03,0-.14-.07-.22-.22-.22h-19.87c-.14,0-.22,.07-.22,.22,0,.41-.14,.75-.43,1.03-.29,.28-.62,.41-1.01,.41h-1.12c-.55,0-1.03-.2-1.44-.59-.41-.4-.61-.87-.61-1.42V25.95c0-.55,.2-1.03,.61-1.44s.89-.61,1.44-.61h6.62c.22,0,.32-.1,.32-.29v-3.13c0-.19-.11-.29-.32-.29h-8.06Zm12.53,7.81c-.14,2.62-.55,4.64-1.21,6.07s-1.83,2.78-3.51,4.05c-.48,.36-1.01,.5-1.58,.43-.58-.07-1.06-.34-1.44-.79l-.58-.72s-.1-.06-.14-.04c-.05,.02-.07,.06-.07,.11v3.89c0,.19,.11,.29,.32,.29h19.66c.22,0,.32-.1,.32-.29v-3.6c0-.19-.11-.29-.32-.29h-4.43c-1.66,0-2.79-.27-3.4-.81-.61-.54-.92-1.55-.92-3.04v-5.26c0-.22-.1-.32-.29-.32h-2.09c-.22,0-.32,.11-.32,.32Zm-8.53,0v7.2s.03,.09,.09,.13c.06,.04,.11,.04,.16,.02,1.54-1.05,2.56-2.06,3.06-3.01,.5-.95,.82-2.41,.94-4.37,0-.19-.1-.29-.29-.29h-3.64c-.22,0-.32,.11-.32,.32Zm8.64-7.52v3.13c0,.19,.11,.29,.32,.29h1.98c.19,0,.29-.1,.29-.29v-3.13c0-.19-.1-.29-.29-.29h-1.98c-.22,0-.32,.1-.32,.29Zm6.84,7.52v3.71c0,.84,.07,1.33,.22,1.46,.14,.13,.67,.2,1.58,.2h2.7c.22,0,.32-.1,.32-.29v-5.08c0-.22-.11-.32-.32-.32h-4.18c-.22,0-.32,.11-.32,.32Z"/></g><g><path class="cls-2" d="M8.05,111.8v-1.12c.87-.5,1.36-1.23,1.45-2.24,.06-.64,.26-1.23,.81-1.65,.74-.56,.78-1.15-.04-1.68-.59-.38-.55-.8-.19-1.31,.22-.3,.41-.62,.62-.93,.76-1.17,.6-2.25-.07-3.51-.7-1.32-.93-2.82-.44-4.29,.2-.6,.58-1.09,.3-1.78-.19-.48,.24-.64,.6-.76,.88-.31,1.75-.64,2.65-.88,.93-.25,1.51-.74,1.58-1.74,.05-.66,.38-1.17,.88-1.62,1.7-1.5,3.39-3.02,5.06-4.55,.53-.49,.95-.53,1.54-.04,1.86,1.54,3.35,1,3.84-1.36,.14-.68,.31-1.26,1.14-1.45,2.14-.49,4.27-1.04,6.39-1.58,.62-.16,1.18-.03,1.45,.52,.34,.7,.73,.49,1.12,.18,.37-.3,.68-.69,1.01-1.04,1.12-1.2,2.29-.96,2.88,.53,.35,.89,.4,1.97,1.19,2.6,1.31,1.03,2.62,2.13,4.48,1.97,.99-.09,1.3,.47,1.31,1.36,.02,.79-.04,1.61,.27,2.37,.22-1.03,.08-2.04-.01-3.06-.13-1.47,.46-2.23,1.86-2.48,.42-.07,.86-.15,1.02-.57,.38-.98,1.26-1.55,1.85-2.34,.62-.83,1.01-1.92,2.35-1.03,.07,.05,.23,0,.32-.05,1.28-.74,2.69-.44,4.05-.48,1.7-.05,3.67-1.48,3.75-3.15,.08-1.8,.95-2.79,2.43-3.49,.43-.21,.84-.49,1.23-.77,.74-.54,1.52-.68,2.42-.47,.8,.18,1.63,.23,2.35-.34h.22c.96,1.32,1.17,2.73,.68,4.3-.31,.99-.48,2.02-.63,3.05-.28,1.91-1.47,3.21-2.86,4.35-1.2,.98-1.3,1.42-.03,2.37,.84,.63,1.09,1.33,.78,2.3-.18,.58-.17,1.16,.14,1.72,.63,1.16,.57,2.27-.32,3.3-.32,.36-.61,.74-.57,1.28,.23,3.11,2.26,4.99,5.4,5,.85,0,1.71,.02,2.56,.03v.22c-.1,.2-.2,.4-.31,.59-.53,.95-.6,2.21-1.81,2.69-.78,.31-1,.89-.99,1.68,0,.76,.16,1.54-.36,2.26-.72,1-.49,1.92,.55,2.59,.68,.44,1.15,1.68,.67,1.97-1.22,.73-2.45,1.71-3.98,1.43-.92-.16-1.58-.05-2.18,.63-.29,.33-.71,.56-1,.89-.67,.77-1.41,1.03-2.36,.51-.42-.23-.85-.22-1.24,.14-.66,.61-1.51,.94-2.27,1.4-.8,.49-1.61,.93-2.61,.51-.32-.13-.72-.07-.92,.23-.97,1.45-2.58,1.67-4.06,2.11-2.08,.63-3.85,2.05-6.08,2.31-.86,.1-1.48,.06-1.79-.8-.4-1.12-1.11-1.25-2.09-.79-.33,.16-.7,.26-1.06,.35-.79,.19-1.14,.62-1.18,1.49-.12,2.49-3.49,4.67-5.85,3.85-.33-.11-.6-.31-.8-.58-.4-.53-.92-.86-1.57-.99-.82-.17-1.37-.65-1.81-1.35-.83-1.32-1.65-2.65-2.97-3.58-.61-.43-1.15-.59-1.86-.29-.71,.3-1.42,.66-2.23,.66-2.05,0-4.09,0-6.14,0-.61,0-1.1-.18-1.39-.74-.41-.79-1.08-1.11-1.93-1.04-1.94,.16-3.62-.52-5.31-1.39-1.08-.56-1.87-1.16-1.89-2.45Z"/><path class="cls-4" d="M49.83,118.95v-.22c.83-1.26,2.26-1.34,3.5-1.77,1.23-.42,2.54-.62,3.35-1.82,.25-.37,.68-.51,1.1-.32,1.05,.47,1.94,.1,2.82-.46,.75-.47,1.62-.77,2.27-1.41,.34-.33,.75-.39,1.13-.17,1.02,.6,1.81,.31,2.54-.53,.39-.44,.88-.79,1.33-1.19,.28-.26,.6-.54,.99-.39,1.57,.59,2.8-.31,4.13-.84,.64-.26,1.01-.64,.71-1.37-.29-.7,.07-1.04,.63-1.44,1.57-1.11,3.19-.67,4.82-.28,.48,.12,.6,.75,1.15,.83,2.2,.32,3.83,1.75,3.87,3.83,.03,1.72,.78,2.6,2.25,3.12,.31,.11,.61,.28,.89,.46,.69,.45,1.37,.49,2.09,.06,.31-.19,.69-.39,1.05-.15,.67,.44,1.37,.26,2.06,.16,1.91-.28,3.81-.64,5.7-1.03,1.36-.28,2.23-.71,2.62-2.09,.17-.6,.28-1.13,.14-1.73-.11-.45-.17-.94,.27-1.23,1.08-.71,1.7-2.29,3.43-1.83,.21,.06,.54-.21,.78-.38,.46-.33,.94-.6,1.53-.59,.48,0,.82-.25,1.15-.59,2.05-2.08,4.61-3.23,7.42-3.74,1.17-.21,1.93-.54,2.22-1.75,.17-.7,.74-1.16,1.43-.85,1.11,.5,1.47-.12,1.62-.96,.14-.81,.58-1.36,1.3-1.49,.69-.12,.81,.67,1.05,1.12,.62,1.21,1.25,2.2,2.8,2.55,1.38,.31,1.39,.89,.36,1.93-.07,.07-.09,.18-.15,.31,.3,.18,.6,.11,.89,.09,.8-.05,1.28,.21,.98,1.1-.09,.26,.11,.45,.07,.61-.25,1.22,.04,2.58-1.18,3.52-.76,.59-1.28,1.47-1.57,2.4-.29,.94-.78,1.29-1.73,1-.18-.06-.6-.34-.58,.13,.03,1.01-.7,.91-1.3,.97-.85,.09-1.48,.45-1.83,1.25-.06,.13-.1,.31-.05,.42,.11,.22,.31,.1,.49,.05,1.25-.37,1.5-.2,1.15,1.04-.28,.99,.16,.99,.87,.91,1.23-.14,2.39-.57,3.54-.99,1.23-.45,2.43-.04,3.64,.02,.23,.01,.43,.16,.45,.42,.02,.36-.26,.41-.52,.46-.4,.08-.81,.14-1.21,.21-.95,.17-1.62,.73-2.17,1.63,1.41-1.01,2.93-.52,4.4-.53,.28,0,.57-.16,.83-.31,.85-.49,1.61-.48,2.27,.3v.45c-.47,.21-.96,.4-1.42,.65-3.36,1.83-6.72,3.67-10.07,5.53-.83,.46-1.65,.82-2.64,.6-.68-.15-1.23,.11-1.63,.7-.35,.52-.76,1.01-1.11,1.54-.33,.49-.61,.7-1.25,.31-.79-.48-2.45,.52-2.29,1.33,.2,.99-.2,1.82-.44,2.71-.2,.72-.6,.86-1.24,.49-1.23-.7-1.68-.47-1.75,.98-.04,.84-.37,1.36-1.09,1.78-1.84,1.06-3.69,2.1-5.45,3.28-1.38,.93-2.89,1.7-4.09,2.87-.69,.67-1.42,1.04-2.39,.94-.79-.08-1.47,.1-1.93,.83-.16,.25-.44,.52-.74,.38-1.05-.51-1.57,.24-2.17,.84-.58,.58-1.18,1.14-1.73,1.75-.38,.42-1.18,.75-1.01,1.32,.14,.44,.94,.1,1.44,.21,.07,.02,.15,.01,.22,.03,.71,.14,.91,.44,.34,1.03-.67,.7-1.29,1.44-1.97,2.13-.46,.46-.66,.84-.09,1.39,.54,.52,.19,.79-.38,.83-.53,.04-1.09-.12-1.61,.1,.11,.52,1.06,.3,.78,.93-.21,.46-.8,.28-1.23,.24-.74-.07-1.47-.13-2.19-.36-1.1-.36-1.52,.6-1.98,1.24-.45,.62-.29,1.27,.47,1.67,.71,.37,.41,.85,.09,1.29-.39,.53-.65,.15-.97-.14-1-.92-2.41-1.3-3.51-.95-1.49,.47-2.93,.35-4.39,.44-.68,.04-1.27-.16-1.68-.7-.72-.96-1.58-1.12-2.62-.6-.71,.35-1.17,.14-1.49-.6-.55-1.26-1.15-2.5-1.74-3.74-.41-.87-.71-1.83-1.83-2.08-.17-.04-.32-.3-.41-.49-.87-1.9-.58-2.77,1.22-3.87,.28-.17,.55-.38,.77-.63,.22-.25,.51-.59,.34-.9-.67-1.2-.52-2.53-.7-3.8-.08-.54-.33-.95-.96-.79-1.38,.34-2.57-.04-3.67-.85-.64-.48-1.32-.57-2.1-.41-1.64,.32-3.3,.58-4.95,.83-1.05,.16-1.39-.18-1.23-1.23,.11-.74,.25-1.47,.44-2.19,.37-1.36,.58-2.68-.39-3.92-.28-.36-.27-.85-.27-1.29,0-2.88-.42-5.62-2.49-7.85-.35-.38-.4-.86-.21-1.36,.19-.52,.05-.95-.38-1.29Z"/><g><path class="cls-4" d="M88.7,115.15h-.22c-.88-.48-1.74-1.01-2.65-1.43-.92-.43-1.38-1.07-1.38-2.08,0-1.89-1-3.21-2.5-4.22-.31-.21-.62-.44-1.03-.31-.51,.17-.86,0-1.15-.42-.23-.33-.59-.42-.96-.5-1.56-.35-3.07-.5-4.48,.51-.6,.43-1.31,.5-1.84-.06-.5-.53-.57-1.38-.16-1.87,.76-.92,.7-1.92,.71-2.95,0-.5,.04-1.02,.57-1.23,1.14-.44,1.54-1.43,1.95-2.44,.51-1.26,.5-1.25-.86-1.31-1.14-.05-2.28,.18-3.41-.28-1.59-.65-2.18-1.96-2.7-3.45-.38-1.06-.4-1.89,.43-2.73,.84-.85,.89-1.85,.23-2.85-.33-.5-.4-1-.3-1.59,.32-1.85,.2-2.06-1.47-2.97v-1.56c1.89-.97,3.13-2.47,3.6-4.55,.32-1.42,.57-2.85,.9-4.26,.18-.76,.17-1.48-.27-2.14-.58-.88-.21-1.34,.67-1.65,.51-.18,1.01-.26,1.53-.1,.67,.21,1.31,.12,1.96-.11,1.98-.69,3.78-.28,5.39,1.02,.26,.21,.52,.34,.81,.19,1.19-.61,2.46-.48,3.72-.5,.62,0,1.09-.13,1.5-.73,.46-.67,1.18-.89,1.92-.24,.33,.3,.73,.54,1.02,.87,1.1,1.23,2.65,1.61,4.08,2.21,.37,.16,.72,.05,1.07-.13,1.12-.58,1.67-1.36,1.61-2.74-.12-3.07,.67-3.89,3.61-4.13,.73-.06,1.31-.36,1.76-.86,1.2-1.35,2.68-1.56,4.36-1.32,1.36,.19,2.74,.27,4.11,.35,.63,.04,1.57-.01,1.61-.64,.06-1.15,.96-1.08,1.56-1.45,.36-.22,.69-.03,.74,.38,.11,.95,.35,1.9,.03,2.86-.35,1.03,0,1.92,.94,2.44,.78,.43,1.61,.79,2.35,1.28,.75,.51,1.45,1.01,2.43,.97,.64-.03,.75,.36,.51,.89-.4,.88-.75,1.79-1.21,2.63-.7,1.29-1.27,1.53-2.67,1.27-.09-.02-.2,.06-.47,.15,.68,.46,1.27,.83,1.83,1.24,.85,.62,.81,1.03-.12,1.54-.45,.25-1.06,.36-1.13,.97-.09,.75-.23,1.32-1.07,1.68-.22,.1,.73,1.19,.49,2-.02,.07,0,.15-.02,.22-.11,1.1-.3,1.22-1.34,.79-1.82-.75-3.64-1.51-5.46-2.28-.64-.27-1.26-.38-2.04,.1,1.97,.95,3.85,1.83,5.7,2.75,1.05,.52,2.28,.75,2.8,2.11,.17,.44,.51,.72,.21,1.23-.32,.55-.74,.64-1.32,.46-.58-.18-1.13-.53-1.85-.49,.22,.82,.8,1.04,1.43,1.16,.93,.18,.95,.7,.37,1.2-.59,.51-.47,.89-.1,1.4,.56,.78,1.13,1.55,.71,2.65-.13,.36,.06,.89,.23,1.29,.35,.83,1.14,1.25,1.95,1.27,.7,.02,1.34-.41,1.58-1.19,.11-.36-.05-.9,.57-.92,.5-.01,.82,.3,1.05,.71,.45,.81,.9,1.63,1.35,2.44v.45c-.85,.39-1.47,.92-1.62,1.94-.08,.56-.51,1.08-1.21,.79-1.08-.44-1.51,.14-1.8,1.02-.22,.66-.5,1.3-1.31,1.34-2.36,.1-4.36,1.25-6.31,2.36-1.47,.84-2.7,2.07-4.36,2.63-.31,.1-.63,.5-.86,.44-1.57-.42-2.21,.93-3.19,1.61-.47,.32-.56,.83-.5,1.39,.24,2.22-.7,3.38-2.94,3.76-.4,.07-.77,.25-1.16,.38-1.85,.62-3.79,.91-5.7,.86-1.03-.03-1.93-.17-2.78,.48Z"/><path class="cls-4" d="M117.3,58.63c1.49,.81,1.53,1.84,.13,2.82-.54,.38-.85,.91-1.09,1.51-.11,.27-.33,.55-.67,.48-.3-.06-.31-.39-.35-.63-.24-1.32-.34-2.6,.99-3.49,.23-.15,.28-.43,.32-.69h.67Z"/><path class="cls-4" d="M121.1,60.45c.37,.07,.33,.32,.26,.52-.16,.45-.33,.91-.55,1.34-.63,1.28-1.15,2.57-1.08,4.05,.02,.43,.02,.97-.45,1.18-.49,.22-.71-.29-.97-.57-.58-.6-1.37-.71-2.1-.96-.4-.14-.78-.32-.81-.81-.03-.54,.44-.49,.77-.62,.38-.15,.72-.38,1.09-.55,.3-.14,.61-.22,.57,.3-.02,.23-.29,.56,.15,.62,.31,.05,.54-.24,.7-.49,.15-.24,.39-.61,.02-.77-.82-.36-.7-.94-.5-1.58,.22-.71,.69-.84,1.38-.73,.5,.08,.9-.28,1.22-.67,.09-.11,.23-.18,.32-.26Z"/></g></g></g></g></svg>