<svg xmlns="http://www.w3.org/2000/svg" width="209.064" height="39.234" viewBox="0 0 209.064 39.234">
  <g id="グループ_23" data-name="グループ 23" transform="translate(0 0)">
    <path id="パス_126" data-name="パス 126" d="M201.91,19.58l.041.4C201.941,19.88,201.92,19.7,201.91,19.58Z" transform="translate(6.645 0.646)" fill="#efab91"/>
    <path id="パス_127" data-name="パス 127" d="M104.13.121h.062C104.543.09,104.347.1,104.13.121Z" transform="translate(3.418 0.004)" fill="#efab91"/>
    <path id="パス_128" data-name="パス 128" d="M74.4.29a.877.877,0,0,0,.31.124C74.7.383,74.627.352,74.4.29Z" transform="translate(2.437 0.01)" fill="#efab91"/>
    <path id="パス_129" data-name="パス 129" d="M96.568.691,96,.65C96.227.681,96.4.681,96.568.691Z" transform="translate(3.15 0.022)" fill="#efab91"/>
    <path id="パス_130" data-name="パス 130" d="M62.927.681A3.582,3.582,0,0,0,62.09.661l.124.031a1.662,1.662,0,0,1,.7-.01Z" transform="translate(2.031 0.021)" fill="#efab91"/>
    <path id="パス_131" data-name="パス 131" d="M50.93.68c.062.021.155.041.227.062L51.55.721,50.93.68Z" transform="translate(1.663 0.023)" fill="#efab91"/>
    <path id="パス_132" data-name="パス 132" d="M124.79,37.323c.083,0,.134-.021.238-.021l-.351-.062-.207.093h.31Z" transform="translate(4.089 1.229)" fill="#efab91"/>
    <path id="パス_133" data-name="パス 133" d="M53.05.44l.279.331C53.959.709,54.093.348,53.05.44Z" transform="translate(1.732 0.014)" fill="#efab91"/>
    <path id="パス_134" data-name="パス 134" d="M17.486.766a4.251,4.251,0,0,0-2.076-.1C16.236.683,17.063.807,17.486.766Z" transform="translate(0.49 0.019)" fill="#efab91"/>
    <path id="パス_135" data-name="パス 135" d="M56.96,37.844l1.395-.093L57.7,37.73Z" transform="translate(1.862 1.245)" fill="#efab91"/>
    <path id="パス_136" data-name="パス 136" d="M.5,18.433c-.01-.124-.031-.3-.041-.4Z" transform="translate(-0.003 0.595)" fill="#efab91"/>
    <path id="パス_137" data-name="パス 137" d="M98.278,37.89h-.062C97.865,37.921,98.061,37.911,98.278,37.89Z" transform="translate(3.217 1.251)" fill="#efab91"/>
    <path id="パス_138" data-name="パス 138" d="M128.02,37.724a.877.877,0,0,0-.31-.124C127.72,37.631,127.793,37.662,128.02,37.724Z" transform="translate(4.196 1.241)" fill="#efab91"/>
    <path id="パス_139" data-name="パス 139" d="M105.86,37.32l.568.041C106.2,37.33,106.025,37.33,105.86,37.32Z" transform="translate(3.475 1.232)" fill="#efab91"/>
    <path id="パス_140" data-name="パス 140" d="M139.51,37.32a3.581,3.581,0,0,0,.837.021l-.124-.031a1.662,1.662,0,0,1-.7.01Z" transform="translate(4.586 1.231)" fill="#efab91"/>
    <path id="パス_141" data-name="パス 141" d="M151.5,37.322c-.062-.021-.155-.041-.227-.062l-.393.021Z" transform="translate(4.961 1.23)" fill="#efab91"/>
    <path id="パス_142" data-name="パス 142" d="M209.079,16.569c-.227.3-.32-.754-.238-1.994l-.248,1.477a2.487,2.487,0,0,1,.093-1.033l.031.186a9.74,9.74,0,0,0-.124-1.426,8.089,8.089,0,0,0,.2-2.779l.021-.041-.031-.031a2.944,2.944,0,0,0-.031-.3l.2.971c-.052-.7-.062-1.942-.093-3.233.062-.072.1.041.124.578.248-2.107,0-.8-.134-1.147a23,23,0,0,0-.258-3.006c.031-.062.062-.134.1-.155-.062-.145-.1-.114-.134-.021-.031-.124-.052-.227-.083-.331A.793.793,0,0,0,208.552,4c.083-.155.165-.176.2.3V2.727c0-.3,0-.62-.01-.93a5.722,5.722,0,0,0,.124-.837.273.273,0,0,1-.072-.01.131.131,0,0,0-.062.01c0-.227,0-.455-.01-.682-.692.021-1.374.031-2.076.052l-.961.031L205.1.393c-.775.041-1.539.083-2.273.114a27.583,27.583,0,0,1-3.967-.041l.289-.155a7.122,7.122,0,0,1-2.1.134c.041-.062.279-.155-.041-.165a14.234,14.234,0,0,1-2.789.176l.8-.176c-3.667-.207-5.63.424-8.7.527,0-.455-2.882-.6-4.318-.671l.052-.062C177.789.021,174.8.444,170.847.63c-2.459-.5-8.316-.207-12.262-.486.6.083-.093.351-.8.4-.651-.062-1.653.114-2.138.083V.609h-.124c-.114-.021-.186-.072-.155-.165h.331c-.7-.4-2.6-.289-4.091-.3l-.248.547a26.351,26.351,0,0,0-5.537-.279,21.093,21.093,0,0,0-3.058.1,17.162,17.162,0,0,1-3.264-.124l.589-.031.413-.041L139.5.382a3.641,3.641,0,0,1-.424-.1c-.94.134-2.1.134-3.027.269L136.1.258c-2.6-.072-3.894-.114-7.107-.041L129.61,0A5.9,5.9,0,0,0,127.2.558c-.6-.041-1.023-.083-.754-.186-1.25.114-.537.2.393.269-.568-.052-1.064-.072-1.529-.083l-.155-.134a84.349,84.349,0,0,0-9.142-.01c.176-.041.382-.083.537-.114-.269.031-.527.052-.785.062a1.069,1.069,0,0,1,.558-.124c-.847,0-2.593-.1-3.843-.072A7.843,7.843,0,0,0,111.677.1l1.054-.1a13.507,13.507,0,0,1-1.673.052l.444.176c-.072.01-.145.031-.2.041-.444-.021-.785-.041-.775-.124-.238.062-.227.134-.2.207-.578,0-1.415.041-2.252.124-.114-.1-.393-.248.785-.269a9.742,9.742,0,0,1-1.56,0c-.093-.041.083-.072.258-.083-2.479-.289-1.136.372-3.708.362.331-.186-.6-.351-1.012-.31,1.033,0,.5.31-.455.444a13.926,13.926,0,0,0-2.655.093l.362.021a3.933,3.933,0,0,0-1.136.114c-1.26.279-2.83-.341-4.576-.134C93.558.589,94.3.372,93.579.289,91.812.5,91.472.145,89.963.2A2.043,2.043,0,0,1,90.4.052c-.713.1-1.684.258-2.686.382a16.343,16.343,0,0,0-3.016,0,5.654,5.654,0,0,0-.95.041C83.2.434,82.856.4,82.329.393A11.927,11.927,0,0,0,79.447.258c.072.289-1.074.248,0,.486-.134-.021.165-.031.744-.052a1.852,1.852,0,0,0,.372-.031L80.5.682h.682A1.614,1.614,0,0,1,80.491.8a.6.6,0,0,1-.2-.021l-.062.031c-.64,0-1.436-.052-2.066,0,.093-.207-.558-.279-.992-.4a6.224,6.224,0,0,1-1.467.114,1.582,1.582,0,0,1-.455-.155,71.089,71.089,0,0,0-7.3.486c.021-.124-.165-.227.992-.341-.837,0-1.58-.041-1.591.1-.486-.124-2.3.279-3.068.083a2.384,2.384,0,0,0-.289.1A8.764,8.764,0,0,0,62.837.93c0-.031.041-.052.041-.052,0,.062-.516.093-.764.165C60.967.888,63.333.733,60.905.8l.351-.114A32.129,32.129,0,0,0,53.788.9a5.891,5.891,0,0,1-.95-.155c-1.766.062-3.884.134-5.506.145a.5.5,0,0,1-.124-.01c.072-.052.01-.083.3-.062A3.511,3.511,0,0,0,45.834.94C45.3.93,44.759.919,44.212.919c-.021,0-.062-.021-.134-.031-.362-.671-3.12.093-4.865-.3l.424-.041C38.3.32,36.392.806,34.212.754c0,0,.1-.062.01-.1a17.636,17.636,0,0,1-2.438.32C30.649.94,29.523.9,28.417.816L28.386.8a.684.684,0,0,0-.155.01c-.114,0-.238-.01-.351-.021A7.225,7.225,0,0,0,25.236,1a1.072,1.072,0,0,1-.578-.258h1.766c-.909-.382-2.283,0-3.213-.062l.114-.165c-2.355.041-2.686.362-4.649.424A15.463,15.463,0,0,0,14.709.847L14.585.733c-.692.062-2.056.217-3.44.331-.093-.021-.145-.052-.114-.083a1.481,1.481,0,0,1-.516.134h-.062a1.125,1.125,0,0,1-.31-.031l-.021-.1C11.238.816,12.664.692,13.656.558a24.545,24.545,0,0,0-4.07.227A6.076,6.076,0,0,1,10.949.713,12.719,12.719,0,0,1,9.679.95l-2.118.2c-.258.01-.527.021-.806.021-1.746-.155.516-.63-2.737-.661C3.532.527,2.892.609,2.3.692,1.817.692,1.332.682.857.671v.341c-.052.031-.052.052,0,.072v.362h0v.083H.846v.3a.332.332,0,0,0-.01.351C.826,2.459.815,2.737.795,3a2.375,2.375,0,0,1-.041.393c-.021.1-.031.207-.052.3a3.016,3.016,0,0,1-.134.475C.857,7.83.444,11.425.485,15.7c.444-1.085.258.021.351.64v1.023c-.062-.052-.114-.217-.145-.568-.031.217-.052.382-.062.537a1.614,1.614,0,0,0-.145.661c.052-.279.093-.351.134-.31A3.407,3.407,0,0,1,.6,19.059c-.041.124-.062.062-.072-.041l.124,1.26c-.093-.248-.3.207-.238-.568a10.739,10.739,0,0,0-.041,1.8c-.093.475-.238.155-.351,1.167.227-.3.32.754.238,1.994l.248-1.477a2.487,2.487,0,0,1-.093,1.033l-.031-.186a9.74,9.74,0,0,0,.124,1.426,8.09,8.09,0,0,0-.2,2.779l-.021.041.031.031a2.944,2.944,0,0,0,.031.3l-.2-.971c.052.7.062,1.942.093,3.233-.062.072-.1-.041-.124-.578-.248,2.107,0,.8.134,1.147a23,23,0,0,0,.258,3.006c-.031.062-.062.134-.1.155.062.145.1.114.134.021.031.124.052.227.083.331a.792.792,0,0,0-.083.289c-.083.155-.165.176-.2-.3v1.57c0,.3,0,.62.01.93a5.724,5.724,0,0,0-.124.837.273.273,0,0,1,.072.01.131.131,0,0,0,.062-.01c0,.227,0,.455.01.682.692-.021,1.374-.031,2.076-.052l.961-.031L4,38.851c.775-.041,1.539-.083,2.273-.114a27.583,27.583,0,0,1,3.967.041l-.289.155a7.122,7.122,0,0,1,2.1-.134c-.041.062-.279.155.041.165a14.234,14.234,0,0,1,2.789-.176l-.8.176c3.667.207,5.63-.424,8.7-.527,0,.455,2.882.6,4.318.671l-.052.062c4.266.052,7.252-.372,11.208-.558,2.459.5,8.316.207,12.262.486-.6-.083.093-.351.8-.4.651.062,1.653-.114,2.138-.083v.021h.124c.114.021.186.072.155.165H53.4c.7.4,2.6.289,4.091.3l.248-.547a26.351,26.351,0,0,0,5.537.279,21.094,21.094,0,0,0,3.058-.1,17.162,17.162,0,0,1,3.264.124L69,38.882l-.413.041,1.012-.062a3.641,3.641,0,0,1,.424.1c.94-.134,2.1-.134,3.027-.269L73,38.985c2.6.072,3.894.114,7.107.041l-.651.207a5.9,5.9,0,0,0,2.407-.558c.6.041,1.023.083.754.186,1.25-.114.537-.2-.393-.269.568.052,1.064.072,1.529.083l.155.134a84.347,84.347,0,0,0,9.142.01c-.176.041-.382.083-.537.114.269-.031.527-.052.785-.062a1.07,1.07,0,0,1-.558.124c.847,0,2.593.1,3.843.072a7.842,7.842,0,0,0,.806.062l-1.054.1a13.507,13.507,0,0,1,1.673-.052l-.444-.176c.072-.01.145-.031.2-.041.444.021.785.041.775.124.238-.062.227-.134.2-.207.578,0,1.415-.041,2.252-.124.114.1.393.248-.785.269a9.742,9.742,0,0,1,1.56,0c.093.041-.083.072-.258.083,2.479.289,1.136-.372,3.708-.362-.331.186.6.351,1.012.31-1.033,0-.5-.31.455-.444a13.926,13.926,0,0,0,2.655-.093l-.362-.021a3.932,3.932,0,0,0,1.136-.114c1.26-.279,2.83.341,4.576.134.826.124.083.341.806.424,1.766-.207,2.107.145,3.616.093a2.043,2.043,0,0,1-.434.145c.713-.1,1.684-.258,2.686-.382a16.343,16.343,0,0,0,3.016,0,5.654,5.654,0,0,0,.95-.041c.547.041.888.072,1.415.083a11.927,11.927,0,0,0,2.882.134c-.072-.289,1.074-.248,0-.486.134.021-.165.031-.744.052a1.852,1.852,0,0,0-.372.031l.062-.021h-.682a1.614,1.614,0,0,1,.692-.114.6.6,0,0,1,.2.021l.062-.031c.64,0,1.436.052,2.066,0-.093.207.558.279.992.4a6.224,6.224,0,0,1,1.467-.114,1.582,1.582,0,0,1,.455.155,71.088,71.088,0,0,0,7.3-.486c-.021.124.165.227-.992.341.837,0,1.58.041,1.591-.1.486.124,2.3-.279,3.068-.083a2.383,2.383,0,0,0,.289-.1,8.763,8.763,0,0,0,1.157-.134c0,.031-.041.052-.041.052,0-.062.516-.093.764-.165,1.147.155-1.219.31,1.209.248l-.351.114a32.129,32.129,0,0,0,7.469-.217,5.891,5.891,0,0,1,.95.155c1.766-.062,3.884-.134,5.506-.145a.5.5,0,0,1,.124.01c-.072.052-.01.083-.3.062a3.511,3.511,0,0,0,1.673-.124c.537.01,1.074.021,1.622.021.021,0,.062.021.134.031.362.671,3.12-.093,4.865.3l-.424.041c1.333.227,3.244-.258,5.423-.207,0,0-.1.062-.01.1a17.636,17.636,0,0,1,2.438-.32c1.136.031,2.262.072,3.378.155l.031.021a.684.684,0,0,0,.155-.01c.114,0,.238.01.351.021a7.225,7.225,0,0,0,2.644-.217,1.072,1.072,0,0,1,.578.258h-1.766c.909.382,2.283,0,3.213.062l-.114.165c2.355-.041,2.686-.362,4.648-.424a15.463,15.463,0,0,0,3.967.093l.124.114c.692-.062,2.056-.217,3.44-.331.093.021.145.052.114.083a1.481,1.481,0,0,1,.517-.134h.062a1.125,1.125,0,0,1,.31.031l.021.1c-1.116.165-2.541.289-3.533.424a24.545,24.545,0,0,0,4.07-.227,6.076,6.076,0,0,1-1.364.072,12.718,12.718,0,0,1,1.271-.238l2.118-.2c.258-.01.527-.021.806-.021,1.746.155-.516.63,2.737.661.486-.021,1.126-.1,1.715-.186.486,0,.971.01,1.446.021v-.341c.052-.031.052-.052,0-.072v-.362h0V37.7h.01v-.3a.332.332,0,0,0,.01-.351c.01-.279.021-.558.041-.816a2.375,2.375,0,0,1,.041-.393c.021-.1.031-.207.052-.3a3.015,3.015,0,0,1,.134-.475c-.289-3.667.124-7.262.083-11.539-.444,1.085-.258-.021-.351-.64V21.869c.062.052.114.217.145.568.031-.217.052-.382.062-.537a1.613,1.613,0,0,0,.145-.661c-.052.279-.093.351-.134.31a3.407,3.407,0,0,1,.021-1.374c.041-.124.062-.062.072.041l-.124-1.26c.093.248.3-.207.238.568a10.737,10.737,0,0,0,.041-1.8c.093-.475.238-.155.351-1.167Zm-.764,3.109a.779.779,0,0,1-.041.155v-.7C208.294,19.307,208.3,19.482,208.314,19.679Zm-89.6,18.759a14.338,14.338,0,0,1,2.655-.062l-.021.207c-1.395,0-2.5-.021-2.882-.031l.816-.134a5.51,5.51,0,0,0-.578.021ZM100.562.764h.155a1.689,1.689,0,0,1-.733.155h-.021l.6-.155ZM98.806.888c-.114.031-.238.062-.4.1C98.362.93,98.589.9,98.806.888Zm-6.2-.155c-.072.01-.114.021-.176.031h-.94A8.725,8.725,0,0,1,92.608.733ZM90.366.826a14.338,14.338,0,0,1-2.655.062l.021-.207c1.395,0,2.5.021,2.882.031L89.8.847a5.51,5.51,0,0,0,.578-.021Zm.362-.134A.931.931,0,0,0,90.5.558L92,.486,90.728.692ZM81.224.32a1.543,1.543,0,0,1,.857.072L81.069.424,81,.455A.663.663,0,0,1,81.224.31ZM47.28.909h0ZM.764,19.586a.779.779,0,0,1,.041-.155v.7C.784,19.958.774,19.782.764,19.586ZM108.516,38.5h-.155a1.689,1.689,0,0,1,.733-.155h.021l-.6.155Zm1.756-.124c.114-.031.238-.062.4-.1C110.716,38.335,110.489,38.366,110.272,38.376Zm6.2.155c.072-.01.114-.021.176-.031h.94A8.725,8.725,0,0,1,116.47,38.531Zm1.88.041a.931.931,0,0,0,.227.134l-1.5.072,1.271-.207Zm9.5.372a1.543,1.543,0,0,1-.857-.072l1.012-.031.072-.031a.664.664,0,0,1-.227.145Zm33.944-.589h0Z" transform="translate(-0.018 0)" fill="#efab91"/>
    <path id="パス_143" data-name="パス 143" d="M77.628.68c-.083,0-.134.021-.238.021l.351.062L77.948.67h-.31Z" transform="translate(2.536 0.022)" fill="#efab91"/>
    <path id="パス_144" data-name="パス 144" d="M149.375,37.581l-.279-.331C148.465,37.312,148.331,37.674,149.375,37.581Z" transform="translate(4.886 1.229)" fill="#efab91"/>
    <path id="パス_145" data-name="パス 145" d="M184.98,37.25a4.251,4.251,0,0,0,2.076.1C186.23,37.333,185.4,37.209,184.98,37.25Z" transform="translate(6.086 1.229)" fill="#efab91"/>
    <path id="パス_146" data-name="パス 146" d="M145.485.17,144.09.253l.651.021Z" transform="translate(4.737 0.006)" fill="#efab91"/>
  </g>
</svg>
