<?xml version="1.0" encoding="UTF-8"?><svg id="_イヤー_2" xmlns="http://www.w3.org/2000/svg" viewBox="0 0 200 60"><defs><style>.cls-1{fill:#eda184;}</style></defs><g id="_イヤー_1-2"><g><path class="cls-1" d="M199.1,33.63l.06,.54-.06-.54Z"/><path class="cls-1" d="M105.19,.25h.06c.34-.06,.15-.04-.06,0Z"/><path class="cls-1" d="M75.42,.61c.06,.11,.18,.19,.3,.26-.01-.06-.08-.14-.3-.26Z"/><path class="cls-1" d="M97.6,1.47l-.55-.08c.22,.05,.39,.07,.55,.08Z"/><path class="cls-1" d="M63.66,1.41c.07,.02,.15,.03,.25,.05-.09-.03-.17-.04-.25-.05Z"/><path class="cls-1" d="M63.66,1.41c-.15-.03-.29-.05-.56,0,.04,.03,.08,.05,.12,.07,.11-.06,.24-.09,.44-.07Z"/><path class="cls-1" d="M51.92,1.47c.06,.05,.15,.08,.22,.12l.38-.03-.6-.09Z"/><path class="cls-1" d="M63.42,6.21l-1.9-.09c.53,.06,1.22,.09,1.9,.09Z"/><path class="cls-1" d="M60.44,54.23c-.17-.01-.32,0-.44,.07l.44-.07Z"/><path class="cls-1" d="M110.19,5.05c-.06,0-.12,.01-.19,.01,.08,0,.14,0,.19-.01Z"/><path class="cls-1" d="M47.15,6.18c-.1,.01-.19,.03-.25,.06,.07-.01,.16-.03,.25-.06Z"/><path class="cls-1" d="M53.92,54.06s.09-.02,.14-.04c-.05,.01-.09,.02-.14,.04Z"/><path class="cls-1" d="M54.06,54.03c.09-.02,.18-.05,.27-.08-.1,.03-.18,.05-.27,.08Z"/><path class="cls-1" d="M121.7,58.54c.08-.01,.13-.04,.23-.04-.12-.05-.22-.1-.34-.14l-.2,.19h.3Z"/><polygon class="cls-1" points="63.97 54 63.98 54.16 64.29 54.02 63.97 54"/><path class="cls-1" d="M63.62,6.22h0Z"/><path class="cls-1" d="M199.66,6.08c.08,1.97,.25,.07,.34,.05-.16-1.54-.19-1.77-.34-.05Z"/><path class="cls-1" d="M18.36,1.62c-.39-.34-1.39-.55-2.01-.22,.8,.05,1.6,.31,2.01,.22Z"/><polygon class="cls-1" points="53.79 59.64 55.14 59.46 54.51 59.42 53.79 59.64"/><path class="cls-1" d="M.9,26.37l-.06-.54,.06,.54Z"/><path class="cls-1" d="M94.81,59.75h-.06c-.34,.06-.15,.04,.06,0Z"/><path class="cls-1" d="M124.58,59.39c-.06-.11-.18-.19-.3-.26,.01,.06,.08,.14,.3,.26Z"/><path class="cls-1" d="M102.4,58.53l.55,.08c-.22-.05-.39-.07-.55-.08Z"/><path class="cls-1" d="M136.34,58.59c-.07-.02-.15-.03-.25-.05,.09,.03,.17,.04,.25,.05Z"/><path class="cls-1" d="M136.34,58.59c.15,.03,.29,.05,.56,0-.04-.03-.08-.05-.12-.07-.11,.06-.24,.09-.44,.07Z"/><path class="cls-1" d="M148.08,58.53c-.06-.05-.15-.08-.22-.12l-.38,.03,.6,.09Z"/><path class="cls-1" d="M136.58,53.79l1.9,.09c-.53-.06-1.22-.09-1.9-.09Z"/><path class="cls-1" d="M139.56,5.77c.17,.01,.32,0,.44-.07l-.44,.07Z"/><path class="cls-1" d="M89.81,54.95c.06,0,.12-.01,.19-.01-.08,0-.14,0-.19,.01Z"/><path class="cls-1" d="M199.64,26.16l-.44,2.31c-.03-.22-.05-.41-.06-.61-.02-.44,0-.82,.15-1.14l.04,.25c-.04-.75-.08-1.23-.12-1.56,.22-1.2,.62-1.93,.3-4.49l.3,1.28c-.08-.92-.09-2.51-.14-4.19,.03,.12,.05,.33,.06,.66,.31-2.27,.11-1.54-.09-1.44-.06-1.58-.18-3.14-.44-4.2,.02-.02,.04-.05,.07-.07-.05-.09-.09-.13-.12-.13-.04-.13-.07-.25-.11-.36,.11-.37,.37-.86,.44,.06,.02-1.03,0-2.11-.05-3.2,.03-.13,.07-.31,.12-.56-.07-.11-.12-.25-.16-.39,0-.16-.01-.31-.02-.47l-.07-1.18,.04-.51c.11-1.23,.3-2.83,.23-3.85-.1,.1-.17,.04-.22-.16-.06,.02-.14,.03-.21,.05v-.15c.12-.05,.25-.09,.38-.13,.02,.1,.04,.24,.05,.39,.08-.09,.18-.29,.31-.67,0-.08,0-.14-.01-.2-.26,.06-.52,.26-.74,.46l-.03-.95c-1.32,.07-2.52,.13-3.63,.13-.65,0-.85-.01-1.2-.04-.32-.03-.63-.08-.92-.14l.28-.32c-.68,.09-1.18,.6-2.03,.28,.04-.13,.27-.32-.04-.34-.36,.11-1.81,.56-2.71,.37l.77-.36c-3.55-.42-5.46,.88-8.44,1.1,0-.94-2.79-1.25-4.19-1.4l.05-.13c-4.14-.12-7.03,.78-10.87,1.15-2.38-1.02-8.06-.43-11.88-1,.58,.17-.1,.73-.78,.83-.5-.11-1.21,.1-1.72,.17v-.05c-.16,.02-.26,.03-.32,.05-.21-.02-.34-.12-.3-.38l.32,.02c-.68-.85-2.52-.62-3.96-.65l-.24,1.13c-1.46-.64-3.26-.69-5.05-.6-.97-.09-1.89,.03-2.76,.19-1.44,.1-2.71,.13-3.59-.2l.83-.09,.4-.08-1.24,.16c-.19-.07-.36-.15-.51-.26-.9,.28-2.01,.28-2.91,.56h-.03l.05-.6c-2.52-.15-3.78-.23-6.89-.09L126.21,0c-1.04-.02-1.63,.6-2.28,1.11-.41-.07-.65-.17-.44-.34-1.13,.22-.61,.39,.19,.52h0c-.61-.1-1.14-.13-1.65-.14l-.15-.28c-2.74,.01-5.51-.61-8.24-.16,.09-.04,.18-.07,.25-.1-.39,.1-.76,.13-1.13,.14,.08-.12,.22-.25,.55-.27-.75-.01-2.24-.18-3.42-.16-.26-.06-.51-.11-.73-.13l1.02-.21c-.61,.12-1.11,.12-1.62,.12l.35,.3c-.15,.03-.28,.07-.39,.13-.29-.04-.48-.09-.47-.22-.25,.13-.22,.3-.18,.48-.48-.11-1.33-.01-2.22,.15-.12-.21-.25-.45,.79-.51-.41,.08-.91,.08-1.51-.01-.09-.08,.08-.14,.25-.18-2.4-.6-1.1,.76-3.6,.75,.32-.38-.58-.72-.98-.64,1,0,.48,.63-.44,.93-1.6-.3-1.74,.22-2.57,.19l.36,.05c-1.07-.02-1.27,.11-1.7,.37-1.06,.06-2.29-.69-3.64-.44,0,0-.01-.01-.02-.02,0,0-.01,.02-.02,.02-.05,.01-.11,0-.16,.02-.8-.26-.08-.71-.78-.89-1.86,.47-2.09-.43-3.91-.14,.07-.1,.22-.22,.46-.36-.66,.2-1.55,.51-2.48,.76-1.07-.2-2.04-.07-3.08,.11l.16-.06c-.38-.05-.72,0-1.05,.09-.53-.09-.86-.16-1.37-.17-.2-.46-1.95-.25-2.8-.27,.07,.6-1.04,.51,0,1-.13-.04,.16-.07,.72-.1,.13-.02,.28-.03,.36-.06l-.06,.05c.28,0,.61-.01,.97-.02h.05c-.17,.22-.54,.26-.97,.26-.08-.02-.16-.02-.25-.06l-.06,.05c-.55-.02-1.16-.07-1.65,.03,.09-.42-.54-.58-.97-.84,.03,.2-.94,.13-1.7,.29-.25-.12-.44-.24-.51-.37-2.15,.28-4.91,.26-6.73,.89,0-.21,.03-.39,.96-.58-.81,0-1.53-.08-1.54,.21-.33-.19-1.31,.17-2.12,.26l-.22,.02c-.24,0-.47-.01-.63-.1-.08,.05-.15,.11-.23,.17-.83,.08-1.54,.22-1.8,.52-.06,.03-.12,.06-.15,.1-1.69-.35,1.07-.71-1.44-.58l.34-.24c-2.01-.51-3.71-.28-5.4,.06,.39-.23,.37-.76-.51-.59l.26,.64c-.46,.1-.92,.2-1.39,.3-.28-.07-.55-.16-.78-.28-1.76,.14-3.88,.28-5.48,.31,.1-.13,0-.21,.31-.17-.95-.17-1.33,.03-1.66,.28-.51-.03-1.02-.06-1.53-.07-.02-.02-.06-.04-.14-.06-.35-1.39-3.03,.19-4.71-.62l.41-.08c-1.29-.47-3.15,.53-5.25,.43,0,0,.1-.12,.01-.21-.63,.31-1.5,.52-2.45,.69-1.06-.04-2.11-.14-3.15-.29-.02-.03-.04-.06-.06-.1-.11,0-.19,.03-.24,.06-.2-.03-.4-.04-.6-.08-1.33-.17-1.77,.07-2.37,.36-.2-.13-.36-.27-.41-.44l1.71-.03c-.88-.76-2.21,.03-3.12-.11l.12-.33c-2.39,.1-2.64,.81-4.81,.88-1.08-.3-2.22-.56-3.6-.3l-.08-.14c-.7,.14-2.14,.48-3.56,.72-.18-.04-.28-.11-.23-.22-.12,.08-.39,.45-.86,.23v-.08c1.11-.42,2.69-.69,3.76-.99-1.01,0-3.42,.06-3.95,.48,.41-.08,.92-.29,1.32-.16-.35,.19-.74,.34-1.16,.48v-.06l-2.66,.52c-.17,.01-.35,.02-.53,.02-.23-.04-.39-.09-.51-.14,0-.2-.12-.35-.32-.46-.04-.36,0-.73-1.89-.77-.47,.05-1.1,.21-1.67,.39-.5-.01-1-.03-1.5-.04-.05,2.12-.15,4.14-.47,5.24,.44,4.85-.19,9.62-.12,15.27,.93-2,.04,1.62,.98,1.3v.06c.02,.22,.03,.41,.04,.58-.18,.41-.48,.57-.56-.47-.05,.27-.07,.48-.09,.67-.13-.09-.25,.09-.34,.89,.17-.77,.28-.37,.39,.15,.04,.31,.06,.63-.09,1.28-.06,.16-.09,.09-.11-.06l.19,1.67c-.14-.33-.46,.28-.37-.75-.03,.27-.05,.52-.06,.78h0c-.01,.22-.02,.43-.02,.63-.11,1.98-.4,.74-.64,2.49,.34-.39,.49,1,.36,2.64l.44-2.31c.03,.22,.05,.41,.06,.61,.02,.44,0,.82-.15,1.14l-.04-.25c.04,.75,.08,1.23,.12,1.55-.21,1.2-.62,1.93-.3,4.49l-.3-1.28c.08,.92,.09,2.51,.14,4.19-.03-.12-.05-.33-.06-.66-.31,2.27-.11,1.54,.09,1.44,.06,1.58,.18,3.14,.44,4.2-.02,.02-.04,.05-.07,.07,.05,.09,.09,.13,.12,.13,.04,.13,.07,.25,.11,.36-.11,.37-.37,.86-.44-.06-.02,1.03,0,2.11,.05,3.2-.03,.13-.07,.31-.12,.56,.07,.11,.12,.25,.16,.39,0,.16,.01,.31,.02,.47l.07,1.18-.04,.51c-.11,1.23-.3,2.83-.23,3.85,.1-.1,.17-.04,.22,.16,.06-.02,.14-.03,.21-.05v.15c-.12,.05-.25,.09-.38,.13-.02-.1-.04-.24-.05-.39-.08,.09-.18,.29-.31,.67,0,.08,0,.14,.01,.2,.26-.06,.52-.26,.74-.46l.03,.95c1.32-.07,2.52-.13,3.63-.13,.65,0,.85,.01,1.2,.04,.32,.03,.63,.08,.92,.14l-.28,.32c.68-.09,1.18-.6,2.03-.28-.04,.13-.27,.32,.04,.34,.36-.11,1.81-.56,2.71-.37l-.77,.36c3.55,.42,5.46-.88,8.44-1.1,0,.94,2.79,1.25,4.19,1.4l-.05,.13c4.14,.12,7.03-.78,10.87-1.15,2.38,1.02,8.06,.43,11.88,1-.58-.17,.1-.73,.78-.83,.5,.11,1.21-.1,1.72-.17v.05c.16-.02,.26-.03,.32-.05,.21,.02,.34,.12,.3,.38l-.32-.02c.68,.85,2.52,.62,3.96,.65l.24-1.13c1.46,.64,3.26,.69,5.05,.6,.97,.09,1.89-.03,2.76-.19,1.44-.1,2.71-.13,3.59,.2l-.83,.09-.4,.08,1.24-.16c.19,.07,.36,.15,.51,.26,.9-.28,2.01-.28,2.91-.56h.03l-.05,.6c2.52,.15,3.78,.23,6.89,.09l-.63,.43c1.04,.02,1.63-.6,2.28-1.11,.41,.07,.65,.17,.44,.34,1.13-.22,.61-.39-.19-.52h0c.61,.1,1.14,.13,1.65,.14l.15,.28c2.74-.01,5.51,.61,8.24,.16-.09,.04-.18,.07-.25,.1,.39-.1,.76-.13,1.13-.14-.08,.12-.22,.25-.55,.27,.75,.01,2.24,.18,3.42,.16,.26,.06,.51,.11,.73,.13l-1.02,.21c.61-.12,1.11-.12,1.62-.12l-.35-.3c.15-.03,.28-.07,.39-.13,.29,.04,.48,.09,.47,.22,.25-.13,.22-.3,.18-.48,.48,.11,1.33,.01,2.22-.15,.12,.21,.25,.45-.79,.5,.41-.08,.91-.08,1.51,.01,.09,.08-.08,.14-.25,.18,2.4,.6,1.1-.76,3.6-.75-.32,.38,.58,.72,.98,.64-1,0-.48-.63,.44-.93,1.6,.3,1.74-.22,2.57-.19l-.36-.05c1.07,.02,1.27-.11,1.7-.37,1.06-.06,2.29,.69,3.64,.44,0,0,.01,.01,.02,.02,0,0,.01-.02,.02-.02,.05-.01,.11,0,.16-.02,.8,.26,.08,.71,.78,.89,1.86-.47,2.09,.43,3.91,.14-.07,.1-.22,.22-.46,.36,.66-.2,1.55-.51,2.48-.76,1.07,.2,2.04,.07,3.08-.11l-.16,.06c.38,.05,.72,0,1.05-.09,.53,.09,.86,.16,1.37,.17,.2,.46,1.95,.25,2.8,.27-.07-.6,1.04-.51,0-1,.13,.04-.16,.07-.72,.1-.13,.02-.28,.03-.36,.06l.06-.05c-.28,0-.61,.01-.97,.02h-.05c.17-.22,.54-.26,.97-.26,.08,.02,.16,.02,.25,.06l.06-.05c.55,.02,1.16,.07,1.65-.03-.09,.42,.54,.58,.97,.84-.03-.2,.94-.13,1.7-.29,.25,.12,.44,.24,.51,.37,2.15-.28,4.91-.26,6.73-.89,0,.21-.03,.39-.96,.58,.81,0,1.53,.08,1.54-.21,.33,.19,1.31-.17,2.12-.26l.22-.02c.24,0,.47,.01,.63,.1,.08-.05,.15-.11,.23-.17,.83-.08,1.54-.22,1.8-.52,.06-.03,.12-.06,.15-.1,1.69,.35-1.07,.71,1.44,.58l-.34,.24c2.01,.51,3.71,.28,5.4-.06-.39,.23-.37,.76,.5,.59l-.26-.64c.46-.1,.92-.2,1.39-.3,.28,.07,.55,.16,.78,.28,1.76-.14,3.88-.28,5.48-.31-.1,.13,0,.21-.31,.17,.95,.17,1.33-.03,1.66-.28,.51,.03,1.02,.06,1.53,.07,.02,.02,.06,.04,.14,.06,.35,1.39,3.03-.19,4.71,.62l-.41,.08c1.29,.47,3.15-.53,5.25-.43,0,0-.1,.12-.01,.21,.63-.31,1.5-.52,2.45-.69,1.06,.04,2.11,.14,3.15,.29,.02,.03,.04,.06,.06,.1,.11,0,.19-.03,.24-.06,.2,.03,.4,.04,.6,.08,1.33,.17,1.77-.07,2.37-.36,.2,.13,.36,.27,.41,.44l-1.71,.03c.88,.76,2.21-.03,3.12,.11l-.12,.33c2.39-.1,2.64-.81,4.81-.88,1.08,.3,2.22,.56,3.6,.3l.08,.14c.7-.14,2.14-.48,3.56-.72,.18,.04,.28,.11,.23,.22,.12-.08,.39-.45,.86-.23v.08c-1.11,.42-2.69,.69-3.76,.99,1.01,0,3.42-.06,3.95-.48-.41,.08-.92,.29-1.32,.16,.35-.19,.74-.34,1.16-.48v.06l2.66-.52c.17-.01,.35-.02,.53-.02,.23,.04,.39,.09,.51,.14,0,.2,.12,.35,.32,.46,.04,.36,0,.73,1.89,.77,.47-.05,1.1-.21,1.67-.39,.5,.01,1,.03,1.5,.04,.05-2.12,.15-4.14,.47-5.24-.44-4.85,.19-9.62,.12-15.27-.93,2-.04-1.62-.98-1.3v-.06c-.02-.22-.03-.41-.04-.58,.18-.41,.48-.57,.56,.47,.05-.27,.07-.48,.09-.67,.13,.09,.25-.09,.34-.89-.17,.77-.28,.37-.39-.15-.04-.31-.06-.63,.09-1.28,.06-.16,.09-.09,.11,.06l-.19-1.67c.14,.33,.46-.28,.37,.75,.03-.27,.05-.52,.06-.78h0c.01-.22,.02-.43,.02-.63,.11-1.98,.4-.74,.64-2.48-.34,.39-.49-1-.36-2.64Zm-.92,6.73c-.05,.23-.1,.32-.16,.33l.12-.81c.01,.15,.03,.31,.04,.48Zm-5.36,21.37c-.15-.11-.32-.2-.54-.25l-.4,.2c-.47-.03-.94-.06-1.41-.09-.1-.06-.25-.11-.51-.15-.07,.04-.12,.07-.16,.11-.6-.04-1.19-.07-1.79-.11-2.99-.22-5.99-.48-8.94-.62-1.22-.05-1.63,.38-2.05,.76-.44-.08-.73-.24-.61-.57-.4,.34-1.02,.5-1.74,.59l.56-.42c-2,.32-4.03,.39-6.06,.4-.33-.11-.61-.23-.99-.33-.02,.12-.09,.23-.17,.32-.85,0-1.69-.01-2.53-.02,.16-.15,.24-.31,.12-.52,.03,.24-.29,.4-.69,.52-.89,0-1.78,.02-2.66,.06-.07-.07-.14-.16-.24-.28-.02,.12-.06,.22-.1,.29-.86,.05-1.72,.11-2.56,.23h-.02c.27-.17,.3-.37,.79-.37-.56-.27-1.62-.26-2.51-.14-.18-.28,.96-.55,.96-.55-1.07-.01-1.17,.26-1.16,.58-.75,.12-1.34,.32-1.34,.51-.04,0-.06,0-.09-.01-.17-.23,.04-.6-.39-.83-.29,.05-.57,.12-.84,.2-1.02,.05-2.22,.61-2.69,.19-.06-.05,.09-.11,.25-.15-.93,.14-3-.06-2.38,.47-1.22-.18-2.38-.03-3.46,.02,.15-.09,.06-.12-1-.1,.05,.03,.08,.06,.12,.1-.31-.01-.61-.04-.91-.11-.31,.21-.75,.25-1.22,.25,.01-.21,1.17,.2,.44-.52,.25,.12,.51,.21,.78,.27,.08-.05,.17-.09,.22-.16l-1.11-.22s-.03-.03-.05-.04c-2.59-.21-2.9,.37-5.49,.16-.13,.09-.18,.17-.21,.24-.64,.06-1.24,.18-1.62,.32,.41-.29-1.06-.3-.58-.71-.73,0-1.43,.06-1.9,.18-.39-.15-.88-.17-1.68,.11-.03,.02-.06,.05-.09,.07-.77-.09-1.53,.01-2.23,.13l.08-.1c-.93-.03-1.37,.12-1.68,.3-.6,.01-1.14-.11-1.57-.55-.77,.1-1.51,.18-2.26,.27-2.61,.13-5.46,.63-8.33,.76,.11-.14,.35-.29,.32-.43,1.17-.06,2.6,.02,2.5-.6-1.01,.11-1.9,.26-2.73,.41-.04-.02-.07-.03-.12-.05-1.75,.17-3.6,.16-5.45,.06h.02s-.06,0-.09,0c-2.08-.12-4.16-.35-6.06-.57l-1.38,.63c-.32,0-.59-.28-.25-.41-1.33-.23-.21,.33-.66,.6-.14,.01-.28,.02-.41,.03-.17-.02-.29-.07-.37-.12,.05,0,.1,0,.14-.02,.55-.11,.24-.08-.15,0-.16-.12-.12-.3,.16-.4-1.37,.29-3.38,.61-5.34,.73,.06-.1,.15-.22,.3-.36-.31,.06-.68,.2-.8,.39-.19,0-.38,.01-.56,.02-.07-.1,.02-.23,.35-.41-.97,.1-1.37,.25-1.67,.38-.45-.02-.87-.07-1.27-.13,.04-.03,.08-.06,.12-.1-.07,.03-.14,.06-.22,.09-.2-.03-.39-.07-.57-.12l.51-.19c-1.73-.22-2.18,.86-3.44,.83,.03-.1-.02-.2,.2-.24-.24,0-.48,.02-.72,.04l.14-.04c-2.8-.17-5.78,0-8.44-.1-.12-.07-.22-.17-.25-.31l-1.44,.2c-.9-.09-1.75-.22-2.52-.43-.64,.91-4.37-.4-4.65,.86-2.52-.63-1.8-.85-5.34-1.27-.95-.06-1.41,.79-2.58,.92l-.03-.66-1.59,.69-.85-.79-1.1,.17c.44,.04,.93,.3,.86,.49-1.72,.3-4.18-.46-4.23-.8l-4.06,.56c.07-.2,.48-.3,.9-.41-1.52,.37-.13-.76-1.97-.19,.27,.15-.14,.39-.19,.53-.99-.4-3.24-.4-4.91-.23l.32-.46c-3.01-.12-6.35,.22-9.73,.21,1.21,.21,.93,1-.06,1.08l-.4-.7c-.64,.43,1.04,.26-.28,.79-1.26-.08-.85-.79-.12-1.02l-1.53,.24c-.09-.21,.27-.32,.36-.58-.63,.43-2.65-.7-3.56,.05l-.09-.21c-3.38,0-4.91,.23-7.66,.27-.05,.6-1.13,.47-1.95,.96-2.02-.19-4.27-.67-6.7-.61-1.71,.3-.5,.51-1.27,.87-.13-.55-2.56-.5-1.3-.89-2.92,.09-3.74,.11-7.43,.55,.4,.23,.85,.32,.62,.51-.33,.05-.72-.01-1-.11-.15-.1-.22-.25-.18-.38l.08-.06c-.3,.14-.7,.19-1.04,.17,0-.3,.03-.61,.07-.9l.06-.43,.03-.2c.01-.07,.02-.3,.04-.44,.11-1.3,.21-2.61,.32-3.87,.19-2.52,.29-4.88-.05-6.74l.04,.25-.44-4.68c.07-2.15,.3,1.29,.55-.3-.67-5.05,.1-7.98-.35-12.14,1.19-3.22-.08-11.43,.67-15.77l-.28,.25c-.27-1.12,.16-1.36,.22-2.19-.22,.12-.25,1.22-.4,.52l-.04-1.24v-.4l-.03-.18c-.01-.21-.02-.43-.02-.65,.59,.25,1.05,.15,1.48-.03,.28,.01,.55,.02,.83,.04,.15,.11,.32,.2,.54,.25l.4-.2c.47,.03,.94,.06,1.41,.09,.1,.06,.25,.11,.51,.15,.07-.04,.12-.07,.16-.11,.6,.04,1.19,.07,1.79,.11,2.99,.22,5.99,.48,8.94,.62,1.22,.05,1.63-.38,2.05-.76,.44,.08,.73,.24,.61,.57,.4-.34,1.02-.5,1.74-.59l-.56,.42c2-.32,4.03-.39,6.06-.4,.33,.11,.61,.23,.99,.33,.02-.12,.09-.23,.17-.32,.85,0,1.69,.01,2.53,.02-.16,.15-.24,.31-.12,.52-.03-.24,.29-.4,.69-.52,.89,0,1.78-.02,2.66-.06,.07,.07,.14,.16,.24,.28,.02-.12,.06-.22,.1-.29,.86-.05,1.72-.11,2.56-.23h.02c-.27,.17-.3,.37-.79,.37,.56,.27,1.62,.26,2.51,.14,.18,.28-.96,.55-.96,.55,1.07,.01,1.17-.26,1.16-.58,.75-.12,1.34-.32,1.34-.51,.04,0,.06,0,.09,.01,.17,.23-.04,.6,.39,.83,.29-.05,.57-.12,.84-.2,1.02-.05,2.22-.61,2.69-.19,.06,.05-.09,.11-.25,.15,.93-.14,3,.06,2.38-.47,1.22,.18,2.38,.03,3.46-.02-.15,.09-.06,.12,1,.1-.05-.03-.08-.06-.12-.1,.31,.01,.61,.04,.91,.11,.31-.21,.75-.25,1.22-.25-.01,.21-1.17-.2-.44,.52-.25-.12-.51-.21-.78-.27-.08,.05-.17,.09-.22,.16l1.11,.22s.03,.03,.05,.04c2.59,.21,2.9-.37,5.49-.16,.13-.09,.18-.17,.21-.24,.64-.06,1.24-.18,1.62-.32-.41,.29,1.06,.3,.58,.71,.73,0,1.43-.06,1.9-.18,.39,.15,.88,.17,1.68-.11,.03-.02,.06-.05,.09-.07,.77,.09,1.53-.01,2.23-.13l-.08,.1c.93,.03,1.37-.12,1.68-.3,.6-.01,1.14,.11,1.57,.55,.77-.1,1.51-.18,2.26-.27,2.61-.13,5.46-.63,8.33-.76-.11,.14-.35,.29-.32,.43-1.17,.06-2.6-.02-2.5,.6,1.01-.11,1.9-.26,2.73-.41,.04,.02,.07,.03,.12,.05,1.75-.17,3.6-.16,5.45-.06h-.02s.06,0,.09,0c2.08,.12,4.16,.35,6.06,.57l1.38-.63c.32,0,.59,.28,.25,.41,1.33,.23,.21-.33,.66-.6,.14-.01,.28-.02,.41-.03,.17,.02,.29,.07,.37,.12-.05,0-.1,0-.14,.02-.55,.11-.24,.08,.15,0,.16,.12,.12,.3-.16,.4,1.37-.29,3.38-.61,5.34-.73-.06,.1-.15,.22-.3,.36,.31-.06,.68-.2,.8-.39,.19,0,.38-.01,.56-.02,.07,.1-.02,.23-.35,.41,.97-.1,1.37-.25,1.67-.38,.45,.02,.87,.07,1.27,.13-.04,.03-.08,.06-.12,.1,.07-.03,.14-.06,.22-.09,.2,.03,.39,.07,.57,.12l-.51,.19c1.73,.22,2.18-.86,3.44-.83-.03,.1,.02,.2-.2,.24,.24,0,.48-.02,.72-.04l-.14,.04c2.8,.17,5.78,0,8.44,.1,.12,.07,.22,.17,.25,.31l1.44-.2c.9,.09,1.75,.22,2.52,.43,.64-.91,4.37,.4,4.65-.86,2.52,.63,1.8,.85,5.34,1.27,.95,.06,1.41-.79,2.58-.92l.03,.66,1.59-.69,.85,.79,1.1-.17c-.44-.04-.93-.3-.86-.49,1.72-.3,4.18,.46,4.23,.8l4.06-.56c-.07,.2-.48,.3-.9,.41,1.52-.37,.13,.76,1.98,.19-.27-.15,.14-.39,.19-.53,.99,.4,3.24,.4,4.91,.23l-.32,.46c3.01,.12,6.35-.22,9.73-.21-1.21-.21-.93-1,.06-1.08l.4,.7c.64-.43-1.04-.26,.28-.79,1.26,.08,.85,.79,.12,1.02l1.53-.24c.09,.21-.27,.32-.36,.58,.63-.43,2.65,.7,3.56-.05l.09,.21c3.38,0,4.91-.23,7.66-.27,.05-.6,1.13-.47,1.95-.96,2.02,.19,4.27,.67,6.7,.61,1.71-.3,.5-.51,1.27-.87,.13,.55,2.56,.5,1.3,.89,2.92-.09,3.74-.11,7.43-.55-.4-.23-.85-.32-.62-.51,.33-.05,.72,.01,1,.11,.15,.1,.22,.25,.18,.38l-.08,.06c.3-.14,.7-.19,1.04-.17,0,.3-.03,.61-.07,.9l-.06,.43-.03,.2c-.01,.07-.02,.3-.04,.44-.11,1.3-.21,2.61-.32,3.87-.19,2.52-.29,4.88,.05,6.74l-.04-.25,.44,4.68c-.07,2.15-.3-1.29-.55,.3,.67,5.05-.1,7.98,.35,12.14-1.19,3.22,.08,11.43-.67,15.77l.28-.25c.27,1.12-.16,1.36-.22,2.19,.22-.12,.25-1.22,.4-.52l.04,1.24v.4l.03,.18c.01,.21,.02,.43,.02,.65-.59-.25-1.05-.15-1.48,.03-.28-.01-.55-.02-.83-.04ZM1.28,27.1c.05-.23,.1-.32,.16-.33l-.12,.81c-.01-.15-.03-.31-.04-.48ZM4.33,5.63c.21,0,.44,0,.65,.03h-.65v-.03ZM195.67,54.37c-.21,0-.44,0-.65-.03h.65v.03ZM98.13,1.55l.43,.06c-.17,.2-.46,.28-.87,.33-.07,0-.14-.02-.22-.03l.65-.36Zm-7.43-.03c-.09,.04-.16,.07-.24,.1-.28-.02-.55-.04-.81-.03,.41-.06,.78-.1,1.04-.06Zm-2.73,.23c-.71,.12-1.35,.24-2.02,.17l.02-.5c1.57,.02,2.71,.05,2.57,.08,0-.12-.08-.22-.19-.3l1.76-.19-2.14,.74Zm-.07-.84c-.13-.09-.22-.18-.23-.29,.17,.14,.26,.22,.23,.29Zm-8.59-.24c.56-.09,.75,.03,.83,.16-.27,.01-.58,.03-.99,.07-.02,.02-.05,.05-.07,.07,.05-.12,.12-.22,.22-.3Zm22.56,57.78l-.43-.06c.17-.2,.46-.28,.87-.33,.07,0,.14,.02,.22,.03l-.65,.36Zm7.43,.03c.09-.04,.16-.07,.24-.1,.28,.02,.55,.04,.81,.03-.41,.06-.78,.1-1.04,.06Zm2.73-.23c.71-.12,1.35-.24,2.02-.17l-.02,.5c-1.57-.02-2.71-.05-2.57-.08,0,.12,.08,.22,.19,.3l-1.76,.19,2.14-.74Zm.07,.84c.13,.09,.22,.18,.23,.29-.17-.14-.26-.22-.23-.29Zm8.59,.24c-.56,.09-.75-.03-.83-.16,.27-.01,.58-.03,.99-.07,.02-.02,.05-.05,.07-.07-.05,.12-.12,.22-.22,.3Z"/><path class="cls-1" d="M146.08,5.94s-.09,.02-.13,.04c.04-.01,.09-.02,.13-.04Z"/><path class="cls-1" d="M145.94,5.97c-.09,.02-.18,.05-.27,.08,.1-.03,.18-.05,.27-.08Z"/><path class="cls-1" d="M152.85,53.82c.1-.01,.19-.03,.25-.06-.07,.01-.16,.03-.25,.06Z"/><path class="cls-1" d="M78.3,1.46c-.08,.01-.13,.04-.23,.04,.12,.05,.22,.1,.34,.14l.2-.19h-.3Z"/><polygon class="cls-1" points="136.03 6 136.02 5.84 135.71 5.98 136.03 6"/><path class="cls-1" d="M136.38,53.78h0Z"/><path class="cls-1" d="M.34,53.92c-.08-1.97-.25-.07-.34-.05,.16,1.54,.19,1.77,.34,.05Z"/><path class="cls-1" d="M181.64,58.38c.39,.34,1.39,.55,2.01,.22-.8-.05-1.6-.31-2.01-.22Z"/><polygon class="cls-1" points="146.21 .36 144.86 .54 145.49 .58 146.21 .36"/></g></g></svg>