<?xml version="1.0" encoding="UTF-8"?><svg id="_イヤー_2" xmlns="http://www.w3.org/2000/svg" viewBox="0 0 187.69 38.57"><defs><style>.cls-1{fill:#eda184;}</style></defs><g id="_イヤー_1-2"><g><path class="cls-1" d="M187.34,14.9l.06,.47-.06-.47Z"/><path class="cls-1" d="M186.88,35.48l-.2,.03c-.02,.11-.04,.23-.04,.34l.24-.37Z"/><path class="cls-1" d="M93.22,.25h.05c.3-.06,.13-.05-.05,0Z"/><path class="cls-1" d="M66.92,.61c.05,.11,.16,.19,.27,.26,0-.06-.07-.14-.27-.26Z"/><path class="cls-1" d="M86.51,1.47l-.48-.08c.19,.05,.35,.07,.48,.08Z"/><path class="cls-1" d="M56.53,1.41c.06,.02,.13,.03,.22,.05-.08-.03-.15-.04-.22-.05Z"/><path class="cls-1" d="M56.53,1.41c-.13-.03-.25-.05-.49,0,.03,.03,.07,.05,.11,.07,.09-.06,.21-.09,.39-.07Z"/><path class="cls-1" d="M46.15,1.47c.06,.05,.13,.08,.2,.12l.34-.03-.53-.09Z"/><path class="cls-1" d="M118.82,36.93l-.18,.19h.27c.07-.02,.11-.05,.21-.05-.1-.05-.2-.1-.3-.14Z"/><polygon class="cls-1" points="121.4 .66 120.06 .86 121.05 .74 121.4 .66"/><path class="cls-1" d="M16.52,1.62c-.34-.34-1.23-.55-1.78-.22,.71,.05,1.42,.31,1.78,.22Z"/><polygon class="cls-1" points="58.92 38.22 60.12 38.03 59.56 37.99 58.92 38.22"/><path class="cls-1" d="M.36,23.68l-.06-.47,.06,.47Z"/><path class="cls-1" d="M.81,3.09l.2-.03c.02-.11,.04-.23,.04-.34l-.24,.37Z"/><path class="cls-1" d="M94.48,38.32h-.05c-.3,.06-.13,.04,.05,0Z"/><path class="cls-1" d="M120.78,37.96c-.05-.11-.16-.19-.27-.26,0,.06,.07,.14,.27,.26Z"/><path class="cls-1" d="M101.18,37.1l.48,.08c-.19-.05-.35-.07-.48-.08Z"/><path class="cls-1" d="M131.17,37.16c.13,.03,.25,.05,.49,0-.03-.03-.07-.05-.11-.07-.09,.06-.21,.09-.39,.07Z"/><path class="cls-1" d="M131.17,37.16c-.06-.02-.13-.03-.22-.05,.08,.03,.15,.04,.22,.05Z"/><path class="cls-1" d="M141.54,37.11c-.06-.05-.13-.08-.2-.12l-.34,.03,.53,.09Z"/><path class="cls-1" d="M187.43,10.53c-.09-.72-.14-1.29,.08-1.73l.04,.22c-.11-1.84-.23-1.93-.39-1.9-.05,0-.09,.02-.15,.01l.02-.1,.07-.29c.02-.12,.05-.34,.07-.52,.04-.38,.08-.8,.1-1.28,0-.19,.01-.4,.02-.61,.13-.34,.26-.7,.39-1.11-.13,0-.26,.03-.39,.07-.01-.61-.05-1.28-.11-2.01,.1,.56,.2,1.17,.3,1.82-.04-.74-.06-1.75-.08-2.94-.79,.02-1.67,.04-2.58,.07-.45,.02-.9,.03-1.36,.05l-.67,.03c-.27,.01-.3,.03-.44,.04-.95,.12-1.82,.33-2.34,.74-.24-.15-.55-.51,.04-.6-3.22-.16-7.17,1.12-9.67,.47l.24-.32c-.6,.09-1.05,.6-1.8,.28,.04-.13,.24-.32-.04-.34-.32,.11-1.6,.56-2.39,.37l.68-.36c-3.14-.42-4.82,.88-7.45,1.1,0-.94-2.46-1.25-3.7-1.4l.04-.13c-3.66-.12-6.21,.78-9.6,1.15-2.1-1.02-7.12-.43-10.5-1,.52,.17-.08,.73-.68,.83-.79-.19-2.19,.65-2.07-.21l.28,.02c-.6-.85-2.23-.62-3.5-.65l-.21,1.13c-1.15-.57-2.55-.67-3.97-.62-.6-.04-1.18,.01-1.74,.11-2.04,.17-3.9,.39-4.83-.36-.66,.23-1.44,.28-2.14,.44-.18-.08-.32-.13-.43-.15l.02-.33c-2.22-.15-3.34-.23-6.09-.09L111.11,0c-.8-.02-1.29,.44-1.78,.9,0-.04,.01-.08,.06-.13-.7,.16-.68,.29-.36,.4-.02,.01-.03,.03-.05,.04-.57-.07-1.07-.07-1.57-.06l-.13-.27c-2.48,.01-5-.64-7.46-.11-.19,0-.38,0-.57-.03,.07-.11,.2-.23,.48-.25-.52,0-1.44-.11-2.31-.15-.25-.06-.48-.12-.68-.14l.9-.21c-.54,.12-.98,.12-1.43,.12l.23,.23c-.23,.01-.44,.04-.62,.08-.03-.03-.06-.06-.06-.1-.08,.05-.13,.11-.15,.17-.31,.12-.45,.32-.34,.63-.02-.42-.76-.42-1.68-.28-.06-.18-.01-.35,.74-.39-.36,.08-.8,.08-1.33-.01-.08-.08,.08-.14,.22-.18-2.12-.6-.98,.76-3.18,.75,.28-.38-.51-.72-.87-.64,.89,0,.42,.63-.39,.93-1.41-.3-1.53,.22-2.27,.19l.84,.14c-.19,.25-.58,.31-1.11,.36-.15,0-.32-.03-.52-.07l.15-.09c.1-.02,.15-.03,.1-.06l.36-.23c-1.06-.03-1.25,.07-1.62,.32-.84-.18-1.78-.66-2.78-.36-.71-.26-.07-.71-.69-.89-1.71,.49-1.85-.52-3.64-.11,.41,.4,.54,.41-.03,.64-.37-.28-.91-.48-.05-1.03-.53,.18-1.22,.45-1.95,.68-.97-.1-1.87,.11-2.87,.29-.04-.03-.08-.06-.1-.1l.15-.06c-.34-.05-.64,0-.93,.09-.47-.09-.76-.16-1.21-.17-.17-.46-1.72-.25-2.47-.27,.04,.41-.38,.5-.38,.66-.17-.12-.39-.22-.57-.34,.04,.25-1.24,.09-1.9,.43-.36-.17-.64-.34-.73-.5-1.62,.24-3.65,.26-5.2,.65,.09-.12,.29-.23,.79-.34-.71,0-1.35-.08-1.36,.21-.18-.12-.6-.02-1.05,.09,.01,0,.03-.01,.04-.02-.39,.09-.88,.13-1.4,.17-.08-.02-.16-.04-.22-.08-.05,.03-.09,.07-.13,.11-1.1,.09-2.2,.2-2.4,.69-.12-.04-.24-.07-.37-.1-.81-.32,1.06-.61-.97-.49l.3-.24c-1.44-.41-2.7-.34-3.93-.11,.14-.25,0-.55-.61-.41l.18,.49c-.49,.1-.98,.23-1.47,.35-.14-.05-.27-.12-.4-.19-1.55,.14-3.43,.28-4.84,.31,.09-.13,0-.21,.27-.17-.66-.13-1.01-.03-1.27,.14-.02,0-.03,0-.05-.01h.05c-.09,.07-.17,.14-.25,.21-.43-.04-.85-.09-1.28-.11,0-.02-.03-.04-.13-.08-.31-1.39-2.67,.19-4.16-.62l.36-.08c-1.14-.47-2.78,.53-4.64,.43,0,0,.09-.12,.01-.21-.59,.33-1.42,.55-2.33,.72-.86-.03-1.71-.1-2.56-.21-.02-.05-.06-.12-.12-.21-.18,.02-.26,.07-.31,.15-.37-.05-.75-.09-1.12-.17-.84-.12-1.28-.03-1.66,.14-.05-.07-.09-.14-.11-.22l1.51-.03c-.77-.76-1.96,.03-2.75-.11l.1-.33c-2.32,.11-2.35,.95-4.84,.89l.03,.03c-.82-.26-1.67-.5-2.66-.43l-.02-.05c-.13,.03-.29,.07-.48,.11-.17,.03-.34,.07-.52,.13-.7,.17-1.57,.38-2.42,.54-.32-.02-.55-.06-.61-.17,.98-.4,2.32-.66,3.23-.95-.89,0-3.02,.06-3.49,.48,.36-.08,.81-.29,1.16-.16-.49,.3-1.06,.52-1.68,.68l-.03-.26-2.5,.56s-.06,0-.1,0c.1-.51-.32-.75-.98-.86-.07-.27-.34-.5-1.64-.53-.41,.05-.95,.2-1.44,.38-.27,0-.55-.02-.82-.03,0,.13,0,.26-.01,.39-.37,.2-.58,.38-.42,.47,.12,0,.26,.02,.41,.06,0,.21-.02,.43-.03,.63l-.22,.04c-.01,.06-.03,.13-.04,.19h-.16v.62c-.06,.27-.09,.54,0,.79v1.4H.81V14.57c-.07,1.48-.12,3.02-.12,4.63H.69c0,.2,0,.39,0,.59,.04-.07,.07-.12,.1-.18l.02,.07v2.08c-.09-.06-.17-.26-.21-.67-.32,1.51,.23,1.34-.13,2.64-.06,.14-.09,.08-.11-.05l.19,1.48c-.14-.29-.46,.25-.37-.66-.15,1.07-.1,1.97-.02,2.73-.06,.14-.11,.35-.17,.7,.11-.11,.2-.05,.26,.12,.09,.72,.14,1.29-.08,1.73l-.04-.22c.11,1.84,.23,1.93,.39,1.9,.05,0,.09-.02,.15-.01l-.02,.1-.07,.29c-.02,.12-.05,.34-.07,.52-.04,.38-.08,.8-.1,1.28,0,.19-.01,.4-.02,.61-.13,.34-.26,.7-.39,1.11,.13,0,.26-.03,.39-.07,.01,.61,.05,1.28,.11,2.01-.1-.56-.2-1.17-.3-1.82,.04,.74,.06,1.75,.08,2.94,.79-.02,1.67-.04,2.58-.07,.45-.02,.9-.03,1.36-.05l.67-.03c.27-.01,.3-.03,.44-.04,.95-.12,1.82-.33,2.34-.74,.24,.15,.55,.51-.04,.6,3.22,.16,7.17-1.12,9.67-.47l-.24,.32c.6-.09,1.05-.6,1.8-.28-.04,.13-.24,.32,.04,.34,.32-.11,1.6-.56,2.39-.37l-.68,.36c3.14,.42,4.82-.88,7.45-1.1,0,.94,2.46,1.25,3.7,1.4l-.04,.13c3.66,.12,6.21-.78,9.6-1.15,2.1,1.02,7.12,.43,10.5,1-.52-.17,.08-.73,.68-.83,.79,.19,2.19-.65,2.07,.21l-.28-.02c.6,.85,2.23,.62,3.5,.65l.21-1.13c1.15,.57,2.55,.67,3.97,.62,.6,.04,1.18-.01,1.74-.11,2.04-.17,3.9-.39,4.83,.36,.66-.23,1.44-.28,2.14-.44,.18,.08,.32,.13,.43,.15l-.02,.33c2.22,.15,3.34,.23,6.09,.09l-.56,.43c.8,.02,1.29-.44,1.78-.9,0,.04-.01,.08-.06,.13,.7-.16,.68-.29,.36-.4,.02-.01,.03-.03,.05-.04,.57,.07,1.07,.07,1.57,.06l.13,.27c2.48-.01,5,.64,7.46,.11,.19,0,.38,0,.57,.03-.07,.11-.2,.23-.47,.25,.52,0,1.44,.11,2.31,.15,.25,.06,.48,.12,.68,.14l-.9,.21c.54-.12,.98-.12,1.43-.12l-.23-.23c.23-.01,.44-.04,.62-.08,.03,.03,.06,.06,.06,.1,.08-.05,.13-.11,.15-.17,.31-.12,.45-.32,.34-.63,.02,.42,.76,.42,1.68,.28,.06,.18,.01,.35-.74,.39,.36-.08,.8-.08,1.33,.01,.08,.08-.08,.14-.22,.18,2.12,.6,.98-.76,3.18-.75-.28,.38,.51,.72,.87,.64-.89,0-.42-.63,.39-.93,1.41,.3,1.53-.22,2.27-.19l-.84-.14c.19-.25,.58-.31,1.11-.36,.15,0,.32,.03,.52,.07l-.15,.09c-.1,.02-.15,.03-.1,.06l-.36,.23c1.06,.03,1.25-.07,1.62-.32,.84,.18,1.78,.66,2.78,.36,.71,.26,.07,.71,.69,.89,1.71-.49,1.85,.52,3.64,.11-.41-.4-.54-.41,.03-.64,.37,.28,.91,.48,.05,1.03,.53-.18,1.22-.45,1.95-.68,.97,.1,1.87-.11,2.87-.29,.04,.03,.08,.06,.1,.1l-.15,.06c.34,.05,.64,0,.93-.09,.47,.09,.76,.16,1.21,.17,.17,.46,1.72,.25,2.47,.27-.04-.41,.38-.5,.38-.66,.17,.12,.39,.22,.57,.34-.04-.25,1.24-.09,1.9-.43,.36,.17,.64,.34,.73,.5,1.62-.24,3.65-.26,5.2-.65-.09,.12-.29,.23-.79,.34,.71,0,1.35,.08,1.36-.21,.18,.12,.6,.02,1.05-.09-.01,0-.03,.01-.04,.02,.39-.09,.88-.13,1.4-.17,.08,.02,.16,.04,.22,.08,.05-.03,.09-.07,.13-.11,1.1-.09,2.2-.2,2.4-.69,.12,.04,.24,.07,.37,.1,.81,.32-1.06,.61,.97,.49l-.3,.24c1.44,.41,2.7,.34,3.93,.11-.14,.25,0,.55,.61,.41l-.18-.49c.49-.1,.98-.23,1.47-.35,.14,.05,.27,.12,.4,.19,1.55-.14,3.43-.28,4.84-.31-.09,.13,0,.21-.27,.17,.66,.13,1.01,.03,1.27-.14,.02,0,.03,0,.05,.01h-.05c.09-.07,.17-.14,.25-.21,.43,.04,.85,.09,1.28,.11,0,.02,.03,.04,.13,.08,.31,1.39,2.67-.19,4.16,.62l-.36,.08c1.14,.47,2.78-.53,4.64-.43,0,0-.09,.12-.01,.21,.59-.33,1.42-.55,2.33-.72,.86,.03,1.71,.1,2.56,.21,.02,.05,.06,.12,.12,.21,.18-.02,.26-.07,.31-.15,.37,.05,.75,.09,1.12,.17,.84,.12,1.28,.03,1.66-.14,.05,.07,.09,.14,.11,.22l-1.51,.03c.77,.76,1.96-.03,2.75,.11l-.1,.33c2.32-.11,2.35-.95,4.84-.89l-.03-.03c.82,.26,1.67,.5,2.66,.43l.02,.05c.13-.03,.29-.07,.47-.11,.17-.03,.34-.07,.52-.13,.7-.17,1.57-.38,2.42-.54,.32,.02,.55,.06,.61,.17-.98,.4-2.32,.66-3.23,.95,.89,0,3.02-.06,3.49-.48-.36,.08-.81,.29-1.16,.16,.49-.3,1.06-.52,1.68-.68l.03,.26,2.5-.56s.06,0,.09,0c-.1,.51,.32,.75,.98,.86,.07,.27,.34,.5,1.64,.53,.41-.05,.95-.2,1.44-.38,.27,0,.55,.02,.82,.03,0-.13,0-.26,.01-.39,.37-.2,.58-.38,.42-.47-.12,0-.26-.02-.41-.06,0-.21,.02-.43,.03-.63l.22-.04c.01-.06,.03-.13,.04-.19h.16v-.62c.06-.27,.09-.54,0-.79v-1.4h0v-8.52c.07-1.48,.12-3.02,.12-4.63h0c0-.2,0-.39,0-.59-.04,.07-.07,.12-.1,.18l-.02-.07v-2.08c.09,.06,.17,.26,.21,.67,.32-1.51-.23-1.34,.13-2.64,.06-.14,.09-.08,.11,.05l-.19-1.48c.14,.29,.46-.25,.37,.66,.15-1.07,.1-1.97,.02-2.73,.06-.14,.11-.35,.17-.7-.11,.11-.2,.05-.26-.12ZM.81,24.12v.84c-.02-.21-.05-.41-.07-.64,.02-.09,.05-.15,.07-.2ZM186.88,14.45v-.84c.02,.21,.05,.41,.07,.64-.02,.09-.05,.15-.07,.2ZM80.41,1.51c-.77,.36-.81,.32-.55,.56-.08,0-.16,0-.23-.02-.11-.2,.19-.33,.34-.39-.21-.04-.4-.05-.59-.06,.41-.07,.77-.12,1.03-.08Zm-.52-.51l-1.48,.58c-.84,.07-1.52,.28-2.2,.33l.02-.49c1.02,.02,1.69,.04,1.6,.07,0-.09-.04-.16-.1-.23l2.16-.26Zm-10.22-.34c.5-.09,.66,.03,.73,.16-.24,.01-.51,.03-.87,.07-.01,.02-.04,.05-.06,.07,.05-.12,.1-.22,.2-.3Zm-.9,.79c.11-.02,.25-.03,.32-.06l-.05,.05c.4,0,.91-.02,1.48-.03l.1,.02c-.25,.34-.95,.25-1.65,.22-.04-.01-.07-.01-.11-.03l-.02,.02c-.28,0-.56,0-.81,.06,.02-.09,0-.17-.03-.24,.04,.03,.08,.05,.14,.08-.12-.04,.14-.07,.64-.1ZM9.21,2.32s.07-.03,.1-.04c-.03,.02-.07,.03-.1,.04ZM107.28,37.06c.77-.36,.81-.32,.55-.56,.08,0,.16,0,.23,.02,.11,.2-.19,.33-.34,.39,.21,.04,.4,.05,.59,.06-.41,.07-.77,.12-1.03,.08Zm.52,.51l1.48-.58c.84-.07,1.52-.28,2.2-.33l-.02,.49c-1.02-.02-1.69-.04-1.6-.07,0,.09,.04,.16,.1,.23l-2.16,.26Zm10.22,.34c-.5,.09-.66-.03-.73-.16,.24-.01,.51-.03,.87-.07,.01-.02,.04-.05,.06-.07-.05,.12-.1,.22-.2,.3Zm.9-.79c-.11,.02-.25,.03-.32,.06l.05-.05c-.4,0-.91,.02-1.48,.03l-.1-.02c.25-.34,.95-.25,1.65-.22,.04,.01,.07,.01,.11,.03l.02-.02c.28,0,.56,0,.81-.06-.02,.09,0,.17,.03,.24-.04-.03-.08-.05-.14-.08,.12,.04-.14,.07-.64,.1Zm59.57-.86s-.07,.03-.1,.04c.03-.02,.07-.03,.1-.04Z"/><path class="cls-1" d="M68.87,1.64l.18-.19h-.27c-.07,.02-.11,.05-.21,.05,.1,.05,.2,.1,.3,.14Z"/><polygon class="cls-1" points="66.29 37.91 67.63 37.71 66.64 37.83 66.29 37.91"/><path class="cls-1" d="M171.18,36.95c.34,.34,1.23,.55,1.78,.22-.71-.05-1.42-.31-1.78-.22Z"/><polygon class="cls-1" points="128.77 .36 127.58 .54 128.14 .58 128.77 .36"/></g></g></svg>