<?xml version="1.0" encoding="UTF-8"?><svg id="_イヤー_2" xmlns="http://www.w3.org/2000/svg" viewBox="0 0 254.96 56.01"><defs><style>.cls-1{fill:#eda184;}</style></defs><g id="_イヤー_1-2"><g><path class="cls-1" d="M253.81,31.39l.08,.5-.08-.5Z"/><path class="cls-1" d="M134.1,.23h.07c.43-.05,.19-.04-.07,0Z"/><path class="cls-1" d="M96.14,.57c.08,.1,.23,.17,.39,.25-.01-.06-.1-.13-.39-.25Z"/><path class="cls-1" d="M124.42,1.37l-.7-.08c.28,.05,.5,.07,.7,.08Z"/><path class="cls-1" d="M81.15,1.32c.09,.01,.19,.03,.31,.05-.12-.02-.22-.04-.31-.05Z"/><path class="cls-1" d="M81.15,1.32c-.19-.03-.37-.05-.71,0,.05,.03,.1,.05,.16,.07,.14-.06,.31-.09,.56-.07Z"/><path class="cls-1" d="M66.18,1.37c.08,.04,.19,.08,.28,.11l.48-.03-.77-.08Z"/><path class="cls-1" d="M80.84,5.8l-2.43-.08c.68,.05,1.56,.08,2.43,.08Z"/><path class="cls-1" d="M77.05,50.62c-.21-.01-.41,0-.56,.07l.56-.07Z"/><path class="cls-1" d="M140.47,4.71c-.08,0-.16,0-.24,.01,.1,0,.18,0,.24-.01Z"/><path class="cls-1" d="M60.11,5.77c-.12,.01-.24,.03-.32,.05,.09-.01,.21-.03,.32-.05Z"/><path class="cls-1" d="M68.74,50.46c.05,0,.11-.02,.17-.03-.06,.01-.12,.02-.17,.03Z"/><path class="cls-1" d="M68.91,50.43c.12-.02,.23-.05,.34-.07-.13,.03-.23,.05-.34,.07Z"/><path class="cls-1" d="M155.15,54.64c.1-.01,.16-.04,.3-.04-.15-.05-.29-.09-.43-.13l-.25,.18h.39Z"/><polygon class="cls-1" points="81.55 50.41 81.56 50.55 81.95 50.43 81.55 50.41"/><path class="cls-1" d="M81.11,5.81s0,0,0,0h0Z"/><path class="cls-1" d="M254.52,5.67c.1,1.83,.32,.07,.44,.04-.2-1.44-.25-1.65-.44-.04Z"/><path class="cls-1" d="M23.41,1.51c-.5-.32-1.78-.52-2.56-.21,1.02,.04,2.04,.29,2.56,.21Z"/><polygon class="cls-1" points="68.57 55.67 70.29 55.5 69.49 55.46 68.57 55.67"/><path class="cls-1" d="M1.14,24.62c-.02-.15-.06-.37-.08-.5l.08,.5Z"/><path class="cls-1" d="M120.86,55.77h-.07c-.43,.05-.19,.04,.07,0Z"/><path class="cls-1" d="M158.81,55.43c-.08-.1-.23-.17-.39-.25,.01,.06,.1,.13,.39,.25Z"/><path class="cls-1" d="M130.54,54.63l.7,.08c-.28-.05-.5-.07-.7-.08Z"/><path class="cls-1" d="M173.81,54.69c-.09-.01-.19-.03-.31-.05,.12,.02,.22,.04,.31,.05Z"/><path class="cls-1" d="M173.81,54.69c.19,.03,.37,.05,.71,0-.05-.03-.1-.05-.16-.07-.14,.06-.31,.09-.56,.07Z"/><path class="cls-1" d="M188.78,54.64c-.08-.04-.19-.08-.28-.11l-.48,.03,.77,.08Z"/><path class="cls-1" d="M174.12,50.21l2.43,.08c-.68-.05-1.56-.08-2.43-.08Z"/><path class="cls-1" d="M177.91,5.39c.21,.01,.41,0,.56-.07l-.56,.07Z"/><path class="cls-1" d="M114.49,51.3c.08,0,.16,0,.24-.01-.1,0-.18,0-.24,.01Z"/><path class="cls-1" d="M254.5,24.42l-.56,2.16c-.03-.2-.06-.39-.08-.57-.02-.41,0-.77,.19-1.07l.05,.23c-.05-.7-.1-1.15-.16-1.45,.27-1.12,.79-1.8,.38-4.19l.38,1.2c-.1-.86-.11-2.35-.17-3.91,.04,.11,.06,.31,.08,.61,.39-2.12,.14-1.43-.11-1.34-.08-1.48-.23-2.93-.56-3.92,.03-.02,.05-.05,.09-.06-.06-.09-.11-.12-.15-.12-.05-.12-.09-.24-.15-.34,.14-.34,.48-.8,.56,.06,.03-.96,0-1.97-.06-2.99,.04-.12,.09-.29,.15-.52-.09-.11-.15-.24-.2-.37-.01-.15-.01-.29-.03-.44l-.09-1.11,.05-.47c.14-1.15,.38-2.64,.29-3.59-.12,.1-.21,.04-.28-.15-.08,.02-.18,.03-.27,.05v-.14c.15-.05,.32-.09,.49-.12,.03,.09,.05,.22,.06,.36,.11-.09,.23-.27,.4-.63,0-.07,0-.13-.01-.18-.33,.05-.66,.24-.95,.43-.01-.29-.03-.6-.04-.89-1.68,.07-3.21,.12-4.63,.12-.83,0-1.09-.01-1.53-.04-.41-.03-.8-.07-1.17-.13l.35-.3c-.87,.09-1.51,.56-2.59,.26,.06-.12,.35-.3-.05-.32-.46,.1-2.3,.52-3.45,.35l.98-.34c-4.53-.39-6.95,.82-10.76,1.02,0-.88-3.56-1.17-5.34-1.31l.06-.12c-5.28-.11-8.96,.73-13.85,1.08-3.03-.96-10.28-.4-15.15-.94,.75,.16-.12,.69-.99,.77-.64-.1-1.54,.1-2.19,.15v-.04c-.21,.01-.33,.03-.41,.05-.27-.02-.44-.11-.38-.36l.41,.02c-.86-.79-3.21-.58-5.05-.6l-.3,1.06c-1.86-.59-4.16-.64-6.44-.56-1.24-.08-2.41,.03-3.52,.18-1.83,.09-3.46,.12-4.58-.18l1.05-.08,.51-.07-1.58,.15c-.24-.07-.46-.14-.65-.24-1.15,.26-2.56,.26-3.71,.52h-.03l.06-.56c-3.21-.14-4.81-.22-8.78-.08L160.9,0c-1.33-.02-2.08,.56-2.9,1.04-.52-.07-.82-.16-.56-.31-1.44,.21-.78,.37,.24,.48h0c-.78-.09-1.46-.12-2.1-.13l-.19-.26c-3.5,.01-7.03-.57-10.5-.15,.11-.04,.23-.07,.32-.1-.49,.09-.97,.12-1.43,.13,.1-.11,.28-.23,.71-.25-.96-.01-2.86-.17-4.36-.15-.34-.06-.65-.1-.94-.12l1.3-.19c-.78,.11-1.41,.11-2.06,.11l.44,.28c-.2,.03-.36,.07-.49,.12-.36-.04-.61-.09-.6-.21-.32,.13-.28,.28-.23,.44-.61-.1-1.69-.01-2.83,.14-.15-.19-.32-.42,1-.47-.52,.08-1.16,.07-1.93-.01-.11-.07,.11-.13,.32-.17-3.06-.56-1.41,.71-4.58,.7,.4-.35-.74-.67-1.25-.6,1.28,0,.61,.59-.56,.86-2.04-.28-2.21,.21-3.28,.17l.46,.05c-1.36-.01-1.61,.1-2.17,.35-1.35,.06-2.92-.64-4.64-.41,0,0-.02-.01-.02-.02,0,0-.02,.01-.03,.02-.07,.01-.14,0-.21,.02-1.02-.24-.1-.67-.99-.83-2.37,.44-2.67-.4-4.98-.13,.09-.1,.28-.2,.59-.33-.84,.19-1.98,.48-3.16,.71-1.36-.18-2.6-.06-3.93,.1l.2-.05c-.49-.05-.92,0-1.34,.08-.67-.08-1.1-.15-1.75-.15-.25-.43-2.49-.23-3.57-.25,.09,.56-1.33,.47,0,.94-.17-.04,.2-.07,.92-.09,.16-.02,.35-.03,.46-.06l-.07,.05c.36,0,.78-.01,1.24-.02h.06c-.22,.2-.68,.25-1.23,.25-.11-.02-.21-.02-.32-.05-.02,.02-.05,.03-.07,.05-.7-.02-1.48-.07-2.11,.02,.12-.4-.68-.54-1.23-.78,.04,.19-1.2,.12-2.17,.27-.32-.11-.56-.23-.65-.34-2.74,.26-6.26,.24-8.58,.83,0-.19,.03-.36,1.22-.54-1.03,0-1.95-.08-1.97,.2-.43-.18-1.68,.16-2.71,.24-.09,0-.19,0-.28,.01-.31,0-.59-.01-.81-.1-.11,.04-.2,.1-.29,.16-1.06,.08-1.96,.2-2.3,.48-.08,.03-.15,.06-.19,.09-2.15-.33,1.37-.66-1.83-.54l.44-.23c-2.56-.47-4.73-.26-6.88,.06,.5-.22,.47-.71-.64-.55l.33,.59c-.59,.09-1.18,.19-1.77,.28-.36-.07-.7-.15-1-.26-2.24,.13-4.95,.26-6.98,.29,.13-.12,0-.2,.39-.16-1.21-.16-1.7,.03-2.11,.26-.65-.03-1.3-.05-1.95-.07-.02-.02-.07-.03-.18-.06-.44-1.3-3.86,.18-6.01-.58l.52-.08c-1.64-.44-4.01,.49-6.7,.4,0,0,.13-.11,.02-.2-.8,.29-1.91,.49-3.12,.64-1.35-.04-2.69-.13-4.02-.27-.03-.03-.05-.06-.08-.09-.14,0-.24,.03-.31,.05-.25-.03-.51-.04-.77-.08-1.7-.16-2.26,.06-3.02,.34-.26-.12-.46-.25-.52-.41l2.18-.03c-1.12-.71-2.82,.02-3.97-.1l.15-.31c-3.05,.09-3.36,.75-6.13,.83-1.37-.28-2.82-.52-4.58-.28l-.1-.13c-.9,.13-2.73,.45-4.54,.68-.23-.04-.35-.1-.3-.21-.16,.07-.5,.42-1.1,.21v-.08c1.41-.39,3.43-.64,4.79-.92-1.28,0-4.36,.06-5.03,.45,.52-.08,1.17-.27,1.68-.15-.45,.18-.95,.32-1.48,.45v-.06l-3.39,.49c-.22,0-.45,.01-.68,.02-.29-.03-.5-.08-.65-.13,0-.19-.16-.33-.41-.43-.05-.33,0-.68-2.41-.72-.6,.05-1.4,.19-2.12,.37-.64-.01-1.28-.03-1.91-.04-.06,1.98-.19,3.86-.6,4.89,.57,4.53-.24,8.98-.15,14.25,1.19-1.86,.05,1.51,1.24,1.22l.02,.06c.01,.2,.02,.38,.03,.54-.24,.38-.61,.53-.72-.44-.06,.25-.09,.45-.11,.62-.16-.08-.31,.08-.43,.83,.21-.72,.36-.34,.5,.14,.06,.29,.08,.59-.12,1.2-.07,.15-.11,.08-.14-.06l.25,1.56c-.17-.31-.59,.26-.47-.7-.04,.25-.06,.49-.08,.73h0c-.02,.2-.03,.4-.03,.59-.13,1.85-.51,.69-.81,2.32,.44-.36,.63,.94,.46,2.47l.56-2.16c.04,.2,.06,.39,.08,.57,.02,.41-.01,.77-.19,1.07l-.05-.23c.05,.7,.1,1.15,.16,1.45-.27,1.12-.79,1.8-.38,4.19l-.38-1.2c.1,.86,.11,2.35,.17,3.91-.04-.11-.06-.31-.08-.61-.39,2.12-.14,1.43,.11,1.34,.08,1.48,.23,2.93,.56,3.92-.03,.02-.05,.05-.09,.06,.06,.09,.11,.12,.15,.12,.05,.12,.09,.24,.15,.34-.14,.34-.48,.8-.56-.06-.03,.96,0,1.97,.06,2.99-.04,.12-.09,.29-.15,.52,.09,.11,.15,.23,.2,.37,.01,.15,.01,.29,.03,.44l.09,1.11-.05,.47c-.14,1.15-.38,2.64-.29,3.59,.12-.1,.21-.04,.28,.15,.08-.02,.18-.03,.27-.05v.14c-.15,.05-.32,.09-.49,.12-.03-.09-.05-.22-.06-.36-.11,.09-.23,.27-.4,.63,0,.07,0,.13,.01,.18,.33-.05,.66-.24,.95-.43,.01,.29,.03,.6,.04,.89,1.68-.07,3.21-.12,4.63-.12,.83,0,1.09,.01,1.53,.04,.41,.03,.8,.07,1.17,.13l-.35,.3c.87-.09,1.51-.56,2.59-.26-.06,.12-.35,.3,.05,.32,.46-.1,2.3-.52,3.45-.35l-.98,.34c4.53,.39,6.95-.82,10.76-1.02,0,.88,3.56,1.17,5.34,1.31l-.06,.12c5.28,.11,8.96-.73,13.85-1.08,3.03,.96,10.28,.4,15.15,.94-.75-.16,.12-.69,.99-.77,.64,.1,1.54-.1,2.19-.15v.04c.21-.01,.33-.03,.41-.05,.27,.02,.44,.11,.38,.36l-.41-.02c.86,.79,3.21,.58,5.05,.6l.3-1.06c1.86,.59,4.16,.64,6.44,.56,1.24,.08,2.41-.03,3.52-.18,1.83-.09,3.46-.12,4.58,.18l-1.05,.08-.51,.07,1.58-.15c.24,.07,.46,.14,.65,.24,1.15-.26,2.56-.26,3.71-.52h.03l-.06,.56c3.21,.14,4.81,.22,8.78,.08l-.81,.4c1.33,.02,2.08-.56,2.9-1.04,.52,.07,.82,.16,.56,.31,1.44-.21,.78-.37-.24-.48h0c.78,.09,1.46,.12,2.1,.13l.19,.26c3.5-.01,7.03,.57,10.5,.15-.11,.04-.23,.07-.32,.1,.49-.09,.97-.12,1.43-.13-.1,.11-.28,.23-.71,.25,.96,.01,2.86,.17,4.36,.15,.34,.06,.65,.1,.94,.12l-1.3,.19c.78-.11,1.41-.11,2.06-.11l-.44-.28c.2-.03,.36-.07,.49-.12,.36,.04,.61,.09,.6,.21,.32-.13,.28-.28,.23-.44,.61,.1,1.69,.01,2.83-.14,.15,.19,.32,.42-1,.47,.52-.08,1.16-.07,1.93,.01,.11,.07-.11,.13-.32,.17,3.06,.56,1.41-.71,4.58-.7-.4,.35,.74,.67,1.25,.6-1.28,0-.61-.59,.56-.86,2.04,.28,2.21-.21,3.28-.17l-.46-.05c1.36,.01,1.61-.1,2.17-.35,1.35-.06,2.92,.64,4.64,.41,0,0,.02,.01,.02,.02,0,0,.02-.01,.03-.02,.07-.01,.14,0,.21-.02,1.02,.24,.1,.67,.99,.83,2.37-.44,2.67,.4,4.98,.13-.09,.1-.28,.2-.59,.33,.84-.19,1.98-.48,3.16-.71,1.36,.18,2.6,.06,3.93-.1l-.2,.05c.49,.05,.92,0,1.34-.08,.67,.08,1.1,.15,1.75,.15,.25,.43,2.49,.23,3.57,.25-.09-.56,1.33-.47,0-.94,.17,.04-.2,.07-.92,.09-.16,.02-.35,.03-.46,.06l.07-.05c-.36,0-.78,.01-1.24,.02h-.06c.22-.2,.68-.25,1.23-.25,.11,.02,.21,.02,.32,.05,.02-.02,.05-.03,.07-.05,.7,.02,1.48,.07,2.11-.02-.12,.4,.68,.54,1.23,.78-.04-.19,1.2-.12,2.17-.27,.32,.11,.56,.23,.65,.34,2.74-.26,6.26-.24,8.58-.83,0,.19-.03,.36-1.22,.54,1.03,0,1.95,.08,1.97-.2,.43,.18,1.68-.16,2.71-.24h.28c.31-.02,.59,0,.81,.08,.11-.04,.2-.1,.29-.16,1.06-.08,1.96-.2,2.3-.48,.08-.03,.15-.06,.19-.09,2.15,.33-1.37,.66,1.83,.54l-.44,.23c2.56,.47,4.74,.26,6.88-.06-.5,.22-.47,.71,.64,.55l-.33-.59c.59-.09,1.18-.19,1.77-.28,.36,.07,.7,.15,1,.26,2.24-.13,4.95-.26,6.98-.29-.13,.12,0,.2-.39,.16,1.21,.16,1.7-.03,2.11-.26,.65,.03,1.3,.05,1.95,.07,.02,.02,.07,.03,.18,.06,.44,1.3,3.86-.18,6.01,.58l-.52,.08c1.64,.44,4.01-.49,6.7-.4,0,0-.13,.11-.02,.2,.8-.29,1.91-.49,3.12-.64,1.35,.04,2.69,.13,4.02,.27,.03,.03,.05,.06,.08,.09,.14,0,.24-.03,.31-.05,.25,.03,.51,.04,.77,.08,1.7,.16,2.26-.06,3.02-.34,.26,.12,.46,.25,.52,.41l-2.18,.03c1.12,.71,2.82-.02,3.97,.1l-.15,.31c3.05-.09,3.36-.75,6.13-.83,1.37,.28,2.82,.52,4.58,.28l.1,.13c.9-.13,2.73-.45,4.54-.68,.23,.04,.35,.1,.3,.21,.16-.07,.5-.42,1.1-.21v.08c-1.41,.39-3.43,.64-4.79,.92,1.28,0,4.36-.06,5.03-.45-.52,.08-1.17,.27-1.68,.15,.45-.18,.95-.32,1.48-.45v.06l3.39-.49c.22,0,.45-.01,.68-.02,.29,.03,.5,.08,.65,.13,0,.19,.16,.33,.41,.43,.05,.33,0,.68,2.41,.72,.6-.05,1.4-.19,2.12-.37,.64,.01,1.28,.03,1.91,.04,.06-1.98,.19-3.86,.6-4.89-.57-4.53,.24-8.98,.15-14.25-1.19,1.86-.05-1.51-1.24-1.22l-.02-.06c-.01-.2-.02-.38-.03-.54,.24-.38,.61-.53,.72,.44,.06-.25,.09-.45,.11-.62,.16,.08,.31-.08,.43-.83-.21,.72-.36,.34-.5-.14-.06-.29-.08-.59,.12-1.2,.07-.15,.11-.08,.14,.06l-.25-1.56c.17,.31,.59-.26,.47,.7,.04-.25,.06-.49,.08-.73h0c.02-.2,.03-.4,.03-.59,.13-1.85,.51-.69,.81-2.32-.44,.36-.63-.94-.46-2.47Zm-1.17,6.29c-.06,.22-.13,.3-.2,.31l.15-.75c.02,.14,.04,.29,.05,.45Zm-6.83,19.94c-.19-.1-.4-.19-.69-.24l-.51,.19c-.6-.02-1.2-.06-1.8-.08-.12-.05-.32-.1-.65-.14-.09,.03-.15,.07-.21,.1-.76-.04-1.52-.06-2.28-.11-3.81-.21-7.64-.45-11.4-.58-1.56-.04-2.07,.36-2.61,.71-.56-.08-.93-.22-.78-.53-.51,.32-1.29,.47-2.21,.55l.71-.39c-2.55,.3-5.14,.37-7.73,.37-.42-.1-.77-.22-1.26-.31-.03,.11-.11,.21-.22,.3-1.08,0-2.15-.01-3.23-.01,.2-.14,.31-.29,.15-.49,.03,.23-.37,.37-.88,.49-1.14,0-2.27,.02-3.39,.06-.08-.07-.18-.15-.31-.26-.03,.12-.07,.2-.12,.27-1.1,.04-2.19,.1-3.26,.21h-.03c.35-.16,.39-.35,1-.34-.72-.25-2.06-.25-3.2-.13-.23-.26,1.23-.51,1.23-.51-1.36,0-1.5,.24-1.48,.54-.95,.11-1.7,.3-1.71,.47-.05,0-.07,0-.11-.01-.22-.21,.05-.56-.49-.77-.38,.04-.73,.11-1.07,.19-1.3,.05-2.83,.57-3.43,.18-.08-.05,.11-.1,.32-.14-1.18,.13-3.83-.06-3.04,.44-1.56-.17-3.04-.03-4.41,.02,.19-.08,.08-.11-1.28-.09,.06,.03,.1,.06,.15,.09-.39-.01-.78-.04-1.16-.1-.4,.19-.96,.24-1.55,.23,.01-.2,1.5,.19,.56-.49,.32,.11,.65,.2,.99,.25,.1-.04,.22-.08,.28-.15l-1.42-.21s-.03-.03-.06-.04c-3.31-.2-3.7,.35-7,.15-.16,.08-.23,.16-.27,.22-.82,.06-1.58,.17-2.07,.3,.52-.27-1.36-.28-.75-.66-.94,0-1.82,.06-2.42,.17-.5-.14-1.13-.16-2.14,.1-.04,.02-.07,.04-.11,.07-.98-.08-1.95,.01-2.85,.12l.1-.1c-1.18-.03-1.74,.12-2.14,.28-.77,.01-1.45-.1-2-.52-.98,.09-1.93,.17-2.88,.25-3.32,.13-6.96,.58-10.62,.71,.14-.13,.45-.27,.41-.41,1.49-.06,3.31,.02,3.19-.56-1.29,.11-2.42,.24-3.48,.38-.05-.01-.09-.03-.15-.04-2.23,.16-4.59,.15-6.95,.05h.03s-.07,0-.11,0c-2.66-.11-5.3-.32-7.72-.54l-1.75,.59c-.41,0-.76-.27-.32-.38-1.7-.21-.26,.31-.84,.56-.17,0-.35,.02-.53,.03-.21-.02-.37-.06-.48-.12,.06,0,.13,0,.18-.01,.7-.1,.31-.07-.2,0-.2-.12-.16-.28,.21-.38-1.74,.27-4.31,.57-6.81,.68,.08-.1,.2-.21,.39-.34-.39,.06-.86,.18-1.02,.36-.24,0-.48,.01-.72,.01-.09-.09,.02-.21,.44-.38-1.24,.1-1.74,.24-2.13,.36-.57-.02-1.11-.06-1.62-.12,.05-.03,.11-.06,.15-.1-.09,.03-.18,.05-.28,.08-.25-.03-.5-.07-.73-.11l.65-.17c-2.21-.2-2.78,.8-4.39,.77,.04-.09-.03-.19,.26-.22-.31,0-.62,.02-.91,.04l.18-.04c-3.56-.16-7.36,0-10.76-.1-.16-.06-.28-.16-.31-.29l-1.84,.19c-1.15-.08-2.24-.2-3.21-.4-.82,.85-5.57-.38-5.93,.8-3.21-.58-2.29-.79-6.81-1.19-1.21-.05-1.8,.74-3.29,.86l-.04-.62-2.03,.65-1.08-.74-1.4,.16c.56,.04,1.19,.28,1.1,.45-2.19,.28-5.33-.43-5.39-.75l-5.18,.52c.09-.19,.61-.28,1.15-.39-1.94,.35-.17-.71-2.52-.18,.34,.14-.18,.37-.24,.49-1.26-.37-4.13-.38-6.26-.22l.41-.42c-3.84-.11-8.09,.2-12.4,.2,1.55,.2,1.19,.93-.07,1.01l-.51-.65c-.82,.4,1.32,.25-.35,.74-1.61-.08-1.08-.74-.16-.95l-1.96,.23c-.11-.19,.34-.3,.46-.55-.8,.4-3.38-.65-4.54,.05l-.11-.19c-4.31,0-6.26,.22-9.77,.25-.07,.56-1.44,.44-2.49,.89-2.58-.18-5.44-.62-8.55-.57-2.18,.28-.64,.48-1.62,.81-.16-.51-3.26-.46-1.65-.83-3.73,.08-4.76,.1-9.48,.52,.51,.21,1.09,.3,.79,.48-.42,.04-.92-.01-1.27-.11-.19-.1-.27-.23-.23-.35l.1-.05c-.39,.13-.89,.18-1.32,.16,.01-.28,.04-.57,.08-.84l.07-.4,.04-.18c.02-.06,.03-.28,.05-.41,.14-1.22,.27-2.44,.4-3.61,.25-2.36,.37-4.56-.07-6.3l.05,.24-.56-4.37c.09-2.01,.39,1.21,.7-.28-.85-4.71,.12-7.45-.45-11.33,1.51-3.01-.11-10.66,.86-14.72l-.36,.23c-.35-1.05,.2-1.27,.29-2.04-.28,.11-.32,1.14-.51,.49l-.05-1.16v-.29l-.02-.08-.02-.17c-.02-.2-.02-.4-.02-.61,.75,.23,1.33,.14,1.88-.03,.35,.01,.7,.02,1.05,.03,.19,.1,.4,.19,.69,.24l.51-.19c.6,.02,1.2,.06,1.8,.08,.12,.05,.32,.1,.65,.14,.09-.03,.15-.07,.21-.1,.76,.04,1.52,.06,2.28,.11,3.81,.21,7.64,.45,11.4,.58,1.56,.04,2.07-.36,2.61-.71,.56,.08,.93,.22,.78,.53,.51-.32,1.29-.47,2.21-.55l-.71,.39c2.55-.3,5.14-.37,7.73-.37,.42,.1,.77,.22,1.26,.31,.03-.11,.11-.21,.22-.3,1.08,0,2.15,.01,3.23,.01-.2,.14-.31,.29-.15,.49-.03-.23,.37-.37,.88-.49,1.14,0,2.27-.02,3.39-.06,.08,.07,.18,.15,.31,.26,.03-.12,.07-.2,.12-.27,1.1-.04,2.19-.1,3.26-.21h.03c-.35,.16-.39,.35-1,.34,.72,.25,2.06,.25,3.2,.13,.23,.26-1.23,.51-1.23,.51,1.36,0,1.5-.24,1.48-.54,.95-.11,1.7-.3,1.71-.47,.05,0,.07,0,.11,.01,.22,.21-.05,.56,.49,.78,.38-.04,.73-.11,1.07-.19,1.3-.05,2.83-.57,3.43-.18,.08,.05-.11,.1-.32,.14,1.18-.13,3.83,.06,3.04-.44,1.56,.17,3.04,.03,4.41-.02-.19,.08-.08,.11,1.28,.09-.06-.03-.1-.06-.15-.09,.39,.01,.78,.04,1.16,.1,.4-.19,.96-.24,1.55-.23-.01,.2-1.5-.19-.56,.49-.32-.11-.65-.2-.99-.25-.1,.04-.22,.08-.28,.15l1.42,.21s.03,.03,.06,.04c3.31,.2,3.7-.35,7-.15,.16-.08,.23-.16,.27-.22,.82-.06,1.58-.17,2.07-.3-.52,.27,1.36,.28,.75,.66,.94,0,1.82-.06,2.42-.17,.5,.14,1.13,.16,2.14-.1,.04-.02,.07-.04,.11-.07,.98,.08,1.95-.01,2.85-.12l-.1,.1c1.18,.03,1.74-.12,2.14-.28,.77-.01,1.45,.1,2,.52,.98-.09,1.93-.17,2.88-.25,3.32-.13,6.96-.58,10.62-.71-.14,.13-.45,.27-.41,.41-1.49,.06-3.31-.02-3.19,.56,1.29-.11,2.42-.24,3.48-.38,.05,.01,.09,.03,.15,.04,2.23-.16,4.59-.15,6.95-.05h-.03s.07,0,.11,0c2.66,.11,5.3,.32,7.72,.54l1.75-.59c.41,0,.76,.27,.32,.38,1.7,.21,.26-.31,.84-.56,.17,0,.35-.02,.53-.03,.21,.02,.37,.06,.48,.12-.06,0-.13,0-.18,.01-.7,.1-.31,.07,.2,0,.2,.12,.16,.28-.21,.38,1.74-.27,4.31-.57,6.81-.68-.08,.1-.2,.21-.39,.34,.39-.06,.86-.18,1.02-.36,.24,0,.48-.01,.72-.01,.09,.09-.02,.21-.44,.38,1.24-.1,1.74-.24,2.13-.36,.57,.02,1.11,.06,1.62,.12-.05,.03-.11,.06-.15,.1,.09-.03,.18-.05,.28-.08,.25,.03,.5,.07,.73,.11l-.65,.17c2.21,.2,2.78-.8,4.39-.77-.04,.09,.03,.19-.26,.22,.31,0,.62-.02,.91-.04l-.18,.04c3.56,.16,7.36,0,10.76,.1,.16,.06,.28,.16,.31,.29l1.84-.19c1.15,.08,2.24,.2,3.21,.4,.82-.85,5.57,.38,5.93-.8,3.21,.58,2.29,.79,6.81,1.19,1.21,.05,1.8-.74,3.29-.86l.04,.62,2.03-.65,1.08,.74,1.4-.16c-.56-.04-1.19-.28-1.1-.45,2.19-.28,5.33,.43,5.39,.75l5.18-.52c-.09,.19-.61,.28-1.15,.39,1.94-.35,.17,.71,2.52,.18-.34-.14,.18-.37,.24-.49,1.26,.37,4.13,.38,6.26,.22l-.41,.42c3.84,.11,8.09-.2,12.4-.2-1.55-.2-1.19-.93,.07-1.01l.51,.65c.82-.4-1.32-.25,.35-.74,1.61,.08,1.08,.74,.16,.95l1.96-.23c.11,.19-.34,.3-.46,.55,.8-.4,3.38,.65,4.54-.05l.11,.19c4.31,0,6.26-.22,9.77-.25,.07-.56,1.44-.44,2.49-.89,2.58,.18,5.44,.62,8.55,.57,2.18-.28,.64-.48,1.62-.81,.16,.51,3.26,.46,1.65,.83,3.73-.08,4.76-.1,9.48-.52-.51-.21-1.09-.3-.79-.48,.42-.04,.92,.01,1.27,.11,.19,.1,.27,.23,.23,.35l-.1,.05c.39-.13,.89-.18,1.32-.16,0,.28-.04,.57-.08,.84l-.07,.4-.04,.18c-.02,.06-.03,.28-.05,.41-.14,1.22-.27,2.44-.4,3.61-.25,2.36-.37,4.56,.07,6.3l-.05-.24,.56,4.37c-.09,2.01-.39-1.21-.7,.28,.85,4.71-.12,7.45,.45,11.33-1.51,3.01,.11,10.66-.86,14.72l.36-.23c.35,1.05-.2,1.27-.29,2.04,.28-.11,.32-1.14,.51-.49l.05,1.16v.29l.02,.08,.02,.17c.02,.2,.02,.4,.02,.61-.75-.23-1.33-.14-1.88,.03-.35-.01-.7-.02-1.05-.03ZM1.63,25.3c.06-.22,.13-.3,.2-.31l-.15,.75c-.02-.14-.04-.29-.05-.45ZM5.52,5.26c.27,0,.56,0,.83,.03h-.83v-.03ZM249.44,50.75c-.27,0-.56,0-.83-.03h.83v.03ZM125.09,1.44l.55,.06c-.21,.18-.59,.26-1.1,.31-.09,0-.18-.02-.28-.03l.83-.33Zm-9.47-.03c-.12,.04-.21,.06-.3,.09-.36-.02-.7-.03-1.03-.03,.52-.05,.99-.09,1.33-.06Zm-3.48,.22c-.9,.11-1.72,.22-2.58,.16l.02-.46c2.01,.02,3.45,.04,3.28,.08,0-.11-.1-.2-.25-.28l2.25-.18-2.73,.69Zm-.08-.79c-.16-.08-.28-.17-.29-.27,.22,.13,.33,.21,.29,.27Zm-10.96-.22c.72-.08,.96,.03,1.06,.15-.34,0-.74,.03-1.26,.07-.02,.02-.06,.04-.08,.07,.07-.11,.15-.21,.28-.28Zm28.76,53.94l-.55-.06c.21-.18,.59-.26,1.1-.31,.09,0,.18,.02,.28,.03l-.83,.33Zm9.47,.03c.12-.04,.21-.06,.3-.09,.36,.02,.7,.03,1.03,.03-.52,.05-.99,.09-1.33,.06Zm3.48-.22c.9-.11,1.72-.22,2.58-.16l-.02,.46c-2.01-.02-3.45-.04-3.28-.08,0,.11,.1,.2,.25,.28l-2.25,.18,2.73-.69Zm.08,.79c.16,.08,.28,.17,.29,.27-.22-.13-.33-.21-.29-.27Zm10.96,.22c-.72,.08-.96-.03-1.06-.15,.34,0,.74-.03,1.26-.07,.02-.02,.06-.04,.08-.07-.07,.11-.15,.21-.28,.28Z"/><path class="cls-1" d="M186.22,5.54c-.05,0-.11,.02-.17,.03,.06-.01,.11-.02,.17-.03Z"/><path class="cls-1" d="M186.04,5.58c-.12,.02-.23,.05-.34,.07,.13-.03,.24-.05,.34-.07Z"/><path class="cls-1" d="M194.85,50.23c.12-.01,.24-.03,.32-.05-.09,.01-.21,.03-.32,.05Z"/><path class="cls-1" d="M99.81,1.36c-.1,.01-.16,.04-.3,.04,.15,.05,.29,.09,.43,.13l.25-.18h-.39Z"/><polygon class="cls-1" points="173.41 5.6 173.4 5.45 173 5.58 173.41 5.6"/><path class="cls-1" d="M173.85,50.2s0,0,0,0h0Z"/><path class="cls-1" d="M.44,50.33c-.1-1.83-.32-.07-.44-.04,.2,1.44,.25,1.65,.44,.04Z"/><path class="cls-1" d="M231.55,54.49c.5,.32,1.78,.52,2.56,.21-1.02-.04-2.04-.29-2.56-.21Z"/><polygon class="cls-1" points="186.39 .33 184.66 .51 185.47 .54 186.39 .33"/></g></g></svg>