<?xml version="1.0" encoding="UTF-8"?><svg id="_イヤー_2" xmlns="http://www.w3.org/2000/svg" viewBox="0 0 239.27 36.01"><defs><style>.cls-1{fill:#eda184;}</style></defs><g id="_イヤー_1-2"><g><path class="cls-1" d="M238.81,13.91l.08,.44-.08-.44Z"/><path class="cls-1" d="M238.24,33.12l-.25,.03c-.03,.11-.05,.21-.05,.32l.31-.35Z"/><path class="cls-1" d="M118.83,.23h.06c.38-.05,.17-.04-.06,0Z"/><path class="cls-1" d="M85.3,.57c.07,.1,.2,.17,.34,.25-.01-.06-.09-.13-.34-.25Z"/><path class="cls-1" d="M110.28,1.37l-.62-.08c.25,.05,.44,.07,.62,.08Z"/><path class="cls-1" d="M72.06,1.32c.08,.01,.17,.03,.28,.05-.1-.02-.2-.04-.28-.05Z"/><path class="cls-1" d="M72.06,1.32c-.17-.03-.32-.05-.63,0,.04,.03,.08,.05,.14,.07,.12-.06,.27-.09,.49-.07Z"/><path class="cls-1" d="M58.84,1.37c.07,.04,.17,.08,.25,.11l.43-.03-.68-.08Z"/><path class="cls-1" d="M151.47,34.48l-.22,.18h.34c.09-.02,.14-.04,.26-.05-.13-.05-.25-.09-.38-.13Z"/><polygon class="cls-1" points="154.76 .62 153.05 .8 154.32 .69 154.76 .62"/><path class="cls-1" d="M21.06,1.51c-.44-.32-1.57-.52-2.26-.21,.9,.04,1.8,.29,2.26,.21Z"/><polygon class="cls-1" points="75.11 35.67 76.64 35.5 75.92 35.46 75.11 35.67"/><path class="cls-1" d="M.46,22.1l-.08-.44,.08,.44Z"/><path class="cls-1" d="M1.03,2.89l.25-.03c.03-.11,.05-.21,.05-.32l-.31,.35Z"/><path class="cls-1" d="M120.44,35.77h-.06c-.38,.05-.17,.04,.06,0Z"/><path class="cls-1" d="M153.96,35.43c-.07-.1-.2-.17-.34-.25,.01,.06,.09,.13,.34,.25Z"/><path class="cls-1" d="M128.99,34.63l.62,.08c-.25-.05-.44-.07-.62-.08Z"/><path class="cls-1" d="M167.21,34.69c.17,.03,.32,.05,.63,0-.04-.03-.08-.05-.14-.07-.12,.06-.27,.09-.49,.07Z"/><path class="cls-1" d="M167.21,34.69c-.08-.01-.17-.03-.28-.05,.1,.02,.2,.04,.28,.05Z"/><path class="cls-1" d="M180.43,34.64c-.07-.04-.17-.08-.25-.11l-.43,.03,.68,.08Z"/><path class="cls-1" d="M238.93,9.83c-.11-.67-.17-1.2,.1-1.61l.05,.21c-.14-1.72-.29-1.8-.5-1.78-.06,0-.12,.02-.19,0l.03-.09,.1-.27c.03-.12,.06-.32,.09-.49,.06-.36,.1-.75,.13-1.2,.01-.18,.02-.37,.02-.57,.17-.32,.33-.65,.5-1.03-.17,0-.33,.03-.5,.06-.02-.57-.06-1.19-.14-1.88,.13,.52,.26,1.09,.38,1.7-.05-.69-.08-1.63-.1-2.74-1,.02-2.12,.04-3.28,.06-.57,.02-1.15,.03-1.73,.05l-.86,.03c-.34,.01-.38,.02-.57,.04-1.21,.11-2.32,.31-2.98,.7-.3-.14-.71-.48,.05-.56-4.1-.15-9.14,1.05-12.33,.44l.31-.3c-.77,.09-1.33,.56-2.29,.26,.05-.12,.31-.3-.05-.32-.41,.1-2.03,.52-3.05,.35l.87-.34c-4-.39-6.14,.82-9.5,1.02,0-.88-3.14-1.17-4.71-1.31l.05-.12c-4.66-.11-7.92,.73-12.23,1.08-2.68-.96-9.08-.4-13.38-.94,.66,.16-.11,.69-.87,.77-1.01-.18-2.79,.61-2.63-.2l.36,.02c-.76-.79-2.84-.58-4.46-.6l-.27,1.06c-1.47-.53-3.25-.62-5.06-.58-.76-.04-1.5,.01-2.21,.1-2.6,.16-4.98,.37-6.16-.34-.84,.22-1.84,.26-2.73,.41-.23-.07-.41-.12-.55-.14l.03-.31c-2.84-.14-4.25-.22-7.76-.08L141.64,0c-1.02-.02-1.65,.41-2.27,.84,0-.03,.02-.07,.08-.12-.9,.15-.86,.27-.46,.37-.02,.01-.04,.02-.06,.04-.72-.06-1.36-.06-2-.06l-.17-.26c-3.17,.01-6.37-.6-9.51-.11-.25,0-.49,0-.73-.02,.09-.11,.25-.21,.61-.23-.66,0-1.83-.1-2.94-.14-.32-.06-.61-.11-.87-.13l1.15-.19c-.69,.11-1.25,.11-1.82,.11l.29,.21c-.3,.01-.56,.04-.79,.08-.04-.03-.08-.05-.08-.09-.11,.05-.16,.1-.2,.15-.39,.11-.58,.29-.43,.59-.02-.39-.97-.4-2.14-.27-.08-.16-.02-.33,.95-.37-.46,.08-1.03,.07-1.7-.01-.1-.07,.1-.13,.28-.17-2.71-.56-1.24,.71-4.05,.7,.36-.35-.65-.67-1.11-.6,1.13,0,.54,.59-.5,.86-1.8-.28-1.95,.21-2.9,.17l1.08,.13c-.24,.24-.75,.29-1.41,.34-.19,0-.41-.03-.67-.06l.19-.09c.12-.01,.19-.03,.13-.06l.47-.21c-1.35-.03-1.6,.07-2.07,.3-1.07-.16-2.27-.62-3.55-.34-.9-.24-.09-.67-.88-.83-2.18,.46-2.36-.49-4.64-.11,.52,.37,.69,.39-.04,.6-.47-.26-1.16-.45-.06-.96-.67,.17-1.55,.42-2.48,.64-1.23-.1-2.39,.1-3.66,.27-.05-.03-.1-.05-.13-.1l.19-.06c-.43-.05-.82,0-1.18,.08-.6-.08-.97-.15-1.55-.15-.22-.43-2.2-.23-3.15-.25,.05,.38-.49,.46-.49,.62-.22-.11-.5-.2-.73-.32,.05,.23-1.58,.08-2.42,.4-.46-.16-.82-.31-.93-.47-2.07,.22-4.65,.24-6.63,.61,.11-.11,.37-.21,1-.32-.91,0-1.72-.08-1.74,.2-.24-.11-.76-.02-1.34,.09,.02,0,.04-.01,.06-.02-.49,.08-1.12,.12-1.78,.16-.1-.02-.2-.03-.29-.07-.06,.03-.11,.06-.17,.1-1.41,.08-2.8,.19-3.07,.65-.15-.03-.31-.06-.47-.09-1.03-.3,1.35-.57-1.24-.46l.39-.23c-1.84-.38-3.45-.32-5-.11,.17-.23,0-.51-.78-.38l.23,.46c-.63,.1-1.25,.21-1.87,.32-.18-.05-.35-.11-.5-.18-1.98,.13-4.37,.26-6.17,.29,.12-.12,0-.2,.35-.16-.84-.12-1.29-.03-1.62,.13-.02,0-.04,0-.06-.01h.06c-.12,.07-.22,.13-.32,.2-.54-.04-1.09-.08-1.64-.1,0-.02-.04-.04-.17-.07-.39-1.3-3.41,.18-5.31-.58l.46-.08c-1.45-.44-3.54,.49-5.92,.4,0,0,.12-.11,.01-.2-.75,.31-1.82,.52-2.96,.67-1.1-.03-2.18-.1-3.26-.2-.03-.05-.08-.11-.15-.2-.23,.02-.34,.07-.39,.14-.47-.05-.95-.09-1.42-.16-1.08-.11-1.63-.03-2.11,.13-.07-.06-.12-.13-.15-.21l1.93-.03c-.99-.71-2.49,.02-3.51-.1l.13-.31c-2.95,.1-2.99,.89-6.17,.83l.04,.03c-1.04-.24-2.13-.47-3.39-.4l-.03-.04c-.17,.03-.38,.06-.61,.11-.22,.03-.44,.07-.66,.12-.89,.16-2,.35-3.09,.5-.41-.02-.7-.06-.77-.16,1.25-.37,2.96-.61,4.12-.89-1.13,0-3.85,.06-4.45,.45,.46-.08,1.03-.27,1.48-.15-.62,.28-1.35,.48-2.14,.63l-.03-.25-3.19,.52s-.08,0-.12,0c.13-.48-.41-.7-1.25-.8-.09-.25-.43-.47-2.09-.5-.52,.05-1.21,.19-1.83,.36-.35,0-.7-.02-1.05-.03,0,.12,0,.24-.01,.37-.48,.18-.74,.35-.54,.44,.16,0,.34,.02,.52,.05-.01,.2-.02,.4-.04,.59l-.28,.04c-.01,.06-.03,.12-.05,.18h-.2v.58c-.08,.25-.11,.5,0,.74v1.31h0v7.95c-.09,1.38-.16,2.82-.15,4.32H.88c0,.19,0,.37,0,.55,.05-.07,.09-.12,.13-.17l.02,.07v1.94c-.12-.06-.22-.24-.27-.62-.41,1.41,.3,1.25-.16,2.46-.07,.13-.11,.07-.14-.05l.25,1.38c-.17-.27-.59,.23-.47-.62-.19,1-.13,1.84-.02,2.55-.07,.13-.15,.33-.21,.66,.14-.1,.25-.04,.33,.11,.11,.67,.17,1.2-.1,1.61l-.05-.21c.14,1.72,.29,1.8,.5,1.78,.06,0,.12-.02,.19,0l-.03,.09-.1,.27c-.03,.12-.06,.32-.09,.49-.06,.36-.1,.75-.13,1.2-.01,.18-.02,.37-.02,.57-.17,.32-.33,.65-.5,1.03,.17,0,.33-.03,.5-.06,.02,.57,.06,1.19,.14,1.88-.13-.52-.26-1.09-.38-1.7,.05,.69,.08,1.63,.1,2.74,1-.02,2.12-.04,3.28-.06,.57-.02,1.15-.03,1.73-.05l.86-.03c.34-.01,.38-.02,.57-.04,1.21-.11,2.32-.31,2.98-.7,.3,.14,.71,.48-.05,.56,4.1,.15,9.14-1.05,12.33-.44l-.31,.3c.77-.09,1.33-.56,2.29-.26-.05,.12-.31,.3,.05,.32,.41-.1,2.03-.52,3.05-.35l-.87,.34c4,.39,6.14-.82,9.5-1.02,0,.88,3.14,1.17,4.71,1.31l-.05,.12c4.66,.11,7.92-.73,12.23-1.08,2.68,.96,9.08,.4,13.38,.94-.66-.16,.11-.69,.87-.77,1.01,.18,2.79-.61,2.63,.2l-.36-.02c.76,.79,2.84,.58,4.46,.6l.27-1.06c1.47,.53,3.25,.62,5.06,.58,.76,.04,1.5-.01,2.21-.1,2.6-.16,4.98-.37,6.16,.34,.84-.22,1.84-.26,2.73-.41,.23,.07,.41,.12,.55,.14l-.03,.31c2.84,.14,4.25,.22,7.76,.08l-.71,.4c1.02,.02,1.65-.41,2.27-.84,0,.03-.02,.07-.08,.12,.9-.15,.86-.27,.46-.37,.02-.01,.04-.02,.06-.04,.72,.06,1.36,.06,2,.06l.17,.26c3.17-.01,6.37,.6,9.51,.11,.25,0,.49,0,.73,.02-.09,.11-.25,.21-.61,.23,.66,0,1.83,.1,2.94,.14,.32,.06,.61,.11,.87,.13l-1.15,.19c.69-.11,1.25-.11,1.82-.11l-.29-.21c.3-.01,.56-.04,.79-.08,.04,.03,.08,.05,.08,.09,.11-.05,.16-.1,.2-.15,.39-.11,.58-.29,.43-.59,.02,.39,.97,.4,2.14,.27,.08,.16,.02,.33-.95,.37,.46-.08,1.03-.07,1.7,.01,.1,.07-.1,.13-.28,.17,2.71,.56,1.24-.71,4.05-.7-.36,.35,.65,.67,1.11,.6-1.13,0-.54-.59,.5-.86,1.8,.28,1.95-.21,2.9-.17l-1.08-.13c.24-.24,.75-.29,1.42-.34,.19,0,.41,.03,.67,.06l-.19,.09c-.12,.01-.19,.03-.13,.06l-.47,.21c1.35,.03,1.6-.07,2.07-.3,1.07,.16,2.27,.62,3.55,.34,.9,.24,.09,.67,.88,.83,2.18-.46,2.36,.49,4.64,.11-.52-.37-.69-.39,.04-.6,.47,.26,1.16,.45,.06,.96,.67-.17,1.55-.42,2.48-.64,1.23,.1,2.39-.1,3.66-.27,.05,.03,.1,.05,.13,.1l-.19,.06c.43,.05,.82,0,1.18-.08,.6,.08,.97,.15,1.55,.15,.22,.43,2.2,.23,3.15,.25-.05-.38,.49-.46,.49-.62,.22,.11,.5,.2,.73,.32-.05-.23,1.58-.08,2.42-.4,.46,.16,.82,.31,.93,.47,2.07-.22,4.65-.24,6.63-.61-.11,.11-.37,.21-1,.32,.91,0,1.72,.08,1.74-.2,.24,.11,.76,.02,1.34-.09-.02,0-.04,.01-.06,.02,.49-.08,1.12-.12,1.78-.16,.1,.02,.2,.03,.29,.07,.06-.03,.11-.06,.17-.1,1.41-.08,2.8-.19,3.07-.65,.15,.03,.31,.06,.47,.09,1.03,.3-1.35,.57,1.24,.46l-.39,.23c1.84,.38,3.45,.32,5,.11-.17,.23,0,.51,.78,.38l-.23-.46c.63-.1,1.25-.21,1.87-.32,.18,.05,.35,.11,.5,.18,1.98-.13,4.37-.26,6.17-.29-.12,.12,0,.2-.35,.16,.84,.12,1.29,.03,1.62-.13,.02,0,.04,0,.06,.01h-.06c.12-.07,.22-.13,.32-.2,.54,.04,1.09,.08,1.64,.1,0,.02,.04,.04,.17,.07,.39,1.3,3.41-.18,5.31,.58l-.46,.08c1.45,.44,3.54-.49,5.92-.4,0,0-.12,.11-.01,.2,.75-.31,1.82-.52,2.96-.67,1.1,.03,2.18,.1,3.26,.2,.03,.05,.08,.11,.15,.2,.23-.02,.33-.07,.39-.14,.47,.05,.95,.09,1.42,.16,1.08,.11,1.63,.03,2.11-.13,.07,.06,.12,.13,.15,.21l-1.93,.03c.99,.71,2.49-.02,3.51,.1l-.13,.31c2.95-.1,2.99-.89,6.17-.83l-.04-.03c1.04,.24,2.13,.47,3.39,.4l.03,.04c.17-.03,.38-.06,.6-.11,.22-.03,.44-.07,.67-.12,.89-.16,2-.35,3.09-.5,.41,.02,.7,.06,.77,.16-1.25,.37-2.96,.61-4.12,.89,1.13,0,3.85-.06,4.45-.45-.46,.08-1.03,.27-1.48,.15,.62-.28,1.35-.48,2.14-.63l.03,.25,3.19-.52s.08,0,.12,0c-.13,.48,.41,.7,1.25,.8,.09,.25,.43,.47,2.09,.5,.52-.05,1.21-.19,1.83-.36,.35,0,.7,.02,1.05,.03,0-.12,0-.24,.01-.37,.48-.18,.74-.35,.54-.44-.16,0-.34-.02-.52-.05,.01-.2,.02-.4,.04-.59l.28-.04c.01-.06,.03-.12,.05-.18h.2v-.58c.08-.25,.11-.5,0-.74v-1.31h0v-7.95c.09-1.38,.16-2.82,.15-4.32h0c0-.19,0-.37,0-.55-.05,.07-.09,.12-.13,.17l-.02-.07v-1.94c.12,.06,.22,.24,.27,.62,.41-1.41-.3-1.25,.16-2.46,.07-.13,.11-.07,.14,.05l-.25-1.38c.17,.27,.59-.23,.47,.62,.19-1,.13-1.84,.02-2.55,.07-.13,.15-.33,.21-.66-.14,.1-.25,.04-.33-.11ZM1.03,22.51v.79c-.03-.19-.06-.38-.09-.6,.03-.09,.06-.14,.09-.19ZM238.24,13.49v-.79c.03,.19,.06,.38,.09,.6-.03,.08-.06,.14-.09,.19ZM102.51,1.41c-.98,.33-1.03,.3-.7,.52-.1,0-.2,0-.3-.02-.14-.19,.24-.31,.43-.37-.27-.03-.51-.05-.75-.06,.52-.06,.98-.11,1.31-.08Zm-.66-.48l-1.89,.54c-1.08,.06-1.94,.26-2.8,.31l.02-.46c1.3,.02,2.16,.04,2.03,.07,0-.08-.05-.15-.13-.22l2.76-.25Zm-13.03-.31c.63-.08,.85,.03,.93,.15-.3,0-.65,.03-1.11,.07-.02,.02-.06,.05-.07,.07,.06-.11,.13-.21,.25-.28Zm-1.14,.74c.14-.02,.31-.03,.41-.06l-.07,.05c.51,0,1.16-.02,1.89-.03l.12,.02c-.32,.32-1.21,.24-2.1,.21-.05-.01-.09-.01-.14-.03l-.03,.02c-.36,0-.72,0-1.03,.05,.02-.09,0-.16-.04-.23,.06,.03,.1,.05,.17,.08-.15-.04,.18-.07,.82-.09ZM11.74,2.16s.09-.03,.13-.04c-.04,.02-.09,.03-.13,.04Zm125.02,32.43c.98-.33,1.03-.3,.7-.52,.1,0,.2,0,.3,.02,.14,.19-.24,.31-.43,.37,.27,.03,.51,.05,.75,.06-.52,.06-.98,.11-1.31,.08Zm.66,.47l1.89-.54c1.08-.06,1.94-.26,2.8-.31l-.02,.46c-1.3-.02-2.16-.04-2.03-.07,0,.08,.05,.15,.13,.22l-2.76,.25Zm13.03,.31c-.63,.08-.85-.03-.93-.15,.3,0,.65-.03,1.11-.07,.02-.02,.06-.04,.07-.07-.06,.11-.13,.21-.25,.28Zm1.14-.74c-.14,.02-.31,.03-.41,.06l.07-.05c-.51,0-1.16,.02-1.89,.03l-.12-.02c.32-.32,1.21-.24,2.1-.21,.05,.01,.09,.01,.14,.03l.03-.02c.36,0,.72,0,1.03-.05-.02,.09,0,.16,.04,.23-.06-.03-.1-.05-.17-.08,.15,.04-.18,.07-.82,.09Zm75.94-.8s-.09,.03-.13,.04c.04-.02,.08-.03,.13-.04Z"/><path class="cls-1" d="M87.8,1.53l.22-.18h-.34c-.09,.02-.14,.04-.26,.05,.13,.05,.25,.09,.38,.13Z"/><polygon class="cls-1" points="84.51 35.39 86.21 35.2 84.95 35.32 84.51 35.39"/><path class="cls-1" d="M218.21,34.49c.44,.32,1.57,.52,2.26,.21-.9-.04-1.8-.29-2.26-.21Z"/><polygon class="cls-1" points="164.15 .33 162.63 .51 163.35 .54 164.15 .33"/></g></g></svg>