<?xml version="1.0" encoding="UTF-8"?><svg id="_イヤー_2" xmlns="http://www.w3.org/2000/svg" viewBox="0 0 710.82 527.59"><defs><style>.cls-1{fill:#fff;}.cls-2{fill:#97c9dd;}.cls-3{fill:#fafdff;}</style></defs><g id="_イヤー_1-2"><g><path class="cls-1" d="M705.89,171.84c-7.32-8.57-16.89-12.71-26.98-12.18-3.98-7.1-11.45-11.98-20.09-12.4-1.96-.09-4.27-.4-6.71-.72-3.68-.48-7.98-1.04-12.71-1.08,1.83-2.86,3.33-6.15,4.48-9.86,1.23-3.99,3.23-7.27,5.49-9.03,14.34-11.11,15.62-25.98,16.38-34.87,.18-2.09,.35-4.06,.63-5.43,.63-3.08,.51-5.82,.15-8.03,1.6-9.9-2.11-16.72-4.76-20.17-.93-1.21-2.07-2.47-3.46-3.67-.13-1.67-.43-3.41-.95-5.19-2-6.84-7.77-15.73-23.84-19.29-2.78-.61-4.05-.9-8.46-9.51-.13-.3-.25-.61-.38-.94-8.22-20.54-23.67-20.18-29.92-19.07-10.7,1.89-19.25,8.69-23.89,18.52-3.92,.1-7.78,1.03-11.35,2.78-7.36,3.61-12.9,10.35-15.41,18.68-.52,.12-1.16,.25-1.94,.39-27.7,5.04-50.92,16.65-69.06,34.5-7.52,.86-13.52,4-17.91,6.91-16.04-.46-26.12,9.79-31.37,15.17-1.16,1.19-2.91,2.98-3.61,3.44-4.8,3.12-15.44,12.44-10.95,31.57-.03,.4-.2,1.36-.86,3.65-.1,.35-.19,.62-.27,.82-.68,.28-2.13,.77-5.06,1.38-16.91,3.48-31.02,6.03-44.41,8-.66,.1-1.32,.2-1.99,.31-.71,.11-1.58,.25-2.3,.34-5.91-3.18-14.56-5-25.43,.49-3.12-1.85-6.13-3.28-9.15-4.36-2.95-1.05-3.77-1.84-3.78-1.84h0c-.03-.06-.54-1.12-.59-4.13-.43-24.48-17.55-43.87-43.19-49.63-2.55-2.54-6.63-5.76-12.56-7.21l-.94-.23c-14.51-3.56-34.38-8.43-54.3,5.59-10.99,7.73-14.36,16.35-14.59,23.72-6.06,2.8-8.42,3.62-10.02,3.01-9.89-3.74-19.64-1.34-28.98,7.15-.99,.9-2.04,1.76-3.07,2.63-2.33,1.94-4.91,4.09-7.48,6.76-10.23-4.07-21.87-1.71-30.03,6.41-1.18,1.18-3.87,2.58-6.72,4.06-2.39,1.24-5.09,2.65-7.87,4.4-1.97,1.24-3.12,1.81-3.74,2.06-12.31-5.23-26.07-1.16-33.63,10-1.16,1.72-4.29,2.83-10.67,4.78-1.92,.59-3.83,1.18-5.73,1.82-1.61,.55-3.55,1.07-5.61,1.63-9.37,2.52-23.53,6.34-32.93,20.66l-3.37,5.13v17.81l2.3,1.84c-.83,8.62,1.89,16.98,7.86,23.44,10.17,11.01,14.35,25.18,14.42,48.91v.48c0,4.96,.02,14.2,6.53,22.5,1.11,1.41,2.25,2.87-.57,13.27-1.6,5.91-2.92,12.41-4.01,19.88-1.61,10.99,.79,19.77,7.15,26.09,6.36,6.32,15.14,8.69,26.12,7.01,13.6-2.07,26.93-4.15,40.4-6.75,.43-.08,.75-.13,.98-.15,9.49,6.97,19.41,10.83,29.62,11.57,.33,3.8,.84,7.9,1.89,12.15-20.43,13.87-24.94,31.36-14.24,54.77,4.21,9.19,10.3,13.14,15.29,14.8,.48,.95,1.05,2.2,1.47,3.15,.43,.96,.87,1.91,1.31,2.86l2.8,5.88c3.83,8.04,7.45,15.64,10.82,23.41,4.57,10.56,11.69,15.03,16.86,16.91,4.63,1.69,11.78,2.82,20.45-.69,7.2,8.06,17.43,12.08,29.11,11.35,2.68-.16,5.44-.23,8.37-.3,9.42-.23,20.1-.49,31.68-4.16,1.01-.3,4.75,.21,8.01,3.18,.16,.15,.31,.3,.46,.45,2.37,2.31,8.42,8.19,17.97,8.19,.65,0,1.32-.03,2.01-.09,4.01-.34,11.65-2.15,17.73-10.48,2.34-3.21,8.47-11.61,6.24-22.74,1.28,.13,2.54,.24,3.77,.35l.45,.04c.28,.03,.57,.07,.87,.12,17.59,2.46,25.47-6.19,28.82-12.56,6.18-2.66,10.81-7.36,13.03-13.52,.78-2.17,2.33-7.87,.24-14.59,1.04-1.14,2.06-2.27,3.07-3.39,2.28-2.53,4.44-4.92,6.63-7.2,10.05-10.5,8.87-20.58,7.27-25.66-.61-1.93-1.68-4.41-3.56-6.91,.6-.59,1.19-1.18,1.78-1.77,.19-.19,.38-.39,.57-.58,8.57,1.35,17.29-2.18,23.35-9.67,12.41,.8,23.71-3.71,33.62-13.36,5.28-5.15,12.26-9.49,19.64-14.09,3.33-2.07,6.77-4.22,10.21-6.53,12.14-8.15,24.8-15.42,38.2-23.11l4.14-2.38c7.75-4.46,13.16-10.4,16.18-17.76,4.26,.16,7.84-.75,10.57-1.89,5.31-2.21,12.3-7.26,15.43-18.75,.34-1.26,.74-2.49,1.13-3.73,1.07-3.39,2.33-7.4,3.04-12.01,8.52,.89,17.67-2.33,24.89-13.01,1.13-1.68,2.47-3.45,3.87-5.33,.77-1.02,1.55-2.07,2.34-3.14,11.92,1.02,21.68-3.27,29.81-7.78,27.14-15.07,54.59-30.06,80.39-44.12,1.62-.88,3.72-1.78,5.94-2.73,1.34-.57,2.68-1.15,4.01-1.75l12.09-5.46v-24.41l-4.92-5.76Z"/><g><path class="cls-3" d="M20.54,197.69v-1.79c6.61-10.07,18.04-10.73,27.98-14.11,9.8-3.33,20.31-4.96,26.79-14.52,1.98-2.92,5.41-4.05,8.77-2.54,8.43,3.78,15.47,.8,22.56-3.67,6.01-3.79,12.94-6.12,18.11-11.27,2.68-2.67,5.96-3.16,9.01-1.38,8.19,4.77,14.46,2.46,20.3-4.23,3.11-3.55,7.07-6.35,10.59-9.55,2.27-2.06,4.82-4.31,7.9-3.15,12.53,4.75,22.41-2.46,33-6.74,5.13-2.07,8.04-5.1,5.66-10.92-2.3-5.63,.58-8.33,5.05-11.48,12.58-8.86,25.5-5.39,38.54-2.2,3.86,.94,4.82,5.97,9.18,6.61,17.59,2.55,30.61,13.96,30.91,30.64,.24,13.76,6.22,20.76,18.02,24.97,2.5,.89,4.9,2.21,7.14,3.66,5.53,3.57,10.96,3.95,16.73,.48,2.5-1.5,5.51-3.1,8.41-1.21,5.34,3.48,10.95,2.08,16.47,1.26,15.28-2.25,30.43-5.08,45.57-8.2,10.91-2.25,17.8-5.64,20.94-16.71,1.36-4.78,2.27-9.05,1.12-13.82-.86-3.58-1.4-7.5,2.13-9.8,8.67-5.64,13.59-18.29,27.44-14.61,1.69,.45,4.31-1.71,6.2-3.07,3.71-2.66,7.52-4.79,12.24-4.74,3.87,.04,6.58-2.02,9.21-4.68,16.4-16.6,36.85-25.83,59.32-29.92,9.32-1.7,15.4-4.32,17.74-13.96,1.35-5.57,5.95-9.28,11.45-6.81,8.89,3.99,11.76-.98,12.92-7.69,1.12-6.51,4.66-10.89,10.38-11.9,5.51-.97,6.51,5.36,8.37,8.99,4.95,9.7,10.01,17.62,22.39,20.36,11.05,2.44,11.13,7.14,2.91,15.39-.55,.55-.75,1.46-1.23,2.45,2.43,1.4,4.79,.87,7.09,.72,6.37-.41,10.19,1.67,7.8,8.77-.7,2.08,.86,3.57,.59,4.87-1.97,9.72,.31,20.59-9.46,28.16-6.06,4.69-10.24,11.76-12.54,19.2-2.31,7.48-6.23,10.35-13.86,7.98-1.47-.46-4.76-2.74-4.64,1.01,.25,8.05-5.61,7.29-10.36,7.79-6.81,.72-11.85,3.64-14.65,9.97-.44,1-.84,2.48-.42,3.32,.88,1.78,2.51,.83,3.92,.42,10.03-2.95,11.98-1.62,9.2,8.29-2.22,7.91,1.29,7.95,6.99,7.28,9.86-1.16,19.09-4.58,28.29-7.94,9.81-3.58,19.43-.34,29.12,.12,1.81,.09,3.44,1.27,3.59,3.37,.2,2.85-2.08,3.29-4.13,3.7-3.21,.64-6.45,1.09-9.67,1.66-7.61,1.33-12.98,5.87-17.34,13,11.27-8.04,23.39-4.16,35.18-4.23,2.22-.01,4.59-1.32,6.63-2.5,6.76-3.92,12.84-3.85,18.19,2.4v3.57c-3.78,1.71-7.69,3.18-11.33,5.16-26.88,14.66-53.76,29.34-80.53,44.2-6.67,3.7-13.22,6.54-21.13,4.81-5.45-1.2-9.83,.89-13.03,5.61-2.83,4.18-6.08,8.09-8.9,12.28-2.67,3.96-4.85,5.63-10.01,2.52-6.3-3.8-19.6,4.18-18.3,10.66,1.6,7.94-1.61,14.59-3.55,21.67-1.58,5.79-4.77,6.87-9.95,3.94-9.86-5.58-13.46-3.74-13.95,7.83-.29,6.76-2.94,10.91-8.7,14.22-14.69,8.45-29.5,16.8-43.55,26.24-11.06,7.43-23.12,13.59-32.74,22.96-5.52,5.38-11.36,8.3-19.07,7.48-6.31-.67-11.75,.8-15.42,6.62-1.27,2.01-3.52,4.19-5.92,3.03-8.38-4.05-12.55,1.9-17.33,6.68-4.62,4.63-9.43,9.1-13.8,13.96-3.05,3.4-9.46,5.99-8.04,10.58,1.08,3.48,7.55,.83,11.53,1.66,.58,.12,1.19,.11,1.77,.22,5.7,1.14,7.25,3.52,2.74,8.22-5.35,5.58-10.33,11.52-15.76,17.01-3.66,3.71-5.27,6.75-.71,11.13,4.29,4.12,1.56,6.29-3.06,6.64-4.27,.32-8.7-.94-12.87,.83,.86,4.18,8.5,2.4,6.26,7.4-1.66,3.7-6.43,2.21-9.82,1.91-5.89-.53-11.79-1.02-17.55-2.88-8.82-2.84-12.12,4.81-15.84,9.93-3.62,4.98-2.32,10.17,3.75,13.33,5.68,2.96,3.28,6.82,.73,10.31-3.12,4.27-5.21,1.17-7.74-1.14-8.03-7.32-19.27-10.38-28.06-7.59-11.91,3.78-23.39,2.82-35.11,3.54-5.43,.33-10.18-1.27-13.42-5.61-5.74-7.7-12.6-8.98-20.97-4.8-5.66,2.82-9.37,1.09-11.93-4.81-4.37-10.09-9.19-19.99-13.91-29.94-3.28-6.92-5.64-14.6-14.67-16.65-1.34-.3-2.59-2.38-3.29-3.91-6.95-15.2-4.66-22.17,9.76-30.93,2.25-1.36,4.42-3.05,6.15-5.01,1.73-1.96,4.05-4.73,2.7-7.16-5.33-9.59-4.18-20.19-5.61-30.4-.6-4.32-2.63-7.58-7.69-6.31-11,2.75-20.55-.34-29.3-6.83-5.13-3.8-10.55-4.52-16.82-3.31-13.13,2.54-26.36,4.6-39.59,6.61-8.41,1.28-11.09-1.4-9.85-9.82,.86-5.88,1.96-11.76,3.51-17.48,2.96-10.9,4.67-21.44-3.1-31.33-2.24-2.85-2.13-6.8-2.14-10.35-.07-23.02-3.37-44.93-19.87-62.79-2.78-3-3.19-6.91-1.7-10.91,1.54-4.13,.41-7.58-3.01-10.31Z"/><g><path class="cls-2" d="M21.37,196.65c-.53-.32-.72-.29-.45,.07,.26,.37,1.14,1.05,2.29,2.47,.7,.56,1.36,1.24,1.91,2.06-.81-1.95-2.24-3.46-3.76-4.61Z"/><path class="cls-2" d="M25,218.47c1.4,1.4,3.02,2.86,4.05,3.75,1.01,.9,1.56,1.14,1-.1-.72-.72-1.35-1.25-1.88-1.75-.52-.5-.98-.94-1.44-1.39-.44-.42-.89-.85-1.41-1.35-.49-.48-1.02-1.08-1.56-1.95-.61-1.5-.61-2.96-.46-3.88,.16-.93,.41-1.34,.47-1.06,0-.28,.07-.72,.21-1.24,.14-.54,.36-1.07,.6-1.82,.49-1.42,.57-3.1,.24-4.06,0,1.2-.24,2.44-.65,3.64-.22,.61-.47,1.19-.67,1.78-.2,.6-.35,1.23-.45,1.88-.18,1.29-.13,2.68,.28,3.98,.4,1.31,1.16,2.51,2.15,3.47,.7,1.03-.21,.24-.49,.1Z"/><path class="cls-2" d="M135.6,432.86c-.26-.67-.53-1.34-.75-2.03,.16,.57,.43,1.26,.75,2.03Z"/><path class="cls-2" d="M286.18,493.53c.38,.21,.7,.39,.98,.55l.67,.45c.36,.22,.54,.38,.6,.39-.67-.58-1.32-.97-1.75-1.18-.43-.23-.65-.32-.49-.2Z"/><path class="cls-2" d="M295.43,472.9c-.61-.1-1.12-.19-1.65-.16,.61,0,1.25,.18,1.65,.16Z"/><path class="cls-2" d="M135.6,432.86c.66,1.7,1.3,3.55,2.8,5.16,.25,.08-.4-.52-1.02-1.52-.32-.5-.65-1.09-.96-1.73-.3-.65-.55-1.28-.82-1.91Z"/><path class="cls-2" d="M45.3,259.13c-.21-1.15-.43-2.09-.64-2.95,.17,.94,.34,1.85,.51,2.79,.04,.05,.08,.08,.13,.17Z"/><path class="cls-2" d="M145.95,355.68c-.34-.16-.73-.22-1.14-.27-.19,.04-.37,.08-.55,.12-.18,.06-.35,.13-.51,.2,.79-.2,1.54-.23,2.2-.05Z"/><path class="cls-2" d="M80.49,348.5c1.55-.24,2-.88,2.55-1.23-.83,.38-1.96,.68-3.31,.95,0,.11,.22,.2,.76,.28Z"/><path class="cls-2" d="M44.4,274.88l-.15-1.94c.04,.5,.1,1.36,.15,1.94Z"/><path class="cls-2" d="M149.95,398.89c-.14,.01-.36,.11-.58,.23,.04,.05,.27-.04,.58-.23Z"/><path class="cls-2" d="M88.84,168.86c.07-.03-.02-.07,0-.1-.47,0-.62,.01,0,.1Z"/><path class="cls-2" d="M20.39,197.69l-.03-1.13c-.11-.14-.21-.29-.32-.31,.12,.56,.23,1,.35,1.45Z"/><path class="cls-2" d="M337.63,456.69c.12,.16,.16,.21,.27,.36,.42,.48,.64,.95,.77,1.15,.12,.21,.13,.22,.06,.09-.07-.12-.22-.38-.41-.7-.19-.29-.44-.58-.69-.89Z"/><path class="cls-2" d="M632.03,185.72c4.31-1.84-1.28,1.1-2.67,2.5l2.28,2.13c.32-.66,.34-.87-.24-.15l-1.88-1.75c.45-.23,1.21-.64,2.32-1.28-.24,.07,.13-.23,.72-.64,.59-.41,1.38-.99,2.02-1.34,.62-.38,1.03-.68,.75-.68-.26,.03-1.29,.19-3.31,1.21Z"/><path class="cls-2" d="M45.49,260.94c.12,.94,.23,1.9,.35,2.86-.14-1.3-.25-2.18-.35-2.86Z"/><path class="cls-2" d="M631.85,187.17h0l.98-.45c-.41,.19-.64,.29-.98,.45Z"/><path class="cls-2" d="M400.11,380.79c-.34-.05-1-.12-1.68-.16,.06,.05,.43,.13,1.68,.16Z"/><path class="cls-2" d="M352.28,430.37c.68-.71,1.36-1.41,1.96-2.32-.73,1.05-1.4,1.71-1.96,2.32Z"/><path class="cls-2" d="M448.39,349.14c1.25-.78,1.7-1,3.35-2.16-.17,.08-.34,.16-.55,.28-.57,.46-1.35,1.03-2.8,1.88Z"/><path class="cls-2" d="M498.68,316.66c-.22,.27-.52,.63-.78,.95-.2,.26-.41,.54-.63,.82-.23,.27-.47,.53-.69,.79,.78-.77,1.47-1.64,2.09-2.56Z"/><path class="cls-2" d="M236.57,99.16c-1.23-.24-1.99-.39-2.59-.56,.43,.19-1.41,.34-2.09,.51-.35,.07-.41,.1,.22,.07,.63-.03,1.97-.13,4.46,0Z"/><path class="cls-2" d="M44.99,259.21c.19,.33,.37,.82,.5,1.74-.08-.69-.21-1.34-.32-1.98-.11-.16-.19-.19-.18,.24Z"/><path class="cls-2" d="M447.95,344.1c2.67-1.72,5.35-3.42,8.05-5.07-2.28,1.36-5.21,3.2-8.05,5.07Z"/><path class="cls-2" d="M569.26,42.38c-.43,.25-.81,.62-1.18,.99,.45-.41,.86-.77,1.18-.99Z"/><path class="cls-2" d="M480.13,324.58c1.56-.67,3.17-1.46,4.81-2.31,.32-.23,.69-.49,.88-.67l-5.69,2.99Z"/><path class="cls-2" d="M233.96,98.59s.02,0,.02,0c0,0,0,0-.02,0Z"/><path class="cls-2" d="M192.74,133.84c4.43-1.72,5.23-2.42,5.31-2.68,.06-.29-.72-.25,.07-.84,4.86-2.37,5.99-2.71,6.4-2.66,.4,.06,.05,.51,1.74,0,1.57-.69,3.29-1.56,4.73-2.8,1.47-1.18,2.73-2.97,3.19-4.91,.43-1.95,.13-3.73-.33-5.19-.11-.38-.24-.73-.38-1.07l-.37-.93c-.21-.5-.36-.98-.46-1.46,.08-.31,0-.99,.29-.21-.39-1.27-.31-2.52,1-4.02,1.27-1.48,3.55-3.03,5.64-4.35,2.18-1.27,4.52-2.28,6.82-2.98,2.31-.67,4.56-1.03,6.52-1.32,.59,.05,.89,.12,1.03,.17-1.28-.38-1.51-.69-1.25-.99,3.92-.19,7.4-.15,8.81,.56-1.21-.19-1.87-.22-2.37-.2l-1.41,.08c1.38,.06,2.76,.14,4.14,.29,1.79,.63,.38,.46-1.48,.23-.93-.11-1.98-.18-2.79-.23-.81,0-1.39,.04-1.4,.16,1.98,0,4.06,.22,6.16,.44,2.1,.28,4.22,.61,6.27,1.02,2.05,.39,4.07,.83,5.92,1.26,1.47,.31,2.56,1.59,3.55,2.8,.09,.37-.49-.19-1.28-.92-.4-.35-.85-.75-1.32-1.01-.23-.15-.47-.24-.72-.33l-.36-.11c-.18-.04-.35-.08-.52-.12-2.73-.62-4.59-1.03-.58,.26-3.14-.86-6.26-1.71-9.38-2.38,3.49,1.23,2.06,.94,.57,.62-1.5-.28-3.05-.56,.12,.6,3.05,.66,5.46,1.27,7.55,1.75,.52,.12,1.03,.24,1.51,.35l.36,.08c.14,.03,.13,.04,.2,.06,.1,.03,.21,.04,.31,.11,.41,.17,.87,.5,1.4,1.02,.53,.51,1.1,1.18,1.82,1.94,.72,.75,1.63,1.66,2.98,2.4,.34,.18,.69,.36,1.08,.49,.38,.15,.78,.27,1.2,.35,.2,.04,.4,.08,.61,.12l.43,.08c.29,.05,.58,.11,.88,.16,.6,.12,1.24,.21,1.9,.37,.66,.17,1.35,.36,2.08,.55,2.73,.4-.71-.85,2.03-.37,1.06,.3,2.03,.58,2.9,.94,.87,.35,1.69,.63,2.39,1.02,.71,.36,1.37,.69,1.96,1.02,.56,.37,1.08,.72,1.56,1.03,1.87,1.34,2.96,2.47,3.86,3.56,.23,.26,.45,.52,.67,.78,.2,.28,.4,.55,.6,.83,.4,.57,.9,1.09,1.35,1.79,.45,.69,1.09,1.37,1.66,2.31,.3,.46,.66,.93,1.01,1.48,.32,.56,.67,1.16,1.07,1.82,.8,1.37,1.58,2.27,2.22,4.02,.39,.85,.62,1.94,.89,3.36,.2,1.46,.25,3.13,.25,5.68-.31-1.08-.6-2.31-.94-3.24l.07,1.04c.02,.37,.03,.73,.05,1.07,.05,.68,.05,1.3,.13,1.87,.15,1.13,.25,2.04,.45,2.8,.32,1.52,.7,2.44,1.06,3.37,.16,.47,.4,.92,.62,1.46,.11,.27,.23,.56,.36,.87,.15,.31,.3,.65,.48,1.02,.69,1.47,1.66,3.6,3.97,6.31-.96-.82-2.74-2.89-3.67-4.8-.51-.92-.84-1.77-1.07-2.24-.19-.48-.24-.59-.09-.1,.74,2.2,1.49,3.64,2.17,4.6,.65,.99,1.21,1.53,1.72,2,.5,.49,1.02,.84,1.71,1.41,.33,.29,.74,.6,1.23,.97,.48,.39,1.05,.83,1.77,1.32,.26,.46,.52,.95,.82,1.38,.77,.46,1.54,.94,2.35,1.33l1.21,.61,1.24,.53c.82,.37,1.67,.66,2.51,.98l1.19,.43c.37,.13,.74,.28,1.11,.43,1.47,.62,2.94,1.38,4.38,2.24,.68,.4,1.55,.96,2.42,1.39,.86,.46,1.78,.84,2.73,1.17,1.9,.66,3.98,.98,6.05,.88,2.07-.12,4.09-.68,5.93-1.51,.9-.42,1.81-.92,2.6-1.41,.75-.46,1.48-.89,2.19-1.2,1.46-.65,2.73-.79,3.84-.2-.3-.04-.83-.13-1.02-.03-.1,.03-.11,.09,0,.16,.12,.07,.36,.18,.78,.45l.23,.12,.44,.25c.3,.16,.58,.35,.89,.49,.61,.3,1.24,.58,1.89,.8,1.3,.45,2.66,.74,4,.87,2.7,.25,5.29-.09,7.74-.45,4.81-.72,9.69-1.45,14.54-2.18,9.72-1.5,19.34-3.1,28.16-4.66l6.6-1.95c1.59-.33,3.02-.43,1.31,.1,3.54-.73,3.62-.95,3.21-.96-.41-.04-1.28,0,.37-.6,1.98-.61,3.3-1.07,3.84-1.17,.54-.1,.29,.16-.94,.73,1.53-.62,3.2-1.48,4.88-2.61,1.68-1.12,3.36-2.6,4.75-4.41,2.83-3.59,4.28-8.31,5.2-12.64,.49-2.24,.84-4.6,.78-6.98-.03-1.19-.15-2.37-.37-3.52-.12-.54-.24-1.07-.35-1.6-.1-.49-.2-.96-.26-1.43-.29-1.86-.15-3.5,.58-4.48,.37-.53,.8-.87,1.44-1.27,.79-.54,1.59-1.02,2.25-1.56-.63,.64-1.38,1.19-2.09,1.78,2.37-1.5,3.79-3.02,5-4.28,1.17-1.28,2.04-2.4,2.91-3.45,.43-.53,.86-1.06,1.32-1.57,.46-.53,.95-1.05,1.51-1.57,1.1-1.06,2.49-2.17,4.44-3.03l-.7,.42c-.23,.15-.44,.33-.66,.49,1.73-1.09,3.6-1.86,5.57-2.17,1.99-.24,4.01-.05,6.16,.46,.84,.21,1.72,.15,2.53-.12,.74-.25,1.32-.55,1.87-.87,1.08-.64,2.01-1.34,2.9-1.99,1.75-1.28,3.52-2.46,5.35-3.31,1.83-.86,3.73-1.37,5.64-1.43h.73c.31-.02,.63-.01,.94-.04,.63-.05,1.26-.13,1.87-.29,1.23-.29,2.39-.8,3.41-1.41,2.06-1.21,3.64-2.89,5.06-4.22,.72-.68,1.43-1.35,2.14-2.02,.73-.63,1.46-1.25,2.17-1.87,1.41-1.25,2.91-2.31,4.3-3.39,1.45-1.01,2.83-1.99,4.22-2.84,1.03-1.23,5.48-4.16,10.01-6.49,4.5-2.4,9.03-4.21,9.44-5.03,1.44-.55,2.69-.9,3.75-1.25,1.06-.35,1.97-.6,2.78-.81,1.62-.44,2.83-.75,4.21-1.06,.69-.16,1.41-.34,2.24-.54,.83-.18,1.78-.39,2.9-.64,2.23-.51,5.2-1.1,9.45-1.81,2.37-.41,4.15-1,6.03-1.79,.47-.19,.94-.41,1.44-.65,.49-.22,1-.49,1.54-.78,1.07-.56,2.25-1.27,3.54-2.27l.5,.39c2.37-2,3.96-4.76,4.86-7.47,.38-.66,.78-1.34,1.11-2.03,.31-.66,.67-1.51,.93-1.93,.35-1.44,1.03-2.74,1.92-3.74-.58,.55-1.13,1.28-1.52,1.84-.38,.57-.63,.96-.66,.8,.58-1.69,1.8-3.4,3.4-4.14,1.58-.8,3.38-.52,4.86,.23,1.99,.99,4,1.67,5.65,1.88,1.64,.24,2.83,.02,2.91,.08l.87-.25,.84-.38c.58-.24,1.05-.65,1.55-.99,.89-.79,1.66-1.69,2.16-2.63,1.06-1.86,1.55-3.72,1.9-5.51l.42-2.45c.16-.73,.34-1.45,.57-2.15,.47-1.39,1.13-2.67,1.98-3.76-.02,.23-.46,.87-.91,1.8-.45,.92-.89,2.14-1.13,3.27,.52-2.28,1.17-3.34,1.56-3.9,.39-.57,.6-.62,.74-.69,.15-.07,.3-.11,.7-.49,.43-.35,1.04-1.12,2.7-2.01-1,.28,.35-.57,.52-.72,.47-.11,1.11-.24,1.68-.28,.53-.05,.98,.04,1.36,.19,.37,.16,.75,.47,1.18,1.07,.42,.59,.83,1.41,1.23,2.35,.4,.94,.79,1.99,1.29,3.14,.55,1.24,1.09,2.19,1.64,3.24,1.1,2.06,2.3,4.07,3.55,5.85-.42-.39-.86-.77-1.26-1.17,1.98,3.23,4.46,6.51,7.75,9.15,3.26,2.66,7.25,4.57,11.35,5.58,.95,.23,1.9,.47,2.86,.7,.45,.09,.86,.24,1.28,.36,.43,.12,.84,.26,1.21,.42,1.54,.59,2.77,1.51,2.73,1.98,.27,.44-.28,2.02-1.26,3.42-.21,.36-.52,.72-.79,1.08-.26,.36-.57,.72-.88,1.07-.31,.35-.6,.71-.95,1.06l-1.04,1.09c-.66,.62-1.14,1.69-1.32,2.16,.14-.31,.29-.66,.57-1.12,.25-.41,.54-.74,.81-.99,1.31-1.2,1.84-1.53,1.93-1.39,.08,.18-.33,.84-1.3,1.98-.27,.29-.52,.66-.73,1.08-.21,.43-.32,.75-.45,1.09-.22,.25-.43,.47-.63,.65l-1,.85,1.78,1.71c.31,.3,.65,.59,1.02,.86,2.49,.56-.39-.32-.99-.91l-1.49-1.44,.73-1.05c.1-.14,.15-.17,.1,.05l-.54,2.19,1.26,.16c.24,.03,1.06,.54,2.84,.78,1.87,.32,3,.17,3.66,.22,.65,.02,.86,.09,.79,.2-.08,.11-.45,.25-1.09,.4-.63,.14-1.56,.29-2.73,.23,1.65,.12,3.07-.12,4.25-.25,1.15-.12,2.29-.19,3.33-.1,.34,.22-1.13,.19-1.54,.47,.66-.11,1.72-.06,2.65,.23,.44,.15,.85,.35,1.03,.57,.19,.21,.26,.37,.34,.69,.11,.7-.09,2.07-.53,3.35l-.09,.31-.14,.53c-.07,.36-.13,.73-.13,1.09-.03,.72,.07,1.39,.22,1.92,.15,.53,.32,.96,.46,1.27,.07,.13,.13,.26,.19,.39l.07,.13s.02-.02,.03,0c-.06,.03-.12,.06-.18,.08,0,.03,0,.05,0,.06-.09,.49-.17,.97-.25,1.44-.08,.52-.14,1.02-.21,1.52-.14,1-.21,1.94-.31,2.86-.15,1.77-.3,3.44-.43,5.02-.29,3.08-.76,5.68-1.59,7.97-.83,2.28-2.04,4.25-3.78,5.99-.43,.44-.93,.83-1.4,1.26-.21,.19-.58,.49-.88,.73-.32,.26-.63,.52-.93,.8-1.24,1.1-2.44,2.34-3.59,3.72,.12,.29-.77,1.5-1.83,3.19-1.06,1.68-2.23,3.87-2.94,5.89-.6,1.16-1.13,2.37-1.65,3.61-.25,.62-.5,1.25-.73,1.89-.22,.61-.44,1.23-.66,1.85-.82,2.3-2.06,4.47-3.71,5.51-.82,.53-1.75,.8-2.84,.83-1.09,.04-2.3-.16-3.53-.49l-.93-.27-.12-.05-.4-.17-.87-.37c-1.17-.47-2.33-.74-3.37-.54-.52,.09-1.05,.28-1.5,.65-.43,.36-.75,.8-.97,1.28-.49,.9-.43,2.34-.53,3.55-.02,.25-.03,.48-.05,.7-.01,.22-.02,.45-.06,.56-.07,.27-.08,.56-.17,.73-.11,.4-.25,.6-.32,.79-.21,.31-.23,.42-.19,.48,.03,.06,.13,.05,.13,.15,0,.05-.04,.11-.13,.23-.09,.12-.24,.28-.54,.47-.14-.05-.77,.12-1.71,.24-.94,.12-2.23,.16-3.4,.19-1.16,.02-2.21,.1-2.49,.09-.29,0,.17-.18,1.81-.4-3.85,.31-7.16,1.22-9.87,2.76-2.71,1.55-4.77,3.66-6.28,6.13-.2,.3-.36,.63-.54,.95l-.27,.5-.33,.74c-.2,.5-.48,.99-.62,1.52-.16,.52-.27,1.06-.33,1.58-.11,1.05,.03,2.04,.57,2.95,.53,.91,1.53,1.66,2.58,1.76,.53,.07,1.08,.06,1.7-.06,.6-.1,1.33-.37,1.95-.56,.32-.1,.64-.2,.96-.31,.21-.06,.41-.12,.62-.18,.42-.12,.85-.24,1.28-.36,.87-.23,1.77-.43,2.66-.55,.23-.04,.43-.04,.65-.07,.21,0,.43-.02,.53-.01,.24,0,.46,.04,.68,.14-.31-.61-2.84-.32-1.72-.64,.35-.04,.77-.06,1.04-.04,.27,.01,.5,.06,.72,.15,.46,.17,.72,.61,.77,.99,.09,.64-.18,1.63-.27,1.38,0-.24-.02-.49-.04-.68,.08,.94-.09,2.19-.33,3.41-.25,1.25-.6,2.46-.95,3.94-.14,.74-.29,1.48-.34,2.31-.05,.38-.02,.86,0,1.3,.03,.45,.14,1.05,.3,1.54,.32,1.04,1.05,1.92,2,2.45,.94,.55,2.1,.76,2.88,.79,1.69,.12,3.15-.05,4.61-.18,1.47-.15,2.93-.33,4.39-.57,2.92-.46,5.8-1.08,8.6-1.8,5.61-1.45,10.93-3.25,15.78-4.96,4.37-1.56,8.79-1.68,12.74-1.65h-.88c2.71,.06,5.49,.34,8.31,.61,1.41,.14,2.85,.27,4.29,.38,.73,.04,1.45,.1,2.18,.12l1.1,.04,.5,.02c.1,0,.2,.01,.3,.02,.54,.13,.78,.35,.91,.48,.13,.14,.14,.21,.13,.23-.04,.03-.23-.14-.52-.24-.29-.11-.68-.1-.8-.03-.14,.08,.09,.11,.52,.38,.34,.13,.5,.26,.62,.63,.09,.29,.09,.57-.09,.8-.09,.11-.2,.18-.34,.25-.16,.07-.6,.21-.99,.3-.85,.21-1.82,.36-2.7,.53-1.8,.32-3.53,.62-5.21,.92-.85,.14-1.68,.28-2.51,.42-.45,.09-.89,.18-1.34,.27-.44,.11-.88,.22-1.31,.34-3.48,.97-6.67,2.71-9.35,5.04-2.68,2.33-4.86,5.18-6.7,8.38l-4.94,8.57,8.08-5.65c.46-.32,.95-.67,1.46-1.02,1.24-.55,2.72-1.13,4.41-1.67,1.72-.47,3.62-.95,5.77-1.15,4.29-.49,9.38-.13,14.86,.26,1.37,.08,2.76,.17,4.18,.21,.7,.03,1.42,.04,2.13,.04h1.07c.46,0,.97-.04,1.42-.12,1.83-.32,3.28-1,4.59-1.67,.65-.34,1.27-.69,1.85-1.03,.55-.3,1.04-.6,1.57-.84,2.07-1.02,4.14-1.56,5.92-1.45,1.78,.08,3.27,.8,4.48,1.76l-.41-.69c.36,.19,.7,.35,.98,.54,.28,.2,.54,.39,.77,.57,.22,.21,.41,.4,.59,.59l.25,.27,.05,.1c.05,.13,.1,.26,0,.35l-.04,.06-.02,.03-.02,.21s-.04,.07-.05,.1c.07,.01,.12-.01,.17-.07,.02,.07,.04-.32,.06-.27l.05-.12,.05-.11s0-.05,.01-.06c.03-.02,.14,0,.16,.16l.02,.58v.22c0,.07,.04,.16-.06,.18l-.4,.19-1.34,.59c-1.99,.87-4.03,1.74-6.07,2.74-2.09,1.02-3.96,2.13-5.9,3.17-1.93,1.06-3.87,2.12-5.82,3.18-7.78,4.23-15.67,8.46-23.58,12.68-15.84,8.43-31.78,16.91-47.42,25.23-2.71,1.5-4.45,2.46-5.75,3.18-1.26,.72-2.07,1.23-3.01,1.72-.93,.48-2,.95-3.77,1.27-.89,.17-1.95,.23-3.25,.2-.65-.04-1.36-.1-2.12-.25-.81-.14-1.46-.34-2.71-.61,.42,.02,.95,.06,1.29,.07l1.05,.03c.69-.02,1.38-.03,2.05-.13-.71,0-1.42-.07-2.13-.15l-1.07-.17c-.48-.07-.95-.17-1.44-.22-1.95-.22-4.04-.12-6.02,.52-1.99,.6-3.77,1.71-5.25,3.02-.72,.67-1.4,1.37-1.99,2.13-.61,.74-1.14,1.57-1.56,2.18-1.82,2.66-3.84,5.27-5.84,7.99-2,2.59-3.99,6.2-5.33,6.5-.3,.11-.61,.13-1.11,.03-.49-.11-1.07-.3-1.69-.63-.3-.13-.62-.34-.93-.51l-.71-.38c-.26-.15-.53-.24-.79-.35-1.07-.41-2.16-.6-3.2-.66-2.09-.09-4.01,.29-5.8,.88-1.79,.6-3.46,1.43-5.01,2.44-1.55,1.03-2.99,2.23-4.24,3.75-1.2,1.52-2.35,3.41-2.47,5.87,0,.31-.01,.61,.03,.92,.03,.28,.09,.67,.13,.87l.2,1.06c.1,.71,.2,1.43,.22,2.15,.07,1.44,0,2.9-.19,4.37,.02-1.41-.1-1.48-.03-3.7-.12,1.2-.32,2.9-.73,4.82-.41,1.92-1.01,4.07-1.61,6.13-.59,2.06-1.14,4.05-1.45,5.54-.26,1.27-.48,1.94-.4,2-.17,.36-.32,.59-.44,.76-.11,.19-.22,.26-.29,.33-.15,.13-.2,.13-.25,.09-.08-.08-.17-.14-.58,.06-.22,.08-.35,.15-.66,.16-.31,0-.74-.02-1.27-.17-1.09-.27-2.28-.92-3.86-1.68-2.92-1.44-6.01-2.35-8.12-2.54-.35-.04,.19-.08,1-.07,.39,.01,.79,.09,1.21,.15,.42,.05,.79,.14,1.07,.23-.48-.15-1.27-.25-2.14-.38-.49-.02-1.01-.03-1.55-.03-.6,.1-1.22,.13-1.87,.37-1.34,.41-2.58,1.4-3.38,2.46-.39,.52-.66,1.06-.95,1.59-.21,.51-.41,1.01-.58,1.49-.26,.93-.49,1.81-.57,2.52-.13,.73-.18,1.33-.2,1.75-.04,.86,.02,1.05,.26,.16-.1,.64-.17,1.27-.21,1.89-.05,.6-.09,1.19-.14,1.78-.07,1.06-.22,2.08-.44,3.04-.42,1.94-1.23,3.59-2.36,5.01-1.14,1.41-2.62,2.58-4.24,3.53-1.7,1-3.49,1.97-5.17,2.85-4.03,3.01-14.41,7.97-15.33,9.55,.07-.56-3.67,1.41-8.02,4.04-4.35,2.62-9.29,5.92-11.72,7.78,1.56-1.36-4.6,2.69-2.8,1.05-5.7,3.85-11.01,7.25-9.74,7.03-5.7,2.9-11.11,6.54-15.69,10.18-2.29,1.82-4.39,3.6-6.25,5.25-.93,.8-1.84,1.63-2.65,2.28-.79,.64-1.56,1.16-2.31,1.55-1.79,1.55-3.71,2.82-5.74,3.7-2.04,.88-4.2,1.34-6.42,1.42-.56,0-1.11,.03-1.67-.02l-1.85-.11c-1.34-.07-2.69-.05-4.06,.1-2.72,.3-5.5,1.24-7.78,2.89-1.13,.83-2.13,1.8-2.99,2.85-.42,.53-.83,1.07-1.18,1.63l-.48,.74c-.14,.21-.28,.41-.43,.6-.58,.76-1.31,1.37-1.85,1.55-.61,.17-.54,.15-2.12-.5-1.22-.49-2.56-.81-3.94-.94-1.39-.1-2.82,.08-4.15,.5-1.31,.46-2.5,1.12-3.55,1.87-1.03,.77-1.96,1.6-2.82,2.45-.01-.27,.86-1.4,2.6-2.74,.91-.64,1.99-1.37,3.38-1.84,1.37-.47,2.95-.73,4.46-.6,1.5,.13,2.92,.49,4.12,.98,.3,.12,.59,.24,.88,.36l.21,.09c.08,.03,.15,.06,.15,.06,.04,.01,.09,.03,.13,.05,.15,.03,.25,.01,.38-.02,.25-.07,.59-.31,.77-.54,.19-.23,.23-.4,.11-.45-.52,.5-.93,.63-1.01,.64-.03,0-.06,0-.1,0-.02,0-.05-.02-.08-.02-.02,0-.02,0-.06-.01l-.21-.08c-.55-.22-1.09-.44-1.64-.64-2.21-.76-4.76-.96-7.04-.34-2.28,.6-4.11,1.84-5.57,3.11-1.46,1.28-2.66,2.63-3.82,3.91-2.26,2.52-4.71,4.97-7.29,7.59-1.3,1.32-2.64,2.67-4.03,4.09-.69,.72-1.4,1.46-2.13,2.21-.36,.38-.72,.77-1.09,1.16-.36,.39-.76,.83-1.07,1.12-.72,.67-1.06,.88-1.05,.81,.01-.06,.33-.41,.74-.86,.87-1.07,2.21-2.71,2.68-3.29l-1.51,1.68-.74,.85c-.25,.29-.42,.46-.64,.69-.9,.88-2.02,1.75-3.18,2.68-1.15,.94-2.39,1.92-3.5,3.37-.56,.69-1.04,1.62-1.34,2.64-.11,.51-.24,1.12-.17,1.7,.02,.29,0,.59,.06,.88l.18,.86c.08,.27,.23,.51,.35,.77,.13,.25,.23,.52,.43,.73,.34,.46,.79,.81,1.27,1.11,.25,.13,.51,.25,.77,.36,.26,.1,.55,.17,.82,.24,.28,.07,.56,.12,.84,.15,.25,.02,.47,.06,.67,.06,1.67,.06,3.07-.13,4.4-.23,1.31-.11,2.56-.17,3.49,0l.6,.1,.6,.06c.37,.03,.57,.05,.76,.09,.6,.12,1.18,.26,1.71,.43,.24,.1,.53,.17,.74,.28l.33,.15c.1,.04,.11,.06,.17,.09,.19,.12,.37,.26,.47,.47,.09,.21,.08,.45,.01,.67-.04,.19-.24,.55-.54,1.01-.31,.44-.66,.89-1.05,1.33-.37,.44-.87,.96-1.3,1.44-.88,.98-1.74,1.96-2.59,2.95-.03-.09,1.04-1.4,2.09-2.62-2.11,2.29-4.96,5.22-4.42,5.24l1.94-2.3c3.73-3.25-7.28,9.92-7.45,10.49,1.34-2.31-1.3,.47-3.82,2.86-.65,.61-1.26,1.27-1.78,1.85-.51,.59-.91,1.13-1.17,1.44-.25,.33-.39,.41-.37,.09,.02-.33,.25-1.03,.83-2.1-.69,.93-1.39,2.2-1.64,3.33-.25,1.13-.1,1.89,.04,1.57-.11,1.03,.06,1.9,.22,2.49,.18,.58,.3,.96,.34,1.11,.03,.15-.06,.1-.29-.22-.2-.34-.57-.95-.8-2.06,.33,2.06,1.28,3.27,1.99,4.17,.37,.44,.72,.82,1.06,1.12,.29,.27,.56,.52,.8,.75,.83,.77,.92,.86,1.15,1.23,.17,.32,.25,.82-.21,1.22-.23,.2-.5,.36-1,.51-.69,.2-1.6,.34-2.75,.38,.03-.19,1.88-.38,2.57-.84-.76,.28-1.66,.47-2.64,.57-.49,.05-1,.08-1.53,.1-.27,0-.54,.01-.81,.02-.3,0-.61,0-.92,0-1.65-.03-3.53-.04-5.16,.19-1.68,.23-3.07,.68-4.87,1.29-.05,.1-.11,.21-.17,.32l-.09,.16-.04,.08,.04,.14c.12,.37,.23,.77,.4,1.09,.33,.69,.69,1.24,1.2,1.7-.26-.16-.27-.09-.43-.17-.08-.04-.2-.12-.36-.33-.17-.2-.4-.5-.69-1.12,.42,.9,.9,1.47,1.57,2.02,.65,.54,1.43,1.07,2.66,1.7,.62,.31,1.34,.62,1.95,.93l.21,.12,.06,.04s.02,.03,.02,.03c0,0,.05,.01,.03,.06,0,.02,.01,.04,.03,.05,0,.03-.02,.09-.02,.13-.03,.1,.02,.17-.05,.32-.09,.27-.16,.56-.3,.78-.24,.46-.55,.77-1.01,1.01-.46,.23-1.08,.36-1.76,.41-1.38,.08-2.91-.14-4.54-.29-3.26-.23-6.4-.37-9.77-.82-1.67-.23-3.38-.52-5.12-.94-.87-.22-1.75-.45-2.63-.74l-.67-.22-.75-.21c-.5-.14-1.01-.3-1.56-.35,.66-.04,1.05,0,1.25-.03,.2-.02,.2-.07,.04-.15-.29-.19-1.24-.38-2.42-.5-1.19-.04-2.65,.04-3.79,.43-.6,.13-1.08,.36-1.49,.49-.41,.13-.7,.23-.85,.23-1.47,.95-2.62,2.14-3.58,3.36-.97,1.22-1.79,2.47-2.56,3.69,.75-.89,1.51-1.81,2.36-2.68-1.22,1.56-2.18,3.14-3.13,4.61-.24,.36-.47,.72-.7,1.08-.25,.4-.51,.81-.76,1.21-.45,.86-.87,1.74-1.1,2.69-.54,1.88-.39,3.96,.35,5.73,.77,1.76,2.01,3.16,3.37,4.28-1.66-1.15-3.22-2.78-3.98-4.94,.43,1.36,1.18,2.59,2.1,3.58,.92,.99,1.97,1.79,3.07,2.46,1.2,.68,2.03,1.07,2.75,1.7,.69,.62,1.06,1.25,1.09,2,.02-.83-.38-1.64-1.25-2.37-.42-.37-.91-.67-1.44-1-.61-.37-1.21-.74-1.78-1.18,.86,.56,1.57,.84,2.04,1.07,.43,.19,.73,.3,.93,.36,.37,.15,.42,.06,.5,.02,.07-.02,.25-.06,.76,.41,.26,.22,.62,.57,.93,1.17,.31,.59,.51,1.48,.22,2.61,.11-.95,.02,.84-1.51,2.95-.72,1.03-1.62,2.36-2.57,2.95-.48,.31-1.06,.42-1.54,.28-.48-.13-.85-.42-1.11-.67h.02c-.67-.4-1.38-1.03-2.11-1.66-.74-.65-1.56-1.26-2.39-1.93-1.72-1.28-3.69-2.6-6.16-3.95-1.21-.89,1.43-.2,.65-.78-.46-.15-1.06-.39-1.79-.64-.72-.28-1.56-.57-2.49-.88-1.87-.6-4.11-1.18-6.43-1.46-2.32-.3-4.73-.27-6.8,.05-2.06,.3-3.84,.96-4.85,1.43,1.4-.58,1.45-.97,.89-.91-.95,.43-1.83,.91-2.77,1.31-1.68,.35-2.65,.48-3.14,.5-.49,.02-.49-.08-.25-.29-2.51,.47-3.58,.63-3.93,.76-.35,.13,0,.19,.31,.25,.3,.06,.54,.11-.06,.24-.6,.12-2.03,.33-5.11,.47,.96-.13,.5-.14,2.48-.42-6.12,.54-12.12,.59-18.02,.87-1.48,.07-2.95,.16-4.41,.26-1.4,.11-2.79,.07-4.15-.13-1.35-.21-2.67-.59-3.88-1.17-1.2-.59-2.3-1.38-3.23-2.33-.79-1.41,.7,.39,2.62,1.42,1.92,1.07,4.06,1.44,2.47,.7-1.72-.55-3.32-1.45-4.65-2.72-.33-.32-.66-.65-.95-1.01l-.99-1.2c-.35-.44-.71-.86-1.11-1.26-.38-.41-.77-.82-1.21-1.19-1.68-1.53-3.68-2.83-5.93-3.58-2.24-.76-4.67-.84-6.92-.49-2.26,.36-4.37,1.15-6.33,2.11l-1.39,.67c-.44,.21-.89,.38-1.34,.53-.9,.31-1.81,.44-2.67,.38-1.74-.09-3.21-1.21-4.29-2.74-.52-.78-.99-1.61-1.37-2.5-.4-.93-.8-1.85-1.19-2.76l1.12,2.75c-1.83-1.59-4.34-11.1-8.28-18.17,.92,1.75,1.64,2.09,1.31,1.66-2.22-4.92-4.7-9.89-7.42-15.42-1.35-2.77-2.7-5.86-4.91-8.84-1.11-1.48-2.48-2.9-4.16-4.03-1.66-1.13-3.67-1.97-5.69-2.38-.1-.03-.24-.05-.37-.11,.13,.04,.26,.04,.39,.05l1.58,.23c-.44-.14-.91-.28-1.51-.47-.51-.14-.85-.47-1.33-1.09-.45-.6-.86-1.35-1.22-2.14-.36-.85-.73-1.73-1.11-2.61-.36-.89-.68-1.81-1.02-2.72-1.25-3.65-1.87-7.49-1.22-10.33,.06-.46,.11-1.04,.25-1.59,.17-.54,.35-1.08,.48-1.5,.37-.79,.48-1.17-.26-.26,1.31-2.18,3.1-3.99,5.09-5.56,1.99-1.56,4.07-3.01,6.24-4.32,2.19-1.31,4.44-2.91,6.27-4.82,.93-.98,1.73-1.94,2.52-3.04,.75-1.11,1.51-2.35,1.65-3.97,.06-.8-.11-1.67-.51-2.38l-.87-1.6c-.53-1.07-1.02-2.15-1.42-3.27-.82-2.23-1.37-4.56-1.75-6.91-.75-4.72-.77-9.49-.87-14.3,.21,2.29,.63,5.42,.52,3.61-.23-2.71-.47-5.41-.93-8.18-.26-1.43-.69-2.9-1.55-4.27-.45-.68-1.02-1.31-1.73-1.81-.7-.51-1.55-.8-2.36-.95,.72,.39,1.32,.64,2.08,1.23,.75,.57,1.63,1.57,2.12,3.33-.28-.48-.61-1.11-1.16-1.74-.54-.63-1.31-1.25-2.26-1.58-.95-.34-2.02-.36-3.05-.19-1.03,.2-2.02,.46-3,.66,3.48-.93,3.58-1.06,2.14-.99-.71,.05-1.63,.19-2.63,.29-.99,.08-2.01,.16-2.77,.14,.52,.09-.51,.35-.24,.47-1.04,0-1.84-.09-2.46-.08-.62-.04-1.07-.07-1.42-.06-.69,.03-.97,.1-1.34,.2-.37,.09-.85,.23-1.94,.11-.55-.04-1.24-.14-2.14-.36-.45-.09-.95-.23-1.5-.42-.56-.17-1.17-.38-1.83-.66l.65-.03c-4.07-1.23-7.76-2.89-11.49-5.68-.63-.77,.35-.16,1.53,.62,.6,.37,1.27,.78,1.81,1.07,.55,.28,.98,.46,1.1,.4-1.4-.79-2.75-1.65-4.1-2.5-1.36-.89-2.83-1.7-4.34-2.26-3.02-1.17-6.14-1.47-9.14-1.58,1.4-.15,3.15-.14,4.87,.13,1.72,.27,3.4,.81,4.73,1.37-2.92-1.68-4.9-2.01-6.55-2.24-1.67-.18-3.15-.17-5.63,.12l.49-.05c-1.94,.21-3.74,.57-5.56,.84l-5.47,.85,2.8-.33c-7.81,2.84-16.39,3.1-27.16,5.68,10.47-2.5,1.68-.76,2.4-1.49-2.81,.27-7.08,.73-5.9,.38-2.57,.62-4.69,.95-6.83,.79-1.05-.09-2.1-.32-2.82-.81-.36-.26-.68-.57-.96-1.05-.26-.5-.53-1.13-.67-1.93,.08-.15-.02-1.36,.14-2.5,.13-1.12,.36-2.07,.53-1.48,.83-6.63-.59,1.53-.7,.9,.05-1.23,.22-2.6,.41-3.99,.2-1.39,.44-2.83,.73-4.31,.58-2.95,1.33-6.05,2.25-9.25,.95-3.2,1.95-6.66,2.49-10.33,.57-3.66,.64-7.63-.28-11.48-.73-3.34-1.93-5.81-3.13-7.79-.66-.96-1.23-1.86-1.91-2.62-.32-.38-.63-.76-.93-1.13-.28-.33-.54-.68-.76-1.06-.9-1.5-1.33-3.3-1.54-5.39-.11-1.05-.16-2.18-.21-3.43-.06-1.24-.12-2.6-.19-4.1,.09-2.03,.3-1.21,.47,.13,.16,1.34,.28,3.19,.28,3.19,.22-6.58-.06-11.55-.98-17.7,.32,1.23,.31-.07,.3-1.99-.81-4.95-1.09-3.21-2.18-9.71,.5,1.04,1.08,2.41,1.79,4.75-1.23-5.81-3.11-11.4-5.59-16.99-.17-.81,.34-.02,.96,1.25,.57,1.28,1.34,3.01,1.76,4.01-1.18-3.26-2.81-7.46-4.77-10.83l-.68-1.25c-.25-.39-.49-.78-.72-1.14-.47-.73-.91-1.41-1.3-2.01-.83-1.18-1.55-2-1.94-2.38l1.14,1.89c.38,.63,.69,1.3,1.04,1.94-1.27-2.15-.25-1.36,.76,.21,.41,.62,.8,1.19,1.12,1.74,.3,.56,.58,1.09,.82,1.57,.47,.98,.86,1.78,1.08,2.47,.45,1.37,.55,2.13,.52,2.32-.6-1.32-1.19-2.65-1.9-3.91,.51,2.23,2.25,6.17,3.87,10.77,1.62,4.59,3.04,9.86,3.6,14.19l-1.39-3.45c.34,1.44,.71,2.89,1.02,4.34,.28,1.46,.61,2.92,.86,4.39-.06,1.92-.39,3.23-.91-1.01,.08,3.11,.29,4.46,.42,5.72,.13,1.26,.31,2.41,.15,5.08-.05,.59-.1,.32-.15-.22,.17,2.01,.27,4.03,.38,6.05-.19-1.19-.58,1.01-.5-2.71-.05,1.36-.06,2.65-.07,3.88-.02,1.23,0,2.43,.08,3.58,.17,2.29,.75,4.43,1.85,6.04,.59,.82,1.08,1.4,1.55,2.02,.49,.59,.84,1.22,1.2,1.79,.37,.56,.61,1.14,.85,1.67,.11,.27,.22,.53,.32,.78,.07,.26,.14,.51,.19,.76-.13-.27-.24-.54-.38-.8,1.5,3.33,1.79,5.28,2.04,6.24,.22,.98,.32,1.03,.41,.97,.09-.06,.19-.25,.39,.28,.15,.54,.5,1.8,.56,4.68-.63,2.55-1.52,4.97-2.52,7.32l.28,1.57c-.36,1.51-1.2,4.47-1.29,3.86-1.07,5.75,.5-.9,.03,2.48-1.2,3.58-2.16,8.69-2.83,13.09-.34,2.2-.65,4.24-.71,5.86-.08,1.63,.07,2.84,.02,3.36,.75,1.32,.03-.57,.02-1.74-.02-.59-.03-1,.04-.75,.13,.22,0,1.21,.91,3.06,.01,.63,.47,1.56,1.49,2.24,1.01,.68,2.44,.96,3.93,.96,1.5,0,3.09-.28,4.73-.55,1.63-.28,3.34-.53,5.05-.67-2,.85-8.47,1.55-1.61,.99,3.95-1.52,13.24-1.85,18.93-2.99,.07-.38,3.17-.97,7.43-1.74,2.13-.39,4.55-.84,7.04-1.29,2.5-.49,4.96-1.01,7.34-1.03-.15,.08,.89,.06,2.63,.34,1.72,.28,4.14,.94,6.49,2.39,.58,.36,1.17,.76,1.75,1.19,.62,.45,1.24,.91,1.87,1.37,1.29,.89,2.62,1.77,3.98,2.52,2.71,1.54,5.47,2.67,7.72,3.35l-.3,.04c.97-.09,3.78,.54,7.27,.62,1.74,.07,3.65-.06,5.53-.28,.93-.17,1.88-.28,2.77-.51,.45-.11,.9-.21,1.33-.31,.4-.08,.8-.2,1.18-.23-.1,.22-.41,.42-1.07,.69-.78,.29-1.99,.7-3.88,1.06l1.65-.26c.55-.1,1.08-.23,1.63-.35l1.45-.31,.65-.07c.21,0,.41,0,.62,0,.56-.06,1.24-.04,1.99,.44,.74,.48,1.56,1.55,2.04,3.42-.29-.44-.61-.84-.94-1.18,.33,.82,.55,1.74,.71,2.72,.15,1.03,.31,2.07,.43,3.14,.26,2.12,.47,4.32,.68,6.6,.45,4.57,.82,9.54,2.33,15.02,.34,.22,.01-2.02,.19-2.88,.07-.43,.21-.53,.53,.18,.15,.35,.36,.9,.67,1.69,.28,.8,.69,1.83,1.27,3.12-.04,.25-.13,.52-.37,.38-.24-.13-.65-.67-1.2-2.1,.34,.95,1.46,3.25,2.34,5.06-.86-1.3-1.68-2.65-2.36-4.07,.82,2.42,1.27,2.96,1.61,3.38,.17,.21,.34,.39,.57,.74,.2,.31,.5,.78,.44,1.67-.2-.04-.32,.56-.61,1.09-.28,.53-.62,.98-.63,.68,.21-.4,.58-1.07,.68-1.77,.04-.34,.03-.69-.09-1-.06-.16-.13-.27-.22-.45-.11-.19-.22-.37-.33-.54,.11,.24,.29,.57,.36,.74,.09,.18,.14,.37,.18,.56,.07,.39,0,.81-.14,1.25-.29,.88-.92,1.75-1.57,2.5-1.35,1.55-2.67,2.65-3.4,3.07,.21-.04,.3,.06,.05,.43-.26,.37-.87,1.02-2.16,1.95-1.68,1.13-2.83,1.77-3.48,2.15-.67,.36-.92,.46-1.08,.48-.32,.05-.29-.21-2.43,1.2-.38,.39-.95,.88-1.59,1.41-.63,.54-1.29,1.2-1.91,1.78-.59,.63-1.1,1.26-1.46,1.73-.35,.49-.48,.89-.39,1-.82,1.03-1.24,1.71-1.6,2.18-.19,.24-.35,.43-.5,.62-.13,.2-.26,.4-.4,.63-.46,1.13-.96,3.13-1.06,5.38-.03,2.24,.4,4.63,.94,6.62,.3,.99,.61,1.88,.87,2.65,.3,.74,.57,1.35,.76,1.76,.39,.82,.52,.85,.22-.38l-.37-1.09c.08,.2,.18,.43,.28,.67v0c.63,1.55,1.35,3.04,2.08,4.58,.39,.77,.84,1.52,1.4,2.23,.53,.68,1.31,1.46,2.3,1.66,1.38,.36,2.67,.79,3.87,1.48,1.19,.69,2.31,1.52,3.25,2.54,1.91,2.02,3.25,4.53,4.43,7.11,2.26,5.25,4.71,10.46,7.15,15.39l-.19,.06c1.93,3.8,3.98,8.08,5.88,12.09,.94,2.01,1.86,3.94,2.7,5.72,.82,1.76,1.62,3.47,2.62,4.71,.72,1.09,1.81,2.27,2.8,2.91,.48,.33,.9,.54,1.11,.68,.21,.14,.21,.21-.11,.17,.93,.28,1.79,.33,2.54,.27,.76-.05,1.41-.19,2-.37,1.19-.33,2.16-.84,3.14-1.31,.95-.46,1.99-.94,3.37-1.34,1.37-.39,3.09-.78,5.26-.59-1.51,.03-2.13,.22-2.34,.29-.21,.07-.02,.07,.1,.07,.12,0,.17,0-.32,.05-.25,.02-.63,.07-1.2,.21-.57,.11-1.34,.32-2.34,.67,1.9-.64,3.47-.87,4.83-.89,1.36-.04,2.52,.15,3.65,.49,1.13,.32,2.24,.79,3.45,1.56,1.21,.76,2.55,1.81,4.03,3.39-.56-.5-.64-.4-.38,.02,.26,.44,.72,1.16,1.63,2.31,.88,1.07,2.14,2.2,3.52,3.02,1.37,.83,2.82,1.35,3.91,1.61-2.1-.69-4.06-1.86-5.64-3.37,1.92,1.61,4.11,2.59,6.28,3.13,2.16,.53,4.36,.62,6.42,.5-.69,.26-1.5,.52-2.29,.73,.6,.04,1.19,.04,1.77,.03,.53-.01,1.06-.02,1.58-.03,1.05-.02,2.08-.05,3.1-.07,2.05-.05,4.06-.11,6.04-.19,3.96-.17,7.79-.47,11.49-.97,3.7-.51,7.24-1.23,10.66-2.12,.86-.22,1.69-.48,2.54-.7,.8-.18,1.51-.42,2.3-.5,1.53-.26,3.09-.22,4.61-.05,2.13-.11-.05-.42-2.31-.33-2.25,.07-4.52,.66-2.71-.07,1.85-.39,3.79-.42,5.62-.25,1.84,.16,3.57,.56,5.1,1.06,3.07,.97,5.26,2.29,6.31,2.79,2.25,1.22,3.8,2.26,5.07,3.13,.64,.42,1.2,.83,1.73,1.21,.54,.38,1.01,.72,1.52,1.13,.51,.4,1.04,.84,1.7,1.32,.18,.12,.36,.25,.55,.38,.21,.14,.47,.28,.72,.42,.51,.25,1.07,.46,1.69,.52,.62,.1,1.28-.03,1.92-.28,.62-.27,1.29-.72,1.78-1.24,1.02-1.07,1.63-2.01,2.51-3.3-.52,.6-1.12,1.08-.98,.5,.06-.3,.32-.84,.76-1.86,.21-.51,.47-1.14,.66-1.96,.16-.81,.25-1.89-.26-2.97-.43-1.02-1.16-1.72-1.81-2.24-.17-.13-.33-.26-.48-.39-.16-.11-.32-.21-.48-.31-.3-.2-.57-.39-.83-.56-.24-.17-.46-.33-.66-.47-.18-.16-.35-.31-.49-.44-.29-.26-.47-.49-.58-.67-.21-.34-.12-.44,.23-.3,.17,.08,.42,.21,.76,.38,.32,.18,.74,.4,1.26,.65,.21,.12,.41,.23,.59,.34,.2,.12,.39,.23,.57,.33,.35,.19,.62,.45,.83,.61,.43,.33,.58,.58,.52,.57,.6,.5,1.2,1.22,1.58,2.01,.38,.8,.51,1.61,.54,2.14,.02,.53,.03,.82,.09,.71,.02-.12,.23-.62,.1-1.82-.2-.48-.41-.97-.73-1.35-.57-1.32-1.97-2.62-3.5-3.45-1.3-.74-2.43-1.55-3.22-2.46-.8-.89-1.15-1.77-1.25-2.28-.07-.25-.08-.42-.04-.47,.04-.05,.06,.02,.19,.21-.36-.97-.27-1.64-.33-1.97,.01-.33-.03-.34-.12-.1-.07,.24-.15,.73-.12,1.37,.06,.63,.25,1.4,.67,2.17-.98-1.77-.84-3.53-.2-5.12,.31-.82,.78-1.51,1.33-2.3,.62-.87,1.19-1.73,1.74-2.56,1.11-1.66,2.19-3.27,3.56-4.61,.33-.36,.71-.62,1.07-.93,.39-.24,.77-.55,1.2-.71,.41-.23,.86-.34,1.32-.49,.48-.06,.95-.19,1.48-.15-1.3-.1-2.57,.1-1.27-.27,1.55-.25,2.88-.06,3.95,.28,.51,.12,1.08,.3,1.57,.45,.5,.13,.93,.25,1.31,.35,1.54,.37,2.25,.44,2.81,.47,1.12,.03,1.61,.04,6.87,.62,2.96,.5,2.41,.64,2.43,.79,.01,.07,.17,.13,.99,.22,.41,.04,.98,.09,1.78,.15,.38,.03,.82,.06,1.33,.1,.51,.05,1.09,.12,1.73,.19,1.62,.29,2.64,.4,3.09,.46,.45,.07,.33,.15-.13,.23-.95,.18-3.04,.05-4.25-.03,1.02,.08,2.12,.23,3.28,.28,1.17,.05,2.44,.04,3.82-.37,.34-.08,.7-.26,1.04-.41,.34-.18,.68-.39,.99-.62,.62-.49,1.15-1.09,1.51-1.71,.39-.62,.6-1.25,.82-1.88,.08-.39,.15-.8,.19-1.2,0-.45-.06-.98-.18-1.45-.19-.46-.41-1.02-.71-1.34l-.11-.13s-.03-.03-.04-.04l-.05-.05-.07-.06c-.08-.08-.16-.13-.24-.18-.15-.1-.28-.17-.36-.24-.09-.08-.13-.16-.13-.26,0-.05,.01-.1,.04-.15,0-.05,.16-.03,.21-.05,.14,0,.27-.02,.4-.02-.05,.04-.08,.08-.09,.13,0,.02,0,.04,0,.05,.02,.03,.06,.06,.09,.09,.07,.06,.15,.1,.23,.13-.14-.04-.35-.22-.23-.24,.12-.08,.32-.1,.5-.1-.25-.16-.64-.32-1.18-.44,.91-.02,1.43,.07,1.47,.26,.11-.07,.64-.14,.6-.23,.02-.09-.17-.21-.28-.32-.1-.11-.11-.22,.3-.31,.41-.1,1.23-.14,2.84-.28,.53,.02,1.13,0,1.8-.07,.69-.08,1.33-.18,2.2-.45,.91-.29,1.85-.76,2.52-1.46,.69-.68,1.11-1.64,1.05-2.59-.04-.94-.37-1.83-.86-2.57-.44-.74-.94-1.31-1.3-1.7-.41-.46-.63-.73-.82-1-.2-.26-.29-.49-.32-.65,.19,.26,.41,.49,.62,.71,.23,.25,.45,.47,.65,.69,.44,.43,.89,1,1.23,1.46,.68,1.08,.98,1.83,1.06,2.29,.2,.91,.23,.59,.26,.13,.06-.45-.04-1.02,.24-.44,.07,.3,.31,.92,.17,2.01-.09,.53-.29,1.19-.78,1.84-.48,.64-1.18,1.34-2.26,1.81,.83-.37,1.55-.96,2.15-1.69,.59-.73,.99-1.71,.97-2.75,.15-2.05-1.73-4.52-2.79-5.51-.28-.36,.39,.16,1.19,1.04-.68-.85-1.21-1.37-1.48-1.71-.18-.19-.31-.36-.43-.53-.12-.16-.26-.32-.34-.46-.41-.58-.51-.94-.62-1.19-.15-.47-.19-.7-.21-1.11,0-.4,.07-.91,.64-1.86,.29-.47,.72-1.05,1.37-1.77,.66-.73,1.57-1.67,2.63-2.8-.83,1.4,2.49-1.64,3.79-3.2-3.41,3.69-2.04,1.37,.84-2.21,5.52-5.7,5.6-6.51,8.47-9.49l-3.31,3.35c.41-.71,1.29-1.78,2.55-3.17,.62-.68,1.42-1.53,2.12-2.61,.18-.27,.36-.55,.53-.92,.18-.33,.32-.72,.44-1.13,.21-.81,.23-1.74-.17-2.55-.01-.16,.22,.1,.37,.65,.09,.27,.1,.61,.12,.97-.04,.35-.05,.74-.18,1.09-.45,1.42-1.09,2.24-.41,1.22,.41-.88,.73-2.05,.52-3.12-.21-1.1-.98-2.03-1.95-2.67-.52-.35-.96-.54-1.41-.75-.45-.18-.92-.37-1.38-.5-.47-.16-.93-.27-1.41-.4-.55-.15-1.12-.19-1.5-.26-.22-.04-.27-.07-.6-.13-.27-.05-.57-.12-.83-.15-.55-.07-1.09-.1-1.62-.11-1.06-.01-2.08,.05-3.08,.11-.99,.06-1.98,.13-2.84,.09l-.5-.04c-.12-.03-.25-.04-.38-.08-.25-.07-.49-.21-.67-.42-.07-.19-.12-.35-.1-.46,0-.6,.23-.55,.35-.57,.07,0,.13-.03,.2-.09,.09-.05,.13-.21,.31-.56,.21-.6,.77-1.28,1.36-1.85,.6-.58,1.22-1.09,1.84-1.56,1.23-.94,2.37-1.72,3.53-2.73,.28-.27,.56-.54,.85-.81,.23-.23,.47-.47,.71-.72,.49-.49,1-1.01,1.57-1.58,1.13-1.15,2.45-2.52,4.16-4.35-2.36,1.7-2.68,2.13,2.03-3.16-1.93,1.97-3.85,3.93-5.71,5.93-.93,1-1.84,2.01-2.73,3.03-.24,.27-.41,.49-.7,.79-.27,.29-.55,.59-.83,.84-.56,.54-1.12,1.01-1.66,1.46,.68-.61,1.38-1.27,2.05-2.01l.5-.58,.41-.51,.82-1.02c1.1-1.36,2.24-2.7,3.4-4.03-1.76,1.77-3.48,3.68-5.05,5.51-.9,1-1.82,1.77-2.62,2.43-.79,.62-1.49,1.18-2.07,1.64,1.78-1.68,2.72-2.48,2.82-2.67,.12-.19-.51,.26-1.58,.84,.73-.46,1.45-.95,2.15-1.52,.35-.28,.69-.59,1.02-.93,.34-.33,.59-.63,.89-.95,1.14-1.26,2.29-2.53,3.47-3.83,2.36-2.59,4.88-5.24,7.86-7.85l.66,1.01c4.58-3.92,7.61-8.8,11.97-9.22,1.09-.1,2.27,.07,3.51,.45,.31,.12,.62,.24,.93,.36l.56,.22c.28,.11,.56,.22,.87,.28,1.24,.3,2.58,0,3.56-.53,.99-.54,1.76-1.23,2.41-1.98,.65-.71,1.23-1.68,1.63-2.25,.9-1.29,2.02-2.47,3.44-3.33-1.23,.71-2.33,1.67-3.27,2.83,.36-.88,1.76-2.63,3.96-3.74,2.17-1.16,5.06-1.49,7.41-1.48-.22,.2,.39,.32,1.3,.53,.42,.1,1.07,.2,1.69,.3,.63,.1,1.28,.15,1.86,.22-.16-.17,2.99-.09,6.18-1.17,1.58-.51,3.14-1.25,4.3-2,1.16-.74,1.95-1.45,2.14-1.82,1.03-.62,2.04-1.29,3-2.02,.97-.71,1.89-1.52,2.75-2.19,2.25-2.03,4.06-3.58,5.64-4.91,1.58-1.34,2.91-2.47,4.23-3.58,2.67-2.22,5.37-4.34,10.48-7.44-2.81,2.28,1.9-.39-4.67,4.15,3.34-2.14,6.44-3.96,6.35-4.23,1.05-.51,3.35-2.09,5.77-3.78,2.44-1.7,4.96-3.53,6.58-4.37,1.31-1.06,1.54-1.72,5.34-4.09,.46-.19,.09,.17,.09,.17-.1-.18,5.81-3.94,2.25-2.24,5.54-2.73,12.91-7.14,20.16-11.37,3.63-2.12,7.22-4.21,10.51-6.05,1.62-.91,3.28-1.77,4.71-2.81,1.44-1.01,2.67-2.13,3.65-3.25,1.41-1.97,2.36-4.4,2.74-6.88,.22-1.22,.28-2.52,.33-3.68,.04-1.15,.13-2.29,.27-3.4,.17-1.09,.36-2.19,.73-3.13,.32-.98,.84-1.74,1.46-2.18,1.21-.91,3.27-.52,4.98,.12-.48-.06-.09,.17-1.37-.27,1.17,.38,2.14,.8,2.97,1.18,.83,.38,1.51,.7,2.1,.98l.83,.37,.8,.32c.51,.19,.99,.33,1.48,.45,.25,.05,.5,.11,.77,.17,.27,.04,.55,.08,.85,.13,.61,.05,1.31,.12,2.18-.04,.85-.14,1.87-.56,2.73-1.43,.87-.86,1.56-2.1,2.11-3.62,.64-1.54,.8-1.82,.81-1.57,0,.13-.06,.41-.14,.78-.1,.38-.22,.87-.39,1.37-.58,2.02-2.47,4.1-.94,2.29,.56-.24,1.37-1.4,1.91-3.1,.5-1.58,1.04-3.48,1.69-5.72,.63-2.22,1.32-4.69,1.76-7.22,.47-2.52,.66-5.08,.63-7.35,.12,.72,.13,1.45,.19,2.19,.04-.87,.04-1.78-.06-2.75-.02-.48-.13-.97-.2-1.47l-.06-.38-.03-.18v-.1c-.03-.13-.06-.26-.05-.4-.07-1.11,.7-2.73,2-4.15,1.29-1.44,3.05-2.76,5.06-3.73,2-.96,4.36-1.6,6.52-1.29,0,0-.43,.07-.08,.19,.74,.03,1.46,.14,2.26,.55,1.02,.52,2.18,1.05,3.59,1.35,.71,.13,1.48,.21,2.29,.07,.8-.13,1.61-.44,2.25-.91,1.31-.92,2.17-2.13,2.96-3.31,1.49-2.35,3.11-4.64,4.75-6.92,1.63-2.25,3.23-4.54,4.6-6.61-1.35,2.83-2.43,3.9-.88,2.62,1.28-1.9,.91-1.74,.86-2.04-.02-.15,.01-.42,.41-1.08,.4-.64,1.14-1.74,2.9-3.02,.63-.32,1.45-.74,2.39-.99,.94-.26,1.98-.39,2.95-.35,1.97,.05,3.52,.75,4.01,1.07-.79-.14-1.38-.27-2.01-.35-.62-.07-1.25-.11-1.86-.08-1.23,.06-2.43,.32-3.52,.85,1.82-.47,4.06-.76,6.49-.29,2.93,.56,5.96,.46,8.33,.17l-.57,.39c3.51-.44,5.96-1.43,7.93-2.3,1.96-.9,3.45-1.78,4.94-2.68,2.95-1.83,5.93-3.69,12.08-7.03l-1.38,.49c6.32-4.36,5.82-2.7,12.22-6.87l2.4-.42c4.32-2.59,15.1-9.16,22.95-13.64-4.21,2.98-13.33,8.33-18.9,11.78,4.38-2.4,14.85-8.22,16.95-9.81-1.73,1.04-3.86,2.42-5.66,3.27,5.07-3.49,11.99-7.64,20.73-12.42-.41,1.1,5.33-1.94,12.02-5.55,3.33-1.78,6.97-3.81,10.09-5.36,3.15-1.48,6.07-2.47,7.85-2.93l2.29-1.06,1.23-.58v-1.37l-.05-2.59c-.07-.88,.24-1.91-.62-2.44l-.89-.96c-.29-.3-.47-.44-.71-.67-.44-.43-.93-.81-1.43-1.19-.48-.39-1.05-.7-1.58-1.05-.58-.28-1.13-.62-1.75-.83-2.42-1.01-5.19-1.15-7.69-.65-2.49,.51-4.82,1.53-6.88,2.71-1.89,1.07-3.87,2.02-5.37,1.98-2.23-.03-4.52-.19-6.89-.39-4.72-.38-9.78-.97-15.23-.4,1.95,.12,2.51,.26,2.3,.35-.2,.07-1.18,.17-2.35,.27-2.35,.24-5.45,1.06-4.64,1.49-4.76,1.47-6.3,2.71-6.76,2.76l-2.31,1.33,1.79,1.66c2.18-3.19,4.76-6.08,7.83-8.1,1.38-.77,.55-.13-.49,.76-1.05,.89-2.21,2.18-1.97,2.13,1.69-1.7,2.89-2.46,3.66-2.92,.78-.44,1.15-.57,1.44-.64,.29-.06,.49-.1,.97-.23,.48-.13,1.22-.42,2.65-.8-.64,0,.02-.45,1.58-.91,.41-.1,.8-.21,1.36-.32,.56-.1,1.16-.21,1.8-.33,1.28-.22,2.71-.45,4.19-.66l-4.21,.44-2.11,.22c-.63,.09-1.27,.14-1.89,.28,.39-.14,.78-.24,1.16-.33,.37-.09,.74-.18,1.14-.26,.78-.15,1.51-.29,2.18-.42,1.36-.25,2.53-.44,3.57-.59s1.97-.26,2.83-.35c.85-.09,1.65-.16,2.68-.41,.5-.12,1.25-.38,1.84-.75,.61-.37,1.17-.86,1.61-1.49,.44-.63,.73-1.39,.85-2.23,.12-.84,.1-1.79-.14-2.65-.23-.89-.72-1.84-1.48-2.63-.76-.79-1.76-1.38-2.87-1.69-.28-.07-.56-.14-.85-.17-.15-.02-.29-.04-.44-.05l-.38-.02c-.35-.01-.72-.03-1.1-.04-.76-.02-1.59-.08-2.48-.12,.76,0,1.51,.02,2.25,.01l1.11-.02h.73c.32,.03,.65,.06,.98,.13-.4-.09-.81-.15-1.25-.17-.27-.01-.55-.03-.84-.04-.54-.02-1.11-.05-1.74-.1-1.24-.09-2.64-.24-4.15-.42-3.03-.35-6.55-.86-10.22-.99-1.83-.08-3.7,0-5.51,.16-1.82,.21-3.58,.53-5.19,1.03-.81,.2-1.56,.54-2.3,.8-.71,.28-1.29,.55-1.89,.81-1.17,.52-2.19,1-3.02,1.43-1.3,.31-3.06,.59,.02-.61-4.24,1.48-8.67,3.05-13.21,4.32-2.27,.63-4.57,1.19-6.87,1.63-1.15,.22-2.31,.4-3.46,.56-1.15,.15-2.29,.29-3.23,.26-.22-.01-.47-.01-.6-.04-.18-.02-.28-.04-.37-.07-.19-.06-.38-.17-.49-.34-.12-.18-.18-.34-.21-.61,0-.2-.02-.38-.02-.6l.05-.7c.12-.99,.35-1.93,.64-3.06,.29-1.12,.55-2.24,.75-3.4,.1-.58,.18-1.17,.23-1.78,.04-.62,.07-1.23-.03-2.06-.1-.83-.36-1.62-.81-2.29-.44-.67-1.08-1.19-1.79-1.52-.7-.33-1.52-.49-2.25-.53-.68-.04-1.21-.02-1.76,.03-1.07,.09-2.04,.26-2.95,.43,.45-.21,.91-.41,1.39-.59-.91,.19-1.72,.43-2.49,.68-.38,.13-.76,.26-1.14,.39-.12,.04-.15,.06-.18,.07l-.12,.05-.23,.11c-.25,.12-.54,.3-.86,.3-.33,.01-.59-.4-.46-.79,.15,.02,.39,.14,.39-.24-.02-.09-.05-.26,0-.51,.02-.07,.04-.15,.07-.23l.04-.13s.1-.2,.15-.3c.22-.47,.48-.94,.78-1.42,1.17-1.91,3.09-3.59,4.91-4.33-.95,.58-1.79,1.27-2.52,2.05,2.85-2.32,6.29-3.11,9.57-3.47,1.68-.19,3.51-.24,5.5-.78,.98-.25,2.04-.7,2.99-1.39,.98-.66,1.73-1.69,2.22-2.69,.21-.51,.44-1.02,.53-1.52l.17-.75c.04-.24,.04-.43,.07-.65l.05-.63c.01-.13,0-.14,0-.18v-.11l-.06-.48c-.04-.31,.02-.78,.37-.86,.32-.08,.65,.04,1,.14l.74,.24c.47,.13,.87,.21,1.32,.32,.88,.19,1.78,.34,2.74,.4,.95,.07,1.95,.03,2.98-.14,1.02-.21,2.07-.53,3.02-1.11,.05,.1,.33,.08,.77-.13,.46-.18,1.05-.56,1.72-1.12,1.32-1.13,2.62-3.07,3.55-5.26,.25-.55,.44-1.11,.66-1.68,.19-.51,.38-1.02,.57-1.53,.4-1.01,.82-2.03,1.28-3,.9-1.94,1.91-3.71,2.79-5.06v.26c1.98-3.22,4.3-5.93,6.85-8.06l.48-.4,.58-.51c.39-.34,.77-.68,1.15-1.02,.38-.34,.71-.75,1.06-1.12,.34-.39,.71-.73,.99-1.16,1.26-1.6,2.23-3.37,2.98-5.18,1.43-3.64,1.88-7.31,2.11-10.75,.1-1.7,.21-3.4,.31-5.12,.06-.83,.12-1.68,.21-2.5,.05-.41,.07-.84,.14-1.24l.2-1.34c.12-.71,.06-1.43-.16-2.12-.21-.65-.37-.98-.48-1.32-.11-.32-.17-.57-.18-.77,0-.1,0-.2,0-.3,0-.05,.02-.1,.03-.15l.02-.09,.05-.19c.28-.98,.54-2,.63-3.14,.11-1.11,.05-2.39-.47-3.67-.4-1.36-1.62-2.77-3.1-3.48-1.46-.72-3.03-1-4.6-1.1-1.55-.12-3.29,.05-4.65,.12-1.41,.06-2.44-.1-3.4-.68l.94,3.07c.27-.53,.47-1.05,.62-1.41,.08-.18,.15-.33,.17-.35,.03-.06,.07-.1,.12-.15,1.08-1.1,2.32-2.37,3.41-3.8,1.08-1.45,2.23-2.99,2.82-5.29,.11-.6,.26-1.17,.21-1.87-.02-.34,0-.67-.08-1.01-.08-.34-.17-.68-.28-1.02-.08-.35-.27-.63-.43-.94-.17-.29-.34-.62-.54-.85l-.63-.7-.33-.34-.34-.26c-.91-.74-1.84-1.23-2.75-1.65-.45-.19-.91-.39-1.36-.56l-1.34-.44c-.89-.29-1.79-.47-2.64-.7-.76-.21-1.53-.38-2.26-.62-1.46-.49-2.89-1.02-4.18-1.74-1.32-.66-2.48-1.5-3.59-2.35-1.06-.91-2.06-1.84-2.91-2.86,.41,.52,.58,.78,.56,.85-.02,.07-.26-.02-.59-.27-.68-.49-1.85-1.57-2.82-2.85-1.18-1.75-2.84-4.21-4.03-6.29-.61-1.03-1.09-1.96-1.37-2.59-.23-.58-.27-.92-.02-.86l.29,.63,.34,.69c-.05-.21-.12-.43-.19-.67-.06-.22-.12-.44-.2-.68-.15-.51-.33-1.1-.56-1.79-.47-1.37-1.02-3.11-2.4-5.07-.7-.96-1.76-2.01-3.19-2.63-1.42-.63-3.02-.72-4.32-.5-2.33,.38-4.55,1.28-6.35,2.63-.19,.57-.33,1.14-.42,1.71-2.13,1.66-3.77,4.18-4.7,6.95-.24,.69-.45,1.4-.61,2.12-.14,.65-.29,1.31-.43,1.98-.29,1.22-.66,2.41-1.17,3.41-1.06,2.07-2.31,2.89-4.58,2.64-1.11-.15-2.31-.48-3.5-.99l-1.09-.41c-.4-.16-.83-.28-1.26-.38-.86-.22-1.78-.29-2.68-.25-1.83,.06-3.61,.76-4.98,1.78-1.39,1.02-2.42,2.31-3.17,3.65-.76,1.32-1.23,2.8-1.55,4.05-.28,1.1-.61,2.13-1.02,3.06-.81,1.87-1.92,3.31-3.11,4.3-1.19,1-2.45,1.59-3.51,1.92-1.72,.97-3.97,1.7-6.32,2.27-2.32,.55-4.91,1.08-7.07,1.69l.12-.61c-6.22,1.31-10.85,2.59-15.72,4.29-2.43,.87-4.93,1.83-7.7,3.04-1.39,.6-2.82,1.31-4.37,2.04-1.51,.8-3.16,1.6-4.87,2.6,.86-.66,1.76-1.26,2.66-1.88-4,2.03-6.19,3.9-8.27,5.7-2.06,1.84-3.97,3.66-7.19,6.15l-2.44,.89c-2.75,2.23-5.36,4.65-7.91,7.09-1.17,1.15-2.36,2.16-3.59,2.82-1.23,.67-2.46,.98-3.81,.95-.92,0-2,.03-2.98,.18-1,.15-1.98,.38-2.93,.68-1.89,.62-3.63,1.49-5.21,2.47-.8,.49-1.55,1.01-2.28,1.53-.74,.53-1.44,1.08-2.09,1.55-.65,.48-1.28,.91-1.83,1.21-.63,.32-.65,.32-.94,.31l-2.11-.35c-.7-.12-1.5-.08-2.23-.11,.14-.05,.34-.13,.86-.18,.26-.02,.6-.04,1.05-.03,.42,.05,.94,.13,1.59,.26-.47-.1-1-.21-1.57-.32-.62-.05-1.3-.1-2.01-.16-.71-.09-1.48,0-2.28,.05-.8,.01-1.62,.2-2.46,.38-1.68,.36-3.32,1.08-4.84,1.9-.73,.44-1.45,.91-2.13,1.38-.63,.5-1.3,.98-1.87,1.49-2.32,2.02-4.04,3.95-5.12,5.18-1.08,1.25-1.49,1.91-.84,1.67-.16-.1-.93,.52-2.07,1.52-.29,.25-.61,.49-.94,.78-.33,.28-.69,.58-1.08,.85-.42,.31-.87,.64-1.33,.98-.63,.44-1.22,1.06-1.74,1.74-.5,.71-.91,1.52-1.15,2.36-.24,.84-.35,1.68-.36,2.5-.01,1.62,.28,3.09,.62,4.43,.09,.33,.17,.65,.26,.97,.07,.28,.15,.56,.21,.83,.12,.56,.22,1.11,.29,1.65,.14,1.08,.16,2.13,.12,3.08-.15-.41-.31-.81-.49-1.19,.13,1.55,.07,2.79,0,3.87-.09,1.09-.22,2.03-.4,3.06-.09,.51-.2,1.05-.34,1.63-.15,.56-.31,1.17-.5,1.86-.47,1.33-1.03,3-2.26,4.92-.66,.85-1.02,1.16-1,.98,.01-.09,.12-.3,.33-.62,.22-.32,.54-.75,.92-1.35-.46,.76-.95,1.32-1.32,1.84-.42,.49-.77,.9-1.09,1.26-.34,.34-.63,.65-.9,.95-.29,.28-.57,.54-.86,.8-.28,.28-.61,.51-.97,.79-.36,.29-.79,.56-1.31,.86-1.03,.61-2.45,1.27-4.6,1.89,1.02-.46,2.01-.96,2.94-1.52-1.69,.75-3,1.17-4.02,1.5-1.03,.32-1.77,.55-2.4,.75-1.27,.42-2.12,.75-4.2,1.39-4.79,1.23-14.63,2.76-15.86,2.47-.98,.5-5.13,1.7-9.71,2.35-.65-.08,.99-.49,1.81-.69-6.49,.96-11.27,1.91-15.56,2.72-2.15,.41-4.15,.76-6.23,1.1-2.05,.33-4.1,.65-6.23,.56-.18-.17-.73-.26-1.41-.34,2.37,.11,4.74-.26,6.94-.6,2.22-.33,4.21-.63,5.84-.87,3.26-.49,5.14-.78,4.76-.69-.08-.5-8.39,.71-1.9-1.03-1.65,.36-3.59,.78-5.7,1.23-2.14,.43-4.46,1.01-6.65,1.34-2.21,.34-4.39,.41-6.33-.13-.97-.25-1.88-.63-2.7-1.14-.25-.15-.5-.3-.75-.44-.31-.19-.65-.34-.99-.49-.69-.26-1.42-.45-2.12-.49-.54-.08-1.07-.09-1.48-.12,.37-.08,.76-.11,1.16-.13-1.34-.03-2.49,.29-3.45,.67-.96,.39-1.76,.86-2.49,1.32-.3,.16-.59,.32-.86,.47-.24,.12-.47,.24-.7,.36-.45,.23-.88,.41-1.31,.59-.86,.34-1.71,.6-2.75,.81-.44-.13-2.39,.18-4.65-.41-1.13-.28-2.33-.75-3.43-1.34-.57-.29-1.04-.6-1.6-.94-.58-.35-1.11-.68-1.58-.97,.04,.63-4.97-2.2-.47,.81-.29-.19-.1-.1,.47,.22,.28,.16,.66,.39,1.12,.67,.46,.28,.91,.57,1.49,.87,.52,.28,1.13,.55,1.49,.68l-.26-.07c1.14,.51,2.5,.97,4.02,1.16,1.52,.15,3.21,.07,4.94-.51-1.36,.58-2.86,.94-4.53,.85-1.67-.06-3.49-.62-5.33-1.74-.98-.28-1.96-.74-2.96-1.16-.98-.42-1.87-.76-2.51-1-.6-.43-1.29-.88-2.07-1.31-.76-.44-1.67-.85-2.47-1.24-1.67-.76-3.33-1.72-4.81-2.66-2.96-1.93-4.82-4.16-5.1-4.82-2.01-2.03-3.61-4.77-4.53-7.92-.2-.8-.45-1.58-.58-2.42l-.24-1.24-.15-1.26c-.12-.83-.16-1.69-.22-2.53-.04-.8-.13-1.8-.21-2.7-.35-3.68-1.32-7.15-2.72-9.96-.34-.71-.75-1.35-1.11-1.99-.19-.31-.36-.63-.55-.92-.21-.28-.41-.56-.61-.83-.4-.53-.78-1.05-1.17-1.51-.42-.44-.81-.84-1.19-1.21-2.52-2.79-2.72-3.4-3.68-4.47,.43,.35,.88,.71,1.32,1.08,.41,.41,.82,.81,1.2,1.2,.38,.39,.76,.73,1.06,1.07,.3,.34,.56,.63,.78,.84-.32-.36-.63-.77-.99-1.16-.38-.38-.77-.77-1.18-1.18-.78-.85-1.75-1.6-2.7-2.42-.46-.43-1.01-.76-1.52-1.14-.53-.36-1.03-.76-1.58-1.1-.55-.33-1.1-.65-1.64-.97-.27-.16-.54-.32-.81-.48-.28-.14-.56-.27-.83-.4-1.1-.54-2.16-1.06-3.19-1.41-1.02-.39-1.96-.75-2.81-.95-.85-.23-1.58-.41-2.16-.53-.59-.08-1.02-.11-1.26-.07-2.25-.69-3.08-.85-3.21-.96-.13-.1,.43-.07,.87-.05,.45,.02,.78,.04,.21-.08-.29-.06-.81-.16-1.65-.31-.41-.07-.91-.16-1.49-.27-.44-.08-.92-.2-1.45-.5,.42,.14,.82,.24,1.23,.24-1.05-.29-1.87-1.05-2.76-2.08-.89-1.02-1.8-2.32-3.26-3.44-.75-.55-1.63-.99-2.58-1.24-.68-.17-1.36-.33-2.04-.5-1.35-.32-2.68-.63-4.02-.91-5.32-1.12-10.63-1.83-16.04-1.47-2.7,.2-5.41,.69-8.08,1.53-2.67,.82-5.24,2.11-7.73,3.67-1.25,.8-2.46,1.62-3.66,2.58-1.2,.95-2.43,2.05-3.34,3.57-.44,.77-.75,1.64-.9,2.56-.14,.92-.08,1.85,.06,2.75,.1,.44,.18,.89,.32,1.32,.13,.41,.26,.82,.39,1.24,.24,.73,.41,1.48,.45,2.21-.04-.4-.08-.76-.16-1.08-.06-.32-.12-.59-.19-.82-.12-.45-.2-.78-.22-1.01l.46,1.34c.09,.43,.24,.86,.27,1.29,.12,.85,.11,1.69-.12,2.45-.44,1.52-1.77,2.7-3.36,3.59-.8,.46-1.65,.81-2.56,1.19-.94,.39-1.88,.77-2.79,1.19-1.85,.82-3.66,1.68-5.47,2.51-3.62,1.67-7.27,3.18-11.07,3.97-1.9,.34-3.82,.54-5.73,.45-1.91-.13-3.82-.41-5.65-1.03l-1.44-.46c-.58-.2-1.21-.28-1.83-.28-1.26,.02-2.43,.46-3.39,1.03-1.94,1.16-3.33,2.68-4.82,3.94-3,2.61-6.25,5.05-9.03,8.11-1.33,1.48-2.66,2.83-4.18,3.94-1.51,1.11-3.16,1.96-4.89,2.36-1.74,.38-3.53,.3-5.25-.16-1.74-.46-3.32-1.26-4.96-2.26-2.24-1.33-4.59-1.39-6.24-.92-1.68,.47-2.76,1.3-3.59,2.08-.21,.2-.39,.41-.58,.6-.16,.17-.31,.35-.46,.52-.29,.34-.6,.68-.93,1.01-.65,.69-1.43,1.38-2.45,2.21-.64,.17-1.25,.35-1.89,.49-2.41,1.76-5.06,3.31-7.67,4.97-1.42,.83-2.8,1.62-4.12,2.45-1.3,.81-2.6,1.55-3.92,2.19-2.64,1.28-5.38,2.18-8.22,2.45-2.84,.23-5.76-.18-8.68-1.42-.39-.16-.79-.33-1.2-.49-.48-.2-.99-.36-1.52-.46-1.06-.22-2.21-.24-3.33,0-1.12,.25-2.21,.76-3.14,1.48-.47,.36-.89,.77-1.28,1.22-.18,.23-.38,.46-.54,.71l-.45,.69c.24-.2,.56-.54,.85-.8,.31-.27,.63-.51,.97-.73-.31,.28-.61,.6-.91,.96-.26,.35-.53,.71-.81,1.09-.26,.36-.53,.73-.81,1.1-.31,.35-.62,.72-.95,1.08-1.32,1.43-2.87,2.81-4.43,3.82-1.55,1.02-3.02,1.79-4.07,2.23-1.04,.45-1.63,.61-1.45,.41-.51,.29-1.6,1.14-3.84,1.68l-.27-.24c-2.24,.86-4.53,1.63-6.83,2.44-1.15,.4-2.3,.83-3.44,1.25-1.12,.42-2.26,.81-3.41,1.19-5.45,1.38-5.13,.96-5.41,.73-.14-.11-.43-.19-1.7,.07-.63,.12-1.51,.34-2.74,.7-1.23,.37-2.81,.88-4.8,1.78-1.47,.67-3.18,1.73-4.79,2.95-1.57,1.29-3.05,2.75-4.07,4.2-.28,.34-.52,.69-.72,1.04-.24,.38-.47,.75-.68,1.09-.12,.19-.23,.37-.34,.55l-.08,.13s0,.1,0,.15l.02,.29c.03,.37,.06,.71,.08,.99,.11,.84,.2,1.11,.25,.54,0-.35,0-.72,.01-1.1,0-.21,0-.43,.01-.65,.03-.21,.24-.36,.36-.55,.25-.32,.51-.65,.76-.97,.23-.28,.44-.56,.69-.79,.48-.47,.91-.88,1.24-1.16,.35-.27,.61-.4,.7-.38-.35,.32-.66,.68-.96,1.05-.3,.37-.61,.72-.9,1.09l-.81,1.18-.42,.61c-.03,.24,0,.49,0,.74,.47,.55,.94,1.85,1.37,1.34,.11-.13,.22-.37,.32-.77,.05-.26,.1-.29,.15-.44l.08-.2c.05-.06,.13-.11,.2-.17,.08-.06,.13-.1,.23-.19l.42-.46c.28-.35,.67-.65,1.05-1.03,.19-.19,.4-.38,.61-.59,.23-.19,.47-.38,.73-.59,.26-.2,.5-.43,.79-.64,.29-.2,.6-.41,.92-.63,2.16-1.9,4.84-3.32,7.68-4.52,.98-.2,1.99-.34,2.98-.49-2.51,.75-4.93,1.61-7.15,2.73,3.99-1.44,6.59-2.49,9.62-3.62,.8,.03,2.13-.15,4.01-.58,1.49-.56,3-1.16,4.49-1.81,1.44-.63,2.84-1.24,4.3-1.84,1.2,.01-3.81,1.93,2.28,.27,4.12-1.71-4.31,.49,2.63-1.97,2.28-.53,3.13-.67,4.04-.9,.9-.28,1.91-.61,4.36-2.06,.82-.18-.16,.59-2.18,1.6,2.26-1.13,5.26-2.79,7.63-4.85,2.4-2.02,4.07-4.34,4.62-5.56,.18-.2,.37-.41,.58-.64,.19-.19,.38-.39,.61-.57,.44-.37,.94-.7,1.5-.92,1.12-.48,2.46-.46,3.64,0,.37,.15,.74,.3,1.09,.45,.41,.16,.78,.34,1.17,.47,.77,.25,1.43,.51,2.02,.66,1.15,.36,1.84,.54,1.67,.75,.85,.05,3.31,.13,6-.44,2.7-.57,5.52-1.75,7.57-2.8-1.81,1.13-1.76,1.23-.61,.81,1.14-.43,3.27-1.51,5.4-2.82,.51-.31,1.03-.63,1.55-.94,.5-.3,1.02-.59,1.52-.86,1.02-.55,1.99-1.04,2.84-1.44,1.68-.79,2.78-1.19,2.43-.69,1.22-.91,3.05-2.03,5.21-3.48,1.07-.74,2.22-1.56,3.38-2.52,1.13-.9,2.42-2.28,3.13-2.83,.88-.67,1.84-1.03,2.81-1.04,.49,0,.99,.08,1.49,.24,.54,.18,.87,.37,1.72,.82,2.89,1.57,6.31,2.53,9.42,2.2-.68,.13-2.07,.24-3.13,0,3.44,.58,5.82,0,7.66-.58,1.85-.63,3.33-1.37,5.07-2.64,.05-.28,.56-.92,1.31-1.8,.35-.45,.8-.94,1.23-1.51,.41-.53,.86-1.1,1.33-1.7,1.79-2.23,4.41-4.58,6.17-6.37,3.04-2.07,2.35-1.19,1.16,.12-1.2,1.3-2.83,2.95-1.73,2.51-.36-.14,1.97-2.21,4.13-4.33,1.06-1.06,1.92-1.91,2.48-2.38,.54-.47,.73-.68,.24-.54,1.04-.51,1.67-.56,2.09-.53,.42,.04,.68,.12,.9,.24l.16,.08c.1,.04,.19,.09,.29,.13l.58,.29c.41,.22,.89,.49,1.6,.87,.33-.18,.84-.2,1.5-.13,.33,.03,.7,.1,1.1,.17,.41,.05,.85,.09,1.33,.15,.95,.15,2.03,.16,3.19,.16,1.15-.08,2.38-.19,3.57-.56,1.08-.08,1.91-.23,2.57-.32,.67-.08,1.15-.16,1.52-.23,.75-.11,1.07-.11,1.4-.14,.34-.03,.67-.12,1.48-.39,.81-.27,2.07-.78,4.12-1.75,2.03-.73,1.25-.2-.06,.5-1.3,.72-3.22,1.53-3.22,1.53Zm151.3,32.51h0c-1.15-.61-2.3-.4-3.08-.17,.35-.11,.77-.2,1.28-.23,.51-.01,1.1,.03,1.81,.39Zm18.02,1.64c-2.1,.27-4.74,.82-7.75,.97-.67-.18,.05-.36,1.87-.53-.49,.11,.34,.1,1.62,0,1.25-.13,2.94-.3,4.26-.43Zm-35.49-1.74c2.28,.33,3.03,.2,3.37,.33-1.09,.12-2.37,.12-4.05-.27-.07,0-.22-.01-.29-.01,.25-.02,.53-.08,.97-.05Z"/><path class="cls-2" d="M322.21,165.35c-.34-.16-.52-.26-.94-.51,.42,.33,.84,.61,1.28,.88,.3,.11,.62,.17,.89,.24-.42-.18-.85-.4-1.23-.61Z"/><path class="cls-2" d="M134.72,430.47l.12,.36c-.09-.3-.17-.58-.21-.77,.06,.25,.05,.25,.08,.41Z"/><path class="cls-2" d="M559.38,58.65l-.11-.09c-.44,.42-.93,.76-1.41,1.11,.52-.32,1.04-.63,1.52-1.02Z"/><path class="cls-2" d="M137.19,353.98c-.18-.04-.54-.03-1.24-.05,.06,.04,.59,.06,1.24,.05Z"/><path class="cls-2" d="M97.76,342.59c-2.08,.24-3.96,.6-5.94,.88,2.55-.35,4.36-.69,5.94-.88Z"/><path class="cls-2" d="M65.85,347.75c-.39,.16-.49,.25-.59,.33h.06l.52-.33Z"/><path class="cls-2" d="M348.02,429.41c.29-.33,.59-.65,.85-.93l.59-.67c.13-.15,.21-.26,.27-.33,.11-.13,.08-.11-.04,.03-.26,.3-.95,1.08-1.66,1.9Z"/><path class="cls-2" d="M281.72,505.61c.51,.3,1.09,.5,1.65,.37,.57-.16,.95-.52,1.38-1.03-.37,.38-.68,.62-1.04,.78-.36,.14-.7,.14-.99,.09-.56-.13-.88-.33-1.01-.21Z"/><path class="cls-2" d="M447.07,344.67s0,0,0,.02c.31-.2,.58-.38,.88-.59l-.88,.57Z"/><path class="cls-2" d="M287.83,499.42c-.2,1.04-.74,2.04-1.32,2.97-.58,.91-1.24,1.89-1.77,2.56,1.26-1.48,2.98-3.79,3.09-5.53Z"/><path class="cls-2" d="M36.32,231.28l-.78-1.4s-.09-.02-.17-.12l.95,1.52Z"/><path class="cls-2" d="M35.37,229.76c-.32-.5-.61-1.01-.96-1.49,.44,.69,.77,1.31,.96,1.49Z"/><path class="cls-2" d="M32.24,225.25l2.17,3.02c-.71-1.08-1.58-2.41-2.17-3.02Z"/><path class="cls-2" d="M46.42,273.21l.22,.49c-.05-.27-.12-.44-.22-.49Z"/><path class="cls-2" d="M46.8,286.12c-.13-1.43,.02-3.32,.08-5.45,.03-1.06,.05-2.15,.06-3.26-.02-1.11-.05-2.22-.12-3.31l-.18-.4c.18,1.02,.17,3.44,.06,5.96-.07,2.54-.24,5.14,.1,6.46Z"/><path class="cls-2" d="M46.29,338.09c.63-3.59,1.36-7.17,2.24-10.72-.63,1.82-1.47,4.23-.42-.66-.95,3.34-1.27,4.87-1.38,5.46-.1,.6,.04,.28,.2-.02,.16-.3,.32-.58,.28,.1-.04,.68-.32,2.31-.91,5.84Z"/><path class="cls-2" d="M69.99,349.92c-5.77,1.01,.12,.3-.17,.47,3.64-.78,4.52-.97,.17-.47Z"/><path class="cls-2" d="M176.77,491.9c-.22,.18-.45,.38-.69,.54,1.42-.05,2.05-.28,2.31-.34,.24-.1,.11-.08-.18-.06-.29,.01-.72,.04-1.05,.03-.33-.03-.54-.09-.39-.18Z"/><path class="cls-2" d="M218.38,498.23c-1.44-.06-3.04-.04-4.34-.13-.64,.16-1.29,.29-1.95,.38,1.01,.07,2.02,.07,3.04-.02l3.25-.23Z"/><path class="cls-2" d="M246.37,499.65l-1.99,.49c1.27-.29,2.54-.59,3.79-.95,.63-.16,1.25-.38,1.87-.57l.93-.3,.82-.25c-.74,.21-1.75,.54-2.64,.82-.92,.28-1.85,.52-2.78,.77Z"/><path class="cls-2" d="M490.38,324.38l-1.5,.13c-2.59,1.62-2.79,2.55,1.5-.13Z"/><path class="cls-2" d="M608.4,234.31c1.84-.65,6.3-2.87,8.84-4.62-3.51,1.88-7.1,3.57-8.84,4.62Z"/><path class="cls-2" d="M585.81,30.58c.23-1.31,.6-2.61,1.1-3.91-.5,1.2-.91,2.43-1.16,3.65-.15,.61-.23,1.24-.34,1.83-.09,.5-.15,1.02-.27,1.5,.13-.45,.21-.93,.31-1.4,.11-.51,.22-1.12,.36-1.68Z"/></g></g></g></g></svg>