<?xml version="1.0" encoding="UTF-8"?><svg id="_イヤー_2" xmlns="http://www.w3.org/2000/svg" viewBox="0 0 591.16 473.91"><defs><style>.cls-1{fill:#fff;}.cls-2{fill:#97c9dd;}.cls-3{fill:#fafdff;}</style></defs><g id="_イヤー_1-2"><g><path class="cls-1" d="M564.42,221.38c-4.74-.07-9.49-.13-14.24-.14-12.97-.02-20.3-5.66-22.3-17.18,11.48-13.87,13.27-30.98,4.96-47.33,3.57-12.19,1.45-23.48-5.99-32.68,10.38-9.65,20.63-22.8,23.39-41.78,.97-6.71,2.19-14.44,4.31-21.2,5.9-18.84,2.99-37.04-8.43-52.65l-6.15-8.41h-19.37l-4.6,3.65c-.5-.05-1.27-.17-2.41-.44-13.04-2.99-25.52-.5-36.08,7.21-2.24,1.64-4.59,3.28-6.56,4.22-19.62,9.36-30.09,24.55-31.12,45.17-.95,2.13-6.14,5.8-10.01,5.9-2.04,.05-4.34-.02-6.78-.11-7.34-.25-16.77-.57-26.61,2.74-9.21-2.65-16.54-.22-20.67,1.93-7.18,3.72-11.25,9.77-13.95,13.76-.51,.76-1.02,1.52-1.56,2.25-.89,1.19-2.37,2.7-3.93,4.3-2.97,3.03-6.69,6.84-9.85,11.9-9.23,2.32-16.43,6.94-21.26,13.39-.27,.02-.54,.04-.81,.06-5.6,.52-10.45-2.84-20.2-10.56l-.11-.09c-.41-1.06-.95-3.01-1.34-4.38-.72-2.58-1.53-5.51-2.78-8.63-6.76-16.94-18.72-21.53-25.25-22.75-6.19-1.17-18.02-1.28-29.88,10.08-6.05-2.53-13.16-3.02-20.59-1.14l-5.05,1.28c-14.96,3.8-30.42,7.72-45.6,11.2-17.59,4.04-22.41,18.07-24.11,25.12-12.1-8.77-25.88-7.89-37.27,2.56-12.95,11.87-26.47,24.02-40.18,36.09-7.41,6.53-11.93,14.24-13.48,22.98-5.54,1.57-10.74,3.43-15.8,5.24-1.59,.57-3.19,1.14-4.78,1.69-3.4,1.19-12.45,4.34-16.86,14.06-2.15,4.74-2.64,9.98-1.48,15.12-.48,1.15-1.04,2.53-1.56,4.11-5.42,16.33-3.67,34.22,4.9,50.38,2.77,5.22,2.31,5.93,1.48,7.21l-1.36,2.1c-1.06,1.66-2.07,3.22-3.02,4.54-6.34,8.8-6.51,16.76-5.54,21.88,.42,2.2,1.21,4.8,2.69,7.5-3.11,5.08-4.98,11.05-5.6,17.86-.07,.81-.21,1.15-.21,1.15-.03,.03-.29,.32-1.06,.76l-10.39,5.91v21.16c.33,24.28,19.16,33.94,26.25,37.58,14.75,7.57,31.07,14.38,50.74,13.48,5.97,9.06,15.88,14.12,27.79,14.07,13.98-.09,28.24-.07,42.03-.05h6.93c9.16,.01,16.72-2.97,22.45-5.44,6.07,4.91,10.67,12.23,15.95,20.6l.6,.95c6.85,10.87,16.17,17.6,27.7,19.99,.08,.02,.14,.03,.16,.03,.04,.04,.09,.1,.16,.2,4.08,5.39,9.64,9.41,16.09,11.63,4.86,1.68,10.03,2.5,15.33,2.5,11.24,0,23.02-3.7,33.5-10.78,12.96-8.77,21.75-21.42,24.36-34.73,5.38,7.43,14.89,13.29,31.64,11.28,14.07-1.68,25.61-7.29,35.79-12.23,5.76-2.8,11.19-5.44,16.38-7.01,1.71-.52,3.46-1,5.2-1.47,9.27-2.54,21.27-5.83,31.21-15.2,13.07,1.38,23.41-4.88,28.97-8.26,1.44-.88,3.16-1.79,4.97-2.75,3.05-1.62,6.56-3.48,10.12-5.91,13.14,3.97,26.34-.12,36.46-11.64,.29-.26,.95-.78,1.44-1.17,1.4-1.11,3.21-2.54,5.11-4.44,18.22,3.22,31.95-5.37,41.97-11.65,1.3-.82,2.6-1.63,3.9-2.41,7.13-4.26,11.46-12.01,11.59-20.74,.14-9.6-4.66-19.88-12.07-26.62,4.05-8.29,3.91-16.26,3.7-21.59,11.36-6.67,15.53-17.59,17.9-23.81,.63-1.66,1.29-3.37,1.78-4.25,.72-1.29,1.4-2.61,2.08-3.93l3.01-5.81v-27.11l-26.74-.32Z"/><g><path class="cls-3" d="M20.54,358.08v-8.93c6.97-3.96,10.84-9.82,11.58-17.9,.47-5.13,2.07-9.81,6.49-13.19,5.9-4.5,6.24-9.23-.3-13.45-4.71-3.03-4.44-6.43-1.53-10.46,1.74-2.41,3.3-4.95,4.92-7.44,6.09-9.35,4.81-17.95-.55-28.05-5.58-10.52-7.45-22.52-3.55-34.28,1.58-4.76,4.6-8.74,2.37-14.25-1.54-3.8,1.94-5.12,4.79-6.11,7.02-2.45,13.99-5.13,21.16-7.05,7.46-1.99,12.05-5.9,12.66-13.93,.4-5.29,3.03-9.38,7.05-12.92,13.61-11.99,27.11-24.11,40.48-36.37,4.24-3.89,7.56-4.23,12.28-.34,14.89,12.3,26.74,8,30.71-10.84,1.15-5.46,2.49-10.11,9.11-11.62,17.1-3.92,34.1-8.28,51.11-12.59,4.95-1.25,9.45-.26,11.58,4.16,2.68,5.57,5.81,3.94,8.92,1.44,2.98-2.4,5.41-5.49,8.05-8.32,8.92-9.56,18.29-7.71,23.05,4.23,2.83,7.1,3.19,15.77,9.53,20.79,10.44,8.26,20.97,17.04,35.78,15.72,7.91-.7,10.36,3.77,10.5,10.88,.12,6.35-.35,12.84,2.19,18.95,1.79-8.22,.62-16.33-.08-24.48-1.02-11.78,3.65-17.83,14.89-19.82,3.32-.59,6.88-1.22,8.17-4.59,3.02-7.87,10.04-12.39,14.79-18.73,4.94-6.6,8.07-15.36,18.76-8.2,.54,.37,1.85,.05,2.57-.36,10.24-5.92,21.48-3.51,32.34-3.8,13.63-.36,29.38-11.85,29.97-25.14,.64-14.36,7.61-22.27,19.46-27.92,3.47-1.65,6.7-3.89,9.82-6.16,5.92-4.32,12.18-5.44,19.38-3.79,6.43,1.47,13.04,1.85,18.77-2.7h1.79c7.71,10.53,9.35,21.8,5.4,34.37-2.47,7.89-3.85,16.18-5.04,24.4-2.21,15.26-11.78,25.69-22.89,34.74-9.6,7.82-10.42,11.33-.28,18.98,6.71,5.06,8.68,10.63,6.23,18.42-1.46,4.64-1.32,9.23,1.14,13.78,5.01,9.26,4.58,18.13-2.59,26.34-2.53,2.89-4.9,5.93-4.58,10.25,1.8,24.83,18.08,39.9,43.2,39.95,6.83,.01,13.65,.15,20.48,.23v1.79c-.82,1.58-1.6,3.18-2.47,4.74-4.24,7.56-4.76,17.67-14.48,21.5-6.21,2.44-7.95,7.08-7.93,13.42,.03,6.07,1.26,12.31-2.89,18.05-5.77,7.98-3.89,15.37,4.43,20.68,5.47,3.49,9.23,13.46,5.37,15.76-9.76,5.83-19.55,13.63-31.78,11.46-7.34-1.31-12.6-.41-17.47,5.06-2.35,2.64-5.65,4.45-7.97,7.11-5.36,6.17-11.26,8.22-18.84,4.09-3.35-1.83-6.79-1.76-9.88,1.11-5.31,4.92-12.09,7.51-18.17,11.21-6.43,3.91-12.9,7.47-20.9,4.1-2.55-1.07-5.76-.55-7.35,1.83-7.76,11.61-20.65,13.32-32.42,16.89-16.63,5.05-30.75,16.36-48.64,18.5-6.91,.83-11.85,.5-14.3-6.41-3.16-8.92-8.87-9.99-16.72-6.35-2.68,1.24-5.58,2.1-8.46,2.79-6.34,1.51-9.12,4.96-9.46,11.88-.99,19.88-27.9,37.3-46.73,30.8-2.64-.91-4.77-2.45-6.41-4.62-3.2-4.22-7.38-6.87-12.52-7.94-6.55-1.36-10.96-5.22-14.49-10.83-6.64-10.54-13.16-21.17-23.72-28.63-4.85-3.42-9.23-4.72-14.85-2.34-5.71,2.42-11.36,5.28-17.83,5.27-16.35-.02-32.71-.07-49.06,.04-4.89,.03-8.81-1.47-11.13-5.9-3.31-6.31-8.64-8.85-15.45-8.28-15.5,1.29-28.94-4.18-42.43-11.1-8.65-4.44-14.96-9.25-15.09-19.58Z"/><g><path class="cls-2" d="M21.87,358.06c-.17-1-.63-.39-.34,2.22,.31,.59,.57,1.17,.95,1.7-.35-1.26-.5-2.59-.61-3.92Z"/><path class="cls-2" d="M28.97,373.57c2.79,1.65,6.33,2.79,4.82,1.29-1.51-.49-2.38-.93-3.26-1.39-.89-.47-1.81-.96-3.31-1.75-2.09-1.74-2.97-3.59-2.52-3.35-.32-.33-.9-1.17-1.37-2.13-.49-.95-.91-1.99-1.31-2.61,.24,1.72,.99,3.62,2.28,5.32,1.29,1.71,3.07,3.2,5.08,4.37,.73,.7-.16,.28-.42,.24Z"/><path class="cls-2" d="M264.11,452.18c-.57,.16-1.13,.34-1.7,.47,.48-.08,1.05-.27,1.7-.47Z"/><path class="cls-2" d="M395.27,400.04c-1.22,.35-1.71,.55-1.75,.63,1.12-.35,2.04-.65,1.75-.63Z"/><path class="cls-2" d="M420.83,386.56c-.39,.52-.75,.93-1.16,1.36,.25-.24,.49-.48,.7-.71,.19-.24,.35-.47,.46-.65Z"/><path class="cls-2" d="M264.11,452.18c1.45-.42,2.88-.94,4.29-1.51,.2-.33-2.17,.85-4.29,1.51Z"/><path class="cls-2" d="M63.09,386.24c-.89-.13-1.65-.22-2.33-.31,.73,.15,1.44,.27,2.17,.38,.05-.03,.09-.05,.16-.08Z"/><path class="cls-2" d="M203.11,420.41l-.75-1.11c-.29-.28-.57-.53-.85-.76l1.6,1.87Z"/><path class="cls-2" d="M159.14,403.88c1.32-.26,1.61-.95,2.02-1.32-.64,.43-1.56,.78-2.69,1.05,0,.11,.2,.21,.67,.27Z"/><path class="cls-2" d="M75.31,389.5l-1.6,.09c.42-.03,1.12-.05,1.6-.09Z"/><path class="cls-2" d="M233.16,445.39c0,.12,.1,.3,.21,.46,.05-.05-.04-.23-.21-.46Z"/><path class="cls-2" d="M38.63,301.58c-.05,0-.03,.06-.06,.08,.23,.11,.31,.13,.06-.08Z"/><path class="cls-2" d="M20.39,358.08l-.03-.9c-.11-.1-.21-.2-.32-.2l.35,1.1Z"/><path class="cls-2" d="M467.09,370.04l-.2,.15c-1.11,.98-.47,.44,.2-.15Z"/><path class="cls-2" d="M539.32,43.46c-.2,1.43-.32,1.54-.38,1.07-.03-.24-.05-.62-.07-1.07l-.12-1.44c-.06-.97-.24-1.85-.33-1.95-.13-.1-.11,.57-.29,2.67,.06-.19,.14,.18,.23,.76,.06,.57,.13,1.34,.21,1.93,.09,.58,.14,.97,.28,.78,.15-.19,.3-.97,.48-2.75Z"/><path class="cls-2" d="M64.47,386.58c.73,.1,1.47,.21,2.22,.31-1.01-.16-1.69-.26-2.22-.31Z"/><path class="cls-2" d="M538.12,42.74h0l-.06,.86c.03-.36,.04-.56,.07-.86Z"/><path class="cls-2" d="M546.63,318.74c.12,.21,.38,.56,.72,.86,0-.07-.18-.26-.72-.86Z"/><path class="cls-2" d="M494.2,365.08c.6-.51,1.18-1.04,1.72-1.59-.67,.64-1.22,1.15-1.72,1.59Z"/><path class="cls-2" d="M547.95,278.13c.35-1,.52-1.3,1.14-2.54-.09,.1-.17,.19-.28,.33-.17,.49-.45,1.07-.86,2.21Z"/><path class="cls-2" d="M567.94,240.36c.36,.04,.84,.08,1.26,.13,.68,.02,1.3,.16,1.93,.24l-1.45-.28c-.52-.07-1.16-.05-1.74-.09Z"/><path class="cls-2" d="M79.75,188.8c-.59,1.09-1.11,1.69-1.57,2.1,.19-.13,.09,.21-.11,.67-.22,.45-.56,1-.75,1.31-.21,.29-.22,.38,.2-.13,.37-.52,1.33-1.61,2.22-3.96Z"/><path class="cls-2" d="M63.05,386.56c.3-.09,.7-.08,1.41,.02-.53-.09-1.04-.17-1.54-.26-.15,.06-.19,.13,.12,.24Z"/><path class="cls-2" d="M544.51,274.68c.67-1.44,1.64-2.81,2.81-3.92,1.17-1.11,2.5-1.99,3.85-2.63-1.14,.53-2.44,1.32-3.66,2.43-1.22,1.1-2.29,2.57-3,4.12Z"/><path class="cls-2" d="M334.35,145.7c-.06-.53-.16-1.03-.26-1.53,.08,.58,.17,1.12,.26,1.53Z"/><path class="cls-2" d="M563.25,252.43c.7-1.27,1.43-2.61,2.19-4,.12-.32,.27-.69,.32-.92-1,1.63-1.77,3.3-2.51,4.92Z"/><path class="cls-2" d="M78.16,190.91s.01-.01,.01-.01c0,0,0,0-.01,.01Z"/><path class="cls-2" d="M43.74,216.5c.39-2.29,.12-3.85-.1-4.7-.24-.86-.45-1.13-.57-1.19-.27-.09-.37,.65-.82-.18-.19-.51-.36-.96-.51-1.38-.09-.26-.12-.46-.12-.58,0-.27,.09-.47,.19-.58,.1-.12,.2-.17,.3-.2,.08-.03,.17-.04,.23-.02,.29,.06,.17,.43,1.06,.12,.81-.49,1.93-.94,3.08-1.44,1.12-.5,2.18-.98,3.2-1.44,2.03-.93,3.91-1.77,5.81-2.42,.32,.02,1.08-.2,.26,.25,2.59-1.21,6.59-2.57,10.72-3.71,2.24-.61,4.52-1.49,6.5-2.74,1.99-1.25,3.59-2.96,4.51-4.63,.39-.42,.56-.65,.69-.74-.95,.88-1.41,.73-1.47,.4,1.01-1.43,1.52-2.99,1.84-4.26,.15-.64,.29-1.21,.39-1.7,.12-.49,.25-.89,.4-1.2-.31,2.06-.24,2.27-.35,3.28,.27-1.2,.47-2.4,.5-3.6,.51-1.58,.48-.36,.27,1.3-.11,.83-.34,1.75-.51,2.48-.21,.72-.34,1.25-.22,1.3,.66-1.76,.98-3.67,1.05-5.53,.05-1.67,.28-3.23,.8-4.74,.99-3.01,3-5.48,4.86-7.08,.61-.1-1.48,1.86-2.63,3.62-.58,.87-1,1.63-1.05,1.86-.05,.23,.18-.14,1.15-1.33-1.42,1.9-2.39,4.07-2.81,6.42,.47-1.3,.74-1.62,.77-1.55,.03,.08-.09,.6-.19,1.14-.1,.54-.16,1.11-.1,1.24,.07,.14,.2-.2,.68-1.3,.46-2.13,1.22-3.64,1.97-4.91,.77-1.26,1.57-2.27,2.45-3.23,.44-.48,.91-.95,1.42-1.43,.56-.52,1.14-1.07,1.78-1.66,1.28-1.18,2.79-2.53,4.76-4.23,1.49-1.85-.95,.1,.54-1.75,10.54-10.38,9.79-6.5,17.27-14.43,1.79-2.22,2.02-3.58,8.08-8.41l-1.44,2.33c3.78-3.34,4.66-4.51,5.63-5.67,.48-.58,.99-1.16,1.88-2.02,.44-.42,1.01-.95,1.66-1.49,.64-.55,1.44-1.15,2.42-1.61-.63,.46-1.89,1.53-3.01,2.63-1.13,1.07-1.97,1.83-1.37,1.36,1.38-1.03,2.29-1.79,2.82-2.26,.57-.48,.9-.8,1.2-1.1,.3-.29,.56-.56,.99-.85,.43-.25,1.02-.54,1.95-.5,.25,.24,.45,.5,.63,.78,.84,.19,1.82,.67,2.8,1.35,.91,.63,2.14,1.67,3.34,2.47,2.42,1.69,5.1,3.2,8.1,4.21,2.97,1.02,6.42,1.46,9.74,.57,3.34-.85,6.16-3.1,8.08-5.68-.28,.67-1.62,2.59,.55,.31,2.48-3.43,3.94-7.37,4.96-11.34,.51-2.05,.84-3.92,1.39-5.63,.55-1.7,1.3-3.17,2.38-4.16,1.05-1.03,2.52-1.63,4.16-1.99,1.92-.43,3.82-.86,5.71-1.28,3.78-.83,7.47-1.64,11-2.41l5.23-1.89c1.25-.3,2.38-.31,1.05,.13,5.53-1.13,.2-.43,2.78-1.3,3.11-.81,4.2-.69,2.26-.03,4.77-1.43,11.59-3.39,18.51-5.22l2.59-.68,1.29-.33,.64-.16,.58-.14c1.54-.34,3.09-.43,4.42-.15,1.34,.26,2.43,.9,3.2,1.75,.38,.43,.71,.9,.95,1.41,.14,.31,.29,.61,.43,.9,.17,.35,.32,.7,.54,1.05-.26-.33-.46-.66-.67-1l-.3-.49-.23-.32c.23,.46,.45,.89,.66,1.3,.26,.47,.56,.92,.87,1.34,.63,.83,1.47,1.57,2.46,2.05,1.01,.5,2.12,.57,3.02,.41,.91-.15,1.61-.49,2.2-.85,1.19-.72,2.05-1.53,3.06-2.43,1.02-.91,2.16-1.96,3.59-3.28l-.97,1.15c1.65-1.61,3.13-3.33,4.63-4.97,.75-.85,1.51-1.57,2.26-2.32,.37-.38,.8-.68,1.2-1.03l.61-.5,.64-.43c1.69-1.17,3.56-2.02,5.42-2.21,1.86-.2,3.67,.27,5.21,1.29,1.55,1.02,2.83,2.52,3.86,4.15,.97,1.69,1.77,3.45,2.34,5.28,1.17,3.66,1.8,7.4,2.85,10.85,.44,.56,1.03,1.95,1.98,3.65,.94,1.7,2.34,3.71,4.16,5.27,.46,.43,.85,.72,1.25,1.05,.4,.32,.8,.64,1.18,.94,.77,.61,1.5,1.17,2.16,1.64,1.32,.94,2.33,1.53,2.74,1.46,3.93,3.29,5.43,4.42,7.38,5.83,1.01,.66,2.12,1.42,3.89,2.35,1.77,.9,4.14,2.12,7.87,3.12,1,.22,1.89,.35,2.74,.44,.85,.03,1.65,.03,2.47,.02,.82-.03,1.68-.14,2.63-.19,.95-.06,2-.24,3.23-.31l.17,.61c1.83-.36,3.67-.46,5.16,.11,.63,.62,1,1.32,1.21,2.09,.58,.8,1,1.92,1.27,3.16-.17-1.53-.65-2.96-.4-2.86,.67,1.19,1.02,2.89,1.12,4.64,.02,.44,.02,.89,.03,1.32,0,.46-.02,.92-.02,1.38-.04,.92-.07,1.81-.1,2.65-.19,3.37-.26,6.04-.4,6.15,.34,3.23,1.04,6.58,2.44,9.69l3.11,6.91,1.35-7.32c.46-2.46,.67-4.94,.71-7.39,.25,.38,.16,3.25-.09,5.55,.23-2.31,.24-3.56,.33-4.27,.08-.71,.16-.89,.25-1.05,.16-.3,.46-.56,.11-4.7-.11,1.11-.38-.59-.51-.77,.13-2.05-.03-5.39-.35-8.97-.15-1.78-.35-3.69-.44-5.36-.04-1.7-.04-3.37,.21-4.81,.08,.4,.15,.78,.25,1.17,.35-2.61,1.16-5.05,2.81-6.86,1.61-1.84,4.07-3.15,6.91-3.96,1.43-.45,2.83-.66,4.64-1.04,1.74-.4,3.77-.89,5.72-2.39,.95-.75,1.78-1.77,2.31-2.88l.34-.79,.22-.51c.15-.34,.27-.69,.45-1.02,.64-1.35,1.46-2.63,2.41-3.88-1.41,1.73-1.97,2.37-2.1,2.13-.11-.24,.29-1.38,1.42-2.91,.47-.27,.97-.52,1.45-.77,1.27-2.14-2.73,2.9,.14-1.29,1.66-1.81,2.42-2.28,2.46-2.04,.05,.24-.58,1.2-1.43,2.31,1.25-1.51,2.63-3,4.02-4.54,.39-.12-.55,.99-.63,1.43,.73-1.05,2.76-2.81,4.79-5.02,1.02-1.1,2-2.34,2.76-3.46,.77-1.12,1.36-2.15,1.72-2.96l.35-.17c1.03-1.47,1.99-2.69,2.91-3.49,.92-.82,1.72-1.19,2.51-1.32,.8-.12,1.75,.07,2.72,.37,.49,.16,.98,.43,1.47,.63,.25,.1,.49,.28,.73,.41l1.04,.61c1.57,1.04,3.61,.71,5.26-.09,.45-.24,.91-.49,1.37-.74,.41-.23,.82-.45,1.26-.62,1.69-.81,3.61-1.4,5.82-1.84,.02-.15,.28-.3,.72-.46,.44-.14,1.05-.27,1.75-.42,1.42-.25,3.23-.47,4.83-.71,3.96,0,8.19,.45,12.78,.62,.57,.03,1.15,.03,1.74,.04,.58,0,1.17,.02,1.8-.02,.62-.04,1.25-.07,1.88-.11,.63-.06,1.24-.18,1.87-.27,1.27-.15,2.48-.53,3.73-.83,.62-.18,1.22-.41,1.83-.61,.61-.21,1.23-.42,1.82-.7,.82-.41,1.47-.73,1.97-.98,.48-.29,.83-.51,1.08-.68,.49-.33,.59-.45,.57-.51-.04-.13-.49,0,.83-.94,.35,.08,2.72-1.22,4.34-2.38,1.61-1.15,2.59-1.97,.66-.04,1.18-1.04,2.28-1.95,3.18-2.94,.96-.93,1.72-1.91,2.46-2.84,.74-.92,1.31-1.92,1.93-2.84,.5-1.01,1.08-1.96,1.49-3.03,.4-1.08,.86-2.15,1.09-3.39,.12-.62,.34-1.22,.38-1.9,.06-.67,.13-1.36,.19-2.08,.11-2.51,.26-5.32,1.15-8.71-.66,1.38-1.04,3.08-1.04,2.16,.43-2.57,1.94-5.49,2.06-5.03-.08,.2-.15,.42-.2,.63,.65-1.82,1.52-3.66,2.74-5.33,1.21-1.67,2.69-3.22,4.35-4.6,1.68-1.38,3.56-2.55,5.51-3.61l1.49-.76,1.52-.7,1.6-.73c.55-.26,1.1-.53,1.64-.8,2.15-1.11,4.15-2.35,6.04-3.61,1.96-1.32,3.45-2.39,5.16-3.17,3.33-1.62,6.66-2.14,9.67-2.22-.22,0-.45,0-.67,.02,1.03-.01,2.08,.03,3.13,.16,.53,.05,1.05,.14,1.58,.23l1.73,.3c2.37,.38,4.81,.61,7.3,.46,1.72-.03,2.33-.12,2.35-.07,.02,.03-.55,.19-1.18,.28-.63,.11-1.32,.2-1.53,.26-.21,.06,.05,.19,1.37,.18,2.07-.24,4.04-.72,5.82-1.45,.44-.18,.87-.39,1.3-.58,.42-.21,.82-.44,1.22-.66,.4-.23,.77-.49,1.14-.72l.25-.17,.12-.09,.24-.19c.18-.17,.28-.14,.4-.14h.09s-.08,0-.12,0c-.09,0-.26-.02-.27,.01,.2,.29,.4,.57,.59,.85,.73,1.16,1.41,2.3,2,3.47,2.32,4.68,3.58,9.42,3.89,15.16-.37,2.22-.8,5.25-1.71,8.71-.2,.87-.49,1.75-.76,2.66-.27,.91-.62,1.98-.89,3.01-.59,2.08-1.11,4.25-1.57,6.45-.93,4.4-1.62,8.92-2.26,13.11-.16,1.04-.31,2.1-.48,3.05-.19,.93-.33,1.84-.56,2.7-.25,.85-.45,1.69-.73,2.47-.29,.77-.56,1.51-.86,2.19,.2-.17,.37-.36,.55-.54-.71,3.05-1.53,3.43-2.6,5.43,.44-.14,1.71-2.91,1.09-1.07-2.7,6.05-7.05,11.47-12.12,16.25-1.27,1.2-2.59,2.36-3.93,3.5-1.39,1.14-2.79,2.29-4.18,3.43-1.43,1.23-2.86,2.48-4.21,4.05-.33,.41-.65,.85-.98,1.28-.31,.46-.59,.99-.88,1.49-.23,.59-.5,1.15-.63,1.8-.12,.67-.26,1.33-.18,2.03,.02,1.41,.54,2.65,1.09,3.71,.28,.53,.61,.96,.93,1.44,.32,.45,.67,.82,1.01,1.23,1.39,1.52,2.85,2.83,4.33,3.99,.78,.63,1.38,1.11,2,1.66,.61,.54,1.17,1.11,1.69,1.69,1.03,1.17,1.82,2.42,2.31,3.73,1.01,2.6,.75,5.6-.27,8.66-.61,1.83-1.09,3.97-1.19,6.08-.11,2.13,.13,4.31,.72,6.38,.44,1.51,.99,2.67,1.51,3.58l.34,.59c.1,.16,.19,.31,.28,.46,.18,.29,.35,.55,.52,.79,.6,.97,1.09,1.59,1.53,2.31,.24,.36,.46,.75,.65,1.22,.22,.47,.43,1.03,.58,1.74,.33,1.4,.6,3.44-.03,6.31-.06-1.13-.19-2.22-.47-3.28,.46,4.53-1.4,9.1-4.54,12.9-1.62,1.97-3.77,4.31-4.88,7.47-.57,1.57-.79,3.31-.69,4.96l.45,4.21c.78,5.56,2.38,11.08,5.04,16.08,2.64,4.99,6.37,9.4,10.82,12.65-1.09-.73-1.28-.57-2.9-2.01,.78,.87,2.04,2,3.48,3.16,1.53,1.04,3.19,2.23,4.92,2.99,.85,.4,1.64,.85,2.42,1.12,.78,.28,1.48,.52,2.08,.72s1.09,.34,1.44,.43c.35,.08,.57,.08,.59,.04,3.23,1.03,.64,.57,2.6,1.37,1.09,.46,2.39,.63,3.71,.89,.67,.11,1.34,.26,2.01,.31l2,.15c2.62,.27,4.95,.11,6.16,.43,.41,.09-1.29,.11-2.14,.11,.74-.03,2.01,0,3.38,.03,1.34,0,2.83,.01,4.14,.02,2.63,0,4.56-.04,3.19-.33,1.94,.09,3.84,.13,5.69,.14,.93,0,1.84,0,2.75,0l.71-.03,.37-.02h.09s0,.05,.01,.07v.17c.07,.24-.09,.44-.19,.65-.2,.37-.41,.74-.6,1.1-.41,.72-.81,1.43-1.21,2.13-.75,2.08-2.02,5.27-3.11,7.98-1.08,2.73-2.2,4.83-2.16,5.54-.29-.46-1.83,2.29-4.62,4.23-.72,.46-1.47,.93-2.31,1.29-.22,.1-.36,.18-.65,.31l-.82,.38c-.54,.26-1.07,.56-1.58,.87-2.03,1.27-3.54,3.03-4.22,4.35,.45-.9-.39,.11-1.01,1.22-.62,1.1-1.07,2.23-.86,1.06-1.19,3.27-1.14,6.32-1.03,8.27,.14,1.95,.36,2.96,.56,2.47-.16,2.62-.14,5.07-.42,7.28-.27,2.2-.85,4.18-1.87,5.87l-.38,.64-.49,.79c-.33,.52-.64,1.04-.91,1.58-.28,.53-.56,1.05-.77,1.59-.23,.54-.47,1.05-.63,1.6-.76,2.12-1.09,4.2-1.27,6.04,.23,1.78,.82,3.46,1.62,4.97,.82,1.51,1.88,2.76,2.98,3.9,1.15,1.08,2.34,2.06,3.6,2.86l.93,.61c.22,.14,.45,.28,.67,.45,.44,.33,.87,.69,1.27,1.1,1.62,1.63,2.91,3.75,3.67,5.88,.38,1.06,.61,2.15,.6,3.08,0,.45-.08,.87-.18,1.13-.08,.22-.25,.45-.46,.58-4.54,2.84-8.44,5.58-12.48,7.75,.02-.44,2.44-1.78,5.14-3.5,2.68-1.69,5.81-3.65,7.1-4.63,.15-.19,.08-.34-.05-.42-.03,.06-.08,.11-.11,.15-5.74,3.71-10.02,6.98-14.69,9.3-4.65,2.31-9.71,3.86-16.18,2.51-1.88-.33-1.34-.35-.14-.29,.3,.02,.63,.05,.98,.08,.31,.01,.62,.03,.93,.05,.6,.02,1.13,.07,1.41,.03-.81-.05-1.57-.15-2.42-.24-.92-.14-1.84-.26-2.77-.34-1.87-.16-3.79-.18-5.72,.11-1.93,.28-3.85,.89-5.56,1.84-1.71,.94-3.2,2.16-4.48,3.47l-.9,.96c-.24,.26-.5,.52-.77,.78-.54,.51-1.12,1.01-1.74,1.51-1.23,1-2.58,2.01-3.87,3.24-.32,.3-.64,.63-.95,.96l-.83,.94c-.49,.57-1.01,1.09-1.52,1.62-1.05,1.01-2.17,1.89-3.35,2.56,0-.05,.24-.22,.6-.46,.34-.29,.82-.59,1.25-.98-.87,.68-1.96,1.28-2.8,1.61-.84,.36-1.43,.54-1.27,.72l.96-.35,.93-.45c.82-.27,.82-.09,.29,.35-.53,.4-1.61,1.06-2.95,1.38-1.33,.35-2.89,.36-4.12,.19-.62-.06-1.15-.19-1.54-.26-.4-.07-.65-.13-.72-.11,1.07,.07,.87-.16,.15-.55-.36-.22-.87-.42-1.4-.75-.27-.15-.56-.31-.85-.47-.34-.19-.67-.38-1.03-.54-1.4-.7-2.95-.97-3.61-1.12-.33-.09-.44-.18-.2-.29,.24-.11,.85-.27,1.92-.24-1.02-.18-2.24-.15-3.08,.05-.85,.19-1.32,.48-1.06,.54-1.48,.32-2.32,.83-2.57,.85-.22,.07,.08-.39,1.52-1.11-2.69,1.07-3.87,2.68-4.49,3.24-.73,.71-1.2,1.17-1.67,1.6-.96,.84-1.82,1.66-5.27,3.62-.07-.18,1.28-1.04,1.85-1.66-1.59,1.19-3.28,2.32-5.33,3.55-2.04,1.22-4.52,2.58-7.47,4.31,.29-.31-.48-.04,1.28-1.08-2.5,1.53-4.73,2.93-6.99,3.98-2.25,1.04-4.52,1.77-6.89,1.85-1.18,.07-2.38-.05-3.58-.31-1.25-.2-2.24-.8-3.92-1.16-1.56-.28-3.28-.15-4.84,.67-.78,.41-1.5,1-2.06,1.73l-1.43,1.85c.72-1.74,.07-.89-.94,.28-.55,.55-1.12,1.27-1.73,1.72-.59,.47-1.09,.81-1.33,.78-1.56,1.45-3.27,2.78-5.16,3.9,.8-.35,1.66-.65,2.43-1.07-4.81,3.16-9.74,5.27-14.77,6.47,1.41-.51,2.8-1.04,4.17-1.59-3.52,1.2-7.17,2.18-10.82,3.26l6.28-1.45c-5.8,2.01,.89,.72-6.95,2.7,.78-.25-.69,.12-2.73,.75-2.05,.59-4.64,1.47-6.19,1.88h.02c-2.72,1.34-5.42,2.86-9.55,4.63-1.16,.29,.49-1.15-.26-.97-1.21,.92-4.37,2.53-7.64,4.13-3.26,1.63-6.66,3.09-8.26,4.1,1.09-.61,1-1,.6-.92-.69,.48-1.4,.91-2.11,1.36-1.33,.42-2.1,.62-2.5,.66-.4,.05-.42-.05-.25-.27-1.97,.64-2.8,.9-3.07,1.05-.26,.15,.04,.18,.29,.22,.25,.03,.46,.07,0,.24-.47,.14-1.59,.53-4.03,.92,.75-.21,.37-.2,1.93-.62-1.21,.23-2.41,.5-3.61,.71-1.2,.16-2.38,.39-3.58,.52-2.38,.28-4.73,.45-6.86,0-1.05-.24-2.03-.65-2.85-1.28-.83-.63-1.5-1.46-2.04-2.39-.54-.96-.87-1.95-1.33-3.11-.43-1.13-.98-2.22-1.61-3.28-.58-1.42,.88,.31,1.74,2.25,.87,2.04,1.46,3.51,1.25,2.11l-.48-1.18c-.17-.42-.33-.84-.55-1.24-.21-.41-.4-.82-.63-1.23l-.75-1.2c-1.08-1.55-2.57-3.04-4.49-3.85-1.9-.84-4-.95-5.86-.65-1.89,.29-3.62,.92-5.25,1.65-.84,.38-1.57,.75-2.32,1.08-.75,.33-1.52,.64-2.3,.91-1.57,.56-3.15,1.01-4.78,1.43-1.7,.45-3.39,1.08-4.91,2.07-1.52,.99-2.78,2.41-3.6,3.99,.44-.77,.93-1.52,1.56-2.15-.15,.53-.6,1.29-1.13,2.31-.52,1.03-1.04,2.35-1.4,3.88-.18,.76-.32,1.57-.42,2.4-.13,.82-.21,1.58-.36,2.38-.29,1.58-.71,3.16-1.11,4.69,.42-1.49,.03-2.08,.04-1.65-1.26,3.98-3.34,7.84-6.47,11.64-3.14,3.77-7.35,7.53-13.17,10.6l1.32-.98c-2.29,1.11-5.37,2.41-8.63,3.28-3.25,.91-6.66,1.28-9.34,1.16-.8,.16-1.97,.09-2.71,.1-.74-.03-1.06,0-.14,.34-2.06-.42-4.07-1.1-5.85-1.89-1.76-.85-3.26-2.03-4.45-3.49l-.96-1.22c-.36-.41-.71-.83-1.09-1.22-.76-.78-1.57-1.52-2.44-2.17-1.73-1.31-3.65-2.32-5.65-3.01-1-.35-2.01-.62-3.03-.83-1.02-.2-1.89-.38-2.82-.65-1.81-.56-3.53-1.36-5.07-2.44-1.53-1.08-2.9-2.39-4.05-3.87-1.17-1.49-2.09-3.07-2.98-4.81,.97,1.61,2.55,3.41,1.76,2.28-.6-.84-1.19-1.75-1.8-2.67l-1.81-2.74c-1.21-1.83-2.45-3.65-3.71-5.45,.19,1.13,.74,1.59,1.94,4.11-1.13-1.25-3.34-4.24-5.25-6.87,3.65,4.65,.63-.5-.76-2.7,.15,.43-.51-.18-.49,.08-1.8-2.98-2.23-3.02-2.8-3.32-.29-.15-.65-.34-1.3-.95-.65-.62-1.58-1.66-3.17-3.39l.53,.17c-2.62-2.38-5.31-4.22-8.43-6.36-.54-.64,.32-.22,1.31,.41,.99,.64,2.12,1.45,2.36,1.35-2.14-1.61-4.51-2.98-7.03-3.76-2.52-.8-5.07-.87-7.52-.58,1.11-.33,2.54-.52,3.97-.41,1.43,.09,2.83,.47,3.94,.85-2.43-1.31-4.12-1.49-5.51-1.53-1.41,.02-2.65,.2-4.63,.84,.13-.05,.26-.08,.39-.12-1.57,.5-2.89,1.08-4.3,1.62-1.39,.55-2.77,1.08-4.15,1.56,.72-.21,1.43-.44,2.15-.68-2.75,1.89-5.9,3.15-9.47,3.62-1.77,.26-3.64,.18-5.66,.23-2.01,.04-4.11,.15-6.35,.38,8.69-.87,1.44-.5,2.1-1.11-2.28-.17-5.76-.35-4.77-.52-4.23,.49-7.06-.38-13.02,.34-.27-.19-4.52-.02-3.57-.51-5.5,.16,1.3,.34,.84,.58-4.23,.34-9.21,.14-14.66-.03-2.68-.07-5.48-.13-8.36-.2-2.67-.17-5.21-.91-7.14-2.79-.4-.41-.74-.85-1.05-1.29-.31-.49-.6-.95-.89-1.39-.6-.97-1.26-1.77-1.9-2.49-1.31-1.41-2.66-2.37-4.06-3.08-2.83-1.37-5.91-1.97-10.73-1.39-1.66-.06-.99-.28,.08-.48,.52-.1,1.19-.2,1.71-.27,.52-.05,.91-.07,.91-.07-.68-.05-1.35-.04-2-.03l-1.82,.04c-1.18,.06-2.32,.02-3.44,.03-1.13,0-2.24-.06-3.39-.08-1.14-.1-2.32-.1-3.55-.25,1.01-.03,0-.32-1.44-.75-1.94-.33-2.63-.26-3.45-.33-.82-.06-1.82-.15-4.3-1.01,.93,.02,2.12,.03,4.01,.23-4.54-.85-9.04-2-13.59-3.73-.53-.4,.2-.24,1.26,.08,1.07,.31,2.48,.74,3.31,.93-2.57-.86-5.84-2.14-8.67-3.32-2.83-1.17-5.23-2.2-6.11-2.34,1.02,.59,2.04,1.17,3.07,1.74-1.81-.86-.72-.87,.65-.31,4.4,1.65,6.07,2.96,6.24,3.25-1.09-.39-2.15-.85-3.23-1.28,1.39,1.25,4.62,2.65,8.38,3.79,3.76,1.16,8.02,1.99,11.43,2.62-1,.09-2.01,.2-3.02,.23,1.19,.19,2.4,.25,3.59,.37,1.2,.04,2.4,.15,3.59,.13,1.48,.36,2.51,.93-.97,.71,1.25,.23,2.15,.35,2.88,.41,.73,.03,1.27,.02,1.78,.01,1.03,0,1.97-.08,4.15,.11,.48,.04,.27,.1-.18,.15l2.47-.27c.82-.09,1.6-.19,2.42-.21-.47,.09-.27,.23-.33,.34-.05,.11-.34,.16-1.81,.19,8.6-.41,13.05,3.87,14.15,6.83-.14-.19-.29-.38-.43-.56,.43,.59,.73,1.16,1.04,1.65,.32,.55,.62,1,.91,1.38,.58,.75,1.06,1.19,1.4,1.48,.7,.54,.81,.49,.84,.38,.03-.11,0-.28,.44-.11,.43,.15,1.32,.74,3.48,1.26,.87,.53,1.85,.96,2.87,1.3,1.02,.34,2.1,.57,3.12,.82l1.2-.61c1.26,.02,3.76,.06,3.3,.31,4.7-.42-.8-.27,1.92-.66,6.08,.55,16.77-.27,18.14,.7,2.18-.47-5.82-.35,.67-.68,1.85,1.05,7.5-.18,13.06,.29-1.71,.54-6.97,.26-1.41,.74,1.68-.46,4.38-.41,7.25-.27,1.45,.06,2.88,.18,4.36,.21,1.48,.02,2.9-.12,4.09-.4,.04-.38,2.63-.92,5.93-2.21,1.66-.63,3.5-1.41,5.37-2.23,1.89-.83,3.72-1.68,5.57-1.98-.11,.09,.71-.05,2.09,.04,.69,.07,1.51,.17,2.41,.44,.9,.26,1.86,.66,2.85,1.18,1.97,1.03,3.97,2.6,5.81,4.15,1.84,1.55,3.45,3.17,4.65,4.5l-.23-.07c.74,.24,2.4,1.71,4.19,3.77,1.8,2.04,3.74,4.64,5.35,6.85-.49,.08-1.17-.65-3.07-2.89,1.02,1.35,2,2.75,2.96,4.15,.87,.87,1.87,2.12,3.75,4.89l-1.16-.79c.93,1.43,1.89,2.86,2.87,4.32,.97,1.43,2.01,3,3.25,4.49,2.45,2.97,5.71,5.81,10.09,7.59,.32-.14-1.28-1.13-1.7-1.75-.22-.3-.19-.46,.42-.32,.62,.12,1.8,.6,4.05,1.06,.13,.17,.26,.4,.05,.52-.21,.13-.77,.16-1.97-.17,.4,.1,1.1,.28,1.92,.42,.82,.16,1.7,.32,2.45,.61-.61-.1-1.23-.17-1.84-.22-.63-.07-1.28-.12-1.92-.25,2.01,.65,2.5,.6,2.93,.61,.42,0,.79-.09,2.27,.48-.17,.3,2.01,1.18,1.46,1.28-.7-.33-2.4-1.22-3.6-1.36,1.67,.48,3.41,1.29,4.75,2.22,1.35,.92,2.32,1.9,2.71,2.46-.09-.34,.41-.48,2.17,1.37,.56,.63,.9,1.11,1.28,1.59,.36,.46,.64,.79,.85,1.04,.42,.5,.55,.69,.6,.83,.12,.25-.2,.39,1.61,1.75,.85,.4,2.37,1.18,3.75,1.55,1.35,.4,2.53,.57,2.65,.29,1.02,.25,1.63,.37,2.07,.53,.45,.15,.73,.32,1.13,.42,.94,.02,2.5,.09,4.23-.03,1.74-.07,3.63-.38,5.26-.7,.81-.18,1.55-.38,2.18-.55,.62-.2,1.13-.37,1.48-.51,.69-.28,.71-.39-.31-.26l-.91,.21c.17-.05,.36-.12,.56-.19h0c5.63-1.9,11.15-4.68,16-8.47,4.81-3.77,9.04-8.56,11.24-14.14l.17,.09c.67-1.66,1.18-3.49,1.56-5.36,.38-1.87,.37-3.87,.56-5.53,.19-1.71,.62-3.31,1.32-4.61,.68-1.31,1.63-2.31,2.55-3.04,1.64-1.13,4.38-1.46,3.63-1,1.16-.37,2.21-.64,3.09-.92,.89-.28,1.67-.54,2.52-.83,.85-.3,1.77-.61,2.93-1.07,1.19-.46,2.46-1.07,4.22-1.55-2.33,1-1.86,.99-1.67,.91,.1-.03,.14-.04-.25,.12-.19,.08-.49,.21-.95,.4-.49,.22-1.14,.5-2.02,.83,.83-.29,1.6-.61,2.26-.88,.64-.24,1.21-.49,1.76-.65,.55-.19,1.06-.34,1.56-.45,.5-.15,.97-.21,1.45-.3,.95-.13,1.91-.26,2.97-.13,1.06,.12,2.24,.41,3.53,1.34-.5-.24-.55-.14-.33,.13,.11,.13,.29,.31,.48,.58,.2,.25,.46,.53,.69,.9,.12,.18,.25,.36,.38,.55,.12,.21,.24,.42,.36,.64,.27,.41,.47,.91,.7,1.37,.44,.95,.76,1.84,1.18,2.74-.3-.9-.5-1.58-.72-2.3-.11-.36-.26-.69-.39-1.04-.12-.35-.28-.69-.45-1.01,.23,.34,.43,.71,.61,1.08,.19,.37,.38,.73,.52,1.11,.33,.82,.65,1.62,.96,2.41,.74,1.66,1.83,3.25,3.39,4.4-.7-.21-1.37-.55-2.03-.94,1.34,1.74,3.46,2.9,5.41,3.33,1.97,.45,3.81,.42,5.5,.29,1.7-.13,3.27-.39,4.85-.71,1.57-.26,3.07-.71,4.55-1.09,5.86-1.72,10.93-4.03,16.13-5.64,1.6-1.01-.17-.25-2.02,.45-1.84,.74-3.77,1.37-2.32,.49,6.04-2.45,12.47-4.67,14.29-5.51,4.04-1.75,5.79-2.78,7.6-3.85,1.82-1.01,3.68-2.19,8.04-3.45-.59,.07-1.19,.04-.85-.3,.34-.34,1.63-1.02,4.94-2.04,6.25-1.63,7.94-1.19,4.04,.11-1.5,.44-2.23,.56-2.19,.46-1.99,.64-4.57,1.47-2.06,1.03l.74-.45c1.57-.32,4.5-1.04,6.83-1.65,2.32-.61,4.01-1.1,3.05-.57,2.35-.91,2.81-1.22,2.26-1.1-.55,.11-2.13,.61-3.91,1.08,4.08-1.09,7.24-2.32,10.25-3.98,2.99-1.68,5.91-3.74,8.99-7.11-1.04,1.03-2.17,1.76-1.18,.73,.56-.61,1.06-1.16,1.52-1.66,.41-.54,.77-1.02,1.09-1.45,.28-.38,.52-.71,.74-1.01,.17-.21,.34-.37,.5-.52,.66-.53,1.06-.69,1.35-.87,.3-.17,.52-.31,1.12-.42,.3-.05,.69-.07,1.24-.01,.55,.06,1.13,.28,2.25,.68,2.37,.94,1.93,.96,1.92,1.12,0,.07,.14,.14,.85,.28,.36,.08,.86,.16,1.58,.19,.36,.03,.77,.05,1.23,.02,.47-.01,.99-.02,1.57-.11,.72-.01,1.27-.08,1.69-.12,.42-.03,.71-.05,.88-.06,.35,0,.28,.09-.05,.24-.32,.16-.92,.32-1.57,.5-.66,.12-1.39,.28-1.99,.32,4.51-.33,8.22-1.98,11.24-3.41,1.52-.73,2.89-1.45,4.12-2.11,1.19-.61,2.27-1.17,3.22-1.67-1.16,.7-2.21,1.39-3.35,2.15,1.98-1.34,3.67-2.24,5.47-3.2l-2.26,.68c2.11-1.05,3.94-2,3.99-1.81,2.06-1.47-2.05,.23,2.11-2.53,1.48-.68,3.61-2.01,5.44-3.35,.91-.67,1.75-1.33,2.44-1.86,.34-.27,.64-.49,.91-.66,.25-.15,.41-.21,.55-.23-.36,.29-.88,.74-1.24,1.05-.38,.33-.72,.58-.99,.81-.55,.45-.91,.71-1.1,.9-.39,.36-.18,.31,.08,.24,.26-.07,.57-.16,.36,.1-.21,.26-.93,.92-2.81,2.14,1.42-.99,3.2-2.16,5.22-3.83,.34-.21-.18,.36-.72,.83,.54-.37,.99-.77,1.41-1.11,.37-.29,.57-.46,.82-.62,.47-.32,.82-.51,1.11-.66,.58-.28,.88-.45,1.23-.61,.35-.15,.74-.34,1.52-.31,.39,.01,.89,.11,1.52,.33,.34,.12,.61,.26,1.1,.49,.51,.24,1.04,.54,1.69,.8-.72-.11-.2,.29,.75,.8,.47,.25,1.1,.47,1.69,.69,.62,.17,1.23,.32,1.72,.38-1.18-.22-1.88-.45-2.2-.63-.33-.17-.3-.24,0-.25,.57,0,2.24,.27,4.36,.19,1.84,.09,3.3-.18,4.39-.57,1.1-.37,1.89-.79,2.54-1.19,1.28-.83,2.11-1.53,3.46-2.71-1.04,.89-2.2,1.68-3.43,2.35,.53-.51,1.53-1.21,2.72-2.3,.6-.53,1.24-1.17,1.91-1.9,.32-.36,.65-.74,1-1.14,.31-.37,.66-.73,1.04-1.1,.23-.02-.46,.66-.95,1.27-.55,.65-1.07,1.23-.46,.65,.41-.56,.72-.99,1.15-1.45,.43-.45,.91-.88,1.43-1.3,1.05-.85,2.27-1.65,3.55-2.6,.63-.48,1.28-.99,1.91-1.58,.29-.28,.58-.56,.88-.85,.27-.26,.53-.53,.82-.77,1.12-1,2.33-1.89,3.67-2.65,1.35-.47,1.47-.28,1.54-.14,.08,.16,.1,.25,1.26,.06,1.56-.46,2.92-.51,4.07-.45,1.15,.06,2.13,.24,3.12,.45,.91,.22,2.18,.47,3.62,.65,.73,.04,1.54,.09,2.44,.08,.89-.08,1.9-.08,3-.32-1.3-.04-2.06-.18-1.72-.26,.33-.12,1.81-.21,4.73-1.14-2.28,.64-4.68,.94-7.09,.94-1.21,.03-2.41-.11-3.61-.25-1.13-.14-2.13-.29-3.18-.35,.67,0,1.35,.03,2.03,.08l1.05,.08,1.16,.06,1.15,.06,1.15-.04,1.14-.05,1.13-.14c-1.06,.1-2.16,.03-3.25,.03-.54-.03-1.08-.1-1.61-.15-.53-.05-1.07-.1-1.51-.16-1.85-.24-3.48-.3-4.6-.33,1.91-.18,2.82-.09,2.98-.15,.16-.05-.39-.2-1.31-.46,1.34,.25,2.59,.56,4,.76,.72,.08,1.44,.2,2.18,.22,.73,0,1.47,.01,2.21-.03,2.98-.18,5.94-.94,9.11-1.82l.2,1.18c3.69-1.11,6.75-2.79,9.68-4.62,2.94-1.86,5.71-3.89,9.05-5.99,.87-.53,1.54-1.35,1.95-2.33,.38-.92,.49-1.84,.5-2.7,0-1.73-.39-3.35-.95-4.97,.46,1.41,.77,2.89,.79,4.48-.25-1-.63-3.1-1.59-5.3-.94-2.2-2.43-4.5-4.1-5.98,.28,0-.02-.52-.66-1.19-.32-.33-.74-.71-1.17-1.05-.33-.29-.66-.59-.96-.86-.01,.19-1.75-1.03-3.21-2.62-.75-.78-1.35-1.69-1.84-2.42-.21-.38-.41-.72-.6-.98-.15-.28-.29-.48-.42-.57-.28-1.61-.11-3.22,.41-4.72,.52-2.09,1.39-3.68,2.17-5.03,.35-.63,.84-1.42,1.21-2.16,.17-.38,.33-.75,.49-1.11,.13-.38,.26-.75,.38-1.12,.88-2.99,1-6,.86-10.87,.26,1.47,.42,1.09,.59,1.16,.08,.04,.16,.19,.24,.75,.08,.56,.18,1.54,.11,3.29,.27-3.49,.06-6.39-.17-6.43,.1-.95-.18-3.17-.16-5.38,.02-1.11,.14-2.23,.39-3.2,.23-.98,.63-1.76,1.01-2.27,.21-.55,.3-.95,.61-1.53,.33-.56,.86-1.35,2.28-2.24,.35-.13,.09,.17,.09,.17-.06-.09,1.02-.83,1.9-1.27,.4-.23,.83-.49,.86-.58,.06-.11-.23-.06-.98,.15,.58-.17,1.25-.41,1.91-.65,.66-.27,1.31-.64,1.99-1.01,1.29-.85,2.58-1.92,3.65-3.25,2.17-2.66,3.53-6.01,4.72-9.19,.6-1.6,1.19-3.17,1.82-4.65,.64-1.49,1.38-2.79,2.12-4.18,.46-.85,.91-1.68,1.34-2.48,.16-.41,.37-.85,.48-1.22l.18-.56c.02-.21,.02-.43,.03-.65-.04-.8,.39-2.02-.62-1.85-.7-.13-1.29-.33-2-.44-3.82,.02-8.04,.03-12.16,.05-3.82,.01-7.56,.03-10.67-.12,.41-.1,.03-.2,1.21-.11-2.16-.12-3.54-.36-4.6-.38-1.06-.04-1.78,.03-2.52-.01-.75-.01-1.54-.04-2.75-.21-.61-.06-1.29-.29-2.14-.53-.42-.13-.87-.28-1.37-.43-.5-.16-1.04-.33-1.6-.61-2.22-1.26-.96-.83,.47-.29,1.46,.48,3.17,.96,1.71,.4-.22-.42-1.06-.76-2.18-1.33-.57-.26-1.23-.54-1.96-.83-.74-.26-1.46-.71-2.27-1.07-1.63-.71-3.24-1.81-4.81-2.86-.73-.6-1.45-1.21-2.12-1.81l-.5-.45c-.14-.17-.29-.33-.43-.5-.28-.33-.54-.66-.79-.98l1.14,1.06c-1.57-1.89-3.73-3.96-5.62-6.8-1.05-1.35-1.86-2.97-2.79-4.62-.4-.86-.76-1.76-1.13-2.68-.41-.9-.68-1.88-.94-2.87,0,0,.22,.35,.2,0-.27-.65-.56-1.38-.86-2.17-.22-.82-.46-1.7-.7-2.63-.12-.47-.24-.95-.37-1.43-.09-.49-.17-1-.25-1.52-.16-1.03-.34-2.12-.47-3.18-.21-2.04,.37-4.15,1.5-5.99,1.09-1.87,2.61-3.46,3.86-5.14-1.25,2.36-2.18,3.01-.8,2.21,1.17-1.48,.84-1.41,.79-1.68-.03-.15,.04-.36,.34-.96,.15-.29,.37-.67,.68-1.17,.28-.52,.65-1.15,1.08-1.97,.69-1,1.63-2.73,2.25-4.4,.62-1.67,.96-3.22,1.28-3.57-.19,2.46-.85,4.89-1.86,7.12,1.1-1.57,1.89-3.94,2.08-6.38,.22-2.45-.14-4.88-.45-6.78l.41,.43c-.55-2.81-1.37-4.79-2.17-6.36-.37-.8-.81-1.47-1.19-2.13-.38-.64-.69-1.12-.99-1.7-.59-1.13-1.06-2.35-1.35-3.97-.25-1.61-.3-3.64,.38-6.24-.17,.34-.33,.68-.48,1.03,.1-1.48,.4-2.53,.63-3.41,.21-.87,.43-1.5,.59-2.16,.08-.33,.17-.65,.24-1.02,.06-.36,.11-.76,.15-1.22,.02-.91,.02-2.1-.48-3.67,.08-.35,.08-.7,.12-1.07,.04-.37,.05-.73,.04-1.1-.43-1.06-1.22-2.42-2.37-3.78-1.14-1.36-2.64-2.7-4.32-3.89-1.63-1.18-3.32-2.31-4.77-3.68-1.43-1.34-2.71-2.87-2.95-4.48,.29,.88,.87,1.88,1.79,2.88,.96,.98,2.12,2,3.43,2.95,.62,.5,1.33,.94,1.99,1.41,.67,.48,1.42,.98,2.08,1.52,1.35,1.06,2.55,2.22,3.47,3.38-.64-.94-1.65-2.05-2.85-3.15-.31-.27-.62-.54-.93-.82-.33-.26-.66-.52-1-.78-.63-.48-1.27-.96-1.89-1.43-.59-.48-1.17-.95-1.72-1.4-.49-.47-1.04-.89-1.41-1.31-.4-.41-.78-.77-1.01-1.09-.26-.31-.5-.56-.62-.73,.7,1.16,2.18,2.4,3.22,3.51-.5-.33-.96-.71-1.47-1.1-.45-.42-.97-.84-1.37-1.34-.87-.97-1.57-2.15-1.48-3.51,.06-1.36,.9-2.82,2.02-4.16,1.12-1.36,2.53-2.64,4.06-3.92-.01,.51,.95-.02,2.59-1.21,1.63-1.18,3.85-3.05,6.12-5.21,2.27-2.16,4.58-4.64,6.49-6.94,1.91-2.3,3.43-4.4,4.46-5.56,1.78-3.28,3.25-6.71,4.32-10.3,.53-1.79,.98-3.63,1.3-5.49,.36-1.87,.59-3.6,.92-5.42,.63-3.6,1.34-7.25,2.21-10.95,.43-1.85,.91-3.72,1.44-5.6,.27-.94,.55-1.88,.84-2.83,.28-.99,.61-2.04,.86-3.1-1.39,2.81-1.04,1.58-.58-.24,.47-1.83,.84-4.34,.15-3.91,.27-1.97,.36-3.34,.41-4.26,.08-.92,.08-1.39,.12-1.56,.19-2.01,.1-4.05-.04-6.08-.23-2.03-.55-4.07-1.13-6.05-.29-1.45,.08-.56,.53,.66,.48,1.21,.85,2.8,.96,2.58-1.08-4.4-1.53-5.27-1.54-5.87-.07-.59,.07-.85-1.15-3.63,.1,.65-.41,.01-1.25-1.33-.43-.66-.98-1.48-1.59-2.41-.52-.75-1.06-1.55-1.62-2.37-.19-.18-.16-.55-.71-.46-.43,0-.86,0-1.3-.01-.6,0-1.22-.02-1.83-.03l1.7,.07,1.24,.04c.19,.02,.44-.01,.58,.04l.21,.33,1.56,2.49c.58,1.05,1.14,2.11,1.63,3.2-.39-.68-.83-1.25-1.19-1.82l-.54-.81c-.21-.29-.41-.58-.61-.85-.26-.38-.52-.74-.77-1.09-.12-.17-.24-.35-.36-.51l-.17-.25-.09-.12h-.23c-.99-.01-1.9-.02-2.77-.03-.18,0-.35,0-.52-.01-.14,.05-.25,.16-.37,.23-.24,.16-.47,.32-.7,.48-.21,.14-.49,.34-.64,.42l-.41,.21c-.53,.29-1.06,.46-1.57,.66-1.05,.33-2.11,.58-3.55,.79-1.44,.21-3.27,.38-6.01,.23,1.16,0,2.3-.06,3.38-.22-1.32,.1-3.27,.01-5.57-.39-.57-.1-1.17-.21-1.78-.34-.63-.12-1.4-.3-2.13-.4-1.48-.25-3.04-.38-4.62-.37-3.15-.01-6.33,.71-8.87,1.82-2.54,1.13-4.47,2.54-5.62,3.68-.52,.27-1.06,.53-1.26,.53-.17-.01-.04-.25,1.09-1.1-3.03,2.14-5.99,4.31-9.25,6.02-3.53,1.74-7.19,4.01-10.26,6.73-3.08,2.75-5.59,6.06-7.22,9.46-1.64,3.4-2.52,6.78-3.11,9.72-.04-.4-.1-.81-.12-1.21-.17,1.44-.24,2.71-.22,4.05,0,.33-.01,.67-.02,1.02l-.02,.53-.05,.46c-.09,.62-.13,1.31-.37,2.03-.08-.18-.07-.99-.35,.08-.05,.31-.15,.86-.27,1.56-.19,.68-.46,1.51-.77,2.4-.76,1.72-1.84,3.63-3.02,4.84,.55-.79,.97-1.65,1.39-2.48-1.84,2.65-3.88,4.75-5.93,6.5-2.08,1.72-4.12,3.19-6.24,4.4-2.14,1.16-4.3,2.24-6.69,2.92-.59,.21-1.2,.35-1.82,.48-.62,.12-1.25,.32-1.89,.36-.65,.07-1.31,.14-1.98,.22-.7,.02-1.42,.05-2.15,.07,0-.44-2.71-.74-6.21-1.08-3.49-.33-7.84-.51-10.81-.3l.2-.14c-3.36,.24-6.61,.86-9.57,1.95-.75,.24-1.46,.58-2.17,.89-.72,.3-1.37,.67-2.03,1.03l-.86,.48s-.09,.06-.14,.08c-.1,.05-.22,.06-.33,0h-.02s0,0-.09-.05l-.4-.23-.79-.45c-.55-.28-1.15-.51-1.72-.76-1.18-.45-2.46-.82-3.86-.91l-.51-.05-.54,.03-1.07,.09c-.7,.13-1.42,.32-2.07,.58-.63,.31-1.3,.59-1.82,1.01-.27,.2-.55,.39-.81,.59l-.7,.65c-1.83,1.77-3.03,3.74-4.24,5.63-1.2,1.91-2.35,3.74-3.79,5.49-1.65,1.61-4,3.68-6.69,6.39-1.34,1.36-2.75,2.9-4.08,4.7-.33,.45-.64,.93-.97,1.4-.3,.49-.6,.99-.91,1.5-.27,.53-.54,1.06-.82,1.59-.23,.53-.46,1.06-.69,1.6-.27,.61-.62,1.06-1.21,1.45-.58,.39-1.4,.71-2.34,.95-.95,.25-1.98,.4-3.14,.63l-1.77,.36c-.59,.16-1.18,.32-1.76,.47-2.33,.7-4.64,1.7-6.66,3.18-2.02,1.46-3.67,3.43-4.73,5.47,.71-1.22,.8-1.02,.56-.18-.26,.83-.77,2.33-1.07,3.82-.62,1.93-.71,4.67-.57,6.73,.07,1.04,.16,1.92,.14,2.53,0,.58-.07,.88-.28,.75-.03-.43-.07-.86-.09-1.32-.63,2.88,.53,10.18,.45,15.69l1.04,.93c-.3,2.45-.72,5.08-1.38,7.78l4.16-.37c-1.17-3.08-1.7-6.63-1.85-10.37-.09-1.87-.12-3.77-.16-5.68-.05-1.87-.09-3.9-.46-5.89-.35-1.97-1.08-4.01-2.42-5.68-1.34-1.69-3.3-2.67-4.98-3.1-1.71-.42-3.25-.5-4.56-.48-.17,0-.33,0-.49,0h-.4c-.26-.03-.51-.04-.75-.05-.48-.03-.92-.07-1.32-.12-3.38,.35-7.56-.44-10.85-1.39l.36-.47c-1.11-.37-2.11-.88-3.08-1.3-.94-.51-1.86-.91-2.71-1.44-1.73-.96-3.31-2.01-4.94-3.12-1.63-1.12-3.29-2.34-5.16-3.78-.94-.72-1.93-1.49-2.99-2.3-.53-.42-1.09-.84-1.66-1.29l-.43-.34-.35-.3c-.23-.21-.49-.39-.71-.63,.62,.4,1.14,.68,1.95,1.15-.6-.48-1.14-.91-1.64-1.31-.43-.41-.87-.74-1.23-1.13-.78-.72-1.42-1.45-2.07-2.2-1.26-1.53-2.35-3.31-3.26-6.38l.29-2.1c-.82-2.95-1.67-6.11-3.15-9.15-1.48-3-3.6-6-6.91-7.95-1.68-.92-3.61-1.46-5.56-1.55-1.93,.02-3.83,.4-5.49,1.13-3.37,1.41-5.86,3.82-7.93,6.27,.04-.23,.13-.68,1.66-2.23-2.47,2.17-5.93,6.58-9.1,9.25-.79,.67-1.59,1.28-2.18,1.65-.61,.39-1.02,.53-1.18,.59-.29,.16-.57,.14-.52,.51,.05-.22-.12-.26-.65-.94-.13-.17-.28-.36-.43-.62-.16-.23-.32-.53-.49-.85l-.33-.59c-.14-.24-.27-.5-.43-.74-.17-.24-.34-.49-.52-.74-.19-.24-.41-.48-.62-.72-.88-.94-2.02-1.75-3.27-2.27-1.25-.53-2.57-.77-3.82-.82-1.25-.05-2.43,.09-3.5,.3-.54,.11-1.05,.24-1.53,.38-.45,.13-.87,.26-1.28,.38l.87-.79c-5.26,2.03-5.39,2.26-12.94,4.33-1.82,.37-1.68-.04,.74-.5-6.07,1.19-4.55,1.66-11.89,3.17l2.63-1.01c-6.18,1.48-5.65,1.54-8.95,2.78-3.83,1.17-11.74,2.75-12.77,2.48-.77,.51-4.04,1.73-7.73,2.5-.29-.02-.07-.16,.28-.31,.34-.15,.83-.31,1.15-.42-1.25,.26-2.64,.55-3.87,1.05-1.23,.52-2.33,1.23-3.23,2.07-.9,.84-1.58,1.8-2.08,2.75-.5,.95-.86,1.89-1.12,2.8-.55,1.81-.8,3.52-1.16,5.13-.34,1.6-.82,3.19-1.55,4.8-.23,.07-.45,.48-.73,.98,.75-1.85,1.29-3.71,1.7-5.41,.4-1.67,.74-3.39,1.16-4.74,.81-2.76,1.95-4.28,1.74-3.95-.1-.07-.47,.3-.83,.84-.38,.53-.74,1.22-1.02,1.73-.27,.51-.48,.85-.55,.68-.05-.17-.04-.83,.46-2.4-.62,1.56-.99,3.34-1.28,5.16l-.4,2.68c-.15,.87-.31,1.77-.54,2.65-.83,3.54-2.44,7.04-4.58,9.05-.23,.18-.45,.33-.67,.41,.13-.14,.26-.29,.38-.45-.96,.9-1.85,1.6-2.76,2.16-1.6,.71-2.69,.85-4.37,.92-.33-.19-1.92-.25-3.83-.83-1.91-.52-4.06-1.59-5.4-2.41-.06,.65-3.58-1.73-.48,.8-.42-.32,.54,.32,2.46,1.22,.43,.21,.96,.4,1.26,.49l-.22-.04c1.9,.78,4.55,1.57,7.39,1.23-2.24,.56-5.04,.4-8.15-1.36-1.65-.34-3.45-1.01-4.44-1.45-.85-.8-1.89-1.75-2.94-2.81-1.06-1.06-2.37-2.28-3.91-3.09-1.54-.83-3.44-1.17-4.86-.95-1.44,.17-2.35,.57-2.76,.63-1.39,.79-2.57,1.82-3.63,2.83-1.02,.95-2.06,1.92-3.11,2.91-2.11,1.97-4.25,3.97-6.31,5.9-4.09,3.87-7.77,7.49-9.84,10.07-2.11,2.08-2.73,2.04-3.66,2.66,1.2-1.22,2.72-2.56,3.3-3.29-4.21,4.15-12.94,11.77-13.5,13.26-5.76,4.72,2.66-3.3-4.87,3.62l.88-1.09c-.98,.78-1.94,1.56-2.86,2.33-.98,.81-1.9,1.67-2.74,2.6-1.67,1.86-3.03,3.99-3.84,6.28-.41,1.14-.69,2.32-.86,3.49-.09,.59-.13,1.17-.16,1.75l-.1,1.47c-.2,1.92-.7,3.75-1.62,5.4-.96,1.61-2.33,3.04-4.09,4.11-1.74,1.1-3.75,1.86-5.97,2.47-4.49,1.28-9.25,2.81-14.63,4.34,1.49-.43,2.23-.65,2.57-.64-3.04,.98-6.05,2.02-9.11,3.06-.78,.27-1.58,.57-2.39,.98-.8,.42-1.64,.95-2.33,1.87-.68,.89-.95,2.07-.78,3.17,.05,.26,.09,.52,.16,.77l.24,.7,.36,1.04c.39,1.38,.48,2.81,.21,4.26-.25,1.45-.81,2.91-1.42,4.4-.6,1.49-1.28,3.08-1.72,4.7-.24,.8-.47,1.61-.65,2.43l-.28,1.23-.22,1.24c-.57,3.31-.73,6.68-.51,10.01,.23,3.33,.84,6.61,1.75,9.78,.91,3.17,2.13,6.24,3.57,9.16,1.42,2.83,2.62,5.67,3.34,8.59,.85,3.29,.97,5.13,1.12,6.65,.13,1.52,.25,2.76-.07,4.83-.3,.44-.63,.85-.98,1.24-.49,2.28-1.41,4.5-2.56,6.67-1.34,2.26-2.72,4.3-4.13,6.25-.68,.96-1.53,1.96-2.12,3.13-.6,1.16-1.11,2.56-.92,4.12,.14,1.57,1.04,2.98,2.06,4.04,.52,.54,1.09,1,1.69,1.43,.54,.42,1.04,.73,1.52,1.15,.96,.79,1.86,1.69,2.37,2.71,.29,.5,.4,1.04,.48,1.6,0,.56-.03,1.18-.29,1.82,.32-.37,.59-.78,.79-1.23-.12,.99-.74,2.25-1.76,3.39-.99,1.19-2.3,2.1-3.56,3.24-2.42,2.23-3.47,4.64-3.51,4.12-.17,.51-.41,1.65-1.18,3.45l-.35,.06c-.25,1.01-.43,2.03-.54,3.05-.12,1.01-.16,2.06-.23,2.98-.14,1.9-.49,3.78-1.09,5.59-.86,2.04-1.55,2.82-1.9,3.17-.36,.34-.46,.22-.63,.2-.17-.02-.4,.07-1.03,.77-.34,.33-.76,.83-1.42,1.47-.65,.64-1.51,1.45-2.75,2.36-.22,.18-.45,.37-.71,.55l-.39,.29-.2,.15-.16,.12-.18,.12c-.86,.68-2.38,1.02-1.88,2.48l.08,1.72,.08,1.13c.06,.75,.12,1.47,.18,2.14,.24,2.68,.49,4.5,.6,3.57,.02-2,.2-5.11,.51-5.26l.16,4.54c.47,.41,.94,1.49,1.37,1.07,.22-.21,.43-.79,.62-2.02,.1-.61,.19-1.39,.28-2.36l.13-1.6,.06-.92,.02-.24c0-.08,.01-.18,.02-.18l.03-.14-.07-.3s-.01-.05-.02-.08l.05-.05,.1-.1c.06-.07,.16-.15,.21-.21l.83-.65c1.08-.89,2.12-1.83,3.04-2.89,.38-.25,.74-.53,1.1-.82,.37-.28,.73-.58,1.07-.9-1.5,1.89-3.29,3.52-5.24,4.87,3.56-2,5.12-4.38,6.49-6.9,.56-.45,1.37-1.4,2.14-2.96,.89-2.73,1.19-5.52,1.17-8.22,.24-.47,.31,.45,.43,.82,.06,.19,.13,.23,.24-.11,.05-.17,.12-.44,.19-.84l.24-1.36c.05-1.63-.27-.91-.55-.42-.13,.25-.24,.43-.29,.2-.05-.23-.05-.87,.2-2.22,.64-1.62,1.06-2.07,1.4-2.64,.37-.55,.59-1.22,1.56-2.86,.52-.27,.09,.42-.54,1.73,.34-.75,.84-1.56,1.49-2.33,.33-.38,.68-.75,1.06-1.1,.39-.35,.74-.64,1.28-1.1,.99-.81,1.86-1.75,2.52-2.63,.65-.91,1.07-1.79,1.21-2.42,.14-.27,.32-.56,.45-.9,.11-.35,.25-.73,.33-1.14,.14-.84,.18-1.82-.07-2.75-.45-1.92-1.68-3.47-2.82-4.54-.58-.55-1.15-1.02-1.68-1.41-.52-.38-1.04-.76-1.27-.97-.58-.47-.75-.84-.56-.95-.41-.22-1.48-.94-1.75-1.97-.39-1.03,.37-2.99,1.32-4.29-.6,1.36-.4,1.39,.05,.77,.13-.16,.28-.35,.45-.59,.19-.27,.4-.58,.64-.91,.46-.68,1-1.48,1.55-2.3,1.11-1.67,2.3-3.4,3.22-4.7,.94-1.34,1.52-2.18,1.55-1.63,.4-1.3,1.13-3.02,1.67-5.19,.55-2.15,.94-4.71,.84-7.39-.08-2.67-.64-5.4-1.47-7.88-.83-2.49-1.93-4.74-3.03-6.65,.3,.4,.85,1.22,1.14,1.95-.5-1.15-.94-2.08-1.31-2.88-.37-.81-.61-1.4-.86-2.01-.45-1.19-.8-2.2-1.24-3.59-.47-.12-1.43-1.83-2.25-4.04-.84-2.2-1.51-4.9-1.96-6.81,.12-2.87,.43-2,.77-.71,.32,1.31,.86,3.03,1.08,2.12-.15,.09-.35-.45-.56-1.28-.16-.84-.38-1.98-.47-3.09-.24-2.2-.2-4.23-.53-3.3,.35-2.13,.58-3.02,.73-3.67,.17-.64,.36-1.02,.87-2.02-.41-.46-.22-1.44,.12-2.73,.2-.64,.42-1.36,.65-2.13,.23-.75,.5-1.58,.72-2.49,1.49-2.92,1.83-3.45,2.13-3.91,.14-.26,.28-.54,.45-1.3,.15-.75,.44-2.05,.16-4.29-.07-1.07-.07-1.38,.03-1.25,.11,.13,.28,.72,.43,1.47,.13,.75,.17,1.65,.14,2.36-.04,.69-.1,1.2-.1,1.2Zm121.38-80.52h0c-.95,1.28-1.98,2.22-2.65,2.8,.6-.54,1.48-1.27,2.64-2.8Zm5.59-13.74c-.39,1.68-.89,3.91-1.68,6.15-.37,.42-.33-.16,.11-1.57-.07,.4,.22-.21,.54-1.2,.35-.97,.72-2.38,1.03-3.38Zm-20.31,15.24c.96,.21,1.59,.31,2.01,.39,.42,.1,.64,.14,.77,.21-.89-.03-1.96-.15-3.37-.54h-.25c.22-.05,.46-.09,.84-.06Z"/><path class="cls-2" d="M146.68,136.88c-.28-.12-.44-.18-.81-.35,.37,.23,.73,.45,1.09,.67,.26,.05,.53,.09,.76,.13-.35-.14-.72-.29-1.04-.46Z"/><path class="cls-2" d="M262.1,452.72l.3-.07c-.25,.05-.49,.09-.64,.1,.21-.03,.21-.01,.34-.03Z"/><polygon class="cls-2" points="326.49 138.95 326.46 138.81 325.13 139 326.49 138.95"/><path class="cls-2" d="M200.79,412.75c-.05-.15-.19-.42-.53-.91,0,.06,.25,.44,.53,.91Z"/><path class="cls-2" d="M172.02,396.15c-1.65,.55-3.06,1.15-4.58,1.71,1.97-.71,3.31-1.28,4.58-1.71Z"/><path class="cls-2" d="M147.25,401.42c-.33,.1-.43,.17-.51,.24h.05l.46-.24Z"/><path class="cls-2" d="M490.45,363.3c.24-.2,.49-.36,.69-.57,1.52-1.49,.49-.46-.69,.57Z"/><path class="cls-2" d="M380.47,402.55c1.18-.62,2.39-1.13,3.66-1.69-2.11,.73-3.73,1.36-3.66,1.69Z"/><path class="cls-2" d="M544.1,275.63s0,0,0,.02c.13-.34,.24-.64,.41-.98-.16,.31-.28,.63-.41,.96Z"/><path class="cls-2" d="M389.69,399.11c-2.16,.49-3.94,1.12-5.55,1.75,1.75-.56,3.82-1.18,5.55-1.75Z"/><path class="cls-2" d="M41.58,378.66l-1.11-.57s-.08,.04-.17,.02l1.28,.55Z"/><path class="cls-2" d="M40.29,378.11l-1.28-.55c.57,.28,1.07,.52,1.28,.55Z"/><path class="cls-2" d="M36.34,376.37l2.67,1.19c-.9-.45-2.01-1.04-2.67-1.19Z"/><path class="cls-2" d="M73.99,387.45l.38-.21c-.21,.04-.34,.11-.38,.21Z"/><path class="cls-2" d="M84.89,387.81c-1.32-.41-3.03-.79-4.88-.88-.46-.03-.93-.04-1.4-.02-.45,.01-.9,.02-1.35,.04-.86,.02-1.72,.1-2.56,.14l-.31,.16c.4-.07,1.06-.09,1.88-.12,.85,0,1.85-.01,2.88-.02,2.19,.02,4.45,.5,5.76,.71Z"/><path class="cls-2" d="M122.95,403.9l-8.82-.16c1.54,.22,3.57,.51-.44,.56,11.11,.64-2.3-.48,9.26-.41Z"/><path class="cls-2" d="M150.29,404.2c-4.74,.1,.06,.32-.2,.44,3-.2,3.73-.25,.2-.44Z"/><path class="cls-2" d="M300.71,410.4l-.35,.61c3.61-.99-.02-.19,.35-.61Z"/><path class="cls-2" d="M330.76,417.67c-.91-.43-1.65-1.04-2.22-1.8-.41-.23-.86-.47-1.24-.82,.87,1.29,2.06,2.16,3.46,2.62Z"/><path class="cls-2" d="M352.89,418.32l-1.54,.59c.99-.34,1.97-.72,2.93-1.12,.97-.39,1.93-.79,2.87-1.22-1.39,.64-2.83,1.18-4.26,1.76Z"/><path class="cls-2" d="M570.83,247.92l-1.07,.68c-.53,1.14-.65,1.81-.47,1.84,.19,0,.65-.6,1.54-2.52Z"/><path class="cls-2" d="M513.81,154.1c.14-.34,.32-.81,.53-1.37,.11-.28,.22-.55,.34-.9l.37-1.12c.47-1.56,.71-3.35,.59-4.73-.07,1.79-.49,3.49-.94,4.91-.22,.67-.42,1.29-.6,1.84-.15,.52-.25,.98-.3,1.36Z"/><path class="cls-2" d="M336.69,164.71c.1-.9,.17-1.79,.19-2.7-.08,1.24-.27,2.46-.47,3.67l4.88-.44c-.16-.4-.35-.79-.5-1.2,.13,.42,.29,.82,.44,1.23l-4.76,.43,.21-.99Z"/></g></g></g></g></svg>