<?xml version="1.0" encoding="UTF-8"?><svg id="_イヤー_2" xmlns="http://www.w3.org/2000/svg" viewBox="0 0 480.43 492.93"><defs><style>.cls-1{fill:#fff;}.cls-2{fill:#97c9dd;}.cls-3{fill:#fafdff;}</style></defs><g id="_イヤー_1-2"><g><path class="cls-1" d="M474.74,301.45c-2.57-4.64-5.15-9.28-7.73-13.92-5.92-10.64-15.71-16.61-26.94-16.24-4.26,.12-8.92,1.32-13,3.94-1.03-5-3.04-9.34-5.17-12.97,1.32-2.53,2.21-5.18,2.64-7.87,2.02-1.92,3.81-4.2,5.35-6.8,5.08-8.62,5.05-17.86-.08-27.45-.08-.16-.17-.31-.25-.48-.26-.66-.53-1.31-.81-1.93,3.91-5.94,4.58-12.63,4.93-16.11,.03-.27,.05-.52,.06-.76,.92-4.84,.45-9.39-.54-13.33,1.88-3.08,3.05-6.19,3.81-8.97,10.24-5.67,15.74-13.25,16.34-22.52,.25-3.91-.39-7.62-1.91-11.12,1.84-2.36,3.57-5.04,5.2-8.04,2.99-5.51,5.35-10.95,7.64-16.22,.89-2.05,1.79-4.11,2.71-6.14,4.09-9,3.62-18.33-1.29-25.59-1.85-2.74-4.21-4.98-6.93-6.69,0-.3,0-.58-.01-.89-.33-6.85,2.37-13.84,6.54-22.21,2.19-4.42,3.86-8.83,5.32-12.93,3.37-9.41,.6-16.58-1.36-20.01-3.36-5.9-9.08-9.9-16.12-11.26l-9.22-1.79-1.35,1.06c-2.97-4.02-7.37-8.09-13.9-11.67l-4.61-2.52h-28.4l-1.95,13.5c-.3,.28-.57,.56-.86,.84-3.7,.31-7.37,1.43-10.73,3.41-.34,.14-.68,.26-1.03,.39-7.97,3.01-13.76,7.47-17.34,13.33-9.23-.54-18.03-1.12-26.62-2.34-8.3-1.18-33.53-4.76-53.08,17.22-.09,.02-.22,.04-.4,.05-34.89,2.88-49.16,19.13-47.73,54.35,0,.14,0,.28,.01,.4-.33-.12-.65-.25-.98-.37-7.61-2.9-13.62-5.2-17.18-9.21-2.74-3.09-5.55-5.26-7.81-7-.82-.63-1.6-1.23-2.08-1.66-7.05-6.24-15.62-9.11-24.16-8.07-7.42,.9-14.16,4.63-19.33,10.62-.7,0-1.4,0-2.11-.01-7.28-.05-15.87-.11-24.9,2.47-17.36-11.45-36.75-13.9-56.5-7.05-2.13,.74-2.87,.69-2.92,.67-7.97-2.46-16.19-2.12-25.13,1.04-10.37,3.67-17.07,9.85-19.92,18.36-1.88,5.63-2.7,14.47,3.9,24.86-.03,.36-.12,.96-.32,1.84-1.43,6.18-2.68,12.36-3.89,18.34-1.1,5.47-2.15,10.63-3.32,15.81-2.32,10.26-8.1,17.46-18.17,22.65l-11.13,5.74v37.24l10.73,5.83c.58,.31,1.1,.6,1.57,.86-.07,.41-.14,.85-.22,1.33-1.66,9.53-.1,18.33,4.62,26.18-10.2,11.32-12.45,25.28-6.66,41.54,3.8,10.66,10.87,30.51,33.16,39.68,2.55,1.05,5.04,1.82,7.47,2.4-3.56,4.56-6.13,11.09-6.21,20.45v2.1c-.03,5.51-.17,7.63-.91,8.52-9.94,11.92-9,30.48,2.12,42.24,10.93,11.55,28.05,12.8,41.64,3.03,3.39-2.44,7.33-3.34,17.97-1.05,5.86,6.05,13.55,9.05,21.6,8.6,8.11,6.1,8.83,11.01,8.83,15.17-.02,15.88,8.12,28.41,22.92,35.29,4.29,1.99,8.65,4.46,13.27,7.09,2.22,1.26,4.43,2.52,6.67,3.74l4.61,2.52h13.96l5.26-4c1.16-.17,3.93-.06,6,.03,1.14,.05,2.3,.09,3.48,.13,17.96,.46,35.67-2.2,52.65-7.95,1.28-.43,2.54-.92,3.81-1.41,.84-.32,1.97-.76,2.44-.9,27.26-4.66,41.89-22.18,40.65-48.49,1.36-1.21,2.57-2.39,3.65-3.44,.61-.59,1.4-1.36,2.09-1.99,8.93,1.46,15.59-2.98,18.49-5.04,10.35-3.84,18.59-9.69,25.9-14.88,3.72-2.65,7.24-5.15,10.73-7.14,13.97-7.98,27.16-15.52,41.01-16.11,11.91-.5,20.77-6.6,26.4-18.16,4.75,.1,9.42-1.04,13.58-3.4,7.25-4.12,12.24-11.42,13.83-20.26,.32-.18,.76-.41,1.35-.68l11.99-5.49v-22.08l-5.69-10.24Z"/><g><g><path class="cls-3" d="M190.21,472.39h-1.79c-7.03-3.85-13.89-8.07-21.15-11.44-7.32-3.4-11.04-8.54-11.03-16.62,.02-15.15-7.97-25.63-19.97-33.71-2.49-1.68-4.99-3.55-8.2-2.47-4.04,1.35-6.89-.06-9.21-3.33-1.86-2.62-4.73-3.34-7.7-4.02-12.44-2.84-24.56-4-35.83,4.1-4.76,3.42-10.51,3.99-14.74-.48-3.99-4.22-4.53-11.05-1.26-14.97,6.1-7.32,5.6-15.31,5.67-23.58,.04-4,.3-8.18,4.58-9.84,9.09-3.53,12.33-11.4,15.59-19.5,4.05-10.07,3.99-9.98-6.86-10.44-9.1-.39-18.24,1.47-27.3-2.26-12.72-5.23-17.39-15.7-21.62-27.58-3.03-8.5-3.23-15.1,3.44-21.82,6.73-6.77,7.13-14.76,1.87-22.78-2.61-3.97-3.2-8-2.38-12.71,2.57-14.78,1.58-16.49-11.77-23.75v-12.5c15.09-7.78,25.02-19.71,28.8-36.37,2.56-11.31,4.57-22.75,7.19-34.05,1.41-6.1,1.39-11.81-2.13-17.14-4.66-7.06-1.69-10.71,5.32-13.19,4.1-1.45,8.08-2.06,12.2-.78,5.38,1.66,10.47,.92,15.7-.89,15.87-5.5,30.22-2.23,43.09,8.18,2.06,1.67,4.12,2.72,6.47,1.51,9.48-4.86,19.68-3.87,29.75-3.97,4.94-.05,8.73-1.06,12.01-5.8,3.69-5.34,9.46-7.1,15.33-1.9,2.67,2.36,5.81,4.29,8.15,6.93,8.77,9.87,21.18,12.84,32.6,17.68,2.96,1.25,5.72,.4,8.52-1.05,8.92-4.65,13.35-10.84,12.9-21.92-1-24.51,5.33-31.1,28.9-33.05,5.8-.48,10.5-2.84,14.05-6.86,9.56-10.8,21.4-12.45,34.85-10.55,10.87,1.54,21.9,2.14,32.88,2.77,5.02,.29,12.59-.11,12.87-5.12,.52-9.17,7.68-8.66,12.45-11.61,2.87-1.78,5.5-.25,5.88,3.04,.87,7.6,2.8,15.22,.23,22.88-2.76,8.22-.02,15.38,7.48,19.49,6.25,3.43,12.88,6.29,18.76,10.26,6,4.06,11.62,8.08,19.4,7.72,5.09-.23,6.03,2.85,4.09,7.11-3.2,7.04-6.03,14.28-9.71,21.06-5.6,10.33-10.19,12.2-21.38,10.11-.71-.13-1.56,.46-3.78,1.19,5.47,3.68,10.15,6.62,14.59,9.88,6.78,4.98,6.45,8.23-.99,12.34-3.57,1.97-8.44,2.89-9.01,7.79-.71,6.03-1.82,10.51-8.56,13.44-1.78,.77,5.85,9.54,3.92,15.98-.17,.56-.07,1.18-.13,1.78-.88,8.76-2.4,9.74-10.72,6.33-14.59-5.99-29.13-12.1-43.65-18.24-5.1-2.16-10.06-3-16.32,.81,15.78,7.58,30.74,14.6,45.54,21.96,8.41,4.18,18.24,6.01,22.39,16.88,1.36,3.56,4.11,5.75,1.7,9.86-2.59,4.41-5.95,5.11-10.58,3.66-4.65-1.46-9.03-4.27-14.8-3.94,1.76,6.53,6.42,8.33,11.42,9.29,7.41,1.42,7.57,5.61,2.95,9.62-4.69,4.06-3.76,7.1-.8,11.22,4.51,6.27,8.99,12.38,5.7,21.18-1.07,2.85,.48,7.14,1.84,10.34,2.84,6.67,9.1,9.98,15.6,10.17,5.58,.17,10.75-3.28,12.6-9.53,.86-2.89-.43-7.21,4.53-7.34,4-.11,6.57,2.38,8.41,5.7,3.61,6.5,7.22,13,10.83,19.5v3.57c-6.79,3.11-11.76,7.33-12.98,15.52-.67,4.47-4.1,8.6-9.65,6.32-8.66-3.55-12.06,1.12-14.41,8.13-1.77,5.27-3.96,10.4-10.44,10.67-18.88,.8-34.89,9.97-50.43,18.85-11.71,6.69-21.62,16.57-34.85,21.02-2.47,.83-5.07,3.99-6.91,3.49-12.58-3.39-17.66,7.43-25.51,12.85-3.74,2.58-4.51,6.6-4.03,11.11,1.88,17.74-5.56,27.03-23.5,30.06-3.17,.54-6.17,2.03-9.25,3.07-14.77,4.99-30.32,7.27-45.54,6.87-8.21-.22-15.39-1.33-22.2,3.83Z"/><path class="cls-3" d="M418.81,20.54c11.88,6.5,12.25,14.7,1.06,22.53-4.29,3.01-6.82,7.27-8.73,12.07-.87,2.2-2.65,4.38-5.37,3.85-2.4-.47-2.46-3.08-2.83-5.07-1.95-10.58-2.7-20.82,7.95-27.87,1.81-1.2,2.26-3.42,2.56-5.51h5.36Z"/><path class="cls-3" d="M449.22,35.08c2.97,.58,2.64,2.54,2.06,4.18-1.3,3.63-2.67,7.27-4.38,10.72-5.07,10.21-9.22,20.57-8.66,32.34,.16,3.42,.18,7.74-3.6,9.45-3.95,1.78-5.65-2.35-7.76-4.55-4.64-4.84-10.98-5.67-16.82-7.7-3.22-1.12-6.25-2.53-6.49-6.45-.26-4.3,3.48-3.92,6.12-4.99,3.01-1.22,5.78-3,8.74-4.37,2.42-1.12,4.87-1.76,4.55,2.41-.14,1.85-2.29,4.46,1.17,4.96,2.51,.37,4.3-1.89,5.57-3.91,1.22-1.95,3.12-4.87,.17-6.18-6.54-2.88-5.58-7.48-4.01-12.63,1.74-5.7,5.48-6.71,11.03-5.87,4.01,.61,7.19-2.24,9.76-5.36,.72-.88,1.8-1.46,2.55-2.06Z"/></g><g><g><path class="cls-2" d="M189.4,471.33c-.67,.76-.09,.65,2.31-.95,.46-.55,.99-1.04,1.53-1.55-1.39,.68-2.65,1.56-3.84,2.5Z"/><path class="cls-2" d="M207.85,468.28c3.26-.16,6.97-.67,4.9-1.32-3.18,.56-3.97,.2-7.46,.88-2.77,.02-4.87-.03-4.42-.33-.49,.13-1.59,.2-2.75,.42-.58,.11-1.17,.27-1.7,.43-.52,.2-.99,.4-1.32,.62,3.65-.83,8.19-.94,12.96-1.14,1.01,.19,.02,.32-.22,.43Z"/><path class="cls-2" d="M424.8,348.05c-.26,.49-.47,1.02-.71,1.52,.22-.41,.43-.95,.71-1.52Z"/><path class="cls-2" d="M402.36,267.55c.76,1.03,1.11,1.44,1.2,1.46-.71-.97-1.32-1.73-1.2-1.46Z"/><path class="cls-2" d="M399.03,244.28c.66,.16,1.21,.31,1.81,.53-.68-.3-1.38-.48-1.81-.53Z"/><path class="cls-2" d="M424.8,348.05c.64-1.27,1.38-2.48,2.3-3.43,0-.18-.35,.18-.85,.83-.46,.68-1.03,1.64-1.45,2.6Z"/><path class="cls-2" d="M244.32,463.73c-.89,.25-1.63,.45-2.3,.67,.73-.18,1.45-.36,2.18-.54,.03-.04,.06-.08,.12-.13Z"/><path class="cls-2" d="M362.81,381.29l-1.15,.68c-.3,.26-.57,.53-.81,.79l1.95-1.47Z"/><path class="cls-2" d="M313.07,405.8c1.1-.23,1.45-.75,1.91-1.02-.33,.14-.72,.22-1.13,.35-.41,.14-.87,.27-1.37,.39,0,.11,.19,.2,.6,.29Z"/><path class="cls-2" d="M257.05,462.58l-1.49,.57c.39-.15,1.04-.4,1.49-.57Z"/><path class="cls-2" d="M399.05,364.83c.11,.05,.32,.08,.54,.08-.02-.07-.23-.09-.54-.08Z"/><path class="cls-2" d="M154.24,425.54c-.06-.02-.05,.05-.09,.05,.22,.28,.3,.36,.09-.05Z"/><path class="cls-2" d="M190.21,472.53l-.91,.03c-.09,.11-.21,.21-.22,.31,.41-.11,.75-.23,1.12-.35Z"/><path class="cls-2" d="M413.95,228.23l.09,.2c.72,1.22,.32,.5-.09-.2Z"/><path class="cls-2" d="M330.28,46.69c2.76,.51,.48,.43-1.44,.48-1.93,.07-3.46,.16,.67,.66-.38-.14,1.52-.2,2.67-.31,1.14-.06,1.56-.35-1.9-.83Z"/><path class="cls-2" d="M245.74,463.48c.73-.18,1.47-.37,2.21-.55-1.01,.24-1.69,.42-2.21,.55Z"/><path class="cls-2" d="M329.51,47.83h0l.85,.13c-.35-.06-.55-.09-.85-.13Z"/><path class="cls-2" d="M377.23,197.93c-.19-.19-.6-.44-1.03-.7,.02,.07,.24,.24,1.03,.7Z"/><path class="cls-2" d="M389.53,209.34l-1.94-1.01c.77,.43,1.4,.75,1.94,1.01Z"/><path class="cls-2" d="M415.23,196.68c.15-1.41,.22-1.93-.16-3.74,0,.17,.02,.34,.03,.56,.17,.64,.37,1.55,.13,3.18Z"/><path class="cls-2" d="M430.65,160.21c-.25,.14-.57,.31-.86,.45-.42,.3-.92,.61-1.36,.87,.75-.39,1.48-.83,2.21-1.32Z"/><path class="cls-2" d="M67.37,365.09c-.18,1.01-.35,1.68-.53,2.19,.41-.73,.5,6.32,.53-2.19Z"/><path class="cls-2" d="M244.41,464.03c.24-.2,.62-.36,1.33-.55-.53,.13-1.04,.26-1.54,.38-.12,.11-.13,.2,.21,.17Z"/><path class="cls-2" d="M410.82,194.8c-.15-1.94-1-4.15-2.02-6.35,.83,1.86,1.83,4.28,2.02,6.35Z"/><path class="cls-2" d="M64.54,103.01c-.51,.11-1.02,.24-1.54,.4,.6-.14,1.14-.26,1.54-.4Z"/><path class="cls-2" d="M415.18,168.21c.12-.44,.24-.88,.37-1.33,.19-.47,.34-.95,.6-1.41,.45-.94,1.14-1.77,1.86-2.48,.28-.32,.59-.69,.78-.9-.9,.68-1.78,1.58-2.43,2.68-.66,1.08-.99,2.4-1.17,3.44Z"/><path class="cls-2" d="M66.84,367.29s0-.02,0-.02c0,0,0,0,0,.02Z"/><path class="cls-2" d="M69.64,404.16c-1.31,.32-2.06,.29-2.53,.35-.46,0-.66,.09-.73,.19-.15,.2,.23,.6-.4,.66-1.66-.36-2.55-1.08-3.03-1.54-.49-.47-.6-.75-.62-.89,0-.3,.4-.27-.17-1.24-2.62-3.13-3.38-7.31-1.81-10.01,.22-.15,.56-.59,.34,.06,.08-.26,.25-.47,.39-.73,.19-.3,.5-.73,.76-1.1,.29-.38,.55-.81,.82-1.25,.27-.44,.56-.88,.81-1.37,1.06-1.9,1.96-4.13,2.52-6.44,1.14-4.65,1.01-9.36,.68-12.7,.07-.5,.13-.75,.19-.88-.37,1.09-.75,1.25-1.02,1.03,0-1.64-.12-3.16-.11-4.39,0-1.23,.17-2.21,.55-2.7-.22,.9-.21,1.44-.19,1.83,.03,.4,.1,.66,.15,1.12-.02-1.1,.02-2.18,.22-3.2,.37-.62,.49-.64,.47-.38-.01,.26-.17,.82-.25,1.52-.2,1.38-.18,3.28,.07,3.29-.03-1.62-.03-3.26,.35-4.67,.36-1.42,1.14-2.54,2.38-3.24l.48-.24,.58-.28c.4-.19,.8-.38,1.19-.57,.75-.45,1.51-.82,2.18-1.31,1.39-.88,2.54-1.9,3.55-2.79,.67-.16-1.59,2.17-3.71,3.45-1.05,.63-1.96,1.13-2.18,1.27-.22,.15,.28,.07,2-.7-.65,.31-1.28,.68-1.96,.93l-1.81,.72c-.92,.39-1.61,.99-2.12,1.85,.78-.85,1.14-.82,1.14-.77,0,.08-.28,.34-.5,.69-.24,.33-.41,.77-.38,.9,.03,.15,.24-.16,.91-.68,.43-.57,.93-.9,1.56-1.18,.49-.21,.96-.42,1.4-.61,.5-.2,.95-.44,1.39-.69,1.75-.93,3.08-1.97,4.3-3.07,2.39-2.25,4.51-4.87,7.03-9.75,.73-2.37-.84,.48-.14-1.88,1.41-3.54,2.31-5.92,3.17-7.71,.44-.91,.8-1.68,1.13-2.36l.48-1.02c.14-.29,.32-.74,.46-1.2,.31-.97,.47-1.98,.26-2.98-.18-1.01-.83-1.98-1.9-2.66-.99-.67-2.93-1.03-3.82-1.08-1.09-.1-2.28-.1-3.66-.05-2.82,.34-4.1,1.06-11.82,.85l2.62-.84c-5.06,.11-6.4,.36-7.88,.54-.73,.09-1.48,.16-2.67,.09-1.19-.06-2.84-.25-5.24-.95,.89,.09,2.74,.36,4.21,.49,1.48,.11,2.57,.15,1.84,.06-3.24-.54-4.3-.74-5.28-.73-.95-.05-1.8,.1-4.12-.78-.24-.32-.47-.66-.69-1.02-4.65-1.88-8.96-5.01-12.29-9.37-3.36-4.34-5.75-9.71-7.82-15.24,.41,.55,1.3,2.37,.56-.29-1.36-3.42-2.46-6.96-2.37-10.42,.07-3.44,1.64-6.61,4.14-9.24l2.1-2.21,1.05-1.28c.34-.44,.64-.91,.96-1.36,1.22-1.86,2.15-3.97,2.64-6.18,.5-2.21,.53-4.51,.18-6.66-.34-2.16-1.02-4.17-1.87-6.02l-.85-1.29-.92-1.22-.23-.3-.19-.24c-.12-.16-.26-.31-.38-.48-.24-.32-.48-.65-.69-.99-.48-1.02-.5-1.99,0-.93-.38-1.12-.48-1.7-.58-1.97-.08-.27-.13-.21-.18-.07-.09,.27-.17,.89-.53-.24-.28-1.38-.18-2.34-.07-2.69,.12-.36,.23-.12,.36,.74-.12-1.06-.13-2.28,.02-3.62,.15-1.39,.4-3.04,.56-4.7,.19-1.68,.33-3.47,.33-5.37,0-1.88-.27-4.02-1.21-6-.94-2-2.49-3.51-3.98-4.68-1.51-1.21-3.05-2.13-4.52-3.03-.74-.43-1.46-.86-2.17-1.28l-.46-.27-.22-.14-.41-.26c.06-1.13,.12-2.19,.17-3.15l.17,2.05c.06-2.05,.01-3.65-.08-5.02-.05-.68-.1-1.31-.17-1.91-.03-.3-.07-.59-.1-.87-.03-.26-.07-.64-.1-.7-.06-.25-.14-.55-.17-.86,.2-.17,.45-.36,.75-.55,1.09-.63,2.43-1.44,4.14-2.35-.39,.31-.81,.58-1.21,.88,3.91-2.34,7.71-5.18,11-8.54,3.31-3.35,6.15-7.15,8.4-11.13,2.26-3.97,3.9-8.11,5.1-12.08,.28-1,.55-1.98,.82-2.95,.24-.95,.49-1.88,.72-2.79,.47-1.82,.93-3.56,1.39-5.2-.28-2.71,3.86-17.17,2.97-18.51,.66-2.45,1.16-4.09,1.56-5.41,.41-1.32,.73-2.27,1.07-3.47,.32-1.19,.65-2.53,.87-4.6,.16-2.04,.37-4.94-.93-8.89-.37-1.04-.8-1.9-1.29-2.65-.23-.38-.49-.73-.76-1.07l-.4-.5-.33-.39c-.88-1.03-1.85-2.29-2.09-4.02,.2-.04,.4-.07,.61-.1-.13-.65-.09-1.21,.17-1.84,.27-.63,.79-1.29,1.47-1.89,.95-.33,1.94-.57,2.98-.73,1.21-.55,2.52-1.07,3.8-1.44-1.56,.34-3.39,.81-3.22,.55,1.49-.65,3.24-1.18,4.96-1.42,1.72-.25,3.41-.16,4.83,.18,.36,.08,.7,.19,1.02,.28,.34,.12,.67,.24,.98,.35,.74,.28,1.41,.48,1.98,.66,1.14,.33,1.87,.49,1.91,.59,3.08,.26,6.13-.14,8.96-.9,1.41-.37,2.8-.85,4.11-1.34,1.24-.41,2.45-.91,3.72-1.23-.13,.18-.84,.38-1.73,.76-.91,.37-1.92,.73-3.04,1.19,1.11-.46,1.8-.71,2.4-.93,.59-.21,1.01-.35,1.33-.44,.64-.14,.82-.09,.98-.05,.16,.05,.3,.1,.85,0,.27-.05,.65-.15,1.18-.29,.54-.12,1.23-.29,2.15-.53-1.02,.05,.48-.48,.64-.6,1.9-.06,4.98-.26,8.35,.03,3.37,.26,7,1.05,10.01,2.07-.42-.02-.85-.01-1.28,.01,2.67,.91,5.34,2.11,7.96,3.58,.64,.39,1.29,.78,1.94,1.17,.65,.39,1.27,.85,1.91,1.27,.65,.42,1.26,.89,1.88,1.36,.67,.51,1.34,1.01,2.02,1.52,.8,.56,1.7,1.14,2.87,1.55,1.14,.42,2.62,.58,3.96,.26,.67-.14,1.28-.41,1.83-.67l1.03-.5c.68-.36,1.41-.6,2.11-.91,2.89-1.07,6-1.73,9.24-2.03-2.32,.13-3.22,.09-3.1-.15,.12-.24,1.3-.65,3.23-.87,.54,.17,1.06,.33,1.59,.52,2.47-.57-4.07,.02,1.05-.8,2.49-.07,3.35,.13,3.2,.33-.14,.2-1.26,.44-2.67,.6,1.99-.17,4.02-.25,6.07-.32,.36,.2-1.08,.29-1.45,.54,1.25-.21,3.89-.02,6.74,.11,1.39,.06,2.98,.12,4.49-.07,1.51-.17,2.95-.59,3.95-1.15l.48,.02c2-.79,3.7-2.03,4.94-3.34,.63-.65,1.19-1.32,1.66-1.98,.21-.28,.41-.56,.61-.84,.17-.22,.32-.46,.5-.65,1.36-1.68,2.88-2.55,4.33-2.81,.73-.14,1.47-.08,2.24,.12,.39,.07,.77,.26,1.17,.4,.39,.22,.79,.38,1.18,.66,.4,.24,.79,.54,1.18,.86l.31,.25,.38,.32c.25,.21,.51,.42,.77,.63,1.04,.83,2.1,1.63,3.17,2.46,.25-.15,1.21,.43,2.33,1.29,.56,.43,1.15,.94,1.71,1.47,.68,.62,1.38,1.26,2.07,1.8,3.01,3.03,6.66,5.79,10.76,8.03,4.08,2.29,8.56,4.1,13.15,5.83,6.51,2.21,2.04,.28,5.04,1.09,.07,.16,.69,.51,1.49,.92,.43,.21,.77,.4,1.41,.67,.59,.24,1.22,.43,1.81,.54,1.19,.23,2.17,.17,2.44,.2,.14,.01,.1,.05-.17,.11-.27,.05-.79,.15-1.64,.13,1.97,.14,3.65-.31,5-.82,1.36-.52,2.47-1.12,3.46-1.69,2.02-1.15,3.8-2.36,5.5-3.88,1.69-1.52,3.33-3.39,4.68-5.96,1.37-2.55,2.29-5.84,2.47-9.81-.17,.85-.35,1.75-.5,2.31-.17,.56-.28,.77-.28,.27,.12-.71,.16-1.46,.28-2.19,.07-.73,.13-1.43,.21-2.03,.09-1.2,.21-2.01,.34-1.81l.06,.75c-.06-1.05-.13-2.13-.19-3.22-.04-1.06-.08-2.15-.07-3.23,0-2.18,.12-4.4,.43-6.6,.59-4.37,2.02-8.69,4.8-11.53,2.75-2.85,6.67-4.27,10.48-5.18,3.83-.91,7.57-1.39,10.79-1.96l-.72,.12,1.69-.22c.62-.08,1.25-.17,1.87-.3,1.24-.24,2.47-.57,3.66-1,2.39-.87,4.63-2.15,6.57-3.76,1.37-1.06,1.8-1.5,1.85-1.47,.05,.03-.34,.46-.78,.93-.45,.46-.95,.96-1.09,1.14-.13,.18,.15,.11,1.23-.68,.76-.73,1.46-1.46,2.09-2.22,.56-.64,1.1-1.26,1.63-1.87,.53-.59,1.11-1.1,1.64-1.63,.54-.52,1.14-.95,1.69-1.42,2.29-1.76,4.66-2.99,7.09-3.86,4.87-1.72,9.83-2.14,15.74-2.04,1.13,.28,2.48,.52,4,.83,1.49,.28,3.33,.62,5.22,.89,3.82,.54,8.17,.92,12.61,1.21,4.43,.25,8.97,.51,13.2,.74,1.05,.07,2.09,.13,3.1,.2,1.06,.07,2.11,.12,3.14,.13,2.06,.02,4.04-.1,5.96-.47l-.94-.15c1.85-.59,3.04-1.04,4.17-1.61,.56-.34,1.11-.61,1.65-1.15,.28-.24,.56-.52,.81-.9,.26-.36,.53-.76,.7-1.26-.19,.23-.97,1.6-1.73,2.16-.35,.33-.63,.5-.68,.49-.05-.02,.15-.17,.65-.79,.89-.97,1.57-2.39,1.65-3.7l.08-.74,.05-.56c.02-.38,.09-.73,.17-1.07,.3-1.4,.88-2.51,1.81-3.38,.97-.86,2.36-1.52,3.97-2.13,1.61-.62,3.48-1.25,5.3-2.34,1.08-.58,1.48-.43,1.84,0,.2,.28,.39,.76,.45,1.34l.32,2.74c.46,3.63,.97,7.16,.99,10.57,.01,1.7-.1,3.37-.38,4.99-.14,.81-.33,1.6-.55,2.38l-.83,2.63c-.55,1.98-.86,4.09-.8,6.24,.06,2.15,.53,4.34,1.42,6.36,1.76,4.09,5.2,7.16,8.72,9.09,3.24,1.83,6.49,3.47,9.61,5.14,4.55,2.44,5.94,2.81,7.65,3.44,.84,.31,1.73,.72,3.11,1.59,1.39,.83,3.16,2.17,6.16,4.03-1.29-.43-2.53-.92-3.76-1.43,2.39,1.39,4.96,2.74,7.79,3.69,1.42,.47,2.9,.81,4.4,1.03,1.5,.22,3.05,.24,4.52,.19,1.04-.08,2.04,.17,2.08,.3,.22,.24,.33,.29,.18,1.31-.15,.9-.64,1.9-1.23,3.22l-1.65,3.73c-2.17,4.96-4.28,9.86-6.66,14.49-1.2,2.31-2.42,4.54-3.85,6.42-.7,.96-1.48,1.77-2.29,2.49-.84,.66-1.7,1.26-2.68,1.62,.43-.27,.65-.39,.9-.63,.25-.23,.6-.41,1.24-.89-.31,.16-.66,.38-1.07,.53-.39,.21-.85,.35-1.32,.52-.98,.28-2.12,.51-3.38,.56-1.25,.05-2.57,.02-3.76-.08-.6-.06-1.15-.07-1.66-.13l-.71-.07c-.24-.02-.35-.02-.79-.08-.75-.1-1.31,.04-1.68,.17-.36,.13-.54,.24-.54,.28-.45,.16-.8,.29-1.08,.38-.23,.08-.39,.12-.5,.14-.23,.05-.3,.02-.33-.03-.06-.1,0-.24-.88-.04l-.15,.04-5.38,1.44,4.69,3.55c3.55,2.69,9.47,5.51,11.06,7.2,.28,.29-1.09-.56-1.78-.98,1.22,.69,4.02,2.59,5.97,4.07,1.98,1.47,2.73,2.57,2.31,1.58,.5,.6,.84,1.19,.95,1.57,.09,.38,.08,.46-.1,.87-.46,.82-1.75,1.92-3.1,2.76-.7,.43-1.39,.86-2.07,1.19-.7,.36-1.46,.69-2.25,1.06-1.56,.72-3.29,1.53-4.83,2.97-.43,.54-.89,1.22-1.29,2.02-.37,.81-.71,1.74-.83,2.68-.09,.53-.11,.8-.16,1.19-.04,.37-.1,.72-.16,1.08-.11,.72-.26,1.41-.42,2.07-.32,1.31-.76,2.4-1.14,3.21-.4,.8-.72,1.38-.74,1.72-.09-.2-.42,.05-1.04,.47-.29,.22-.69,.47-1.13,.75l-.36,.21-.18,.11c-.06,.04-.11,.07-.26,.14-.5,.25-1.01,.51-1.55,.77-.33,.26-.67,.54-1.02,.81l-.52,.42c-.15,.14-.25,.34-.33,.58-.3,.89-.18,1.83,.18,2.86,.33,.96,.98,2.21,1.17,2.59,.28,.55,.56,1.1,.84,1.64,1.09,2.11,1.87,4,2.24,5.2-.29-.66-.12,.27-.11,1.09,.01,.83-.15,1.5-.31,.83,0,.59-.04,1.05-.18,1.55-.07,.26-.13,.52-.16,.79-.03,.26-.05,.54-.05,.72,0,.25,0,.5,0,.75l-.11,1.36c-.09,.92-.17,1.7-.24,2.3-.15,1.18-.22,1.62,.07,1.42-.12,.21-.22,.44-.32,.53-.1,.15-.18,.21-.25,.25-.15,.1-.32,.15-.48,.14-.05,0-.24-.01-.37-.02-.14-.01-.42-.08-.62-.1-.48-.11-.99-.23-1.53-.4-2.14-.65-4.49-1.63-6.67-2.42-4.35-1.62-8.17-3.07-10.6-4.83-7.8-3.03-15.3-5.94-22.61-8.78-1.82-.72-3.64-1.43-5.44-2.14-1.75-.69-3.69-1.5-5.72-1.98-2.13-.45-3.87-.76-7.04-.25-.71,.09-1.33,.32-1.98,.48-.59,.23-1.24,.41-1.78,.68-1.14,.49-2.13,1.06-3.2,1.64-.09-.08,.14-.3,.62-.64,.48-.32,1.19-.78,2.16-1.23,.95-.47,2.21-.92,3.67-1.25,.75-.13,1.53-.28,2.36-.3,.4-.03,.88-.06,1.14-.04,.29,.01,.58,.01,.86,.03,2.3,.16,4.41,.79,5.86,1.27,1.48,.48,2.32,.73,2.26,.44-1.68-.67-3.5-1.31-5.3-1.65-.9-.19-1.82-.29-2.72-.34-.22-.02-.45-.01-.68-.02h-.74c-.66,.07-1.32,.09-1.94,.19-2.51,.39-4.49,1.26-6.13,2.17-.81,.46-1.62,.93-2.43,1.41l-1.24,.75-.31,.19-.15,.09s.08,.06,.12,.09l.57,.36c.76,.47,1.52,.94,2.28,1.41l1.13,.69c.1,.06,.17,.11,.3,.17l.39,.18,.78,.36c1.84,.85,3.72,1.72,5.65,2.61,2.71,1.25,5.57,2.62,8.73,4.21,3.25,1.7-2.05-.55-3.23-.95,6.5,2.93,12.7,5.94,18.73,8.85,3.02,1.44,6,2.87,8.93,4.27,1.48,.69,2.96,1.37,4.42,2.04,1.52,.71,3.03,1.29,4.52,1.87-.07,.06-1.37-.38-2.61-.87,2.37,1.01,5.31,2.42,5.21,1.95l-2.27-.85c-1.73-1.05,.71-.38,3.56,.58,1.43,.48,2.94,1.09,4.11,1.63,1.16,.54,2.01,.96,2.13,.97-2.09-.61,.58,.97,2.39,2.91,.46,.48,.89,.95,1.19,1.41,.31,.45,.58,.8,.65,1.06,.09,.26,.06,.37-.14,.3-.19-.08-.57-.34-1.2-.78,1.04,1.02,2.13,2.54,2.2,2.11,.25,.5,.46,.92,.6,1.23,.13,.32,.17,.56,.17,.65-.03,.21-.23-.15-.93-1.02,.55,.83,.83,1.64,1.17,2.27,.35,.76,.7,1.47,1,1.94,.6,1,.98,1.52,1.29,2.03,.31,.5,.59,.97,.73,1.64,.13,.66,.16,1.54-.77,3.04-.1-.14,.46-1.36,.29-1.91-.05,.65-.31,1.39-.78,2.25-.45,.8-.99,1.57-1.73,2.14-.73,.58-1.65,.95-2.83,1-1.18,.04-2.55-.23-4.07-.8,.4-.01-.23-.32,1.55,.17-2.61-.65-5.16-1.83-7.8-2.66-1.81-.6-3.71-1.02-5.31-1.13-1.61-.1-3.08-.07-4.7,.02l-.09,.14c-.05,.03,.04,.18,.06,.26l.2,.58c.13,.39,.26,.77,.41,1.13,.28,.74,.58,1.44,.93,2.14,.71,1.39,1.7,2.74,3.07,3.87,.35,.27,.69,.57,1.08,.79l.57,.36c.18,.1,.34,.18,.51,.27,.67,.36,1.39,.65,2.11,.92,.73,.26,1.48,.49,2.25,.68,.75,.2,1.59,.36,2.28,.56-1.89,.03-.79,.32,.62,.73,.69,.24,1.49,.54,1.95,.92,.5,.36,.68,.72,.58,.9,.37,.36,.49,.65,.36,1.27-.13,.63-.63,1.45-1.27,2.18,.64-.49,1.18-1.04,1.56-1.61-.45,1.03-1.34,2.04-2.31,2.95-1.13,1.05-2.19,2.25-2.88,3.78-.74,1.5-.75,3.43-.23,4.87,.48,1.49,1.24,2.69,1.96,3.84-.96-1.23-1.96-2.58-2.48-4.41,.58,2.32,1.87,3.98,2.99,5.53,1.13,1.53,2.23,3.04,3.2,4.59-1-1.82-2.17-3.59-3.36-5.41,1.95,2.4,2.03,2.12,2.22,2.09,.09-.02,.2,.03,.56,.5,.35,.47,.99,1.37,1.96,3.12-.46-.68,.37,.59,1.18,2.51,.38,.97,.78,2.08,.95,3.18,.21,1.09,.22,2.13,.14,2.88v-.02c.15,1.41,.13,2.9-.24,4.53-.19,.83-.5,1.59-.74,2.66-.2,1.03-.17,2.13-.03,3.29-.03,1.27-.98-.86-1-.04,.27,.8,.65,2.1,1.22,3.59,.58,1.5,1.23,3.17,2.2,4.91,.97,1.7,2.27,3.23,3.61,4.34,1.34,1.12,2.68,1.81,3.61,2.12-1.21-.51-1.49-.22-1.14,.07,.86,.31,1.72,.56,2.59,.74,1.33,.64,2.15,.89,2.54,1.08,.39,.18,.36,.27,.08,.36,1.1,.29,1.9,.39,2.46,.44,.56,.06,.88,.05,1.04,.01,.33-.06,.03-.19-.21-.3-.24-.12-.42-.22,.1-.22,.51-.05,1.76,.24,4.42-.19-.41,.11-.51,.15-.73,.22-.22,.08-.55,.17-1.43,.28,2.74-.09,5.39-1.12,7.47-2.77,2.11-1.64,3.58-3.91,4.46-6.29,1.06-2.43,.5-5.26,1.4-6.75,.46-.76,1.27-1.08,2.32-1.14,1.03-.08,2.1,.07,3.03,.47,.92,.83-.62,0-2.28,.02-.83-.01-1.61,.15-1.8,.32-.25,.18-.21,.23,.19,.24,.06-.04,.16-.06,.29-.08,.12-.02,.21-.07,.35-.08,.27-.01,.52-.08,.82-.06,.58-.02,1.15,.05,1.69,.19,1.09,.26,2.1,.87,2.99,1.74,.91,.87,1.65,1.94,2.37,3.18l2.25,3.79c1.49,2.53,2.98,5.06,4.46,7.57,.73,1.26,1.46,2.51,2.18,3.76,.67,1.17,1.33,2.34,1.99,3.49,0,.76,0,1.51,0,2.24v.43l-.06,.03-.45,.21-.44,.21-.52,.26,.46-.22,.39-.17,.4-.17c.11-.07,.34-.07,.29-.24,.03,.06,.07,.12,.09,.19-.02,.04-.04,.08-.07,.12-.06,.08-.16,.17-.28,.26-.26,.19-.54,.35-1.01,.61-.98,.52-2.22,1.13-3.54,1.95-1.32,.82-2.72,1.86-3.93,3.18-1.21,1.31-2.2,2.91-2.77,4.55,.62-1.57,.5-2.28,.36-1.82-1.2,2.1-1.95,4.45-2.31,6.9-.27,2.02-1.16,4.08-2.79,5.24-.81,.58-1.81,.83-2.92,.77-.55-.02-1.14-.15-1.72-.35-.68-.22-1.38-.45-2.08-.68-1.49-.4-3.12-.68-4.87-.49-1.74,.18-3.53,1.01-4.83,2.34,.4-.47,.81-.96,1.33-1.35-1.34,.72-2.58,2-3.52,3.49-.95,1.49-1.67,3.18-2.27,4.87-.59,1.68-1.14,3.27-1.84,4.68-.68,1.42-1.51,2.61-2.41,3.41-.75,1.33-3.55,2.25-1.77,1.96-.94,.32-1.91,.48-2.9,.48-1.08,.02-2.15,.05-3.21,.07-2.17,.11-4.31,.33-6.4,.72-4.19,.75-8.19,1.98-12,3.44-7.64,2.93-14.49,6.78-21.6,9.94,1.62-.9,3.78-2.32,2.48-1.62-3.85,2.17-7.62,4.41-11.4,6.69,1.14-.15,1.64-.62,4.22-1.69-1.31,1.07-4.47,3.04-7.2,4.84,4.87-3.41-.46-.65-2.74,.61,.44-.12-.21,.5,.06,.5-6.14,3.25-.43,1.41-8.43,6.37l.27-.48c-2.8,2.12-5.28,4.22-8.58,6.1-1.61,.35,3.06-2.14,3-2.69-2.21,1.45-4.3,3.03-6.48,4.36-2.17,1.34-4.41,2.5-6.76,3.04,2.07-.86,5-2.22,6.9-3.42-4.94,1.82-5.51,2.03-9.17,3.39,.14-.06,.27-.12,.41-.18-1.41,.59-2.48,1.41-3.53,2.08-.5,.33-1.05,.66-1.44,.81-.33,.15-.71,.19-1.05,.06l-1.27-.31,.68,.19,.34,.1,.17,.05,.08,.02h0c.18,.07,.37,.13,.56,.13-.18,.09-.39,.13-.61,.14-3.2-.28-6.8-.29-10.19,1.1-1.69,.71-3.3,1.72-4.81,2.96-1.52,1.24-2.91,2.73-4.29,4.37,1.42-1.68,2.2-2.59,2.56-3.02,.35-.45,.26-.44-.01-.26-.56,.36-1.83,1.46-1.78,1.01-1.81,1.5-4.4,3.74-3.81,2.93-1.36,1.62-2.66,2.59-4.28,3.68-.95,.64-1.91,1.5-2.68,2.68-.78,1.17-1.34,2.67-1.47,4.36-.14,.13-.35,1.39-.41,2.46-.08,1.07-.08,1.97-.36,1.46,.05,.75,.13,1.29,.18,1.64,.04,.33,.08,.51,.11,.57,.05,.13,.08-.18,.09-.65-.04-1.02,.06-2.75,.19-2.49,.17,2.35,.61,4.49,.55,6.9,.05,2.4-.3,4.91-.93,7.41-.62,2.51-1.76,4.93-3.35,7.09-1.59,2.17-3.67,4.04-6.09,5.67-2.13,1.34-4.03,2.1-5.67,2.78-.81,.36-1.61,.58-2.35,.86-.37,.13-.74,.26-1.1,.39-.37,.11-.73,.21-1.09,.31-.73,.21-1.45,.41-2.19,.62-.77,.2-1.55,.46-2.36,.77-1.63,.61-3.39,1.47-5.66,2.4-1.61,.4-1.02,.01-.06-.48,.96-.5,2.33-1.15,2.33-1.15-1.27,.42-2.44,.82-3.57,1.17-1.14,.35-2.24,.69-3.33,1.03-2.18,.67-4.32,1.36-6.72,2.06,.94-.42-.11-.29-1.63-.15-1.94,.47-2.55,.79-3.34,1.09-.78,.3-1.74,.6-4.36,.93,.85-.39,1.94-.9,3.77-1.52-4.56,1.12-9.11,2.18-13.96,2.81-1.32-.21,2.88-.79,4.55-1.25-2.7,.43-6.21,.85-9.27,1.15-3.06,.3-5.66,.51-6.51,.78,1.18,.07,2.35,.09,3.53,.12-2,.08-1.04-.43,.43-.57,4.67-.62,6.77-.27,7.06-.08-1.15,.16-2.31,.27-3.46,.4,1.82,.46,5.34,.13,9.22-.59,3.88-.7,8.11-1.82,11.53-2.57-.89,.5-1.78,.97-2.69,1.44,2.32-.7,4.6-1.5,6.87-2.31,1.53-.2,2.68-.01-.66,1,2.5-.44,3.57-.82,4.53-1.18,.97-.37,1.85-.68,3.99-1.14,.48-.08,.29,.02-.13,.19,1.55-.56,3.08-1.26,4.58-1.92-.84,.51,.99,.25-1.9,1.23,2.14-.68,3.97-1.42,5.63-1.92,.84-.26,1.59-.43,2.4-.61,.8-.19,1.55-.38,2.26-.55,1.41-.37,2.63-.8,3.72-1.1,1.07-.38,2.02-.63,2.87-.79-.22,.12-.46,.2-.69,.31,.75-.25,1.36-.6,1.91-.84,.55-.27,1.04-.47,1.43-.71,.78-.48,1.31-.81,1.66-1.06,.7-.48,.66-.64,.58-.69-.09-.06-.27-.08,.02-.45,.27-.39,1.12-1.01,2.64-2.69,.49-.22,.87-.56,1.32-.85,.42-.31,.91-.58,1.29-.95,.79-.72,1.66-1.43,2.34-2.31l.03-1.38c.26-.59,.61-1.49,.92-2.17,.28-.69,.45-1.19,.52-.92,.78-4.78-.43,.72-.16-2.06,.94-2.95,.98-7.27,.59-10.87-.18-1.8-.25-3.44-.02-4.69,.21-1.25,.62-2.07,.95-2.28,.14-1.04-.46,.19-.7,1.06-.13,.43-.2,.74-.22,.54,.01-.19-.01-.92,.51-2.45,.83-.63,1.59-2.21,3.4-3.6,1.92-1.45,3.84-3.53,6.01-5.3-.83,1.59-4.99,5.02-.51,1.52,.92-1.49,2.84-3.41,5.1-5.09,1.12-.86,2.35-1.57,3.54-2.18,.6-.28,1.2-.52,1.76-.76,.58-.17,1.13-.38,1.64-.54,0-.11,.2-.22,.55-.36,.36-.12,.87-.32,1.53-.35,.33-.03,.69-.06,1.08-.1,.39-.03,.81,.04,1.26,.05,.91,.01,1.81,.25,2.94,.48,.93,.31,2.02-.05,2.82-.54,.8-.46,1.5-.99,2.2-1.49,.7-.5,1.4-.98,2.11-1.31,.8-.32,1.59-.63,2.36-.94-.19,.23,3.39-1.02,7.61-3.23,4.21-2.22,8.98-5.4,12.04-7.43l-.11,.23c.76-1.4,6.93-5.78,11.53-8.74,.04,.49-.71,1.13-3.07,2.92,.71-.48,1.42-.94,2.15-1.39,.72-.46,1.44-.91,2.17-1.33,.9-.82,2.26-1.73,5.14-3.46l-.86,1.12c2.99-1.72,5.93-3.54,9.14-5.37,3.21-1.83,6.72-3.65,10.83-5.21,.13-.34-1.62,.04-2.35,0-.72-.02-.48-.56,3.82-2.51,.43,.13,.92,.44-1.31,1.46,.73-.32,2.55-1.32,4.12-1.74-1.12,.55-2.21,1.2-3.3,1.79,3.8-1.31,1.8-1.15,4.84-2.23,.06,.37,2.34-.49,2-.05-.77,.26-2.69,.76-3.79,1.32,3.39-1.27,7.65-2.18,9.1-2.26-.36-.14-.14-.53,2.42-1.15,3.33-.69,3.93-.61,4.18-.53,.25,.12,.15,.31,2.11,.17,.79-.26,2.27-.38,3.56-.49,1.21-.12,2.6-.31,2.58-.64,2.19-.42,2.67-.5,3.56-.76,.91-.54,2.3-1.67,3.36-3.21,1.1-1.52,1.88-3.33,2.45-4.89,.57-1.58,.94-2.89,1.11-3.56,.18-.67,.1-.78-.39,.09l-.34,.83,.17-.55v0c.41-1.37,.91-2.74,1.59-4,.69-1.25,1.56-2.42,2.71-3.2,1.14-.79,2.53-1.15,3.95-1.1,1.42,.03,2.84,.41,4.2,.96,.66,.24,1.42,.6,2.23,.79l.6,.14,.63,.07c.42,.07,.84,.03,1.27,.02,1.71-.14,3.36-1.04,4.44-2.31,1.13-1.25,1.79-2.79,2.18-4.33,.16-.82,.28-1.5,.4-2.19,.16-.68,.29-1.37,.51-2.03l.18,.08c.45-1.58,1.18-3.16,2.18-4.59,1-1.43,2.27-2.7,3.63-3.77,.69-.53,1.39-1.02,2.1-1.48,.36-.22,.71-.43,1.06-.65,.38-.21,.75-.42,1.11-.62,.43-.22,.85-.44,1.25-.66l.3-.16c.07-.07,.26-.06,.2-.21l-.03-.67c-.04-.87-.08-1.71-.14-2.28,0-.34,.01-.7,.02-1.06-.52-1.01-.84-1.79-1.06-2.41-.21-.59-.24-.91,.03-.63-2.7-4.56-3.18-4.97-6.62-11.82,2.89,4.49-.63-1.76,2.87,4.65-1.6-3.05-2.52-4.96-3.54-6.87-.51-.96-1.05-1.92-1.72-3.03-.73-1.17-1.65-2.54-3.31-3.84,.61,.39,.68,.31,.38-.08-.3-.38-1-1.09-2.09-1.69-1.08-.61-2.54-1.04-3.92-1.1-1.34-.05-2.78,.12-3.94,.84,1.17-.59,2.22-.61,3.17-.61,.94,.04,1.89,.21,2.79,.52-1.06-.27-2.09-.35-3.1-.28l-.77,.07-.79,.18c-.55,.17-1.11,.43-1.58,.78-.95,.69-1.5,1.91-1.71,2.82-.23,.95-.3,1.81-.39,2.6-.16-.59-.34-1.21-.45-1.94-.21,1.02-.29,1.9-.42,2.62l-.1,.5-.12,.42-.38,1.02c-.54,1.32-1.26,2.51-2.12,3.52-1.71,2.04-4.08,3.34-6.6,3.7-1.23,.18-2.61,.13-3.91-.03-1.3-.18-2.57-.5-3.73-1.01-2.33-1-4.33-2.63-5.49-4.7-1.15-1.18-.32,.29,.88,1.6,1.19,1.3,2.76,2.34,1.31,1.71-1.21-.9-2.24-2.04-3.02-3.26-.79-1.24-1.27-2.5-1.66-3.75-.81-2.57-1.09-4.56-1.21-5.4-.12-.94-.12-1.69-.05-2.25,.03-.28,.09-.51,.14-.7,.11-.38,.21-.74,.31-1.09,.4-1.44,.49-2.64,.5-3.83,0-1.19-.11-2.4-.37-3.91-.26-1.51-.74-3.32-1.71-5.6,.16,.63,.17,1.28-.2,.93-.18-.17-.47-.58-.95-1.32-.47-.74-1.15-1.8-2.14-3.24-1.75-2.75-2.8-4.48-2.92-5.17-.12-.66,.38-.35,1.68,1.27,.93,1.26,1.3,1.94,1.19,1.93,1.29,1.69,2.83,4.15,1.67,1.71l-.67-.6c-.4-.73-1.04-1.73-1.75-2.79-.71-1.07-1.48-2.14-1.97-3.06-1.05-1.89-.87-2.89-.6-2.28-.21-.73-.14-1.11-.15-1.34,0-.22-.02-.24-.12-.09-.16,.3-.45,1.23,.15,2.65-.62-1.64-.41-2.62,.27-3.74,.33-.55,.84-1.08,1.33-1.59l.84-.77c.33-.32,.68-.61,1-.97,.65-.68,1.26-1.45,1.78-2.38,.49-.94,.94-2.13,.81-3.56-.1-1.4-.98-2.79-1.99-3.61-1.02-.87-2.14-1.37-3.3-1.78,1.47,.6,2.65,1.66,1.22,.9-1.63-.78-3.07-1.03-4.02-1.25-.96-.2-1.67-.39-2.22-.54-1.1-.3-1.58-.46-1.97-.54-.38-.07-.72-.15-1.27-.37-.23-.09-.53-.24-.89-.48-.36-.25-.81-.62-1.27-1.2-.34-.62-.31-.87-.23-.95,.09-.08,.25-.01,.37,.02,.12,.03,.2,.03,.15-.14-.03-.09-.07-.23-.16-.43-.05-.1-.09-.22-.15-.37l-.09-.24s-.04-.09-.04-.13h.12c.14-.04,.38-.07,.68-.08,1.52,.28,1.61,.56,1.52,.68-.13,.14-.42,.28-.5,.42,.3-.16,.9-.1,1.42,.07,.13,.04,.26,.09,.38,.14l1.01,.4c.76,.31,1.51,.65,2.25,.99,1.49,.67,2.93,1.33,4.44,1.83,1.5,.5,3.07,.78,4.58,.71-1.86,.18-3.53-.11-5.06-.49,1.37,.34,2.73,.58,4.13,.6,1.4,.02,2.88-.2,4.25-.81-1.11,.31-2.23,.39-3.26,.3,1.58-.03,3.11-.6,4.07-1.15,.98-.54,1.46-.99,1.52-.88,1.08-1.25,.46-.94,.17-.94-.15,0-.23-.07-.03-.42,.17-.36,.64-.99,1.26-2.21,.51-.72,1.15-1.8,1.37-3.2,.13-.69,.09-1.45-.02-2.16-.14-.7-.36-1.36-.61-1.92-.51-1.14-1.03-2.01-1.34-2.74-.32-.72-.44-1.25-.38-1.53,.38,1.02,.81,1.8,1.13,2.41,.35,.64,.56,1.03,.69,1.27,.29,.49,.28,.27,.25-.02-.02-.29-.07-.64,.16-.35,.12,.14,.31,.43,.59,1.06,.25,.63,.67,1.66,.63,3.31,.04-1.27-.31-2.63-.8-3.78-.49-1.16-1.07-2.14-1.51-3.13-.07-.31,.24,.2,.57,.75-.25-.54-.43-.97-.58-1.35-.07-.19-.13-.36-.19-.53-.09-.22-.17-.44-.25-.64-.36-.83-.6-1.5-.92-2-.61-1-.99-1.53-1.48-1.99-.49-.46-.93-.96-1.81-1.79-.21-.21-.44-.45-.71-.72-.28-.25-.58-.53-.93-.84-.33-.32-.72-.66-1.16-1-.44-.35-.91-.76-1.47-1.14,.67,.26,.26-.24-.53-.94-.8-.67-1.99-1.46-2.78-1.82,.95,.51,1.51,.9,1.77,1.14,.26,.23,.21,.3-.06,.24-.54-.13-1.98-.75-3.77-1.46-2.94-1.57-4.59-2.13-5.87-2.61-1.28-.46-2.22-.73-3.69-1.46,1.1,.58,2.24,1.12,3.4,1.67-.67-.09-1.73-.46-3.11-1.05-1.39-.63-3.13-1.43-5.16-2.35-.22-.41,3.76,1.6,2.37,.8-4.77-1.6-9.86-5.47-16.3-8.11-2.79-1.61,.01-.73-2.46-2.11-7.22-2.97-7.39-4.1-14.93-7.32,.96,.73,1.54,1.11,1.21,1.05-.16-.03-.56-.17-1.25-.43-.34-.13-.76-.29-1.26-.49-.25-.1-.52-.2-.81-.32-.27-.1-.69-.28-.79-.29l12.11,5.47-8.08-3.13c3.66,1.77,7.85,3.45,10.01,4.58-3.88-1.44-3.44-1.36-1.87-.16-2.35-1.53-4.87-2.63-7.51-3.75-1.32-.56-2.66-1.13-4.03-1.76l-.98-.46-.76-.38c-.5-.26-.99-.53-1.41-.8,.62-.14,1.21-.29,1.79-.45-.27-.21-.51-.36-.77-.51l-.2-.11s-.05-.02-.04-.03l.06-.03,.11-.06,.42-.24c.55-.29,1.1-.56,1.96-.65,1.93-.08,4.12,.36,6.43,1.24,2.39,.93,5.03,2.02,7.88,3.29l-3.64-1.74c1.73,.22,7.17,2.92,10.99,4.31-.5,.22,1.79,1.33,3.29,2.22-.08-.35,8.46,3.56,9.81,3.27l4.97,2.64c4.63,2.05,7.4,2.9,10.14,3.73,1.36,.41,2.76,.83,4.43,1.25,.84,.22,1.78,.41,2.89,.51l.92-.02c.32-.03,.66-.12,1-.19,.65-.25,1.32-.61,1.79-1.25-.24,.42-.48,.65-.64,.83-.16,.18-.23,.3-.27,.36-.08,.14,.06,.17,.05,.26-.02,.07-.15,.3-.93,.61-.83,.33-2.26,.42-4.03,.03,.46,.1,.88,.23,1.38,.28,.24,.03,.47,.07,.72,.09h.8c1.09-.04,2.21-.41,2.89-1.01,.38-.27,.64-.59,.86-.88,.24-.29,.37-.55,.47-.77,.2-.43,.29-.7,.22-.73,.39-.7,.77-2.09,.94-3.6,.08-.76,.15-1.57,.2-2.38l.04-.64c.01-.28,0-.52,0-.72-.01-.42-.02-.57,.02-.78,.48-1.84,.3-3.53,.25-4.63-.21-.74-.47-1.19-.8-1.92-.34-.72-.75-1.71-1.49-3.43-.09-.41,.18-.07,.18-.07-.16,0-2.74-5.08-1.72-2.02-.16-.43-.32-.88-.49-1.34-.13-.38-.26-.73-.36-1.1-.09-.36-.25-.74-.13-1.12,.08-.2,.34-.22,.52-.31l.58-.24c.77-.34,2.15-1.17,3.19-2.14,1.08-.98,2-2.23,2.65-3.59,.65-1.36,1.05-2.81,1.33-4.23,.14-.71,.24-1.42,.34-2.12,.09-.69,.16-1.44,.27-1.96,.21-1.15,.85-2.07,1.69-2.82,.86-.73,1.92-1.28,2.98-1.76,1.12-.47,2.18-.92,3.18-1.33,1.04-.48,1.94-.9,2.8-1.34,.78-.52,1.57-1.13,2.33-1.86,.74-.76,1.51-1.65,1.91-2.93,.07-.33,.13-.66,.18-.99,0-.34-.02-.68-.04-1.02-.06-.32-.15-.63-.24-.95-.1-.3-.25-.56-.38-.84-.58-1.03-1.29-1.88-2.05-2.57-1.51-1.43-3.12-2.51-4.61-3.56-1.51-1.04-2.96-2.02-4.31-2.91,.41,.13,.13-.15,1.12,.56-5.94-4.33-5.62-2.91-9.98-5.69l-.14,1.03c.47-.17,1.03-.38,1.68-.62,.31-.12,.68-.26,1-.37,.3-.09,.64-.2,.99-.1,.06,.02,.11,.04,.11,.05,.92,.29,1.31,.45,1.18,.49-.05,.02-.21,.02-.44,0l-.78-.09c-.27-.06-.58,0-.84,.11-.36,.15-.7,.29-.96,.4-.56,.24-.71,.32,.17,.05,.19,.08,.53,.06,.84,.04,.21,.01,.45-.03,.72,.08l.07,.02,.17,.04,.39,.08c.27,.05,.55,.1,.85,.16,.59,.1,1.25,.16,1.94,.24,1.39,.11,2.96,.19,4.62,.03,1.65-.13,3.4-.48,4.99-1.17,1.59-.67,3-1.59,4.17-2.49-.46,.41-.87,.88-1.39,1.25,1.27-.79,2.49-1.93,3.5-3.28,1.06-1.34,1.96-2.88,2.82-4.53,1.7-3.29,3.25-7,5.04-10.88,0,0-.06,.43,.16,.13,.9-2.8,2.34-6.76,4.02-10.91,.4-1.01,.92-2.12,1.2-3.35,.15-.61,.22-1.25,.22-1.91-.02-.67-.18-1.4-.51-2.01-.33-.62-.87-1.1-1.45-1.44-.61-.34-1.23-.5-1.83-.59-.6-.09-1.18-.11-1.74-.08-.52,.02-1.04,.03-1.54,.05,1.18-.26,2.22-.37,2.7-.37,.47-.03,.39-.11-.49-.44-.51,0-.91,.03-1.13,.06-.22,.03-.35,.07-.44,.11-.17,.09-.15,.19-.24,.3-.09,.1-.29,.25-.91,.3-.62,.05-1.68,.11-3.44-.24-1.11-.38-2.85-1.05-4.29-1.89-1.44-.82-2.6-1.72-2.76-2.13,1.93,1.11,3.92,2.01,5.97,2.61-1.48-.79-3.36-1.59-5.28-2.57-1.91-.96-3.85-2.08-5.31-3.13h.56c-2.16-1.44-3.97-2.55-5.48-3.33-1.52-.8-2.79-1.37-4.07-1.94-2.56-1.16-5.25-2.24-10.24-4.88l.92,.75c-2.93-1.09-3.97-1.83-4.88-2.69-.46-.43-.9-.87-1.48-1.46-.28-.31-.64-.6-.99-1.02l-.61-.64c-.2-.24-.42-.51-.65-.79-.1-.64-.15-1.27-.15-1.89-.44-.8-.94-1.97-1.26-3.44-.32-1.47-.41-3.25-.15-5.12,.08-.47,.15-.94,.25-1.42,.12-.48,.24-.96,.36-1.44,.28-1.04,.52-2.09,.68-3.14,.32-2.1,.37-4.17,.31-6.04,.32,2.09,.41,5.46-.49,8.89l-.29,1.21c-.09,.38-.19,.76-.24,1.15-.06,.38-.13,.76-.17,1.14-.03,.38-.06,.75-.09,1.12-.05,1.48,.12,2.84,.4,3.97-.14-.87-.3-2.07-.19-3.43,.09-1.35,.34-2.85,.78-4.26,.46-1.57,.85-3.25,.97-4.58,.14-1.35,.13-2.41,.06-2.97,0,1.7-.11,3.92-.68,5.56,.37-2.65,.44-5.67,.14-9-.28-3.33-.94-6.95-1.47-10.95,.21,.15,.33-.06,.39-.56,.03-.52,.12-1.18-.12-2.47-.13-.6-.37-1.29-.83-1.97-.46-.68-1.19-1.35-2.1-1.72-.9-.39-2.04-.42-2.99-.18-.49,.12-.94,.3-1.37,.51-.34,.19-.69,.38-1.04,.57-2.4,1.32-5.87,1.92-8.69,3.96-1.41,1-2.48,2.36-3.15,3.63-.29,.63-.6,1.24-.78,1.78-.19,.54-.36,1.03-.51,1.44l-.11,1.53v.18l-.03,.09-.02,.18c0,.12,0,.24-.06,.33-.09,.42-.34,.77-.8,1.13-.44,.35-1.06,.67-1.78,.88-.7,.24-1.49,.38-2.29,.5-1.62,.2-3.33,.24-5.06,.14-1.8-.13-3.62-.25-5.45-.38-7.36-.55-14.98-1.2-23.18-2.12,5.68,1.87-4.79-.53-3.94,.76-3.88-.46-5.4-.55-5.74-.67-3.96-.53-8.04-.68-12.15-.19-1.47,.15-.54-.19,.73-.42,1.27-.29,2.88-.47,2.68-.59-1.12,.08-2.02,.21-2.75,.31-.73,.08-1.29,.17-1.72,.25-.87,.14-1.26,.15-1.56,.14-.3,0-.5-.03-1.01,.03-.5,.07-1.33,.17-2.8,.67,1.36,0-2.92,1.49-7.32,4.44,2.13-1.29,4.39-2.31,6.7-3.11-2.87,1.4-4.75,2.68-6.28,3.66-1.49,1.04-2.64,1.8-3.72,2.66-.28,.21-.55,.42-.83,.64-.26,.23-.53,.47-.81,.72-.27,.25-.56,.52-.86,.8-.26,.26-.54,.53-.84,.82-1.07,1.05-2.43,2.32-4.65,3.67,.92-.61,1.76-1.31,2.52-2.07-.98,.86-2.55,1.9-4.56,2.67-1.01,.38-2.12,.7-3.31,.92-.6,.1-1.21,.19-1.83,.25-.71,.07-1.43,.15-2.15,.23-2.87,.33-5.76,.8-8.29,1.46-2.53,.64-4.7,1.49-6.12,2.3-1.12,.31-2.73,.6-.02-.59-1.87,.69-3.79,1.61-5.58,2.9-1.78,1.29-3.4,2.95-4.63,4.85-1.25,1.89-2.1,3.98-2.67,6.05-.57,2.08-.9,4.15-1.09,6.18-.37,4.05-.28,7.92-.14,11.49,.04,.92,.05,1.73,.06,2.52,.01,.8-.06,1.57-.1,2.32-.18,1.48-.41,2.88-.86,4.08l-.04-1.03c-.25,1.19-.41,2.24-.79,3.31-.34,1.08-.93,2.17-1.94,3.3,0-.2,.33-.95-.34-.08-.34,.53-1.26,1.84-2.67,3.13-1.4,1.29-3.26,2.54-4.83,3.26,.82-.56,1.59-1.15,2.34-1.76-1.41,.82-2.87,1.63-4.12,2.18-1.26,.55-2.37,.83-3.34,.83-.49,0-.95-.06-1.42-.2-.23-.07-.44-.14-.81-.28-.33-.12-.66-.24-.98-.36-1.3-.48-2.57-.9-3.81-1.31-4.98-1.64-9.71-2.91-15.01-5.46,.22-.4-2.13-1.83-4.78-3.86-1.31-1.03-2.72-2.17-3.94-3.38-.61-.6-1.22-1.18-1.72-1.78-.57-.64-1.11-1.23-1.59-1.76l.25,.07c-1.66-1.72-3.37-3.01-4.91-4.19-.77-.59-1.5-1.15-2.19-1.7-.36-.29-.72-.59-1.07-.88-.44-.33-.83-.69-1.31-.99-1.8-1.24-3.97-2.17-6.31-2.37-2.35-.2-4.71,.49-6.55,1.64-1.84,1.17-3.25,2.7-4.36,4.33l-.7,1.02c-.22,.3-.44,.6-.68,.89-.47,.57-.99,1.07-1.55,1.52-1.13,.88-2.46,1.49-4.04,1.81-1.58,.34-3.33,.39-5.28,.43-2.38-.23-5.6-.45-9.42-.46-3.81,.02-8.27,.26-12.85,1.5-2.28,.6-4.59,1.47-6.74,2.55-.58,.27-.91,.29-1.48,.13-.57-.17-1.32-.64-2.07-1.25-3.49-2.9-7.35-5.45-10.95-7.32,2.16,1.25-.64,.36-3.32-.61-.87-.37-1.91-.8-3.04-1.07-.56-.15-1.12-.3-1.66-.44-.56-.11-1.1-.22-1.6-.32-1.01-.22-1.89-.36-2.48-.48-.59-.14-.87-.29-.69-.46l1.34,.23c-1.34-.62-4.02-1.23-7.15-1.27-3.12-.08-6.65,.31-9.65,.95-.26,.4-.51,.83-.75,1.25-.97,.16-2,.28-3.02,.53-1,.25-2.13,.53-3.11,.81-1.96,.56-4,1.02-6.07,1.23-2.06,.22-4.15,.13-6.18-.28-.51-.1-1.01-.23-1.51-.37-.6-.17-1.27-.34-1.91-.46-1.3-.23-2.62-.32-3.9-.26-2.57,.1-4.94,.71-7.05,1.44-2.1,.76-4.11,1.56-5.91,2.84-.9,.61-1.72,1.41-2.41,2.29-.64,.94-1.15,1.98-1.33,3.02-.42,2.1,.01,3.76,.28,4.98l.35,.77,.41,.72c.27,.5,.57,.96,.88,1.42,.27,.41,.55,.82,.83,1.24,.26,.37,.46,.77,.69,1.15,.84,1.58,1.4,3.29,1.71,4.89l-.58-.1c.26,2.18,.08,4.19-.23,6.09-.15,.96-.36,1.87-.58,2.82-.23,.99-.46,1.98-.7,2.99-.92,4.03-1.79,8.37-2.97,14.53l.11-2.59c-1.45,6.93-.15,9.08-1.48,15.46l-1.24,1.73c-.32,1.52-.7,2.96-1.09,4.39-.19,.72-.45,1.42-.67,2.13-.22,.71-.47,1.41-.76,2.1-1.04,2.78-2.38,5.43-3.9,7.95-3.02,5.07-6.93,9.47-11.22,13.46,.07-.22,.19-.63,1.61-1.89-.52,.46-1.19,.99-1.93,1.6-.74,.61-1.64,1.2-2.53,1.87-.93,.62-1.91,1.27-2.9,1.89-1.02,.58-1.99,1.23-2.98,1.74-.83,.46-1.65,.9-2.43,1.33l-.64,.36-.31,.18v.36c0,.48,.01,.94,.02,1.39,0,.45,.01,.88,.02,1.3l.03,.88c.03,.42,.05,.8,.07,1.14,.11,1.36,.29,2,.58,1.47-.19,.04-.29,.85-.33,2.16-.02,.65-.02,1.43-.01,2.29,.02,1.21,.04,2.53,.06,3.93v.32c.01,.1-.03,.23,.11,.26l.58,.3c.38,.2,.77,.41,1.16,.61,.6,.31,1.2,.62,1.81,.93,.92,.49,1.89,.96,2.77,1.46,1.81,.97,3.43,1.99,4.5,2.97-.35-.08-.69-.15-1.02-.21,2.02,1.35,2.72,2.25,3.32,3.58,.55,1.35,.83,3.22,.48,7.05-.13,.9-.33,1.29-.38,1.14-.06-.14-.02-.81,.17-1.99-.48,2.97-.6,4.18-.68,5.55-.06,.71-.12,1.46-.21,2.52-.07,1.08-.18,2.48-.01,4.51-.24-.98-.4-2-.49-3.01-.08,1.73,.11,3.02,.3,4,.2,.98,.45,1.65,.68,2.22,.49,1.11,.93,1.84,2.05,3.34,.15,.22,.31,.45,.47,.69,.15,.23,.3,.46,.46,.71,.33,.49,.63,1.04,.91,1.61,.59,1.14,1.05,2.42,1.34,3.63,.58,2.44,.27,4.53,0,4.92,.09,.2,.12,.54,.14,1,.05,.47-.02,1.04-.1,1.71-.22,1.32-.81,2.94-1.83,4.39-.21,.15-.16-.06-.03-.38,.12-.32,.3-.76,.43-1.05-.31,.53-.61,1.04-.96,1.5-.32,.48-.67,.92-1.02,1.34-.33,.43-.7,.82-1.05,1.2-.38,.41-.74,.82-1.1,1.21-1.49,1.66-2.61,3.38-3.4,5.14-1.58,3.56-1.74,7.1-1.38,10.93-.17,.19-.16,.71-.08,1.35-.47-2.19-.66-4.4-.48-6.41,.16-2.01,.69-3.78,1.27-5.15,1.23-2.72,2.4-3.96,2.17-3.7-.1-.08-.45,.25-.88,.71-.42,.46-.85,1.11-1.22,1.57-.33,.49-.58,.82-.62,.64-.04-.18,.09-.88,.75-2.34-.76,1.41-1.48,3.22-1.87,5.26-.39,2.04-.4,4.26-.09,6.38,.61,4.26,2.29,8.13,3.32,11.29,.07,.32,.14,.64,.15,.9l-.3-.64c.5,1.48,1.07,2.78,1.66,3.97,.4,1.02,.71,1.86,1.08,2.67,.34,.82,.72,1.62,1.22,2.57,0,.23,.22,.81,.63,1.59,.2,.39,.44,.83,.7,1.3,.29,.46,.61,.96,.94,1.47,1.36,2.04,3.21,4.18,4.54,5.48,.08-.29,.97,.4,1.5,.71,.53,.31,.6,.31-.84-1.37,.18,.22,.05,.11-.33-.27-.38-.38-1.05-1.01-1.81-1.93-.36-.4-.78-.88-1.01-1.15l.18,.17c-1.46-1.84-3.13-4.42-4.66-7.48,1.52,2.36,3.09,4.78,5.33,8.03,.72,.59,1.48,1.2,2.21,1.7,.7,.53,1.36,.95,1.84,1.24,1.48,1.91,4.26,4.22,6.99,5.78,2.68,1.63,5.34,2.55,5.93,2.92,2.74,.59,5.75,.9,8.74,.92,2.99,.04,5.98-.13,8.79-.27,2.83-.15,5.39-.22,7.83-.24,1.19-.02,2.3-.04,3.32-.06,.47,0,.92,0,1.35,0,.37,0,.62,0,.94,.03,.5,.13,.84,.42,.95,.73,.12,.31,.06,.59,0,.8-.15,.44-.34,.6-.52,.94,.08-.53,.15-.97-.03-1.38-.2-.39-.64-.49-.87-.48,.33,.06,.78,.26,.87,.71,.05,.21,.04,.44,.01,.67-.03,.23-.08,.46-.22,.94-.51,1.73-1.29,3.66-1.95,5.44-1.32,3.59-2.54,6.52-2.53,7.3-.91,1.59-1.34,2.09-1.46,2.15-.12,.06,.03-.34,.15-.66,.12-.32,.2-.56-.03-.18-.26,.36-.76,1.42-2.18,3.38,.2-.4,.4-.79,.58-1.19-1.46,1.88-3.03,3.44-4.72,4.68-.41,.33-.85,.61-1.29,.88-.42,.29-.88,.53-1.33,.77-.44,.26-.9,.46-1.37,.67l-.7,.32-.93,.44c-1.22,.65-2.31,1.69-3.01,2.88-.71,1.19-1.07,2.45-1.24,3.63-.33,2.39-.13,4.52-.05,6.64,.19,4.22,.42,8.51-.7,12.87-.58,2.16-1.53,4.31-2.94,6.28-.33,.51-.74,.97-1.14,1.45l-.3,.36-.34,.43c-.24,.28-.45,.59-.64,.91-.79,1.26-1.32,2.72-1.58,4.26,.29-1.71,.71-2.5,.92-2.8-1.3,3.31-1.01,7.07,.51,10.26,.76,1.6,1.84,3.07,3.19,4.26,1.36,1.19,3.04,2.08,4.86,2.48,1.81,.4,3.7,.26,5.43-.21,1.74-.48,3.33-1.3,4.77-2.29,2.64-1.9,5.36-3.45,8.36-4.52,5.97-2.2,12.54-2.24,18.83-1.31,3.15,.46,6.3,1.16,9.34,1.95,1.49,.41,2.89,.91,3.97,1.71,.54,.4,1,.86,1.38,1.39l.68,.98c.26,.35,.54,.69,.84,1.03,1.38,1.51,3.01,2.36,4.41,2.62,1.41,.29,2.51,.11,3.42-.11,.45-.13,.87-.26,1.27-.43l.52-.22c.15-.07,.29-.13,.45-.18,.62-.2,1.34-.33,2.29-.15,.38,.31,.72,.68,1.03,1.05,1.03,.37,2.09,.97,3.19,1.58,1.06,.62,2.16,1.19,3.2,1.87,4.33,2.96,7.38,6.48,9.89,10.55,1.28,2.03,2.34,4.26,3.34,6.72,.99,2.46,1.86,5.19,2.55,8.37l.11-1.72c.08,.58,.22,1.24,.31,1.96,.08,.72,.16,1.5,.24,2.3,.03,.8,.07,1.63,.1,2.44,.05,.83,.03,1.7,.13,2.5,.24,3.24,1.33,5.62,.93,5.3,.29,.46,.96,1.41,1.9,3.16l-.17,.31c2.61,3.43,6.44,5.47,10.09,6.87,4.04,2.12,3.55,2.28,3.57,2.6,0,.35,.51,.84,6.3,4.12,2.19,1.16,5.38,2.73,7.86,3.83,.71,.32,1.36,.61,1.93,.86,.16,.11,.35,.07,.52,.06,.17-.02,.33-.03,.49-.04,.34-.03,.51-.06,.68-.08,.68-.11,.9-.2,.43-.25-.25,0-.52,0-.8-.01-.35-.02-.72,0-1.06-.05-.3-.18-.61-.37-.91-.55l-.69-.45c-.88-.59-1.53-1.1-1.52-1.27l2.03,1.04,1.05,.53c.09,.04,.18,.1,.27,.12h.3l.6-.03c.41-.47,1.49-.94,1.08-1.37-.1-.11-.3-.22-.63-.32-.14-.05-.41-.1-.54-.15-.11-.06-.23-.09-.34-.16l-.16-.17-.08-.09-.23-.17c-.32-.23-.68-.48-1.08-.76-.8-.55-1.77-1.2-2.94-1.95l-7.08-3.34-2.01-1.61c1.95,1.04,3.88,2.1,5.79,3.17-3.04-2.21-5.32-3.03-7.81-4.04-.45-.5-1.36-1.17-2.74-1.94l-3.58-1.24c-1.09-.44-2.19-.9-3.2-1.5-.23-.39,.51-.08,.84-.03,.17,.02,.23-.02,.04-.25-.2-.22-.66-.62-1.45-1.39-1.23-.91-.87-.28-.63,.21,.11,.24,.19,.44-.02,.35-.2-.09-.72-.43-1.63-1.41-.2-.37-.37-.68-.51-.95-.11-.28-.2-.52-.28-.72-.17-.4-.21-.72-.32-1.03-.19-.62-.53-1.23-1.17-3.07,.13-.59,.39,.22,.96,1.57-.7-1.5-1.11-3.77-1.16-5.92-.08-1.23-.11-2.4-.26-3.38-.16-.99-.32-1.79-.5-2.29-.03-2.05-.79-5.47-1.84-8.19-.27-.68-.53-1.32-.76-1.9-.25-.58-.47-1.09-.65-1.52-.35-.86-.49-1.4-.25-1.41-.43-.51-1.46-2.04-2.81-3.67-.67-.82-1.44-1.66-2.16-2.48-.77-.78-1.47-1.59-2.14-2.23,2.68,2.17,.45-.55-2.63-3.32-3.04-2.81-6.96-5.4-5.9-5.37-.6-.28-1.21-.58-1.99-1-.78-.42-1.69-.94-2.87-1.4-1.15-.46-2.68-.85-4.3-.69-.4,.02-.79,.11-1.19,.19l-.58,.16-.45,.14c-.44,.15-.88,.26-1.31,.31-.86,.12-1.63,.03-2.35-.29-.73-.31-1.46-.89-2.12-1.65-.36-.39-.57-.71-1.14-1.4-.51-.59-1.09-1.11-1.7-1.55-1.23-.87-2.52-1.38-3.68-1.69,.53,.09,1.62,.34,2.42,.85-1.3-.74-2.38-1.09-3.28-1.4-.87-.27-1.6-.5-2.27-.71-1.31-.39-2.4-.76-3.95-1.15-.39,.33-2.47,.14-5.01,.02-2.53-.14-5.52-.17-7.61,.08-3.06-.29-2.17-.54-.69-.82,1.47-.26,3.49-.4,2.53-.8,.14,.32-2.57,.37-5.05,.73-.62,.1-1.22,.18-1.76,.28-.54,.12-1.01,.23-1.37,.33-.72,.2-1,.34-.45,.39-1.19,.1-2.04,.25-2.69,.33-.64,.13-1.08,.22-1.45,.29-.37,.07-.67,.11-1.04,.15-.37,.06-.8,.11-1.45,.18-.11,.31-.43,.56-.89,.82-.45,.29-1.04,.57-1.73,.89-1.36,.66-3.06,1.58-4.51,2.96-.34,.19-.65,.36-.92,.51-.25,.14-.48,.25-.69,.33-.41,.18-.72,.28-.96,.33-.48,.13-.7,.1-.91,.12-.21,.02-.43,.07-.93,.21-.49,.13-1.29,.44-2.62,.48-.63-.09-.78-.22-.69-.28,.09-.05,.43-.11,.84-.15,.82-.1,1.93-.47,1.93-.47Zm-38.45-107.31h.01c.5,1.37,.97,2.51,1.25,3.25-.26-.68-.65-1.6-1.26-3.25Zm-2.05-13.2c-.35,1.53-.41,3.54-.08,5.68-.1,.5-.44,.02-.54-1.35,.11,.37,.06-.26,.13-1.2,.01-.95,.24-2.2,.49-3.13Zm5.39,29.5c-.71-.98-1.1-1.68-1.34-2.17-.24-.48-.33-.76-.37-.93,.56,.97,1.24,2.11,2.24,3.53,.06,.05,.15,.15,.21,.2-.22-.13-.44-.29-.75-.64Z"/><path class="cls-2" d="M37.7,316.17c.23,.26,.37,.39,.66,.73-.28-.4-.55-.78-.82-1.17-.23-.19-.48-.37-.67-.54,.26,.34,.57,.68,.82,.99Z"/><path class="cls-2" d="M423.98,349.85l.11-.28c-.1,.22-.2,.43-.28,.56,.09-.18,.11-.17,.17-.28Z"/><path class="cls-2" d="M54.71,109.29l-.14,.02c.08,.26,.13,.51,.24,.79-.06-.29-.07-.55-.09-.8Z"/><path class="cls-2" d="M355.01,383.17c-.15,.04-.43,.17-.94,.47,.06,0,.46-.21,.94-.47Z"/><path class="cls-2" d="M325.82,400.34c-1.67,.78-2.96,1.86-4.2,2.49,.79-.39,1.55-.93,2.23-1.36,.69-.44,1.33-.83,1.97-1.13Z"/><path class="cls-2" d="M301.85,409.04c-.18,.3-.2,.42-.21,.53l.04-.03,.17-.5Z"/><path class="cls-2" d="M389.6,213.51c-.33-.14-.66-.28-.96-.4-2.28-.98-.74-.25,.96,.4Z"/><path class="cls-2" d="M406.35,281.78c-.13-1.24-.47-2.42-.87-3.64,.58,2,.52,3.59,.87,3.64Z"/><path class="cls-2" d="M410.85,195.42s0,0,0,0c0-.21-.02-.4-.03-.62,.02,.21,.02,.41,.03,.61Z"/><path class="cls-2" d="M403.21,273.14c1,1.9,1.74,3.48,2.27,5-.44-1.64-1.29-3.52-2.27-5Z"/><path class="cls-2" d="M221.44,466.72c-.42,.02-.83,.02-1.25,.02,.02,.04-.05,.07-.15,.09l1.39-.12Z"/><path class="cls-2" d="M220.05,466.84l-1.38,.11c.64-.02,1.19-.04,1.38-.11Z"/><path class="cls-2" d="M215.74,467.12c.97-.06,1.95-.09,2.92-.17-1.01,.03-2.26,0-2.92,.17Z"/><path class="cls-2" d="M255.19,461.01l.31-.32c-.19,.11-.3,.21-.31,.32Z"/><path class="cls-2" d="M265.22,457.46c-1.31,.31-2.92,.77-4.55,1.32-1.58,.54-3.28,1.11-4.91,1.67l-.26,.25c.36-.2,1.01-.42,1.81-.65,.79-.24,1.71-.53,2.66-.83,1.92-.64,4.04-1.29,5.25-1.76Z"/><path class="cls-2" d="M291.72,429.42c.26,2.99,.14,6.03-.28,9.02,.27-.77,.4-1.68,.54-1.88,.06-.1,.1-.02,.12,.35,.02,.37,0,1.02-.17,2.06,.36-1.43,.39-2.48,.5-3.23,.1-.75,.11-1.2,.09-1.46-.02-.51-.09-.22-.19,.04-.09,.27-.21,.52-.29-.04-.12-.56-.06-1.93-.31-4.87Z"/><path class="cls-2" d="M305.98,409.13c-3.42,3.07,.24,.17,.13,.46,1.04-1,1.75-1.49,1.79-1.63,.06-.1-.53,.18-1.92,1.17Z"/><path class="cls-2" d="M458.57,311.99l.68,.17c-1.84-3.17-.19,.07-.68-.17Z"/><path class="cls-2" d="M437.39,299.65c.52-1.36,.63-2.66,.88-3.7-.08-.51-.17-1.02-.16-1.45-.2,.62-.27,1.42-.32,2.29-.07,.86-.1,1.83-.4,2.86Z"/><path class="cls-2" d="M418.86,305.6c.45,.13,.91,.21,1.37,.3-1.75-.35-3.46-.94-4.97-1.87,1.12,.67,2.33,1.2,3.6,1.56Z"/><path class="cls-2" d="M423.15,164.8c-.38-.02-.77-.05-1.15-.04-.88,.65-1.07,1.23-.92,1.29,.2,.08,.57-.3,2.07-1.25Z"/><path class="cls-2" d="M409.4,81.05c-.59-.5-1.83-1.26-3.01-2.02-1.19-.73-2.35-1.62-3.25-2.29,1.03,1.01,2.18,1.97,3.31,2.65,1.14,.72,2.23,1.32,2.96,1.66Z"/><path class="cls-2" d="M85.27,98.43l2.65-1.07-2.53,.9c-.8,.28-1.61,.52-2.42,.74,.77-.16,1.53-.35,2.3-.57Z"/></g><g><path class="cls-2" d="M418.81,21.87c.05-.17,.02-.56-.12-.49l-.1,.66,.23-.18Z"/><path class="cls-2" d="M417.82,20.64c-.17,.32-.37,.88-.26,1.49,.17-.64,.21-.37,.4-1.13,.15-.08,.26,.21,.23,.46,.05-.17,.23,.15,.31-.27-.19-.51-.43-.53-.68-.11-.05-.15,0-.32,.01-.44Z"/><path class="cls-2" d="M407.38,27.63h.12s-.09-.02-.12,0Z"/><path class="cls-2" d="M401.84,35.13c0-.07-.04-.13-.1-.15,.02,.08,.04,.15,.1,.15Z"/><path class="cls-2" d="M400.64,36.47s.04-.06,.07-.08c-.07,.02-.11,.05-.07,.08Z"/><path class="cls-2" d="M407.38,27.63h-.33c.13,.18,.2,.04,.33,0Z"/><path class="cls-2" d="M415.98,22.24s.04-.09,.05-.17c-.02,.03-.04,.05-.06,.07v.1Z"/><path class="cls-2" d="M410.21,24.74l.04-.03c-.03-.07-.08-.15-.13-.23l.1,.26Z"/><path class="cls-2" d="M411.32,22.96s.48,.26,.7,.37c-.2-.12-.29-.19-.32-.26-.1-.04-.22-.07-.38-.11Z"/><path class="cls-2" d="M415.01,19.96l.08-.08s-.06,.05-.08,.08Z"/><path class="cls-2" d="M408.37,25.93c-.06-.06-.11-.11-.15-.14,.04,.06,.09,.1,.15,.14Z"/><path class="cls-2" d="M420.25,24.54l.06-.08s-.07,.07-.06,.08Z"/><polygon class="cls-2" points="418.88 20.41 418.94 20.41 419.1 20.14 418.88 20.41"/><path class="cls-2" d="M399.33,39.34h.01c-.05-.1-.05-.05-.01,0Z"/><path class="cls-2" d="M411.88,58.57c-.61-.02-.17-.85-.93-.76,.22,.08,.38,.93,.93,.76Z"/><path class="cls-2" d="M415.94,22.17s-.04,.01-.06,0c.03,.02,.05,.02,.06,0Z"/><path class="cls-2" d="M410.95,57.81h0Z"/><path class="cls-2" d="M399.47,46.27c.1-.02,.17-.05,.24-.09-.06,0-.13,.03-.24,.09Z"/><path class="cls-2" d="M400.27,41.23l-.08,.12c.05-.05,.08-.08,.08-.12Z"/><path class="cls-2" d="M400.51,48.75c-.03,.07-.11,.1-.02,.18,.03-.01,.05-.02,.06-.04-.08-.02-.12-.06-.04-.15Z"/><path class="cls-2" d="M400.88,51.36s.07-.04,.1-.07l-.04-.08-.06,.14Z"/><path class="cls-2" d="M424.95,29.05c.12-.11,.26-.21,.41-.31-.34,.21-.61,.02-.41,.31Z"/><path class="cls-2" d="M415.96,21.92c0,.14,0,.21-.02,.24,.01,0,.03-.02,.04-.03,0-.08,0-.16-.02-.21Z"/><path class="cls-2" d="M404.93,48.33l-.03,.4c.04-.12,.05-.26,.03-.4Z"/><path class="cls-2" d="M418.46,41.27l.05-.12s-.06,.05-.05,.12Z"/><path class="cls-2" d="M405.13,49.86c-.19,.1-.29,.19-.35,.28,.05,0,.08,.02,.15,.02l.2-.3Z"/><path class="cls-2" d="M425.36,28.74h0Z"/><path class="cls-2" d="M423.1,27.73c.17,.24,.64-.35,1.01-.57,.39,.18-.32,.48-.55,.81,.28,.06,.94-.19,1.03-.03-.09,.08-.11,.13-.26,.18,.68-.13,.38,.58,1.18,.49-.05,.05-.1,.09-.14,.12,.31-.21,.64-.39,.88-.51,.08,.13,.56,.06,.15,.32-.03-.09-.21-.02-.37,.01l.27,.05c-.56,.42-.32-.09-.78,.14,.17,.08,.43,.14,.64,.22,.18,.09,.32,.2,.26,.35-.63,.27-.37-.42-.85,.08,.05-.14,.1-.28,.11-.41-.85,.66-.03-.2-.96,.47-.03,.42,.46,.28,.41,.71,.39-.02,.53-.19,.92-.2,.45,.21,.03,.45-.35,.61-.38,.17-.74,.28-.26,.41,.46,.04,1.33,.02,.93,.38l-.78-.06c-.05,.36,1.1,.2,.57,.63-.3-.09-.24-.32-.33-.26-.62,.25,.42,.19,.41,.42h-.68c.02,.09,.07,.2,.13,.32,.04,.12,.09,.24,.13,.37,.09,.26,.19,.54,.19,.81-.19-.09-.37-.23-.6-.18,.09,.68-.54,1.23-1.24,1.52l.38,.51s-.28-.05-.34-.16c-.31,.09,.31,.21,.44,.43-.04,.15-.38-.02-.48-.19,.22,.63,.06,1.69-.71,1.69l-.08-.19c-.4,.14,.6,1.12-.05,1.03l-.03-.12c-.4,.23-.66,.61-.96,.91-.33,.28-.71,.49-1.25,.38,.45,.73-.89,.28-.18,1.23-.78-.15-.79-.4-1.6-.29-.18,.07,.22,.76,.1,1l-.37-.49,.12,.72-.56-.5-.09,.26c.1-.03,.31,.11,.4,.27-.12,.44-1.03,.23-1.23-.02-.16,.33-.3,.68-.44,1.01-.14-.2-.07-.37-.07-.58,0,.82-.49-.44-.49,.31,.14,.07,.21,.3,.28,.4-.42-.13-.83,.24-1.02,.62l-.24-.36c-.61,.43-.96,1.23-1.49,1.84,.34-.09,.84,.45,.75,.67l-.55-.36c.21,.38,.34-.02,.52,.53-.24,.17-.69-.33-.74-.6l-.06,.42c-.16-.11-.19-.24-.36-.42,.21,.37-.92,.09-.5,.7l-.17-.1c-.51,.64-.53,1.08-.88,1.64,.46,.32,.22,.47,.49,.87-.4,.29-1.05,.5-1.3,1.02,.05,.48,.36,.34,.56,.66-.46-.23-.69,.28-.87-.15-.24,.63-.33,.81-.33,1.75,.23,.01,.35-.04,.49,.09,0,.17-.34,.21-.56,.09l-.03-.06c.29,1.15-2.28,1.37-1.57,2.48l-.03-.06c.07,.31,.15,.62,.25,.85-.19,.21-.29-.3-.66-.25,.27,.44,.12,.66-.04,.81-.17,.16-.35,.25-.26,.6-.71-.32-.83-.12-.93,.09-.09,.21-.21,.49-.51,.08l.16,.32c.09,.35-.15-.15-.2-.22,.1,.26,.17,.28,.21,.47-.15,.29-.59,.21-.66-.01-.16-.26,0-.64,.17-.73,.1-.03-1.64,.88-.97,.23,.22-.03,.45-.06,.66-.12-.96-.27-.31-1.73-1.18-2.75,.16,.04,.36,0,.37,.11,.43-.31-.12-.84-.51-.77,.01-.17,.34-.1,.52-.24,.24-.27-.7-.46-.25-.66,.07-.03,.16,.04,.21,.07-.26-.11-.05-.69-.58-.46,.2-.44-.36-.73-.09-1.09-.65-.12,.19-.72-.68-.67,.9-.1,.64-.79,.18-.99,.28,.05,.25-.25,.64-.2-.05-.28-.25-.52-.7-.42,1.02-.63-.96-.98,.39-1.39-.57-.8-.9-1.56-1.16-2.33,.9,0,.13,.84,1.07,.77-.42-.69-1.18-1.1-.95-1.81,.12-.18,.39,.11,.54,.17-.38-.72,.12-1.35-.32-2,.08,0,.17,.08,.23,.15-.02-.12,.15-.27-.26-.3l.1,.13c-.61,.15-1.2-.61-1.51-.67,1.14,.34,.38-.6,1.81-.09-.07-.09-.24-.21-.52-.23,.1-.11,.26-.12,.55,.03-.16-.46-.61-.37-.54-.77,.2,.03,.26,.13,.48,.2-.35-.25-.71-.53-.49-.84,.11,.04,.27,.03,.25,.13,.06-.56-.78-1.19-.27-1.74,.78,.41,.32-.14,1.06,.05l-.11-.38-.39,.02c.11-.27-.32-.7-.01-.87l.22,.31,.04-.58-.37,.21c-.26-.43-.9-.29-.57-.62,.03,.11,.12-.3,.6-.27h0c-.16-.23-.32-.48-.05-.61,.24,.04,.73,.38,.89,.42-.5-.39,.12-.71-.38-1.18,.11,.13,.45,.31,.53,.33l-.39-.34c.22-.05,.29-.03,.56,.14,.29-.32-.9-.34-.29-.58,.02,.05,.09,.08,.12,.18,.45-.32,.2-1.03,.69-1.28,.7,.31-.08,.43,.54,.65,.27-.57,.06-1.63,.63-2.03l-.15,.04c-.75-.75,.73-.02,.57-.59,0,.11,.37,.47,.29,.38,.44-.19,.37-.87,.68-1.55l.12,.26c.36,0,.61-.36,.91-.45-.11-.26,.04-.34-.29-.57,.82,.29,1.02-.1,1.21-.54,.18-.43,.36-.9,1.05-.6-.07,.06-.04,.33,.02,.28,.12-.19,.26-.39,.47-.65-.33-.33-.26-.15-.61-.35-.07-.29-.03-.57,.1-.69-.06,.45,.46,.58,.78,.65-.12-.09-.18-.24-.29-.34,.89,.3-.59-.71,.16-.7l.17,.18c.04-.25-.1-.57,.07-.71,.49,.22,.09,.32,.43,.59,.19-.31-.51-1.05,.08-1.02,.07,.18-.02,.35,.04,.54,.69,.05,.6-.08,.79-.25l-.02,.02c.17-.13,.34-.27,.5-.41l-.21,.07c-.56-.47-.55-.66-.48-.86,.07-.19,.19-.41-.19-.75,.7,.69,.46,.21,1.03,.41,.18-.03,.38-.05,.54,.03-.42-.32,.39,.03-.22-.49,.17,.1,.04-.12,.47,.21-.11-.22-.3-.19-.52-.34-.2-.25-.13-.35-.02-.39,.11-.04,.28,0,.3-.1,.02-.07,.09-.09,0-.35,.09-.38-.14-1.03,.28-1.36,.26,.31,.1,.71,.11,.71,.33,.29,.43,.23,.62,.01-.02,.17,.05,.31,.12,.53,.14-.05,.04-.71,.31-.42-.05,.22-.12,.57-.16,.78,.14-.18,.47-.54,.71-.72,.07,.34-.16,.52-.25,.74,.29-.15,.76-.31,.85-.85l-.19-.19c.11-.03,.06,.46-.02,.56-.25,.42-.36-.19-.38-.38l.19-.12c-.17-1.14-.81,.18-1.07,.12,.02-.28,.05-.55,.09-.83-.13,.23-.22,.46-.29,.69-.1-.22-.26-.68-.08-.81-.38-.41-.19,.3-.56-.16-.05-.07-.05-.11-.03-.14-.08,.08-.15,.17-.22,.25,0-.17-.27-.59-.02-.47-.38-.24-.58-.08-.7,.05-.12,.14-.17,.26-.48-.06l.02-.05c-.33,.14-.22,.29-.07,.5,.16,.21,.34,.47,.41,.83-.29-.3-.62-.62-.88-.84-.18-.15-.36-.3-.54-.44l.52,.67c-.03,.05-.09,.16-.3-.08,.32,.66,.24,.19,.56,.7-.27-.07-.26,.24-.28,.45-.03,.22-.1,.35-.55,.14,.4,.38,.39-.14,.62,.41-.49-.23-.48-.08-.4,.11,.08,.2,.22,.41-.05,.49-.49-.27-.13-.54-.68-.33,.8,.57-.35,.53-.26,.78,.68,.26,.12,.56,.16,.99-.2-.12-.69,.4-1.08,.41l-.09-.09c.52,.53,.18,.68,.08,.95-.26-.35-.34-.51-.39-.73-.05,.04-.09,.09-.14,.12,.11,.21,.14,.35,.06,.5-.08-.17-.17-.33-.26-.49-.27,.23-.25,.98-.86,.97,.29,.43,1.14,.93,.95,1.5-.18-.21-.48-.58-.44-.75-.01,.05,.01,.28-.13,.23l-.11-.49c-.3-.03,.14,.38-.03,.45-.23-.32-.28-.15-.44-.41,.01-.06,.22,.04,.19-.13-.2,.06-.55,.02-.8-.17,.15,.17,.33,.42,.24,.55-.29,.25-.41-.3-.71-.31,.1,.28-.27,.22,.11,.68-.09,.07-.28-.12-.42-.22,.02,.33-.66,.68-.07,1h.07s0,.02,0,.04h0c-.04,.43-.35,.58-.68,.72-.31,.16-.67,.29-.79,.61l-.14-.13c-.09,.44-.49,.72-.34,1.2-.07,.09-.44-.01-.59-.2-.06,.33,.1,.49-.42,.64-.1-.45-.31-.1-.02-.4-.37,.21-.69,.11-.49,.76-.33-.41-.71-.12-.69,.12,.15-.02,.31-.02,.46-.03-.07,.21-.19,.34-.33,.48l-.51-.45c-.56,.15-.46,.66-.39,1.1,.07,.44,.08,.79-.64,.78,.33,.4,.48-.26,.88,.16-.23,.29-1.26,.24-1.31,.36-.56,.34,.69,.83,.24,1.22,.26,.02,.84,.2,.94,.64-.19,.3-1.08,.08-1.18-.21,0-.09,.09-.11,.17-.08-.04-.14-.09-.33-.37-.28l.21,.13c-.29,.09-.43,.6-.76,.35,.12,.35,.33,.24,.51,.08-.48,.35-.25,.71-.63,1.13,.15-.04,.44-.03,.41,.04-.46,.62,.36,.43,.35,.91-.41,.18-.82-.3-.63,.25-.31,.24-.63-.07-.79-.24,.35,.55-.51,.78-.62,1.04l-.15-.28c.09,.17,.07,.28,.05,.41l.49-.06c-.1,.13-.12,.24-.32,.21,.29,.19,.79,.02,1.17,.37-.27,.15,.18,.58-.46,.56,.3-.55-.64-.02-.66-.53,.06,.11,.04,.22-.06,.35-.07,.01-.13-.04-.16-.08-.64,.5,.67,.36,.57,.93-.35-.11-.68,.06-.61,.17,.03-.24,.6-.05,.85,.19-.3,.34,.18,.41,.13,.6l.15-.21c.35,.1,.29,.28,.38,.53-.28,0-.17-.24-.3-.16,.61,.31-.7,.59-.29,1.01-.24,.17-.67,0-.83,.15,.46,.45-.49,.48-.11,.95,.48-.14,.36-.15,.82,.17l-.33-.76,.69,.49c0-.22-.3-.48-.21-.62,.39,.24,.27,.21,.67,.11-.72,.3,.41,.61-.07,.96h-1.18c-.54,.57,.64,.95,.36,1.66l.2-.23c.47,.07,.08,.42,.29,.64-.4,0-.53,.15-.77,.27,.29-.03,.02,.51,.81,.51l-.49,.35c-.16,.58,1.18,.53,1.09,1.07-.44-.11-.7,.16-1.04-.17,.01,.18-.04,.35,.23,.32-.23,.13,.59,.43,.24,.63,.18,.05,.6,.03,.59,.23-.08,.03-.19,.02-.19,.02,.19-.02,.3,.27,.71,.05-1.16,.7,.29,1.48-.68,2.1,.19,.36,.38,.8,.47,1.13-.12,0-.19,.03-.17-.04-.28,.53,1.17,.1,.86,.7-.58,.38-.39-.22-.6-.01-1.27,.3,.29,.62-.39,1.11l-.09-.07c-.39,.35,.59,.52,.57,1.01,0,0-.12,0-.19,.03,.7,.2,1.02,.77,1.31,1.18-.53-.03-.31-.15-.79,.05,.12,.19,.79-.24,1.03,.12-.24,.2-.38,.57-.88,.79-.06-.14-.11-.28-.16-.42-.63,.41,.19,.56,.18,.87l-.3,.09c.22,.4,.52,.49,.8,.56,.28,.08,.53,.14,.77,.46l.12-.22c.82-.25-.07,.59,.63,.42-.13,.23-.25,.48-.37,.72,.39,.05,1.31-.13,1.78-.2-.41,.51-1.16,.58-1.71,.62,.27,.21,1.07,.44,1.34,.09-.14,.04-.37,.18-.44,.02,.36-.27,.66-.44,.96-.53,.2-.08,.4-.09,.61-.07-.12,.75,.3,.9,.76,.9,.47,.02,.98-.1,1.4,.37,.49-.45,.96-.66,1.53-.88,.53-.23,1.11-.5,1.48-1-1.17-.48,.21-.28-.79-1.02,.09-.24,.16-.29,.24-.26,.33-.05,.69-.12,1.02-.21,.4,.03,.1,.35,.34,.48,.39-.45,.57,.07,1.06-.12-.42-.15-.44-.49-.14-.71-.24,.05-.48,.1-.72,.14-.21-.98,1.25-.15,.99-1.17l.25,.39c-.01-.12,.03-.28,.06-.43,.02-.13,.06-.27,.07-.41,.02-.3-.04-.63-.43-.96,.15,0,.49,.07,.51,.23,.42-.61-.28-1.94,.53-2.19l.24,.18c-.02-.16-.4-.47-.05-.48,.11,.06,.24,.18,.28,.14-.06-.11-.3-.56-.06-.64l.22,.29c.67-.43-.2-1.35-.05-1.98,.75,.46,1.28,.14,1.55,0l.1,.08c.52-.59,.17-1.51,.37-2.33,1.03,.25,1.32-.94,2.23-1.05-.19-.04-.47-.5-.43-.66,.24,0-.05-.77,.47-.16l-.06,.03c.63,.5,.73,.11,.96-.04l-.64-.84c.77,.35,1.04-.03,1.3-.42,.25-.39,.56-.84,1.14-.42,0-.34,.22-.49,.22-.82l.34,.46c.55-.24,.84-.33,1.3-.93l.15,.41c.34-.25-.66-1.59-.41-1.85l.64,.56c.26-.24,.66-.33,.98-.52,.32-.2,.57-.47,.54-1,.08,.09,.24,.28,.19,.39,.25-.23,1.36-.6,.4-1.27,.58,.5,.54-.56,.51-1.07l.4,.39c-.36-.7-.51-.82-.4-1.29,.12-.04,.42,.18,.22,.21,.46-.12-.26-.52,.21-.73l.21,.34c.23-.3,.06-.38-.19-.77-.07-.31,.48-.53,.95-.34-.25-.2-.49-.54-.29-.69,.18,.06,.26,.18,.29,.25,.6-.46-.23-1.13,.45-1.34,.18,.05,.28,.06,.34,.04-.21,.48-.4,.86-.42,.81,.47,.21,.73-.18,1.24,.44-.22-.52-.74-1.33-.43-1.67,.05,0,.1-.01,.18,0l.04,.06c.07-.09,.05-.19-.01-.3,.11-.12,.2-.19,.23-.32,.43,.04,.34-.48,.41-.7-.56-.07-.41-.34-.92-.15,.05-.03,.06,.05,.05,.19,0,.03,0,.07,.04,.1l-.05-.02c-.02,.14-.04,.33-.08,.54-.24-.24-.44-.44-.08-.62-.33-.17-.67-.34-.83-.42,.82-.14,1.25-.71,1.75-.77-.16-.36-.15-.78-.35-1.14-.19-.36-.48-.67-1.02-.78-.16-.15,.27-.26,.42-.36,.12,.09,.12,.22,.28,.25-.17-.17-.22-.44-.36-.66-.16-.21-.36-.36-.72-.29,.18-.53,.73,.05,.42-.52h.24c.18-.39,.1-.69-.08-.92-.21-.21-.54-.34-.85-.47-.63-.26-1.15-.48-.94-1.42-.02,.13-.03,.19-.12,.27-.16-.79-.75-1.34-1.37-1.77-.3-.23-.58-.47-.81-.76-.25-.26-.45-.58-.55-1.01-.18-.43-.51-.09-.92,.03l.31-.53c-.25,.09-.5,.18-.75,.3-.76,.09,.03-1.79-1.14-1.43l-.15,.39c-.17-.23-.82-.26-.54-.63-.06,.05-.3,.31-.28,.08l.16-.27-.84,.13c-.32-.45,.71-1.04,.09-1.47-.31-.04-1.13,.4-1.14,.64,.09,.07,.15,.31,0,.6l-.29,.02c-.49,.79-1.09,1.54-.93,2.4l.62-.3-.12,.45-.29-.14c-.05,.46,.23,.2,.48,.04-.09,.22-.13,.4-.11,.51l.79-.57c-.15,.33-.52,.53-.41,.83,.37-.26,.28-.78,.68-.86-.06,.46-.29,.72,.09,.52-.1,.22-.22,.32-.35,.37,.33-.15,.49,.17,.84-.19-.13,.54,.61,.26,.09,.98,.17-.14,.67-.37,.84-.3-.89,.67,.5,.43-.25,1.28,.75-.61,.88,.19,1.53,.05-.07,.04-.2,.13-.2,.07,.12,.21-.02,.46-.03,.69,.56-.57,.94-.46,1.41-.66-.34,.74-.76,.53-1.2,1.12,.43-.47,.76-.12,1.08-.55-.19,.48-.04,.29-.44,.81,.74-.64,.25,.02,.82-.26-.16,.54-.63,.65-.2,.7-.07,.15-.22,.23-.34,.27-.12,.04-.23,.05-.23,.05Zm3.09,5.92h-.01v0Zm-.22,.61c.05-.07,.09-.16,.13-.25,.19,.04,.37,.13,.33,.19-.11-.08-.27,.03-.46,.06Zm4.21-.52c.04,.17-.08,.2-.19,.19,0-.07,0-.16,0-.27l-.06-.03c.1,.03,.2,.07,.26,.11Z"/><path class="cls-2" d="M429.5,33.34s-.03-.04-.03-.06c-.05,.02-.1,.04-.14,.06l.16,.08v-.08Z"/><path class="cls-2" d="M407.53,27.63h-.02s.05,.02,.08,.04c-.03-.01-.04-.03-.06-.04Z"/><polygon class="cls-2" points="418.95 40.56 419.04 40.67 419.01 40.53 418.95 40.56"/><path class="cls-2" d="M412.13,26.47s.09,.05,.15,.06c-.03-.03-.09-.04-.15-.06Z"/><path class="cls-2" d="M413.57,24.76l.32-.19c-.16,.08-.25,.14-.32,.19Z"/><path class="cls-2" d="M414.42,23.32c-.09-.05-.16-.07-.22-.09h0c.08,.03,.15,.06,.23,.09Z"/><path class="cls-2" d="M404.03,41.42s0,.04,.02,.05c.1,.12,.06,.04-.02-.05Z"/><path class="cls-2" d="M404.13,35.16c.07,.1,.13,.2,.16,.28,.09-.08,.13-.16-.16-.28Z"/><polygon class="cls-2" points="404.93 48.28 404.92 48.28 404.93 48.33 404.93 48.28"/><path class="cls-2" d="M404.17,35.71c.14-.07,.15-.16,.12-.26-.07,.07-.17,.15-.12,.26Z"/><path class="cls-2" d="M417.1,22.29l.07,.02s0-.07,0-.09l-.08,.07Z"/><path class="cls-2" d="M417.17,22.22l.07-.07s-.06,0-.07,.07Z"/><path class="cls-2" d="M417.4,22.02l-.16,.14c.05,0,.12,.02,.16-.14Z"/><path class="cls-2" d="M415.64,22.03l.04,.2s-.02-.11-.04-.2Z"/><path class="cls-2" d="M415.36,22.09c.1,.05,.32,.43,.36,.31l-.04-.16c.07,.3-.38-.49-.32-.15Z"/><path class="cls-2" d="M412.4,20.98l.24-.48c-.21-.08-.49-.15-.49-.5-.71,.34,.46,.23,.25,.98Z"/><path class="cls-2" d="M411.71,22.68c-.03-.24-.3-.09-.42-.14,.15,.18,.19,.24,.42,.14Z"/><path class="cls-2" d="M404.81,29.84l-.38-.34c-.07,.22,.15,.12,.38,.34Z"/><polygon class="cls-2" points="405.81 33 406.17 33.02 405.82 32.7 405.81 33"/><polygon class="cls-2" points="402.04 32.24 402.02 32.12 402.01 32.53 402.04 32.24"/><path class="cls-2" d="M400.32,50.97l.61-.15c-.13-.12-.84-.04-.61,.15Z"/><path class="cls-2" d="M403.07,59.02c-.16,.29-.07,.71,.3,.6-.18-.2-.15-.57-.3-.6Z"/><polygon class="cls-2" points="420.4 45.79 420.43 46.04 420.51 45.74 420.4 45.79"/></g><g><path class="cls-2" d="M450.04,36.12c-.03-.2-.31-.47-.5-.23l.22,.66,.29-.44Z"/><path class="cls-2" d="M447.77,36.25c-.07,.46,.06,1.09,.59,1.44-.21-.66,.01-.49-.17-1.3,.17-.22,.51-.1,.61,.13-.02-.19,.43-.12,.32-.55-.59-.21-.99,.03-1.1,.65-.17-.06-.2-.25-.25-.36Z"/><path class="cls-2" d="M425,48.04l.13-.15c-.06,.03-.1,.09-.13,.15Z"/><path class="cls-2" d="M429.89,62.68c-.05-.06-.13-.05-.19-.02,.08,.03,.14,.06,.19,.02Z"/><path class="cls-2" d="M429.15,64.09l.07-.05c-.07,0-.11,.02-.07,.05Z"/><path class="cls-2" d="M425,48.04l-.33,.38c.2,.09,.22-.18,.33-.38Z"/><path class="cls-2" d="M446.35,40.05c.05-.09,.06-.2,.05-.31-.04,.08-.07,.15-.12,.23l.06,.08Z"/><path class="cls-2" d="M429.88,41.43l.15-.06c.02-.09,.03-.19,.04-.3l-.19,.37Z"/><path class="cls-2" d="M436.19,40.82c-.13-.04-.24,.51-.32,.75,.1-.22,.21-.32,.33-.35,.01-.11,.01-.24-.01-.4Z"/><path class="cls-2" d="M443.83,39.32l.06-.16s-.05,.11-.06,.16Z"/><path class="cls-2" d="M425.98,44.41c-.08-.04-.15-.06-.2-.06,.06,.04,.13,.06,.2,.06Z"/><path class="cls-2" d="M448.47,39.27s.06,.02,.09,.03c-.04-.05-.08-.07-.09-.03Z"/><path class="cls-2" d="M449.25,34.94h.1c.03-.11,.06-.21,.09-.31l-.18,.31Z"/><path class="cls-2" d="M426.2,67.36h.02c.02-.12-.01-.07-.02,0Z"/><path class="cls-2" d="M410.8,82.22c-.38-.65,1.06-.34,.43-1.13,.01,.23-.99,.61-.43,1.13Z"/><path class="cls-2" d="M446.19,40.11c-.05,.06-.11,.13-.17,.18,.09-.07,.15-.12,.17-.18Z"/><path class="cls-2" d="M411.23,81.09h0l-.07-.08,.06,.08Z"/><path class="cls-2" d="M425.23,63.89c-.08,.08-.14,.19-.2,.3,.05-.03,.11-.1,.2-.3Z"/><path class="cls-2" d="M425.29,69.42l-.14-.04c.06,.03,.1,.04,.14,.04Z"/><path class="cls-2" d="M419.84,61.48c-.16,0-.22-.06-.45,.08,.02,.02,.04,.04,.07,.05,.08-.1,.2-.17,.38-.13Z"/><path class="cls-2" d="M414.59,63.86s.09,.04,.13,.06l.12-.1-.26,.04Z"/><path class="cls-2" d="M442.94,52.72c.19-.03,.38-.02,.56,0-.39-.1-.21-.82-.56,0Z"/><path class="cls-2" d="M446.13,39.83c.08,.12,.1,.2,.06,.28,.04-.05,.07-.1,.1-.14-.05-.07-.1-.13-.17-.13Z"/><path class="cls-2" d="M419.48,66.35s-.07-.03-.11-.05c.04,.04,.07,.06,.11,.05Z"/><path class="cls-2" d="M435.74,86.95l-.04-.15s-.02,.1,.04,.15Z"/><path class="cls-2" d="M418.05,67.05c-.21-.11-.39-.15-.55-.15,0,.05-.02,.1,0,.17l.56-.02Z"/><path class="cls-2" d="M443.5,52.73h0Z"/><path class="cls-2" d="M444.51,47.58c-.31,.62,.51,.61,.83,.93-.19,.86-.66,.11-1.13,.2-.07,.59,.35,1.27,.14,1.63-.12-.03-.2,.03-.29-.12,.27,.78-.73,1.59-.36,2.52-.08,.02-.15,.02-.2,0,.38,.06,.73,.2,.96,.34-.13,.3,.16,.75-.33,.66,.1-.18-.07-.28-.17-.43l.05,.41c-.76,0-.02-.54-.48-.75-.08,.72,.11,1.68-.28,2.07-.67-.18,.3-1.21-.54-.82l.57-.63c-1.23,.12,.27-.42-1.01-.38-.62,.9-.19,1.23-.8,2.14,.25,.37,.54,.15,.79,.52,.02,1.65-2.05,.43-1.64,1.82,.31,.44,1.06,.86,.34,1.43l-.61-.54c-.45,.95,.81,.96-.06,1.79-.21-.29,.05-.86-.09-.74-.82,.45,.23,.62,.04,1.13l-.68-.13c-.28,1.09-.23,2.41-.47,3.62-.17-.13-.31-.39-.6-.18-.16,1.59-1.01,3.18-1.76,4.59l.44,.7c-.03,.13-.31,.19-.39,.02-.34,.54,.36,.11,.53,.44-.03,.34-.42,.37-.55,.12,.26,1.14,.51,3.1-.24,4.11l-.15-.24c-.34,.83,1.08,1.1,.45,1.82l-.09-.16c-.43,1.84,.02,3.89-.82,5.32,.85,.24-.34,1.89,.85,1.92-.55,1-.75,.76-1.16,2.03-.07,.33,.72,.53,.8,.96l-.61-.05c.19,.19,.4,.41,.58,.61-.26,.06-.52,.12-.77,.16,.04,.13,.06,.24,.09,.36,.07-.12,.33-.23,.5-.18,.17,.66-.76,1.17-1.05,1.01,.05,.4,.02,.75-.03,1.14-.19-.17-.17-.36-.24-.53,.24,.76-.56-.29-.36,.36,.14,.05,.26,.27,.34,.36-.44-.07-.74,.21-1.06,.52l-.13-.41c-.31,.13-.59,.23-.77,.35-.16,.07-.26,.14-.47,.03,.05,.26-.2,.95-.46,.89,.07-.21,.15-.41,.23-.61-.32,.29,.09,.31-.42,.61-.25-.27,.25-.73,.47-.83-.12,0-.25,.02-.4,0,.1-.17,.24-.18,.4-.38-.37,.22,0-.86-.7-.6l.13-.15c-.71-.8-1.24-1.21-2.05-2.15-.45,.34-.67-.13-1.28-.12-.5-.79-.96-1.82-1.89-2.49-.8-.24-.47,.25-.95,.31,.26-.45-.68-1.05,0-1.02-1.17-.65-1.5-.86-3.15-1.21,.07,.27,.2,.43,.03,.54-.3-.05-.5-.48-.36-.69h.09c-.98-.05-1.77-.78-2.59-1.44-.81-.65-1.61-1.22-2.43-.92l.09-.03-1.52,.12c-.59-.27,.48-.26,.11-.7-1.7,.39-2.24-.78-3.55-.6-.4-1.7-3.19-.93-3.62-2.29l-.11,.34c-.4,.19-.17-.33-.29-.48-.12,.25,.08,.41-.16,.5-1.08-.36-1.67-1.16-1.73-1.97-.04-.4,.02-.89,.13-1.32l.09-.29c.04-.06,.08-.1,.11-.15,.05-.07,.11-.01,.14,0,.05,.05-.34-.26-.56-.55-.23-.28-.34-.59,.16-.36,.06,.22,.11,.44,.22,.63-.03-.21,.26-.46,.64-.62,.41-.17,.9-.29,1.46-.41,.57-.14,1.19-.29,1.85-.58,.55-.26,1.04-.55,1.48-.94-.06,.19,.02,.38-.18,.47,.64,.24,1.59-.73,1.41-1.09,.32-.11,.23,.28,.51,.36,.55,.04,.74-1.08,1.17-.77,.07,.05-.04,.2-.09,.27,.15-.34,1.23-.59,.72-.95,.82-.14,1.2-.93,1.89-.92,.07-.74,1.28-.32,1-1.16,.09,.21,.23,.32,.38,.36,.12,.06,.21,.07,.31,.03,.13-.04,.16-.22,.25-.49-.03,.31,.11,.27,.04,.71,.05-.04,.19-.25,.34-.8-.05,.62,.08,.35,.37,.2,.26-.17,.52-.09-.18,.58,.3-.08,.54,.06,.69,.32,.07,.13,.1,.28,.12,.45,.01,.08-.01,.25-.03,.41l-.1,.67c-.21-.07-.29-.25-.3-.45,0-.2,.05-.45,.07-.55,.06-.25,.03-.29-.45-.34,.04,.03,.08,.07,.13,.12,.04,.05,.05,.21,.09,.31,.02,.4,.04,.78,.05,1.15,.02,.23,.02,.41,.05,.68l.04,.37,.08,.44c.05,.28,.18,.66,.34,.99,.19,.35,.42,.68,.7,.95,.58,.64-.64,.04-.96-.26,.67,.78,1.46,1.14,1.99,1.3,.61,.21,.99,.27,1.53,.35,1.05,.13,2.19-.1,2.93-.71,.03,.08-.12,.24-.28,.38,.35-.16,.87-.24,.64-.59-.09,.09-.17,.18-.27,.26-.39-.16-.16-.58,.03-1.01,.2-.42,.38-.85,.3-1,.16,.62,.49,.47,.82,.33,.31-.13,.67-.24,.84,.6,.12-.2,.16-.53-.07-.69,.26-.15,.45-.12,.45,.33,.61-.97,0-.96,.59-1.68,.16,.12,.11,.32,.23,.54,0-.62-.05-1.2,.49-1.73,.08,.1,.26,.11,.13,.3,.33-.57,.36-1.11,.48-1.69,.05-.29,.11-.58,.22-.86,.1-.28,.26-.57,.51-.94,.62,.78,.48-.47,1.24-.46,0-.38,.03-.75-.03-1.11-.14,.15-.27,.28-.41,.41,.16-.92-.45-1.53-.51-2.24,.17,.15,.34,.31,.49,.49-.19-.51-.47-1-.88-1.36l.16,.42,.09,.44c-.37-.27-.56-.12-.71-.05-.14,.07-.24,.09-.45-.31,.2,.06-.48-.44-.57-.95h0c-.47,0-.86,.11-1.2-.27,0-.26,.51-.67,.52-.84-.16,.1-.33,.11-.51,.08-.15-.02-.3-.09-.45-.16-.31-.13-.63-.26-.95-.11,.19-.05,.42-.37,.43-.46l-.48,.27c-.1-.29-.08-.37,.15-.58-.5-.54-.47,.9-.83-.03,.08,.02,.11-.06,.26-.01-.12-.2-.27-.34-.42-.49-.14-.15-.29-.29-.45-.43-.27-.3-.56-.62-.56-1.05,.62-.47,.41,.53,.89,.04-.24-.4-.63-.82-.87-1.37-.27-.54-.39-1.19-.25-1.77l-.1,.21c-1.05-.28,.6-.83,.23-1.5,.05,.17,.54,.3,.43,.24,.31-.77,.11-1.72,.17-3.1l.21,.24c.38-.45,.52-1.22,.83-1.64-.19-.24-.03-.5-.47-.49,1.03-.43,1.18-1.06,1.44-1.76,.22-.68,.69-1.39,1.57-1.14-.14,.07-.18,.38-.09,.31,.26-.23,.52-.48,.84-.68-.25-.4-.23-.21-.61-.45,.03-.3,.29-.66,.61-.74-.46,.45,.24,.7,.51,.9-.07-.13-.04-.3-.09-.43,.79,.64-.1-.94,.91-.57v.25c.3-.16,.59-.52,.98-.47,.18,.52-.35,.27-.34,.72,.47-.07,.99-1.07,1.46-.51-.23,.13-.54,.14-.76,.29,.5,.61,.55,.47,.91,.58l-.04-.02c.28,.1,.55,.22,.82,.34l-.2-.19c.77-1.35,1.3-.09,2.35-.91-1.01,.77-.21,.48-.33,1.08,.25,.2,.67,.41,.54,.57,.27-.24,.48-.15,.74-.08,.25,.06,.54,.06,.86-.33,.06,.2,.54-.09,.52,.42,.65-.29-.23-.3-.21-.55,.43-.42,1.02-.36,1.69-.45,.66-.06,1.37-.29,1.72-1.04,.78-.97,.52-1.62,1.05-2.5,.46,0,.26,.71,.26,.71,.61-.15,.9-.48,1.1-1.01,.05,.19,.22,.22,.49,.26,.27-.34-.32-.7,.27-.9,.1,.22,.27,.54,.28,.84,.22-.49,.28-1.1,.47-1.6,.35,.12,.19,.57,.23,.85,.14-.27,.32-.61,.43-.93,.1-.32,.07-.54-.04-.8-.12,.03-.24,.06-.36,.09,.11-.15,.39,.25,.4,.4,.05,.6-.59,.41-.75,.29l.14-.36c-1.1-.46-.79,1.2-1.36,1.7l-.39-.79c0,.34,0,.67-.02,1.01-.27-.04-.66-.3-.5-.64-.64,.06-.12,.52-.74,.48-.08-.02-.09-.07-.08-.12-.06,.17-.13,.34-.2,.5-.04-.19-.44-.4-.14-.49-.93,.18-.69,1.35-1.32,1.02l.03-.08c-.83,.87,.27,.57-.18,1.67-.43-.33-.85-.7-1.23-1.06l.16,.6c-.12,.03-.36,.07-.41-.17-.26,.55,.17,.22,.07,.68-.38-.14-.74,.03-1.08,.12-.34,.09-.64,.1-.76-.39-.15,.48,.61,.3,.02,.68-.15-.51-.31-.44-.52-.32-.21,.11-.5,.32-.75,.05,.2-.51,.63-.25,.17-.72-.17,.44-.42,.37-.66,.2-.27-.18-.56-.45-.82-.4-.11,.72-1.09,.17-1.94,.4,.07-.27-1.57-.42-2.45-.52v-.12c-.02,.38-.24,.57-.52,.7-.28,.15-.63,.25-.89,.41-.12-.43-.07-.62,.22-.91-.2,.06-.4,.1-.59,.19-.06,.28-.19,.46-.51,.68l-.08-.56c-.79,.42-1.17,1.32-2.15,1.8,.16,.2,.56,.32,.83,.52,.28,.2,.44,.47,.25,.89-.22-.16-.6-.46-.5-.73-.05,.08-.04,.38-.24,.43-.03-.2-.06-.41-.08-.62-.45,.2,.13,.44-.13,.67-.3-.26-.39,.02-.6-.21,.03-.1,.33-.14,.31-.35-.34,.26-.82,.53-1.16,.51,.21,.1,.44,.3,.31,.58-.37,.68-.54-.02-.95,.29,.14,.3-.34,.63,.2,.89-.09,.2-.36,.13-.54,.15,.04,.47-.56,1.77,.17,1.55l.07-.08s0,.04,0,.07h0c.19,1.32-1.04,2.29-1.05,3.56l-.19-.04c.06,.75-.14,1.66,.26,2.21-.02,.21-.38,.51-.61,.41,.16,.61,.35,.63,.14,1.54-.41-.57-.28,.26-.33-.6-.09,.81-.35,1.12,.41,1.84-.59-.16-.38,.84-.05,1.17,0-.23,.06-.48,.09-.71,.22,.4,.38,.76,.54,1.13-.23,.05-.45,.1-.69,.14,.12,1.06,1.01,1.54,1.72,1.84,.35,.18,.71,.27,.97,.47,.26,.21,.45,.49,.54,.93,.61-.16-.57-.76,.07-.99,.53,.45,.78,1.72,.86,1.74,.23,.32,.5,.18,.81,.05,.26-.15,.55-.34,.67-.08,.14-.18,.54-.78,1.18-.48,.29,.55-.68,.97-.96,.87-.06-.06,0-.13,.07-.17-.17-.04-.33-.07-.48,.18l.24-.11c-.09,.26,.02,.59-.42,.63,.25,.09,.43-.01,.52-.23-.13,.24-.14,.36-.15,.5,0,.13-.02,.28-.2,.41,.14,0,.44,0,.41,.06-.26,.26-.21,.39-.1,.54,.11,.14,.29,.26,.14,.64-.54,.22-.66-.57-.81,.27-.47,.3-.59-.24-.66-.5,.02,.42-.24,.69-.53,.88-.28,.17-.59,.26-.73,.4l.04-.4c-.02,.24-.12,.38-.22,.52l.5,.11c-.19,.12-.29,.26-.45,.14,.12,.36,.74,.33,.82,.93-.35,.08-.35,.84-.88,.48,.71-.48-.53-.34-.17-.93-.02,.15-.13,.27-.31,.35-.07-.03-.08-.11-.08-.17-.87,.09,.31,.75-.25,1.2-.16-.33-.52-.44-.54-.35,.17-.1,.45,.41,.38,.79-.47-.05-.28,.38-.5,.42,.08,.03,.17,.03,.27,.04,.06,.36-.17,.42-.46,.57-.07-.26,.23-.24,.1-.33-.09,.34-.34,.21-.52,.02-.19-.19-.32-.42-.61-.27-.14-.27,.12-.65,.09-.84-.04,.05-.07,.07-.1,.09-.02,0-.02,.01-.01,.01,0,0-.04,.11-.06,.15-.09,.21-.32,.45-.33,.5-.03,.04-.07,.09-.11,.13l-.08,.06h0s0,.01-.02,.02c.06-.03,.14-.07,.22-.07-.2,.05-.2,.04,.22-.05h.02s.03,0-.05,.01l-.16,.04h-.07c-.07,0-.24,.1-.18,.07,.01-.02-.03,.02,.11-.09,.1-.1,.09-.13,.27-.35-.04,.06-.09,.12-.14,.18-.01,.03-.03,.06-.05,.09-.04,.06-.1,.11-.16,.16-.05,.03,0,.01-.03,.03,0,0-.04,.02,.05-.02-.14,.07-.02,0-.05,.02-.05,.03,.12-.09,.16-.15,0-.05,.12-.09,.1-.03-.27,.29-.27,.17-.38,.55,.04-.38,.07-.27-.12-.26-.13,0-.35-.17-.08-.38l1.18,.12c.27-.1,.19-.38,.18-.94,0-.28,.03-.7,.08-1.1,.04-.4,.11-.81,.21-1.3-.08,.21-.17,.42-.27,.61-.22-.12-.19-.38-.16-.69,.04-.31,.06-.68-.03-.93,.39-.08,.52-.5,.69-.87-.14,.08-.17-.27-.33-.57-.16-.31-.38-.58-.74-.39,.05-.33,.06-.67,.01-1-.38-.64-.95-.64-1.43-.53-.5,.12-.95,.32-1.5,.29,.25-.22,.27-.39,.33-.55,.07-.15,.19-.33,.69-.39-.44-.1-.84-.15-.92,.11-.1-.11-.45,.02-.8,.21-.35,.17-.68,.37-.89,.24-.19,.23-.23,.69-.67,.82-.06-.06-.03-.2-.03-.2,.01,.19-.63,.56-.16,.83-1.65-.63-2.59,1.37-3.88,.86-.57,.46-1.27,.97-1.82,1.3-.02-.12-.09-.17,.04-.2-.95,.08,.05,1.26-1.04,1.35-.74-.34,.32-.55-.07-.62-.7-1.1-.99,.7-1.91,.27l.11-.13c-.64-.2-.9,.95-1.63,1.07,0,0,0-.12-.05-.19-.3,.79-1.36,1.24-2.13,1.69,.11-.57,.3-.37,0-.82-.36,.19,.34,.76-.34,1.14-.17-.08-.41-.12-.66-.2-.25-.06-.52-.14-.7-.35,.28-.17,.55-.3,.8-.41-.34-.25-.61-.13-.87,.11-.25,.21-.44,.55-.7,.66l-.14-.29c-.64,.57-.71,1.08-.76,1.52-.03,.46-.05,.87-.26,1.61l.27-.09c.28,.46,.19,.56,.03,.7-.16,.14-.33,.3-.04,.65-.26,.07-.53,.15-.79,.23,.19,.52,.89,1.62,1.35,2.31-.72-.22-1.28-1.2-1.65-1.84,0,.5,.34,1.75,.83,1.87-.13-.17-.41-.37-.33-.6,.76,.46,1.26,1.03,1.75,1.79-.68,.34-.4,.97,.11,1.57,.52,.6,1.2,1.09,1.19,1.78,.9,.24,1.59,.63,2.31,1.07,.72,.43,1.43,.88,2.28,1.1-.21-1.32,.49,.13,.77-1.07,.4,.05,.54,.11,.55,.2l.94,1.05c.17,.42-.44,.15-.48,.42,.81,.34,.2,.6,.66,1.08,.01-.45,.47-.51,.89-.22l-.5-.74c1.34-.28,.71,1.28,2.03,1l-.47,.26c.67-.05,2.1,.65,2.96-.09,.05,.17,.07,.53-.2,.53,1.25,.57,3.28,.11,3.96,1.15l-.23,.22c.26,.03,.64-.3,.77,.12-.07,.1-.23,.21-.14,.28,.16-.03,.84-.14,1.01,.19l-.41,.14c.85,.97,2.05,.41,3.06,.99-.61,.66-.04,1.55,.08,1.94l-.1,.07c.38,.53,.95,.99,1.6,1.43,.65,.44,1.36,.86,2.18,1.39,.12,.73,.97,1.65,2.46,2.12,.36,.13,.76,.16,1.15,.22,.38,.02,.77,.02,1.15,0l1.05-.13c.31-.07,.61-.12,.91-.17-.39-.03-.18-.64,.08-.89,.25-.03,.48-.32,.66-.51,.18-.21,.34-.32,.54,.04l-.16,.09c.76,.46,1.59-.43,2.12-1.12l-.74-.77c1.26-.33,1.81-1.77,1.91-2.89,.14-1.15,.02-2.07,.75-2.5-.23-.44-.21-.95-.47-1.35l.57,.03c.08-.57,.12-.98,.13-1.42,0-.44-.04-.91-.11-1.49l.41,.23c.02-.66-1.65-.8-1.7-1.44l.84-.19c0-1.2,.78-2.33,.12-3.55,.12,.03,.36,.08,.38,.28,.04-.56,.78-2.06-.39-2,.75,.08,.21-1.2,0-1.9l.53,.19c-.61-.65-.81-.7-.87-1.5,.11-.17,.47-.07,.28,.14,.41-.54-.42-.57,.02-1.23l.29,.34c.17-.6-.03-.59-.37-1.02-.13-.44,.42-1.13,.93-1.1-.28-.15-.6-.59-.37-.92,.2,0,.28,.16,.32,.24,.64-.91-.21-1.68,.52-2.23,.18,.04,.28,.02,.36-.02-.25,.79-.45,1.43-.48,1.36,.5,.13,.76-.48,1.3,.22-.24-.61-.79-1.73-.35-2.28,.06-.02,.11-.03,.2-.03l.03,.08c.09-.13,.09-.27,.05-.42,.14-.17,.24-.28,.31-.47,.43,.06,.47-.65,.6-.96-.54-.16-.31-.54-.88-.31,.06-.04,.04,.08,0,.3,0,.05-.01,.11,0,.15l-.04-.04-.24,.8c-.19-.34-.32-.68,.09-.93-.28-.28-.57-.59-.7-.75,.89-.18,1.59-.87,2.09-.81,.06-1.07,.68-2.32-.04-3.32-.01-.33,.41-.2,.6-.23,.03,.2-.06,.38,.05,.52-.03-.65,.59-1.64-.03-2.07,.6-.55,.46,.66,.75-.33l.15,.22c1.89-1.33-.35-3.77,2-5.14-.15,.1-.22,.15-.35,.12,.85-.98,1.33-2.29,1.77-3.55,.45-1.27,.9-2.52,1.86-3.52,.46-.6,.05-.85-.12-1.39l.62,.07-.39-.95c-.1-1.19,2.03-1.2,1.59-2.88l-.45,.05c.12-.23,.19-.66,.25-1.02,.07-.35,.12-.66,.35-.59-.07-.08-.41-.23-.2-.46l.31-.03c-.19-.56-.53-1.12-.99-1.47-.29-.56-.09-.73,.11-.97,.18-.19,.29-.62-.69-1.19-.4-.14-.96-.08-1.34,.07-.39,.15-.64,.36-.55,.48,.23,.07,.53,.33,.45,.64l-.51,.05c-.14,.44-.33,.89-.37,1.32-.06,.44,.06,.86,.22,1.26,.19-.14,.35-.27,.53-.38-.06,.14-.12,.27-.21,.4-.03,0-.05-.02-.14-.04-.03,.22-.02,.23,.02,.18,.06-.06,.14-.18,.24-.27-.08,.08,.04-.04,.04-.04,.01-.02,.03-.04,.07-.06,.09-.06,0,0,.03-.02,.01,0-.13,.05,0,0,.07-.02,.15-.04,.22-.04l-.63,.15s-.08,0-.11,.01l.14-.02,.29-.05c.18-.02,.35-.11,.49,.01-.42,.2-.76,.06-.42,.33-.24,0-.39-.08-.48-.15,.28,.17,0,.57,.42,.88-.58,.1-.31,1.26-1.11,.9,.16,.19,.42,.88,.33,1.23-.77-.97-.52,1.23-1.52,.67,.72,.78-.22,1.76-.04,2.73-.05-.07-.16-.21-.09-.27-.25,.41-.57,.43-.85,.64,.7,.35,.59,1.1,.87,1.66-.92,.24-.71-.69-1.45-.8,.6,.22,.19,1.17,.75,1.2-.6,.22-.36,.26-1.05,.2,.86,.47-.01,.44,.38,1.02-.71,.38-.9-.24-.93,.52-.41,.17-.46-.54-.46-.54Zm-5.24,16.74h-.01l.08-.36-.07,.36Zm-.42,1.42c.07-.17,.13-.38,.2-.61,.2,0,.37,.12,.33,.26-.1-.11-.3,.19-.52,.35Zm4.63-1.73c0,.23-.13,.27-.25,.26,.03-.1,.05-.22,.06-.39l-.06-.05c.09,.05,.18,.11,.24,.17Z"/><path class="cls-2" d="M442.92,63.39s-.02-.06,0-.1c-.06,.03-.12,.05-.16,.08l.14,.13,.03-.12Z"/><path class="cls-2" d="M425.16,47.86l-.02,.03s.06-.04,.1-.04c-.03,.01-.05,0-.08,.01Z"/><polygon class="cls-2" points="435.66 85.66 435.8 85.67 435.69 85.55 435.66 85.66"/><path class="cls-2" d="M431.41,43.62s.06,.09,.12,.12c-.01-.03-.06-.07-.12-.12Z"/><path class="cls-2" d="M434.49,43.48c.15,.08,.29,.14,.44,.22-.19-.13-.33-.18-.44-.22Z"/><path class="cls-2" d="M437,44.01c.05-.09,.07-.17,.09-.23h0l-.08,.23Z"/><path class="cls-2" d="M426.69,72.91s-.1,.05-.14,.08c-.33,.21-.09,.1,.14-.08Z"/><path class="cls-2" d="M430.54,60.39c.21,0,.42,.01,.62,.06-.22-.19-.42-.32-.62-.06Z"/><path class="cls-2" d="M419.49,66.35h0Z"/><path class="cls-2" d="M431.72,60.96c-.11-.28-.34-.42-.56-.51,.15,.19,.34,.38,.56,.51Z"/><path class="cls-2" d="M448.04,38.23l.07-.04s-.05-.05-.06-.07v.11Z"/><path class="cls-2" d="M448.04,38.12l.02-.11s-.05,.06-.02,.11Z"/><path class="cls-2" d="M448.11,37.76c-.02,.09-.04,.17-.05,.25,.05-.05,.13-.1,.05-.25Z"/><path class="cls-2" d="M445.32,40.76l.11,.18s-.04-.11-.11-.18Z"/><path class="cls-2" d="M444.49,41.56c.23-.14,.83-.12,1.03-.48l-.08-.14c.07,.36-.97,.2-.94,.63Z"/><path class="cls-2" d="M439.39,41.44c.26,0,.53-.04,.8-.06-.21-.16-.46-.39-.15-.54-1.08-.34,.35,.42-.65,.61Z"/><path class="cls-2" d="M437.05,41.23c.42-.06,.05-.31,.09-.43-.35,.15-.43,.19-.09,.43Z"/><path class="cls-2" d="M423.45,54.22l-.51-.05c.08,.44,.2,0,.51,.05Z"/><path class="cls-2" d="M426.88,57.08c.04-.14,.09-.27,.14-.4l-.47,.12,.33,.29Z"/><polygon class="cls-2" points="425.86 61.25 425.66 61.18 426.38 61.51 425.86 61.25"/><path class="cls-2" d="M415.13,63.01l.39,.5c.17-.22-.11-.87-.39-.5Z"/><path class="cls-2" d="M402.28,71.16c-.39,.14-.64,.71-.38,1.08,.1-.46,.37-.83,.38-1.08Z"/><path class="cls-2" d="M439.29,90.83l-.05,.47c.1-.26,.2-.51,.26-.77-.07,.1-.13,.2-.2,.3Z"/></g></g></g></g></g></svg>