<?xml version="1.0" encoding="UTF-8"?><svg id="_イヤー_2" xmlns="http://www.w3.org/2000/svg" viewBox="0 0 504.55 85"><defs><style>.cls-1{fill:#e7f2f7;}.cls-2{fill:#fff;}.cls-3{fill:#96c8dc;}.cls-4{opacity:.5;}.cls-5{opacity:.9;}.cls-6{fill:#dcedf3;}.cls-7{fill:#c8e2ed;}.cls-8{fill:#d3e8f0;}.cls-9{fill:#f0f7fa;}.cls-10{fill:#bddde9;}.cls-11{fill:#b1d6e5;}</style></defs><g id="_イヤー_1-2"><g><g><path class="cls-3" d="M499.64,58.42c-.25,1.48-2.16,2.21-1.43,3.92,2.12-.07,4.23-.14,6.34-.22,.05-2.14-1.39-5.02-4.91-3.7Z"/><path class="cls-3" d="M425.53,45.59c4.97,1.7,7.76,2.01,9.27-.31-5.15-1.96-8.39-1.58-9.27,.31Z"/><path class="cls-3" d="M484.1,60.29c-2.15-.6-4.14-1.2-6.27-1.66-.82,.03-1.63,.06-2.44,.09-.55-1.32-1.11-2.63-1.66-3.81-8.35-3.99-3.59,3.06-9.37,1.52-1.31,.04-2.6,.09-3.9,.13-1.59,.72-3.02,1.44-4.61,2.16-.49,.02-.97,.03-1.46,.05-1.54-1.42-6.29-1.92-6.34,.21-2.4-2.32-.19-6.93-5.63-5.01-2.22,1.28-1.96,3.14-3.03,4.64-1.29,.31-2.42,.48-3.87,.8-.58-1.85-2.82-.97-3.93-.54-.07-1.33-.13-2.53-.2-3.86-.69-.64-1.52-1.15-2.37-1.79-6.13,1.14-11.49-1.61-17.89,.61-2.67-4.45,1.85-5.26,.26-7.75-.91-1.97-2.95-.43-4.65-1.71-.01-.27-.02-.4-.03-.67-1.81-3.54-1.86-4.61-1.91-5.67,1.79,.08,3.76,.27,5.56,.48,.49-.02,.98-.03,1.46-.05,2.12-.07,4.23-.14,6.35-.21,.94-.7,2.05-1.4,2.99-2.1,3.92,.13,7.92,2.13,11.71-.4,3.57-.25,7.3-.65,10.86-1.04,2.76-.23,4.27-2.55,6.83-3.43,1.19,.89,2.2,1.66,3.23,2.56,4.26,.39,7.27-1.18,10.99-1.71,2.61,.18,5.23,.22,7.84,.4,2.52-1.69,3.42-6.38-.35-7.06,.58-1.35,1.33-2.58,2.08-3.94,.36-2.55-3.22-2.56-6.3-2.32-2.94-.03-5.72-.21-8.65-.37-1.77,.32-3.71,.66-5.49,.85-.49,.02-.98,.04-1.47,.06-2.59,.35-5.18,.57-7.77,.93-1.79,.06-3.74,.12-5.53,.18-.88-1.3-1.75-2.47-2.47-3.79-1.3,.04-2.6,.09-3.83,1.47-1.62,.05-3.26,.11-4.72,.16-1.64-.21-3.11-.43-4.75-.51-.13,.67-.43,1.22-.72,1.89-4.4,.02-8.81-.1-13.21-.22-7.3,.51-14.61,1.03-21.92,1.41-1.46,.05-3.09,.1-4.72,.16-4.07,0-8.31-.12-12.39-.24-2.53-1.66-4.51-2.25-4.71,.16-1.63,.05-3.09,.1-4.71,.16-1.75,.72-3.51,1.45-5.43,2.18-.65,.02-1.46,.05-2.28,.08-10.44-3.52-18.1-.46-26.57-.44-10.19-1.79-24.62-.5-35.16,.52-.75,1.22-2.57,.62-3.87,.8-.33-.12-.5-.38-.84-.64-16.51-1.18-31.33,2.26-46.96-.94-1.24,1.24-3.55,.65-5.33,.84-5.81-2.2-14.67-.3-22.02-.59-2.41-2.45-8.3,.02-11.8-1.47-8.43,.82-15.8-3.2-24.29-.51-1.8-.07-3.6-.28-5.4-.35-3.33-1.35-9.05-1.83-10.89,.37-3.76-.41-7.37-.68-11.12-.96-2.36-1.52-6.91-1.37-8.49-.38-1.13,.04-2.11,.07-3.25,.11-3.19-1.76-5.46-1.68-7.87-.94-2.11,.07-4.07,.14-6.18,.21-2.11,.07-4.23,.14-6.18,.21-3.35-1.89-5.62-1.81-7.87-1.07-2.13-.32-4.27-.66-6.41-1.12-2.3-.32-4.75-.64-7.06-.96-4.7,.29-7.29-2.43-13.46-2.08-2.3-.46-4.6-.78-7.06-1.09-1.96-.07-3.2,1.17-5.3,1.51-3.19-2.02-8.76-2.5-13.4-.88-.25-4.93-5.65-2.34-8.75-2.24-2.73-2.44-8.52-.91-8.84-4.24-2.79-.31-2.73,.76-4.43,2.68-1.52-1.02-2.7-1.91-4.06-3.07,.41-1.48,1.14-3.24-.16-3.2-.75-1.84-1.92-2.6-3.44-3.62-2.54,1.42-3.05,4.1-6.64,7.16-.55-1.18-1.1-2.5-1.65-3.68-.44,4.28-7.38,2.25-7.58,4.66,.03,.54,.05,.94,.07,1.34-1.38,1.65-3.41,3.45-4.49,4.56,.07,1.33,.14,2.66,.2,3.86-.82,.02-1.63,.05-2.44,.08,.07,1.33,.13,2.53,.2,3.86-1.64,2.99-5.76,5.26-1.05,8.31-3.57,3.45-5.26,8.72-.3,10.28,.93,2.37,1.86,4.6,2.63,6.98-3.49,1.72-1.56,4.73-1.92,7.14,1.02,.77,2.2,1.66,3.22,2.42-3.03,1.31-3.1,3.18-2.84,5.17,1.85,1.27,4.58,.38,6.15-.74,.69,.77,1.23,1.69,1.75,2.48,2.89-.9,5.61-1.93,8.49-2.82,.81-.03,1.46-.05,2.28-.08,.44,2.26,.73,4.65,1.16,6.9,.19,.66,.55,1.32,.91,1.97,1.06,1.7,2.28,3.26,3.34,4.95,1,.5,2.16,.86,3.16,1.23,1.81,.34,3.78,.67,5.59,1.01,.87,1.17,4.09,.39,6.21,.45,2.93-.1,5.69-.19,8.62-.29,2.95,.43,5.74,.74,8.69,1.04,2.34,1.12,4.77,1.04,7.05,.96,2.63,.45,5.25,.76,7.87,1.07,1.63-.06,3.09-.11,4.72-.16,1.31,.22,2.62,.31,3.94,.53,5.1,1.03,8.09,2.13,11.8,1.47,4.72-.16,9.27-.31,13.99-.47,3.74-.12,7.32-.24,10.89-.37,1.32,.22,2.63,.44,3.94,.53,1.75,2.48,6.31,2.32,8.65,.38,.36,.66,.55,1.18,.9,1.84,3.9-.27,7.79-.67,11.68-1.06,2.92-.24,5.67-.59,8.59-.83,1.49,.48,3.15,1.09,4.81,1.71,1.46-.05,3.09-.1,4.52-.82,1.81,.47,3.78,.8,5.59,1.14,1.69,1.14,4.09,.26,6.21,.46,1.62-.06,3.25-.11,4.71-.16,6.48-.76,12.96-1.37,19.45-1.99,.5,.25,.99,.37,1.66,.61,2.58-.49,5.16-.97,7.74-1.6,.98-.04,2.11-.07,3.09-.1,3.97-2,5.59-2.19,6.93-1.43,1.31,.09,2.62,.31,3.93,.4,3.37-1.05,1.13,2.9,4.04,2.53,.93-.96,2.03-1.8,2.95-2.76,2.44-.09,6.68-3.17,7.19,.42,1.91-1,5.65-1.13,7.81-.27,2.89-.9,3.4-.38,7.06,1.1,.32-3.35,1.3-3.25,3.87-.8,5.75-2.33,12.29-1.75,17.04-1.24,2.25-.48,5.63-1.53,6.38,.45,6.36,.05,10.38-.88,16.46,.11-1.62,3.4,4.15,1.6,5.42,1.02,2.57-3.95,9.26-.44,12.34-4.15,.49-.02,.97-.03,1.63-.06,1.63,3.28,6.19,.19,7.8,2.94,2.04,1.66,5.34-.71,7.74-1.6,1.95-.06,3.74-.12,5.53-.19-.37-.92,.91-1.36,1.47-3.26,.97-.03,2.11-.07,3.09-.1,.55,1.31,1.1,2.5,1.65,3.81,5.66-.73,11.14-1.98,15.65,.13,5.3-1.51,10.02,1.8,15.7,1.34,.27-1.08-.62-2.52,.65-3.23,5.51-.59,10.73,6.04,14.86,.83,2.47,.45,4.78,1.04,7.25,1.62,1.77-.46,3.54-.92,5.3-1.51,.63-.42,1.09-.84,1.57-1.25,1.77-.33,3.55-.52,5.33-.85,2.92-.23,7.66,3.21,8.59-.96,1.49,.62,3,1.37,4.78,1.18-.74-1.85,1.99-2.6,2.83-5.3,5.53-.18,10.89-.37,16.42-.55,2.68,1.51,6.33,2.85,6.15-.74,11-1.44,21.85-2.87,32.69-4.31,.97-.03,2.11-.07,3.09-.1,4.52-.82,8.87-1.64,13.23-2.45-2.97-4.04-8.39-1.59-12.65-2.11ZM55.9,35.83c2.25,.16,4.6,.29,6.95,.31-2.29,.26-4.61,.27-6.95-.31Zm20.46-1.52c.94-.14,1.7-.01,2.35,.25-.79-.14-1.57-.22-2.35-.25Zm7.84,2.94l.08,.03c-1.03,.03-2.19,.15-2.5-.59,.68,.44,1.43,.72,2.42,.56Zm1.69,1.28c.06-.25,.05-.44,.02-.6,.49,.19,.97,.38,1.46,.57-.47-.01-.96,0-1.48,.03Zm-23.6-19.08h0c1.3-.05,2.44-.08,4.56-.15-1.52,.05-3.04,.1-4.56,.15Zm99.11,9.3c-2.14-.52-4.39-.95-6.52-1.49,4.16-.88,4.44,.87,6.52,1.49Z"/></g><g class="cls-5"><g class="cls-5"><path class="cls-1" d="M488.83,50.91c-.23,1.29-2.02,1.93-1.33,3.43,1.97-.06,3.94-.13,5.91-.19,.05-1.87-1.3-4.4-4.58-3.24Z"/><path class="cls-1" d="M459.37,16.59c-2.73-.03-5.33-.18-8.06-.32-1.65,.28-3.46,.57-5.12,.74-.46,.02-.91,.03-1.37,.05-2.41,.31-4.83,.5-7.24,.81-1.67,.05-3.48,.11-5.15,.16-.14,.12-.44,.37-.73,.61-1.68-.18-3.35-.36-5.03-.42-.59,.36-1.02,.73-1.45,1.1-.94-.44-2.03-.99-2.97-1.54-1.67,.05-3.48,.11-5.15,.17,0-.12-.02-.36-.03-.59-4.1,.01-8.2-.09-12.31-.19-6.8,.45-13.61,.9-20.42,1.23,.03,.58,.06,1.16,.09,1.75-1.36,.05-2.88,.09-4.39,.14-.03-.58-.06-1.17-.09-1.75-3.79,0-7.75-.11-11.55-.21-1.51,.05-3.03,.09-4.39,.14-3.98,2.23-3.04-.02-4.39,.14-1.63,.63-3.27,1.27-5.06,1.91-.61,.02-1.36,.04-2.12,.07-1.5,.4-2.84,.79-4.34,1.19-9.11,.05-14.67,1.05-22.54,1.3-4.88-.31-14.79-1.28-17.94,2.32-3.27-1.53-6.57-.84-9.61-.86,.24,1.74-2.22,1-3.55,1.75-.91,.02-1.97,.06-2.88,.09-1.51,.05-2.88,.09-4.39,.14-1.37,.05-2.88,.09-4.4,.14-4.84,.16-9.7,.32-14.54,.47-1.66,.29-3.31,.57-4.97,.74-1.68-.06-3.5-.24-5.19-.42-1.67-.07-3.35-.25-5.02-.31-1.85-.41-3.53-.71-5.22-1-.3,0-.46,.01-.76,.03-2.12-.05-4.41-.21-6.54-.37-2.43-.04-4.87-.2-7.3-.35-1.5,.28-2.86,.56-4.36,.72-1.93-2.04-5.08-1.36-7.33-.82-4.1-.11-8.2-.21-12.3-.2-1.55-.65-3.11-1.42-4.51-2.08-.27,.71-.53,1.54-.64,2.24-3.95-.11-7.74-.1-11.7-.21-.06-1.17-.12-2.22-.18-3.39-2.93-.84-3.78-2.68-4.57-3.24-1.67-.06-3.35-.24-5.03-.31-5.41,.99-8.39,2.02-10.15,.32-3.51-.36-6.86-.6-10.36-.84-4.93,1.44-7.97,1.3-7.91-.33-1.06,.03-1.97,.06-3.03,.1-2.42,.08-4.85,.15-7.27,.23-4.32,1.42-5.18-.42-5.81-.87-1.97,.06-3.94,.13-5.76,.19-2.42,.08-5,.15-7.27,.23-4.06,.59-3.38-.83-5.97-.98-1.34,.39-2.84,.79-4.33,1.3-.45,.02-.91,.03-1.36,.05-1.48-2.17-4.32-1.38-5.97-.98-.46,.01-.91,.03-1.37,.04-1.02-2.07-3.26-1.41-4.45-1.03-.49-.68-.98-1.37-1.64-2.17-1.94,.53-3.74,.94-5.69,1.35-1.51,.05-2.88,.09-4.39,.14-.49-.69-.99-1.49-1.48-2.17-1.49,.4-2.99,.8-4.33,1.19-2.72,.32-5.27,.64-8,.84-.23,1.29-.31,2.7-.54,3.99,1.24,.43,2.48,.97,3.72,1.51,.3,0,.46-.01,.76-.03,.39-1.18,.79-2.24,1.33-3.43,1.21-.04,2.27-.07,4.24-.13,2.04,1.22,4.43,.56,6,1.56,1.34-.51,2.83-.91,4.33-1.3,1.68,.18,3.35,.24,5.03,.42,.93,.32,2,.64,2.93,.96,1.51,2.75,3.6,1.99,5.27,2.17,.03,.47,.06,1.05,.09,1.63,.45-.02,.91-.03,1.51-.05,2.12-.18,4.22-.48,6.48-.79,3.01-.56,4.18,1.5,5.15,2.64,1.53,.18,3.06,.37,4.43,.45,.9-.15,1.95-.41,2.85-.68,.63,.45,1.1,.78,1.58,1.12,4.37-.49,8.75-.98,12.96-1.58,1.11,.78,2.05,1.45,3.15,2.12,1.8-.41,3.75-.82,5.7-1.23,1.97,.06,3.81,.23,5.79,.4,.76-.03,1.51-.05,2.27-.07,.02,.35,.04,.7,.06,1.05,2.11-.19,4.38-.49,6.48-.79-.02-.35-.04-.7-.05-1.05,4.2-.83,4.15,1.03,6.6,1.42,1.68,.18,3.51,.36,5.18,.42-1.2,2.96-4.81,3.65-6.43,1.84-.6,.02-1.06,.03-1.51,.05-1.47,.87-2.8,1.61-4.27,2.47,5.37,3.92,9.6,.63,13.94,2.36,4.68-.38,5.56,4.72,10.42,1.88,4.03-1.29,6.62-1.02,7.33,.82,4.25,.09,8.66,.19,13.06,.17,.95-2.02,2.56-.32,4.36-.72,8.26,4.06,15.83-1.9,24.09,2.04,3.55-1.75,5.44-.29,8.82,.3,2.41-.19,4.82-.51,7.24-.81,3.98,3.49,7.76-2.35,13-.88,2.26-.3,4.37-.61,6.49-.79,3.04,.25,7.56,2.44,8.06,.33,2.74,.14,3.33-2.91,7.18-1.98,4.17,1.38,9.86-.08,12.54,1.82,5.05-2.15,14.8,1.4,20.25-1.7,4.36,1.96,11.7,.33,17.48,.5,1.21-.04,2.42-.08,3.64-.12-.22-1.28,1.77-1.11,2.82-1.14,1.06,.09,2.4-.54,3.06,.49-.1,.94,1.99,.29,4.15-1.88,0-.12-.02-.35-.03-.58-1.25-.66-2.35-1.33-3.75-2.1,1.88-1.69,3.4-1.74,5-2.96,.33,.57,.52,1.15,.85,1.72,1.24,.43,2.48,.97,3.73,1.52,.86-.73,1.88-1.58,2.76-2.3,3.71-1.4,1.93,2.15,4.54,2.66,2.07-1,4.29-2,6.37-3,4.89,.66,8.69-2.03,13.03-.42,.56-.95,.96-1.9,1.36-2.84,1.52,.07,2.9,.26,4.43,.44,2.41-.31,4.82-.62,7.24-.81,1.46,1.7,5.74,2.27,5.76-.18,2.42-.08,4.85-.16,7.27-.23,1.56,.88,2.98,1.77,4.54,2.66-.95,2.13,2.3,3.31,4.54,2.66,.42-.71,.83-1.54,1.25-2.26,1.08,.32,2,.64,3.08,.95,.88-.61,1.91-1.11,2.79-1.72,.91-.03,1.97-.06,2.88-.09,1.52-.05,2.88-.09,4.39-.14,3.67,.47,4.45,.91,5.85,1.45,.04,.81,.08,1.52,.12,2.22,1.11,.78,2.05,1.45,3,2.24,3.96,.34,6.77-1.03,10.24-1.49,4.79-1.32,2.82-4.06,3.34-5.71,1.21-.04,2.42-.07,3.64-.11,.54-1.19,1.24-2.26,1.94-3.45,.33-2.23-3-2.24-5.87-2.03Z"/><path class="cls-1" d="M440.48,60.39c-2.95-1.31-4.45-.79-5.73,.65,2.5,1.32,5.9,2.5,5.73-.65Z"/><path class="cls-9" d="M425.24,47.91c-.64-.56-1.42-1.01-2.21-1.57-5.72,1-10.7-1.41-16.66,.53-2.48-3.89,1.73-4.61,.24-6.78-.85-1.72-2.75-.38-4.33-1.5-.01-.23-.02-.35-.03-.58-1.68-3.1-1.73-4.03-1.78-4.96-1.69-.3-3.37-.59-5.21-1-1.3,1.21-2.76,2.3-4.06,3.51,.9,2.66,4.3,.91,4.42,3.24,1.08,.32,2.01,.64,3.09,.95-4.7,2.95-9.13,2.39-13.06,2.75-.87,.73-1.89,1.58-2.76,2.3,.49,.69,.99,1.49,1.63,2.17,.92,.2,1.99,.29,2.91,.49,2.89,.03,5.78,.17,8.67,.31,1.37,.07,2.45,.27,3.67,.35,.66,1.14,1.18,2.3,1.69,3.33,1.55,.53,2.94,1.07,4.48,1.61,1.65-.52,3.29-.92,4.94-1.32,2.4-.54,3.98,.57,5.97,.98,.46-.02,.91-.03,1.36-.05,2.4-.54,4.96-.97,7.21-1.4-.06-1.16-.12-2.21-.18-3.38Z"/><path class="cls-7" d="M466.36,53.38c-3.36-.48-6.73-.96-10.24-1.43-2.75-.27-5.34-.53-8.09-.8-.45,.02-.91,.03-1.36,.04-.7,1.07-1.4,2.26-2.09,3.45-3.31,.57-1.81-2.51-3.82-3.27-2.59-.15-5.32-.18-8.06-.32-1.2,.27-2.25,.42-3.61,.7-.55,1.07-1.24,2.26-1.94,3.45-3.48,.23-7.56,.47-8.94-2.52-.45,.02-.91,.03-1.36,.05-1.99-.4-3.57-1.52-5.97-.98-1.65,.4-3.29,.81-4.94,1.32-1.54-.54-2.94-1.07-4.48-1.61-1.67,.05-3.33,.11-5.15,.16-1.11-.9-1.22-2.88-.21-3.84-2.89-.14-5.78-.28-8.67-.31,.1,1.87,.2,3.73,.3,5.6-5.4,4.02-12.3-.19-19.6,2.26-7.78,2.11-14.47-.94-21,1.83,11.47,1.73,22.91-.02,31.35,1.81-.01-.24-.02-.35-.03-.58,5.19,.54,10.7-1.51,16.79-1.12,3.38,.71,6.32,1.9,7.24-.81,1.21-.04,2.42-.08,3.63-.12,.47,.22,.94,.44,1.4,.54,1.81-.18,3.47-.47,5.12-.75,.05,1.05,.1,1.86,.15,2.8,4.14,.91,5.4,1.69,6.66,2.58,5.15-.16,10.15-.32,15.3-.49,1.29-1.44,2.78-1.96,5.73-.65,10.25-1.26,20.35-2.51,30.45-3.77-1.58-1.12-3-2.24-4.58-3.24Z"/><path class="cls-10" d="M419.45,61.52c-1.27-.89-2.52-1.67-6.66-2.58-.05-.94-.1-1.75-.15-2.8-1.66,.28-3.31,.57-5.12,.75-.46-.11-.93-.33-1.4-.54-1.21,.04-2.43,.08-3.63,.12-.92,2.71-3.86,1.52-7.24,.81-6.09-.39-11.6,1.65-16.79,1.12,.01,.23,.02,.35,.03,.58-8.44-1.84-19.88-.08-31.35-1.81,6.53-2.77,13.22,.28,21-1.83,7.3-2.45,14.21,1.77,19.6-2.26-.1-1.87-.2-3.73-.3-5.6-.92-.2-1.99-.29-2.91-.49-1.18,.62-2.36,1.24-3.55,1.75-2.26,.31-.84-1.61-2.39-2.14-1.97,.06-3.79,.12-5.75,.19-4.09,.13-8.18,.26-12.43,.39-2.17-.87-5.32-.18-8.06-.32-1.34,.51-2.84,.91-4.18,1.3-3.7,1.75-5.36,2.04-6.6,1.38-1.34,.51-2.83,1.14-4.16,1.77-1.08-.32-2.01-.64-3.09-1.07-1.64,.52-3.29,.92-4.94,1.33-2-.53-4-1.04-6-1.45-1.81,.18-3.77,.47-5.73,.65-1.21,.04-2.42,.08-3.64,.11-1.94,3.45-2.82-1.54-7.27,.23-.17-.35-.49-.68-.82-1.03-2.84-2.01-6.55-.49-8.7-.89-1.49,.63-2.82,1.26-4.3,1.89-1.51,.16-2.86,.44-4.37,.6-2.14-.28-4.43-.56-6.57-.84-.3,.01-.45,.01-.75,.02-2.72,.2-5.28,.52-8,.84-4.84,.39-5.23-1.24-8-2.08-4.18,1.3-5.02-.19-6.69-.26-4.03,1.18-5.25,1.22-6.46,1.26-3.33,.11-6.82,.22-10.15,.32-.94-.55-1.75-1.58-2.97-1.54-.61,.02-1.06,.03-1.51,.05-1.36,.16-2.86,.44-4.37,.72-1.79,.52-5.2,2.03-7.85,.72-3.02,.33-5.88,.65-8.76,.86-3.23-.71-5.51-.76-8.87-1.35-2.14-.29-4.28-.56-6.58-.96-6.92,1.16-8.54-.78-13.08-.63-2.45-.51-4.91-1.01-7.37-1.52-2.29-.27-4.43-.56-6.57-.84-.88,.61-2.74-.26-4.39,.14-8.71,1.79-13.3,1-17.49-.61-2.44-.27-5.03-.54-7.33-.94-1.52,.05-3.03,.1-4.39,.14-3.86,1.52-4.37,.61-5.91,.19-.02-.35-.04-.7-.06-1.05-2.12,.07-4.25,.14-6.52,.21-.17-.23-.47-.33-.79-.56-1.35,.27-2.86,.44-4.21,.72-.62-.22-1.08-.32-1.55-.54-1.67-.06-3.5-.24-5.18-.42-.9,.26-1.95,.53-2.85,.68-1.37-.08-2.89-.26-4.42-.44-2.88,.09-5.76,.18-8.63,.27,3.86,1.28,6.27,3.77,8.73,1.47,1.52,.07,3.05,.25,4.42,.32,2.94,1.08,5.98,.98,8.82,.3,.5,.92,1.01,1.84,1.51,2.75,1.06-.03,1.97-.06,3.03-.1,.6,2.67,2.69,2.02,4.37,2.08,.63,.57,1.12,1.13,1.61,1.7,1.69,.3,3.37,.59,5.21,.88,1.33-.74,2.13-2.75,4.13-2.35,.59,2.55-.95,7.85,4.79,7.21,5.72-.77,11.87,.67,18.18-.58,1.89,1.22,3.18,2.7,6.63,2.01-.22-1.39,1.75-1.22,2.97-1.26,3.49,0,4.19,1.62,7.94,.92,.59-.25,1.04-.38,1.49-.63,2.36,1.67,2.1,2.38,3.78,2.68-3.4,1.62-3.91,.59-5.12,.75-.45,.01-.91,.03-1.36,.04-1.5,.4-2.84,.79-4.34,1.19,1.52-.05,2.88-.09,4.39-.14,.53,1.38,1.05,2.65,1.58,3.92,.76-.02,1.51-.05,2.27-.07,4.17-1.42,6.24-2.42,8.46-3.66,.6-.02,1.06-.03,1.51-.05,1.56,.77,2.96,1.42,4.51,2.08,.45-.13,.89-.38,1.34-.51,1.23,.31,2.46,.62,3.69,.93,1.52-.05,3.03-.09,4.39-.14,.31,.22,.48,.45,.79,.56,1.51-.05,2.88-.09,4.39-.14,1.19-.39,2.39-.78,3.57-1.28-.06-1.05-.12-2.22-.18-3.26,.43-.48,.86-.84,1.3-1.21,.31-.01,.61-.02,.76-.02,2.48,1.09,4.97,2.06,7.45,3.15-.13,.35-.42,.71-.7,1.08,3.03-.22,5.89-.54,8.76-.75,1.54,.42,2.93,.96,4.48,1.49,2.56-.44,5.26-.87,7.96-1.42,5.54,1.34,9.51,1.92,12.3,.19,2.72-.21,5.28-.52,8-.84,.75-.02,1.51-.05,2.12-.07,1.08,.2,2,.41,3.07,.49,1.19-.39,2.23-.77,3.58-1.16,1.11,.78,2.36,1.56,3.02,2.71,2.11-.31,4.37-.61,6.49-.79,7.44,.11,15.03,.22,22.63,.33,2.44,.15,4.05,1.97,6.64,2.12,.45-.02,.91-.03,1.51-.05,1.33-.63,2.81-1.26,4.14-1.88,3.48-.11,6.82-.22,10.15-.32,2.28,.16,4.42,.32,6.7,.37,.91-.03,1.97-.06,2.88-.09,18.17-.7,36.34-1.51,54.51-2.32,3.78-3.04,3.15-.68,4.39-.14,4.22-.48,8.6-.97,12.97-1.46,2.12,.05,4.41,.21,6.54,.26Z"/><path class="cls-1" d="M399.76,48.14c-1.22-.08-2.29-.28-3.67-.35-1.01,.96-.9,2.95,.21,3.84,1.81-.06,3.48-.11,5.15-.16-.51-1.03-1.03-2.19-1.69-3.33Z"/><path class="cls-6" d="M442.98,24.94c-1.39-.54-2.18-.98-5.85-1.45-1.51,.05-2.87,.09-4.39,.14-.91,.03-1.97,.06-2.88,.09-.32-.34-.49-.68-.82-1.14-.71,.95-1.41,1.91-1.97,2.86-1.08-.32-2.01-.64-3.08-.95-.42,.71-.83,1.54-1.25,2.26-2.24,.65-5.49-.53-4.54-2.66-1.57-.88-2.98-1.77-4.54-2.66-2.43,.08-4.85,.16-7.27,.23-.02,2.45-4.3,1.89-5.76,.18-2.42,.19-4.83,.51-7.24,.81-1.53-.19-2.91-.38-4.43-.44-.4,.94-.81,1.9-1.36,2.84-4.34-1.61-8.14,1.08-13.03,.42-2.07,1-4.29,2-6.37,3-2.61-.5-.83-4.06-4.54-2.66-.88,.72-1.89,1.58-2.76,2.3-1.25-.54-2.49-1.09-3.73-1.52-.33-.57-.51-1.15-.85-1.72-.46-.1-.93-.32-1.54-.53-1.15,1.2-2.15,2.4-3.45,3.49,1.41,.89,2.52,1.79,3.78,2.68-2.15,2.17-4.25,2.82-4.15,1.88-.66-1.03-1.99-.4-3.06-.49-1.06,.03-3.04-.13-2.82,1.14-1.21,.04-2.42,.08-3.64,.12-5.78-.17-13.12,1.46-17.48-.5-5.45,3.09-15.2-.45-20.25,1.7-2.68-1.9-8.37-.43-12.54-1.82-3.85-.93-4.43,2.12-7.18,1.98-.49,2.11-5.01-.08-8.06-.33-2.12,.18-4.22,.49-6.49,.79-5.24-1.47-9.02,4.37-13,.88-2.42,.31-4.83,.62-7.24,.81-3.37-.59-5.27-2.05-8.82-.3-8.26-3.94-15.83,2.02-24.09-2.04-1.8,.4-3.41-1.3-4.36,.72-4.4,.02-8.81-.07-13.06-.17-.7-1.84-3.3-2.11-7.33-.82-4.85,2.84-5.74-2.27-10.42-1.88-4.34-1.73-8.57,1.56-13.94-2.36,1.47-.86,2.8-1.6,4.27-2.47,.45-.02,.91-.03,1.51-.05,1.62,1.81,5.22,1.12,6.43-1.84-1.67-.07-3.5-.24-5.18-.42-2.15-.52-4.44-.91-6.6-1.42,.01,.35,.04,.7,.05,1.05-2.1,.3-4.37,.61-6.48,.79-.02-.35-.04-.7-.06-1.05-.76,.02-1.51,.05-2.27,.07-1.37-.19-2.9-.37-4.28-.45-.61,.02-1.06,.04-1.51,.05-1.95,.42-3.9,.83-5.7,1.23-.64-.68-1.13-1.37-1.63-2.16-.46,.01-.91,.02-1.52,.05-4.21,.6-8.59,1.09-12.96,1.58-.47-.34-.95-.67-1.58-1.12-.9,.26-1.94,.53-2.85,.68,.03,.58,.06,1.16,.09,1.63-.86,.84-1.89,1.58-2.76,2.43,.8,.67,1.6,1.46,2.24,2.14,4.45,1.03,9.02,4.04,13.45,4.59,1.56-2.15,3.9-.82,7.97-1.42,.02,.47,.04,.82,.06,1.17,3.81,.23,7.76,.45,11.58,.8,2.53-.9,1.9,1.46,3.15,2.12,1.21-.04,2.27-.07,3.63-.11,3.09,.95,6.94,2,9.57,3.08,16.94-1.12,30.66-.04,46.67,1.32,4.1,.11,4.09-2.93,10.15-.32,1.67,.06,3.5,.24,5.17,.3,5.99-1.48,9.66-.89,12.3-2.61,4.13,.69,3.03,2.82,4.39,2.66,1.06-.03,1.97-.06,3.03-.1,4.03-1.18,5.02,.19,6.55,.38,4.02-1.41,4.56,.09,5.76-.18,.3,0,.45-.02,.76-.02,2.88-.09,5.75-.18,8.78-.28,.61-.02,1.37-.04,2.12-.07,2.09-.65,4.33-1.3,6.43-1.84,2.88,.03,5.92,.16,8.81,.19,1.21-.03,2.42-.08,3.64-.11,0-.11-.02-.35-.03-.47,7.51-1.52,17.88-.45,23.87-1.93,3.87,1.4,8.5-.03,11.7,.21,.95-2.13,3.75-.81,5.66-1.93,1.51-.17,2.86-.44,4.37-.61,4.82-.62,11.26,.58,14.45-2.21,2.47,.74,4.93,1.36,7.39,1.98,.43-.48,.85-1.07,1.43-1.68,2.12-.07,2.88-.09,3.64-.11,.11-.71-.71-1.85,.49-2.24,3.65,.12,4.92,1.13,7.45,3.15,1.49-.52,2.99-.91,4.33-1.31,1.23,.19,2.45,.27,3.67,.47,.8,.67,1.6,1.46,2.4,2.14,1.3-1.21,2.76-2.31,4.06-3.51,1.84,.41,3.53,.7,5.21,1,1.67,.07,3.5,.24,5.18,.42,.46-.02,.91-.03,1.36-.05,1.97-.06,3.94-.12,5.91-.18,.88-.61,1.91-1.23,2.78-1.84,3.65,.11,7.38,1.86,10.91-.35,3.33-.22,6.8-.57,10.12-.91,2.57-.2,3.98-2.23,6.36-3-.04-.7-.08-1.4-.12-2.22Z"/><path class="cls-8" d="M395.61,38.81c-1.21,.16-2.25,.42-3.6,.7-2.39,.78-2.79-1.08-3.76-2.21-1.35,.27-2.86,.56-4.21,.72-1.1-.67-2.05-1.45-3.15-2.12-.03-.58-.06-1.17-.09-1.63-2.53-2.02-3.8-3.03-7.45-3.15-1.19,.39-.37,1.53-.49,2.24-.76,.02-1.52,.05-3.64,.11-.57,.6-.99,1.2-1.43,1.68-2.46-.62-4.92-1.24-7.39-1.98-3.19,2.79-9.63,1.59-14.45,2.21-1.51,.16-2.86,.44-4.37,.61-1.91,1.11-4.71-.2-5.66,1.93-3.2-.24-7.83,1.19-11.7-.21-5.99,1.48-16.37,.41-23.87,1.93,0,.11,.02,.35,.03,.47-1.22,.04-2.43,.08-3.64,.11-2.88-.02-5.92-.16-8.81-.19-2.1,.54-4.34,1.19-6.43,1.84-.76,.02-1.51,.05-2.12,.07-3.03,.1-5.91,.19-8.78,.28-.31,0-.46,.02-.76,.02-1.2,.27-1.74-1.23-5.76,.18-1.53-.18-2.51-1.55-6.55-.38-1.06,.04-1.97,.06-3.03,.1-1.36,.16-.26-1.97-4.39-2.66-2.64,1.72-6.32,1.13-12.3,2.61-1.67-.07-3.5-.24-5.17-.3-6.06-2.61-6.05,.43-10.15,.32-16.01-1.36-29.72-2.44-46.67-1.32-2.63-1.08-6.48-2.13-9.57-3.08-1.36,.04-2.43,.08-3.63,.11-1.25-.66-.62-3.02-3.15-2.12-3.81-.35-7.77-.57-11.58-.8-.02-.35-.04-.7-.06-1.17-4.07,.6-6.41-.73-7.97,1.42-4.43-.56-8.99-3.57-13.45-4.59-.64-.68-1.45-1.47-2.24-2.14,.87-.85,1.89-1.58,2.76-2.43-.02-.46-.06-1.04-.09-1.63-1.37-.08-2.9-.26-4.43-.45-.97-1.14-2.14-3.2-5.15-2.64-2.26,.3-4.36,.61-6.48,.79-.6,.02-1.06,.03-1.51,.05-1.2,.27-2.41,.42-3.6,.7-4.6-.79-8.32-2.42-13.94-2.36-3.95-.11-7.9-.1-11.7-.22-.3,.01-.45,.02-.76,.03,.03,.58,.06,1.17,.09,1.63,1.54,.42,2.92,.72,4.46,1.02,.03,.58,2.32,.86,1.63,2.17-5.49-.41-6.33,3.59-10.79,2.56-1.07-.08-1.99-.29-3.06-.37-2.37,1.01-4.75,2.02-7.12,3.03,3.2,.25,6.4,.5,9.6,.75,6.55,.49,14.31,.83,20.27-1.23,3.76-.59,4.41,3.01,7.42,2.56,4.34,1.61,8.67,3.23,13.43,4.13,.66,.92,1.46,1.82,2.27,2.74,1.67,.05,3.35,.24,5.18,.41,.15,0,.46-.01,.61-.02,1.92-.99,3.84-1.99,5.76-2.98,.82,1.26,1.5,2.52,2.33,3.78-1.34,.62-2.82,1.25-4.3,1.88,.02,.47,.06,1.05,.09,1.63,.31,.22,.62,.33,.79,.56,2.27-.07,4.39-.14,6.52-.21,1.65-.29,3.47-.46,5.12-.75,.18,.58,.51,1.15,.84,1.61,1.36-.04,2.87-.09,4.39-.14,2.3,.4,4.89,.66,7.33,.94,4.19,1.62,8.78,2.41,17.49,.61,1.65-.4,3.51,.47,4.39-.14,2.14,.28,4.28,.57,6.57,.84,2.42-.19,4.83-.5,7.24-.81,4.42,.44,8.7,.89,13.12,1.34,1.2-.27,2.4-.43,3.6-.7,1.94-.65,2.93,.84,4.46,1.02,5.31-.05,10.63,.01,16.08-.04,4.12,.33,8.23,.55,12.34,.77,.01,.23,.02,.35,.03,.58,.45-.02,.91-.03,1.51-.05,1.35-.39,2.84-.79,4.33-1.3,2.89,.14,6.19-.66,8.66,.31,.43-.36,.87-.73,1.45-1.21,1.7,.53,3.4,1.06,5.09,1.59,1.2-.27,2.4-.43,3.6-.69,1.09,.55,1.76,1.69,3.12,1.53,1.19-.39,2.23-.77,3.57-1.16,1.35-.28,2.44,.16,3.67,.47,2.27-.31,4.83-.62,7.25-.82,1.36-.04,2.88-.09,4.24-.14,.02,.36,.04,.7,.06,1.05,1.52,.18,3.06,.37,4.42,.44,0-.11-.02-.35-.03-.58,1.53,.19,2.9,.38,4.43,.44,1.51-.05,2.88-.09,4.39-.14,2.15,.4,5.85-1.12,8.7,.89,1.64-.64,3.42-1.27,5.06-1.91,1.88,.99,4.7-.15,6.58,.96,.87-.73,1.89-1.58,2.76-2.31,1.09,.55,2.03,.98,2.97,1.54,2.27-.19,4.37-.49,6.63-.8,.01,.23,.02,.47,.03,.58,1.36-.05,2.88-.09,4.24-.13,2.42-.08,5-.16,7.27-.23-.02-.35-.04-.7-.06-1.05-4.21-2.2-7.54-2.09-11.63-1.97-.02-.35-.04-.7-.06-1.05,6.43-1.84,11.97-.38,14.45-2.21,5.87-.77,15.38-1.77,21.84-.11,.87-.73,1.89-1.58,2.76-2.31,.77,.21,1.38,.31,2.16,.51,1.5-.28,2.86-.44,4.36-.72,.04,.7,.08,1.51,.12,2.22,1.73,1.23,3.63,2.57,5.36,3.8-.73,.61-1.46,1.1-2.19,1.7,1.55,.54,.13,2.45,2.39,2.14,1.19-.5,2.37-1.13,3.55-1.75-.64-.68-1.14-1.48-1.63-2.17,.87-.73,1.88-1.58,2.76-2.3,3.93-.36,8.36,.2,13.06-2.75-1.08-.32-2.01-.64-3.09-.95Z"/><path class="cls-1" d="M388.8,33.43c-1.22-.2-2.44-.28-3.67-.47-1.34,.4-2.84,.79-4.33,1.31,.02,.46,.06,1.05,.09,1.63,1.1,.67,2.05,1.45,3.15,2.12,1.36-.16,2.86-.44,4.21-.72,1.04-.5,1.92-1.11,2.94-1.73-.8-.68-1.6-1.47-2.4-2.14Z"/><path class="cls-1" d="M159.09,68.16c-.92-.09-1.99-.29-2.91-.49-2.87,.32-5.89,.65-8.76,.86,.03,.58,.06,1.17,.09,1.63-2.12,.07-4.39,.14-6.52,.21-.43,.48-.86,.84-1.45,1.21,1.63,2.17,5.88,2.03,8.06,.33,.33,.57,.51,1.03,.84,1.61,3.63-.23,7.25-.58,10.88-.93,2.72-.21,5.28-.52,8-.72,.09-1.17,.33-2.34,.58-3.4-3.04-.14-5.92-.17-8.82-.3Z"/><path class="cls-7" d="M61.18,22.47c.94-5.05-10.29,.44-7.63-6.41,.25-.94,.36-1.88,.61-2.82-.04-.7-.08-1.51-.12-2.22-1.52,.05-2.88,.1-4.39,.14-.5-.8-.99-1.48-1.49-2.28-2.01-.64-4.02-1.28-6.03-2.03-1.97,2.86-1.91,4.03-1.85,5.08,1.24,.43,2.47,.74,3.7,1.05-.24,1.29-.47,2.7-.55,3.98,0,.12,.02,.35,.02,.47,.06,1.05,.1,1.86,.15,2.8-1.67,.05-3.48,.11-5.15,.17-.12,.59-.39,1.18-.51,1.77-.52,1.53-.9,2.94-1.28,4.47,2.44,.16,4.87,.32,7.31,.35,.15,0,.45-.01,.76-.02-.05-.93-.1-1.87-.15-2.8,.74-.38,1.33-.74,2.06-1.24,2.01,.75,4.02,1.39,6.03,2.14-.52,1.65-.88,3.3-1.24,5.06,0,.12,.02,.35,.03,.58,.2,.93,.55,1.85,.91,2.77-.73,.49-1.46,1.1-2.19,1.71-.09,1.17-.33,2.23-.42,3.4,0,.12,.02,.35,.03,.58,1.38,.31,2.91,.61,4.3,.92,2.73,.03,3.66-2.45,4.19-3.99-.05-.93-.1-1.86-.15-2.8,.27-.59,.39-1.18,.66-1.77-.81-.91-1.61-1.82-2.27-2.73,.11-.7,.37-1.53,.49-2.24-.17-.34-.49-.68-.67-1.14,1.62-.99,3.24-1.86,4.85-2.96Z"/><path class="cls-1" d="M51.64,5.96c-1.3,1.09-2.32,1.94-3.48,2.91,.5,.8,.99,1.48,1.49,2.28,1.52-.05,2.88-.09,4.39-.14,.41-.83,.83-1.54,1.39-2.38-1.41-.89-2.52-1.67-3.79-2.68Z"/><path class="cls-1" d="M27.72,35.32c.81-1.89,1.62-3.79,2.58-5.68-.02-.35-.04-.71-.06-1.05-.33-.57-.67-1.15-.85-1.73,.03-2.33,.2-4.79,.37-7.25,.81-1.77,2.36-4.04-.21-3.96-.76,.02-1.52,.05-2.28,.07,.06,1.16,.12,2.21,.18,3.38-1.53,2.62-5.37,4.61-.97,7.27-3.33,3.02-4.9,7.63-.28,9,.87,2.07,1.73,4.03,2.45,6.11,.76-.02,1.51-.05,2.27-.07,.43-.36,.87-.73,1.3-1.21-1.45-1.59-3.05-3.17-4.51-4.88Z"/><path class="cls-9" d="M459.67,22.18c-.52,1.66,1.45,4.4-3.34,5.71,2.44,.16,4.87,.2,7.31,.35,2.35-1.48,3.19-5.59-.33-6.18-1.21,.04-2.43,.08-3.64,.11Z"/><path class="cls-9" d="M466.24,51.17c-.52-1.15-1.04-2.31-1.55-3.34-7.78-3.49-3.35,2.67-8.73,1.33-1.22,.04-2.42,.08-3.64,.11-1.48,.63-2.81,1.26-4.3,1.89,2.75,.26,5.34,.53,8.09,.8,3.51,.47,6.88,.95,10.24,1.43-.06-1.17-.09-1.75-.12-2.21Z"/><path class="cls-9" d="M440.75,51.39c-2.23-2.03-.18-6.07-5.24-4.39-2.07,1.12-1.83,2.75-2.82,4.06,2.74,.14,5.47,.18,8.06,.32Z"/><path class="cls-9" d="M430.14,14.72c-1.21,.04-2.42,.08-3.57,1.28-1.51,.05-3.03,.1-4.39,.14-1.53-.19-2.9-.38-4.42-.44-.12,.59-.4,1.06-.67,1.65,0,.23,.02,.47,.03,.59,1.66-.06,3.48-.12,5.15-.17,.94,.55,2.03,1.1,2.97,1.54,.43-.36,.86-.73,1.45-1.1,1.68,.06,3.35,.24,5.03,.42,.29-.24,.58-.49,.73-.61-.82-1.14-1.63-2.17-2.3-3.31Z"/><path class="cls-9" d="M428.43,39.4c-4.8-1.71-7.81-1.39-8.64,.28,4.63,1.49,7.23,1.75,8.64-.28Z"/><path class="cls-9" d="M412.91,61.26c-4.38,.49-8.75,.98-12.97,1.46-.58,.49-1.02,.85-1.45,1.21-.93-.31-2.01-.63-2.94-1.07-18.17,.81-36.34,1.62-54.51,2.32,.52,1.15,1.03,2.18,1.54,3.34,5.28-.64,10.38-1.73,14.58,.12,4.93-1.32,9.34,1.57,14.63,1.17,.25-.95-.58-2.2,.61-2.82,5.13-.51,9.99,5.29,13.84,.73,2.3,.39,4.45,.91,6.76,1.42,1.65-.4,3.3-.8,4.94-1.32,.59-.37,1.02-.73,1.46-1.1,1.65-.29,3.31-.46,4.97-.74,2.72-.2,7.13,2.81,8-.84,1.39,.54,2.79,1.2,4.45,1.03-.69-1.62,1.85-2.28,2.64-4.64-2.13-.05-4.42-.21-6.54-.26Z"/><path class="cls-9" d="M384.35,18.39c-1.36,.04-2.88,.09-4.39,.14,.03,.58,.06,1.17,.09,1.75,1.51-.05,3.03-.09,4.39-.14-.03-.58-.06-1.16-.09-1.75Z"/><path class="cls-9" d="M368.41,18.32c-2.35-1.45-4.2-1.97-4.39,.14,1.36-.05,2.88-.09,4.39-.14Z"/><path class="cls-9" d="M352.45,20.57c-9.73-3.08-16.86-.4-24.75-.38-9.49-1.57-22.94-.44-32.76,.46-.7,1.07-2.39,.54-3.6,.7-.31-.11-.47-.33-.79-.56-15.38-1.03-29.19,1.98-43.75-.83-1.15,1.08-3.31,.57-4.97,.74-5.42-1.93-13.67-.26-20.52-.51-2.24-2.14-7.74,.02-10.99-1.29-7.85,.72-14.72-2.8-22.63-.45,.79,.56,1.64,2.4,4.57,3.24,.06,1.17,.12,2.22,.18,3.39,3.96,.11,7.75,.1,11.7,.21,.12-.7,.38-1.53,.64-2.24,1.4,.66,2.96,1.43,4.51,2.08,4.1-.01,8.2,.09,12.3,.2,2.25-.54,5.4-1.22,7.33,.82,1.51-.16,2.86-.44,4.36-.72,2.43,.16,4.87,.32,7.3,.35,2.13,.17,4.42,.32,6.54,.37,.31-.01,.46-.02,.76-.03,1.69,.3,3.37,.59,5.22,1,1.67,.06,3.35,.24,5.02,.31,1.68,.18,3.51,.35,5.19,.42,1.66-.17,3.31-.45,4.97-.74,4.84-.15,9.7-.31,14.54-.47,1.52-.05,3.03-.09,4.4-.14,1.51-.05,2.88-.09,4.39-.14,.91-.03,1.97-.06,2.88-.09,1.33-.74,3.79,0,3.55-1.75,3.03,.02,6.34-.67,9.61,.86,3.15-3.6,13.06-2.63,17.94-2.32,7.87-.25,13.43-1.24,22.54-1.3,1.5-.4,2.84-.79,4.34-1.19Z"/><path class="cls-9" d="M331.46,64.91c-3.33,.1-6.67,.21-10.15,.32-1.33,.62-2.81,1.26-4.14,1.88,1.52,2.87,5.77,.17,7.27,2.57,1.9,1.46,4.97-.62,7.21-1.4,1.82-.06,3.49-.11,5.15-.16-.35-.81,.84-1.19,1.37-2.85-2.28-.04-4.42-.21-6.7-.37Z"/><path class="cls-9" d="M286.38,64.7c-2.12,.18-4.38,.49-6.49,.79-.73,.37-1.47,.74-2.21,1.12-3.69-.94-2.29-2.96-4.39-2.67-1.07-.08-1.99-.29-3.07-.49-.6,.02-1.37,.05-2.12,.07-2.72,.32-5.28,.63-8,.84-2.79,1.72-6.77,1.15-12.3-.19-2.7,.55-5.41,.99-7.96,1.42-1.55-.54-2.94-1.08-4.48-1.49-2.87,.21-5.74,.53-8.76,.75-2.88,.09-5.76,.18-8.63,.27-1.19,.5-2.38,.89-3.57,1.28-1.52,.05-2.88,.09-4.39,.14-.31-.11-.48-.34-.79-.56-1.36,.04-2.88,.09-4.39,.14-1.3,1.21-2.76,2.31-4.06,3.52-1.79,.53-2.64-1.09-4.42-.44-1.97,.06-3.94,.13-5.91,.19-1.37,.04-2.88,.09-4.25,.13-.34-.69-.69-1.49-.88-2.19-.76,.02-1.51,.05-2.27,.07-2.11,.41-4.21,.84-6.46,1.37-2.74-.15-5.33-.3-8.06-.33-.15,0-.45,.02-.6,.02-.25,1.06-.48,2.23-.58,3.4,1.39,.42,2.94,.96,4.48,1.49,1.36-.05,2.88-.09,4.21-.72,1.69,.41,3.53,.7,5.21,1,1.57,1,3.81,.23,5.79,.4,1.51-.05,3.02-.1,4.39-.14,6.04-.66,12.07-1.2,18.12-1.75,.46,.22,.93,.32,1.54,.54,2.41-.43,4.81-.85,7.21-1.4,.91-.03,1.97-.06,2.88-.09,3.7-1.75,5.21-1.92,6.46-1.25,1.22,.08,2.44,.27,3.66,.35,3.14-.92,1.05,2.54,3.76,2.21,.86-.84,1.89-1.58,2.75-2.42,2.27-.08,6.22-2.77,6.7,.37,1.78-.87,5.26-.99,7.27-.23,2.69-.78,3.17-.33,6.57,.96,.3-2.93,1.21-2.84,3.61-.7,5.35-2.04,11.45-1.53,15.87-1.09,2.1-.42,5.24-1.34,5.94,.39,5.92,.05,9.67-.77,15.33,.1-1.51,2.97,3.87,1.4,5.05,.89,2.4-3.46,8.63-.39,11.49-3.63-2.59-.15-4.21-1.97-6.64-2.12-7.59-.11-15.19-.22-22.63-.33Z"/><path class="cls-9" d="M182.66,18.14c-3.1-1.19-8.43-1.6-10.15,.32,1.76,1.7,4.74,.67,10.15-.32Z"/><path class="cls-9" d="M162.14,17.63c-2.2-1.33-6.44-1.2-7.91-.33-.06,1.64,2.98,1.78,7.91,.33Z"/><path class="cls-9" d="M151.2,17.39c-2.97-1.54-5.09-1.47-7.33-.82-1.97,.07-3.79,.12-5.76,.18,.63,.45,1.49,2.29,5.81,.87,2.42-.08,4.85-.16,7.27-.23Z"/><path class="cls-9" d="M132.36,16.94c-3.12-1.65-5.24-1.59-7.33-.94-1.99-.28-3.98-.57-5.97-.98-2.14-.28-4.43-.56-6.57-.84-4.38,.26-6.79-2.12-12.54-1.82-2.14-.4-4.29-.68-6.58-.96-1.82-.06-2.98,1.03-4.94,1.32,.49,.68,.99,1.49,1.48,2.17,1.51-.05,2.88-.09,4.39-.14,1.95-.41,3.75-.82,5.69-1.35,.65,.8,1.14,1.48,1.64,2.17,1.19-.39,3.43-1.05,4.45,1.03,.45-.01,.91-.03,1.37-.04,1.65-.4,4.49-1.19,5.97,.98,.45-.02,.91-.03,1.36-.05,1.49-.51,2.99-.91,4.33-1.3,2.59,.15,1.91,1.57,5.97,.98,2.27-.08,4.85-.16,7.27-.23Z"/><path class="cls-9" d="M75.94,11.96c-.23-4.31-5.27-2.05-8.15-1.96-2.54-2.14-7.93-.8-8.24-3.71-2.6-.27-2.55,.67-4.13,2.35-.56,.84-.98,1.55-1.39,2.38,3.21,.37,6.42,.85,9.48,1.34,.76-.02,1.51-.05,2.27-.08,.15,0,.45-.01,.76-.02,.62,.21,1.38,.31,2.15,.52,2.41-.31,4.83-.51,7.24-.82Z"/><path class="cls-9" d="M51.64,5.96c.39-1.3,1.06-2.84-.15-2.8-.7-1.61-1.79-2.28-3.21-3.16-2.36,1.24-2.85,3.59-6.19,6.27-.51-1.03-1.03-2.18-1.54-3.22-.41,3.75-6.87,1.97-7.07,4.07,.02,.47,.05,.82,.06,1.17-1.29,1.44-3.17,3.02-4.19,3.99,.06,1.16,.13,2.33,.19,3.38,2.57-.08,1.03,2.19,.21,3.96-.17,2.46-.35,4.92-.37,7.25,.19,.58,.52,1.15,.85,1.73,2.09-.66,4.33-1.31,6.42-1.96,.37-1.53,.75-2.94,1.28-4.47,.12-.59,.39-1.18,.51-1.77,.7-1.08,1.4-2.27,2.1-3.34-.09-1.75-.18-3.38-.28-5.13-.06-1.05-.12-2.22,1.85-5.08,2.01,.75,4.02,1.39,6.03,2.03,1.16-.97,2.18-1.82,3.48-2.91Z"/><path class="cls-9" d="M32.87,51.98c-.84-1.61-1.65-2.52-2.99-2.13-2.82,1.14-2.89,2.78-2.64,4.52,1.73,1.11,4.27,.33,5.73-.65-.05-.93-.07-1.28-.1-1.75Z"/><path class="cls-6" d="M446.66,51.2c-1.43-1.24-5.86-1.68-5.91,.19,2.01,.76,.51,3.84,3.82,3.27,.69-1.19,1.39-2.38,2.09-3.45Z"/><path class="cls-6" d="M429.09,51.76c-.54-1.62-2.62-.85-3.66-.47-2.26,.42-4.82,.86-7.21,1.4,1.37,2.99,5.46,2.75,8.94,2.52,.7-1.19,1.39-2.38,1.94-3.45Z"/><path class="cls-6" d="M110.78,22.06c2.12-.18,4.22-.48,6.48-.79,3.01-.56,4.18,1.5,5.15,2.64-.97-1.14-2.14-3.2-5.15-2.64-2.26,.3-4.36,.61-6.48,.79Z"/><path class="cls-6" d="M109.18,20.48c-1.68-.18-3.76,.59-5.27-2.17-.93-.32-2.01-.64-2.93-.96-1.68-.18-3.35-.24-5.03-.42-1.5,.4-2.99,.79-4.33,1.3-1.57-1-3.96-.34-6-1.56-1.67,.05-3.33,.1-5,.16,.21,1.16-.03,2.21-1.33,3.42,.3,0,.46-.01,.76-.03,3.8,.11,7.75,.11,11.7,.22,5.61-.07,9.34,1.57,13.94,2.36,1.2-.27,2.4-.43,3.6-.7-.03-.59-.06-1.17-.09-1.63Z"/><path class="cls-6" d="M54.04,11.02c.04,.7,.08,1.52,.12,2.22,2,.52,3.85,.93,5.85,1.45,2.01,.63,2.37-1.13,3.52-2.33-3.06-.49-6.27-.97-9.48-1.34Z"/><path class="cls-7" d="M486.14,54.39c-2.77-3.53-7.82-1.39-11.78-1.84-.08,1.29-.31,2.7-.55,3.99,4.21-.72,8.27-1.43,12.33-2.15Z"/><path class="cls-7" d="M399.93,62.73c-1.24-.54-.61-2.9-4.39,.14,.93,.44,2.01,.76,2.94,1.07,.43-.36,.87-.72,1.45-1.21Z"/><path class="cls-7" d="M380.77,44.89c-1.74-1.23-3.63-2.57-5.36-3.8-.04-.7-.08-1.52-.12-2.22-1.5,.28-2.86,.44-4.36,.72-.78-.21-1.39-.31-2.16-.51-.87,.73-1.89,1.58-2.76,2.31-6.46-1.67-15.97-.66-21.84,.11-2.48,1.83-8.03,.37-14.45,2.21,.02,.35,.04,.7,.06,1.05,4.09-.13,7.42-.23,11.63,1.97,.02,.35,.04,.7,.06,1.05-2.27,.07-4.85,.15-7.27,.23-1.37,.04-2.88,.09-4.24,.13,0-.12-.02-.35-.03-.58-2.26,.31-4.37,.61-6.63,.8-.94-.56-1.88-.99-2.97-1.54-.87,.73-1.89,1.58-2.76,2.31-1.88-1.11-4.7,.03-6.58-.96-1.64,.64-3.42,1.27-5.06,1.91,.32,.34,.65,.68,.82,1.03,4.45-1.78,5.33,3.22,7.27-.23,1.21-.04,2.42-.08,3.64-.11,1.96-.18,3.92-.47,5.73-.65,1.99,.4,4,.92,6,1.45,1.65-.41,3.3-.81,4.94-1.33,1.09,.43,2.01,.76,3.09,1.07,1.33-.63,2.82-1.26,4.16-1.77,1.25,.66,2.9,.37,6.6-1.38-.79-.56-1.58-1.12-2.36-1.56,4.15-1.88,4.88,.43,6.54,.26,2.74,.14,5.89-.54,8.06,.32,4.25-.13,8.33-.26,12.43-.39,1.97-.06,3.78-.12,5.75-.19,.73-.6,1.46-1.1,2.19-1.7Z"/><path class="cls-7" d="M292.84,49.32c-1.53-.07-2.9-.26-4.43-.44,.01,.23,.03,.47,.03,.58-1.37-.07-2.9-.26-4.42-.44-.02-.35-.04-.7-.06-1.05-1.36,.05-2.88,.09-4.24,.14-2.42,.19-4.98,.51-7.25,.82-1.23-.31-2.31-.75-3.67-.47-1.34,.39-2.39,.77-3.57,1.16,2.77,.84,3.16,2.47,8,2.08,2.72-.32,5.28-.64,8-.84,.3,0,.45-.01,.75-.02,2.14,.28,4.43,.56,6.57,.84,1.51-.16,2.86-.44,4.37-.6,1.48-.63,2.81-1.26,4.3-1.89-1.51,.05-2.88,.09-4.39,.14Z"/><path class="cls-7" d="M279.89,65.49c-.66-1.15-1.92-1.92-3.02-2.71-1.34,.39-2.39,.78-3.58,1.16,2.1-.3,.7,1.73,4.39,2.67,.74-.38,1.48-.75,2.21-1.12Z"/><path class="cls-7" d="M237.42,48.86c-4.11-.22-8.22-.44-12.34-.77-5.46,.05-10.78,0-16.08,.04-1.52-.18-2.52-1.67-4.46-1.02-1.2,.27-2.4,.43-3.6,.7-4.43-.45-8.7-.89-13.12-1.34-2.41,.31-4.83,.62-7.24,.81,2.46,.51,4.91,1.01,7.37,1.52,4.54-.14,6.17,1.79,13.08,.63,2.3,.4,4.43,.67,6.58,.96,3.37,.59,5.64,.64,8.87,1.35,2.87-.21,5.74-.53,8.76-.86,2.65,1.32,6.06-.19,7.85-.72,1.51-.28,3.01-.56,4.37-.72-.01-.24-.02-.35-.03-.58Z"/><path class="cls-7" d="M201.12,65.19c-.45,.13-.89,.38-1.34,.51-1.55-.66-2.95-1.31-4.51-2.08-.46,.01-.91,.03-1.51,.05-2.21,1.24-4.28,2.24-8.46,3.66,.19,.69,.54,1.5,.88,2.19,1.36-.04,2.88-.09,4.25-.13,1.97-.06,3.94-.13,5.91-.19,1.79-.64,2.63,.97,4.42,.44,1.3-1.21,2.76-2.3,4.06-3.52-1.23-.31-2.46-.62-3.69-.93Z"/><path class="cls-11" d="M184.09,58.96c-.46,.01-.91,.03-1.52,.05,.02,.24,.02,.35,.03,.59-3.75,.7-4.45-.91-7.94-.92-1.21,.04-3.19-.13-2.97,1.26-3.45,.69-4.75-.78-6.63-2.01-6.31,1.25-12.45-.19-18.18,.58-5.73,.65-4.2-4.65-4.79-7.21-2-.4-2.8,1.61-4.13,2.35-1.84-.29-3.52-.58-5.21-.88-.49-.57-.97-1.13-1.61-1.7-1.68-.06-3.76,.58-4.37-2.08-1.06,.03-1.97,.06-3.03,.1-.5-.92-1.01-1.84-1.51-2.75-2.84,.68-5.88,.77-8.82-.3-1.37-.07-2.9-.26-4.42-.32-2.46,2.29-4.87-.19-8.73-1.47-.61,.02-1.06,.04-1.52,.05-.69,1.19-1.24,2.26-1.94,3.45-2.74-.26-5.34-.53-8.09-.91-1.55-.65-2.95-1.3-4.51-2.08-1.37-.07-2.9-.26-4.42-.44-.03-.47-.06-1.05-.09-1.63-.93-.33-2.01-.64-2.94-1.07-2.12,.07-4.39,.14-6.51,.21-1.75-1.58-3.66-3.15-5.42-4.85-.61,.02-1.37,.04-2.12,.07-.3,2.93-1.21,2.84-1.97,2.86-1.4-.66-.73-2.2-.94-3.36-.66-.91-2.2-1.45-1.54-.42-.53,1.54-1.45,4.02-4.19,3.99-1.39-.31-2.92-.61-4.3-.92-2.67,1.13-3.88,1.18-5.1,1.21-1.67,.05-3.48,.11-5.15,.17,.06,1.16,.12,2.21,.18,3.38,1.08,.32,2.01,.64,3.09,1.07-.16,2.57-.33,5.15-.34,7.83,0,.12,.02,.35,.03,.58,.76-.02,1.36-.04,2.12-.07,.3,0,.46-.01,.76-.02,2.41-.31,4.82-.62,7.24-.81,.45-.02,.91-.03,1.52-.05,1.36-.04,2.88-.09,4.24-.13,1.09,.55,1.76,1.69,3.12,1.53,.91-.02,1.82-.06,2.88-.09,1.33-.63,2.82-1.14,4.3-1.78,2.58,.04,5.73-.64,8.67,.31-.4,1.06-.79,2.24-1.19,3.31-2.26,.31-4.37,.6-6.63,.8,1.75,1.46,5.35,.76,5.3,2.63,2.74,.15,5.32,.3,8.06,.33,4.9,.78,8.62,2.41,15.51,3.47-5.62-.05-5.36,1.92-6.52,3.01,.63,.45,1.11,1.02,1.6,1.59,1.5-.4,2.84-.79,4.33-1.31,.07,1.4,.14,2.68,.21,3.97,1.22,.2,2.44,.27,3.67,.47,.12-.59,.39-1.18,.66-1.77,5.81,.86,6.79-3.6,10.85-1.4,0,.12,.02,.35,.03,.59,1.82-.06,3.79-.12,5.76-.19,1.99,.29,3.82,.58,5.81,.86,.35,.92,.71,1.85,.91,2.78,3.48-.11,6.82-.21,10.15-.32,.98-1.55,1.81-2.98,2.8-4.53-1.63-2.05-6.49,.67-6.82-2.58,1.03-.62,1.91-1.23,2.94-1.85,1.52,.07,3.32-.34,4.3,1.03,7.31,.35,12.64,.77,19.03,1.03,2.88-.09,5.91-.19,8.79-.28,1.21-.16,2.4-.43,3.61-.58,2.13,.05,4.41,.21,6.54,.26,1.5-.4,2.84-.79,4.34-1.19,.45-.02,.91-.03,1.36-.04,1.21-.16,1.72,.88,5.12-.75-1.68-.3-1.42-1.01-3.78-2.68Z"/><path class="cls-7" d="M181.45,63.48c-1.51,.05-2.88,.09-4.39,.14-2.13-.05-4.41-.21-6.54-.26-.71,.96-1.42,1.91-2.12,2.87-.49-.8-.99-1.48-1.48-2.29-2.88,.09-5.91,.19-8.79,.28-.7,1.19-1.24,2.37-1.94,3.45,.92,.2,1.99,.4,2.91,.49,2.89,.14,5.77,.17,8.82,.3,.15,0,.45-.02,.6-.02,2.73,.03,5.32,.18,8.06,.33,2.25-.54,4.35-.96,6.46-1.37-.52-1.27-1.05-2.53-1.58-3.92Z"/><path class="cls-7" d="M169.61,46.58c-8.71,1.79-13.3,1-17.49-.61,4.19,1.62,8.78,2.41,17.49,.61Z"/><path class="cls-10" d="M131.85,64.01c.33,3.26,5.19,.54,6.82,2.58-.98,1.55-1.81,2.98-2.8,4.53,1.23,.19,2.45,.39,3.67,.46,.59-.37,1.02-.73,1.45-1.21-.05-.93-.1-1.75-.15-2.79,3.6-.7,4.2,1.96,6.57,.96,2.87-.21,5.89-.54,8.76-.86,.7-1.07,1.24-2.26,1.94-3.45-6.39-.26-11.72-.68-19.03-1.03-.98-1.37-2.78-.96-4.3-1.03-1.03,.62-1.91,1.23-2.94,1.85Z"/><path class="cls-7" d="M147.42,68.53c-2.37,1.01-2.97-1.66-6.57-.96,.05,1.04,.1,1.86,.15,2.79,2.12-.07,4.4-.14,6.52-.21-.03-.47-.06-1.05-.09-1.63Z"/><path class="cls-7" d="M139.56,43.56c-1.65,.29-3.47,.46-5.12,.75,.01,.35,.04,.7,.06,1.05,1.54,.42,2.04,1.33,5.91-.19-.33-.45-.67-1.03-.84-1.61Z"/><path class="cls-7" d="M129.02,36.66c-1.92,.99-3.84,1.99-5.76,2.98-.15,.01-.45,.02-.61,.02-1.83-.18-3.51-.36-5.18-.41-.5-.92-1.01-1.84-1.67-2.76-4.29-.68-7.01-3.39-12.45-2.99,.63-2.47-4.83,.5-3.78-2.69-8.99-3.45-17.28,3.24-26.27-.33-1.67-.06-3.92,.59-5.17-.3,.98-1.55,3.41-1.4,3.48-2.91-.03-.58-.06-1.16-.09-1.75-1.99-.29-3.83-.58-5.81-.87-.73,.49-1.46,1.1-2.03,1.7,.22,1.28,.6,2.66,.82,3.94,5.05,3.69,7.87,5.24,11.96,5.22,1.69,.41,3.54,.94,5.24,1.47-1.65,.41-3.45,.81-5.09,1.33,.06,1.05,.12,2.22,.17,3.27,.93,.44,2.01,.75,2.94,1.07,1.51-.05,3.03-.1,4.39-.14,1.51-.16,2.86-.44,4.36-.73,3.68,.59,6.46,1.66,10.27,1.89,.01,.23,.02,.47,.03,.58,.46-.01,.91-.03,1.52-.05,2.88-.09,5.75-.18,8.63-.27,1.53,.18,3.05,.37,4.42,.44,.9-.15,1.95-.41,2.85-.68,1.68,.18,3.51,.35,5.18,.42,.47,.22,.93,.32,1.55,.54,1.35-.28,2.86-.44,4.21-.72-.03-.58-.07-1.17-.09-1.63,1.48-.63,2.96-1.26,4.3-1.88-.83-1.26-1.5-2.52-2.33-3.78Z"/><path class="cls-10" d="M98.4,62.85c-6.89-1.07-10.62-2.7-15.51-3.47-2.74-.03-5.32-.18-8.06-.33,.05-1.87-3.55-1.17-5.3-2.63,2.27-.19,4.38-.49,6.63-.8,.4-1.06,.79-2.24,1.19-3.31-2.93-.96-6.09-.28-8.67-.31-1.48,.63-2.97,1.15-4.3,1.78-1.06,.03-1.97,.06-2.88,.09-1.36,.16-2.03-.99-3.12-1.53-1.36,.05-2.88,.09-4.24,.13,.51,1.04,1.03,2.19,1.54,3.34-1.36,.04-2.88,.09-4.39,.14-.15,0-.45,.02-.61,.02,.02,.47,.06,1.05,.09,1.63,.06,1.16,.12,2.21,.18,3.38-.75,2.94-1.79,3.44-1.28,4.48,.94,.44,2.01,.75,2.94,1.08,.71-.96,1.42-1.91,2.12-2.87,3.18-.1,6.49-.68,8.72,1.35,.05,.93,.1,1.87,.15,2.8,2.73-.09,5.3-.17,8.03-.25,2.75,.38,5.35,.64,8.09,.91,2.18,.98,4.45,.91,6.57,.84,2.45,.39,4.89,.66,7.34,.94,1.52-.05,2.88-.09,4.39-.14-.07-1.28-.14-2.56-.21-3.97-1.49,.51-2.84,.91-4.33,1.31-.49-.57-.97-1.14-1.6-1.59,1.15-1.08,.9-3.06,6.52-3.01Z"/><path class="cls-7" d="M63.61,67.81c-.05-.93-.1-1.86-.15-2.8-2.23-2.03-5.54-1.46-8.72-1.35-.71,.95-1.41,1.91-2.12,2.87,1.68,.3,3.52,.59,5.21,.89,.81,1.03,3.81,.34,5.79,.4Z"/><path class="cls-7" d="M54.14,52.46c-.61,.02-1.06,.03-1.52,.05-2.42,.19-4.83,.5-7.24,.81,1.72,.88,3.43,1.76,5.3,2.64,.15,0,.46-.02,.61-.02,1.51-.05,3.03-.1,4.39-.14-.52-1.15-1.03-2.3-1.54-3.34Z"/><path class="cls-7" d="M50.96,60.97c-.06-1.16-.12-2.21-.18-3.38-1.79,.64-3.42,1.27-5.06,1.79,.18,.58,.52,1.15,.85,1.73,.99,1.48,2.13,2.85,3.12,4.34-.51-1.03,.53-1.53,1.28-4.48Z"/><path class="cls-7" d="M42.48,52.84c-4.42-.44-7.24-1.99-9.61-.86,.03,.46,.04,.81,.1,1.75,.64,.68,1.14,1.48,1.63,2.17,2.69-.79,5.22-1.69,7.91-2.47-.01-.23-.02-.47-.03-.58Z"/><path class="cls-8" d="M474.36,52.54c-2-.53-3.85-1.05-5.85-1.45-.76,.02-1.52,.05-2.27,.08,.02,.46,.06,1.05,.12,2.21,1.57,1,3,2.12,4.58,3.24,.91-.03,1.96-.06,2.88-.09,.24-1.29,.46-2.7,.55-3.99Z"/><path class="cls-8" d="M352.34,46.85c-1.66,.17-2.39-2.14-6.54-.26,.78,.44,1.57,1,2.36,1.56,1.34-.39,2.84-.79,4.18-1.3Z"/><path class="cls-8" d="M73.52,20.45c-3.21-.48-6.03-2.15-7.51-4.2-.07-1.28-.15-2.68-.21-3.97-.76,.03-1.52,.05-2.27,.08-1.15,1.2-1.51,2.96-3.52,2.33-2-.52-3.84-.93-5.85-1.45-.25,.94-.35,1.88-.61,2.82-2.67,6.86,8.57,1.36,7.63,6.41-1.22-.08-2.44-.27-3.66-.35,.84,1.49-1.1,2.13-1.19,3.31,.17,.46,.5,.8,.67,1.14,1.97-.06,3.94-.12,5.91-.19,.15,0,.45-.01,.76-.03,.57-.6,1.3-1.21,2.03-1.7,.86-3.76,4.41-2.59,6.36-3,.43-.48,.86-.84,1.45-1.21Z"/><path class="cls-8" d="M50.69,55.96c-1.87-.87-3.58-1.76-5.3-2.64-.3,.01-.46,.02-.76,.02,.41,1.97,.68,4.07,1.08,6.04,1.64-.52,3.27-1.15,5.06-1.79-.03-.58-.06-1.17-.09-1.63Z"/><path class="cls-8" d="M43.46,17.43c0-.12-.02-.35-.02-.47-.91,.03-1.97,.06-2.88,.09-.7,1.07-1.4,2.26-2.1,3.34,1.67-.06,3.48-.11,5.15-.17-.05-.93-.1-1.75-.15-2.8Z"/><path class="cls-10" d="M170.51,63.36c-1.2,.16-2.4,.43-3.61,.58,.5,.8,.99,1.49,1.48,2.29,.71-.96,1.42-1.91,2.12-2.87Z"/><path class="cls-10" d="M124.82,68.66c-1.99-.28-3.82-.58-5.81-.86-1.97,.07-3.94,.13-5.76,.19-.01-.24-.02-.47-.03-.59-4.06-2.2-5.04,2.26-10.85,1.4-.27,.59-.55,1.18-.66,1.77,4.75,.9,7.54,1.86,10.99,1.29,4.4-.14,8.64-.27,13.03-.41-.2-.93-.55-1.85-.91-2.78Z"/><path class="cls-10" d="M112.43,52.83c-1.51,.05-3.03,.1-4.39,.14-1.03,.73-1.89,1.58-2.76,2.31-7.34,1.75-11.36-2.56-17.6-.03,.02,.46,.04,.81,.06,1.16,2.75,.27,5.34,.53,8.09,.91,4.59,.79,11.23,0,16.81-.53-.07-1.28-.14-2.68-.21-3.96Z"/><path class="cls-10" d="M98.74,43.7c-3.81-.23-6.59-1.31-10.27-1.89-1.5,.28-2.85,.56-4.36,.73-1.36,.04-2.88,.09-4.39,.14,.03,.58,.06,1.16,.09,1.63,1.53,.18,3.05,.37,4.42,.44,1.56,.77,2.96,1.43,4.51,2.08,2.75,.38,5.35,.65,8.09,.91,.7-1.19,1.25-2.26,1.94-3.45,0-.12-.02-.35-.03-.58Z"/><path class="cls-10" d="M81.69,37c-2.85-2.13-4.06-2.09-5.24-1.47-4.1,.01-6.91-1.53-11.96-5.22-1.95,.41-3.75,.82-5.7,1.23-.27,.59-.39,1.18-.66,1.77,.05,.93,.1,1.86,.15,2.8-.66-1.03,.88-.49,1.54,.42,.21,1.16-.46,2.7,.94,3.36,.76-.03,1.67,.06,1.97-2.86,.76-.03,1.52-.05,2.12-.07,1.76,1.7,3.66,3.27,5.42,4.85,2.12-.07,4.39-.14,6.51-.21-.06-1.05-.12-2.22-.17-3.27,1.64-.52,3.44-.92,5.09-1.33Z"/><path class="cls-10" d="M51.46,30.72c-.46,.02-.91,.03-1.52,.05-1.73-1.23-3.48-2.58-5.21-3.81-.3,0-.61,.02-.76,.02-2.43-.04-4.87-.2-7.31-.35-2.09,.65-4.33,1.3-6.42,1.96,.02,.34,.04,.7,.06,1.05-.96,1.89-1.77,3.79-2.58,5.68,1.46,1.71,3.06,3.29,4.51,4.88-.43,.48-.87,.84-1.3,1.21-.76,.02-1.52,.05-2.27,.07-3.26,1.5-1.45,4.14-1.79,6.24,.95,.67,2.05,1.45,3,2.12,1.34-.39,2.15,.52,2.99,2.13,2.37-1.13,5.19,.42,9.61,.86,0-2.68,.18-5.26,.34-7.83-1.09-.43-2.01-.75-3.09-1.07-.06-1.16-.12-2.21-.18-3.38,1.67-.06,3.49-.11,5.15-.17,1.21-.04,2.42-.08,5.1-1.21-.01-.23-.02-.46-.03-.58,.09-1.17,.34-2.23,.42-3.4,.73-.6,1.45-1.21,2.19-1.71-.35-.92-.71-1.84-.91-2.77Z"/><path class="cls-10" d="M43.98,12.98c-1.23-.31-2.46-.62-3.7-1.05,.09,1.75,.18,3.38,.28,5.13,.91-.03,1.97-.06,2.88-.09,.08-1.29,.31-2.7,.55-3.98Z"/><path class="cls-11" d="M227.29,63.77c-2.48-1.09-4.97-2.06-7.45-3.15-.15,0-.46,.01-.76,.02-.43,.36-.87,.73-1.3,1.21,.06,1.05,.12,2.21,.18,3.26,2.87-.09,5.75-.19,8.63-.27,.28-.36,.57-.72,.7-1.08Z"/><path class="cls-11" d="M63.67,26.36c-.31,.01-.61,.02-.76,.03-1.97,.06-3.94,.13-5.91,.19-.11,.7-.37,1.53-.49,2.24,.66,.91,1.46,1.82,2.27,2.73,1.95-.41,3.75-.82,5.7-1.23-.22-1.28-.6-2.67-.82-3.94Z"/><path class="cls-11" d="M48.15,22.89c-.61,.02-1.06,.03-1.52,.05-.73,.49-1.32,.86-2.06,1.24,.05,.93,.1,1.86,.15,2.8,1.73,1.23,3.48,2.57,5.21,3.81,.61-.02,1.06-.03,1.52-.05-.01-.23-.02-.46-.03-.58,.36-1.76,.73-3.41,1.24-5.06-1.56-.76-3.11-1.42-4.52-2.19Z"/><path class="cls-6" d="M79.27,20.26c-1.24-.54-2.49-1.09-3.72-1.51,.24-1.29,.31-2.7,.54-3.99-1.66,.05-3.48,.11-5.15,.17-1.24-.54-1.14-1.49-2.24-2.15-.77-.21-1.53-.3-2.15-.52-.3,.01-.61,.02-.76,.02,.07,1.29,.14,2.69,.21,3.97,1.48,2.05,4.3,3.72,7.51,4.2-.59,.37-1.02,.73-1.45,1.21-1.21,.04-2.42,.08-3.64,.12-2.78-.85-3.11,1.38-2.73,2.89,1.99,.29,3.83,.58,5.81,.87,.03,.58,.06,1.16,.09,1.75,1.07,.08,1.99,.29,3.06,.37,4.46,1.03,5.3-2.97,10.79-2.56,.69-1.31-1.6-1.59-1.63-2.17-1.53-.3-2.92-.61-4.46-1.02-.02-.47-.05-1.05-.09-1.63Z"/><path class="cls-1" d="M76.09,14.76c-.05-.93-.1-1.86-.15-2.8-2.41,.31-4.83,.5-7.24,.82,1.1,.66,1,1.61,2.24,2.15,1.67-.06,3.49-.11,5.15-.17Z"/><path class="cls-9" d="M364.02,18.46c-1.52,.05-2.88,.09-4.39,.14,1.35-.16,.42,2.09,4.39-.14Z"/><path class="cls-9" d="M88.43,12.73c-2.98-1.77-8.16-2.19-12.48-.77,.05,.94,.1,1.87,.15,2.8,2.73-.2,5.29-.52,8-.84,1.35-.39,2.84-.79,4.33-1.19Z"/><path class="cls-6" d="M124.17,28.41c-3.27-1.65-4.94-1.6-6.61-1.55-2.17,4.86,3.84,3.62,6.61,1.55Z"/><path class="cls-6" d="M391.19,35.57c-1.03,.61-1.91,1.23-2.94,1.73,.97,1.13,1.38,2.99,3.76,2.21,1.35-.28,2.4-.55,3.6-.7-.13-2.33-3.52-.59-4.42-3.24Z"/><path class="cls-7" d="M265.23,49.61c-1.36,.16-2.03-.99-3.12-1.53-1.2,.27-2.4,.42-3.6,.69-1.7-.53-3.4-1.06-5.09-1.59-.58,.49-1.02,.85-1.45,1.21-2.48-.97-5.78-.17-8.66-.31-1.49,.52-2.99,.91-4.33,1.3,1.22-.04,2.03,.99,2.97,1.54,3.33-.11,6.82-.22,10.15-.32,1.21-.04,2.43-.08,6.46-1.26,1.67,.06,2.51,1.56,6.69,.26Z"/></g></g><g class="cls-4"><path class="cls-2" d="M488.89,48.35c-.23,1.18-1.99,1.76-1.32,3.12,1.95-.06,3.89-.12,5.84-.17,.05-1.7-1.28-4-4.52-2.95Z"/><path class="cls-2" d="M420.72,38.12c4.57,1.36,7.13,1.6,8.53-.25-4.74-1.56-7.72-1.26-8.53,.25Z"/><path class="cls-2" d="M474.6,49.84c-1.98-.48-3.8-.95-5.77-1.32-.75,.02-1.5,.05-2.24,.07-.51-1.05-1.02-2.1-1.53-3.04-7.68-3.18-3.31,2.43-8.62,1.21-1.2,.03-2.39,.07-3.59,.1-1.46,.58-2.78,1.14-4.24,1.72-.45,.01-.9,.02-1.34,.04-1.42-1.13-5.79-1.53-5.84,.17-2.2-1.85-.17-5.52-5.18-4-2.04,1.02-1.8,2.5-2.78,3.7-1.19,.25-2.22,.38-3.56,.63-.53-1.47-2.59-.77-3.62-.43-.06-1.06-.12-2.02-.18-3.08-.63-.51-1.4-.92-2.18-1.43-5.64,.91-10.57-1.28-16.45,.49-2.45-3.54,1.71-4.19,.24-6.17-.84-1.57-2.72-.35-4.27-1.36-.01-.21-.02-.32-.03-.53-1.66-2.82-1.71-3.67-1.76-4.52,1.65,.06,3.46,.22,5.11,.38,.45-.02,.9-.03,1.34-.04,1.95-.05,3.89-.11,5.84-.17,.87-.56,1.88-1.12,2.75-1.68,3.6,.1,7.29,1.7,10.77-.31,3.28-.2,6.71-.52,9.99-.83,2.54-.18,3.93-2.03,6.28-2.73,1.09,.71,2.02,1.32,2.97,2.04,3.91,.31,6.69-.94,10.11-1.36,2.41,.14,4.81,.18,7.21,.32,2.32-1.35,3.15-5.09-.32-5.62,.53-1.08,1.22-2.06,1.91-3.14,.33-2.03-2.97-2.04-5.8-1.85-2.7-.03-5.26-.16-7.96-.3-1.63,.26-3.41,.52-5.05,.68-.45,.02-.9,.03-1.35,.04-2.38,.28-4.77,.46-7.15,.74-1.65,.05-3.44,.1-5.09,.15-.81-1.04-1.61-1.97-2.27-3.02-1.19,.03-2.39,.07-3.53,1.17-1.49,.04-3,.09-4.34,.13-1.51-.17-2.86-.34-4.37-.4-.12,.54-.4,.97-.66,1.51-4.05,.01-8.1-.08-12.15-.17-6.72,.41-13.44,.82-20.16,1.12-1.35,.04-2.84,.08-4.34,.13-3.74,0-7.65-.1-11.4-.19-2.32-1.32-4.15-1.79-4.34,.13-1.5,.04-2.84,.08-4.34,.13-1.61,.58-3.23,1.16-4.99,1.74-.6,.02-1.35,.04-2.09,.06-9.6-2.8-16.65-.37-24.44-.35-9.37-1.43-22.65-.4-32.35,.42-.69,.98-2.36,.49-3.56,.63-.3-.1-.46-.3-.78-.51-15.19-.94-28.82,1.8-43.2-.75-1.14,.99-3.26,.52-4.91,.67-5.35-1.75-13.5-.24-20.26-.47-2.21-1.95-7.64,.01-10.85-1.17-7.75,.65-14.53-2.55-22.35-.41-1.65-.06-3.31-.22-4.96-.28-3.06-1.08-8.33-1.46-10.02,.3-3.46-.33-6.78-.54-10.23-.76-2.17-1.21-6.36-1.09-7.81-.3-1.04,.03-1.94,.06-2.99,.09-2.93-1.4-5.02-1.34-7.24-.75-1.94,.06-3.74,.11-5.68,.17-1.94,.06-3.89,.12-5.69,.17-3.08-1.51-5.17-1.44-7.24-.85-1.96-.26-3.93-.52-5.89-.89-2.11-.26-4.37-.51-6.49-.77-4.33,.23-6.7-1.93-12.38-1.66-2.12-.37-4.23-.62-6.49-.87-1.8-.06-2.94,.93-4.88,1.2-2.94-1.61-8.06-1.99-12.32-.7-.23-3.93-5.2-1.86-8.04-1.78-2.51-1.95-7.83-.73-8.14-3.38-2.56-.24-2.51,.61-4.07,2.14-1.4-.81-2.49-1.52-3.74-2.44,.38-1.18,1.05-2.58-.15-2.55-.69-1.47-1.77-2.07-3.16-2.88-2.33,1.13-2.81,3.27-6.11,5.71-.5-.94-1.01-1.99-1.52-2.93-.4,3.41-6.79,1.79-6.98,3.71,.02,.43,.04,.75,.06,1.06-1.27,1.31-3.13,2.75-4.13,3.63,.06,1.06,.12,2.12,.18,3.08-.75,.02-1.5,.04-2.25,.07,.06,1.06,.12,2.02,.18,3.08-1.51,2.39-5.3,4.19-.96,6.62-3.29,2.75-4.84,6.95-.27,8.19,.86,1.89,1.71,3.67,2.42,5.56-3.21,1.37-1.43,3.77-1.77,5.69,.93,.61,2.02,1.32,2.96,1.93-2.79,1.04-2.85,2.53-2.61,4.12,1.71,1.02,4.21,.3,5.66-.59,.63,.62,1.13,1.35,1.61,1.97,2.65-.72,5.16-1.54,7.81-2.25,.75-.02,1.35-.04,2.09-.06,.4,1.8,.67,3.7,1.07,5.5,.18,.53,.51,1.05,.84,1.57,.98,1.35,2.1,2.6,3.08,3.95,.92,.4,1.99,.68,2.9,.98,1.66,.27,3.48,.53,5.14,.81,.8,.93,3.77,.31,5.71,.36,2.69-.08,5.24-.15,7.93-.23,2.72,.34,5.28,.59,7.99,.83,2.15,.89,4.39,.83,6.49,.77,2.42,.36,4.83,.6,7.24,.85,1.5-.05,2.84-.09,4.34-.13,1.21,.18,2.41,.25,3.62,.42,4.69,.82,7.44,1.7,10.85,1.17,4.34-.13,8.53-.25,12.86-.38,3.44-.1,6.73-.19,10.02-.29,1.21,.18,2.42,.35,3.62,.42,1.61,1.97,5.8,1.85,7.96,.3,.33,.52,.51,.94,.83,1.46,3.59-.21,7.16-.53,10.74-.85,2.68-.19,5.21-.47,7.9-.66,1.38,.38,2.9,.87,4.43,1.36,1.35-.04,2.84-.08,4.16-.65,1.67,.37,3.48,.64,5.14,.91,1.55,.91,3.76,.21,5.72,.36,1.49-.05,2.99-.09,4.34-.13,5.96-.6,11.92-1.09,17.89-1.59,.46,.2,.91,.29,1.53,.49,2.38-.39,4.75-.78,7.12-1.27,.9-.03,1.94-.06,2.84-.08,3.65-1.6,5.14-1.75,6.37-1.14,1.2,.07,2.41,.24,3.61,.32,3.1-.83,1.04,2.31,3.72,2.02,.85-.77,1.86-1.44,2.72-2.2,2.24-.07,6.14-2.52,6.61,.34,1.75-.79,5.19-.9,7.18-.21,2.66-.71,3.13-.3,6.49,.87,.3-2.67,1.2-2.59,3.56-.63,5.29-1.86,11.31-1.4,15.67-.99,2.07-.38,5.18-1.22,5.86,.36,5.85,.04,9.55-.7,15.14,.09-1.49,2.71,3.82,1.27,4.99,.81,2.37-3.15,8.52-.35,11.35-3.31,.45-.02,.9-.03,1.5-.05,1.5,2.62,5.7,.15,7.18,2.34,1.87,1.33,4.91-.57,7.12-1.27,1.79-.05,3.44-.1,5.09-.15-.34-.74,.83-1.09,1.35-2.59,.89-.02,1.94-.05,2.84-.08,.51,1.05,1.01,1.99,1.52,3.04,5.21-.58,10.25-1.58,14.39,.11,4.87-1.21,9.22,1.43,14.44,1.07,.25-.86-.57-2.01,.6-2.57,5.06-.47,9.87,4.81,13.67,.66,2.27,.36,4.4,.83,6.67,1.29,1.63-.37,3.26-.73,4.88-1.21,.58-.34,1.01-.67,1.44-1,1.63-.26,3.27-.42,4.9-.68,2.69-.18,7.04,2.56,7.9-.76,1.37,.49,2.76,1.09,4.4,.94-.68-1.47,1.83-2.07,2.61-4.22,5.09-.15,10.02-.29,15.1-.44,2.47,1.2,5.83,2.27,5.66-.59,10.12-1.14,20.1-2.29,30.07-3.43,.89-.02,1.94-.06,2.84-.08,4.16-.66,8.16-1.31,12.17-1.95-2.74-3.22-7.72-1.26-11.63-1.68ZM80.76,30.35c2.04,.13,4.17,.23,6.31,.25-2.08,.21-4.18,.2-6.31-.25Zm18.74-1.21c.9-.12,1.63,0,2.24,.22-.75-.12-1.5-.2-2.24-.22Zm7.24,2.34l.07,.02c-.94,.02-2.01,.12-2.3-.47,.63,.35,1.32,.57,2.22,.45Zm1.56,1.02c.06-.2,.05-.35,.02-.48,.45,.15,.89,.3,1.34,.45-.44,0-.88,0-1.36,.03Zm-21.71-15.2h0c1.2-.04,2.25-.07,4.19-.12-1.4,.04-2.79,.08-4.19,.12Zm91.22,7.42c-1.99-.42-4.07-.77-6.05-1.2,3.86-.71,4.08,.72,6.05,1.2Z"/></g></g></g></svg>