<?xml version="1.0" encoding="UTF-8"?><svg id="_イヤー_2" xmlns="http://www.w3.org/2000/svg" viewBox="0 0 628.09 85"><defs><style>.cls-1{fill:#e7f2f7;}.cls-2{fill:#fff;}.cls-3{fill:#96c8dc;}.cls-4{opacity:.5;}.cls-5{opacity:.9;}.cls-6{fill:#dcedf3;}.cls-7{fill:#c8e2ed;}.cls-8{fill:#d3e8f0;}.cls-9{fill:#f0f7fa;}.cls-10{fill:#bddde9;}.cls-11{fill:#b1d6e5;}</style></defs><g id="_イヤー_1-2"><g><g><path class="cls-3" d="M621.97,58.42c-.31,1.48-2.69,2.21-1.78,3.92,2.64-.07,5.26-.14,7.9-.22,.07-2.14-1.73-5.02-6.12-3.7Z"/><path class="cls-3" d="M529.72,45.59c6.19,1.7,9.65,2.01,11.54-.31-6.41-1.96-10.44-1.58-11.54,.31Z"/><path class="cls-3" d="M602.62,60.29c-2.67-.6-5.15-1.2-7.81-1.66-1.01,.03-2.03,.06-3.04,.09-.69-1.32-1.38-2.63-2.07-3.81-10.39-3.99-4.47,3.06-11.66,1.52-1.62,.04-3.24,.09-4.86,.13-1.98,.72-3.76,1.44-5.74,2.16-.61,.02-1.21,.03-1.82,.05-1.92-1.42-7.83-1.92-7.9,.21-2.98-2.32-.23-6.93-7-5.01-2.76,1.28-2.44,3.14-3.77,4.64-1.61,.31-3.01,.48-4.82,.8-.72-1.85-3.51-.97-4.9-.54-.08-1.33-.16-2.53-.24-3.86-.85-.64-1.9-1.15-2.95-1.79-7.64,1.14-14.3-1.61-22.26,.61-3.32-4.45,2.31-5.26,.32-7.75-1.14-1.97-3.68-.43-5.78-1.71-.01-.27-.03-.4-.04-.67-2.25-3.54-2.31-4.61-2.38-5.67,2.23,.08,4.68,.27,6.92,.48,.61-.02,1.21-.03,1.82-.05,2.64-.07,5.27-.14,7.9-.21,1.17-.7,2.55-1.4,3.72-2.1,4.87,.13,9.86,2.13,14.57-.4,4.45-.25,9.09-.65,13.52-1.04,3.43-.23,5.31-2.55,8.5-3.43,1.48,.89,2.74,1.66,4.01,2.56,5.3,.39,9.05-1.18,13.68-1.71,3.25,.18,6.51,.22,9.76,.4,3.14-1.69,4.26-6.38-.44-7.06,.72-1.35,1.65-2.58,2.59-3.94,.45-2.55-4.01-2.56-7.85-2.32-3.65-.03-7.12-.21-10.77-.37-2.21,.32-4.62,.66-6.84,.85-.61,.02-1.22,.04-1.82,.06-3.22,.35-6.45,.57-9.67,.93-2.23,.06-4.65,.12-6.89,.18-1.09-1.3-2.18-2.47-3.07-3.79-1.62,.04-3.24,.09-4.77,1.47-2.02,.05-4.05,.11-5.87,.16-2.04-.21-3.88-.43-5.91-.51-.17,.67-.54,1.22-.89,1.89-5.48,.02-10.96-.1-16.44-.22-9.09,.51-18.18,1.03-27.28,1.41-1.82,.05-3.84,.1-5.87,.16-5.06,0-10.35-.12-15.43-.24-3.14-1.66-5.61-2.25-5.87,.16-2.03,.05-3.85,.1-5.87,.16-2.18,.72-4.37,1.45-6.76,2.18-.81,.02-1.82,.05-2.83,.08-13-3.52-22.53-.46-33.07-.44-12.69-1.79-30.65-.5-43.77,.52-.93,1.22-3.2,.62-4.81,.8-.41-.12-.63-.38-1.05-.64-20.55-1.18-38.99,2.26-58.46-.94-1.54,1.24-4.42,.65-6.64,.84-7.24-2.2-18.27-.3-27.41-.59-3-2.45-10.34,.02-14.69-1.47-10.49,.82-19.67-3.2-30.24-.51-2.24-.07-4.48-.28-6.72-.35-4.14-1.35-11.27-1.83-13.56,.37-4.69-.41-9.17-.68-13.85-.96-2.94-1.52-8.61-1.37-10.57-.38-1.41,.04-2.63,.07-4.05,.11-3.97-1.76-6.8-1.68-9.79-.94-2.63,.07-5.06,.14-7.69,.21-2.63,.07-5.26,.14-7.69,.21-4.17-1.89-7-1.81-9.8-1.07-2.66-.32-5.31-.66-7.98-1.12-2.86-.32-5.92-.64-8.78-.96-5.86,.29-9.07-2.43-16.75-2.08-2.86-.46-5.73-.78-8.79-1.09-2.44-.07-3.98,1.17-6.6,1.51-3.98-2.02-10.9-2.5-16.68-.88-.31-4.93-7.04-2.34-10.89-2.24-3.4-2.44-10.6-.91-11.01-4.24-3.47-.31-3.4,.76-5.51,2.68-1.89-1.02-3.36-1.91-5.06-3.07,.52-1.48,1.42-3.24-.2-3.2-.93-1.84-2.39-2.6-4.28-3.62-3.16,1.42-3.8,4.1-8.27,7.16-.68-1.18-1.37-2.5-2.05-3.68-.54,4.28-9.19,2.25-9.44,4.66,.03,.54,.06,.94,.08,1.34-1.72,1.65-4.24,3.45-5.59,4.56,.08,1.33,.17,2.66,.25,3.86-1.02,.02-2.03,.05-3.04,.08,.08,1.33,.16,2.53,.24,3.86-2.04,2.99-7.17,5.26-1.3,8.31-4.45,3.45-6.55,8.72-.37,10.28,1.16,2.37,2.32,4.6,3.28,6.98-4.35,1.72-1.94,4.73-2.39,7.14,1.26,.77,2.74,1.66,4.01,2.42-3.77,1.31-3.86,3.18-3.53,5.17,2.31,1.27,5.7,.38,7.66-.74,.86,.77,1.53,1.69,2.18,2.48,3.59-.9,6.98-1.93,10.57-2.82,1.01-.03,1.82-.05,2.83-.08,.55,2.26,.9,4.65,1.45,6.9,.24,.66,.69,1.32,1.14,1.97,1.32,1.7,2.84,3.26,4.16,4.95,1.25,.5,2.69,.86,3.93,1.23,2.25,.34,4.71,.67,6.96,1.01,1.09,1.17,5.1,.39,7.73,.45,3.64-.1,7.09-.19,10.73-.29,3.68,.43,7.15,.74,10.81,1.04,2.91,1.12,5.94,1.04,8.78,.96,3.28,.45,6.54,.76,9.8,1.07,2.03-.06,3.85-.11,5.87-.16,1.64,.22,3.26,.31,4.9,.53,6.35,1.03,10.07,2.13,14.69,1.47,5.87-.16,11.54-.31,17.41-.47,4.65-.12,9.11-.24,13.56-.37,1.64,.22,3.27,.44,4.9,.53,2.18,2.48,7.85,2.32,10.77,.38,.45,.66,.68,1.18,1.13,1.84,4.85-.27,9.69-.67,14.54-1.06,3.63-.24,7.06-.59,10.69-.83,1.86,.48,3.93,1.09,5.99,1.71,1.82-.05,3.85-.1,5.63-.82,2.26,.47,4.71,.8,6.96,1.14,2.1,1.14,5.09,.26,7.74,.46,2.02-.06,4.04-.11,5.87-.16,8.07-.76,16.13-1.37,24.21-1.99,.62,.25,1.24,.37,2.06,.61,3.22-.49,6.42-.97,9.64-1.6,1.21-.04,2.63-.07,3.84-.1,4.95-2,6.96-2.19,8.63-1.43,1.63,.09,3.26,.31,4.89,.4,4.19-1.05,1.4,2.9,5.03,2.53,1.16-.96,2.52-1.8,3.68-2.76,3.04-.09,8.32-3.17,8.95,.42,2.37-1,7.03-1.13,9.72-.27,3.59-.9,4.23-.38,8.78,1.1,.4-3.35,1.62-3.25,4.82-.8,7.15-2.33,15.3-1.75,21.21-1.24,2.81-.48,7-1.53,7.94,.45,7.91,.05,12.92-.88,20.49,.11-2.02,3.4,5.17,1.6,6.75,1.02,3.2-3.95,11.53-.44,15.36-4.15,.6-.02,1.21-.03,2.02-.06,2.03,3.28,7.71,.19,9.71,2.94,2.54,1.66,6.65-.71,9.63-1.6,2.43-.06,4.66-.12,6.88-.19-.47-.92,1.13-1.36,1.82-3.26,1.21-.03,2.63-.07,3.85-.1,.69,1.31,1.37,2.5,2.06,3.81,7.05-.73,13.87-1.98,19.48,.13,6.59-1.51,12.48,1.8,19.55,1.34,.34-1.08-.77-2.52,.81-3.23,6.85-.59,13.35,6.04,18.5,.83,3.07,.45,5.95,1.04,9.03,1.62,2.2-.46,4.41-.92,6.6-1.51,.78-.42,1.36-.84,1.95-1.25,2.21-.33,4.42-.52,6.63-.85,3.64-.23,9.53,3.21,10.69-.96,1.86,.62,3.73,1.37,5.95,1.18-.92-1.85,2.47-2.6,3.53-5.3,6.88-.18,13.56-.37,20.44-.55,3.34,1.51,7.88,2.85,7.66-.74,13.69-1.44,27.19-2.87,40.69-4.31,1.21-.03,2.62-.07,3.84-.1,5.63-.82,11.05-1.64,16.47-2.45-3.7-4.04-10.44-1.59-15.74-2.11ZM69.58,35.83c2.8,.16,5.72,.29,8.66,.31-2.86,.26-5.73,.27-8.66-.31Zm25.47-1.52c1.17-.14,2.12-.01,2.93,.25-.98-.14-1.96-.22-2.93-.25Zm9.76,2.94l.1,.03c-1.28,.03-2.72,.15-3.11-.59,.85,.44,1.78,.72,3.01,.56Zm2.11,1.28c.07-.25,.07-.44,.02-.6,.6,.19,1.21,.38,1.82,.57-.59-.01-1.2,0-1.84,.03Zm-29.38-19.08h0c1.62-.05,3.04-.08,5.67-.15-1.89,.05-3.78,.1-5.67,.15Zm123.37,9.3c-2.67-.52-5.47-.95-8.12-1.49,5.18-.88,5.52,.87,8.12,1.49Z"/></g><g class="cls-5"><g class="cls-5"><path class="cls-1" d="M608.51,50.91c-.29,1.29-2.51,1.93-1.66,3.43,2.46-.06,4.9-.13,7.36-.19,.06-1.87-1.61-4.4-5.7-3.24Z"/><path class="cls-1" d="M571.84,16.59c-3.4-.03-6.63-.18-10.04-.32-2.06,.28-4.31,.57-6.37,.74-.57,.02-1.13,.03-1.7,.05-3,.31-6.01,.5-9.01,.81-2.08,.05-4.33,.11-6.42,.16-.18,.12-.54,.37-.9,.61-2.09-.18-4.18-.36-6.26-.42-.73,.36-1.27,.73-1.81,1.1-1.17-.44-2.52-.99-3.7-1.54-2.07,.05-4.34,.11-6.41,.17,0-.12-.03-.36-.04-.59-5.1,.01-10.21-.09-15.32-.19-8.47,.45-16.94,.9-25.42,1.23,.04,.58,.07,1.16,.12,1.75-1.7,.05-3.58,.09-5.47,.14-.04-.58-.08-1.17-.12-1.75-4.72,0-9.64-.11-14.37-.21-1.88,.05-3.77,.09-5.47,.14-4.95,2.23-3.78-.02-5.47,.14-2.03,.63-4.07,1.27-6.3,1.91-.75,.02-1.7,.04-2.64,.07-1.87,.4-3.53,.79-5.4,1.19-11.34,.05-18.26,1.05-28.06,1.3-6.07-.31-18.41-1.28-22.33,2.32-4.07-1.53-8.18-.84-11.96-.86,.3,1.74-2.77,1-4.42,1.75-1.13,.02-2.45,.06-3.58,.09-1.89,.05-3.58,.09-5.47,.14-1.7,.05-3.59,.09-5.47,.14-6.03,.16-12.07,.32-18.1,.47-2.06,.29-4.12,.57-6.18,.74-2.09-.06-4.36-.24-6.46-.42-2.08-.07-4.17-.25-6.25-.31-2.3-.41-4.39-.71-6.49-1-.38,0-.57,.01-.95,.03-2.64-.05-5.49-.21-8.15-.37-3.03-.04-6.06-.2-9.09-.35-1.87,.28-3.55,.56-5.43,.72-2.41-2.04-6.32-1.36-9.12-.82-5.1-.11-10.21-.21-15.31-.2-1.93-.65-3.88-1.42-5.62-2.08-.33,.71-.66,1.54-.8,2.24-4.92-.11-9.64-.1-14.56-.21-.07-1.17-.14-2.22-.22-3.39-3.64-.84-4.71-2.68-5.69-3.24-2.08-.06-4.18-.24-6.26-.31-6.73,.99-10.44,2.02-12.63,.32-4.37-.36-8.54-.6-12.9-.84-6.14,1.44-9.93,1.3-9.85-.33-1.32,.03-2.45,.06-3.77,.1-3.02,.08-6.04,.15-9.05,.23-5.38,1.42-6.45-.42-7.24-.87-2.45,.06-4.9,.13-7.17,.19-3.02,.08-6.22,.15-9.05,.23-5.06,.59-4.21-.83-7.43-.98-1.67,.39-3.54,.79-5.39,1.3-.57,.02-1.13,.03-1.7,.05-1.84-2.17-5.38-1.38-7.43-.98-.57,.01-1.13,.03-1.7,.04-1.27-2.07-4.06-1.41-5.54-1.03-.61-.68-1.22-1.37-2.04-2.17-2.42,.53-4.66,.94-7.09,1.35-1.88,.05-3.58,.09-5.47,.14-.61-.69-1.23-1.49-1.85-2.17-1.86,.4-3.72,.8-5.4,1.19-3.38,.32-6.57,.64-9.96,.84-.29,1.29-.38,2.7-.67,3.99,1.54,.43,3.09,.97,4.63,1.51,.38,0,.57-.01,.94-.03,.49-1.18,.98-2.24,1.66-3.43,1.51-.04,2.83-.07,5.28-.13,2.54,1.22,5.51,.56,7.47,1.56,1.67-.51,3.53-.91,5.39-1.3,2.09,.18,4.17,.24,6.27,.42,1.16,.32,2.49,.64,3.65,.96,1.88,2.75,4.48,1.99,6.57,2.17,.03,.47,.07,1.05,.11,1.63,.57-.02,1.13-.03,1.88-.05,2.64-.18,5.26-.48,8.07-.79,3.74-.56,5.2,1.5,6.41,2.64,1.9,.18,3.81,.37,5.51,.45,1.12-.15,2.43-.41,3.54-.68,.79,.45,1.38,.78,1.97,1.12,5.44-.49,10.89-.98,16.14-1.58,1.38,.78,2.55,1.45,3.92,2.12,2.24-.41,4.67-.82,7.1-1.23,2.46,.06,4.74,.23,7.21,.4,.94-.03,1.88-.05,2.83-.07,.02,.35,.05,.7,.07,1.05,2.63-.19,5.45-.49,8.07-.79-.02-.35-.05-.7-.06-1.05,5.23-.83,5.16,1.03,8.21,1.42,2.09,.18,4.37,.36,6.45,.42-1.5,2.96-5.99,3.65-8,1.84-.75,.02-1.32,.03-1.89,.05-1.83,.87-3.48,1.61-5.31,2.47,6.69,3.92,11.95,.63,17.35,2.36,5.83-.38,6.93,4.72,12.97,1.88,5.02-1.29,8.25-1.02,9.12,.82,5.29,.09,10.78,.19,16.26,.17,1.19-2.02,3.19-.32,5.43-.72,10.28,4.06,19.71-1.9,29.99,2.04,4.42-1.75,6.78-.29,10.98,.3,3.01-.19,6.01-.51,9.02-.81,4.95,3.49,9.67-2.35,16.18-.88,2.81-.3,5.44-.61,8.07-.79,3.79,.25,9.41,2.44,10.03,.33,3.41,.14,4.15-2.91,8.94-1.98,5.2,1.38,12.27-.08,15.61,1.82,6.28-2.15,18.42,1.4,25.2-1.7,5.42,1.96,14.57,.33,21.76,.5,1.51-.04,3.02-.08,4.53-.12-.27-1.28,2.2-1.11,3.52-1.14,1.32,.09,2.98-.54,3.81,.49-.12,.94,2.48,.29,5.16-1.88,0-.12-.02-.35-.03-.58-1.56-.66-2.92-1.33-4.67-2.1,2.34-1.69,4.23-1.74,6.22-2.96,.42,.57,.64,1.15,1.06,1.72,1.54,.43,3.09,.97,4.64,1.52,1.07-.73,2.34-1.58,3.43-2.3,4.62-1.4,2.41,2.15,5.65,2.66,2.58-1,5.34-2,7.92-3,6.09,.66,10.82-2.03,16.22-.42,.69-.95,1.2-1.9,1.7-2.84,1.89,.07,3.61,.26,5.51,.44,3-.31,6-.62,9.01-.81,1.82,1.7,7.14,2.27,7.17-.18,3.02-.08,6.03-.16,9.05-.23,1.95,.88,3.71,1.77,5.65,2.66-1.18,2.13,2.87,3.31,5.65,2.66,.52-.71,1.04-1.54,1.55-2.26,1.34,.32,2.49,.64,3.84,.95,1.09-.61,2.38-1.11,3.47-1.72,1.13-.03,2.45-.06,3.59-.09,1.89-.05,3.58-.09,5.47-.14,4.56,.47,5.54,.91,7.28,1.45,.05,.81,.1,1.52,.15,2.22,1.38,.78,2.55,1.45,3.74,2.24,4.94,.34,8.43-1.03,12.74-1.49,5.96-1.32,3.51-4.06,4.16-5.71,1.51-.04,3.02-.07,4.53-.11,.67-1.19,1.54-2.26,2.41-3.45,.42-2.23-3.74-2.24-7.31-2.03Z"/><path class="cls-1" d="M548.32,60.39c-3.68-1.31-5.54-.79-7.14,.65,3.11,1.32,7.35,2.5,7.14-.65Z"/><path class="cls-9" d="M529.35,47.91c-.8-.56-1.77-1.01-2.75-1.57-7.11,1-13.32-1.41-20.74,.53-3.09-3.89,2.15-4.61,.3-6.78-1.06-1.72-3.42-.38-5.39-1.5-.01-.23-.02-.35-.04-.58-2.1-3.1-2.16-4.03-2.22-4.96-2.1-.3-4.2-.59-6.49-1-1.62,1.21-3.44,2.3-5.05,3.51,1.12,2.66,5.35,.91,5.51,3.24,1.34,.32,2.5,.64,3.84,.95-5.85,2.95-11.37,2.39-16.25,2.75-1.09,.73-2.35,1.58-3.43,2.3,.61,.69,1.23,1.49,2.03,2.17,1.15,.2,2.48,.29,3.62,.49,3.6,.03,7.19,.17,10.79,.31,1.71,.07,3.05,.27,4.56,.35,.82,1.14,1.47,2.3,2.11,3.33,1.92,.53,3.66,1.07,5.58,1.61,2.05-.52,4.1-.92,6.15-1.32,2.99-.54,4.95,.57,7.43,.98,.57-.02,1.13-.03,1.7-.05,2.98-.54,6.17-.97,8.98-1.4-.08-1.16-.15-2.21-.23-3.38Z"/><path class="cls-7" d="M580.53,53.38c-4.19-.48-8.38-.96-12.75-1.43-3.42-.27-6.65-.53-10.07-.8-.56,.02-1.13,.03-1.69,.04-.87,1.07-1.74,2.26-2.61,3.45-4.12,.57-2.25-2.51-4.75-3.27-3.22-.15-6.62-.18-10.03-.32-1.5,.27-2.8,.42-4.49,.7-.68,1.07-1.55,2.26-2.41,3.45-4.33,.23-9.41,.47-11.12-2.52-.56,.02-1.13,.03-1.7,.05-2.48-.4-4.44-1.52-7.43-.98-2.05,.4-4.1,.81-6.15,1.32-1.92-.54-3.66-1.07-5.58-1.61-2.07,.05-4.15,.11-6.41,.16-1.39-.9-1.52-2.88-.26-3.84-3.6-.14-7.19-.28-10.79-.31,.12,1.87,.25,3.73,.37,5.6-6.72,4.02-15.31-.19-24.4,2.26-9.68,2.11-18.01-.94-26.14,1.83,14.28,1.73,28.52-.02,39.03,1.81-.01-.24-.02-.35-.04-.58,6.46,.54,13.31-1.51,20.9-1.12,4.2,.71,7.87,1.9,9.01-.81,1.5-.04,3.02-.08,4.52-.12,.59,.22,1.17,.44,1.74,.54,2.26-.18,4.31-.47,6.38-.75,.06,1.05,.12,1.86,.19,2.8,5.16,.91,6.72,1.69,8.29,2.58,6.41-.16,12.63-.32,19.04-.49,1.6-1.44,3.46-1.96,7.14-.65,12.76-1.26,25.34-2.51,37.91-3.77-1.97-1.12-3.74-2.24-5.7-3.24Z"/><path class="cls-10" d="M522.14,61.52c-1.58-.89-3.14-1.67-8.29-2.58-.07-.94-.12-1.75-.19-2.8-2.06,.28-4.12,.57-6.38,.75-.57-.11-1.15-.33-1.74-.54-1.51,.04-3.02,.08-4.52,.12-1.14,2.71-4.81,1.52-9.01,.81-7.58-.39-14.43,1.65-20.9,1.12,.01,.23,.02,.35,.04,.58-10.51-1.84-24.75-.08-39.03-1.81,8.13-2.77,16.45,.28,26.14-1.83,9.09-2.45,17.69,1.77,24.4-2.26-.12-1.87-.25-3.73-.37-5.6-1.14-.2-2.47-.29-3.62-.49-1.47,.62-2.94,1.24-4.42,1.75-2.81,.31-1.05-1.61-2.97-2.14-2.45,.06-4.71,.12-7.16,.19-5.09,.13-10.18,.26-15.47,.39-2.7-.87-6.62-.18-10.03-.32-1.67,.51-3.53,.91-5.2,1.3-4.61,1.75-6.67,2.04-8.22,1.38-1.67,.51-3.52,1.14-5.17,1.77-1.34-.32-2.5-.64-3.85-1.07-2.04,.52-4.1,.92-6.15,1.33-2.49-.53-4.98-1.04-7.46-1.45-2.25,.18-4.69,.47-7.13,.65-1.51,.04-3.02,.08-4.53,.11-2.42,3.45-3.51-1.54-9.05,.23-.21-.35-.61-.68-1.02-1.03-3.54-2.01-8.15-.49-10.83-.89-1.85,.63-3.51,1.26-5.35,1.89-1.88,.16-3.56,.44-5.44,.6-2.66-.28-5.52-.56-8.18-.84-.37,.01-.56,.01-.94,.02-3.39,.2-6.58,.52-9.96,.84-6.02,.39-6.51-1.24-9.96-2.08-5.21,1.3-6.25-.19-8.33-.26-5.02,1.18-6.53,1.22-8.04,1.26-4.14,.11-8.48,.22-12.63,.32-1.17-.55-2.18-1.58-3.7-1.54-.75,.02-1.32,.03-1.88,.05-1.69,.16-3.56,.44-5.43,.72-2.23,.52-6.47,2.03-9.77,.72-3.76,.33-7.32,.65-10.9,.86-4.02-.71-6.85-.76-11.04-1.35-2.67-.29-5.33-.56-8.19-.96-8.61,1.16-10.63-.78-16.29-.63-3.05-.51-6.11-1.01-9.17-1.52-2.85-.27-5.52-.56-8.18-.84-1.09,.61-3.41-.26-5.47,.14-10.84,1.79-16.55,1-21.77-.61-3.04-.27-6.27-.54-9.13-.94-1.89,.05-3.77,.1-5.47,.14-4.81,1.52-5.44,.61-7.35,.19-.02-.35-.05-.7-.07-1.05-2.64,.07-5.29,.14-8.11,.21-.21-.23-.59-.33-.98-.56-1.68,.27-3.56,.44-5.24,.72-.77-.22-1.34-.32-1.93-.54-2.08-.06-4.36-.24-6.45-.42-1.12,.26-2.43,.53-3.55,.68-1.7-.08-3.6-.26-5.51-.44-3.59,.09-7.17,.18-10.75,.27,4.81,1.28,7.81,3.77,10.87,1.47,1.89,.07,3.8,.25,5.5,.32,3.66,1.08,7.44,.98,10.98,.3,.63,.92,1.26,1.84,1.88,2.75,1.32-.03,2.45-.06,3.77-.1,.75,2.67,3.35,2.02,5.44,2.08,.79,.57,1.39,1.13,2,1.7,2.1,.3,4.2,.59,6.48,.88,1.65-.74,2.65-2.75,5.13-2.35,.74,2.55-1.18,7.85,5.96,7.21,7.12-.77,14.78,.67,22.63-.58,2.35,1.22,3.96,2.7,8.26,2.01-.28-1.39,2.18-1.22,3.69-1.26,4.35,0,5.21,1.62,9.88,.92,.74-.25,1.3-.38,1.85-.63,2.94,1.67,2.61,2.38,4.71,2.68-4.24,1.62-4.87,.59-6.37,.75-.56,.01-1.13,.03-1.7,.04-1.86,.4-3.53,.79-5.4,1.19,1.89-.05,3.58-.09,5.47-.14,.66,1.38,1.31,2.65,1.97,3.92,.94-.02,1.88-.05,2.83-.07,5.19-1.42,7.77-2.42,10.53-3.66,.75-.02,1.32-.03,1.88-.05,1.95,.77,3.68,1.42,5.62,2.08,.56-.13,1.11-.38,1.67-.51,1.53,.31,3.06,.62,4.59,.93,1.89-.05,3.77-.09,5.47-.14,.39,.22,.6,.45,.99,.56,1.88-.05,3.58-.09,5.47-.14,1.48-.39,2.97-.78,4.45-1.28-.07-1.05-.15-2.22-.22-3.26,.53-.48,1.08-.84,1.61-1.21,.38-.01,.76-.02,.95-.02,3.09,1.09,6.18,2.06,9.27,3.15-.16,.35-.52,.71-.87,1.08,3.77-.22,7.33-.54,10.91-.75,1.92,.42,3.65,.96,5.58,1.49,3.18-.44,6.55-.87,9.91-1.42,6.89,1.34,11.84,1.92,15.32,.19,3.39-.21,6.57-.52,9.96-.84,.94-.02,1.89-.05,2.63-.07,1.34,.2,2.48,.41,3.82,.49,1.48-.39,2.78-.77,4.45-1.16,1.38,.78,2.94,1.56,3.76,2.71,2.63-.31,5.44-.61,8.08-.79,9.26,.11,18.71,.22,28.17,.33,3.03,.15,5.04,1.97,8.27,2.12,.56-.02,1.13-.03,1.89-.05,1.66-.63,3.5-1.26,5.16-1.88,4.34-.11,8.49-.22,12.64-.32,2.84,.16,5.5,.32,8.34,.37,1.13-.03,2.45-.06,3.58-.09,22.62-.7,45.23-1.51,67.85-2.32,4.71-3.04,3.92-.68,5.47-.14,5.26-.48,10.7-.97,16.15-1.46,2.65,.05,5.49,.21,8.14,.26Z"/><path class="cls-1" d="M497.63,48.14c-1.52-.08-2.86-.28-4.56-.35-1.25,.96-1.12,2.95,.26,3.84,2.26-.06,4.33-.11,6.41-.16-.64-1.03-1.29-2.19-2.11-3.33Z"/><path class="cls-6" d="M551.43,24.94c-1.73-.54-2.71-.98-7.28-1.45-1.88,.05-3.58,.09-5.47,.14-1.13,.03-2.45,.06-3.59,.09-.4-.34-.61-.68-1.02-1.14-.88,.95-1.76,1.91-2.45,2.86-1.34-.32-2.5-.64-3.84-.95-.52,.71-1.03,1.54-1.55,2.26-2.78,.65-6.83-.53-5.65-2.66-1.95-.88-3.71-1.77-5.65-2.66-3.02,.08-6.04,.16-9.05,.23-.03,2.45-5.35,1.89-7.17,.18-3.01,.19-6.01,.51-9.01,.81-1.91-.19-3.62-.38-5.51-.44-.5,.94-1,1.9-1.7,2.84-5.4-1.61-10.13,1.08-16.22,.42-2.58,1-5.34,2-7.92,3-3.24-.5-1.03-4.06-5.65-2.66-1.09,.72-2.36,1.58-3.43,2.3-1.56-.54-3.1-1.09-4.64-1.52-.41-.57-.64-1.15-1.06-1.72-.57-.1-1.15-.32-1.92-.53-1.44,1.2-2.68,2.4-4.3,3.49,1.76,.89,3.14,1.79,4.71,2.68-2.68,2.17-5.29,2.82-5.16,1.88-.82-1.03-2.48-.4-3.81-.49-1.32,.03-3.79-.13-3.52,1.14-1.51,.04-3.02,.08-4.53,.12-7.19-.17-16.33,1.46-21.76-.5-6.78,3.09-18.92-.45-25.2,1.7-3.34-1.9-10.41-.43-15.61-1.82-4.79-.93-5.52,2.12-8.94,1.98-.62,2.11-6.24-.08-10.03-.33-2.63,.18-5.26,.49-8.07,.79-6.52-1.47-11.23,4.37-16.18,.88-3.01,.31-6.01,.62-9.02,.81-4.2-.59-6.56-2.05-10.98-.3-10.28-3.94-19.7,2.02-29.99-2.04-2.24,.4-4.24-1.3-5.43,.72-5.48,.02-10.97-.07-16.26-.17-.88-1.84-4.11-2.11-9.12-.82-6.04,2.84-7.14-2.27-12.97-1.88-5.4-1.73-10.66,1.56-17.35-2.36,1.83-.86,3.48-1.6,5.31-2.47,.57-.02,1.14-.03,1.89-.05,2.01,1.81,6.5,1.12,8-1.84-2.08-.07-4.36-.24-6.45-.42-2.68-.52-5.53-.91-8.21-1.42,.02,.35,.04,.7,.06,1.05-2.62,.3-5.44,.61-8.07,.79-.02-.35-.05-.7-.07-1.05-.94,.02-1.89,.05-2.83,.07-1.71-.19-3.61-.37-5.32-.45-.76,.02-1.32,.04-1.88,.05-2.43,.42-4.86,.83-7.1,1.23-.8-.68-1.41-1.37-2.03-2.16-.57,.01-1.13,.02-1.89,.05-5.24,.6-10.69,1.09-16.14,1.58-.59-.34-1.18-.67-1.97-1.12-1.12,.26-2.42,.53-3.54,.68,.04,.58,.08,1.16,.11,1.63-1.08,.84-2.35,1.58-3.43,2.43,.99,.67,1.99,1.46,2.79,2.14,5.54,1.03,11.23,4.04,16.74,4.59,1.94-2.15,4.86-.82,9.92-1.42,.03,.47,.05,.82,.08,1.17,4.74,.23,9.67,.45,14.41,.8,3.15-.9,2.36,1.46,3.92,2.12,1.5-.04,2.83-.07,4.52-.11,3.84,.95,8.63,2,11.91,3.08,21.09-1.12,38.16-.04,58.09,1.32,5.11,.11,5.09-2.93,12.63-.32,2.08,.06,4.36,.24,6.44,.3,7.46-1.48,12.03-.89,15.32-2.61,5.14,.69,3.78,2.82,5.47,2.66,1.32-.03,2.45-.06,3.77-.1,5.02-1.18,6.25,.19,8.15,.38,5-1.41,5.67,.09,7.17-.18,.37,0,.56-.02,.94-.02,3.58-.09,7.16-.18,10.93-.28,.76-.02,1.7-.04,2.64-.07,2.6-.65,5.39-1.3,8.01-1.84,3.59,.03,7.38,.16,10.97,.19,1.51-.03,3.02-.08,4.53-.11-.01-.11-.02-.35-.03-.47,9.34-1.52,22.26-.45,29.72-1.93,4.82,1.4,10.58-.03,14.56,.21,1.18-2.13,4.67-.81,7.05-1.93,1.88-.17,3.56-.44,5.44-.61,6-.62,14.02,.58,17.99-2.21,3.07,.74,6.14,1.36,9.2,1.98,.54-.48,1.06-1.07,1.78-1.68,2.64-.07,3.59-.09,4.53-.11,.14-.71-.88-1.85,.6-2.24,4.55,.12,6.12,1.13,9.28,3.15,1.85-.52,3.72-.91,5.39-1.31,1.53,.19,3.04,.27,4.56,.47,.99,.67,1.99,1.46,2.98,2.14,1.62-1.21,3.43-2.31,5.05-3.51,2.29,.41,4.39,.7,6.49,1,2.08,.07,4.36,.24,6.45,.42,.57-.02,1.13-.03,1.69-.05,2.46-.06,4.91-.12,7.36-.18,1.09-.61,2.38-1.23,3.47-1.84,4.54,.11,9.19,1.86,13.58-.35,4.14-.22,8.47-.57,12.6-.91,3.2-.2,4.95-2.23,7.92-3-.05-.7-.09-1.4-.15-2.22Z"/><path class="cls-8" d="M492.47,38.81c-1.5,.16-2.81,.42-4.48,.7-2.97,.78-3.48-1.08-4.69-2.21-1.68,.27-3.55,.56-5.24,.72-1.37-.67-2.55-1.45-3.92-2.12-.04-.58-.08-1.17-.11-1.63-3.16-2.02-4.73-3.03-9.28-3.15-1.48,.39-.46,1.53-.6,2.24-.94,.02-1.89,.05-4.53,.11-.71,.6-1.24,1.2-1.78,1.68-3.06-.62-6.13-1.24-9.2-1.98-3.97,2.79-11.98,1.59-17.99,2.21-1.88,.16-3.56,.44-5.44,.61-2.38,1.11-5.87-.2-7.05,1.93-3.98-.24-9.75,1.19-14.56-.21-7.46,1.48-20.38,.41-29.72,1.93,.01,.11,.02,.35,.03,.47-1.51,.04-3.02,.08-4.53,.11-3.59-.02-7.38-.16-10.97-.19-2.61,.54-5.4,1.19-8.01,1.84-.94,.02-1.88,.05-2.64,.07-3.77,.1-7.35,.19-10.93,.28-.38,0-.57,.02-.94,.02-1.5,.27-2.17-1.23-7.17,.18-1.9-.18-3.13-1.55-8.15-.38-1.32,.04-2.45,.06-3.77,.1-1.69,.16-.32-1.97-5.47-2.66-3.29,1.72-7.86,1.13-15.32,2.61-2.08-.07-4.36-.24-6.44-.3-7.55-2.61-7.53,.43-12.63,.32-19.93-1.36-37-2.44-58.09-1.32-3.28-1.08-8.07-2.13-11.91-3.08-1.7,.04-3.02,.08-4.52,.11-1.56-.66-.77-3.02-3.92-2.12-4.75-.35-9.67-.57-14.41-.8-.02-.35-.05-.7-.08-1.17-5.06,.6-7.98-.73-9.92,1.42-5.51-.56-11.19-3.57-16.74-4.59-.8-.68-1.8-1.47-2.79-2.14,1.08-.85,2.36-1.58,3.43-2.43-.03-.46-.07-1.04-.11-1.63-1.7-.08-3.61-.26-5.51-.45-1.21-1.14-2.67-3.2-6.41-2.64-2.81,.3-5.43,.61-8.07,.79-.75,.02-1.32,.03-1.88,.05-1.49,.27-3,.42-4.49,.7-5.72-.79-10.36-2.42-17.35-2.36-4.92-.11-9.83-.1-14.56-.22-.38,.01-.56,.02-.94,.03,.04,.58,.08,1.17,.11,1.63,1.92,.42,3.64,.72,5.55,1.02,.04,.58,2.89,.86,2.03,2.17-6.83-.41-7.88,3.59-13.43,2.56-1.33-.08-2.47-.29-3.81-.37-2.95,1.01-5.91,2.02-8.86,3.03,3.98,.25,7.97,.5,11.95,.75,8.16,.49,17.81,.83,25.23-1.23,4.68-.59,5.49,3.01,9.24,2.56,5.4,1.61,10.79,3.23,16.71,4.13,.82,.92,1.82,1.82,2.83,2.74,2.08,.05,4.17,.24,6.45,.41,.19,0,.57-.01,.75-.02,2.39-.99,4.78-1.99,7.17-2.98,1.03,1.26,1.87,2.52,2.9,3.78-1.66,.62-3.51,1.25-5.35,1.88,.02,.47,.07,1.05,.11,1.63,.39,.22,.77,.33,.98,.56,2.83-.07,5.47-.14,8.11-.21,2.05-.29,4.31-.46,6.37-.75,.22,.58,.64,1.15,1.05,1.61,1.69-.04,3.58-.09,5.47-.14,2.86,.4,6.09,.66,9.13,.94,5.22,1.62,10.93,2.41,21.77,.61,2.05-.4,4.38,.47,5.47-.14,2.66,.28,5.33,.57,8.18,.84,3.01-.19,6.01-.5,9.02-.81,5.51,.44,10.82,.89,16.34,1.34,1.49-.27,2.99-.43,4.48-.7,2.41-.65,3.65,.84,5.55,1.02,6.61-.05,13.23,.01,20.02-.04,5.12,.33,10.24,.55,15.36,.77,.01,.23,.02,.35,.04,.58,.57-.02,1.13-.03,1.88-.05,1.68-.39,3.54-.79,5.4-1.3,3.6,.14,7.7-.66,10.78,.31,.54-.36,1.08-.73,1.81-1.21,2.11,.53,4.23,1.06,6.34,1.59,1.49-.27,2.99-.43,4.48-.69,1.36,.55,2.19,1.69,3.89,1.53,1.48-.39,2.78-.77,4.45-1.16,1.68-.28,3.04,.16,4.56,.47,2.82-.31,6.01-.62,9.02-.82,1.69-.04,3.58-.09,5.28-.14,.03,.36,.04,.7,.07,1.05,1.89,.18,3.8,.37,5.51,.44,0-.11-.02-.35-.04-.58,1.9,.19,3.61,.38,5.51,.44,1.88-.05,3.58-.09,5.47-.14,2.67,.4,7.29-1.12,10.83,.89,2.04-.64,4.26-1.27,6.29-1.91,2.34,.99,5.85-.15,8.19,.96,1.08-.73,2.35-1.58,3.43-2.31,1.36,.55,2.52,.98,3.69,1.54,2.82-.19,5.45-.49,8.26-.8,.02,.23,.03,.47,.04,.58,1.7-.05,3.58-.09,5.28-.13,3.02-.08,6.22-.16,9.05-.23-.03-.35-.04-.7-.07-1.05-5.25-2.2-9.39-2.09-14.48-1.97-.02-.35-.05-.7-.07-1.05,8-1.84,14.9-.38,17.99-2.21,7.31-.77,19.15-1.77,27.19-.11,1.09-.73,2.35-1.58,3.43-2.31,.96,.21,1.72,.31,2.68,.51,1.87-.28,3.56-.44,5.42-.72,.05,.7,.1,1.51,.15,2.22,2.16,1.23,4.52,2.57,6.68,3.8-.91,.61-1.82,1.1-2.72,1.7,1.92,.54,.16,2.45,2.97,2.14,1.48-.5,2.95-1.13,4.42-1.75-.8-.68-1.42-1.48-2.03-2.17,1.09-.73,2.35-1.58,3.43-2.3,4.89-.36,10.4,.2,16.25-2.75-1.34-.32-2.5-.64-3.84-.95Z"/><path class="cls-1" d="M483.99,33.43c-1.52-.2-3.04-.28-4.56-.47-1.67,.4-3.54,.79-5.39,1.31,.03,.46,.07,1.05,.11,1.63,1.37,.67,2.55,1.45,3.92,2.12,1.69-.16,3.56-.44,5.24-.72,1.29-.5,2.38-1.11,3.67-1.73-.99-.68-1.99-1.47-2.98-2.14Z"/><path class="cls-1" d="M198.04,68.16c-1.14-.09-2.47-.29-3.62-.49-3.57,.32-7.33,.65-10.9,.86,.04,.58,.08,1.17,.11,1.63-2.64,.07-5.47,.14-8.11,.21-.53,.48-1.08,.84-1.81,1.21,2.03,2.17,7.32,2.03,10.03,.33,.42,.57,.64,1.03,1.05,1.61,4.52-.23,9.03-.58,13.55-.93,3.38-.21,6.57-.52,9.96-.72,.12-1.17,.41-2.34,.72-3.4-3.79-.14-7.38-.17-10.98-.3Z"/><path class="cls-7" d="M76.16,22.47c1.17-5.05-12.81,.44-9.49-6.41,.32-.94,.44-1.88,.76-2.82-.04-.7-.1-1.51-.15-2.22-1.89,.05-3.58,.1-5.47,.14-.62-.8-1.23-1.48-1.85-2.28-2.5-.64-5-1.28-7.5-2.03-2.45,2.86-2.38,4.03-2.31,5.08,1.54,.43,3.08,.74,4.61,1.05-.29,1.29-.58,2.7-.68,3.98,0,.12,.02,.35,.03,.47,.07,1.05,.12,1.86,.19,2.8-2.08,.05-4.34,.11-6.41,.17-.15,.59-.49,1.18-.64,1.77-.65,1.53-1.12,2.94-1.59,4.47,3.03,.16,6.07,.32,9.09,.35,.19,0,.56-.01,.94-.02-.06-.93-.13-1.87-.19-2.8,.92-.38,1.65-.74,2.56-1.24,2.51,.75,5.01,1.39,7.51,2.14-.64,1.65-1.1,3.3-1.55,5.06,0,.12,.02,.35,.04,.58,.25,.93,.69,1.85,1.13,2.77-.91,.49-1.82,1.1-2.72,1.71-.11,1.17-.42,2.23-.53,3.4,0,.12,.02,.35,.04,.58,1.72,.31,3.63,.61,5.35,.92,3.4,.03,4.56-2.45,5.21-3.99-.06-.93-.13-1.86-.19-2.8,.34-.59,.49-1.18,.83-1.77-1.01-.91-2.01-1.82-2.83-2.73,.14-.7,.47-1.53,.61-2.24-.21-.34-.61-.68-.83-1.14,2.01-.99,4.03-1.86,6.03-2.96Z"/><path class="cls-1" d="M64.29,5.96c-1.62,1.09-2.89,1.94-4.34,2.91,.62,.8,1.23,1.48,1.85,2.28,1.89-.05,3.58-.09,5.47-.14,.51-.83,1.03-1.54,1.73-2.38-1.76-.89-3.13-1.67-4.71-2.68Z"/><path class="cls-1" d="M34.51,35.32c1.01-1.89,2.02-3.79,3.21-5.68-.02-.35-.05-.71-.07-1.05-.42-.57-.83-1.15-1.06-1.73,.03-2.33,.25-4.79,.46-7.25,1.01-1.77,2.94-4.04-.26-3.96-.95,.02-1.89,.05-2.83,.07,.08,1.16,.15,2.21,.23,3.38-1.9,2.62-6.68,4.61-1.21,7.27-4.15,3.02-6.1,7.63-.34,9,1.08,2.07,2.16,4.03,3.05,6.11,.94-.02,1.88-.05,2.83-.07,.54-.36,1.08-.73,1.62-1.21-1.81-1.59-3.8-3.17-5.62-4.88Z"/><path class="cls-9" d="M572.22,22.18c-.64,1.66,1.81,4.4-4.16,5.71,3.03,.16,6.06,.2,9.09,.35,2.92-1.48,3.97-5.59-.41-6.18-1.51,.04-3.02,.08-4.53,.11Z"/><path class="cls-9" d="M580.39,51.17c-.64-1.15-1.29-2.31-1.92-3.34-9.68-3.49-4.17,2.67-10.87,1.33-1.51,.04-3.02,.08-4.53,.11-1.85,.63-3.5,1.26-5.35,1.89,3.42,.26,6.65,.53,10.07,.8,4.38,.47,8.56,.95,12.75,1.43-.08-1.17-.12-1.75-.15-2.21Z"/><path class="cls-9" d="M548.66,51.39c-2.78-2.03-.22-6.07-6.53-4.39-2.57,1.12-2.27,2.75-3.51,4.06,3.41,.14,6.81,.18,10.03,.32Z"/><path class="cls-9" d="M535.45,14.72c-1.51,.04-3.02,.08-4.45,1.28-1.88,.05-3.78,.1-5.47,.14-1.9-.19-3.61-.38-5.51-.44-.15,.59-.5,1.06-.83,1.65,.01,.23,.03,.47,.04,.59,2.07-.06,4.34-.12,6.41-.17,1.17,.55,2.53,1.1,3.7,1.54,.54-.36,1.08-.73,1.81-1.1,2.09,.06,4.18,.24,6.26,.42,.36-.24,.72-.49,.9-.61-1.02-1.14-2.03-2.17-2.86-3.31Z"/><path class="cls-9" d="M533.32,39.4c-5.98-1.71-9.73-1.39-10.75,.28,5.77,1.49,8.99,1.75,10.75-.28Z"/><path class="cls-9" d="M514,61.26c-5.45,.49-10.89,.98-16.15,1.46-.72,.49-1.27,.85-1.81,1.21-1.16-.31-2.5-.63-3.66-1.07-22.62,.81-45.23,1.62-67.85,2.32,.64,1.15,1.28,2.18,1.92,3.34,6.57-.64,12.92-1.73,18.15,.12,6.14-1.32,11.62,1.57,18.21,1.17,.31-.95-.72-2.2,.76-2.82,6.39-.51,12.44,5.29,17.23,.73,2.86,.39,5.54,.91,8.41,1.42,2.05-.4,4.11-.8,6.15-1.32,.73-.37,1.27-.73,1.82-1.1,2.06-.29,4.12-.46,6.18-.74,3.39-.2,8.88,2.81,9.96-.84,1.73,.54,3.48,1.2,5.54,1.03-.86-1.62,2.31-2.28,3.28-4.64-2.65-.05-5.5-.21-8.14-.26Z"/><path class="cls-9" d="M478.45,18.39c-1.7,.04-3.58,.09-5.47,.14,.04,.58,.08,1.17,.12,1.75,1.89-.05,3.77-.09,5.47-.14-.04-.58-.08-1.16-.12-1.75Z"/><path class="cls-9" d="M458.61,18.32c-2.93-1.45-5.23-1.97-5.47,.14,1.69-.05,3.58-.09,5.47-.14Z"/><path class="cls-9" d="M438.74,20.57c-12.11-3.08-20.99-.4-30.82-.38-11.82-1.57-28.56-.44-40.78,.46-.87,1.07-2.98,.54-4.48,.7-.38-.11-.58-.33-.98-.56-19.15-1.03-36.33,1.98-54.46-.83-1.44,1.08-4.12,.57-6.18,.74-6.74-1.93-17.02-.26-25.54-.51-2.79-2.14-9.63,.02-13.69-1.29-9.77,.72-18.32-2.8-28.18-.45,.98,.56,2.05,2.4,5.69,3.24,.08,1.17,.15,2.22,.22,3.39,4.93,.11,9.65,.1,14.56,.21,.14-.7,.47-1.53,.8-2.24,1.74,.66,3.69,1.43,5.62,2.08,5.1-.01,10.21,.09,15.31,.2,2.8-.54,6.72-1.22,9.12,.82,1.88-.16,3.56-.44,5.43-.72,3.03,.16,6.06,.32,9.09,.35,2.66,.17,5.5,.32,8.15,.37,.38-.01,.57-.02,.95-.03,2.1,.3,4.19,.59,6.49,1,2.08,.06,4.17,.24,6.25,.31,2.09,.18,4.37,.35,6.46,.42,2.07-.17,4.12-.45,6.18-.74,6.03-.15,12.07-.31,18.1-.47,1.89-.05,3.77-.09,5.47-.14,1.88-.05,3.58-.09,5.47-.14,1.13-.03,2.45-.06,3.58-.09,1.65-.74,4.72,0,4.42-1.75,3.78,.02,7.89-.67,11.96,.86,3.92-3.6,16.26-2.63,22.33-2.32,9.8-.25,16.72-1.24,28.06-1.3,1.86-.4,3.53-.79,5.4-1.19Z"/><path class="cls-9" d="M412.61,64.91c-4.15,.1-8.3,.21-12.64,.32-1.66,.62-3.5,1.26-5.16,1.88,1.89,2.87,7.18,.17,9.05,2.57,2.36,1.46,6.19-.62,8.97-1.4,2.26-.06,4.34-.11,6.41-.16-.43-.81,1.05-1.19,1.7-2.85-2.84-.04-5.5-.21-8.34-.37Z"/><path class="cls-9" d="M356.49,64.7c-2.64,.18-5.45,.49-8.08,.79-.91,.37-1.83,.74-2.75,1.12-4.6-.94-2.84-2.96-5.46-2.67-1.33-.08-2.48-.29-3.82-.49-.75,.02-1.7,.05-2.63,.07-3.39,.32-6.57,.63-9.96,.84-3.47,1.72-8.42,1.15-15.32-.19-3.36,.55-6.73,.99-9.91,1.42-1.93-.54-3.66-1.08-5.58-1.49-3.57,.21-7.14,.53-10.91,.75-3.58,.09-7.17,.18-10.75,.27-1.48,.5-2.96,.89-4.45,1.28-1.89,.05-3.59,.09-5.47,.14-.39-.11-.6-.34-.99-.56-1.7,.04-3.58,.09-5.47,.14-1.62,1.21-3.43,2.31-5.05,3.52-2.23,.53-3.28-1.09-5.51-.44-2.45,.06-4.9,.13-7.35,.19-1.7,.04-3.59,.09-5.28,.13-.42-.69-.85-1.49-1.09-2.19-.94,.02-1.88,.05-2.83,.07-2.62,.41-5.24,.84-8.04,1.37-3.41-.15-6.63-.3-10.03-.33-.19,0-.56,.02-.75,.02-.31,1.06-.6,2.23-.72,3.4,1.73,.42,3.66,.96,5.58,1.49,1.7-.05,3.58-.09,5.25-.72,2.1,.41,4.39,.7,6.49,1,1.96,1,4.74,.23,7.21,.4,1.88-.05,3.76-.1,5.47-.14,7.52-.66,15.03-1.2,22.55-1.75,.58,.22,1.15,.32,1.92,.54,3-.43,5.98-.85,8.98-1.4,1.13-.03,2.45-.06,3.58-.09,4.61-1.75,6.49-1.92,8.04-1.25,1.52,.08,3.04,.27,4.56,.35,3.9-.92,1.31,2.54,4.68,2.21,1.08-.84,2.35-1.58,3.42-2.42,2.83-.08,7.75-2.77,8.34,.37,2.21-.87,6.55-.99,9.05-.23,3.35-.78,3.94-.33,8.18,.96,.37-2.93,1.51-2.84,4.49-.7,6.67-2.04,14.26-1.53,19.76-1.09,2.61-.42,6.53-1.34,7.39,.39,7.37,.05,12.04-.77,19.09,.1-1.88,2.97,4.82,1.4,6.29,.89,2.98-3.46,10.74-.39,14.31-3.63-3.22-.15-5.24-1.97-8.27-2.12-9.45-.11-18.91-.22-28.17-.33Z"/><path class="cls-9" d="M227.38,18.14c-3.86-1.19-10.5-1.6-12.63,.32,2.19,1.7,5.9,.67,12.63-.32Z"/><path class="cls-9" d="M201.84,17.63c-2.74-1.33-8.02-1.2-9.85-.33-.08,1.64,3.71,1.78,9.85,.33Z"/><path class="cls-9" d="M188.22,17.39c-3.7-1.54-6.33-1.47-9.12-.82-2.45,.07-4.72,.12-7.17,.18,.79,.45,1.86,2.29,7.24,.87,3.02-.08,6.04-.16,9.05-.23Z"/><path class="cls-9" d="M164.76,16.94c-3.89-1.65-6.52-1.59-9.13-.94-2.47-.28-4.95-.57-7.43-.98-2.66-.28-5.51-.56-8.18-.84-5.46,.26-8.45-2.12-15.61-1.82-2.67-.4-5.33-.68-8.19-.96-2.27-.06-3.71,1.03-6.15,1.32,.62,.68,1.24,1.49,1.85,2.17,1.88-.05,3.59-.09,5.47-.14,2.43-.41,4.67-.82,7.09-1.35,.81,.8,1.42,1.48,2.04,2.17,1.48-.39,4.27-1.05,5.54,1.03,.56-.01,1.13-.03,1.7-.04,2.05-.4,5.59-1.19,7.43,.98,.56-.02,1.13-.03,1.7-.05,1.85-.51,3.72-.91,5.39-1.3,3.22,.15,2.38,1.57,7.43,.98,2.83-.08,6.03-.16,9.05-.23Z"/><path class="cls-9" d="M94.54,11.96c-.29-4.31-6.56-2.05-10.14-1.96-3.17-2.14-9.88-.8-10.26-3.71-3.23-.27-3.17,.67-5.14,2.35-.7,.84-1.22,1.55-1.73,2.38,3.99,.37,7.99,.85,11.8,1.34,.94-.02,1.88-.05,2.83-.08,.19,0,.56-.01,.94-.02,.77,.21,1.72,.31,2.68,.52,3-.31,6.01-.51,9.01-.82Z"/><path class="cls-9" d="M64.29,5.96c.48-1.3,1.32-2.84-.18-2.8-.87-1.61-2.23-2.28-3.99-3.16-2.94,1.24-3.54,3.59-7.71,6.27-.63-1.03-1.28-2.18-1.91-3.22-.51,3.75-8.56,1.97-8.8,4.07,.03,.47,.06,.82,.08,1.17-1.6,1.44-3.95,3.02-5.21,3.99,.08,1.16,.16,2.33,.23,3.38,3.2-.08,1.28,2.19,.26,3.96-.22,2.46-.43,4.92-.46,7.25,.23,.58,.64,1.15,1.06,1.73,2.6-.66,5.39-1.31,7.99-1.96,.46-1.53,.94-2.94,1.59-4.47,.15-.59,.49-1.18,.64-1.77,.87-1.08,1.74-2.27,2.61-3.34-.12-1.75-.23-3.38-.34-5.13-.07-1.05-.15-2.22,2.31-5.08,2.51,.75,5,1.39,7.5,2.03,1.45-.97,2.71-1.82,4.34-2.91Z"/><path class="cls-9" d="M40.91,51.98c-1.05-1.61-2.06-2.52-3.73-2.13-3.51,1.14-3.59,2.78-3.29,4.52,2.15,1.11,5.31,.33,7.13-.65-.06-.93-.09-1.28-.12-1.75Z"/><path class="cls-6" d="M556.02,51.2c-1.79-1.24-7.29-1.68-7.36,.19,2.51,.76,.63,3.84,4.75,3.27,.86-1.19,1.73-2.38,2.61-3.45Z"/><path class="cls-6" d="M534.14,51.76c-.67-1.62-3.27-.85-4.56-.47-2.81,.42-5.99,.86-8.98,1.4,1.71,2.99,6.8,2.75,11.12,2.52,.87-1.19,1.74-2.38,2.41-3.45Z"/><path class="cls-6" d="M137.9,22.06c2.64-.18,5.26-.48,8.07-.79,3.74-.56,5.2,1.5,6.41,2.64-1.21-1.14-2.67-3.2-6.41-2.64-2.81,.3-5.43,.61-8.07,.79Z"/><path class="cls-6" d="M135.91,20.48c-2.09-.18-4.68,.59-6.57-2.17-1.16-.32-2.5-.64-3.65-.96-2.09-.18-4.17-.24-6.27-.42-1.86,.4-3.72,.79-5.39,1.3-1.96-1-4.93-.34-7.47-1.56-2.08,.05-4.15,.1-6.22,.16,.26,1.16-.04,2.21-1.66,3.42,.38,0,.57-.01,.94-.03,4.73,.11,9.64,.11,14.56,.22,6.99-.07,11.63,1.57,17.35,2.36,1.49-.27,2.99-.43,4.49-.7-.04-.59-.08-1.17-.11-1.63Z"/><path class="cls-6" d="M67.27,11.02c.05,.7,.1,1.52,.15,2.22,2.49,.52,4.79,.93,7.28,1.45,2.5,.63,2.95-1.13,4.38-2.33-3.81-.49-7.81-.97-11.8-1.34Z"/><path class="cls-7" d="M605.16,54.39c-3.45-3.53-9.73-1.39-14.67-1.84-.11,1.29-.39,2.7-.68,3.99,5.24-.72,10.29-1.43,15.35-2.15Z"/><path class="cls-7" d="M497.85,62.73c-1.55-.54-.76-2.9-5.47,.14,1.16,.44,2.5,.76,3.66,1.07,.54-.36,1.09-.72,1.81-1.21Z"/><path class="cls-7" d="M473.99,44.89c-2.16-1.23-4.52-2.57-6.68-3.8-.05-.7-.1-1.52-.15-2.22-1.87,.28-3.56,.44-5.42,.72-.97-.21-1.73-.31-2.68-.51-1.09,.73-2.35,1.58-3.43,2.31-8.05-1.67-19.88-.66-27.19,.11-3.09,1.83-9.99,.37-17.99,2.21,.02,.35,.05,.7,.07,1.05,5.09-.13,9.24-.23,14.48,1.97,.03,.35,.05,.7,.07,1.05-2.83,.07-6.04,.15-9.05,.23-1.7,.04-3.58,.09-5.28,.13-.01-.12-.02-.35-.04-.58-2.81,.31-5.44,.61-8.26,.8-1.17-.56-2.33-.99-3.69-1.54-1.08,.73-2.35,1.58-3.43,2.31-2.34-1.11-5.85,.03-8.19-.96-2.04,.64-4.26,1.27-6.29,1.91,.4,.34,.81,.68,1.02,1.03,5.54-1.78,6.63,3.22,9.05-.23,1.51-.04,3.02-.08,4.53-.11,2.44-.18,4.88-.47,7.13-.65,2.48,.4,4.98,.92,7.46,1.45,2.05-.41,4.11-.81,6.15-1.33,1.35,.43,2.51,.76,3.85,1.07,1.66-.63,3.51-1.26,5.17-1.77,1.55,.66,3.61,.37,8.22-1.38-.98-.56-1.97-1.12-2.94-1.56,5.16-1.88,6.07,.43,8.14,.26,3.41,.14,7.33-.54,10.03,.32,5.28-.13,10.38-.26,15.47-.39,2.45-.06,4.71-.12,7.16-.19,.9-.6,1.81-1.1,2.72-1.7Z"/><path class="cls-7" d="M364.53,49.32c-1.9-.07-3.61-.26-5.51-.44,.02,.23,.03,.47,.04,.58-1.7-.07-3.61-.26-5.51-.44-.03-.35-.05-.7-.07-1.05-1.7,.05-3.59,.09-5.28,.14-3.01,.19-6.2,.51-9.02,.82-1.53-.31-2.88-.75-4.56-.47-1.67,.39-2.97,.77-4.45,1.16,3.45,.84,3.94,2.47,9.96,2.08,3.38-.32,6.57-.64,9.96-.84,.37,0,.56-.01,.94-.02,2.66,.28,5.52,.56,8.18,.84,1.88-.16,3.57-.44,5.44-.6,1.84-.63,3.5-1.26,5.35-1.89-1.88,.05-3.58,.09-5.47,.14Z"/><path class="cls-7" d="M348.41,65.49c-.82-1.15-2.39-1.92-3.76-2.71-1.67,.39-2.97,.78-4.45,1.16,2.62-.3,.87,1.73,5.46,2.67,.92-.38,1.84-.75,2.75-1.12Z"/><path class="cls-7" d="M295.55,48.86c-5.12-.22-10.23-.44-15.36-.77-6.8,.05-13.41,0-20.02,.04-1.9-.18-3.13-1.67-5.55-1.02-1.49,.27-2.99,.43-4.48,.7-5.51-.45-10.83-.89-16.34-1.34-3,.31-6.01,.62-9.02,.81,3.06,.51,6.12,1.01,9.17,1.52,5.66-.14,7.68,1.79,16.29,.63,2.86,.4,5.52,.67,8.19,.96,4.19,.59,7.03,.64,11.04,1.35,3.58-.21,7.14-.53,10.9-.86,3.3,1.32,7.54-.19,9.77-.72,1.88-.28,3.75-.56,5.43-.72-.02-.24-.02-.35-.04-.58Z"/><path class="cls-7" d="M250.35,65.19c-.56,.13-1.1,.38-1.67,.51-1.93-.66-3.67-1.31-5.62-2.08-.57,.01-1.13,.03-1.88,.05-2.75,1.24-5.33,2.24-10.53,3.66,.24,.69,.67,1.5,1.09,2.19,1.7-.04,3.58-.09,5.28-.13,2.45-.06,4.9-.13,7.35-.19,2.22-.64,3.28,.97,5.51,.44,1.62-1.21,3.43-2.3,5.05-3.52-1.53-.31-3.06-.62-4.59-.93Z"/><path class="cls-11" d="M229.16,58.96c-.57,.01-1.13,.03-1.89,.05,.02,.24,.03,.35,.04,.59-4.67,.7-5.54-.91-9.88-.92-1.51,.04-3.97-.13-3.69,1.26-4.3,.69-5.91-.78-8.26-2.01-7.85,1.25-15.5-.19-22.63,.58-7.14,.65-5.22-4.65-5.96-7.21-2.49-.4-3.48,1.61-5.13,2.35-2.29-.29-4.38-.58-6.48-.88-.6-.57-1.21-1.13-2-1.7-2.09-.06-4.68,.58-5.44-2.08-1.32,.03-2.45,.06-3.77,.1-.63-.92-1.26-1.84-1.88-2.75-3.54,.68-7.32,.77-10.98-.3-1.7-.07-3.6-.26-5.5-.32-3.06,2.29-6.06-.19-10.87-1.47-.76,.02-1.32,.04-1.89,.05-.86,1.19-1.55,2.26-2.42,3.45-3.42-.26-6.64-.53-10.07-.91-1.93-.65-3.67-1.3-5.61-2.08-1.7-.07-3.61-.26-5.51-.44-.03-.47-.07-1.05-.11-1.63-1.16-.33-2.5-.64-3.66-1.07-2.64,.07-5.47,.14-8.11,.21-2.18-1.58-4.56-3.15-6.75-4.85-.76,.02-1.7,.04-2.64,.07-.37,2.93-1.51,2.84-2.45,2.86-1.74-.66-.9-2.2-1.17-3.36-.82-.91-2.74-1.45-1.92-.42-.66,1.54-1.81,4.02-5.21,3.99-1.73-.31-3.63-.61-5.35-.92-3.32,1.13-4.83,1.18-6.34,1.21-2.07,.05-4.33,.11-6.41,.17,.08,1.16,.15,2.21,.23,3.38,1.34,.32,2.5,.64,3.85,1.07-.2,2.57-.41,5.15-.42,7.83,0,.12,.03,.35,.04,.58,.94-.02,1.7-.04,2.64-.07,.38,0,.57-.01,.94-.02,3-.31,6-.62,9.01-.81,.57-.02,1.13-.03,1.89-.05,1.69-.04,3.58-.09,5.28-.13,1.36,.55,2.19,1.69,3.88,1.53,1.13-.02,2.26-.06,3.58-.09,1.66-.63,3.51-1.14,5.36-1.78,3.21,.04,7.14-.64,10.79,.31-.5,1.06-.98,2.24-1.48,3.31-2.81,.31-5.44,.6-8.26,.8,2.18,1.46,6.67,.76,6.6,2.63,3.41,.15,6.63,.3,10.03,.33,6.09,.78,10.74,2.41,19.31,3.47-6.99-.05-6.67,1.92-8.11,3.01,.79,.45,1.39,1.02,1.99,1.59,1.86-.4,3.54-.79,5.39-1.31,.09,1.4,.18,2.68,.26,3.97,1.52,.2,3.04,.27,4.56,.47,.15-.59,.49-1.18,.83-1.77,7.24,.86,8.45-3.6,13.51-1.4,0,.12,.02,.35,.04,.59,2.26-.06,4.71-.12,7.17-.19,2.47,.29,4.76,.58,7.24,.86,.44,.92,.88,1.85,1.13,2.78,4.34-.11,8.49-.21,12.63-.32,1.22-1.55,2.26-2.98,3.48-4.53-2.03-2.05-8.08,.67-8.49-2.58,1.28-.62,2.38-1.23,3.66-1.85,1.89,.07,4.13-.34,5.35,1.03,9.09,.35,15.74,.77,23.69,1.03,3.59-.09,7.35-.19,10.94-.28,1.5-.16,2.99-.43,4.49-.58,2.65,.05,5.49,.21,8.14,.26,1.87-.4,3.54-.79,5.4-1.19,.56-.02,1.14-.03,1.7-.04,1.5-.16,2.14,.88,6.37-.75-2.09-.3-1.77-1.01-4.71-2.68Z"/><path class="cls-7" d="M225.87,63.48c-1.88,.05-3.58,.09-5.47,.14-2.65-.05-5.49-.21-8.14-.26-.88,.96-1.76,1.91-2.65,2.87-.62-.8-1.23-1.48-1.85-2.29-3.59,.09-7.35,.19-10.94,.28-.87,1.19-1.54,2.37-2.41,3.45,1.15,.2,2.48,.4,3.62,.49,3.6,.14,7.19,.17,10.98,.3,.19,0,.56-.02,.75-.02,3.4,.03,6.63,.18,10.03,.33,2.8-.54,5.41-.96,8.04-1.37-.65-1.27-1.3-2.53-1.97-3.92Z"/><path class="cls-7" d="M211.14,46.58c-10.84,1.79-16.55,1-21.77-.61,5.22,1.62,10.93,2.41,21.77,.61Z"/><path class="cls-10" d="M164.13,64.01c.41,3.26,6.46,.54,8.49,2.58-1.22,1.55-2.26,2.98-3.48,4.53,1.53,.19,3.05,.39,4.57,.46,.73-.37,1.27-.73,1.81-1.21-.06-.93-.12-1.75-.18-2.79,4.49-.7,5.23,1.96,8.18,.96,3.57-.21,7.33-.54,10.9-.86,.87-1.07,1.55-2.26,2.41-3.45-7.95-.26-14.59-.68-23.69-1.03-1.22-1.37-3.46-.96-5.35-1.03-1.28,.62-2.38,1.23-3.66,1.85Z"/><path class="cls-7" d="M183.52,68.53c-2.96,1.01-3.7-1.66-8.18-.96,.06,1.04,.12,1.86,.18,2.79,2.64-.07,5.47-.14,8.11-.21-.03-.47-.07-1.05-.11-1.63Z"/><path class="cls-7" d="M173.73,43.56c-2.06,.29-4.32,.46-6.37,.75,.02,.35,.05,.7,.07,1.05,1.91,.42,2.54,1.33,7.35-.19-.41-.45-.83-1.03-1.05-1.61Z"/><path class="cls-7" d="M160.61,36.66c-2.39,.99-4.78,1.99-7.17,2.98-.19,.01-.56,.02-.75,.02-2.28-.18-4.37-.36-6.45-.41-.63-.92-1.25-1.84-2.08-2.76-5.33-.68-8.73-3.39-15.5-2.99,.78-2.47-6.01,.5-4.71-2.69-11.19-3.45-21.51,3.24-32.71-.33-2.08-.06-4.87,.59-6.44-.3,1.21-1.55,4.25-1.4,4.34-2.91-.04-.58-.08-1.16-.11-1.75-2.47-.29-4.76-.58-7.24-.87-.91,.49-1.82,1.1-2.53,1.7,.27,1.28,.74,2.66,1.02,3.94,6.29,3.69,9.79,5.24,14.89,5.22,2.1,.41,4.41,.94,6.52,1.47-2.05,.41-4.29,.81-6.33,1.33,.07,1.05,.15,2.22,.22,3.27,1.16,.44,2.5,.75,3.66,1.07,1.88-.05,3.77-.1,5.47-.14,1.88-.16,3.56-.44,5.43-.73,4.58,.59,8.04,1.66,12.78,1.89,.02,.23,.03,.47,.04,.58,.57-.01,1.13-.03,1.89-.05,3.58-.09,7.16-.18,10.75-.27,1.9,.18,3.8,.37,5.51,.44,1.12-.15,2.43-.41,3.55-.68,2.09,.18,4.36,.35,6.45,.42,.58,.22,1.16,.32,1.93,.54,1.68-.28,3.56-.44,5.24-.72-.04-.58-.09-1.17-.11-1.63,1.84-.63,3.69-1.26,5.35-1.88-1.03-1.26-1.87-2.52-2.9-3.78Z"/><path class="cls-10" d="M122.5,62.85c-8.57-1.07-13.22-2.7-19.31-3.47-3.41-.03-6.62-.18-10.03-.33,.06-1.87-4.42-1.17-6.6-2.63,2.82-.19,5.45-.49,8.26-.8,.5-1.06,.98-2.24,1.48-3.31-3.65-.96-7.58-.28-10.79-.31-1.85,.63-3.7,1.15-5.36,1.78-1.32,.03-2.45,.06-3.58,.09-1.69,.16-2.52-.99-3.88-1.53-1.7,.05-3.59,.09-5.28,.13,.63,1.04,1.28,2.19,1.92,3.34-1.7,.04-3.59,.09-5.47,.14-.19,0-.56,.02-.75,.02,.03,.47,.07,1.05,.11,1.63,.08,1.16,.15,2.21,.23,3.38-.94,2.94-2.23,3.44-1.59,4.48,1.16,.44,2.51,.75,3.66,1.08,.88-.96,1.76-1.91,2.64-2.87,3.96-.1,8.08-.68,10.86,1.35,.06,.93,.12,1.87,.18,2.8,3.39-.09,6.6-.17,10-.25,3.42,.38,6.66,.64,10.07,.91,2.71,.98,5.54,.91,8.18,.84,3.05,.39,6.09,.66,9.13,.94,1.89-.05,3.59-.09,5.47-.14-.08-1.28-.17-2.56-.26-3.97-1.86,.51-3.53,.91-5.39,1.31-.61-.57-1.21-1.14-1.99-1.59,1.44-1.08,1.12-3.06,8.11-3.01Z"/><path class="cls-7" d="M79.19,67.81c-.06-.93-.12-1.86-.18-2.8-2.78-2.03-6.9-1.46-10.86-1.35-.88,.95-1.76,1.91-2.64,2.87,2.1,.3,4.38,.59,6.48,.89,1.01,1.03,4.75,.34,7.2,.4Z"/><path class="cls-7" d="M67.4,52.46c-.75,.02-1.32,.03-1.89,.05-3.01,.19-6.01,.5-9.01,.81,2.14,.88,4.27,1.76,6.6,2.64,.19,0,.57-.02,.75-.02,1.88-.05,3.77-.1,5.47-.14-.64-1.15-1.29-2.3-1.92-3.34Z"/><path class="cls-7" d="M63.43,60.97c-.08-1.16-.15-2.21-.23-3.38-2.23,.64-4.26,1.27-6.3,1.79,.23,.58,.64,1.15,1.06,1.73,1.23,1.48,2.65,2.85,3.88,4.34-.63-1.03,.65-1.53,1.59-4.48Z"/><path class="cls-7" d="M52.87,52.84c-5.51-.44-9.01-1.99-11.96-.86,.03,.46,.05,.81,.12,1.75,.8,.68,1.42,1.48,2.03,2.17,3.35-.79,6.5-1.69,9.85-2.47-.01-.23-.03-.47-.04-.58Z"/><path class="cls-8" d="M590.49,52.54c-2.49-.53-4.8-1.05-7.28-1.45-.95,.02-1.89,.05-2.83,.08,.03,.46,.07,1.05,.15,2.21,1.96,1,3.73,2.12,5.7,3.24,1.13-.03,2.45-.06,3.58-.09,.29-1.29,.58-2.7,.68-3.99Z"/><path class="cls-8" d="M438.6,46.85c-2.07,.17-2.98-2.14-8.14-.26,.97,.44,1.95,1,2.94,1.56,1.67-.39,3.54-.79,5.2-1.3Z"/><path class="cls-8" d="M91.52,20.45c-4-.48-7.51-2.15-9.35-4.2-.09-1.28-.18-2.68-.26-3.97-.95,.03-1.89,.05-2.83,.08-1.43,1.2-1.88,2.96-4.38,2.33-2.49-.52-4.78-.93-7.28-1.45-.31,.94-.44,1.88-.76,2.82-3.32,6.86,10.67,1.36,9.49,6.41-1.51-.08-3.04-.27-4.55-.35,1.04,1.49-1.37,2.13-1.48,3.31,.22,.46,.62,.8,.83,1.14,2.46-.06,4.9-.12,7.36-.19,.18,0,.56-.01,.94-.03,.71-.6,1.62-1.21,2.53-1.7,1.07-3.76,5.49-2.59,7.92-3,.54-.48,1.08-.84,1.81-1.21Z"/><path class="cls-8" d="M63.1,55.96c-2.33-.87-4.46-1.76-6.6-2.64-.38,.01-.57,.02-.94,.02,.51,1.97,.84,4.07,1.35,6.04,2.04-.52,4.08-1.15,6.3-1.79-.04-.58-.08-1.17-.11-1.63Z"/><path class="cls-8" d="M54.1,17.43c0-.12-.02-.35-.03-.47-1.13,.03-2.45,.06-3.58,.09-.87,1.07-1.74,2.26-2.61,3.34,2.07-.06,4.34-.11,6.41-.17-.06-.93-.12-1.75-.19-2.8Z"/><path class="cls-10" d="M212.26,63.36c-1.5,.16-2.99,.43-4.49,.58,.62,.8,1.23,1.49,1.85,2.29,.88-.96,1.76-1.91,2.65-2.87Z"/><path class="cls-10" d="M155.38,68.66c-2.47-.28-4.76-.58-7.24-.86-2.46,.07-4.9,.13-7.17,.19-.02-.24-.03-.47-.04-.59-5.06-2.2-6.27,2.26-13.51,1.4-.34,.59-.68,1.18-.83,1.77,5.92,.9,9.38,1.86,13.69,1.29,5.47-.14,10.75-.27,16.22-.41-.25-.93-.69-1.85-1.13-2.78Z"/><path class="cls-10" d="M139.96,52.83c-1.89,.05-3.77,.1-5.47,.14-1.28,.73-2.35,1.58-3.44,2.31-9.13,1.75-14.14-2.56-21.91-.03,.03,.46,.05,.81,.08,1.16,3.42,.27,6.65,.53,10.07,.91,5.72,.79,13.98,0,20.93-.53-.08-1.28-.18-2.68-.26-3.96Z"/><path class="cls-10" d="M122.92,43.7c-4.74-.23-8.21-1.31-12.78-1.89-1.87,.28-3.55,.56-5.43,.73-1.69,.04-3.58,.09-5.47,.14,.04,.58,.08,1.16,.11,1.63,1.9,.18,3.8,.37,5.51,.44,1.94,.77,3.69,1.43,5.61,2.08,3.43,.38,6.66,.65,10.07,.91,.87-1.19,1.55-2.26,2.42-3.45,0-.12-.02-.35-.04-.58Z"/><path class="cls-10" d="M101.69,37c-3.54-2.13-5.05-2.09-6.52-1.47-5.1,.01-8.6-1.53-14.89-5.22-2.43,.41-4.67,.82-7.1,1.23-.34,.59-.49,1.18-.83,1.77,.06,.93,.13,1.86,.19,2.8-.83-1.03,1.1-.49,1.92,.42,.26,1.16-.58,2.7,1.17,3.36,.94-.03,2.08,.06,2.45-2.86,.94-.03,1.89-.05,2.64-.07,2.19,1.7,4.56,3.27,6.75,4.85,2.64-.07,5.47-.14,8.11-.21-.07-1.05-.15-2.22-.22-3.27,2.04-.52,4.28-.92,6.33-1.33Z"/><path class="cls-10" d="M64.06,30.72c-.57,.02-1.13,.03-1.89,.05-2.16-1.23-4.33-2.58-6.49-3.81-.38,0-.76,.02-.94,.02-3.03-.04-6.06-.2-9.09-.35-2.6,.65-5.39,1.3-7.99,1.96,.02,.34,.05,.7,.07,1.05-1.19,1.89-2.2,3.79-3.21,5.68,1.82,1.71,3.81,3.29,5.62,4.88-.54,.48-1.08,.84-1.62,1.21-.95,.02-1.89,.05-2.83,.07-4.05,1.5-1.8,4.14-2.23,6.24,1.18,.67,2.55,1.45,3.73,2.12,1.67-.39,2.68,.52,3.73,2.13,2.95-1.13,6.46,.42,11.96,.86,.01-2.68,.22-5.26,.42-7.83-1.35-.43-2.51-.75-3.85-1.07-.08-1.16-.15-2.21-.23-3.38,2.08-.06,4.34-.11,6.41-.17,1.51-.04,3.02-.08,6.34-1.21-.02-.23-.03-.46-.04-.58,.11-1.17,.42-2.23,.53-3.4,.9-.6,1.81-1.21,2.72-1.71-.44-.92-.88-1.84-1.13-2.77Z"/><path class="cls-10" d="M54.75,12.98c-1.53-.31-3.07-.62-4.61-1.05,.12,1.75,.23,3.38,.34,5.13,1.13-.03,2.45-.06,3.58-.09,.1-1.29,.39-2.7,.68-3.98Z"/><path class="cls-11" d="M282.94,63.77c-3.09-1.09-6.18-2.06-9.27-3.15-.19,0-.57,.01-.95,.02-.54,.36-1.08,.73-1.61,1.21,.07,1.05,.15,2.21,.22,3.26,3.58-.09,7.16-.19,10.75-.27,.35-.36,.71-.72,.87-1.08Z"/><path class="cls-11" d="M79.26,26.36c-.38,.01-.76,.02-.94,.03-2.46,.06-4.9,.13-7.36,.19-.14,.7-.46,1.53-.61,2.24,.82,.91,1.82,1.82,2.83,2.73,2.43-.41,4.67-.82,7.1-1.23-.27-1.28-.75-2.67-1.02-3.94Z"/><path class="cls-11" d="M59.94,22.89c-.75,.02-1.32,.03-1.89,.05-.91,.49-1.64,.86-2.56,1.24,.06,.93,.13,1.86,.19,2.8,2.16,1.23,4.33,2.57,6.49,3.81,.76-.02,1.32-.03,1.89-.05-.02-.23-.03-.46-.04-.58,.45-1.76,.91-3.41,1.55-5.06-1.94-.76-3.87-1.42-5.62-2.19Z"/><path class="cls-6" d="M98.68,20.26c-1.55-.54-3.09-1.09-4.63-1.51,.29-1.29,.39-2.7,.67-3.99-2.07,.05-4.33,.11-6.41,.17-1.55-.54-1.42-1.49-2.79-2.15-.96-.21-1.91-.3-2.68-.52-.38,.01-.75,.02-.94,.02,.08,1.29,.18,2.69,.26,3.97,1.84,2.05,5.35,3.72,9.35,4.2-.73,.37-1.27,.73-1.81,1.21-1.51,.04-3.02,.08-4.53,.12-3.46-.85-3.87,1.38-3.39,2.89,2.47,.29,4.76,.58,7.24,.87,.04,.58,.08,1.16,.11,1.75,1.33,.08,2.48,.29,3.81,.37,5.55,1.03,6.6-2.97,13.43-2.56,.86-1.31-1.99-1.59-2.03-2.17-1.91-.3-3.63-.61-5.55-1.02-.03-.47-.07-1.05-.11-1.63Z"/><path class="cls-1" d="M94.72,14.76c-.06-.93-.12-1.86-.18-2.8-3,.31-6.01,.5-9.01,.82,1.37,.66,1.24,1.61,2.79,2.15,2.07-.06,4.34-.11,6.41-.17Z"/><path class="cls-9" d="M453.14,18.46c-1.89,.05-3.58,.09-5.47,.14,1.69-.16,.52,2.09,5.47-.14Z"/><path class="cls-9" d="M110.08,12.73c-3.7-1.77-10.16-2.19-15.54-.77,.06,.94,.12,1.87,.18,2.8,3.39-.2,6.58-.52,9.96-.84,1.68-.39,3.54-.79,5.4-1.19Z"/><path class="cls-6" d="M154.57,28.41c-4.07-1.65-6.15-1.6-8.23-1.55-2.7,4.86,4.78,3.62,8.23,1.55Z"/><path class="cls-6" d="M486.97,35.57c-1.28,.61-2.37,1.23-3.67,1.73,1.21,1.13,1.71,2.99,4.69,2.21,1.68-.28,2.98-.55,4.48-.7-.16-2.33-4.38-.59-5.51-3.24Z"/><path class="cls-7" d="M330.17,49.61c-1.69,.16-2.53-.99-3.89-1.53-1.49,.27-2.99,.42-4.48,.69-2.11-.53-4.23-1.06-6.34-1.59-.73,.49-1.27,.85-1.81,1.21-3.09-.97-7.19-.17-10.78-.31-1.86,.52-3.72,.91-5.4,1.3,1.51-.04,2.53,.99,3.7,1.54,4.15-.11,8.49-.22,12.63-.32,1.51-.04,3.02-.08,8.04-1.26,2.08,.06,3.13,1.56,8.33,.26Z"/></g></g><g class="cls-4"><path class="cls-2" d="M608.59,48.35c-.28,1.18-2.48,1.76-1.64,3.12,2.43-.06,4.84-.12,7.26-.17,.06-1.7-1.59-4-5.63-2.95Z"/><path class="cls-2" d="M523.73,38.12c5.69,1.36,8.88,1.6,10.62-.25-5.9-1.56-9.6-1.26-10.62,.25Z"/><path class="cls-2" d="M590.79,49.84c-2.46-.48-4.74-.95-7.18-1.32-.93,.02-1.86,.05-2.79,.07-.63-1.05-1.27-2.1-1.9-3.04-9.56-3.18-4.12,2.43-10.73,1.21-1.49,.03-2.98,.07-4.47,.1-1.82,.58-3.46,1.14-5.28,1.72-.56,.01-1.12,.02-1.67,.04-1.76-1.13-7.2-1.53-7.27,.17-2.74-1.85-.22-5.52-6.44-4-2.54,1.02-2.24,2.5-3.46,3.7-1.48,.25-2.77,.38-4.43,.63-.67-1.47-3.23-.77-4.5-.43-.08-1.06-.15-2.02-.22-3.08-.79-.51-1.75-.92-2.72-1.43-7.02,.91-13.15-1.28-20.48,.49-3.05-3.54,2.12-4.19,.3-6.17-1.04-1.57-3.38-.35-5.32-1.36-.01-.21-.02-.32-.04-.53-2.07-2.82-2.13-3.67-2.19-4.52,2.05,.06,4.31,.22,6.37,.38,.56-.02,1.12-.03,1.67-.04,2.42-.05,4.85-.11,7.27-.17,1.08-.56,2.35-1.12,3.42-1.68,4.48,.1,9.07,1.7,13.4-.31,4.09-.2,8.36-.52,12.44-.83,3.16-.18,4.89-2.03,7.82-2.73,1.36,.71,2.52,1.32,3.69,2.04,4.87,.31,8.32-.94,12.58-1.36,2.99,.14,5.98,.18,8.98,.32,2.88-1.35,3.92-5.09-.4-5.62,.67-1.08,1.52-2.06,2.38-3.14,.41-2.03-3.69-2.04-7.22-1.85-3.36-.03-6.55-.16-9.91-.3-2.03,.26-4.25,.52-6.29,.68-.56,.02-1.12,.03-1.68,.04-2.96,.28-5.93,.46-8.9,.74-2.05,.05-4.28,.1-6.33,.15-1-1.04-2.01-1.97-2.83-3.02-1.49,.03-2.98,.07-4.39,1.17-1.86,.04-3.73,.09-5.4,.13-1.88-.17-3.57-.34-5.44-.4-.15,.54-.49,.97-.82,1.51-5.04,.01-10.08-.08-15.12-.17-8.36,.41-16.73,.82-25.1,1.12-1.68,.04-3.54,.08-5.4,.13-4.66,0-9.52-.1-14.19-.19-2.89-1.32-5.16-1.79-5.4,.13-1.86,.04-3.54,.08-5.4,.13-2.01,.58-4.02,1.16-6.22,1.74-.74,.02-1.68,.04-2.61,.06-11.96-2.8-20.73-.37-30.42-.35-11.67-1.43-28.2-.4-40.26,.42-.86,.98-2.94,.49-4.43,.63-.38-.1-.58-.3-.97-.51-18.91-.94-35.87,1.8-53.77-.75-1.42,.99-4.06,.52-6.11,.67-6.66-1.75-16.8-.24-25.22-.47-2.76-1.95-9.51,.01-13.51-1.17-9.65,.65-18.09-2.55-27.82-.41-2.06-.06-4.12-.22-6.18-.28-3.81-1.08-10.36-1.46-12.47,.3-4.31-.33-8.43-.54-12.74-.76-2.7-1.21-7.92-1.09-9.72-.3-1.3,.03-2.42,.06-3.72,.09-3.65-1.4-6.25-1.34-9.01-.75-2.42,.06-4.66,.11-7.08,.17-2.42,.06-4.84,.12-7.08,.17-3.84-1.51-6.44-1.44-9.01-.85-2.44-.26-4.89-.52-7.34-.89-2.63-.26-5.44-.51-8.08-.77-5.39,.23-8.34-1.93-15.41-1.66-2.64-.37-5.27-.62-8.08-.87-2.24-.06-3.66,.93-6.07,1.2-3.66-1.61-10.03-1.99-15.34-.7-.28-3.93-6.48-1.86-10.01-1.78-3.13-1.95-9.75-.73-10.13-3.38-3.19-.24-3.13,.61-5.07,2.14-1.74-.81-3.1-1.52-4.65-2.44,.48-1.18,1.3-2.58-.18-2.55-.85-1.47-2.2-2.07-3.94-2.88-2.9,1.13-3.5,3.27-7.61,5.71-.63-.94-1.26-1.99-1.89-2.93-.5,3.41-8.45,1.79-8.69,3.71,.03,.43,.06,.75,.08,1.06-1.58,1.31-3.9,2.75-5.15,3.63,.08,1.06,.16,2.12,.23,3.08-.93,.02-1.86,.04-2.8,.07,.08,1.06,.15,2.02,.22,3.08-1.88,2.39-6.6,4.19-1.2,6.62-4.09,2.75-6.03,6.95-.34,8.19,1.07,1.89,2.13,3.67,3.01,5.56-4,1.37-1.78,3.77-2.2,5.69,1.16,.61,2.52,1.32,3.69,1.93-3.47,1.04-3.55,2.53-3.25,4.12,2.12,1.02,5.24,.3,7.04-.59,.79,.62,1.41,1.35,2.01,1.97,3.3-.72,6.42-1.54,9.72-2.25,.93-.02,1.67-.04,2.61-.06,.5,1.8,.83,3.7,1.33,5.5,.22,.53,.64,1.05,1.04,1.57,1.22,1.35,2.61,2.6,3.83,3.95,1.15,.4,2.47,.68,3.62,.98,2.07,.27,4.33,.53,6.4,.81,1,.93,4.69,.31,7.11,.36,3.35-.08,6.52-.15,9.87-.23,3.38,.34,6.57,.59,9.95,.83,2.68,.89,5.47,.83,8.07,.77,3.01,.36,6.01,.6,9.02,.85,1.86-.05,3.54-.09,5.4-.13,1.5,.18,3,.25,4.51,.42,5.84,.82,9.26,1.7,13.51,1.17,5.4-.13,10.62-.25,16.01-.38,4.28-.1,8.38-.19,12.47-.29,1.51,.18,3.01,.35,4.51,.42,2.01,1.97,7.22,1.85,9.9,.3,.41,.52,.63,.94,1.04,1.46,4.47-.21,8.92-.53,13.37-.85,3.34-.19,6.49-.47,9.83-.66,1.71,.38,3.61,.87,5.51,1.36,1.68-.04,3.54-.08,5.18-.65,2.08,.37,4.33,.64,6.4,.91,1.93,.91,4.68,.21,7.12,.36,1.86-.05,3.72-.09,5.4-.13,7.42-.6,14.84-1.09,22.27-1.59,.57,.2,1.14,.29,1.9,.49,2.96-.39,5.91-.78,8.86-1.27,1.12-.03,2.42-.06,3.54-.08,4.55-1.6,6.4-1.75,7.94-1.14,1.5,.07,3,.24,4.5,.32,3.85-.83,1.29,2.31,4.62,2.02,1.06-.77,2.32-1.44,3.38-2.2,2.79-.07,7.65-2.52,8.23,.34,2.18-.79,6.47-.9,8.94-.21,3.31-.71,3.89-.3,8.08,.87,.37-2.67,1.49-2.59,4.43-.63,6.58-1.86,14.08-1.4,19.51-.99,2.58-.38,6.44-1.22,7.3,.36,7.28,.04,11.89-.7,18.85,.09-1.86,2.71,4.76,1.27,6.21,.81,2.95-3.15,10.61-.35,14.13-3.31,.56-.02,1.12-.03,1.86-.05,1.87,2.62,7.09,.15,8.93,2.34,2.33,1.33,6.11-.57,8.86-1.27,2.23-.05,4.28-.1,6.33-.15-.43-.74,1.04-1.09,1.68-2.59,1.11-.02,2.42-.05,3.54-.08,.64,1.05,1.26,1.99,1.89,3.04,6.49-.58,12.76-1.58,17.92,.11,6.06-1.21,11.48,1.43,17.98,1.07,.31-.86-.71-2.01,.75-2.57,6.3-.47,12.28,4.81,17.02,.66,2.82,.36,5.47,.83,8.3,1.29,2.03-.37,4.05-.73,6.07-1.21,.72-.34,1.25-.67,1.79-1,2.03-.26,4.07-.42,6.1-.68,3.35-.18,8.77,2.56,9.83-.76,1.71,.49,3.43,1.09,5.47,.94-.85-1.47,2.28-2.07,3.24-4.22,6.33-.15,12.47-.29,18.8-.44,3.07,1.2,7.25,2.27,7.05-.59,12.6-1.14,25.02-2.29,37.43-3.43,1.11-.02,2.41-.06,3.54-.08,5.18-.66,10.16-1.31,15.15-1.95-3.4-3.22-9.61-1.26-14.48-1.68ZM100.53,30.35c2.54,.13,5.19,.23,7.85,.25-2.59,.21-5.2,.2-7.85-.25Zm23.33-1.21c1.13-.12,2.03,0,2.79,.22-.94-.12-1.87-.2-2.79-.22Zm9.01,2.34l.09,.02c-1.17,.02-2.5,.12-2.86-.47,.78,.35,1.64,.57,2.77,.45Zm1.94,1.02c.07-.2,.06-.35,.02-.48,.56,.15,1.11,.3,1.67,.45-.54,0-1.1,0-1.69,.03Zm-27.03-15.2h0c1.49-.04,2.79-.07,5.22-.12-1.74,.04-3.48,.08-5.22,.12Zm113.55,7.42c-2.48-.42-5.07-.77-7.53-1.2,4.81-.71,5.08,.72,7.53,1.2Z"/></g></g></g></svg>