<?xml version="1.0" encoding="UTF-8"?><svg id="_イヤー_2" xmlns="http://www.w3.org/2000/svg" viewBox="0 0 369.34 85"><defs><style>.cls-1{fill:#e7f2f7;}.cls-2{fill:#fff;}.cls-3{fill:#96c8dc;}.cls-4{opacity:.5;}.cls-5{opacity:.9;}.cls-6{fill:#dcedf3;}.cls-7{fill:#c8e2ed;}.cls-8{fill:#d3e8f0;}.cls-9{fill:#f0f7fa;}.cls-10{fill:#bddde9;}.cls-11{fill:#b1d6e5;}</style></defs><g id="_イヤー_1-2"><g><g><path class="cls-3" d="M365.74,58.42c-.18,1.48-1.58,2.21-1.05,3.92,1.55-.07,3.1-.14,4.64-.22,.04-2.14-1.02-5.02-3.6-3.7Z"/><path class="cls-3" d="M311.5,45.59c3.64,1.7,5.68,2.01,6.79-.31-3.77-1.96-6.14-1.58-6.79,.31Z"/><path class="cls-3" d="M354.37,60.29c-1.57-.6-3.03-1.2-4.59-1.66-.6,.03-1.19,.06-1.79,.09-.41-1.32-.81-2.63-1.21-3.81-6.11-3.99-2.63,3.06-6.86,1.52-.96,.04-1.9,.09-2.86,.13-1.17,.72-2.21,1.44-3.38,2.16-.36,.02-.71,.03-1.07,.05-1.13-1.42-4.6-1.92-4.64,.21-1.75-2.32-.14-6.93-4.12-5.01-1.63,1.28-1.43,3.14-2.21,4.64-.94,.31-1.77,.48-2.83,.8-.43-1.85-2.06-.97-2.88-.54-.05-1.33-.09-2.53-.14-3.86-.5-.64-1.12-1.15-1.74-1.79-4.49,1.14-8.41-1.61-13.09,.61-1.95-4.45,1.36-5.26,.19-7.75-.67-1.97-2.16-.43-3.4-1.71,0-.27-.02-.4-.02-.67-1.32-3.54-1.36-4.61-1.4-5.67,1.31,.08,2.75,.27,4.07,.48,.36-.02,.71-.03,1.07-.05,1.55-.07,3.1-.14,4.65-.21,.69-.7,1.5-1.4,2.19-2.1,2.87,.13,5.8,2.13,8.57-.4,2.61-.25,5.34-.65,7.95-1.04,2.02-.23,3.12-2.55,5-3.43,.87,.89,1.61,1.66,2.36,2.56,3.11,.39,5.32-1.18,8.04-1.71,1.91,.18,3.83,.22,5.74,.4,1.84-1.69,2.51-6.38-.26-7.06,.43-1.35,.97-2.58,1.52-3.94,.26-2.55-2.36-2.56-4.62-2.32-2.15-.03-4.18-.21-6.34-.37-1.3,.32-2.72,.66-4.02,.85-.36,.02-.72,.04-1.07,.06-1.89,.35-3.79,.57-5.69,.93-1.31,.06-2.74,.12-4.05,.18-.64-1.3-1.28-2.47-1.81-3.79-.95,.04-1.9,.09-2.81,1.47-1.19,.05-2.38,.11-3.45,.16-1.2-.21-2.28-.43-3.47-.51-.1,.67-.32,1.22-.53,1.89-3.22,.02-6.45-.1-9.67-.22-5.34,.51-10.69,1.03-16.04,1.41-1.07,.05-2.26,.1-3.45,.16-2.98,0-6.09-.12-9.07-.24-1.85-1.66-3.3-2.25-3.45,.16-1.19,.05-2.26,.1-3.45,.16-1.28,.72-2.57,1.45-3.97,2.18-.48,.02-1.07,.05-1.67,.08-7.64-3.52-13.25-.46-19.45-.44-7.46-1.79-18.02-.5-25.74,.52-.55,1.22-1.88,.62-2.83,.8-.24-.12-.37-.38-.62-.64-12.09-1.18-22.93,2.26-34.38-.94-.91,1.24-2.6,.65-3.9,.84-4.26-2.2-10.74-.3-16.12-.59-1.76-2.45-6.08,.02-8.64-1.47-6.17,.82-11.57-3.2-17.78-.51-1.32-.07-2.64-.28-3.95-.35-2.44-1.35-6.62-1.83-7.97,.37-2.76-.41-5.39-.68-8.14-.96-1.73-1.52-5.06-1.37-6.21-.38-.83,.04-1.54,.07-2.38,.11-2.33-1.76-4-1.68-5.76-.94-1.55,.07-2.98,.14-4.52,.21-1.55,.07-3.09,.14-4.52,.21-2.45-1.89-4.12-1.81-5.76-1.07-1.56-.32-3.12-.66-4.69-1.12-1.68-.32-3.48-.64-5.17-.96-3.44,.29-5.33-2.43-9.85-2.08-1.68-.46-3.37-.78-5.17-1.09-1.43-.07-2.34,1.17-3.88,1.51-2.34-2.02-6.41-2.5-9.81-.88-.18-4.93-4.14-2.34-6.4-2.24-2-2.44-6.23-.91-6.47-4.24-2.04-.31-2,.76-3.24,2.68-1.11-1.02-1.98-1.91-2.97-3.07,.3-1.48,.83-3.24-.12-3.2-.55-1.84-1.41-2.6-2.52-3.62-1.86,1.42-2.24,4.1-4.86,7.16-.4-1.18-.81-2.5-1.21-3.68-.32,4.28-5.4,2.25-5.55,4.66,.02,.54,.04,.94,.05,1.34-1.01,1.65-2.49,3.45-3.29,4.56,.05,1.33,.1,2.66,.15,3.86-.6,.02-1.19,.05-1.79,.08,.05,1.33,.09,2.53,.14,3.86-1.2,2.99-4.22,5.26-.77,8.31-2.62,3.45-3.85,8.72-.22,10.28,.68,2.37,1.36,4.6,1.93,6.98-2.56,1.72-1.14,4.73-1.41,7.14,.74,.77,1.61,1.66,2.36,2.42-2.22,1.31-2.27,3.18-2.08,5.17,1.36,1.27,3.35,.38,4.5-.74,.51,.77,.9,1.69,1.28,2.48,2.11-.9,4.1-1.93,6.22-2.82,.59-.03,1.07-.05,1.67-.08,.32,2.26,.53,4.65,.85,6.9,.14,.66,.41,1.32,.67,1.97,.78,1.7,1.67,3.26,2.45,4.95,.73,.5,1.58,.86,2.31,1.23,1.32,.34,2.77,.67,4.09,1.01,.64,1.17,3,.39,4.55,.45,2.14-.1,4.17-.19,6.31-.29,2.16,.43,4.2,.74,6.36,1.04,1.71,1.12,3.5,1.04,5.16,.96,1.93,.45,3.84,.76,5.76,1.07,1.19-.06,2.26-.11,3.45-.16,.96,.22,1.92,.31,2.88,.53,3.73,1.03,5.92,2.13,8.64,1.47,3.45-.16,6.79-.31,10.24-.47,2.74-.12,5.36-.24,7.97-.37,.97,.22,1.93,.44,2.88,.53,1.28,2.48,4.62,2.32,6.33,.38,.26,.66,.4,1.18,.66,1.84,2.85-.27,5.7-.67,8.55-1.06,2.13-.24,4.15-.59,6.29-.83,1.09,.48,2.31,1.09,3.52,1.71,1.07-.05,2.26-.1,3.31-.82,1.33,.47,2.77,.8,4.09,1.14,1.24,1.14,2.99,.26,4.55,.46,1.19-.06,2.38-.11,3.45-.16,4.74-.76,9.49-1.37,14.24-1.99,.37,.25,.73,.37,1.21,.61,1.89-.49,3.78-.97,5.67-1.6,.71-.04,1.55-.07,2.26-.1,2.91-2,4.09-2.19,5.07-1.43,.96,.09,1.92,.31,2.88,.4,2.46-1.05,.82,2.9,2.96,2.53,.68-.96,1.48-1.8,2.16-2.76,1.79-.09,4.89-3.17,5.26,.42,1.4-1,4.13-1.13,5.71-.27,2.11-.9,2.49-.38,5.16,1.1,.24-3.35,.95-3.25,2.83-.8,4.21-2.33,9-1.75,12.47-1.24,1.65-.48,4.12-1.53,4.67,.45,4.65,.05,7.6-.88,12.05,.11-1.19,3.4,3.04,1.6,3.97,1.02,1.88-3.95,6.78-.44,9.03-4.15,.36-.02,.71-.03,1.19-.06,1.19,3.28,4.53,.19,5.71,2.94,1.49,1.66,3.91-.71,5.66-1.6,1.43-.06,2.74-.12,4.05-.19-.27-.92,.66-1.36,1.07-3.26,.71-.03,1.55-.07,2.26-.1,.41,1.31,.81,2.5,1.21,3.81,4.15-.73,8.16-1.98,11.45,.13,3.88-1.51,7.34,1.8,11.49,1.34,.2-1.08-.45-2.52,.48-3.23,4.03-.59,7.85,6.04,10.88,.83,1.81,.45,3.5,1.04,5.31,1.62,1.29-.46,2.59-.92,3.88-1.51,.46-.42,.8-.84,1.15-1.25,1.3-.33,2.6-.52,3.9-.85,2.14-.23,5.61,3.21,6.29-.96,1.09,.62,2.2,1.37,3.5,1.18-.54-1.85,1.46-2.6,2.07-5.3,4.05-.18,7.97-.37,12.02-.55,1.96,1.51,4.64,2.85,4.5-.74,8.05-1.44,15.99-2.87,23.93-4.31,.71-.03,1.54-.07,2.26-.1,3.31-.82,6.5-1.64,9.69-2.45-2.18-4.04-6.14-1.59-9.26-2.11ZM40.92,35.83c1.64,.16,3.36,.29,5.09,.31-1.68,.26-3.37,.27-5.09-.31Zm14.98-1.52c.69-.14,1.25-.01,1.72,.25-.58-.14-1.15-.22-1.72-.25Zm5.74,2.94l.06,.03c-.75,.03-1.6,.15-1.83-.59,.5,.44,1.05,.72,1.77,.56Zm1.24,1.28c.04-.25,.04-.44,.01-.6,.36,.19,.71,.38,1.07,.57-.35-.01-.7,0-1.08,.03Zm-17.28-19.08h0c.95-.05,1.79-.08,3.33-.15-1.11,.05-2.22,.1-3.34,.15Zm72.55,9.3c-1.57-.52-3.22-.95-4.77-1.49,3.04-.88,3.25,.87,4.77,1.49Z"/></g><g class="cls-5"><g class="cls-5"><path class="cls-1" d="M357.83,50.91c-.17,1.29-1.48,1.93-.98,3.43,1.44-.06,2.88-.13,4.33-.19,.04-1.87-.95-4.4-3.35-3.24Z"/><path class="cls-1" d="M336.27,16.59c-2-.03-3.9-.18-5.9-.32-1.21,.28-2.53,.57-3.75,.74-.33,.02-.67,.03-1,.05-1.76,.31-3.53,.5-5.3,.81-1.22,.05-2.55,.11-3.77,.16-.11,.12-.32,.37-.53,.61-1.23-.18-2.46-.36-3.68-.42-.43,.36-.75,.73-1.06,1.1-.69-.44-1.48-.99-2.17-1.54-1.22,.05-2.55,.11-3.77,.17,0-.12-.02-.36-.02-.59-3,.01-6.01-.09-9.01-.19-4.98,.45-9.96,.9-14.95,1.23,.02,.58,.04,1.16,.07,1.75-1,.05-2.11,.09-3.22,.14-.02-.58-.05-1.17-.07-1.75-2.77,0-5.67-.11-8.45-.21-1.11,.05-2.22,.09-3.21,.14-2.91,2.23-2.22-.02-3.22,.14-1.2,.63-2.4,1.27-3.7,1.91-.44,.02-1,.04-1.55,.07-1.1,.4-2.08,.79-3.17,1.19-6.67,.05-10.74,1.05-16.5,1.3-3.57-.31-10.83-1.28-13.13,2.32-2.39-1.53-4.81-.84-7.03-.86,.18,1.74-1.63,1-2.6,1.75-.67,.02-1.44,.06-2.11,.09-1.11,.05-2.11,.09-3.21,.14-1,.05-2.11,.09-3.22,.14-3.55,.16-7.1,.32-10.64,.47-1.21,.29-2.42,.57-3.64,.74-1.23-.06-2.56-.24-3.8-.42-1.22-.07-2.45-.25-3.67-.31-1.35-.41-2.58-.71-3.82-1-.22,0-.33,.01-.56,.03-1.55-.05-3.23-.21-4.79-.37-1.78-.04-3.56-.2-5.34-.35-1.1,.28-2.09,.56-3.2,.72-1.41-2.04-3.72-1.36-5.36-.82-3-.11-6-.21-9-.2-1.14-.65-2.28-1.42-3.3-2.08-.19,.71-.39,1.54-.47,2.24-2.89-.11-5.67-.1-8.56-.21-.04-1.17-.08-2.22-.13-3.39-2.14-.84-2.77-2.68-3.35-3.24-1.23-.06-2.46-.24-3.68-.31-3.96,.99-6.14,2.02-7.43,.32-2.57-.36-5.02-.6-7.59-.84-3.61,1.44-5.84,1.3-5.79-.33-.77,.03-1.44,.06-2.22,.1-1.77,.08-3.55,.15-5.32,.23-3.16,1.42-3.79-.42-4.26-.87-1.44,.06-2.88,.13-4.22,.19-1.77,.08-3.66,.15-5.32,.23-2.97,.59-2.48-.83-4.37-.98-.98,.39-2.08,.79-3.17,1.3-.33,.02-.67,.03-1,.05-1.08-2.17-3.16-1.38-4.37-.98-.33,.01-.67,.03-1,.04-.75-2.07-2.39-1.41-3.26-1.03-.36-.68-.72-1.37-1.2-2.17-1.42,.53-2.74,.94-4.17,1.35-1.11,.05-2.11,.09-3.22,.14-.36-.69-.72-1.49-1.09-2.17-1.09,.4-2.19,.8-3.17,1.19-1.99,.32-3.86,.64-5.86,.84-.17,1.29-.22,2.7-.4,3.99,.91,.43,1.81,.97,2.73,1.51,.22,0,.33-.01,.55-.03,.29-1.18,.58-2.24,.98-3.43,.89-.04,1.66-.07,3.11-.13,1.49,1.22,3.24,.56,4.39,1.56,.98-.51,2.08-.91,3.17-1.3,1.23,.18,2.45,.24,3.68,.42,.68,.32,1.47,.64,2.15,.96,1.11,2.75,2.63,1.99,3.86,2.17,.02,.47,.04,1.05,.06,1.63,.33-.02,.67-.03,1.11-.05,1.55-.18,3.09-.48,4.75-.79,2.2-.56,3.06,1.5,3.77,2.64,1.12,.18,2.24,.37,3.24,.45,.66-.15,1.43-.41,2.08-.68,.46,.45,.81,.78,1.16,1.12,3.2-.49,6.41-.98,9.49-1.58,.81,.78,1.5,1.45,2.31,2.12,1.32-.41,2.75-.82,4.17-1.23,1.44,.06,2.79,.23,4.24,.4,.55-.03,1.11-.05,1.66-.07,.01,.35,.03,.7,.04,1.05,1.55-.19,3.2-.49,4.74-.79-.01-.35-.03-.7-.04-1.05,3.08-.83,3.04,1.03,4.83,1.42,1.23,.18,2.57,.36,3.79,.42-.88,2.96-3.52,3.65-4.7,1.84-.44,.02-.78,.03-1.11,.05-1.08,.87-2.05,1.61-3.12,2.47,3.93,3.92,7.03,.63,10.2,2.36,3.43-.38,4.07,4.72,7.63,1.88,2.95-1.29,4.85-1.02,5.36,.82,3.11,.09,6.34,.19,9.56,.17,.7-2.02,1.87-.32,3.19-.72,6.05,4.06,11.59-1.9,17.63,2.04,2.6-1.75,3.98-.29,6.46,.3,1.77-.19,3.53-.51,5.3-.81,2.91,3.49,5.68-2.35,9.52-.88,1.65-.3,3.2-.61,4.75-.79,2.23,.25,5.54,2.44,5.9,.33,2.01,.14,2.44-2.91,5.25-1.98,3.06,1.38,7.22-.08,9.18,1.82,3.69-2.15,10.83,1.4,14.82-1.7,3.19,1.96,8.57,.33,12.79,.5,.89-.04,1.77-.08,2.66-.12-.16-1.28,1.29-1.11,2.07-1.14,.78,.09,1.76-.54,2.24,.49-.07,.94,1.46,.29,3.04-1.88,0-.12-.01-.35-.02-.58-.92-.66-1.72-1.33-2.75-2.1,1.38-1.69,2.49-1.74,3.66-2.96,.24,.57,.38,1.15,.62,1.72,.91,.43,1.82,.97,2.73,1.52,.63-.73,1.38-1.58,2.02-2.3,2.72-1.4,1.41,2.15,3.32,2.66,1.52-1,3.14-2,4.66-3,3.58,.66,6.36-2.03,9.54-.42,.41-.95,.7-1.9,1-2.84,1.11,.07,2.12,.26,3.24,.44,1.76-.31,3.53-.62,5.3-.81,1.07,1.7,4.2,2.27,4.21-.18,1.77-.08,3.55-.16,5.32-.23,1.14,.88,2.18,1.77,3.33,2.66-.7,2.13,1.69,3.31,3.32,2.66,.31-.71,.61-1.54,.91-2.26,.79,.32,1.47,.64,2.26,.95,.64-.61,1.4-1.11,2.04-1.72,.67-.03,1.44-.06,2.11-.09,1.11-.05,2.11-.09,3.21-.14,2.68,.47,3.26,.91,4.28,1.45,.03,.81,.06,1.52,.09,2.22,.81,.78,1.5,1.45,2.2,2.24,2.9,.34,4.96-1.03,7.49-1.49,3.51-1.32,2.07-4.06,2.44-5.71,.89-.04,1.77-.07,2.66-.11,.4-1.19,.91-2.26,1.42-3.45,.24-2.23-2.2-2.24-4.3-2.03Z"/><path class="cls-1" d="M322.44,60.39c-2.16-1.31-3.26-.79-4.2,.65,1.83,1.32,4.32,2.5,4.2-.65Z"/><path class="cls-9" d="M311.28,47.91c-.47-.56-1.04-1.01-1.62-1.57-4.18,1-7.83-1.41-12.2,.53-1.82-3.89,1.26-4.61,.18-6.78-.62-1.72-2.01-.38-3.17-1.5,0-.23-.01-.35-.02-.58-1.23-3.1-1.27-4.03-1.3-4.96-1.24-.3-2.47-.59-3.82-1-.95,1.21-2.02,2.3-2.97,3.51,.66,2.66,3.14,.91,3.24,3.24,.79,.32,1.47,.64,2.26,.95-3.44,2.95-6.68,2.39-9.56,2.75-.64,.73-1.38,1.58-2.02,2.3,.36,.69,.72,1.49,1.19,2.17,.67,.2,1.46,.29,2.13,.49,2.12,.03,4.23,.17,6.34,.31,1,.07,1.79,.27,2.68,.35,.48,1.14,.87,2.3,1.24,3.33,1.13,.53,2.15,1.07,3.28,1.61,1.21-.52,2.41-.92,3.62-1.32,1.76-.54,2.91,.57,4.37,.98,.33-.02,.67-.03,1-.05,1.75-.54,3.63-.97,5.28-1.4-.05-1.16-.09-2.21-.13-3.38Z"/><path class="cls-7" d="M341.38,53.38c-2.46-.48-4.93-.96-7.5-1.43-2.01-.27-3.91-.53-5.92-.8-.33,.02-.66,.03-1,.04-.51,1.07-1.02,2.26-1.53,3.45-2.42,.57-1.32-2.51-2.79-3.27-1.9-.15-3.89-.18-5.9-.32-.88,.27-1.65,.42-2.64,.7-.4,1.07-.91,2.26-1.42,3.45-2.54,.23-5.54,.47-6.54-2.52-.33,.02-.66,.03-1,.05-1.46-.4-2.61-1.52-4.37-.98-1.21,.4-2.41,.81-3.62,1.32-1.13-.54-2.15-1.07-3.28-1.61-1.22,.05-2.44,.11-3.77,.16-.81-.9-.89-2.88-.15-3.84-2.11-.14-4.23-.28-6.34-.31,.07,1.87,.15,3.73,.22,5.6-3.95,4.02-9-.19-14.35,2.26-5.69,2.11-10.59-.94-15.37,1.83,8.4,1.73,16.77-.02,22.95,1.81,0-.24-.01-.35-.02-.58,3.8,.54,7.83-1.51,12.29-1.12,2.47,.71,4.63,1.9,5.3-.81,.88-.04,1.77-.08,2.66-.12,.34,.22,.69,.44,1.02,.54,1.33-.18,2.54-.47,3.75-.75,.04,1.05,.07,1.86,.11,2.8,3.03,.91,3.95,1.69,4.88,2.58,3.77-.16,7.43-.32,11.2-.49,.94-1.44,2.03-1.96,4.2-.65,7.5-1.26,14.9-2.51,22.29-3.77-1.16-1.12-2.2-2.24-3.35-3.24Z"/><path class="cls-10" d="M307.04,61.52c-.93-.89-1.85-1.67-4.88-2.58-.04-.94-.07-1.75-.11-2.8-1.21,.28-2.42,.57-3.75,.75-.34-.11-.68-.33-1.02-.54-.89,.04-1.78,.08-2.66,.12-.67,2.71-2.83,1.52-5.3,.81-4.46-.39-8.49,1.65-12.29,1.12,0,.23,.01,.35,.02,.58-6.18-1.84-14.55-.08-22.95-1.81,4.78-2.77,9.68,.28,15.37-1.83,5.35-2.45,10.4,1.77,14.35-2.26-.07-1.87-.15-3.73-.22-5.6-.67-.2-1.46-.29-2.13-.49-.86,.62-1.73,1.24-2.6,1.75-1.65,.31-.62-1.61-1.75-2.14-1.44,.06-2.77,.12-4.21,.19-3,.13-5.99,.26-9.1,.39-1.59-.87-3.89-.18-5.9-.32-.98,.51-2.08,.91-3.06,1.3-2.71,1.75-3.92,2.04-4.83,1.38-.98,.51-2.07,1.14-3.04,1.77-.79-.32-1.47-.64-2.26-1.07-1.2,.52-2.41,.92-3.61,1.33-1.46-.53-2.93-1.04-4.39-1.45-1.33,.18-2.76,.47-4.19,.65-.89,.04-1.77,.08-2.66,.11-1.42,3.45-2.06-1.54-5.32,.23-.12-.35-.36-.68-.6-1.03-2.08-2.01-4.79-.49-6.37-.89-1.09,.63-2.06,1.26-3.15,1.89-1.1,.16-2.09,.44-3.2,.6-1.57-.28-3.24-.56-4.81-.84-.22,.01-.33,.01-.55,.02-1.99,.2-3.87,.52-5.86,.84-3.54,.39-3.83-1.24-5.86-2.08-3.06,1.3-3.68-.19-4.9-.26-2.95,1.18-3.84,1.22-4.73,1.26-2.44,.11-4.99,.22-7.43,.32-.69-.55-1.28-1.58-2.17-1.54-.44,.02-.78,.03-1.11,.05-.99,.16-2.09,.44-3.2,.72-1.31,.52-3.8,2.03-5.74,.72-2.21,.33-4.31,.65-6.41,.86-2.36-.71-4.03-.76-6.49-1.35-1.57-.29-3.13-.56-4.82-.96-5.06,1.16-6.25-.78-9.58-.63-1.8-.51-3.59-1.01-5.39-1.52-1.68-.27-3.24-.56-4.81-.84-.64,.61-2.01-.26-3.22,.14-6.37,1.79-9.73,1-12.8-.61-1.79-.27-3.68-.54-5.37-.94-1.11,.05-2.22,.1-3.21,.14-2.83,1.52-3.2,.61-4.32,.19-.01-.35-.03-.7-.04-1.05-1.55,.07-3.11,.14-4.77,.21-.12-.23-.35-.33-.58-.56-.99,.27-2.1,.44-3.08,.72-.45-.22-.79-.32-1.13-.54-1.23-.06-2.56-.24-3.79-.42-.66,.26-1.43,.53-2.09,.68-1-.08-2.12-.26-3.24-.44-2.11,.09-4.21,.18-6.32,.27,2.83,1.28,4.59,3.77,6.39,1.47,1.11,.07,2.23,.25,3.23,.32,2.15,1.08,4.37,.98,6.46,.3,.37,.92,.74,1.84,1.11,2.75,.77-.03,1.44-.06,2.22-.1,.44,2.67,1.97,2.02,3.2,2.08,.46,.57,.82,1.13,1.18,1.7,1.24,.3,2.47,.59,3.81,.88,.97-.74,1.56-2.75,3.02-2.35,.43,2.55-.69,7.85,3.5,7.21,4.19-.77,8.69,.67,13.31-.58,1.38,1.22,2.33,2.7,4.86,2.01-.16-1.39,1.28-1.22,2.17-1.26,2.56,0,3.06,1.62,5.81,.92,.43-.25,.76-.38,1.09-.63,1.73,1.67,1.54,2.38,2.77,2.68-2.49,1.62-2.86,.59-3.75,.75-.33,.01-.67,.03-1,.04-1.09,.4-2.08,.79-3.17,1.19,1.11-.05,2.11-.09,3.22-.14,.39,1.38,.77,2.65,1.16,3.92,.55-.02,1.11-.05,1.66-.07,3.05-1.42,4.57-2.42,6.19-3.66,.44-.02,.77-.03,1.11-.05,1.14,.77,2.17,1.42,3.3,2.08,.33-.13,.65-.38,.98-.51,.9,.31,1.8,.62,2.7,.93,1.11-.05,2.22-.09,3.22-.14,.23,.22,.35,.45,.58,.56,1.11-.05,2.11-.09,3.22-.14,.87-.39,1.75-.78,2.62-1.28-.04-1.05-.09-2.22-.13-3.26,.31-.48,.63-.84,.95-1.21,.22-.01,.45-.02,.56-.02,1.82,1.09,3.63,2.06,5.45,3.15-.09,.35-.3,.71-.51,1.08,2.21-.22,4.31-.54,6.41-.75,1.13,.42,2.15,.96,3.28,1.49,1.87-.44,3.85-.87,5.83-1.42,4.05,1.34,6.96,1.92,9.01,.19,1.99-.21,3.87-.52,5.86-.84,.55-.02,1.11-.05,1.55-.07,.79,.2,1.46,.41,2.24,.49,.87-.39,1.63-.77,2.62-1.16,.81,.78,1.73,1.56,2.21,2.71,1.55-.31,3.2-.61,4.75-.79,5.44,.11,11.01,.22,16.56,.33,1.78,.15,2.97,1.97,4.86,2.12,.33-.02,.66-.03,1.11-.05,.97-.63,2.06-1.26,3.03-1.88,2.55-.11,4.99-.22,7.43-.32,1.67,.16,3.24,.32,4.9,.37,.66-.03,1.44-.06,2.11-.09,13.3-.7,26.6-1.51,39.9-2.32,2.77-3.04,2.31-.68,3.22-.14,3.09-.48,6.29-.97,9.5-1.46,1.56,.05,3.23,.21,4.79,.26Z"/><path class="cls-1" d="M292.63,48.14c-.89-.08-1.68-.28-2.68-.35-.74,.96-.66,2.95,.15,3.84,1.33-.06,2.55-.11,3.77-.16-.37-1.03-.76-2.19-1.24-3.33Z"/><path class="cls-6" d="M324.26,24.94c-1.02-.54-1.6-.98-4.28-1.45-1.11,.05-2.1,.09-3.21,.14-.67,.03-1.44,.06-2.11,.09-.23-.34-.36-.68-.6-1.14-.52,.95-1.03,1.91-1.44,2.86-.79-.32-1.47-.64-2.26-.95-.31,.71-.61,1.54-.91,2.26-1.64,.65-4.02-.53-3.32-2.66-1.15-.88-2.18-1.77-3.33-2.66-1.78,.08-3.55,.16-5.32,.23-.02,2.45-3.15,1.89-4.21,.18-1.77,.19-3.53,.51-5.3,.81-1.12-.19-2.13-.38-3.24-.44-.29,.94-.59,1.9-1,2.84-3.17-1.61-5.96,1.08-9.54,.42-1.52,1-3.14,2-4.66,3-1.91-.5-.61-4.06-3.32-2.66-.64,.72-1.39,1.58-2.02,2.3-.92-.54-1.82-1.09-2.73-1.52-.24-.57-.38-1.15-.62-1.72-.34-.1-.68-.32-1.13-.53-.84,1.2-1.57,2.4-2.53,3.49,1.03,.89,1.85,1.79,2.77,2.68-1.58,2.17-3.11,2.82-3.04,1.88-.48-1.03-1.46-.4-2.24-.49-.77,.03-2.23-.13-2.07,1.14-.89,.04-1.77,.08-2.66,.12-4.23-.17-9.61,1.46-12.79-.5-3.99,3.09-11.13-.45-14.82,1.7-1.96-1.9-6.12-.43-9.18-1.82-2.81-.93-3.25,2.12-5.25,1.98-.36,2.11-3.67-.08-5.9-.33-1.55,.18-3.09,.49-4.75,.79-3.83-1.47-6.6,4.37-9.52,.88-1.77,.31-3.53,.62-5.3,.81-2.47-.59-3.86-2.05-6.46-.3-6.04-3.94-11.59,2.02-17.63-2.04-1.32,.4-2.49-1.3-3.19,.72-3.22,.02-6.45-.07-9.56-.17-.52-1.84-2.42-2.11-5.36-.82-3.55,2.84-4.2-2.27-7.63-1.88-3.18-1.73-6.27,1.56-10.2-2.36,1.08-.86,2.05-1.6,3.12-2.47,.33-.02,.67-.03,1.11-.05,1.18,1.81,3.82,1.12,4.7-1.84-1.22-.07-2.56-.24-3.79-.42-1.57-.52-3.25-.91-4.83-1.42,0,.35,.03,.7,.04,1.05-1.54,.3-3.2,.61-4.74,.79-.01-.35-.03-.7-.04-1.05-.55,.02-1.11,.05-1.66,.07-1.01-.19-2.12-.37-3.13-.45-.44,.02-.78,.04-1.11,.05-1.43,.42-2.85,.83-4.17,1.23-.47-.68-.83-1.37-1.2-2.16-.33,.01-.66,.02-1.11,.05-3.08,.6-6.29,1.09-9.49,1.58-.35-.34-.69-.67-1.16-1.12-.66,.26-1.42,.53-2.08,.68,.02,.58,.05,1.16,.06,1.63-.63,.84-1.38,1.58-2.02,2.43,.58,.67,1.17,1.46,1.64,2.14,3.26,1.03,6.6,4.04,9.84,4.59,1.14-2.15,2.86-.82,5.83-1.42,.02,.47,.03,.82,.05,1.17,2.79,.23,5.68,.45,8.47,.8,1.85-.9,1.39,1.46,2.31,2.12,.88-.04,1.66-.07,2.66-.11,2.26,.95,5.08,2,7.01,3.08,12.4-1.12,22.44-.04,34.16,1.32,3,.11,2.99-2.93,7.43-.32,1.22,.06,2.56,.24,3.79,.3,4.38-1.48,7.07-.89,9.01-2.61,3.03,.69,2.22,2.82,3.22,2.66,.78-.03,1.44-.06,2.22-.1,2.95-1.18,3.67,.19,4.79,.38,2.94-1.41,3.34,.09,4.22-.18,.22,0,.33-.02,.55-.02,2.11-.09,4.21-.18,6.43-.28,.44-.02,1-.04,1.55-.07,1.53-.65,3.17-1.3,4.71-1.84,2.11,.03,4.34,.16,6.45,.19,.89-.03,1.77-.08,2.66-.11,0-.11-.01-.35-.02-.47,5.49-1.52,13.09-.45,17.48-1.93,2.83,1.4,6.22-.03,8.56,.21,.7-2.13,2.74-.81,4.15-1.93,1.11-.17,2.09-.44,3.2-.61,3.53-.62,8.24,.58,10.58-2.21,1.81,.74,3.61,1.36,5.41,1.98,.32-.48,.63-1.07,1.05-1.68,1.55-.07,2.11-.09,2.66-.11,.08-.71-.52-1.85,.36-2.24,2.67,.12,3.6,1.13,5.46,3.15,1.09-.52,2.19-.91,3.17-1.31,.9,.19,1.79,.27,2.68,.47,.58,.67,1.17,1.46,1.75,2.14,.95-1.21,2.02-2.31,2.97-3.51,1.35,.41,2.58,.7,3.82,1,1.22,.07,2.56,.24,3.79,.42,.34-.02,.67-.03,1-.05,1.44-.06,2.89-.12,4.33-.18,.64-.61,1.4-1.23,2.04-1.84,2.67,.11,5.4,1.86,7.98-.35,2.44-.22,4.98-.57,7.41-.91,1.88-.2,2.91-2.23,4.66-3-.03-.7-.06-1.4-.09-2.22Z"/><path class="cls-8" d="M289.6,38.81c-.88,.16-1.65,.42-2.64,.7-1.75,.78-2.04-1.08-2.76-2.21-.99,.27-2.09,.56-3.08,.72-.8-.67-1.5-1.45-2.3-2.12-.02-.58-.05-1.17-.06-1.63-1.86-2.02-2.78-3.03-5.46-3.15-.87,.39-.27,1.53-.36,2.24-.55,.02-1.11,.05-2.66,.11-.42,.6-.73,1.2-1.05,1.68-1.8-.62-3.6-1.24-5.41-1.98-2.33,2.79-7.05,1.59-10.58,2.21-1.1,.16-2.09,.44-3.2,.61-1.4,1.11-3.45-.2-4.15,1.93-2.34-.24-5.73,1.19-8.56-.21-4.39,1.48-11.98,.41-17.48,1.93,0,.11,.01,.35,.02,.47-.89,.04-1.78,.08-2.66,.11-2.11-.02-4.34-.16-6.45-.19-1.54,.54-3.18,1.19-4.71,1.84-.55,.02-1.11,.05-1.55,.07-2.22,.1-4.32,.19-6.43,.28-.22,0-.33,.02-.55,.02-.88,.27-1.27-1.23-4.22,.18-1.12-.18-1.84-1.55-4.79-.38-.78,.04-1.44,.06-2.22,.1-.99,.16-.19-1.97-3.22-2.66-1.93,1.72-4.62,1.13-9.01,2.61-1.22-.07-2.56-.24-3.79-.3-4.44-2.61-4.43,.43-7.43,.32-11.72-1.36-21.76-2.44-34.16-1.32-1.93-1.08-4.75-2.13-7.01-3.08-1,.04-1.78,.08-2.66,.11-.92-.66-.45-3.02-2.31-2.12-2.79-.35-5.69-.57-8.47-.8-.01-.35-.03-.7-.05-1.17-2.98,.6-4.7-.73-5.83,1.42-3.24-.56-6.58-3.57-9.84-4.59-.47-.68-1.06-1.47-1.64-2.14,.64-.85,1.38-1.58,2.02-2.43-.02-.46-.04-1.04-.06-1.63-1-.08-2.12-.26-3.24-.45-.71-1.14-1.57-3.2-3.77-2.64-1.65,.3-3.2,.61-4.75,.79-.44,.02-.77,.03-1.11,.05-.88,.27-1.76,.42-2.64,.7-3.37-.79-6.09-2.42-10.2-2.36-2.89-.11-5.78-.1-8.56-.22-.22,.01-.33,.02-.55,.03,.03,.58,.05,1.17,.06,1.63,1.13,.42,2.14,.72,3.26,1.02,.02,.58,1.7,.86,1.2,2.17-4.02-.41-4.64,3.59-7.9,2.56-.78-.08-1.46-.29-2.24-.37-1.74,1.01-3.47,2.02-5.21,3.03,2.34,.25,4.69,.5,7.03,.75,4.8,.49,10.48,.83,14.84-1.23,2.75-.59,3.23,3.01,5.43,2.56,3.17,1.61,6.35,3.23,9.83,4.13,.48,.92,1.07,1.82,1.66,2.74,1.22,.05,2.45,.24,3.79,.41,.11,0,.33-.01,.44-.02,1.4-.99,2.81-1.99,4.22-2.98,.6,1.26,1.1,2.52,1.7,3.78-.98,.62-2.06,1.25-3.15,1.88,.01,.47,.04,1.05,.06,1.63,.23,.22,.45,.33,.58,.56,1.66-.07,3.22-.14,4.77-.21,1.21-.29,2.54-.46,3.75-.75,.13,.58,.38,1.15,.62,1.61,1-.04,2.1-.09,3.21-.14,1.68,.4,3.58,.66,5.37,.94,3.07,1.62,6.43,2.41,12.8,.61,1.21-.4,2.57,.47,3.22-.14,1.57,.28,3.13,.57,4.81,.84,1.77-.19,3.54-.5,5.3-.81,3.24,.44,6.37,.89,9.61,1.34,.88-.27,1.76-.43,2.64-.7,1.42-.65,2.15,.84,3.26,1.02,3.89-.05,7.78,.01,11.77-.04,3.01,.33,6.02,.55,9.03,.77,0,.23,.01,.35,.02,.58,.33-.02,.66-.03,1.11-.05,.99-.39,2.08-.79,3.17-1.3,2.11,.14,4.53-.66,6.34,.31,.32-.36,.64-.73,1.06-1.21,1.24,.53,2.49,1.06,3.73,1.59,.88-.27,1.76-.43,2.64-.69,.8,.55,1.29,1.69,2.28,1.53,.87-.39,1.63-.77,2.62-1.16,.99-.28,1.79,.16,2.68,.47,1.66-.31,3.53-.62,5.3-.82,.99-.04,2.11-.09,3.1-.14,.02,.36,.03,.7,.04,1.05,1.11,.18,2.24,.37,3.24,.44,0-.11-.01-.35-.02-.58,1.12,.19,2.12,.38,3.24,.44,1.11-.05,2.11-.09,3.21-.14,1.57,.4,4.29-1.12,6.37,.89,1.2-.64,2.5-1.27,3.7-1.91,1.37,.99,3.44-.15,4.82,.96,.64-.73,1.38-1.58,2.02-2.31,.8,.55,1.48,.98,2.17,1.54,1.66-.19,3.2-.49,4.86-.8,.01,.23,.02,.47,.02,.58,1-.05,2.11-.09,3.11-.13,1.77-.08,3.66-.16,5.32-.23-.02-.35-.03-.7-.04-1.05-3.08-2.2-5.52-2.09-8.52-1.97-.01-.35-.03-.7-.04-1.05,4.7-1.84,8.76-.38,10.58-2.21,4.3-.77,11.26-1.77,15.99-.11,.64-.73,1.38-1.58,2.02-2.31,.56,.21,1.01,.31,1.58,.51,1.1-.28,2.09-.44,3.19-.72,.03,.7,.06,1.51,.09,2.22,1.27,1.23,2.66,2.57,3.93,3.8-.53,.61-1.07,1.1-1.6,1.7,1.13,.54,.09,2.45,1.75,2.14,.87-.5,1.74-1.13,2.6-1.75-.47-.68-.83-1.48-1.19-2.17,.64-.73,1.38-1.58,2.02-2.3,2.87-.36,6.12,.2,9.56-2.75-.79-.32-1.47-.64-2.26-.95Z"/><path class="cls-1" d="M284.61,33.43c-.89-.2-1.79-.28-2.68-.47-.98,.4-2.08,.79-3.17,1.31,.02,.46,.04,1.05,.06,1.63,.8,.67,1.5,1.45,2.3,2.12,.99-.16,2.09-.44,3.08-.72,.76-.5,1.4-1.11,2.16-1.73-.58-.68-1.17-1.47-1.75-2.14Z"/><path class="cls-1" d="M116.45,68.16c-.67-.09-1.46-.29-2.13-.49-2.1,.32-4.31,.65-6.41,.86,.02,.58,.05,1.17,.06,1.63-1.55,.07-3.22,.14-4.77,.21-.31,.48-.63,.84-1.06,1.21,1.2,2.17,4.3,2.03,5.9,.33,.24,.57,.38,1.03,.62,1.61,2.66-.23,5.31-.58,7.97-.93,1.99-.21,3.87-.52,5.86-.72,.07-1.17,.24-2.34,.42-3.4-2.23-.14-4.34-.17-6.45-.3Z"/><path class="cls-7" d="M44.78,22.47c.69-5.05-7.53,.44-5.58-6.41,.19-.94,.26-1.88,.44-2.82-.03-.7-.06-1.51-.09-2.22-1.11,.05-2.11,.1-3.22,.14-.36-.8-.72-1.48-1.09-2.28-1.47-.64-2.94-1.28-4.41-2.03-1.44,2.86-1.4,4.03-1.36,5.08,.91,.43,1.81,.74,2.71,1.05-.17,1.29-.34,2.7-.4,3.98,0,.12,.01,.35,.02,.47,.04,1.05,.07,1.86,.11,2.8-1.22,.05-2.55,.11-3.77,.17-.09,.59-.29,1.18-.38,1.77-.38,1.53-.66,2.94-.93,4.47,1.78,.16,3.57,.32,5.35,.35,.11,0,.33-.01,.55-.02-.04-.93-.08-1.87-.11-2.8,.54-.38,.97-.74,1.51-1.24,1.47,.75,2.94,1.39,4.42,2.14-.38,1.65-.65,3.3-.91,5.06,0,.12,.01,.35,.02,.58,.15,.93,.41,1.85,.66,2.77-.54,.49-1.07,1.1-1.6,1.71-.06,1.17-.24,2.23-.31,3.4,0,.12,.01,.35,.02,.58,1.01,.31,2.13,.61,3.15,.92,2,.03,2.68-2.45,3.06-3.99-.04-.93-.07-1.86-.11-2.8,.2-.59,.29-1.18,.49-1.77-.59-.91-1.18-1.82-1.66-2.73,.08-.7,.27-1.53,.36-2.24-.12-.34-.36-.68-.49-1.14,1.18-.99,2.37-1.86,3.55-2.96Z"/><path class="cls-1" d="M37.8,5.96c-.96,1.09-1.7,1.94-2.55,2.91,.36,.8,.72,1.48,1.09,2.28,1.11-.05,2.11-.09,3.22-.14,.3-.83,.6-1.54,1.02-2.38-1.03-.89-1.84-1.67-2.77-2.68Z"/><path class="cls-1" d="M20.29,35.32c.59-1.89,1.19-3.79,1.89-5.68-.01-.35-.03-.71-.04-1.05-.24-.57-.49-1.15-.62-1.73,.02-2.33,.14-4.79,.27-7.25,.6-1.77,1.73-4.04-.15-3.96-.56,.02-1.11,.05-1.67,.07,.05,1.16,.09,2.21,.13,3.38-1.12,2.62-3.93,4.61-.71,7.27-2.44,3.02-3.59,7.63-.2,9,.64,2.07,1.27,4.03,1.8,6.11,.55-.02,1.11-.05,1.66-.07,.32-.36,.64-.73,.95-1.21-1.06-1.59-2.24-3.17-3.3-4.88Z"/><path class="cls-9" d="M336.49,22.18c-.38,1.66,1.06,4.4-2.44,5.71,1.78,.16,3.56,.2,5.35,.35,1.72-1.48,2.34-5.59-.24-6.18-.89,.04-1.78,.08-2.66,.11Z"/><path class="cls-9" d="M341.29,51.17c-.38-1.15-.76-2.31-1.13-3.34-5.69-3.49-2.45,2.67-6.39,1.33-.89,.04-1.77,.08-2.66,.11-1.09,.63-2.06,1.26-3.15,1.89,2.01,.26,3.91,.53,5.92,.8,2.57,.47,5.04,.95,7.5,1.43-.05-1.17-.07-1.75-.09-2.21Z"/><path class="cls-9" d="M322.64,51.39c-1.63-2.03-.13-6.07-3.84-4.39-1.51,1.12-1.34,2.75-2.06,4.06,2.01,.14,4,.18,5.9,.32Z"/><path class="cls-9" d="M314.87,14.72c-.89,.04-1.77,.08-2.62,1.28-1.11,.05-2.22,.1-3.22,.14-1.12-.19-2.12-.38-3.24-.44-.09,.59-.29,1.06-.49,1.65,0,.23,.02,.47,.02,.59,1.22-.06,2.55-.12,3.77-.17,.69,.55,1.49,1.1,2.17,1.54,.32-.36,.63-.73,1.06-1.1,1.23,.06,2.46,.24,3.68,.42,.21-.24,.43-.49,.53-.61-.6-1.14-1.19-2.17-1.68-3.31Z"/><path class="cls-9" d="M313.62,39.4c-3.51-1.71-5.72-1.39-6.32,.28,3.39,1.49,5.29,1.75,6.32-.28Z"/><path class="cls-9" d="M302.25,61.26c-3.2,.49-6.4,.98-9.5,1.46-.42,.49-.74,.85-1.06,1.21-.68-.31-1.47-.63-2.15-1.07-13.3,.81-26.6,1.62-39.9,2.32,.38,1.15,.75,2.18,1.13,3.34,3.86-.64,7.6-1.73,10.67,.12,3.61-1.32,6.84,1.57,10.71,1.17,.18-.95-.42-2.2,.45-2.82,3.75-.51,7.32,5.29,10.13,.73,1.68,.39,3.26,.91,4.95,1.42,1.21-.4,2.41-.8,3.61-1.32,.43-.37,.75-.73,1.07-1.1,1.21-.29,2.42-.46,3.63-.74,1.99-.2,5.22,2.81,5.86-.84,1.02,.54,2.05,1.2,3.26,1.03-.5-1.62,1.36-2.28,1.93-4.64-1.56-.05-3.23-.21-4.79-.26Z"/><path class="cls-9" d="M281.35,18.39c-1,.04-2.11,.09-3.22,.14,.02,.58,.05,1.17,.07,1.75,1.11-.05,2.22-.09,3.22-.14-.02-.58-.05-1.16-.07-1.75Z"/><path class="cls-9" d="M269.68,18.32c-1.72-1.45-3.07-1.97-3.21,.14,1-.05,2.11-.09,3.21-.14Z"/><path class="cls-9" d="M258,20.57c-7.12-3.08-12.34-.4-18.12-.38-6.95-1.57-16.79-.44-23.98,.46-.51,1.07-1.75,.54-2.64,.7-.22-.11-.34-.33-.57-.56-11.26-1.03-21.36,1.98-32.03-.83-.85,1.08-2.42,.57-3.64,.74-3.97-1.93-10.01-.26-15.02-.51-1.64-2.14-5.66,.02-8.05-1.29-5.75,.72-10.78-2.8-16.57-.45,.58,.56,1.2,2.4,3.35,3.24,.05,1.17,.09,2.22,.13,3.39,2.9,.11,5.67,.1,8.56,.21,.08-.7,.27-1.53,.47-2.24,1.02,.66,2.17,1.43,3.3,2.08,3-.01,6,.09,9,.2,1.65-.54,3.95-1.22,5.36,.82,1.1-.16,2.1-.44,3.2-.72,1.78,.16,3.57,.32,5.34,.35,1.56,.17,3.24,.32,4.79,.37,.22-.01,.34-.02,.56-.03,1.24,.3,2.47,.59,3.82,1,1.22,.06,2.45,.24,3.67,.31,1.23,.18,2.57,.35,3.8,.42,1.21-.17,2.42-.45,3.64-.74,3.55-.15,7.1-.31,10.64-.47,1.11-.05,2.22-.09,3.22-.14,1.11-.05,2.11-.09,3.21-.14,.67-.03,1.44-.06,2.11-.09,.97-.74,2.78,0,2.6-1.75,2.22,.02,4.64-.67,7.03,.86,2.3-3.6,9.56-2.63,13.13-2.32,5.76-.25,9.83-1.24,16.5-1.3,1.1-.4,2.08-.79,3.17-1.19Z"/><path class="cls-9" d="M242.63,64.91c-2.44,.1-4.88,.21-7.43,.32-.97,.62-2.06,1.26-3.03,1.88,1.11,2.87,4.22,.17,5.32,2.57,1.39,1.46,3.64-.62,5.28-1.4,1.33-.06,2.55-.11,3.77-.16-.25-.81,.62-1.19,1-2.85-1.67-.04-3.23-.21-4.9-.37Z"/><path class="cls-9" d="M209.63,64.7c-1.55,.18-3.2,.49-4.75,.79-.54,.37-1.08,.74-1.62,1.12-2.7-.94-1.67-2.96-3.21-2.67-.78-.08-1.46-.29-2.24-.49-.44,.02-1,.05-1.55,.07-1.99,.32-3.86,.63-5.86,.84-2.04,1.72-4.95,1.15-9.01-.19-1.98,.55-3.96,.99-5.83,1.42-1.14-.54-2.15-1.08-3.28-1.49-2.1,.21-4.2,.53-6.41,.75-2.11,.09-4.22,.18-6.32,.27-.87,.5-1.74,.89-2.62,1.28-1.11,.05-2.11,.09-3.22,.14-.23-.11-.35-.34-.58-.56-1,.04-2.11,.09-3.22,.14-.95,1.21-2.02,2.31-2.97,3.52-1.31,.53-1.93-1.09-3.24-.44-1.44,.06-2.88,.13-4.32,.19-1,.04-2.11,.09-3.11,.13-.25-.69-.5-1.49-.64-2.19-.55,.02-1.11,.05-1.66,.07-1.54,.41-3.08,.84-4.73,1.37-2-.15-3.9-.3-5.9-.33-.11,0-.33,.02-.44,.02-.18,1.06-.35,2.23-.42,3.4,1.02,.42,2.15,.96,3.28,1.49,1-.05,2.11-.09,3.08-.72,1.24,.41,2.58,.7,3.81,1,1.15,1,2.79,.23,4.24,.4,1.11-.05,2.21-.1,3.21-.14,4.42-.66,8.84-1.2,13.26-1.75,.34,.22,.68,.32,1.13,.54,1.76-.43,3.52-.85,5.28-1.4,.67-.03,1.44-.06,2.11-.09,2.71-1.75,3.81-1.92,4.73-1.25,.89,.08,1.79,.27,2.68,.35,2.3-.92,.77,2.54,2.75,2.21,.63-.84,1.38-1.58,2.01-2.42,1.66-.08,4.56-2.77,4.9,.37,1.3-.87,3.85-.99,5.32-.23,1.97-.78,2.32-.33,4.81,.96,.22-2.93,.89-2.84,2.64-.7,3.92-2.04,8.38-1.53,11.62-1.09,1.54-.42,3.84-1.34,4.35,.39,4.34,.05,7.08-.77,11.22,.1-1.1,2.97,2.83,1.4,3.7,.89,1.75-3.46,6.32-.39,8.41-3.63-1.9-.15-3.08-1.97-4.86-2.12-5.56-.11-11.12-.22-16.56-.33Z"/><path class="cls-9" d="M133.71,18.14c-2.27-1.19-6.17-1.6-7.43,.32,1.29,1.7,3.47,.67,7.43-.32Z"/><path class="cls-9" d="M118.69,17.63c-1.61-1.33-4.72-1.2-5.79-.33-.05,1.64,2.18,1.78,5.79,.33Z"/><path class="cls-9" d="M110.68,17.39c-2.17-1.54-3.72-1.47-5.36-.82-1.44,.07-2.77,.12-4.21,.18,.46,.45,1.09,2.29,4.26,.87,1.77-.08,3.55-.16,5.32-.23Z"/><path class="cls-9" d="M96.89,16.94c-2.29-1.65-3.84-1.59-5.37-.94-1.46-.28-2.91-.57-4.37-.98-1.57-.28-3.24-.56-4.81-.84-3.21,.26-4.97-2.12-9.18-1.82-1.57-.4-3.14-.68-4.81-.96-1.33-.06-2.18,1.03-3.62,1.32,.36,.68,.73,1.49,1.09,2.17,1.11-.05,2.11-.09,3.22-.14,1.43-.41,2.74-.82,4.17-1.35,.48,.8,.84,1.48,1.2,2.17,.87-.39,2.51-1.05,3.26,1.03,.33-.01,.67-.03,1-.04,1.21-.4,3.29-1.19,4.37,.98,.33-.02,.67-.03,1-.05,1.09-.51,2.19-.91,3.17-1.3,1.9,.15,1.4,1.57,4.37,.98,1.66-.08,3.55-.16,5.32-.23Z"/><path class="cls-9" d="M55.59,11.96c-.17-4.31-3.86-2.05-5.96-1.96-1.86-2.14-5.81-.8-6.03-3.71-1.9-.27-1.86,.67-3.02,2.35-.41,.84-.72,1.55-1.02,2.38,2.35,.37,4.7,.85,6.94,1.34,.55-.02,1.11-.05,1.66-.08,.11,0,.33-.01,.55-.02,.45,.21,1.01,.31,1.58,.52,1.77-.31,3.54-.51,5.3-.82Z"/><path class="cls-9" d="M37.8,5.96c.28-1.3,.78-2.84-.11-2.8-.51-1.61-1.31-2.28-2.35-3.16-1.73,1.24-2.08,3.59-4.53,6.27-.37-1.03-.75-2.18-1.13-3.22-.3,3.75-5.03,1.97-5.17,4.07,.02,.47,.03,.82,.05,1.17-.94,1.44-2.32,3.02-3.06,3.99,.05,1.16,.09,2.33,.14,3.38,1.88-.08,.75,2.19,.15,3.96-.13,2.46-.25,4.92-.27,7.25,.14,.58,.38,1.15,.62,1.73,1.53-.66,3.17-1.31,4.7-1.96,.27-1.53,.55-2.94,.93-4.47,.09-.59,.29-1.18,.38-1.77,.51-1.08,1.02-2.27,1.54-3.34-.07-1.75-.13-3.38-.2-5.13-.04-1.05-.09-2.22,1.36-5.08,1.47,.75,2.94,1.39,4.41,2.03,.85-.97,1.59-1.82,2.55-2.91Z"/><path class="cls-9" d="M24.06,51.98c-.62-1.61-1.21-2.52-2.19-2.13-2.06,1.14-2.11,2.78-1.93,4.52,1.26,1.11,3.12,.33,4.2-.65-.04-.93-.05-1.28-.07-1.75Z"/><path class="cls-6" d="M326.96,51.2c-1.05-1.24-4.29-1.68-4.33,.19,1.47,.76,.37,3.84,2.79,3.27,.51-1.19,1.02-2.38,1.53-3.45Z"/><path class="cls-6" d="M314.1,51.76c-.4-1.62-1.92-.85-2.68-.47-1.65,.42-3.53,.86-5.28,1.4,1.01,2.99,4,2.75,6.54,2.52,.51-1.19,1.02-2.38,1.42-3.45Z"/><path class="cls-6" d="M81.09,22.06c1.55-.18,3.09-.48,4.75-.79,2.2-.56,3.06,1.5,3.77,2.64-.71-1.14-1.57-3.2-3.77-2.64-1.65,.3-3.2,.61-4.75,.79Z"/><path class="cls-6" d="M79.92,20.48c-1.23-.18-2.75,.59-3.86-2.17-.68-.32-1.47-.64-2.15-.96-1.23-.18-2.45-.24-3.68-.42-1.09,.4-2.19,.79-3.17,1.3-1.15-1-2.9-.34-4.39-1.56-1.22,.05-2.44,.1-3.66,.16,.16,1.16-.03,2.21-.98,3.42,.22,0,.33-.01,.55-.03,2.78,.11,5.67,.11,8.56,.22,4.11-.07,6.84,1.57,10.2,2.36,.88-.27,1.76-.43,2.64-.7-.02-.59-.05-1.17-.06-1.63Z"/><path class="cls-6" d="M39.56,11.02c.03,.7,.06,1.52,.09,2.22,1.47,.52,2.81,.93,4.28,1.45,1.47,.63,1.73-1.13,2.57-2.33-2.24-.49-4.59-.97-6.94-1.34Z"/><path class="cls-7" d="M355.86,54.39c-2.03-3.53-5.72-1.39-8.62-1.84-.06,1.29-.23,2.7-.4,3.99,3.08-.72,6.05-1.43,9.03-2.15Z"/><path class="cls-7" d="M292.76,62.73c-.91-.54-.45-2.9-3.22,.14,.68,.44,1.47,.76,2.15,1.07,.32-.36,.64-.72,1.06-1.21Z"/><path class="cls-7" d="M278.73,44.89c-1.27-1.23-2.66-2.57-3.93-3.8-.03-.7-.06-1.52-.09-2.22-1.1,.28-2.09,.44-3.19,.72-.57-.21-1.01-.31-1.58-.51-.64,.73-1.38,1.58-2.02,2.31-4.73-1.67-11.69-.66-15.99,.11-1.82,1.83-5.88,.37-10.58,2.21,.01,.35,.03,.7,.04,1.05,2.99-.13,5.43-.23,8.52,1.97,.02,.35,.03,.7,.04,1.05-1.66,.07-3.55,.15-5.32,.23-1,.04-2.11,.09-3.11,.13,0-.12-.01-.35-.02-.58-1.65,.31-3.2,.61-4.86,.8-.69-.56-1.37-.99-2.17-1.54-.64,.73-1.38,1.58-2.02,2.31-1.38-1.11-3.44,.03-4.82-.96-1.2,.64-2.5,1.27-3.7,1.91,.24,.34,.47,.68,.6,1.03,3.26-1.78,3.9,3.22,5.32-.23,.89-.04,1.77-.08,2.66-.11,1.44-.18,2.87-.47,4.19-.65,1.46,.4,2.93,.92,4.39,1.45,1.21-.41,2.41-.81,3.61-1.33,.8,.43,1.47,.76,2.26,1.07,.97-.63,2.06-1.26,3.04-1.77,.91,.66,2.12,.37,4.83-1.38-.58-.56-1.16-1.12-1.73-1.56,3.04-1.88,3.57,.43,4.79,.26,2.01,.14,4.31-.54,5.9,.32,3.11-.13,6.1-.26,9.1-.39,1.44-.06,2.77-.12,4.21-.19,.53-.6,1.07-1.1,1.6-1.7Z"/><path class="cls-7" d="M214.36,49.32c-1.12-.07-2.12-.26-3.24-.44,0,.23,.02,.47,.02,.58-1-.07-2.12-.26-3.24-.44-.02-.35-.03-.7-.04-1.05-1,.05-2.11,.09-3.1,.14-1.77,.19-3.65,.51-5.3,.82-.9-.31-1.69-.75-2.68-.47-.98,.39-1.75,.77-2.62,1.16,2.03,.84,2.32,2.47,5.86,2.08,1.99-.32,3.86-.64,5.86-.84,.22,0,.33-.01,.55-.02,1.57,.28,3.24,.56,4.81,.84,1.1-.16,2.1-.44,3.2-.6,1.08-.63,2.06-1.26,3.15-1.89-1.11,.05-2.11,.09-3.21,.14Z"/><path class="cls-7" d="M204.88,65.49c-.48-1.15-1.4-1.92-2.21-2.71-.98,.39-1.75,.78-2.62,1.16,1.54-.3,.51,1.73,3.21,2.67,.54-.38,1.08-.75,1.62-1.12Z"/><path class="cls-7" d="M173.8,48.86c-3.01-.22-6.02-.44-9.03-.77-4,.05-7.89,0-11.77,.04-1.12-.18-1.84-1.67-3.26-1.02-.88,.27-1.76,.43-2.64,.7-3.24-.45-6.37-.89-9.61-1.34-1.77,.31-3.53,.62-5.3,.81,1.8,.51,3.6,1.01,5.39,1.52,3.33-.14,4.51,1.79,9.58,.63,1.68,.4,3.25,.67,4.82,.96,2.46,.59,4.13,.64,6.49,1.35,2.1-.21,4.2-.53,6.41-.86,1.94,1.32,4.44-.19,5.74-.72,1.1-.28,2.2-.56,3.2-.72,0-.24-.01-.35-.02-.58Z"/><path class="cls-7" d="M147.22,65.19c-.33,.13-.65,.38-.98,.51-1.14-.66-2.16-1.31-3.3-2.08-.33,.01-.67,.03-1.11,.05-1.62,1.24-3.14,2.24-6.19,3.66,.14,.69,.39,1.5,.64,2.19,1-.04,2.11-.09,3.11-.13,1.44-.06,2.88-.13,4.32-.19,1.31-.64,1.93,.97,3.24,.44,.95-1.21,2.02-2.3,2.97-3.52-.9-.31-1.8-.62-2.7-.93Z"/><path class="cls-11" d="M134.76,58.96c-.33,.01-.67,.03-1.11,.05,.01,.24,.02,.35,.02,.59-2.75,.7-3.26-.91-5.81-.92-.89,.04-2.34-.13-2.17,1.26-2.53,.69-3.47-.78-4.86-2.01-4.62,1.25-9.12-.19-13.31,.58-4.2,.65-3.07-4.65-3.5-7.21-1.46-.4-2.05,1.61-3.02,2.35-1.34-.29-2.58-.58-3.81-.88-.36-.57-.71-1.13-1.18-1.7-1.23-.06-2.75,.58-3.2-2.08-.77,.03-1.44,.06-2.22,.1-.37-.92-.74-1.84-1.11-2.75-2.08,.68-4.3,.77-6.46-.3-1-.07-2.12-.26-3.23-.32-1.8,2.29-3.56-.19-6.39-1.47-.44,.02-.78,.04-1.11,.05-.51,1.19-.91,2.26-1.42,3.45-2.01-.26-3.91-.53-5.92-.91-1.13-.65-2.16-1.3-3.3-2.08-1-.07-2.12-.26-3.24-.44-.02-.47-.04-1.05-.06-1.63-.68-.33-1.47-.64-2.15-1.07-1.55,.07-3.22,.14-4.77,.21-1.28-1.58-2.68-3.15-3.97-4.85-.44,.02-1,.04-1.55,.07-.22,2.93-.89,2.84-1.44,2.86-1.03-.66-.53-2.2-.69-3.36-.48-.91-1.61-1.45-1.13-.42-.39,1.54-1.06,4.02-3.06,3.99-1.01-.31-2.14-.61-3.15-.92-1.95,1.13-2.84,1.18-3.73,1.21-1.22,.05-2.55,.11-3.77,.17,.05,1.16,.09,2.21,.13,3.38,.79,.32,1.47,.64,2.26,1.07-.12,2.57-.24,5.15-.25,7.83,0,.12,.02,.35,.02,.58,.55-.02,1-.04,1.55-.07,.22,0,.33-.01,.55-.02,1.76-.31,3.53-.62,5.3-.81,.33-.02,.67-.03,1.11-.05,1-.04,2.11-.09,3.1-.13,.8,.55,1.29,1.69,2.28,1.53,.67-.02,1.33-.06,2.11-.09,.98-.63,2.06-1.14,3.15-1.78,1.89,.04,4.2-.64,6.35,.31-.29,1.06-.58,2.24-.87,3.31-1.65,.31-3.2,.6-4.86,.8,1.28,1.46,3.92,.76,3.88,2.63,2,.15,3.9,.3,5.9,.33,3.58,.78,6.31,2.41,11.36,3.47-4.11-.05-3.92,1.92-4.77,3.01,.46,.45,.82,1.02,1.17,1.59,1.09-.4,2.08-.79,3.17-1.31,.05,1.4,.11,2.68,.15,3.97,.9,.2,1.79,.27,2.68,.47,.09-.59,.29-1.18,.49-1.77,4.26,.86,4.97-3.6,7.94-1.4,0,.12,.01,.35,.02,.59,1.33-.06,2.77-.12,4.21-.19,1.46,.29,2.8,.58,4.25,.86,.26,.92,.52,1.85,.66,2.78,2.55-.11,4.99-.21,7.43-.32,.72-1.55,1.33-2.98,2.05-4.53-1.19-2.05-4.75,.67-4.99-2.58,.75-.62,1.4-1.23,2.15-1.85,1.11,.07,2.43-.34,3.15,1.03,5.35,.35,9.25,.77,13.93,1.03,2.11-.09,4.32-.19,6.43-.28,.88-.16,1.76-.43,2.64-.58,1.56,.05,3.23,.21,4.79,.26,1.1-.4,2.08-.79,3.17-1.19,.33-.02,.67-.03,1-.04,.88-.16,1.26,.88,3.75-.75-1.23-.3-1.04-1.01-2.77-2.68Z"/><path class="cls-7" d="M132.82,63.48c-1.11,.05-2.11,.09-3.22,.14-1.56-.05-3.23-.21-4.79-.26-.52,.96-1.04,1.91-1.56,2.87-.36-.8-.72-1.48-1.09-2.29-2.11,.09-4.32,.19-6.43,.28-.51,1.19-.91,2.37-1.42,3.45,.67,.2,1.46,.4,2.13,.49,2.12,.14,4.23,.17,6.45,.3,.11,0,.33-.02,.44-.02,2,.03,3.9,.18,5.9,.33,1.65-.54,3.18-.96,4.73-1.37-.38-1.27-.77-2.53-1.16-3.92Z"/><path class="cls-7" d="M124.16,46.58c-6.37,1.79-9.73,1-12.8-.61,3.07,1.62,6.43,2.41,12.8,.61Z"/><path class="cls-10" d="M96.52,64.01c.24,3.26,3.8,.54,4.99,2.58-.72,1.55-1.33,2.98-2.05,4.53,.9,.19,1.79,.39,2.69,.46,.43-.37,.75-.73,1.06-1.21-.04-.93-.07-1.75-.11-2.79,2.64-.7,3.07,1.96,4.81,.96,2.1-.21,4.31-.54,6.41-.86,.51-1.07,.91-2.26,1.42-3.45-4.67-.26-8.58-.68-13.93-1.03-.72-1.37-2.04-.96-3.15-1.03-.75,.62-1.4,1.23-2.15,1.85Z"/><path class="cls-7" d="M107.92,68.53c-1.74,1.01-2.17-1.66-4.81-.96,.04,1.04,.07,1.86,.11,2.79,1.55-.07,3.22-.14,4.77-.21-.02-.47-.04-1.05-.06-1.63Z"/><path class="cls-7" d="M102.16,43.56c-1.21,.29-2.54,.46-3.75,.75,.01,.35,.03,.7,.04,1.05,1.13,.42,1.5,1.33,4.32-.19-.24-.45-.49-1.03-.62-1.61Z"/><path class="cls-7" d="M94.44,36.66c-1.41,.99-2.81,1.99-4.22,2.98-.11,.01-.33,.02-.44,.02-1.34-.18-2.57-.36-3.79-.41-.37-.92-.74-1.84-1.22-2.76-3.14-.68-5.13-3.39-9.11-2.99,.46-2.47-3.53,.5-2.77-2.69-6.58-3.45-12.65,3.24-19.23-.33-1.23-.06-2.87,.59-3.79-.3,.71-1.55,2.5-1.4,2.55-2.91-.02-.58-.04-1.16-.07-1.75-1.46-.29-2.8-.58-4.26-.87-.54,.49-1.07,1.1-1.49,1.7,.16,1.28,.44,2.66,.6,3.94,3.7,3.69,5.76,5.24,8.76,5.22,1.24,.41,2.59,.94,3.84,1.47-1.21,.41-2.52,.81-3.72,1.33,.04,1.05,.09,2.22,.13,3.27,.68,.44,1.47,.75,2.15,1.07,1.11-.05,2.22-.1,3.21-.14,1.11-.16,2.09-.44,3.19-.73,2.69,.59,4.73,1.66,7.52,1.89,.01,.23,.02,.47,.02,.58,.33-.01,.67-.03,1.11-.05,2.11-.09,4.21-.18,6.32-.27,1.12,.18,2.24,.37,3.24,.44,.66-.15,1.43-.41,2.09-.68,1.23,.18,2.57,.35,3.79,.42,.34,.22,.68,.32,1.13,.54,.99-.28,2.09-.44,3.08-.72-.02-.58-.05-1.17-.06-1.63,1.08-.63,2.17-1.26,3.15-1.88-.61-1.26-1.1-2.52-1.7-3.78Z"/><path class="cls-10" d="M72.03,62.85c-5.04-1.07-7.77-2.7-11.36-3.47-2-.03-3.9-.18-5.9-.33,.04-1.87-2.6-1.17-3.88-2.63,1.66-.19,3.2-.49,4.86-.8,.29-1.06,.58-2.24,.87-3.31-2.15-.96-4.46-.28-6.35-.31-1.09,.63-2.17,1.15-3.15,1.78-.78,.03-1.44,.06-2.11,.09-1,.16-1.48-.99-2.28-1.53-1,.05-2.11,.09-3.1,.13,.37,1.04,.75,2.19,1.13,3.34-1,.04-2.11,.09-3.22,.14-.11,0-.33,.02-.44,.02,.02,.47,.04,1.05,.06,1.63,.05,1.16,.09,2.21,.13,3.38-.55,2.94-1.31,3.44-.94,4.48,.68,.44,1.47,.75,2.15,1.08,.52-.96,1.04-1.91,1.55-2.87,2.33-.1,4.75-.68,6.39,1.35,.04,.93,.07,1.87,.11,2.8,2-.09,3.88-.17,5.88-.25,2.01,.38,3.91,.64,5.92,.91,1.59,.98,3.26,.91,4.81,.84,1.79,.39,3.58,.66,5.37,.94,1.11-.05,2.11-.09,3.22-.14-.05-1.28-.1-2.56-.15-3.97-1.09,.51-2.08,.91-3.17,1.31-.36-.57-.71-1.14-1.17-1.59,.84-1.08,.66-3.06,4.77-3.01Z"/><path class="cls-7" d="M46.57,67.81c-.04-.93-.07-1.86-.11-2.8-1.64-2.03-4.06-1.46-6.39-1.35-.52,.95-1.04,1.91-1.55,2.87,1.23,.3,2.58,.59,3.81,.89,.59,1.03,2.79,.34,4.24,.4Z"/><path class="cls-7" d="M39.63,52.46c-.44,.02-.78,.03-1.11,.05-1.77,.19-3.54,.5-5.3,.81,1.26,.88,2.51,1.76,3.88,2.64,.11,0,.33-.02,.44-.02,1.11-.05,2.22-.1,3.22-.14-.38-1.15-.76-2.3-1.13-3.34Z"/><path class="cls-7" d="M37.3,60.97c-.05-1.16-.09-2.21-.13-3.38-1.31,.64-2.5,1.27-3.7,1.79,.13,.58,.38,1.15,.62,1.73,.73,1.48,1.56,2.85,2.28,4.34-.37-1.03,.38-1.53,.94-4.48Z"/><path class="cls-7" d="M31.09,52.84c-3.24-.44-5.3-1.99-7.03-.86,.02,.46,.03,.81,.07,1.75,.47,.68,.84,1.48,1.2,2.17,1.97-.79,3.82-1.69,5.79-2.47,0-.23-.02-.47-.02-.58Z"/><path class="cls-8" d="M347.23,52.54c-1.47-.53-2.82-1.05-4.28-1.45-.56,.02-1.11,.05-1.66,.08,.02,.46,.04,1.05,.09,2.21,1.15,1,2.19,2.12,3.35,3.24,.66-.03,1.44-.06,2.11-.09,.17-1.29,.34-2.7,.4-3.99Z"/><path class="cls-8" d="M257.92,46.85c-1.22,.17-1.75-2.14-4.79-.26,.57,.44,1.15,1,1.73,1.56,.98-.39,2.08-.79,3.06-1.3Z"/><path class="cls-8" d="M53.82,20.45c-2.35-.48-4.42-2.15-5.5-4.2-.05-1.28-.11-2.68-.15-3.97-.56,.03-1.11,.05-1.66,.08-.84,1.2-1.1,2.96-2.57,2.33-1.46-.52-2.81-.93-4.28-1.45-.18,.94-.26,1.88-.44,2.82-1.95,6.86,6.27,1.36,5.58,6.41-.89-.08-1.79-.27-2.68-.35,.61,1.49-.8,2.13-.87,3.31,.13,.46,.37,.8,.49,1.14,1.44-.06,2.88-.12,4.33-.19,.11,0,.33-.01,.55-.03,.42-.6,.95-1.21,1.49-1.7,.63-3.76,3.23-2.59,4.66-3,.32-.48,.63-.84,1.06-1.21Z"/><path class="cls-8" d="M37.1,55.96c-1.37-.87-2.62-1.76-3.88-2.64-.22,.01-.33,.02-.55,.02,.3,1.97,.49,4.07,.79,6.04,1.2-.52,2.4-1.15,3.7-1.79-.02-.58-.05-1.17-.06-1.63Z"/><path class="cls-8" d="M31.81,17.43c0-.12-.01-.35-.02-.47-.67,.03-1.44,.06-2.11,.09-.51,1.07-1.02,2.26-1.54,3.34,1.22-.06,2.55-.11,3.77-.17-.04-.93-.07-1.75-.11-2.8Z"/><path class="cls-10" d="M124.82,63.36c-.88,.16-1.76,.43-2.64,.58,.36,.8,.72,1.49,1.09,2.29,.52-.96,1.04-1.91,1.56-2.87Z"/><path class="cls-10" d="M91.37,68.66c-1.46-.28-2.8-.58-4.25-.86-1.44,.07-2.88,.13-4.21,.19-.01-.24-.02-.47-.02-.59-2.98-2.2-3.69,2.26-7.94,1.4-.2,.59-.4,1.18-.49,1.77,3.48,.9,5.52,1.86,8.05,1.29,3.22-.14,6.32-.27,9.54-.41-.15-.93-.41-1.85-.66-2.78Z"/><path class="cls-10" d="M82.3,52.83c-1.11,.05-2.22,.1-3.21,.14-.75,.73-1.38,1.58-2.02,2.31-5.37,1.75-8.32-2.56-12.89-.03,.02,.46,.03,.81,.05,1.16,2.01,.27,3.91,.53,5.92,.91,3.36,.79,8.22,0,12.31-.53-.05-1.28-.11-2.68-.16-3.96Z"/><path class="cls-10" d="M72.28,43.7c-2.79-.23-4.83-1.31-7.52-1.89-1.1,.28-2.09,.56-3.19,.73-1,.04-2.11,.09-3.21,.14,.02,.58,.05,1.16,.06,1.63,1.12,.18,2.24,.37,3.24,.44,1.14,.77,2.17,1.43,3.3,2.08,2.02,.38,3.91,.65,5.92,.91,.51-1.19,.91-2.26,1.42-3.45,0-.12-.01-.35-.02-.58Z"/><path class="cls-10" d="M59.8,37c-2.08-2.13-2.97-2.09-3.84-1.47-3,.01-5.06-1.53-8.76-5.22-1.43,.41-2.75,.82-4.17,1.23-.2,.59-.29,1.18-.49,1.77,.04,.93,.07,1.86,.11,2.8-.49-1.03,.65-.49,1.13,.42,.16,1.16-.34,2.7,.69,3.36,.55-.03,1.22,.06,1.44-2.86,.55-.03,1.11-.05,1.55-.07,1.29,1.7,2.68,3.27,3.97,4.85,1.55-.07,3.21-.14,4.77-.21-.04-1.05-.09-2.22-.13-3.27,1.2-.52,2.52-.92,3.72-1.33Z"/><path class="cls-10" d="M37.67,30.72c-.33,.02-.66,.03-1.11,.05-1.27-1.23-2.54-2.58-3.81-3.81-.22,0-.44,.02-.55,.02-1.78-.04-3.56-.2-5.35-.35-1.53,.65-3.17,1.3-4.7,1.96,.01,.34,.03,.7,.04,1.05-.7,1.89-1.3,3.79-1.89,5.68,1.07,1.71,2.24,3.29,3.3,4.88-.32,.48-.63,.84-.95,1.21-.56,.02-1.11,.05-1.66,.07-2.38,1.5-1.06,4.14-1.31,6.24,.69,.67,1.5,1.45,2.2,2.12,.98-.39,1.57,.52,2.19,2.13,1.73-1.13,3.8,.42,7.03,.86,0-2.68,.13-5.26,.25-7.83-.8-.43-1.47-.75-2.26-1.07-.05-1.16-.09-2.21-.13-3.38,1.22-.06,2.55-.11,3.77-.17,.89-.04,1.78-.08,3.73-1.21,0-.23-.02-.46-.02-.58,.06-1.17,.25-2.23,.31-3.4,.53-.6,1.06-1.21,1.6-1.71-.26-.92-.52-1.84-.66-2.77Z"/><path class="cls-10" d="M32.19,12.98c-.9-.31-1.8-.62-2.71-1.05,.07,1.75,.13,3.38,.2,5.13,.67-.03,1.44-.06,2.11-.09,.06-1.29,.23-2.7,.4-3.98Z"/><path class="cls-11" d="M166.38,63.77c-1.82-1.09-3.64-2.06-5.45-3.15-.11,0-.33,.01-.56,.02-.32,.36-.64,.73-.95,1.21,.04,1.05,.09,2.21,.13,3.26,2.1-.09,4.21-.19,6.32-.27,.21-.36,.42-.72,.51-1.08Z"/><path class="cls-11" d="M46.61,26.36c-.22,.01-.45,.02-.55,.03-1.44,.06-2.88,.13-4.33,.19-.08,.7-.27,1.53-.36,2.24,.48,.91,1.07,1.82,1.66,2.73,1.43-.41,2.74-.82,4.17-1.23-.16-1.28-.44-2.67-.6-3.94Z"/><path class="cls-11" d="M35.25,22.89c-.44,.02-.78,.03-1.11,.05-.54,.49-.97,.86-1.51,1.24,.04,.93,.07,1.86,.11,2.8,1.27,1.23,2.54,2.57,3.81,3.81,.45-.02,.78-.03,1.11-.05,0-.23-.02-.46-.02-.58,.26-1.76,.53-3.41,.91-5.06-1.14-.76-2.28-1.42-3.31-2.19Z"/><path class="cls-6" d="M58.03,20.26c-.91-.54-1.82-1.09-2.73-1.51,.17-1.29,.23-2.7,.4-3.99-1.22,.05-2.55,.11-3.77,.17-.91-.54-.83-1.49-1.64-2.15-.56-.21-1.12-.3-1.58-.52-.22,.01-.44,.02-.55,.02,.05,1.29,.1,2.69,.15,3.97,1.08,2.05,3.14,3.72,5.5,4.2-.43,.37-.75,.73-1.06,1.21-.89,.04-1.77,.08-2.66,.12-2.03-.85-2.28,1.38-2,2.89,1.46,.29,2.8,.58,4.26,.87,.02,.58,.05,1.16,.07,1.75,.78,.08,1.46,.29,2.24,.37,3.26,1.03,3.88-2.97,7.9-2.56,.5-1.31-1.17-1.59-1.2-2.17-1.12-.3-2.13-.61-3.26-1.02-.02-.47-.04-1.05-.06-1.63Z"/><path class="cls-1" d="M55.7,14.76c-.04-.93-.07-1.86-.11-2.8-1.77,.31-3.53,.5-5.3,.82,.8,.66,.73,1.61,1.64,2.15,1.22-.06,2.55-.11,3.77-.17Z"/><path class="cls-9" d="M266.47,18.46c-1.11,.05-2.11,.09-3.22,.14,.99-.16,.3,2.09,3.22-.14Z"/><path class="cls-9" d="M64.73,12.73c-2.18-1.77-5.97-2.19-9.14-.77,.04,.94,.07,1.87,.11,2.8,2-.2,3.87-.52,5.86-.84,.99-.39,2.08-.79,3.17-1.19Z"/><path class="cls-6" d="M90.9,28.41c-2.4-1.65-3.62-1.6-4.84-1.55-1.59,4.86,2.81,3.62,4.84,1.55Z"/><path class="cls-6" d="M286.36,35.57c-.75,.61-1.39,1.23-2.16,1.73,.71,1.13,1.01,2.99,2.76,2.21,.99-.28,1.75-.55,2.64-.7-.09-2.33-2.58-.59-3.24-3.24Z"/><path class="cls-7" d="M194.15,49.61c-.99,.16-1.49-.99-2.28-1.53-.88,.27-1.76,.42-2.64,.69-1.24-.53-2.49-1.06-3.73-1.59-.43,.49-.75,.85-1.06,1.21-1.81-.97-4.23-.17-6.34-.31-1.09,.52-2.19,.91-3.17,1.3,.89-.04,1.49,.99,2.17,1.54,2.44-.11,4.99-.22,7.43-.32,.89-.04,1.78-.08,4.73-1.26,1.22,.06,1.84,1.56,4.9,.26Z"/></g></g><g class="cls-4"><path class="cls-2" d="M357.87,48.35c-.17,1.18-1.46,1.76-.96,3.12,1.43-.06,2.85-.12,4.27-.17,.04-1.7-.94-4-3.31-2.95Z"/><path class="cls-2" d="M307.97,38.12c3.35,1.36,5.22,1.6,6.24-.25-3.47-1.56-5.65-1.26-6.24,.25Z"/><path class="cls-2" d="M347.41,49.84c-1.45-.48-2.78-.95-4.22-1.32-.55,.02-1.1,.05-1.64,.07-.37-1.05-.75-2.1-1.12-3.04-5.62-3.18-2.42,2.43-6.31,1.21-.88,.03-1.75,.07-2.63,.1-1.07,.58-2.03,1.14-3.11,1.72-.33,.01-.66,.02-.98,.04-1.04-1.13-4.23-1.53-4.27,.17-1.61-1.85-.13-5.52-3.79-4-1.49,1.02-1.32,2.5-2.04,3.7-.87,.25-1.63,.38-2.61,.63-.39-1.47-1.9-.77-2.65-.43-.04-1.06-.09-2.02-.13-3.08-.46-.51-1.03-.92-1.6-1.43-4.13,.91-7.73-1.28-12.04,.49-1.8-3.54,1.25-4.19,.17-6.17-.61-1.57-1.99-.35-3.13-1.36,0-.21-.01-.32-.02-.53-1.22-2.82-1.25-3.67-1.29-4.52,1.21,.06,2.53,.22,3.74,.38,.33-.02,.66-.03,.98-.04,1.43-.05,2.85-.11,4.27-.17,.63-.56,1.38-1.12,2.01-1.68,2.64,.1,5.34,1.7,7.88-.31,2.4-.2,4.92-.52,7.31-.83,1.86-.18,2.87-2.03,4.6-2.73,.8,.71,1.48,1.32,2.17,2.04,2.87,.31,4.89-.94,7.4-1.36,1.76,.14,3.52,.18,5.28,.32,1.7-1.35,2.31-5.09-.24-5.62,.39-1.08,.89-2.06,1.4-3.14,.24-2.03-2.17-2.04-4.25-1.85-1.98-.03-3.85-.16-5.83-.3-1.19,.26-2.5,.52-3.7,.68-.33,.02-.66,.03-.99,.04-1.74,.28-3.49,.46-5.23,.74-1.21,.05-2.52,.1-3.73,.15-.59-1.04-1.18-1.97-1.66-3.02-.87,.03-1.75,.07-2.58,1.17-1.09,.04-2.19,.09-3.18,.13-1.1-.17-2.1-.34-3.2-.4-.09,.54-.29,.97-.48,1.51-2.96,.01-5.93-.08-8.89-.17-4.92,.41-9.84,.82-14.76,1.12-.99,.04-2.08,.08-3.18,.13-2.74,0-5.6-.1-8.35-.19-1.7-1.32-3.04-1.79-3.17,.13-1.1,.04-2.08,.08-3.17,.13-1.18,.58-2.37,1.16-3.66,1.74-.44,.02-.99,.04-1.53,.06-7.03-2.8-12.19-.37-17.89-.35-6.86-1.43-16.58-.4-23.68,.42-.5,.98-1.73,.49-2.6,.63-.22-.1-.34-.3-.57-.51-11.12-.94-21.09,1.8-31.62-.75-.83,.99-2.39,.52-3.59,.67-3.92-1.75-9.88-.24-14.83-.47-1.62-1.95-5.59,.01-7.95-1.17-5.67,.65-10.64-2.55-16.36-.41-1.21-.06-2.42-.22-3.63-.28-2.24-1.08-6.09-1.46-7.34,.3-2.53-.33-4.96-.54-7.49-.76-1.59-1.21-4.66-1.09-5.72-.3-.76,.03-1.42,.06-2.19,.09-2.15-1.4-3.68-1.34-5.3-.75-1.42,.06-2.74,.11-4.16,.17-1.42,.06-2.85,.12-4.16,.17-2.26-1.51-3.79-1.44-5.3-.85-1.44-.26-2.87-.52-4.31-.89-1.55-.26-3.2-.51-4.75-.77-3.17,.23-4.91-1.93-9.06-1.66-1.55-.37-3.1-.62-4.75-.87-1.32-.06-2.15,.93-3.57,1.2-2.15-1.61-5.9-1.99-9.02-.7-.17-3.93-3.81-1.86-5.89-1.78-1.84-1.95-5.73-.73-5.96-3.38-1.88-.24-1.84,.61-2.98,2.14-1.02-.81-1.82-1.52-2.74-2.44,.28-1.18,.77-2.58-.11-2.55-.5-1.47-1.29-2.07-2.32-2.88-1.71,1.13-2.06,3.27-4.47,5.71-.37-.94-.74-1.99-1.11-2.93-.29,3.41-4.97,1.79-5.11,3.71,.02,.43,.03,.75,.05,1.06-.93,1.31-2.29,2.75-3.03,3.63,.05,1.06,.09,2.12,.13,3.08-.55,.02-1.1,.04-1.64,.07,.05,1.06,.09,2.02,.13,3.08-1.1,2.39-3.88,4.19-.7,6.62-2.41,2.75-3.54,6.95-.2,8.19,.63,1.89,1.25,3.67,1.77,5.56-2.35,1.37-1.05,3.77-1.29,5.69,.68,.61,1.48,1.32,2.17,1.93-2.04,1.04-2.09,2.53-1.91,4.12,1.25,1.02,3.08,.3,4.14-.59,.46,.62,.83,1.35,1.18,1.97,1.94-.72,3.77-1.54,5.72-2.25,.55-.02,.98-.04,1.53-.06,.3,1.8,.49,3.7,.78,5.5,.13,.53,.37,1.05,.61,1.57,.72,1.35,1.54,2.6,2.25,3.95,.68,.4,1.45,.68,2.13,.98,1.22,.27,2.55,.53,3.76,.81,.59,.93,2.76,.31,4.18,.36,1.97-.08,3.83-.15,5.8-.23,1.99,.34,3.86,.59,5.85,.83,1.57,.89,3.22,.83,4.75,.77,1.77,.36,3.54,.6,5.3,.85,1.1-.05,2.08-.09,3.18-.13,.88,.18,1.77,.25,2.65,.42,3.44,.82,5.45,1.7,7.95,1.17,3.18-.13,6.24-.25,9.42-.38,2.52-.1,4.93-.19,7.33-.29,.89,.18,1.77,.35,2.65,.42,1.18,1.97,4.25,1.85,5.82,.3,.24,.52,.37,.94,.61,1.46,2.63-.21,5.24-.53,7.86-.85,1.96-.19,3.82-.47,5.78-.66,1.01,.38,2.12,.87,3.24,1.36,.99-.04,2.08-.08,3.05-.65,1.22,.37,2.55,.64,3.77,.91,1.14,.91,2.75,.21,4.18,.36,1.09-.05,2.19-.09,3.17-.13,4.36-.6,8.73-1.09,13.09-1.59,.34,.2,.67,.29,1.12,.49,1.74-.39,3.47-.78,5.21-1.27,.66-.03,1.42-.06,2.08-.08,2.68-1.6,3.77-1.75,4.67-1.14,.88,.07,1.77,.24,2.65,.32,2.27-.83,.76,2.31,2.72,2.02,.63-.77,1.37-1.44,1.99-2.2,1.64-.07,4.5-2.52,4.84,.34,1.28-.79,3.8-.9,5.26-.21,1.94-.71,2.29-.3,4.75,.87,.22-2.67,.88-2.59,2.61-.63,3.87-1.86,8.28-1.4,11.47-.99,1.52-.38,3.79-1.22,4.29,.36,4.28,.04,6.99-.7,11.08,.09-1.09,2.71,2.8,1.27,3.65,.81,1.73-3.15,6.24-.35,8.31-3.31,.33-.02,.66-.03,1.09-.05,1.1,2.62,4.17,.15,5.25,2.34,1.37,1.33,3.59-.57,5.21-1.27,1.31-.05,2.52-.1,3.72-.15-.25-.74,.61-1.09,.99-2.59,.65-.02,1.42-.05,2.08-.08,.37,1.05,.74,1.99,1.11,3.04,3.81-.58,7.5-1.58,10.54,.11,3.57-1.21,6.75,1.43,10.57,1.07,.18-.86-.42-2.01,.44-2.57,3.71-.47,7.22,4.81,10.01,.66,1.66,.36,3.22,.83,4.88,1.29,1.19-.37,2.38-.73,3.57-1.21,.42-.34,.74-.67,1.06-1,1.19-.26,2.39-.42,3.59-.68,1.97-.18,5.16,2.56,5.78-.76,1.01,.49,2.02,1.09,3.22,.94-.5-1.47,1.34-2.07,1.91-4.22,3.72-.15,7.34-.29,11.06-.44,1.81,1.2,4.27,2.27,4.14-.59,7.41-1.14,14.71-2.29,22.01-3.43,.66-.02,1.42-.06,2.08-.08,3.04-.66,5.98-1.31,8.91-1.95-2-3.22-5.65-1.26-8.52-1.68ZM59.12,30.35c1.5,.13,3.05,.23,4.62,.25-1.52,.21-3.06,.2-4.62-.25Zm13.72-1.21c.66-.12,1.19,0,1.64,.22-.55-.12-1.1-.2-1.64-.22Zm5.3,2.34l.05,.02c-.69,.02-1.47,.12-1.68-.47,.46,.35,.96,.57,1.63,.45Zm1.14,1.02c.04-.2,.04-.35,.01-.48,.33,.15,.65,.3,.98,.45-.32,0-.65,0-.99,.03Zm-15.89-15.2h0c.88-.04,1.64-.07,3.07-.12-1.02,.04-2.05,.08-3.07,.12Zm66.77,7.42c-1.46-.42-2.98-.77-4.43-1.2,2.83-.71,2.99,.72,4.43,1.2Z"/></g></g></g></svg>